<svg xmlns="http://www.w3.org/2000/svg" xml:space="preserve" id="Capa_1" x="0" y="0" style="enable-background:new 0 0 512 512" version="1.1" viewBox="0 0 512 512"><style>.st2{fill:#94a6ad}.st3{fill:#858c94}</style><path d="m185 149.4 236.1 236.1c4 4 4 10.4 0 14.4L400 421c-4 4-10.4 4-14.4 0L149.5 185c-4-4-4-10.5 0-14.4l21.1-21.1c4-4.1 10.4-4.1 14.4-.1z" style="fill:#b58058"/><path d="m160.9 159.1 250.5 250.5L400 421c-4 4-10.4 4-14.4 0L149.5 185c-4-4-4-10.5 0-14.4l11.4-11.5z" style="fill:#8e6047"/><path d="m10.8 88.7 6.7-54.2c1.2-9.9 9-17.7 18.9-18.9l54.2-6.7c16.3-2 32.5 3.6 44.1 15.2l89.1 89.1-108.7 108.7L26 132.8c-11.6-11.6-17.2-27.9-15.2-44.1z" class="st2"/><path d="m169.5 167.5-54.4 54.4L26 132.8c-11.6-11.6-17.2-27.9-15.2-44.1l6.7-54.2c.6-4.9 2.9-9.4 6.2-12.7M359.6 449.6l45.5 45.5c7.3 7.3 19.2 7.3 26.6 0l65.9-65.9c7.3-7.3 7.3-19.2 0-26.6l-45.5-45.5-92.5 92.5zm123.5-31.7-62.8 62.8-33-33 62.8-62.8 33 33z" class="st3"/><path d="m405.8 403.4 12.9 12.9 31.4-31.4 33 33-31.4 31.4 12.9 12.9 33-33c7.3-7.3 7.3-19.2 0-26.6l-45.5-45.5-46.3 46.3z" class="st2"/></svg>