<?xml version="1.0" encoding="utf-8"?>
<!-- Generator: Adobe Illustrator 27.6.1, SVG Export Plug-In . SVG Version: 6.00 Build 0)  -->
<svg version="1.1" id="Capa_1" xmlns="http://www.w3.org/2000/svg" xmlns:xlink="http://www.w3.org/1999/xlink" x="0px" y="0px"
	 viewBox="0 0 512 512" style="enable-background:new 0 0 512 512;" xml:space="preserve">
<style type="text/css">
	.st0{fill:#B58058;}
	.st1{fill:#8E6047;}
	.st2{fill:#94A6AD;}
	.st3{fill:#858C94;}
</style>
<path class="st0" d="M185,149.4l236.1,236.1c4,4,4,10.4,0,14.4L400,421c-4,4-10.4,4-14.4,0L149.5,185c-4-4-4-10.5,0-14.4l21.1-21.1
	C174.6,145.4,181,145.4,185,149.4z"/>
<path class="st1" d="M160.9,159.1l250.5,250.5L400,421c-4,4-10.4,4-14.4,0L149.5,185c-4-4-4-10.5,0-14.4L160.9,159.1z"/>
<path class="st2" d="M10.8,88.7l6.7-54.2c1.2-9.9,9-17.7,18.9-18.9l54.2-6.7c16.3-2,32.5,3.6,44.1,15.2l89.1,89.1L115.1,221.9
	L26,132.8C14.4,121.2,8.8,104.9,10.8,88.7z"/>
<path class="st3" d="M169.5,167.5l-54.4,54.4L26,132.8c-11.6-11.6-17.2-27.9-15.2-44.1l6.7-54.2c0.6-4.9,2.9-9.4,6.2-12.7"/>
<path class="st3" d="M359.6,449.6l45.5,45.5c7.3,7.3,19.2,7.3,26.6,0l65.9-65.9c7.3-7.3,7.3-19.2,0-26.6l-45.5-45.5L359.6,449.6z
	 M483.1,417.9l-62.8,62.8l-33-33l62.8-62.8L483.1,417.9z"/>
<path class="st2" d="M405.8,403.4l12.9,12.9l31.4-31.4l33,33l-31.4,31.4l12.9,12.9l33-33c7.3-7.3,7.3-19.2,0-26.6l-45.5-45.5
	L405.8,403.4z"/>
</svg>
