<svg xmlns="http://www.w3.org/2000/svg" xml:space="preserve" id="Capa_1" x="0" y="0" style="enable-background:new 0 0 512 512" version="1.1" viewBox="0 0 512 512"><style>.st0{fill:none}.st2{fill:#56b963}.st3{fill:#1fa330}.st5{fill:#188026}.st7{fill:#5f5346}.st8{fill:#7f6e5d}.st9{fill:#dfebff}.st10{fill:#fff}</style><path d="M0 0h512v512H0z" class="st0"/><path d="M0 0h512v513H0z" style="fill:#373f6c"/><path d="M0 0h512v512H0z" class="st0"/><path d="M242.2 361.1H0V175.2c64.2 7.5 122.6 37.2 169 82.1 15.1 14.6 29 30.9 41.4 48.5 7.1 10 13.6 20.6 19.7 31.5 4.3 7.7 8.3 15.7 12.1 23.8z" class="st2"/><path id="path18_00000072986069444251448510000013755915901964549554_" d="M106 286.8c3.9-4.5 3.8-11.7-.2-16l-.7-.7L92 258.2c-4.3-3.9-10.7-3.1-14.1 1.7l-.6.9-.7 1.3c-2.9 4.9-2 11.4 2.1 15.1l12.9 11.7c4 3.7 9.9 3.3 13.5-.9l.9-1.2z" class="st3"/><path d="M64.5 252.1c-2.9 5.6-10.8 7.2-16.4 3.7-15.2-8.1-31.4-13.9-48.1-17.1v-24.6c21 3.6 41.3 10.7 60.3 21.2 5.1 2.9 7 11.3 4.2 16.8z" class="st3"/><path d="M0 0h512v512H0z" class="st0"/><path d="M519.5 340.1h-282l1.8-3.9c5.9-12.4 12.5-24.4 19.7-35.9 11.8-18.9 25.3-36.5 40.2-52.4 55.4-59.3 130.3-95.7 212.8-95.7v181.9l7.5 6z" class="st2"/><path id="rect24_00000067925941300998640610000014427133428547175604_" d="M365 310.3c0-6.3 4.5-11.3 10.1-11.3h15.8c5.6 0 10.1 5.1 10.1 11.3v1.6c0 6.3-4.5 11.3-10.1 11.3h-15.8c-5.6 0-10.1-5.1-10.1-11.3v-1.6z" class="st3"/><path d="M512 190.3v24.5c-27.4.1-54.4 7.1-79 20.1-5.6 3.4-13.6 1.8-16.4-3.7-2.8-5.5-.9-13.9 4.2-16.7 19.9-10.9 41.2-18.3 63.2-21.7l14.8-1.7c4.4-.5 8.8-.7 13.2-.8z" class="st3"/><path d="M0 0h512v512H0z" class="st0"/><path d="M519.5 340.1H512V513H0V343.9c27.3-22.9 57-42.3 88.7-57.6 6.6-3.2 13.3-6.2 20.1-9.1 19.5-8.2 39.6-14.8 60.3-19.9 30-7.3 61.1-11.1 93-11.1 12.5 0 24.9.6 37.2 1.8 78.7 7.4 151.4 38.2 212.8 86.2 2.4 1.9 4.9 3.9 7.4 5.9z" style="fill:#469650"/><path id="path18" d="M458.5 407.5c5.5-6.4 5.3-16.6-.3-22.8-.3-.3-.6-.7-1-1l-18.6-16.8c-6.1-5.6-15.1-4.5-20.1 2.5-.3.4-.5.8-.8 1.2l-1 1.8c-4.1 6.9-2.8 16.2 3 21.4l18.3 16.6c5.7 5.2 14.1 4.6 19.2-1.3l1.3-1.6z" class="st5"/><path id="rect24" d="M53.2 470.6c0-8.9 6.4-16.1 14.3-16.1h22.4c7.9 0 14.3 7.2 14.3 16.1v2.3c0 8.9-6.4 16.1-14.3 16.1H67.5c-7.9 0-14.3-7.2-14.3-16.1v-2.3z" class="st5"/><path id="path14-2_00000081640410168073284560000016050008421567021486_" d="M222.2 303.7c-31.2 4.9-61.6 15.3-89.8 30.8-7.3 4-10 15.9-6 23.7 4 7.8 15.4 10.1 23.2 5.2C185 344.8 223.8 335 263 335s78 9.8 113.3 28.5c7.9 4.9 19.2 2.6 23.2-5.2 4-7.8 1.3-19.7-6-23.7-28.2-15.6-58.6-26-89.8-30.8l-21.1-2.4c-13.1-1.5-26.3-1.5-39.4 0l-21 2.3z" class="st5"/><path d="M0 0h512v512H0z" class="st0"/><path d="M193.5 512v-61.8l7-44.8 14.8-18 46.4-16.6 40.4 27.8 11.1 27.1 5.3 86.3z" style="fill:#2d1704"/><path d="M0 0h512v512H0z" class="st0"/><path id="Rectangle-path" d="M184.8 496.8h13.8c1.9 0 3.4 1.4 3.4 3.2v9.7c0 1.8-1.5 3.2-3.4 3.2h-13.8c-1.9 0-3.4-1.4-3.4-3.2V500c-.1-1.7 1.5-3.2 3.4-3.2z" class="st7"/><path id="Rectangle-path_00000017516891323894663470000008095072080341092008_" d="M181.3 471h13.8c3.8 0 6.9 2.9 6.9 6.5v12.9c0 3.6-3.1 6.5-6.9 6.5h-13.8c-3.8 0-6.9-2.9-6.9-6.5v-12.9c0-3.7 3.1-6.5 6.9-6.5z" class="st8"/><path id="Rectangle-path_00000129180525255415365510000005678744954759445138_" d="M181.3 428.9h13.8c3.8 0 6.9 2.9 6.9 6.5v12.9c0 3.6-3.1 6.5-6.9 6.5h-13.8c-3.8 0-6.9-2.9-6.9-6.5v-12.9c0-3.6 3.1-6.5 6.9-6.5z" class="st8"/><path id="Shape_00000165942282246855939670000016636989145786667172_" d="m218.1 399.9-8.1 8.2c-2.6 2.6-6.9 2.8-9.7.4l-10.2-8.8c-2.6-2.4-2.6-6.3 0-8.7l9.1-8.5c1.3-1.2 3-1.9 4.9-1.9 1.8 0 3.6.7 4.9 1.9l9 8.5c2.6 2.4 2.6 6.4.1 8.9z" class="st8"/><path id="Rectangle-path_00000168806898537385465140000005224658276831556285_" d="M184.8 454.8h13.8c1.9 0 3.4 1.4 3.4 3.2v9.7c0 1.8-1.5 3.2-3.4 3.2h-13.8c-1.9 0-3.4-1.4-3.4-3.2V458c-.1-1.8 1.5-3.2 3.4-3.2z" class="st7"/><path id="Shape_00000052787261970216850500000003655891246547939215_" d="M261 393.4h-14.8c-1.8 0-3.3-1.2-3.5-2.9l-2.8-25.9c-.1-.9.2-1.8.9-2.5s1.6-1.1 2.6-1h20.5c1 0 1.9.4 2.6 1 .7.7 1 1.6.9 2.5l-2.8 25.9c-.3 1.7-1.8 2.9-3.6 2.9z" class="st8"/><path id="Shape_00000145763826362213813000000005608949776727895980_" d="m183 424.6 7.3-18.7c.4-1 1.3-1.8 2.4-2s2.3 0 3.1.7l8.1 7c.9.8 1.3 1.9 1.1 3l-2.5 11.8c-.3 1.5-1.7 2.6-3.4 2.6h-12.9c-1.1 0-2.2-.5-2.8-1.4-.6-.9-.8-2-.4-3z" class="st7"/><path id="Shape_00000101785672773874263900000010197198690001970097_" d="m236 370.7-22.7 9.7c-1 .4-1.8 1.3-2 2.4s.2 2.1 1 2.9l8.8 8.3c1 .9 2.4 1.2 3.6.7l15.3-5.3c1.5-.5 2.4-1.9 2.2-3.4l-1.4-12.7c-.1-1-.7-2-1.7-2.5s-2.1-.6-3.1-.1z" class="st7"/><path id="Rectangle-path_00000167354486155738909950000006000242714511624329_" d="M322.4 513h-13.8c-1.9 0-3.4-1.4-3.4-3.2V500c0-1.8 1.5-3.2 3.4-3.2h13.8c1.9 0 3.4 1.4 3.4 3.2v9.7c.1 1.8-1.5 3.3-3.4 3.3z" class="st7"/><path id="Rectangle-path_00000142152290878988332370000015340211469708094083_" d="M325.9 496.8h-13.8c-3.8 0-6.9-2.9-6.9-6.5v-12.9c0-3.6 3.1-6.5 6.9-6.5h13.8c3.8 0 6.9 2.9 6.9 6.5v12.9c-.1 3.6-3.1 6.5-6.9 6.5z" class="st8"/><path id="Rectangle-path_00000112605456729866098220000007035273750117278601_" d="M325.9 454.8h-13.8c-3.8 0-6.9-2.9-6.9-6.5v-12.9c0-3.6 3.1-6.5 6.9-6.5h13.8c3.8 0 6.9 2.9 6.9 6.5v12.9c-.1 3.6-3.1 6.5-6.9 6.5z" class="st8"/><path id="Shape_00000165940428433251481560000013499983451146042047_" d="m289.1 399.9 8.1 8.2c2.6 2.6 6.9 2.8 9.7.4l10.2-8.8c2.6-2.4 2.6-6.3 0-8.7l-9.1-8.5c-1.3-1.2-3-1.9-4.9-1.9s-3.6.7-4.9 1.9l-9 8.5c-2.6 2.4-2.6 6.4-.1 8.9z" class="st8"/><path id="Rectangle-path_00000091004696398768793830000016707811331184936120_" d="M322.4 471h-13.8c-1.9 0-3.4-1.4-3.4-3.2V458c0-1.8 1.5-3.2 3.4-3.2h13.8c1.9 0 3.4 1.4 3.4 3.2v9.7c.1 1.8-1.5 3.3-3.4 3.3z" class="st7"/><path id="Shape_00000152240321476166219930000004978277766124692874_" d="m324.2 424.6-7.3-18.7c-.4-1-1.3-1.8-2.4-2-1.1-.3-2.3 0-3.1.7l-8.1 7c-.9.8-1.3 1.9-1.1 3l2.5 11.8c.3 1.5 1.7 2.6 3.4 2.6H321c1.1 0 2.2-.5 2.8-1.4.6-.9.8-2 .4-3z" class="st7"/><path id="Shape_00000137126094170592768920000014421386327835014549_" d="m271.2 370.7 22.7 9.7c1 .4 1.8 1.3 2 2.4s-.2 2.1-1 2.9l-8.8 8.3c-1 .9-2.4 1.2-3.6.7l-15.3-5.3c-1.5-.5-2.4-1.9-2.2-3.4l1.4-12.7c.1-1 .8-2 1.7-2.5 1-.5 2.1-.6 3.1-.1z" class="st7"/><path d="M0 0h512v512H0z" class="st0"/><path d="M118.2 65c0 25.4-20.6 45.9-45.9 45.9-17.5 0-32.8-9.9-40.6-24.3 6.6 3.4 14 5.5 21.8 5.5 25.4 0 45.9-20.6 45.9-45.9 0-7.8-2-15.2-5.3-21.6 14.3 7.8 24.1 23 24.1 40.4z" class="st9"/><path d="M0 0h512v512H0z" class="st0"/><path d="M202 156.2v-.3c0-16.9 12.8-30.7 28.5-30.7 3.7 0 7.3.8 10.6 2.2 6.3-12.2 18.4-20.4 32.3-20.4 18 0 33 13.9 36.3 32.3 1-.1 2-.2 3-.2 9.8 0 18 7.3 20.2 17.1H202z" class="st10"/><path d="M229.8 156.2v-.1c0-9.8 7.4-17.6 16.4-17.6 2.2 0 4.2.4 6.1 1.3 3.6-7 10.6-11.7 18.6-11.7 10.4 0 19 8 20.8 18.6.6-.1 1.1-.1 1.7-.1 5.6 0 10.4 4.2 11.6 9.8l-75.2-.2z" class="st9"/><path d="M0 0h512v512H0z" class="st0"/><path d="M487.9 89.5v-.3c0-20.9-17-37.9-37.9-37.9-4.9 0-9.7 1-14.1 2.7-8.4-15.1-24.5-25.2-42.9-25.2-24 0-44 17.2-48.3 39.9-1.3-.2-2.6-.3-4-.3-13 0-23.9 9-26.9 21.2l174.1-.1z" class="st10"/><path d="M450.9 89.5v-.2c0-12.1-9.8-21.8-21.8-21.8-2.9 0-5.6.5-8.1 1.6-4.9-8.7-14.1-14.5-24.7-14.5-13.8 0-25.2 9.9-27.8 23-.8-.1-1.5-.2-2.3-.2-7.5 0-13.8 5.2-15.4 12.1h100.1z" class="st9"/></svg>