<?xml version="1.0" encoding="utf-8"?>
<!-- Generator: Adobe Illustrator 27.6.1, SVG Export Plug-In . SVG Version: 6.00 Build 0)  -->
<svg version="1.1" id="Capa_1" xmlns="http://www.w3.org/2000/svg" xmlns:xlink="http://www.w3.org/1999/xlink" x="0px" y="0px"
	 viewBox="0 0 512 512" style="enable-background:new 0 0 512 512;" xml:space="preserve">
<style type="text/css">
	.st0{clip-path:url(#SVGID_00000040574291257160854110000008920885246734865792_);fill:#B6DFCC;}
	.st1{clip-path:url(#SVGID_00000040574291257160854110000008920885246734865792_);}
	.st2{fill:#79BC69;}
	.st3{fill:#6BBC56;}
	.st4{fill:#59BC3E;}
	.st5{fill:#63A752;}
	.st6{clip-path:url(#SVGID_00000040574291257160854110000008920885246734865792_);fill:#7A5B44;}
	.st7{clip-path:url(#SVGID_00000040574291257160854110000008920885246734865792_);fill:#5F8D2B;}
	.st8{clip-path:url(#SVGID_00000040574291257160854110000008920885246734865792_);fill:#D25627;}
	.st9{clip-path:url(#SVGID_00000040574291257160854110000008920885246734865792_);fill:#F29C1F;}
	.st10{clip-path:url(#SVGID_00000040574291257160854110000008920885246734865792_);fill:#805333;}
	.st11{clip-path:url(#SVGID_00000040574291257160854110000008920885246734865792_);fill:#603E26;}
	.st12{clip-path:url(#SVGID_00000040574291257160854110000008920885246734865792_);fill:#8BC923;}
	.st13{fill:#7EB515;}
	.st14{fill:#D25627;}
	.st15{fill:#E57E25;}
	.st16{fill:#805333;}
	.st17{fill:#F29C1F;}
	.st18{fill:#603E26;}
</style>
<g>
	<defs>
		<rect id="SVGID_1_" width="512" height="512"/>
	</defs>
	<clipPath id="SVGID_00000160151039458804969080000001576195283609385663_">
		<use xlink:href="#SVGID_1_"  style="overflow:visible;"/>
	</clipPath>
	
		<rect style="clip-path:url(#SVGID_00000160151039458804969080000001576195283609385663_);fill:#B6DFCC;" width="512" height="512"/>
	<g style="clip-path:url(#SVGID_00000160151039458804969080000001576195283609385663_);">
		<path class="st2" d="M693.5,630.1L472.7,262c-8.5-14.1-26.3-19.3-41-11.9l-26.7,13.4c-6.1,3-13.4,1.8-18.2-2.9L262.2,135.9
			c-13.2-13.2-34.9-12.1-46.6,2.4l-323.9,397.5v94.3H693.5z"/>
		<path class="st3" d="M404.9,263.4c-6.1,3-13.4,1.8-18.1-2.9l-4.7-4.7L273.9,625.7l15.1,4.4h16.4L414,258.9L404.9,263.4z"/>
		<path class="st3" d="M111.7,394.3l139.7-265.4c-12.3-4.8-27-1.5-35.9,9.5l-323.9,397.5v94.3h220.1V394.3z"/>
		<path class="st3" d="M226.3,333.2c-11.6-10.1-28.9-10.3-40.8-0.4l-73.8,61.5L24,356.7c-13.1-5.6-28.4-1.7-37.2,9.6l-205.2,263.9
			h786.2L226.3,333.2z"/>
		<path class="st4" d="M24,356.7c-13.1-5.6-28.4-1.7-37.2,9.6l-205.2,263.9h440.3L111.7,394.3L24,356.7z"/>
		<path class="st5" d="M24,356.7c-13.1-5.6-28.4-1.7-37.2,9.6l-205.2,263.9h125.8L52.5,368.9L24,356.7z"/>
		<path class="st3" d="M725,645.9h-974.9c-8.7,0-15.7-7-15.7-15.7c0-8.7,7-15.7,15.7-15.7H725c8.7,0,15.7,7,15.7,15.7
			C740.7,638.8,733.7,645.9,725,645.9z"/>
	</g>
	<path style="clip-path:url(#SVGID_00000160151039458804969080000001576195283609385663_);fill:#7A5B44;" d="M48.5,518.4
		c0,0-58.8-180.1,10-422.5L27,83.8c0,0-89.8,257.6-38.5,441.9L48.5,518.4z"/>
	<path style="clip-path:url(#SVGID_00000160151039458804969080000001576195283609385663_);fill:#5F8D2B;" d="M-126.9-0.8
		c14.3-38.9,48-40.8,48-40.8c65.5-35.8,106,25,106,25C31-69.1-10-83.9-10-83.9c34.4-19.9,63.2,6,63.2,6C91.2-29.4,77.9,1.2,77.9,1.2
		c13.6-31.4,66.4-23.3,66.4-23.3c78.4,18.8,49.2,80.7,49.2,80.7c-28.4-69.2-99.7-5.2-99.7-5.2c8.1-4.7,21.3-0.5,21.3-0.5l71.5,37.9
		c30,22,29.6,64.5,29.6,64.5c10.7,25.9-5.9,41.3-5.9,41.3c2.7-17.2-27.7-35-27.7-35c0.5-9.4-30.7-31.8-30.7-31.8
		c-13.5-20.9-32.7-7.3-32.7-7.3c17.7,4.2,18.8,21.1,18.8,21.1l13.8,69.7c6.6,19.1-8.4,29-8.4,29c11.8,42.8-21.9,76-21.9,76
		s5.9-38.7-21.8-52.8c0,0,0.2-24.3-13.4-42.6c-13.6-18.3-16.6-52.5-16.6-52.5s-24-24-23.8-50.9c0.2-26.9-17-14.4-17-14.4l-34.9,42.3
		c0,0-10.7-10.2-36.9,36.3l-7-9.7c0,0-20.8,51.2-34.6,41.5c0,0-14.7,45.7-10.2,58.8c0,0-37.6-37.1,19.7-149.2
		c0,0,25.8-29.3,62.5-38.7c0,0-30.6-3.9-51.7,6.3l1.6-8.1c0,0-27.9,5-41.9,24.8l0.2-11.2c0,0-26.7,14.1-37.1,42.3
		c0,0-12.3-49.1,48.2-99c0,0,17.2-23,59.3-27.7c0,0-9.2-25.5-46.9-28.5c0,0-10.1,13.8-24.5,6.3C-119.6-15.7-126.9-0.8-126.9-0.8z"/>
	<path style="clip-path:url(#SVGID_00000160151039458804969080000001576195283609385663_);fill:#D25627;" d="M260.5,278.8
		c-10.7-1.8-19.2-10.1-22-20.4c-1.7-6.3-1-12.8,1.8-18.7c5-10.1,14.4-16.4,23-23.7c9.1-7.7,19.1-14.2,29.1-20.6
		c0.8-0.5,1.6-1,2.5-1.5c0.2-0.1,0.4-0.2,0.5-0.2c0.4,0,0.8,0.4,0.8,0.8c0,0.2-0.1,0.3-0.3,0.5c-4.1,4.9-8.2,10-11.5,15.6
		c-0.7,1.2-1.4,2.5-1.7,3.9c-0.4,1.8,1,1.4,1.9,0.9c1.7-0.9,3.1-2,4.5-3.3c21.6-19.3,43.2-38.6,64.8-57.8c0.5-0.5,1.3,0.2,0.8,0.9
		c-10.2,14.6-21,28.7-31.6,43c-2.1,2.9-4.2,5.8-6.3,8.7c-0.2,0.3-5,7.1-3,6.7c0.3-0.1,0.7-0.2,1-0.4c1.3-0.7,2.5-1.5,3.6-2.6
		c5.3-4.7,10.5-9.4,15.8-14.1c0.3-0.3,0.6-0.3,0.8,0c0.3,0.3,0.2,0.6,0,0.9c-5.7,9.6-11.9,19.7-18.8,30.5
		c-6.9,10.9-13.9,21.2-21.4,31.2c-3,4-6,7.7-9.4,11.3c-0.5,0.5-0.9,0.9-1.2,1.3C278,277.5,269.2,280.3,260.5,278.8z M248.2,266.4
		c4.8,6.1,12.5,9.1,20,6.3c3.8-1.4,7.2-3.5,10.3-6c8.5-6.9,14.5-16,19.4-25.7c2-4,4.2-8.4,6.5-13.4c0.2-0.5,0.5-0.9-0.2-1.2
		c-0.1,0-0.2,0-0.3,0.1c-4.5,4.1-9,8.2-13.5,12.2c-0.6,0.5-1.9,1.3-2.6,1.2c-1.1-0.1,0.7-3.2,0.9-3.6c1.7-2.9,3.5-5.6,5.4-8.4
		c6.5-9.4,13-18.8,19-28.5c0.2-0.4,0.2-0.7-0.1-0.9c-0.2-0.2-0.4-0.1-0.6,0c-13.3,10.9-26.6,21.8-39.9,32.8
		c-0.6,0.5-1.1,0.9-1.4,1.1c-1,0.6-3.6,2-4.3,0.4c-0.9-2-0.5-4,0.4-5.8c1.1-2.1,2.6-4,4-5.9c0.1-0.1,0.1-0.2,0.1-0.3
		c-0.1-0.5-0.5-0.5-0.9-0.4c-11.9,5.3-22.8,15.6-26.3,28.5C242.1,255.2,244.3,261.4,248.2,266.4z"/>
	<path style="clip-path:url(#SVGID_00000160151039458804969080000001576195283609385663_);fill:#F29C1F;" d="M268.2,272.7
		c-7.5,2.7-15.2-0.2-20-6.3c-3.9-5-6.1-11.2-4.3-17.5c3.5-12.9,14.5-23.1,26.3-28.5c0.4-0.2,0.8-0.1,0.9,0.4c0,0.1,0,0.2-0.1,0.3
		c-1.4,1.9-3,3.8-4,5.9c-0.9,1.8-1.3,3.9-0.4,5.8c0.7,1.6,3.4,0.2,4.3-0.4c0.3-0.2,0.8-0.6,1.4-1.1c13.3-10.9,26.6-21.8,39.9-32.8
		c0.2-0.2,0.4-0.2,0.6,0c0.3,0.2,0.3,0.5,0.1,0.9c-6,9.8-12.5,19.1-19,28.5c-1.9,2.7-3.8,5.5-5.4,8.4c-0.2,0.4-2.1,3.5-0.9,3.6
		c0.8,0.1,2.1-0.7,2.6-1.2c4.5-4,8.9-8.1,13.5-12.2c0.1-0.1,0.2-0.1,0.3-0.1c0.7,0.3,0.5,0.7,0.2,1.2c-2.3,4.9-4.5,9.4-6.5,13.4
		c-4.9,9.7-10.9,18.7-19.4,25.7C275.4,269.3,272,271.4,268.2,272.7z M260.1,269.5c0.5,0.1,1,0.3,1.5,0.4c0.6,0.2,1.2,0.7,1.7,1
		c1.3,0.8,2-0.4,3.2-0.1c0.7,0.2,1.2,0.7,2.1,0.3c0.5-0.2,1.4-0.5,1.8-1c0.5-0.6,1-1.2,1.6-1.8c0.8-0.7,1.5-1.5,2.2-2.2
		c0.4-0.4,0.6-0.5,1.1-0.6c0.5-0.1,1.3-0.3,1.7-0.8c0.5-0.6,1-1.2,1.6-1.6c0.9-0.7,2-1.6,2.6-2.7c0.5-0.8,1-1.7,1.4-2.6
		c0.5-1-0.2-1.8-0.1-2.9c0-0.4,0.1-0.9,0.1-1.3c0.1-1.2,1.2-1.6,0.7-2.9c-0.3-0.8-1.2-1.1-1.1-2.2c0.1-0.8,0.2-1.3,0-2.1
		c-0.1-0.5-0.2-1.4-0.6-1.8c-0.2-0.3-0.6-0.6-1.2-1c-0.7-0.5-1.5-0.3-2.3-0.6c-0.2-0.1-0.4-0.2-0.4-0.3c-0.7-0.8-1.3-1.7-2.1-2.4
		c-0.5-0.5-1.1-1.1-1.7-1.4c-0.6-0.3-1.6-0.7-2-1.2c-0.4-0.5-0.8-1-1.3-1.5c-0.2-0.2-0.4-0.4-0.8-0.5c-0.7-0.3-1.5-0.7-2.2-0.8
		c-0.6-0.1-1.2-0.2-1.7-0.2c-0.7-0.1-1.6,0.1-2.3,0.2c-0.8,0.1-1.6,0.4-2.4,0.7c-1,0.3-1.9-0.3-2.8-0.6c-0.9-0.4-1.7,0-2.8,0.4
		c-0.9,0.3-1.7,0.9-2.5,1.4c-0.7,0.4-0.9,1.5-1.3,2.2c-0.3,0.7-0.8,0.9-1.6,1.4c-0.7,0.4-0.9,0.9-1.2,1.7c-0.3,0.8-0.6,1.5-1,2.3
		c-0.3,0.6-0.2,1.4-0.1,2.1c0,0.5,0,1,0,1.4c-0.1,1.8-0.2,3.5-0.4,5.2c-0.1,0.9,0.4,1.7,0.7,2.5c0.4,0.9-0.1,2,0.3,2.9
		c0.3,0.7,1.2,1.1,1.5,1.9c0.4,1.1-0.5,2.3-0.1,3.3c0.1,0.2,0.3,0.6,0.6,1.3c0.3,0.6,0.4,1,0.9,1.3c0.4,0.3,1.3,1,1.8,1
		c0.8,0,1.6,0,2.4,0.2c0.5,0.1,1,0.2,1.4,0.3C258.4,268,258.9,269.2,260.1,269.5z"/>
	<path style="clip-path:url(#SVGID_00000160151039458804969080000001576195283609385663_);fill:#805333;" d="M260.1,269.5
		c-1.2-0.3-1.7-1.6-2.9-1.8c-0.5-0.1-1-0.2-1.4-0.3c-0.8-0.2-1.6-0.2-2.4-0.2c-0.5,0-1.4-0.7-1.8-1c-0.5-0.3-0.6-0.7-0.9-1.3
		c-0.3-0.7-0.5-1.1-0.6-1.3c-0.4-1,0.5-2.2,0.1-3.3c-0.3-0.8-1.2-1.1-1.5-1.9c-0.4-0.9,0.1-1.9-0.3-2.9c-0.3-0.8-0.8-1.6-0.7-2.5
		c0.2-1.7,0.3-3.5,0.4-5.2c0-0.5,0-1,0-1.4c0-0.7-0.2-1.5,0.1-2.1c0.4-0.8,0.7-1.5,1-2.3c0.3-0.8,0.4-1.3,1.2-1.7
		c0.8-0.5,1.2-0.6,1.6-1.4c0.3-0.7,0.6-1.8,1.3-2.2c0.8-0.5,1.6-1.1,2.5-1.4c1.1-0.3,1.9-0.7,2.8-0.4c0.9,0.4,1.8,1,2.8,0.6
		c0.8-0.3,1.6-0.5,2.4-0.7c0.7-0.1,1.6-0.3,2.3-0.2c0.6,0.1,1.2,0.2,1.7,0.2c0.7,0.1,1.5,0.5,2.2,0.8c0.4,0.2,0.6,0.3,0.8,0.5
		c0.4,0.5,0.8,1,1.3,1.5c0.4,0.5,1.4,0.9,2,1.2c0.6,0.3,1.2,0.9,1.7,1.4c0.8,0.7,1.4,1.6,2.1,2.4c0.1,0.1,0.2,0.2,0.4,0.3
		c0.7,0.3,1.6,0.1,2.3,0.6c0.6,0.4,0.9,0.8,1.2,1c0.4,0.4,0.4,1.2,0.6,1.8c0.2,0.8,0.1,1.3,0,2.1c-0.1,1.1,0.8,1.4,1.1,2.2
		c0.5,1.3-0.6,1.7-0.7,2.9c0,0.4-0.1,0.9-0.1,1.3c-0.1,1.2,0.6,1.9,0.1,2.9c-0.5,0.9-0.9,1.7-1.4,2.6c-0.6,1-1.7,1.9-2.6,2.7
		c-0.6,0.5-1.1,1.1-1.6,1.6c-0.4,0.5-1.2,0.7-1.7,0.8c-0.5,0.1-0.8,0.3-1.1,0.6c-0.7,0.7-1.5,1.5-2.2,2.2c-0.6,0.6-1.1,1.2-1.6,1.8
		c-0.4,0.5-1.2,0.8-1.8,1c-0.9,0.3-1.4-0.2-2.1-0.3c-1.2-0.3-1.9,1-3.2,0.1c-0.5-0.3-1.1-0.8-1.7-1
		C261.1,269.8,260.6,269.7,260.1,269.5z M257.4,238.1c-0.7-0.6-2.7,0.4-4.5,2.3c-1.8,1.9-2.7,4-2.1,4.6c0,0,0,0,0,0
		c0.7,0.6,2.7-0.4,4.5-2.3S258.1,238.7,257.4,238.1C257.4,238.1,257.4,238.1,257.4,238.1z M264.6,251.7c1.8,1.5,4.7,1,6.5-1.1
		c0,0,0,0,0,0c1.7-2.1,1.6-5.1-0.2-6.6c0,0,0,0,0,0c-1.8-1.5-4.7-1-6.5,1.1c0,0,0,0,0,0C262.7,247.3,262.8,250.2,264.6,251.7z
		 M278.3,255.4c1.2,0.2,2.5-1.2,2.7-3v0c0.3-1.9-0.5-3.5-1.7-3.7c0,0,0,0,0,0c-1.2-0.2-2.5,1.2-2.7,3c0,0,0,0,0,0
		C276.2,253.5,277,255.2,278.3,255.4L278.3,255.4z M252.8,259.7c1.1,0.5,2.6-0.3,3.4-1.9c0,0,0,0,0,0c0.8-1.6,0.6-3.3-0.5-3.9
		c-1.1-0.5-2.6,0.3-3.4,1.9l0,0C251.5,257.5,251.7,259.2,252.8,259.7z M271.5,262.4c-0.8-0.7-2.3-0.4-3.4,0.8c0,0,0,0,0,0
		c-1.1,1.2-1.4,2.7-0.6,3.4c0.8,0.7,2.3,0.4,3.4-0.8C272,264.6,272.3,263.1,271.5,262.4z M261.6,267.3c0.3,0.3,0.8,0.2,1.1-0.2
		c0.3-0.4,0.3-0.8,0-1.1c-0.3-0.3-0.8-0.2-1.1,0.2C261.3,266.5,261.3,267,261.6,267.3z"/>
	
		<ellipse transform="matrix(0.6866 -0.727 0.727 0.6866 -95.9768 260.4793)" style="clip-path:url(#SVGID_00000160151039458804969080000001576195283609385663_);fill:#603E26;" cx="254.2" cy="241.6" rx="4.8" ry="1.7"/>
	
		<ellipse transform="matrix(0.6302 -0.7764 0.7764 0.6302 -93.4299 299.5707)" style="clip-path:url(#SVGID_00000160151039458804969080000001576195283609385663_);fill:#603E26;" cx="267.8" cy="247.9" rx="5" ry="4.3"/>
	
		<ellipse transform="matrix(0.1489 -0.9889 0.9889 0.1489 -11.9592 490.1417)" style="clip-path:url(#SVGID_00000160151039458804969080000001576195283609385663_);fill:#603E26;" cx="278.8" cy="252" rx="3.4" ry="2.3"/>
	
		<ellipse transform="matrix(0.4409 -0.8975 0.8975 0.4409 -88.3793 371.7827)" style="clip-path:url(#SVGID_00000160151039458804969080000001576195283609385663_);fill:#603E26;" cx="254.2" cy="256.8" rx="3.2" ry="2.2"/>
	
		<ellipse transform="matrix(0.6854 -0.7282 0.7282 0.6854 -107.8053 279.4586)" style="clip-path:url(#SVGID_00000160151039458804969080000001576195283609385663_);fill:#603E26;" cx="269.5" cy="264.5" rx="2.9" ry="1.9"/>
	
		<ellipse transform="matrix(0.6302 -0.7764 0.7764 0.6302 -110.1025 302.124)" style="clip-path:url(#SVGID_00000160151039458804969080000001576195283609385663_);fill:#603E26;" cx="262.1" cy="266.6" rx="0.8" ry="0.7"/>
	<path style="clip-path:url(#SVGID_00000160151039458804969080000001576195283609385663_);fill:#8BC923;" d="M-17,521H529v-53.6
		c0-27-21.6-49.2-48.6-49.4c-0.2,0-0.3,0-0.5,0c-17.1,0-32.5,7.1-43.5,18.4c-10.2-31.6-40.4-54.3-75.7-53.1
		c-40.6,1.3-73.4,34.7-74.2,75.2c0,0.5,0,1,0,1.5c-0.8-0.4-53.6-28.9-91.9,9.4c-9,8.8-12.8,18.7-13.3,28.5
		c-9-17-26.9-28.5-47.4-28.5c-7.9,0-15.3,1.7-22,4.8c-7.2-29-33.4-50.4-64.5-50.4c-0.7,0-1.5,0-2.2,0c-34.2,1.1-61.1,29.6-61.6,63.8
		L-17,521z"/>
	<g style="clip-path:url(#SVGID_00000160151039458804969080000001576195283609385663_);">
		<path class="st13" d="M194.6,497.9c-7.3,7.2-11.2,15.1-12.7,23.1h347v-25.2c0-27-21.6-49.2-48.6-49.4c-0.2,0-0.3,0-0.5,0
			c-17.1,0-32.5,7.1-43.5,18.4c-10.2-31.6-40.4-54.3-75.7-53.1c-40.6,1.3-73.4,34.7-74.2,75.2c0,0.5,0,1,0,1.5
			C285.7,488.1,232.9,459.7,194.6,497.9z"/>
		<path class="st13" d="M-16.6,521H178c-9.7-14-25.9-23.1-44.1-23.1c-7.9,0-15.3,1.7-22,4.8c-7.2-29-33.4-50.4-64.5-50.4
			c-0.7,0-1.5,0-2.2,0C10.9,453.5-16,482-16.5,516.2L-16.6,521z"/>
	</g>
	<g id="Page-1" style="clip-path:url(#SVGID_00000160151039458804969080000001576195283609385663_);">
		<g id="_x30_16---Volcano">
			<path id="Shape" class="st14" d="M610,101.7c0,14.2-11.1,25.6-24.8,25.6h-90.9v42.7h-49.6v-42.7h-90.9
				c-13.7,0-24.8-11.5-24.8-25.6S340.2,76,353.8,76c2.9,0,5.7,0.6,8.4,1.6c0-0.5-0.2-1.1-0.2-1.6c0-11.3,7.2-21.2,17.7-24.5
				c10.5-3.2,21.7,1,27.8,10.4c6.4-10.1,18.7-14.2,29.6-9.7c3.1-15.9,16.7-27.4,32.4-27.4s29.3,11.5,32.4,27.4
				c10.8-4.5,23.2-0.4,29.6,9.7c6-9.4,17.3-13.6,27.8-10.4S576.9,64.7,577,76c0,0.5-0.2,1.1-0.2,1.6c2.7-1.1,5.5-1.6,8.4-1.6
				C598.9,76,610,87.5,610,101.7z"/>
			<path id="Shape_00000000190958626156966440000015390398519528103599_" class="st15" d="M444.7,118.8v8.5h-16.5v-8.5
				c0-9.4-7.4-17.1-16.5-17.1c-4.6,0-8.3-3.8-8.3-8.5c0-4.7,3.7-8.5,8.3-8.5C429.9,84.6,444.7,99.9,444.7,118.8z"/>
			<path id="Shape_00000125599536331102280900000015674206109155825027_" class="st15" d="M535.6,93.1c0,4.7-3.7,8.5-8.3,8.5
				c-9.1,0-16.5,7.7-16.5,17.1v8.5h-16.5v-8.5c0-18.9,14.8-34.2,33.1-34.2C531.9,84.6,535.6,88.4,535.6,93.1z"/>
			<path id="Shape_00000101096709871845424930000015075790837292613054_" class="st16" d="M356,346.9c-4.8,15.7-11,31-18.7,45.5
				c-25.2,47-68.1,91.3-91.3,113.4c-2.5,2.4-3.3,6.1-2,9.4c1.2,3.3,4.3,5.4,7.7,5.4h435.9c3.4,0,6.4-2.1,7.7-5.4s0.5-7-2-9.4
				c-23.4-22.4-45.1-46.8-64.7-72.9c-9.6-12.9-18.4-26.4-26.1-40.6L478.5,229.2L356,346.9z"/>
			<path id="Shape_00000129200338088544388980000003201386364992566674_" class="st17" d="M628.5,433c-8.3,5-17.4,8.6-26.8,10.7
				c-74.4,17.1-82.6-136.8-99.2-162.4c-16.5-25.6-57.8-17.1-57.8,34.2S420,418,378.6,400.9c-13.8-5.7-24.8-25.6-22.6-54
				c13.9-49.3,21.4-100.3,22.3-151.7c0.3-9.2,7.6-16.6,16.5-16.6h24.7c0.1-0.3,0.1-0.6,0.1-0.9c0.4-9.1,7.7-16.2,16.4-16.2H503
				c8.8,0,16,7.1,16.4,16.2c0,0.3,0,0.6,0.1,0.9h24.8c8.9,0,16.2,7.3,16.4,16.5c1.5,43.3,8.3,135.2,41.6,197.2
				C610.2,406.5,618.9,420.1,628.5,433L628.5,433z"/>
			<path id="Shape_00000090987181600219906910000001949501313972562339_" class="st15" d="M419.5,178.6v0.4
				c-1.1,23.4-3.8,46.7-8,69.7c-0.8,4-4.2,6.8-8.1,6.8c-0.6,0-1.1-0.1-1.7-0.2c-2.1-0.5-4-1.8-5.2-3.7c-1.2-1.9-1.6-4.2-1.2-6.4
				c4-22,6.5-44.3,7.7-66.7L419.5,178.6z"/>
			<path id="Shape_00000127015504615504660690000003012693215802070700_" class="st15" d="M537.3,255.4c-0.5,0.1-1.1,0.2-1.7,0.2
				c-3.9,0-7.3-2.9-8.1-6.8c-4.2-23-6.9-46.3-8-69.7v-0.4h16.5c1.1,22.4,3.7,44.7,7.7,66.7c0.4,2.2,0,4.5-1.2,6.4
				C541.3,253.6,539.4,254.9,537.3,255.4L537.3,255.4z"/>
			<g>
				<path id="Shape_00000114765279821365003390000015578613031703784619_" class="st18" d="M377.5,456.6
					c-13.1,22.8-28.3,44.2-45.4,64h-23.1l5.9-6.1c18.4-20.3,34.6-42.7,48.3-66.7c1.5-2.7,4.2-4.3,7.2-4.3c3,0,5.7,1.7,7.2,4.4
					C379.1,450.6,379,453.9,377.5,456.6L377.5,456.6z"/>
				<path id="Shape_00000179621253536018216620000012816949861766143419_" class="st18" d="M477.8,392.4
					c0,32.6-14.1,115.6-16.4,128.2h-16.8l0.2-1.5c0.2-0.9,16.4-93.7,16.4-126.7c0-4.7,3.7-8.5,8.3-8.5
					C474.1,383.8,477.8,387.6,477.8,392.4z"/>
				<path id="Shape_00000097459955463046762370000015825203480986419359_" class="st18" d="M591.7,520.6h-27.9
					c-17.1-15.3-29.7-35.4-36.2-57.8c-0.9-4.5,1.8-8.9,6.1-10s8.7,1.5,9.9,5.9C551.7,484.8,568.9,506.8,591.7,520.6L591.7,520.6z"/>
			</g>
		</g>
	</g>
</g>
</svg>
