<svg xmlns="http://www.w3.org/2000/svg" xml:space="preserve" id="Capa_1" x="0" y="0" style="enable-background:new 0 0 512 512" version="1.1" viewBox="0 0 512 512"><style>.st0{fill:none}.st2{fill:#79bc69}.st3{fill:#6bbc56}.st8{fill:#d25627}.st9{fill:#f29c1f}.st10{fill:#805333}.st11{fill:#603e26}.st13{fill:#7eb515}.st14{fill:#e57e25}</style><path d="M0 0h512v512H0z" class="st0"/><path d="M0 0h512v512H0z" style="fill:#b6dfcc"/><path d="M0 0h512v512H0z" class="st0"/><path d="M512 327.5V512H197l28.2 13.9-47.9-7.2 5.5 5.2-6.6-5.4-7.1-1.1 8.6 18.4 10.4 22.2-47.8-45-7.2-1.1H0v-20.1l-12-1.8 1.1-7.1 10.3-68.2-6.5-3.2 7.2-8.8 1.4-1.8 4.2-5.1 4.5-5.6 3.3-4.1 10.4-12.7L34.1 361l181.5-222.7c.2-.2.4-.4.5-.7.2-.2.4-.5.6-.7.4-.5.8-.9 1.3-1.3 12.1-11.9 31.8-12 44.1.3l119.9 120 4.7 4.7c4.8 4.7 12.1 5.9 18.2 2.9l9-4.5 17.7-8.9c14.7-7.4 32.5-2.2 41 11.9l34.8 58 4.6 7.5zM526.8 352.2l-.2.3.1-.6z" class="st2"/><path d="m414 258.9-55.4 189.4L340 512h-32.8l25.3-86.5 49.6-169.7v-.1l4.7 4.7c4.7 4.7 12 5.9 18.1 2.9l9.1-4.4zM-7.2 411.7l7.2-8.8 1.5-1.8 4.1-5.1 4.5-5.6 3.3-4.1 10.4-12.7L34.1 361l181.4-222.6c.2-.3.4-.5.6-.8.2-.2.4-.5.6-.7.4-.5.8-.9 1.3-1.3 9-8.7 22.2-11.1 33.3-6.7L111.7 394.3V512H0v-20.1l-12-1.8 1.1-7.1 10.3-68.2-6.6-3.1" class="st3"/><path d="M111.7 508.8 0 491.9V512h133.2l-21.5-3.2zm0 0L0 491.9V512h133.2l-21.5-3.2zm0 0L0 491.9V512h133.2l-21.5-3.2zm0 0L0 491.9V512h133.2l-21.5-3.2zm0 0L0 491.9V512h133.2l-21.5-3.2zm0 0L0 491.9V512h133.2l-21.5-3.2zm0 0L0 491.9V512h133.2l-21.5-3.2zm0 0L0 491.9V512h133.2l-21.5-3.2zm0 0L0 491.9V512h133.2l-21.5-3.2zm0 0L0 491.9V512h133.2l-21.5-3.2zm0 0L0 491.9V512h133.2l-21.5-3.2zm0 0L0 491.9V512h133.2l-21.5-3.2zm0 0L0 491.9V512h133.2l-21.5-3.2zm0 0L0 491.9V512h133.2l-21.5-3.2zm0 0L0 491.9V512h133.2l-21.5-3.2zm0 0L0 491.9V512h133.2l-21.5-3.2zm0 0L0 491.9V512h133.2l-21.5-3.2zm0 0L0 491.9V512h133.2l-21.5-3.2zm0 0L0 491.9V512h133.2l-21.5-3.2zm0 0L0 491.9V512h133.2l-21.5-3.2zM-7.2 411.7l6.5 3.2-10.3 68.2-1.1 7.1 12 1.8v20h133.2l7.2 1.1 47.8 45-10.4-22.2-8.6-18.4 7.1 1.1 6.6 5.4-5.5-5.2 47.9 7.2-28.2-14h234.8l-13.1-11.4-9.3-8.1-8-7-.5-.5-2.6-2.2-39.7-34.5-26.1-22.7-106.2-92.3c-11.6-10.1-28.9-10.3-40.8-.4l-73.8 61.5L52.5 369l-18.4-8-10.1-4.3c-5-2.1-10.3-2.9-15.5-2.4-1.5.1-2.9.4-4.3.7-1.4.3-2.8.8-4.2 1.3-4.7 1.9-9 4.9-12.4 8.9-.3.3-.5.6-.8 1l-1 1.3-5.9 7.6-17 21.8 29.9 14.8m118.9 97.1L0 491.9V512h133.2l-21.5-3.2zm0 0L0 491.9V512h133.2l-21.5-3.2zm0 0L0 491.9V512h133.2l-21.5-3.2zm0 0L0 491.9V512h133.2l-21.5-3.2zm0 0L0 491.9V512h133.2l-21.5-3.2z" class="st3"/><path d="m-5.4 416 6.5 3.2-10.3 68.2-1.1 7.1 12 1.8v20.1H135l7.2 1.1 47.8 45-10.4-22.2-8.6-18.4-2.5-5.4-1-2.1-1.9-4.1-6.1-13.2-45.9-98.3-59.2-25.4-18.4-7.9-10.3-4.5c-5-2.1-10.3-2.9-15.5-2.4-1.5.1-2.9.4-4.3.7-1.4.3-2.8.8-4.2 1.3-4.7 1.9-9 4.9-12.4 8.9-.3.3-.5.6-.8 1l-1 1.3-5.9 7.6-17 21.8 30 14.8" style="fill:#59bc3e"/><path d="M-7.2 411.7-37.1 397l17-21.8 5.9-7.6 1-1.3c.3-.3.5-.6.8-1 3.4-4 7.7-7.1 12.4-8.9 1.4-.5 2.8-1 4.2-1.3 1.4-.4 2.9-.6 4.3-.7 5.2-.5 10.5.2 15.5 2.4l10.1 4.3 18.4 7.9-11.6 20.8-7.2 13-3.6 6.5-2.6 4.6-6.5 11.6-21 37.9-10.9 19.6 10.3-68.2-6.6-3.1" style="fill:#63a752"/><path d="M0 0h512v512H0z" class="st0"/><path d="M46.6 512H0V180.5c13.5-58.1 27-96.7 27-96.7l31.5 12.1C-2.7 311.6 37.1 478 46.6 512z" style="fill:#7a5b44"/><path d="M0 0h512v512H0z" class="st0"/><path d="M210.3 196.6c2.7-17.2-27.7-35-27.7-35 .5-9.4-30.7-31.8-30.7-31.8-13.5-20.9-32.7-7.3-32.7-7.3 17.7 4.2 18.8 21.1 18.8 21.1l13.8 69.7c6.6 19.1-8.4 29-8.4 29 11.8 42.8-21.9 76-21.9 76s5.9-38.7-21.8-52.8c0 0 .2-24.3-13.4-42.6s-16.6-52.5-16.6-52.5-24-24-23.8-50.9c.2-26.9-17-14.4-17-14.4L0 140.1V0h78.3c-.1.5-.3.9-.3 1.1.2-.4.3-.7.5-1.1h108.1c22.7 25.2 7 58.6 7 58.6-28.4-69.2-99.7-5.2-99.7-5.2 8.1-4.7 21.3-.5 21.3-.5l71.5 37.9c30 22 29.6 64.5 29.6 64.5 10.6 25.9-6 41.3-6 41.3z" style="fill:#5f8d2b"/><path d="M0 0h512v512H0z" class="st0"/><path d="M260.5 278.8c-10.7-1.8-19.2-10.1-22-20.4-1.7-6.3-1-12.8 1.8-18.7 5-10.1 14.4-16.4 23-23.7 9.1-7.7 19.1-14.2 29.1-20.6.8-.5 1.6-1 2.5-1.5.2-.1.4-.2.5-.2.4 0 .8.4.8.8 0 .2-.1.3-.3.5-4.1 4.9-8.2 10-11.5 15.6-.7 1.2-1.4 2.5-1.7 3.9-.4 1.8 1 1.4 1.9.9 1.7-.9 3.1-2 4.5-3.3 21.6-19.3 43.2-38.6 64.8-57.8.5-.5 1.3.2.8.9-10.2 14.6-21 28.7-31.6 43l-6.3 8.7c-.2.3-5 7.1-3 6.7.3-.1.7-.2 1-.4 1.3-.7 2.5-1.5 3.6-2.6 5.3-4.7 10.5-9.4 15.8-14.1.3-.3.6-.3.8 0 .3.3.2.6 0 .9-5.7 9.6-11.9 19.7-18.8 30.5-6.9 10.9-13.9 21.2-21.4 31.2-3 4-6 7.7-9.4 11.3-.5.5-.9.9-1.2 1.3-6.2 5.8-15 8.6-23.7 7.1zm-12.3-12.4c4.8 6.1 12.5 9.1 20 6.3 3.8-1.4 7.2-3.5 10.3-6 8.5-6.9 14.5-16 19.4-25.7 2-4 4.2-8.4 6.5-13.4.2-.5.5-.9-.2-1.2-.1 0-.2 0-.3.1-4.5 4.1-9 8.2-13.5 12.2-.6.5-1.9 1.3-2.6 1.2-1.1-.1.7-3.2.9-3.6 1.7-2.9 3.5-5.6 5.4-8.4 6.5-9.4 13-18.8 19-28.5.2-.4.2-.7-.1-.9-.2-.2-.4-.1-.6 0-13.3 10.9-26.6 21.8-39.9 32.8-.6.5-1.1.9-1.4 1.1-1 .6-3.6 2-4.3.4-.9-2-.5-4 .4-5.8 1.1-2.1 2.6-4 4-5.9.1-.1.1-.2.1-.3-.1-.5-.5-.5-.9-.4-11.9 5.3-22.8 15.6-26.3 28.5-2 6.3.2 12.5 4.1 17.5z" class="st8"/><path d="M0 0h512v512H0z" class="st0"/><path d="M268.2 272.7c-7.5 2.7-15.2-.2-20-6.3-3.9-5-6.1-11.2-4.3-17.5 3.5-12.9 14.5-23.1 26.3-28.5.4-.2.8-.1.9.4 0 .1 0 .2-.1.3-1.4 1.9-3 3.8-4 5.9-.9 1.8-1.3 3.9-.4 5.8.7 1.6 3.4.2 4.3-.4.3-.2.8-.6 1.4-1.1 13.3-10.9 26.6-21.8 39.9-32.8.2-.2.4-.2.6 0 .3.2.3.5.1.9-6 9.8-12.5 19.1-19 28.5-1.9 2.7-3.8 5.5-5.4 8.4-.2.4-2.1 3.5-.9 3.6.8.1 2.1-.7 2.6-1.2 4.5-4 8.9-8.1 13.5-12.2.1-.1.2-.1.3-.1.7.3.5.7.2 1.2-2.3 4.9-4.5 9.4-6.5 13.4-4.9 9.7-10.9 18.7-19.4 25.7-2.9 2.6-6.3 4.7-10.1 6zm-8.1-3.2c.5.1 1 .3 1.5.4.6.2 1.2.7 1.7 1 1.3.8 2-.4 3.2-.1.7.2 1.2.7 2.1.3.5-.2 1.4-.5 1.8-1 .5-.6 1-1.2 1.6-1.8.8-.7 1.5-1.5 2.2-2.2.4-.4.6-.5 1.1-.6s1.3-.3 1.7-.8c.5-.6 1-1.2 1.6-1.6.9-.7 2-1.6 2.6-2.7.5-.8 1-1.7 1.4-2.6.5-1-.2-1.8-.1-2.9 0-.4.1-.9.1-1.3.1-1.2 1.2-1.6.7-2.9-.3-.8-1.2-1.1-1.1-2.2.1-.8.2-1.3 0-2.1-.1-.5-.2-1.4-.6-1.8-.2-.3-.6-.6-1.2-1-.7-.5-1.5-.3-2.3-.6-.2-.1-.4-.2-.4-.3-.7-.8-1.3-1.7-2.1-2.4-.5-.5-1.1-1.1-1.7-1.4-.6-.3-1.6-.7-2-1.2s-.8-1-1.3-1.5c-.2-.2-.4-.4-.8-.5-.7-.3-1.5-.7-2.2-.8-.6-.1-1.2-.2-1.7-.2-.7-.1-1.6.1-2.3.2-.8.1-1.6.4-2.4.7-1 .3-1.9-.3-2.8-.6-.9-.4-1.7 0-2.8.4-.9.3-1.7.9-2.5 1.4-.7.4-.9 1.5-1.3 2.2-.3.7-.8.9-1.6 1.4-.7.4-.9.9-1.2 1.7s-.6 1.5-1 2.3c-.3.6-.2 1.4-.1 2.1v1.4c-.1 1.8-.2 3.5-.4 5.2-.1.9.4 1.7.7 2.5.4.9-.1 2 .3 2.9.3.7 1.2 1.1 1.5 1.9.4 1.1-.5 2.3-.1 3.3.1.2.3.6.6 1.3.3.6.4 1 .9 1.3.4.3 1.3 1 1.8 1 .8 0 1.6 0 2.4.2.5.1 1 .2 1.4.3 1.4.2 1.9 1.4 3.1 1.7z" class="st9"/><path d="M0 0h512v512H0z" class="st0"/><path d="M260.1 269.5c-1.2-.3-1.7-1.6-2.9-1.8-.5-.1-1-.2-1.4-.3-.8-.2-1.6-.2-2.4-.2-.5 0-1.4-.7-1.8-1-.5-.3-.6-.7-.9-1.3-.3-.7-.5-1.1-.6-1.3-.4-1 .5-2.2.1-3.3-.3-.8-1.2-1.1-1.5-1.9-.4-.9.1-1.9-.3-2.9-.3-.8-.8-1.6-.7-2.5.2-1.7.3-3.5.4-5.2v-1.4c0-.7-.2-1.5.1-2.1.4-.8.7-1.5 1-2.3s.4-1.3 1.2-1.7c.8-.5 1.2-.6 1.6-1.4.3-.7.6-1.8 1.3-2.2.8-.5 1.6-1.1 2.5-1.4 1.1-.3 1.9-.7 2.8-.4.9.4 1.8 1 2.8.6.8-.3 1.6-.5 2.4-.7.7-.1 1.6-.3 2.3-.2.6.1 1.2.2 1.7.2.7.1 1.5.5 2.2.8.4.2.6.3.8.5.4.5.8 1 1.3 1.5.4.5 1.4.9 2 1.2s1.2.9 1.7 1.4c.8.7 1.4 1.6 2.1 2.4.1.1.2.2.4.3.7.3 1.6.1 2.3.6.6.4.9.8 1.2 1 .4.4.4 1.2.6 1.8.2.8.1 1.3 0 2.1-.1 1.1.8 1.4 1.1 2.2.5 1.3-.6 1.7-.7 2.9 0 .4-.1.9-.1 1.3-.1 1.2.6 1.9.1 2.9-.5.9-.9 1.7-1.4 2.6-.6 1-1.7 1.9-2.6 2.7-.6.5-1.1 1.1-1.6 1.6-.4.5-1.2.7-1.7.8-.5.1-.8.3-1.1.6l-2.2 2.2c-.6.6-1.1 1.2-1.6 1.8-.4.5-1.2.8-1.8 1-.9.3-1.4-.2-2.1-.3-1.2-.3-1.9 1-3.2.1-.5-.3-1.1-.8-1.7-1-.7 0-1.2-.1-1.7-.3zm-2.7-31.4c-.7-.6-2.7.4-4.5 2.3-1.8 1.9-2.7 4-2.1 4.6.7.6 2.7-.4 4.5-2.3 1.8-1.9 2.8-4 2.1-4.6zm7.2 13.6c1.8 1.5 4.7 1 6.5-1.1 1.7-2.1 1.6-5.1-.2-6.6s-4.7-1-6.5 1.1c-1.7 2.2-1.6 5.1.2 6.6zm13.7 3.7c1.2.2 2.5-1.2 2.7-3 .3-1.9-.5-3.5-1.7-3.7-1.2-.2-2.5 1.2-2.7 3-.4 1.8.4 3.5 1.7 3.7zm-25.5 4.3c1.1.5 2.6-.3 3.4-1.9.8-1.6.6-3.3-.5-3.9-1.1-.5-2.6.3-3.4 1.9-.8 1.7-.6 3.4.5 3.9zm18.7 2.7c-.8-.7-2.3-.4-3.4.8-1.1 1.2-1.4 2.7-.6 3.4.8.7 2.3.4 3.4-.8s1.4-2.7.6-3.4zm-9.9 4.9c.3.3.8.2 1.1-.2.3-.4.3-.8 0-1.1-.3-.3-.8-.2-1.1.2-.3.3-.3.8 0 1.1z" class="st10"/><path d="m341.1 543.3-15 15.9M627.8 239.8l-14.5 15.3-79.9 84.7h-.1l-5.8 6.1-2.7 2.9-5.7-9.5-7.1-11.8v34.9l-52.8 55.9-29.7 31.5h-.1l-31.1 33-27.6 29.2H197l28.3 13.9-47.9-7.3-7.1-6.6-6.5-6.2-22.4-21.1v-.1h-.1l-29.6-28-70.8-66.8-17.1-16.2-15.9-15.1-3.7-3.4-4.2-4-53.4-50.4-23.2-21.9-8.2-7.8-8-7.5-3.2-3L0 158.8l33.8-35.7L44 112.3v-.1l1.1-1.1L147.9 2.3v-.1L150 0l2.7-2.9 49.9-52.8 25.6-27 8.6-9.1 18.8-19.9L373.9 0l38.3 36.2 24.5 23.1 75.3 71.1 8.5 8.1h.1l33.4 31.6 18.5 17.5 47.8 45.1z" class="st0"/><ellipse cx="254.2" cy="241.6" class="st11" rx="4.8" ry="1.7" transform="rotate(-46.637 254.207 241.565)"/><path d="m293.3 559.3 22.4 11 10.4-11.1M341.1 543.3l5.2.8 5.9.9 13 1.9-27.7 34.1M626.8 224.7l-6.5 8-13.3 16.4-73.6 90.7h-.1l-5.9 7.4-2.1 2.5-.5-.9-5.7-9.5-7.1-11.8v38.6l-11.2 13.8-57.6 71-33.8 41.6-15.8 19.5H197l28.3 13.9-47.9-7.3 5.5 5.2-6.6-5.3-8-6.5-2.6-2.1-41.5-33.7-12.5-10.1-78-63.3-20.2-16.5-8.8-7.1-4.7-3.8-12.4-10.1-30.3-24.5-21.8-17.7-28.9-23.5 3-3.8 13.8-17L0 184.5l9.2-11.4 32.6-40.2 73.3-90.3.2-.1 32.6-40.2v-.1l1.8-2.2 2.4-3 45-55.4 24.3-29.8 7.8-9.8 7.6 6.2 2.7 2.2 55.4 44.9 55 44.7 40.6 32.9 11.4 9.3L512 131.6l8.5 6.9h.1l34 27.7 20.3 16.5z" class="st0"/><ellipse cx="267.8" cy="247.9" class="st11" rx="5" ry="4.3" transform="rotate(-50.934 267.814 247.884)"/><path d="m570.6 60.1-9.1 60.5-6.9 45.6-.6 3.9-1.5 10.4-2.3 15.1-8.2 54-11.3 75.5-3.2 20.8-.1 1.3-.7 4.7-1.4-2.2-.5-.9-5.7-9.5-7.1-11.8v121.7l-9.5 62.8H197l28.3 13.9-47.9-7.3-1.1-.1-7.1-1.1-17.3-2.6-11.5-1.7-7.2-1.1-21.5-3.2L0 491.9l-12-1.8 1.1-7 10.3-68.2.6-4.2 1.4-9.6h.1l1.1-7.5 1.3-9 .8-5.4 3.2-20.7.6-4.2 33.3-221.4 2.3-14.8 1-7 .1-.2v-.1l2.3-15.6v-.1L61.8 0l2.5-16.2 35.3 5.3 39.5 6 13 1.9.6.1 4.6.7L171.7 0l194.5 29.3 8.6 1.3 4.9.7 10.8 1.6 21.7 3.3 99.8 15z" class="st0"/><ellipse cx="278.8" cy="252" class="st11" rx="3.4" ry="2.3" transform="rotate(-81.437 278.744 251.947)"/><path d="m341.1 543.3 5.2.8 5.9.9 13 1.9-27.7 34.1-10.4-5.1-5.1-2.5-2.3-1.1-4-2 10.4-11.1M596.9 138l-22 44.7-2.4 4.9-3.2 6.6-6.5 13.3-20.8 42.1-30 61.2-4.5 9.2-41.9 85.3h-.1l-6.3 13-6 12.1-10 20.5-24.4 49.7-5.6 11.4H197l-39.4-19.4-16.2-7.9v-.1h-.1l-17.1-8.4-12.5-6.1-35.5-17.5-2.2-1.1h-.1l-52.9-26-21-10.3-.6-.3-6.6-3.2-29.9-14.7-51.3-25.2 18.3-37.2 5.6-11.5 1-1.9 10.1-20.5L0 191.9l9.2-18.8 18.5-37.6 3.9-8 2.2-4.4 13.7-27.9v-.1L94.3 0l5.3-10.9 37.8-76.8 49.3 24.2 10.4 5.1 5.5 2.7L206-54 316 0l35.7 17.6 19.4 9.5h.1l8.5 4.2 22.2 10.9 34.8 17.1 75.3 37 49.5 24.3z" class="st0"/><ellipse cx="254.2" cy="256.9" class="st11" rx="3.2" ry="2.2" transform="rotate(-63.837 254.188 256.874)"/><path d="m319.7 572.3 3.8-4 22.8-24.2-5.2-.8M182.9 523.9v-.1l-5.5-5.1 47.9 7.2-28.2-13.9H376.5l18.2-19.3v-.1l6.7-7.1 51.8-55.1 47.6-50.5L512 368l14.6-15.5.2-.3 89.2-94.7-2.7-2.4-6.3-6-8.3-7.8-35.9-33.8-12.6-11.9-38.2-35.9-92.9-87.4-44.3-41.7-3.7-3.5L342.3 0l-47.4-44.7-51.8-48.7-3.6 3.8-8.5 9.1L206.1-54 157.3-2.2 155.2 0l-39.9 42.5-.2.1-71 75.5-16.4 17.4-18.5 19.6-9.2 9.8-92.8 98.6-15 16 9.1 8.5 8.3 7.8 26.9 25.4 20.8 19.6 28.5 26.8L0 380.9l3.9 3.7 6.2 5.9 20 18.7 46.1 43.4 5.3 5.1h.1l30.1 28.4 27.6 25.9 1.1 1.1 47.8 45M326.1 559.2l-10.4 11.1-22.4-11" class="st0"/><ellipse cx="269.5" cy="264.5" class="st11" rx="2.9" ry="1.9" transform="rotate(-46.733 269.523 264.486)"/><path d="m293.3 559.3 22.4 11 10.4-11.1M177.8 535.8l-25.9-21-3.4-2.8-36.8-29.8-30.1-24.5h-.1l-7.5-6.2h-.1l-46.4-37.6L5.6 396l-3-2.4-2.6-2.1-20.1-16.3-50-40.6-40-32.5 11.4-14.1 13.9-17L0 166.5l9.2-11.4 22.4-27.5L44 112.3v-.1l1.2-1.3v-.1L135.1 0l4-4.9 47.6-58.6 25.9-31.9 8.8 7.2 6.8 5.5 2.8 2.2L330.1 0l21.6 17.6 14.4 11.7h.1l52.9 43 92.9 75.4 40.5 32.8 16.8 13.7 40.8 33.1-11.4 14-68 83.8-11.6 14.3-7.1 8.7-46.4 57.2h-.1l-36 44.5h-.1L400.9 485l-6.2 7.6v.1L379 512H197.1l28.2 13.9-47.9-7.2 5.5 5.1v.1M341.1 543.3l5.2.8 5.9.9-25.1 30.9-9.1 11.2" class="st0"/><ellipse cx="262.1" cy="266.6" class="st11" rx=".8" ry=".7" transform="rotate(-50.934 262.068 266.648)"/><path d="M0 0h512v512H0z" class="st0"/><path d="M-17 521h546v-53.6c0-27-21.6-49.2-48.6-49.4h-.5c-17.1 0-32.5 7.1-43.5 18.4-10.2-31.6-40.4-54.3-75.7-53.1-40.6 1.3-73.4 34.7-74.2 75.2v1.5c-.8-.4-53.6-28.9-91.9 9.4-9 8.8-12.8 18.7-13.3 28.5-9-17-26.9-28.5-47.4-28.5-7.9 0-15.3 1.7-22 4.8-7.2-29-33.4-50.4-64.5-50.4h-2.2c-34.2 1.1-61.1 29.6-61.6 63.8L-17 521z" style="fill:#8bc923"/><path d="M0 0h512v512H0z" class="st0"/><path d="M194.6 497.9c-7.3 7.2-11.2 15.1-12.7 23.1h347v-25.2c0-27-21.6-49.2-48.6-49.4h-.5c-17.1 0-32.5 7.1-43.5 18.4-10.2-31.6-40.4-54.3-75.7-53.1-40.6 1.3-73.4 34.7-74.2 75.2v1.5c-.7-.3-53.5-28.7-91.8 9.5zM-16.6 521H178c-9.7-14-25.9-23.1-44.1-23.1-7.9 0-15.3 1.7-22 4.8-7.2-29-33.4-50.4-64.5-50.4h-2.2C10.9 453.5-16 482-16.5 516.2l-.1 4.8z" class="st13"/><path d="M0 0h512v512H0z" class="st0"/><g id="Page-1"><g id="_x30_16---Volcano"><path d="M512 50.4v76.9h-17.7V170h-49.6v-42.7h-90.9c-13.7 0-24.8-11.5-24.8-25.6 0-14.1 11.2-25.7 24.8-25.7 2.9 0 5.7.6 8.4 1.6 0-.5-.2-1.1-.2-1.6 0-11.3 7.2-21.2 17.7-24.5 10.5-3.2 21.7 1 27.8 10.4 6.4-10.1 18.7-14.2 29.6-9.7 3.1-15.9 16.7-27.4 32.4-27.4s29.3 11.5 32.4 27.4c3.3-1.4 6.7-1.9 10.1-1.8z" class="st8"/><path id="Shape_00000000190958626156966440000015390398519528103599_" d="M444.7 118.8v8.5h-16.5v-8.5c0-9.4-7.4-17.1-16.5-17.1-4.6 0-8.3-3.8-8.3-8.5s3.7-8.5 8.3-8.5c18.2-.1 33 15.2 33 34.1z" class="st14"/><path d="M512 88.4v23.9c-.8 2-1.2 4.1-1.2 6.4v8.5h-16.5v-8.5c0-13.2 7.2-24.6 17.7-30.3z" class="st14"/><path d="M512 273.3V512H243.4c0-2.3.9-4.6 2.6-6.2 23.2-22.1 66.1-66.4 91.3-113.4 7.7-14.5 13.9-29.8 18.7-45.5l122.5-117.7 33.5 44.1z" class="st10"/><path d="M512 164.3v145.2c-3.2-12.9-6.2-23.1-9.5-28.2-16.5-25.6-57.8-17.1-57.8 34.2S420 418 378.6 400.9c-13.8-5.7-24.8-25.6-22.6-54 13.9-49.3 21.4-100.3 22.3-151.7.3-9.2 7.6-16.6 16.5-16.6h24.7c.1-.3.1-.6.1-.9.4-9.1 7.7-16.2 16.4-16.2h67c3.3 0 6.4 1 9 2.8z" class="st9"/><path id="Shape_00000090987181600219906910000001949501313972562339_" d="M419.5 178.6v.4c-1.1 23.4-3.8 46.7-8 69.7-.8 4-4.2 6.8-8.1 6.8-.6 0-1.1-.1-1.7-.2-2.1-.5-4-1.8-5.2-3.7s-1.6-4.2-1.2-6.4c4-22 6.5-44.3 7.7-66.7l16.5.1z" class="st14"/><path d="M377.5 456.6c-11.2 19.5-24 38.1-38.2 55.4h-22.2c17.5-19.6 32.9-41.2 46.1-64.2 1.5-2.7 4.2-4.3 7.2-4.3s5.7 1.7 7.2 4.4 1.4 6-.1 8.7zM477.8 392.4c0 28.2-10.6 94.2-14.9 119.6H446c3.8-22.5 15.2-92 15.2-119.6 0-4.7 3.7-8.5 8.3-8.5 4.6-.1 8.3 3.7 8.3 8.5z" class="st11"/></g></g></svg>