<svg xmlns="http://www.w3.org/2000/svg" xml:space="preserve" id="Capa_1" x="0" y="0" style="enable-background:new 0 0 512 512" version="1.1" viewBox="0 0 512 512"><style>.st0{fill:none}.st2{fill:#a9a632}.st4{fill:#825e06}.st5{fill:#9fba41}.st6{fill:#619401}.st7{fill:#7f8806}.st8{fill:#cec8a6}.st9{fill:#8f8d6f}.st10{fill:#9e9a79}.st12{fill:#60aa28}.st13{fill:#9b8967}.st14{fill:#807c5e}</style><path d="M0 0h512v512H0z" class="st0"/><path d="M0 0h512v512H0z" class="st0"/><path d="M0 0h512v512H0z" style="fill:#71c7ac"/><path d="M-82.7-4.1h677.4v731.6H-82.7z" class="st0"/><path d="M104.9 179.1c0 14.4-10.8 26.1-24.1 26.1H64.7c-4.4 0-8-3.9-8-8.7s3.6-8.7 8-8.7h16.1c4.4 0 8-3.9 8-8.7s-3.6-8.7-8-8.7H37.9c-13.3 0-24.1-11.7-24.1-26.1s10.8-26.1 24.1-26.1H54c1.5 0 2.7-1.3 2.7-2.9V22.7c0-4.8 3.6-8.7 8-8.7s8 3.9 8 8.7v92.7c0 11.2-8.4 20.3-18.8 20.3h-16c-4.4 0-8 3.9-8 8.7s3.6 8.7 8 8.7h42.9c13.3-.1 24.1 11.6 24.1 26z" class="st2"/><path d="M-82.7-4.1h677.4v731.6H-82.7z" class="st0"/><path d="M160.4 392.4V406H0V215.2c43.8 1.1 83.4 20.7 112.3 51.9 29.7 32 48.1 76.4 48.1 125.3z" style="fill:#7f932a"/><path d="M-82.7-4.1h677.4v731.6H-82.7z" class="st0"/><path d="M497.9 499.5H512V512h-49c9.7-7.8 21.8-12.5 34.9-12.5zM490.5 204H512v23.6h-21.4c-22.1 0-40.1-19.4-40.1-43.3V74c0-6.5 4.9-11.8 10.9-11.8s10.9 5.3 10.9 11.8v110.3c0 10.9 8.2 19.7 18.2 19.7z" class="st4"/><path d="M-82.7-4.1h677.4v731.6H-82.7z" class="st0"/><path d="M59.3 488.5H0v-63h12.4c12.9 0 24.7 7 33.2 18.5 8.4 11.3 13.7 27.1 13.7 44.5zM50.6 0v110.4c0 23.9-14.5 43.3-32.3 43.3H0v-23.6h18.3c8.1 0 14.7-8.8 14.7-19.7V0h17.6z" class="st4"/><path d="M-82.7-4.1h677.4v731.6H-82.7z" class="st0"/><path d="M512 0v113.2c-9.5-3.7-18-9.1-25.1-15.6-13.3 36.9-52.5 63.4-98.3 62.1-52.7-1.6-95.4-40.5-96.4-87.9V70c-1 .5-69.6 33.7-119.4-11-11.7-10.3-16.6-21.8-17.3-33.3-11.7 19.9-35 33.3-61.6 33.3-10.2 0-19.9-2-28.6-5.6C57.5 82 32 104.2 0 110.4V0h156.7c.2-.4.5-.7.7-1.1h6.9c.1.4.1.7.2 1.1H512z" class="st2"/><path d="M-82.7-4.1h677.4v731.6H-82.7z" class="st0"/><path d="M164.6 0H512v100.3C499.5 96 488.5 88 479.6 77.4c-12.7 45.7-50.1 78.4-93.9 76.7-50.3-1.9-91.1-50.1-92.1-108.7v-2.2c-.9.7-66.5 41.8-114-13.5-8.1-9.3-12.8-19.4-15-29.7zM0 0h156.7c-12.2 18.2-31.2 29.8-52.4 29.8-9.7 0-19-2.4-27.3-6.9-8.8 40.7-39.7 71-77 72.6V0z" class="st5"/><path d="M-82.7-4.1h677.4v731.6H-82.7z" class="st0"/><path d="M224.8 47.3c-1.1 2.9-45.2 1.4-63 1.1l-17.2.7-19.3-2.1c22.1-49.1 76.6-45.2 99.5.3z" class="st6"/><path d="M396.4 76.1c-15.7 7-31.5 7.1-47.3.2L334 61.9 331.1 48c5-2.8 9.6-2.5 13.8.9 3.6 19.4 24.9 13.8 37.6 13.7 1.1 0 1.9-.5 2.3-1.3l5.1-13.4c5.5-9.6 11.1 1.9 9 9.2-.3 1-.1 2 .4 2.8 5.4 7.8 4.5 13.2-2.9 16.2z" class="st7"/><path d="m125.2 46.9 19.3 2.1-.8 12.8-53.5-.1 4.2-10.9c.3-.9 1.1-1.6 1.9-1.6l28.9-2.3zM224.8 47.3c3.2 1.1 5.3 1.6 6.3 1.6 33.4.4 66.7.1 100-.9l2.9 13.8-173.9-.5 1.6-12.9c17.9.3 62 1.8 63.1-1.1zM389.9 48l-5.1 13.4c-.3.8-1.2 1.3-2.3 1.3-12.8.1-34 5.8-37.6-13.7l45-1z" class="st8"/><path d="m161.7 48.4-1.6 12.9-4.1 15-5.1 9.8c-3.9 4.4-7 9.5-9.2 15.2-3.9 8.6-9.3 15.9-16.1 21.8-.7.6-1 1.6-.9 2.6 2 21.1-14.2 44.3-26.9 57.8-.6.7-1.5 1.1-2.5 1.1h-2.1l.7-8.9c4.3-4.2 27.9-34.4 21.9-41.9-.5-.6-1.4-.5-2 .1v.1c-5.5 6.4-12.1 9.2-19.9 8.6v-13.7c7-4.4 12.9-6.6 18-14.2 2.6-4 5.4-7.8 8.4-11.5 4.7-3.6 7.8-8.5 9.3-14.5 4.2-1.7 6.1-5.7 5.6-11.9 4.3-3.7 7.2-8.7 8.6-14.9l.8-12.8 17.1-.7z" class="st7"/><path d="m160.1 61.3 173.9.6 15.1 14.4c-64.4-1.1-128.7-1.1-193.1 0l4.1-15zM90.2 61.7l53.5.1c-1.4 6.2-4.3 11.2-8.6 14.9-14.2-1.7-28.5-1.9-42.9-.6-6-2.7-6.7-7.5-2-14.4z" class="st9"/><path d="M135.1 76.7c.5 6.2-1.4 10.2-5.6 11.9l-37.2-.3c2-3.8 2-7.9-.1-12.3 14.4-1.1 28.8-.9 42.9.7zM349.1 76.3c15.8 6.9 31.6 6.8 47.3-.2l-1 11.6c-25.3.4-239.4 4.7-244.6-1.6l5.1-9.8c64.4-1.2 128.8-1.2 193.2 0z" class="st8"/><path d="M150.9 86.1c5.2 6.3 219.3 2 244.6 1.6l6.4 1.5c.9.2 1.6.9 1.9 1.9 2.5 7.4.2 10.9-6.8 10.5h-41.5l-213.8-.3c2.2-5.7 5.2-10.8 9.2-15.2zM129.5 88.6c-1.5 6.1-4.6 10.9-9.3 14.5-9.5-2.4-18.6-2.7-27.2-1-9.5-4.8-9.7-9.4-.7-13.8l37.2.3z" class="st9"/><path d="M93 102.2c8.6-1.7 17.7-1.4 27.2 1-3 3.7-5.8 7.5-8.4 11.5-5.1 7.7-11 9.8-18 14.2l-.8-26.7zM183.1 512H165c.1-51.4 0-102.8-1-154.1l-.2-12.9.7-55.7-.5-14.5c1.1-13.7 1-27.5-.4-41.3-.1-.8-.9-1.4-1.9-1.5l-9.2-.7c-.5 0-.9-1.2-.8-2.6.1-.9.1-1.9.1-2.8 0-10.3-3.6-18.3-10.8-23.6-7.4-5.6-16.5-3-24.9-1.5-.7.1-1.7 0-3-.4l-12.2-3.3c-.6-.2-1.3.1-1.4.7v1.1c0 .9.7 1.7 1.6 1.9 17.6 2.8 18.3 7.3 2.2 13.5-2.7 1-6.1 6.6.4 3.3 9.4-4.8 22.5-7.5 30.4-14.4.7-.6 1.7-.7 2.6-.2 9.9 5.5 13.8 14.6 11.8 27.2-.1.9-.7 1.5-1.4 1.5l-54.1-.5c1.1-15.6 1.1-31.1.1-46.7h2.1c1 0 1.9-.4 2.5-1.1 12.8-13.5 28.9-36.7 26.9-57.8-.1-1 .3-2 .9-2.6 6.9-5.8 12.2-13.1 16.2-21.7l213.8.3c-1.9 11.8 1.3 21.2 9.6 28.1.8.6 1.3 1.5 1.5 2.5 3.3 15.9 7 32 21.1 36.5 1.6.5 2.1.1 1.5-1.1l-1.3-2.6c-.5-1.1-1.3-1.8-1.9-1.8-11.1-1.3-15-25.3-18.1-35.4-5.3-17.6 12.3-18.3 10.6-22.8-.2-.6-1-.8-1.6-.4-.2.1-.3.3-.5.4-2.4 3.1-5.3 3.9-8.9 2.4-.8-.3-1.5-.1-1.7.5-5.2 15.9-7.7 13.8-7.4-6.4H397v129.7c-6 1.1-11.9.9-17.9-.5-13.2-8.5-37-4.6-49.3.8l-9.5 1c-.8.1-1.5.9-1.5 1.9l-.5 33.1v35.8l.1 39.5v133.1l.7 6.5-.7 21v8.6H299.5V383.7l-.7-9.5c1.5-48.6 1.4-97-.2-145.3-.3-24.3-.5-48-.5-71.2 0-10.4-.6-17.6-1.7-21.7-8.3-28.9-50.8-32.2-73.2-26.4-23.4-.6-39.7 19.4-39.4 45.6.3 29 .1 57.2-.6 84.6l.1 20.5V312c-1.3 8.6-1.3 17.7-.1 27.3l.1 47.8-.1 19.6v.2l.1 45.4v.2c-1.3 8.3-1.3 16.7 0 25l-.2 34.5z" class="st8"/><path d="M355.5 101.5h2.9c-.3 20.2 2.2 22.3 7.4 6.4.2-.6 1-.9 1.7-.5 3.5 1.4 6.5.6 8.9-2.4.5-.6 1.3-.8 1.8-.4.1.1.2.3.3.4 1.7 4.5-16 5.2-10.6 22.8 3.1 10 6.9 34.1 18.1 35.4.7.1 1.4.8 1.9 1.8l1.3 2.6c.6 1.3.1 1.6-1.5 1.1-14.1-4.6-17.8-20.6-21.1-36.5-.2-1-.7-1.9-1.5-2.5-8.3-7-11.4-16.3-9.6-28.2z" class="st10"/><path d="m298.7 228.9-100 .5c-1 0-1.8-.9-1.8-2-.3-26.5-.2-53.3.1-80.3.2-17.5 13.1-30.5 26.2-37.5 22.4-5.8 64.9-2.5 73.2 26.4 1.2 4.1 1.7 11.3 1.7 21.7.1 23.2.2 46.9.6 71.2z" style="fill:#70694d"/><path d="M223.2 109.6c-13.1 7-26 20-26.2 37.5-.4 27-.4 53.8-.1 80.3 0 1.1.8 2 1.8 2l100-.5c1.6 48.3 1.7 96.7.2 145.3-6.6-14-27.1-9.9-38.2-6.7-11.5 3.4-22.3 8.8-32.3 16.4-14.8-2.3-29.9-1.2-45.1 3.2l-.1-47.8 105.1.3c3.9 0 6.2-2.1 7-6.4 1.2-6.8 1.1-13.4-.3-19.7-.2-.8-.9-1.3-1.8-1.3l-109.9-.2v-51.6l2.7-.7c-5.9 11.3 13.7 5.5 16.3 5.5 9.2-.2 18.3.3 27.5 1.4.6.1 1 .3 1.1.5l.2.6c.3.8.8 1.4 1.3 1.5 2.1.2 43.1 1.7 34.4-6l26.3 2.1c.9.1 1.7-.5 1.7-1.2v-.1l-.3-24.6c0-.9-1-1.6-2.3-1.6-36.4-.6-72.7.2-109 2.3.7-27.4.9-55.6.6-84.6-.2-26.5 16-46.5 39.4-45.9z" class="st9"/><path d="M93.9 175.6v-33.1c7.7.6 14.3-2.2 19.9-8.6.6-.7 1.5-.8 2-.2 6 7.5-17.7 37.8-21.9 41.9z" class="st8"/><path d="M154.5 300.5c-32.1-.1-64.3 0-96.4.2-1.2 0-2.5-.2-3.7-.7l-13.6.1c-3.6 0-4.5-1.6-2.7-4.8 11.3-19.9 22.5-43.2 48.1-44.6 17.9-1 34.3 3.1 47 18.5l25.5 3c.7.1 1.6-.3 2.6-.9 2.1-1.3 3-.1 2.7 3.6 1.1-13.7.9-27.5 0-41.3-.1-.8-.9-1.4-1.9-1.5l-9.2-.7c-.5-.1-.9-1.2-.8-2.6.7-11.7-2.9-20.5-10.7-26.4-7.4-5.6-16.5-3-24.9-1.5-.7.1-1.7 0-3-.4l-12.2-3.3h-.3c-.7-.1-1.2.3-1.2.9v.9c0 1 .7 1.8 1.6 1.9 17.6 2.7 18.3 7.2 2.2 13.5-2.7 1.1-6.2 6.7.4 3.3 9.3-4.8 22.5-7.4 30.4-14.4.6-.7 1.7-.7 2.6-.2 10 5.4 13.9 14.5 11.8 27.2-.1.9-.7 1.5-1.4 1.5l-54.1-.7-62.3.1c-1.2 0-2.1 1.1-2.2 2.6l-1.3 19.6c1.8 15.2 2 30.3.6 45.3-.1 1-.8 1.7-1.6 1.7L0 300.2v44.4c54.5 1.7 109.2.3 163.7.4l.7-55.7c-.3 7.6-3.6 11.3-9.9 11.2zm-.2 30.9c0 2-1.5 3.6-3.3 3.6l-25.5-.5c-1.8 0-3.2-1.7-3.2-3.7l.1-8.8c0-2 1.5-3.6 3.3-3.6l25.5.5c1.8 0 3.2 1.7 3.2 3.7l-.1 8.8z" class="st10"/><path d="M379.1 230.6c-.2 3.7 0 7.3.5 10.8.5 3.6-2.2 5-3.2.9-1.3-5.5-4.4-7.2-9.5-5-.9.4-1.4 1.2-1.4 2V258c0 1.2-.3 2.3-.9 2.9-5.3 5.6-4.1-16.3-4.1-22.3 0-1.3-.6-2.4-1.3-2.5h-8.6c-.8 0-1.4 1-1.4 2.3v.2c.2 2.7-.8 4.5-2.9 5.6-.8.4-1.7-.2-2.1-1.2 0-.1-.1-.3-.1-.4-.4-2.2-1.4-4-2.9-5.4-.8-.7-1.7-1.1-2.6-1-3.7.2-6.6-1.4-8.7-4.7 12.2-5.4 36-9.3 49.2-.9z" class="st7"/><path d="M379.1 230.6c6 1.5 11.9 1.7 17.9.5l55.8.1c1 0 1.9 1.1 2.1 2.5l1.3 14.2-1.3 23.9c-13.8 1.4-30.2.8-49.4-1.8-9.4-1.3-18.1 4.2-27.9 2.3-7.7-1.5-12.9-2-15.7-1.5-14.9 2.6-29.4 1.5-43.6-3.3l.5-33.1c0-1 .7-1.8 1.5-1.9l9.5-1c2.1 3.3 5 4.9 8.7 4.7.9 0 1.8.3 2.6 1 1.6 1.4 2.5 3.2 2.9 5.4.2 1.1 1.1 1.9 1.9 1.7.1 0 .2-.1.3-.1 2.1-1.1 3.1-2.9 2.9-5.6-.1-1.3.5-2.4 1.3-2.4h8.7c.8 0 1.4 1.1 1.4 2.4v.1c0 6-1.2 27.8 4.1 22.3.6-.6.9-1.7.9-2.9v-18.6c0-.9.6-1.7 1.4-2 5-2.2 8.2-.5 9.5 5 1 4.1 3.7 2.7 3.2-.9-.5-3.7-.7-7.3-.5-11zM266.8 263.1c-26.9-7.4-53.8-8.5-80.8-3.4l-2.7.7-.1-20.5c36.3-2.1 72.6-2.9 109-2.3 1.3 0 2.3.7 2.3 1.6l.3 24.6c0 .7-.7 1.3-1.6 1.3h-.1l-26.3-2z" class="st10"/><path d="M456.2 247.9c12.7 16.3 23.9 33.6 33.7 51.8l-34.3.8-.7-28.8 1.3-23.8z" class="st8"/><path d="m133.2 269.3 5 8.1c.2 3.4-1.8 3.8-6 1-1.2-.8-3-1.3-5.5-1.7l-23.1-3.8c-1.2-.2-2.1-.2-2.8.1l-23.4 7.7c-.7.2-1.4.7-2.1 1.5-3.3 3.5-16.9 18.5-20.8 18l-13.6.1c-3.6 0-4.5-1.6-2.7-4.8 11.2-19.9 22.5-43.2 48.1-44.6 17.8-1.1 34.2 2.9 46.9 18.4z" class="st6"/><path d="M27.4 253.5c1.8 15.3 2 30.4.6 45.3-.1 1-.8 1.7-1.6 1.7l-30.2-.2 31.2-46.8z" class="st8"/><path d="M266.8 263.1c8.8 7.7-32.3 6.2-34.4 6-.5-.1-1.1-.6-1.3-1.5l-.2-.6c-.1-.2-.5-.4-1.1-.5-9.1-1.1-18.3-1.6-27.5-1.4-2.6 0-22.2 5.8-16.3-5.5 27-5.1 53.9-4 80.8 3.5z" class="st7"/><path d="M318.3 267.4c14.2 4.8 28.7 5.9 43.6 3.3 2.8-.5 8.1 0 15.7 1.5 9.9 1.9 18.5-3.6 27.9-2.3 19.2 2.6 35.7 3.2 49.4 1.8l.7 28.8h-4.3c.9-2.7-.4-6.1-4-10.2-2-2.3-4.4-4.2-7-5.6-6.9-3.9-14.9-6.6-23.9-8.2-6.1-1.1-15.1-5.3-23.7-3.5-.8.2-1.7.7-2.4 1.4-8.9 9-18.9-1.9-23.8 11.2-.4 1-1 1.8-1.8 2.3-9 5.7-8.5 10 1.5 12.9-16.1-1.2-32.1-.4-47.9 2.4v-35.8zM133.2 269.3l25.5 3c.7.1 1.6-.2 2.6-.9 2.1-1.4 3-.2 2.7 3.6l.5 14.5c-.3 7.6-3.6 11.3-9.9 11.2 1.9-2.5 1.8-5.5-.3-9.1-1.9-3.1-4.5-5.2-7.8-6-3.9-1.1-6.7-3.8-8.3-8.1l-5-8.2z" class="st9"/><path d="M138.2 277.3c1.6 4.3 4.3 7.1 8.3 8.1 3.3.9 5.9 2.9 7.8 6 2.2 3.6 2.3 6.6.3 9.1-32.1-.1-64.2 0-96.4.2-1.3 0-2.5-.2-3.7-.7 3.9.5 17.5-14.5 20.8-18 .7-.8 1.4-1.2 2.1-1.5l23.4-7.7c.7-.2 1.6-.3 2.8-.1l23.1 3.8c2.5.4 4.3 1 5.5 1.7 4.2 2.9 6.2 2.6 6-.9zM451.4 300.6l-85.1.3c-10-2.9-10.5-7.2-1.5-12.9.8-.5 1.4-1.3 1.8-2.3 4.9-13.1 15-2.2 23.8-11.2.7-.7 1.6-1.2 2.4-1.4 8.6-1.7 17.6 2.4 23.7 3.5 9 1.6 17 4.4 23.9 8.2 2.6 1.4 4.9 3.3 7 5.6 3.6 4.1 4.9 7.5 4 10.2z" class="st12"/><path d="M451.4 300.6h4.3l34.3-.8 19.1.9c.8 0 1.5.8 1.5 1.8l.9 32.1c-1.1 2.6-1.6 5.7-1.5 9.5l-147 1.3c-.7-2.5-1.6-5.3-2.5-8.4-4.3-13.9-27-21-38.4-21.5-1.5-.1-1.9.4-1.1 1.4.8 1.1 2.9 2.2 6.2 3.4 1.2.4 2.3 1.4 3.1 2.9l11.8 20.8c-8 1.8-15.9 1.3-23.7-1.4l-.1-39.5c15.9-2.8 31.8-3.6 47.9-2.4l85.2-.1zm21.8 20.5c-.6 1.8 0 3.8 1.5 4.5.3.2.7.2 1 .2l29.3.4c.8 0 1.5-.8 1.5-1.9v-.3c-.4-2.7-.2-5.4.6-8.1.6-1.9-.5-3.9-2.5-4.5-.4-.1-.8-.2-1.2-.2-6.8.1-13.6-.1-20.4-.6-8.1-.6-7.5 3.7-9.8 10.5z" class="st10"/><path d="M473.2 321.1c2.3-6.8 1.7-11.1 9.8-10.4 6.8.5 13.6.8 20.4.6 2 0 3.7 1.5 3.8 3.5 0 .4 0 .8-.1 1.2-.8 2.7-1 5.4-.6 8.1.1 1-.4 2-1.3 2.1h-.2l-29.3-.4c-1.6 0-2.8-1.6-2.7-3.5 0-.4 0-.8.2-1.2z" class="st13"/><path d="M183.2 339.3c-1.3-9.6-1.2-18.7.1-27.3l109.9.2c.9 0 1.6.5 1.8 1.3 1.4 6.3 1.6 12.9.3 19.7-.8 4.3-3.1 6.4-7 6.4l-105.1-.3z" class="st10"/><path d="M363 345.4c8.4 6.9 14.3 14.8 17.7 23.9-1.8.8-3.2.5-4.3-1-.4-.6-1.1-.7-1.6-.2l-.1.1c-1.7 2-3.8 2.7-6.2 1.8 14.5-15.7-10.1-16.9-17.3-18.6-4.5-1.1-6.6-3.4-8.9-7.4l-11.8-20.8c-.8-1.5-1.9-2.5-3.1-2.9-3.3-1.2-5.4-2.3-6.2-3.4-.8-1-.4-1.5 1.1-1.4 11.4.5 34.2 7.6 38.4 21.5.7 3.1 1.6 5.9 2.3 8.4zm-14.5-17.7c-3.5-2.7-6.4-4.2-8.7-4.5-1.7-.2-3 .3-3.8 1.5-.5.7-.5 2 .1 3.2 4.4 9.5 11.9 22.2 21.7 20.5.8-.1 1.4-1 1.4-1.9 0-7.2-3.6-13.5-10.7-18.8z" class="st14"/><path d="m125.8 318.4 25.5.5c1.8 0 3.2 1.7 3.2 3.7l-.1 8.8c0 2-1.5 3.7-3.3 3.6l-25.5-.5c-1.8 0-3.2-1.7-3.2-3.7l.1-8.8c0-2 1.5-3.6 3.3-3.6z" class="st13"/><path d="M348.5 327.7c7.1 5.3 10.7 11.6 10.8 18.8 0 1-.6 1.8-1.4 1.9-9.8 1.7-17.4-11-21.7-20.5-.6-1.2-.6-2.4-.1-3.2.8-1.2 2.1-1.8 3.8-1.5 2.2.3 5.1 1.8 8.6 4.5z" class="st10"/><path d="M512 335.3v34.9l-1.3-.1-.8-26c.1-3.8.6-6.9 1.6-9.5l.5.7z" class="st8"/><path d="M0 431.3c3.5 1.2 7.3 2.3 11.4 3.4 9.7 2.7 19 8.5 27.9 17.3 6.7 2.2 13.8 2.6 21.5 1.1-3.2-.9-15.7.9-13-7.3-4.2-12.2-4.2-24.2.1-36.2.6-1.7 2-3.1 3.6-3.7 11.1-3.9 22.1-8.9 33-14.9 3.7-2.1 8.3-8.4 13.8-18.9.7-1.2 1.9-2 3.3-2H161c1.1 0 1.9-.7 2.2-1.7.9-3.6 1.2-7 .8-10.4l-.3-12.9c-54.4-.1-109.2 1.3-163.7-.4v27.4c25.4-2.4 50.9-2.7 76.5-1 .2 0 .4.1.6.1 1.5.4 2.5 1.7 2.2 2.9l-4.7 18.6c-.1.5-1 1.2-2.3 1.7l-22 8.9c-1.1.4-1.9 1.1-2.4 2-2.7 5-5.8 25.8-12.6 19.8-.7-.7-1.6-1-2.5-1l-32.8.7v6.5zM318.4 342.7c7.8 2.7 15.7 3.2 23.7 1.4 2.4 4 4.4 6.3 8.9 7.4 7.2 1.7 31.8 2.9 17.3 18.6-16.7 1.8-33.3 1.5-49.9-.7v-26.7z" class="st9"/><path d="m510 344.1.8 26-130.2-.8c-3.4-9.1-9.3-17.1-17.7-23.9l147.1-1.3z" class="st9"/><path d="M164 358c0 1.5.1 3.1.1 4.6.1-1.5 0-3.1-.1-4.6zm.1 4.6c-.1 1.9-.4 3.8-.9 5.9-.3 1-1.2 1.7-2.2 1.7h-59.2c-1.4 0-2.6.8-3.3 2-5.4 10.6-10.1 16.8-13.8 18.9-11 6-22 11-33 14.9-1.6.5-2.9 1.9-3.6 3.7-4.4 12-4.4 24-.1 36.2 4.5-5.6 8.4-11.2 11.8-16.8 13.4-22.4 28.7-29 52.4-24.5 22 4.2 37.7 23 44.9 46.1.1.1.1.3.1.4 0 .6-.4 1.1-1 1.1l-95.2 1c-7.7 1.5-14.8 1.1-21.5-1.1-14.1 2-24.6 3-31.4 3.2-2.9.1-5.4-1-8.1-1.9V512h32c20.7-34.8 64.5-31.2 86.9-.9l1.9.9H165c.1-49.8-.1-99.7-.9-149.4zm-20.8 113.2c.1 2.3-1.6 4.2-3.6 4.2l-29.3.2c-2 0-3.7-1.8-3.7-4.1v-7.7c-.1-2.3 1.6-4.2 3.6-4.2l29.3-.2c2 0 3.7 1.8 3.7 4.1v7.7z" class="st10"/><path d="m298.9 374.2.7 9.6c-3.6-1.3-6.3-1.8-8.2-1.4-20.9 2.2-41.9 2.7-63.1 1.5 10.1-7.5 20.8-13 32.3-16.4 11.2-3.3 31.7-7.3 38.3 6.7z" class="st7"/><path d="M511.2 428.3c.3 0 .5-.1.8-.2v-58l-1.1-.1-130.2-.8c-1.8.8-3.3.5-4.1-1-.1 0-.1-.1-.1-.1-.4-.5-1.2-.5-1.6 0-1.7 2-3.8 2.6-6.2 1.8-16.6 1.7-33.3 1.5-49.9-.7V476h1.3c.5 0 1.3.6 2 1.7l13.2 19.9c.5.8 1.5 1.1 2.6 1 11-1.6 15.1 3.8 22.8 13.4.6.8 1.5 1.2 2.4 1.1 17.8-1.6 35.7-1.4 53.6.5.3-.5.7-1.1 1.1-1.6 14.6-21.3 34.5-28 59.8-20.1 9.9 3.1 18 9.1 24.5 18 1.1.8 2.3 1.5 3.5 2.1h6.4v-52.9l-3.6 1.8c-3.7 1.9-6.7 5.7-9 11.6-1.8 4.4-2.7 9-2.9 13.8-.2 6-4 4.8-3.5-1.4.8-10.4 1-20.7.6-31 0-.9-.7-1.6-1.5-1.7-21.9-2.1-43.7-2.6-65.5-1.5-26.1 2-52.2 2.7-78.4 2.1-7.3-.2-15.7-3.7-24.3-2.9-.2 0-.4 0-.6-.1-.6-.2-.8-.9-.6-1.4.9-2.5 2.6-3.9 4.9-4.2.9-.1 1.7-.6 2.3-1.3l6.8-8.5c.8-.9 1.5-1.5 2.4-1.8 9.1-3.5 19.1-9.7 29-8.8 14.6 1.3 29.3 1.2 44-.4 16.1-24.9 44.1-26.4 66.6-13.7 13.8 7.8 22.5 23.1 29.2 38.4.4 1 1.1 1.7 2 1.9.4.1 1.1.2 2.1.3v-17.7l-4 1.8c-.1 0-.2.1-.3.1-.7.2-1.4-.3-1.5-1-.3-2.8 1.3-4.6 5-5.2zm-123-31.4c0 2.6-1.9 4.6-4.2 4.6l-28.3-.4c-2.3 0-4.1-2.1-4.1-4.7l.1-6.1c0-2.6 1.9-4.6 4.2-4.6l28.3.4c2.3 0 4.1 2.1 4.1 4.7l-.1 6.1zM79.4 373.7c0 .2 0 .3-.1.5l-4.7 18.6c-.1.5-1.1 1.2-2.3 1.7l-22 8.9c-1.1.4-1.9 1.1-2.4 2-2.7 5-5.8 25.8-12.6 19.8-.8-.7-1.7-1.1-2.5-1l-32.8.7v-52.7c25.5-2.4 51-2.7 76.6-1 1.5.1 2.8 1.2 2.8 2.5z" class="st10"/><path d="M512 428.1v4.4l-4.3 1.9c-.7.3-1.5 0-1.8-.6 0-.1-.1-.2-.1-.3-.3-2.8 1.3-4.6 5-5.2.4-.1.8-.1 1.2-.2z" class="st14"/><path d="M183.2 512h6.5c2.9-5.7 7.2-10.3 13-13.7 2.1-1.3 4.6-1.4 6.9-.5 13.3 5.5 27 10.2 41 14.2h49V383.7h-.1c-3.4-1.3-6.1-1.8-8.2-1.4 5.8 7 7.1 14.9 3.8 23.4-.3.9-1.1 1.5-2 1.5-36.6 1.1-73.2.9-109.9-.5h-.1l.1 45.6h.1l108.8-.5c1.1 0 2 .6 2.1 1.3 1.3 7.4 1.4 14.9.2 22.4-.1.6-.9 1.1-1.9 1.1l-109.2.7v.2l-.1 34.5z" class="st9"/><path d="M228.4 383.8c21.2 1.2 42.2.7 63.1-1.5 5.8 7.1 7.1 14.9 3.8 23.4-.4.9-1.1 1.5-2 1.5-36.7 1.1-73.3 1-110-.5l.1-19.8c15.1-4.3 30.1-5.3 45-3.1z" class="st10"/><path d="m356 385.7 28.3.4c2.3 0 4.1 2.2 4.1 4.7l-.1 6.1c0 2.6-1.9 4.7-4.2 4.6l-28.3-.4c-2.3 0-4.1-2.2-4.1-4.7l.1-6.1c0-2.5 1.9-4.6 4.2-4.6z" class="st13"/><path d="M426.4 450.8c-5.7-6.8-11.5-12.2-17.3-16.3-.8-.5-1.1-1.6-.8-2.4l3.7-8.7c16-25 44.1-26.4 66.4-13.8 13.7 7.8 22.5 23 29.2 38.4.4 1 1.2 1.6 2 1.9 1.7.5 11.9.9 12.6 2.3.3.6 0 1.4-.7 1.9 0 0-.1 0-.1.1l-13.2 6.7c-3.7 1.9-6.7 5.7-9 11.6-1.8 4.4-2.7 9-2.9 13.8-.2 6-4 4.8-3.5-1.4.8-10.3 1-20.6.6-31 0-.9-.7-1.7-1.5-1.7-21.9-2-43.7-2.5-65.5-1.4zM60.9 453.1c-3.2-.9-15.7.9-13-7.3 4.5-5.6 8.4-11.1 11.8-16.8 13.4-22.3 28.7-28.9 52.4-24.5 22 4.1 37.7 23 44.9 46.1.2.6-.1 1.2-.6 1.4-.1 0-.2.1-.3.1l-95.2 1z" class="st6"/><path d="m412.1 423.4-3.7 8.7c-.3.8 0 1.8.8 2.4 5.8 4 11.5 9.4 17.3 16.3-26.1 2-52.2 2.7-78.4 2.1-7.3-.2-15.7-3.7-24.3-2.9-.6.1-1.1-.4-1.2-1 0-.2 0-.4.1-.6 1-2.5 2.6-3.9 4.9-4.2 1-.1 1.8-.6 2.3-1.3l6.8-8.5c.7-.9 1.5-1.5 2.4-1.8 9.2-3.5 19.2-9.7 29-8.8 14.7 1.4 29.3 1.2 44-.4zM39.4 452c-14.1 1.9-24.6 3-31.4 3.2-2.8.1-5.3-1-8-1.8v-22.1c3.5 1.2 7.3 2.3 11.5 3.5 9.7 2.6 19.1 8.4 27.9 17.2z" class="st12"/><path d="M183.3 477.5c-1.3-8.3-1.3-16.7 0-25l108.9-.5c1.1 0 1.9.5 2.1 1.3 1.3 7.4 1.4 14.9.2 22.4-.1.6-.9 1.1-1.9 1.1l-109.3.7z" class="st10"/><path d="m110.3 464.2 29.3-.2c2 0 3.7 1.8 3.7 4.1v7.7c0 2.3-1.6 4.1-3.6 4.2l-29.3.2c-2 0-3.7-1.8-3.7-4.1v-7.7c0-2.3 1.6-4.2 3.6-4.2z" class="st13"/><path d="M379.2 512h15.2c-5.1-.1-10.1-.1-15.2 0zm-41.7-13.6c-1.1.1-2.1-.2-2.6-1l-13.2-19.9c-.7-1-1.5-1.7-2-1.7h-1.3l.6 6.3c5.2 4.3 9.5 9.7 12.6 16.1v.1c.4.8.1 1.7-.6 2.1-3.9 2.1-8.2 3-12.7 2.7v8.9h31.9c-.8-.6-1.4-.9-1.8-.9l-25 .3h-.1c-1.2 0-2.1-.8-2.1-1.7v-2.5c-.1-.6.9-1.3 2.1-1.6l14.8-3.6c5.2-1.3 8.7-.9 10.5 1l6.2 6.6c.1.1.1.2.2.3.4.6.3 1.5 0 2.1h5.5l-.2-.2c-7.7-9.5-11.8-15-22.8-13.4z" class="st9"/><path d="M319.2 482.3c5.3 4.3 9.5 9.7 12.6 16.1.4.7.1 1.7-.5 2.1 0 0-.1 0-.1.1-4 2.1-8.2 3-12.7 2.7l.7-21z" class="st10"/><path d="M29.1 510.7c-.4.4-.7.9-1 1.3H0v-1.1c8.7 0 18.4-.1 29.1-.2z" class="st9"/><path d="M118.9 511.1c-5.4-.6-10.6-.3-15.6.9H32c20.2-34.1 62.6-31.3 85.5-2.8.5.6.9 1.3 1.4 1.9zM501.8 509.8l-6.6 2.2h-77.8c14.6-21.4 34.6-28.1 59.9-20.2 9.9 3.1 18 9.1 24.5 18z" class="st6"/><path d="M250.4 512h-60.8c2.9-5.7 7.2-10.3 13-13.6 2.2-1.2 4.7-1.4 6.9-.5 13.3 5.4 27 10.1 40.9 14.1z" class="st7"/><path d="m348.6 503 6.2 6.7c.6.7.6 1.8 0 2.5-.1.1-.2.2-.3.2-1.3 1-2.6 1-3.9 0-1-.8-1.8-1.3-2.3-1.3l-25 .3c-1.2 0-2.2-.7-2.2-1.7v-2.6c0-.6.9-1.3 2.1-1.6l14.8-3.6c5.3-1.1 8.8-.8 10.6 1.1z" class="st10"/><path d="M505.5 512h-10.2l6.6-2.2c1.1.8 2.3 1.5 3.6 2.2zM123.4 512H94c7.2-2.9 14.8-4 22.7-3.1l.8.4 5.9 2.7z" class="st12"/><path d="M-82.7-4.1h677.4v731.6H-82.7z" class="st0"/><path d="M-82.7-4.1h677.4v731.6H-82.7z" class="st0"/><path d="M-82.7-4.1h677.4v731.6H-82.7z" class="st0"/><path d="M-82.7-4.1h677.4v731.6H-82.7z" class="st0"/><path d="M-82.7-4.1h677.4v731.6H-82.7z" class="st0"/><path d="M512 61.2c-4.4 2.1-8.4 5-12 8.5-1.4 1.4-2.7 2.2-3.3 2.1-8.3-.7-15.8-3.9-22.5-9.5-.8-.6-2.1-.6-3.2.1-3.9 2.4-6.7 5.8-8.5 10.2-.6 1.4-1.8 2.3-3 2.4-5.2 0-9.1-1.2-11.7-3.5-10.2.2-17.6-1.5-22.1-5.2-15.5-2.9-29.2-7.4-41-13.8-7.6-1.2-14.7-4-21.2-8.4C347.3 37 331.6 29 316.6 20c-2.4-1.5-4.9-3-7.3-4.5-7.8-4.9-15.5-10.1-23-15.6h-11c8.9 6.8 18 13.2 27.3 19.4 2.3 1.5 4.7 3.1 7 4.5 19.1 12.1 38.9 22.9 59.4 32.3l21.6 8.7 38.5 12.4 23.4 5.5c5-1.5 8.6.5 10.8 5.8 0 .1.1.2.1.3 1.1 2.2 3.6 3 5.7 1.8 18.3-10.6 3.3 28.1 21.3 8.6 2.9-3.1 4.6-2.3 5.2 2.5l1.5 12.2c.6 4.9 2.1 5.2 4.4.9 4.8-8.8 8.1-10.3 10.4-8.3V61.2z" class="st7"/><path d="m348.6 0-11.3 8.9c-5.4 1.2-10.3 3.7-14.9 7.8-1.9 1.1-3.9 2.2-5.8 3.3l-6.9 3.9C264.9 48.6 217.7 66.3 168 77l-24 4.1-42.1 4.2-25.2.6c-5-2.5-9.1-1.3-12.3 3.5 0 .1-.1.2-.2.3-1.5 1.9-4.3 2.2-6.3.6-17.1-14.2-8.5 26.9-23.7 4-2.4-3.7-4.3-3.2-5.8 1.4l-3.7 11.7c-1.5 4.7-3.1 4.7-4.8-.1-9.6-26.9-17.2 4.4-18.3 12-.5 3.8-1.1 7.6-1.6 11.3V54.8l10.3-5c1.7-.9 3.2-1.1 3.9-.7 6.1 3.4 11.2 8 15.5 13.7 1.2 1.6 2.4 2.7 3.1 2.8 8.7 1 17.1-.5 25-4.7.9-.5 2.2-.2 3.3.8 3.6 3.2 6 7.1 7 11.8.4 1.5 1.4 2.7 2.7 2.9 5.4 1.1 9.7.7 12.8-1.1 10.6 2.3 18.5 2.1 23.9-.5 16.6.4 31.6-1.2 45.1-5 8.1.4 16-.9 23.5-3.9 45-8.9 87.2-24.4 126.6-46.5 2.2-1.2 4.4-2.5 6.6-3.8 5.3-3.1 10.6-6.3 15.8-9.7 4.7-.9 8.8-2.9 12.1-5.9h11.4z" class="st6"/></svg>