<svg xmlns="http://www.w3.org/2000/svg" xml:space="preserve" id="Capa_1" x="0" y="0" style="enable-background:new 0 0 512 512" version="1.1" viewBox="0 0 512 512"><style>.st1{fill:none}.st4{fill:#a59078}.st5{fill:#5f5346}.st6{fill:#7f6e5d}.st7{fill:#5a5e62}.st10{fill:#4a2670}.st13{fill:#898890}.st14{fill:#787680}</style><path d="M0 0h512.2v512H0z" style="fill:#666a6e"/><path d="M0 0h512v511.3H0z" class="st1"/><path d="M0 0h512v511.3H0z" class="st1"/><path d="M0 0h512v511.3H0z" class="st1"/><path d="M0 0h512v511.3H0z" class="st1"/><path d="M0 0h512v511.3H0z" class="st1"/><path d="M0 0h512v511.3H0z" class="st1"/><path d="M0 0h512v511.3H0z" class="st1"/><path d="M0 0h512v511.3H0z" class="st1"/><path d="M0 0h512v511.3H0z" class="st1"/><path d="M0 0h512v511.3H0z" class="st1"/><path d="M360.1 227.8v287.8H126.8V255.4c0-49.5 37.8-89.7 84.2-89.7h90.7c32.4 0 58.4 27.8 58.4 62.1z" style="fill:#393f4a"/><path d="M0 0h512v511.3H0z" class="st1"/><path d="M129.8 281.3c.2-18.4 1.2-42.4 22.7-35.3 1 .2 1.6 1.3 1.6 2.3l-.8 29.3c0 1.3-.6 2.3-1.8 2.7l-1.8.8s-.2 0-.2.2c-.8.6-.6 2.3.2 3.6l10 14.8.4.4c.8.4 1.8 0 2.4-1l9.6-16.1c0-.2.2-.2.2-.4.2-.8-.2-1.7-1-1.9-1.2-.4-2.4-1.3-3.1-2.1-.8-.8-1.2-1.9-1.2-3.1l-.4-27.6c0-1.5 1-2.7 2.2-2.7H197c1 0 1.8.8 1.8 1.9v29.3c0 1.3-.6 2.3-1.8 2.7l-3.7 1.5c-.2 0-.2 0-.4.2-.6.6-.6 1.7 0 2.5l10.6 16.1c.2.2.2.4.4.4.8.6 2 .2 2.5-.6l9.8-15 .2-.2c.8-1.3.8-2.7.2-3.1l-3.3-1.9c-1.2-.6-1.8-1.7-1.8-2.7l-.4-29.1c0-1 1-2.1 2.4-2.1l27.6.2c1.4 0 2.4 1 2.4 2.5v25.7c0 1.5-.4 2.7-1.2 3.6-1.4 1.5-2.9 2.3-4.7 2.9-.2 0-.2 0-.4.2-.6.4-.6 1.7 0 2.7l9.6 15.3c.2.2.4.6.6.8 1.2 1 2.9.6 3.9-.6l10.6-16.1c1-1.5.6-2.3-1.4-2.5-1.6-.2-2.9-.6-4.3-1.7-.6-.4-.8-1.5-.8-2.9v-28.4c0-1 .8-1.9 1.8-1.9h28.3c1 0 1.8 1.3 1.8 2.7v29.3c0 .6-.8 1.5-1.8 1.9l-3.7 1.5s-.2 0-.2.2c-.4.4-.2 1.7.4 2.9l10.8 16.7c.2.2.2.4.4.4.6.4 1.6.2 2-.4L305 284c.8-1.3.8-2.7.2-3.1l-3.1-2.1c-1-.6-1.8-1.7-1.8-2.7v-29.3c0-1 .8-1.9 1.8-1.9h28.2c1 0 1.8.8 1.8 1.9V275c0 1.3-.6 2.5-1.6 2.9l-3.3 1.9h-.2c-.6.6-.6 1.9 0 3.1l9.6 15.5c.2.2.4.4.6.4.8.6 2 .4 2.4-.4l9.4-15.5c.8-1.3.8-2.7 0-3.1l-3.1-2.3c-.6-.4-1-1.9-1-3.6v-27.4c0-.8.8-1.5 1.8-1.7 4.7-.6 9.4-.2 13.9 1.3 1 .4 1.8 1 2.2 2.3 4.5 12.5 6.9 24.5 6.9 35.9 0 36.4.2 75.9.2 115.6V232.4c0-34.3-26.9-62.1-60.1-62.1h-93.4c-47.9 0-86.8 40.1-86.8 89.7m69.3-30.9c0 1.5-.8 2.7-1.8 2.7h-27.5c-1.4 0-2.5-.8-2.5-1.9v-20.1c0-1 .8-2.3 2-3.1 8.2-6.7 17.6-10.9 28-13h.2c.8 0 1.6.6 1.6 1.5v33.9zm43.8 2.7-29.6.2c-.6 0-1-.4-1-.8l-.2-42.2c0-.4.4-1 .8-1l29.6-.2c.6 0 1 .4 1 .8l.2 42.2c0 .6-.4 1-.8 1zm44.4-2.1c0 1.5-1.2 2.5-2.4 2.5l-27.1-.4c-1.4 0-2.4-1.3-2.4-2.5l.6-39.5c0-1.5 1.2-2.5 2.4-2.5l27.1.4c1.4 0 2.4 1.3 2.4 2.5l-.6 39.5zm45.2.4c0 1-1.2 1.9-2.5 1.9h-27.5c-1 0-1.8-1.3-1.8-2.7v-34.1c.2-.6 1-1 1.8-.8 10.2 2.9 19.8 7.5 28.6 13.6.8.6 1.4 1.5 1.4 2.3v19.8z" style="fill:#7f8c8d"/><path d="M0 0h512v511.3H0z" class="st1"/><path d="M152.6 448.5v62.1c0 1.9-.8 3.8-2 4.8h-87c-1.2-1.3-2-2.9-2-4.8v-34.5c0-19 14.5-34.5 32.4-34.5h51.9c3.7 0 6.7 3.1 6.7 6.9z" class="st4"/><path d="M0 0h512v511.3H0z" class="st1"/><path id="Rectangle-path" d="M120.2 407.1h25.9c3.5 0 6.5 3.1 6.5 6.9v20.7c0 3.8-2.9 6.9-6.5 6.9h-25.9c-3.5 0-6.5-3.1-6.5-6.9V414c0-3.7 3-6.9 6.5-6.9z" class="st5"/><path d="M0 0h512v511.3H0z" class="st1"/><path id="Rectangle-path_00000105402496933322840340000007332956331595590312_" d="M113.7 351.9h25.9c7.1 0 12.9 6.3 12.9 13.8v27.6c0 7.5-5.9 13.8-12.9 13.8h-25.9c-7.1 0-12.9-6.3-12.9-13.8v-27.6c-.1-7.7 5.8-13.8 12.9-13.8z" class="st6"/><path d="M0 0h512v511.3H0z" class="st1"/><path id="Rectangle-path_00000070095117537103665450000014442744588204444326_" d="M113.7 262.3h25.9c7.1 0 12.9 6.3 12.9 13.8v27.6c0 7.5-5.9 13.8-12.9 13.8h-25.9c-7.1 0-12.9-6.3-12.9-13.8v-27.6c-.1-7.8 5.8-13.8 12.9-13.8z" class="st6"/><path d="M0 0h512v511.3H0z" class="st1"/><path id="Shape_00000092446149108186007010000000734152809075722911_" d="M183.1 200.2 168 217.8c-4.9 5.6-12.9 5.9-18.2.8L130.4 200c-4.9-5.2-4.9-13.4 0-18.6l17.1-18.2c2.4-2.5 5.7-4 9.2-4s6.7 1.5 9.2 4l16.9 18c4.8 5.2 5 13.6.3 19z" class="st6"/><path d="M0 0h512v511.3H0z" class="st1"/><path id="Rectangle-path_00000146464328854089377140000007947268966846099601_" d="M120.2 317.5h25.9c3.5 0 6.5 3.1 6.5 6.9V345c0 3.8-2.9 6.9-6.5 6.9h-25.9c-3.5 0-6.5-3.1-6.5-6.9v-20.7c0-3.9 3-6.8 6.5-6.8z" class="st5"/><path d="M0 0h512v511.3H0z" class="st1"/><path id="Shape_00000012470884384215499820000013470874108474187948_" d="M263.8 186.4H236c-3.3 0-6.3-2.7-6.7-6.3l-5.3-55.2c-.2-1.9.4-4 1.8-5.4 1.4-1.5 2.9-2.3 4.9-2.3h38.5c1.8 0 3.7.8 4.9 2.3 1.2 1.5 2 3.3 1.8 5.4l-5.3 55.2c-.6 3.6-3.5 6.3-6.8 6.3z" class="st6"/><path d="M0 0h512v511.3H0z" class="st1"/><path id="Shape_00000181790529381830762780000017094795326553326746_" d="m116.9 252.9 13.7-39.9c.8-2.1 2.4-3.8 4.5-4.4 2.2-.6 4.3 0 5.9 1.7l15.3 14.8c1.8 1.7 2.4 4.2 2 6.5l-4.7 25.1c-.6 3.1-3.3 5.4-6.3 5.4H123c-2.2 0-4.1-1-5.3-2.9-1.2-1.7-1.4-4.2-.8-6.3z" class="st5"/><path d="M0 0h512v511.3H0z" class="st1"/><path id="Shape_00000017515619599710178100000016377068628047638451_" d="m216.6 137.7-42.8 20.7c-2 .8-3.3 2.9-3.7 5s.2 4.6 1.8 6.1l16.7 17.8c1.8 1.9 4.5 2.5 6.9 1.7l28.6-11.3c2.7-1 4.5-4 4.1-7.1l-2.5-27c-.2-2.3-1.4-4.2-3.1-5.2-1.9-1.3-4-1.5-6-.7z" class="st5"/><path d="M0 0h512v511.3H0z" class="st1"/><path d="M437.7 476.1v34.5c0 1.9-.8 3.8-2 4.8h-86.8c-1.2-1.3-2-2.9-2-4.8v-62.1c0-3.8 2.9-6.9 6.5-6.9h51.9c18.1 0 32.4 15.5 32.4 34.5z" class="st4"/><path d="M0 0h512v511.3H0z" class="st1"/><path id="Rectangle-path_00000029763265784930129080000011573090860327726235_" d="M379.4 441.6h-25.9c-3.5 0-6.5-3.1-6.5-6.9V414c0-3.8 2.9-6.9 6.5-6.9h25.9c3.5 0 6.5 3.1 6.5 6.9v20.7c-.1 3.8-2.8 6.9-6.5 6.9z" class="st5"/><path d="M0 0h512v511.3H0z" class="st1"/><path id="Rectangle-path_00000116234370477528666470000004061370321571681677_" d="M385.8 407.1h-25.9c-7.1 0-12.9-6.3-12.9-13.8v-27.6c0-7.5 5.9-13.8 12.9-13.8h25.9c7.1 0 12.9 6.3 12.9 13.8v27.6c.1 7.6-5.6 13.8-12.9 13.8z" class="st6"/><path d="M0 0h512v511.3H0z" class="st1"/><path id="Rectangle-path_00000037674369029608569640000009604808884680168348_" d="M385.8 317.5h-25.9c-7.1 0-12.9-6.3-12.9-13.8v-27.6c0-7.5 5.9-13.8 12.9-13.8h25.9c7.1 0 12.9 6.3 12.9 13.8v27.6c.1 7.5-5.6 13.8-12.9 13.8z" class="st6"/><path d="M0 0h512v511.3H0z" class="st1"/><path id="Shape_00000003071976950396280330000008701701906368337290_" d="m316.5 200.2 15.1 17.6c4.9 5.6 12.9 5.9 18.2.8L369 200c4.9-5.2 4.9-13.4 0-18.6l-17-18.2c-2.4-2.5-5.7-4-9.2-4s-6.7 1.5-9.2 4l-16.9 18c-4.7 5.2-4.9 13.6-.2 19z" class="st6"/><path d="M0 0h512v511.3H0z" class="st1"/><path id="Rectangle-path_00000023996422042716328320000013267010714089152428_" d="M379.4 351.9h-25.9c-3.5 0-6.5-3.1-6.5-6.9v-20.7c0-3.8 2.9-6.9 6.5-6.9h25.9c3.5 0 6.5 3.1 6.5 6.9V345c-.1 3.8-2.8 6.9-6.5 6.9z" class="st5"/><path d="M0 0h512v511.3H0z" class="st1"/><path id="Shape_00000135686342306145172650000003057982733742023870_" d="M382.7 252.9 369 213c-.8-2.1-2.4-3.8-4.5-4.4-2.2-.6-4.3 0-5.9 1.7l-15.3 14.8c-1.8 1.7-2.4 4.2-2 6.5l4.7 25.1c.6 3.1 3.3 5.4 6.3 5.4h24.3c2.2 0 4.1-1 5.3-2.9 1.2-1.7 1.6-4.2.8-6.3z" class="st5"/><path d="M0 0h512v511.3H0z" class="st1"/><path id="Shape_00000136389729478091089910000017095332188135098519_" d="m283 137.7 42.8 20.7c2 .8 3.3 2.9 3.7 5 .4 2.3-.2 4.6-1.8 6.1L311 187.3c-1.8 1.9-4.5 2.5-6.9 1.7l-28.6-11.3c-2.7-1-4.5-4-4.1-7.1l2.5-27c.2-2.3 1.4-4.2 3.1-5.2 1.9-1.1 4.2-1.5 6-.7z" class="st5"/><path d="M0 0h512v511.3H0z" class="st1"/><path d="M512.2 36.4v38.2c-1.3.5-2.8.8-4.3.8h-38.7c-7.2 0-13.1-6.3-13.1-14V49.6c0-7.7 5.8-14 13.1-14h38.7c1.5 0 2.9.3 4.3.8z" class="st7"/><path d="M0 0h512v511.3H0z" class="st1"/><path d="M512.2 90v48h-12.3c-7.8 0-14.1-6.6-14.1-15v-18c0-8.3 6.3-15 14.1-15h12.3z" class="st7"/><path d="M0 0h512v511.3H0z" class="st1"/><path d="M503.1 172.1c0-9.8-7.5-17.6-16.7-17.6l-44 .2c-9.2 0-16.5 7.9-16.5 17.8v13.4c0 9.8 7.5 17.6 16.7 17.6l44-.2c9.2 0 16.5-7.9 16.5-17.8v-13.4z" class="st7"/><path d="M0 0h512v511.3H0z" class="st1"/><path d="M0 0h512v511.3H0z" class="st1"/><path d="M0 0h512v511.3H0z" class="st1"/><path d="M0 0h512v511.3H0z" class="st1"/><path d="M0 0h512v511.3H0z" class="st1"/><path d="M512.2 222.5v41c-6.2-.8-10.9-6.4-10.9-13.1v-14.8c0-6.7 4.7-12.3 10.9-13.1z" class="st7"/><path d="M0 0h512v511.3H0z" class="st1"/><path d="M0 0h512v511.3H0z" class="st1"/><path d="M2.7 55.5c0-7.7 5.7-14 12.7-14h37.4c7.1 0 12.7 6.3 12.7 14v11.7c0 7.7-5.7 14-12.7 14H15.5c-7.1 0-12.7-6.3-12.7-14V55.5h-.1z" class="st7"/><path d="M0 0h512v511.3H0z" class="st1"/><path d="M36.7 112.5v18c0 8.4-6.1 15-13.5 15H0v-48h23.1c7.5 0 13.6 6.7 13.6 15z" class="st7"/><path d="M0 0h512v511.3H0z" class="st1"/><path d="M19.8 179.6c0-9.8 7.3-17.6 16.1-17.6l42.7.2c8.8 0 16.1 7.9 16.1 17.8v13.4c0 9.8-7.3 17.6-16.1 17.6l-42.7-.2c-8.8 0-16.1-7.9-16.1-17.8v-13.4z" class="st7"/><path d="M0 0h512v511.3H0z" class="st1"/><path d="M35.5 431.2v13.4c0 9.8-7.3 17.6-16.1 17.6L0 462.1v-48.8l19.3.1c8.8 0 16.2 7.9 16.2 17.8z" class="st7"/><path d="M0 0h512v511.3H0z" class="st1"/><path d="M56 369.7v13.4c0 9.8-7.3 17.6-16.1 17.6L0 400.5v-48.8l39.8.2c8.9 0 16.2 7.9 16.2 17.8z" class="st7"/><path d="M0 0h512v511.3H0z" class="st1"/><path d="m3.9 179.4-.2 15.3c0 4-1.4 7.5-3.7 10.1v-35.9c2.4 2.7 3.9 6.4 3.9 10.5z" class="st7"/><path d="M0 0h512v511.3H0z" class="st1"/><path d="M21.8 241.5v14.8c0 7.3-5.3 13.2-12 13.2H0v-41.2h9.8c6.7 0 12 5.9 12 13.2z" class="st7"/><path d="M0 0h512v511.3H0z" class="st1"/><path d="M0 0h512v511.3H0z" class="st1"/><path d="M0 0h512v511.3H0z" class="st1"/><path d="M0 0h512v511.3H0z" class="st1"/><path d="M0 0h512v511.3H0z" class="st1"/><path d="M0 0h512v511.3H0z" class="st1"/><path d="M0 0h512v511.3H0z" class="st1"/><path d="M0 0h512v511.3H0z" class="st1"/><path d="M0 0h512v511.3H0z" class="st1"/><path d="M0 0h512v511.3H0z" class="st1"/><path d="M0 0h512v511.3H0z" class="st1"/><path d="m493.2 438.1-2.5-1.5c-17.1-10-30.4-26.3-37.9-45.4-.4-1-1.2-2.1-2.2-2.7s-2.2-.8-3.3-.6c-19.2 3.6-39.3.4-56.4-9.6l-2.5-1.5c-2.4-1.5-5.5-.4-6.7 2.1l-33.3 64.4c-11.4 22.2-12.4 47.7-4.1 69.8H460c.6-1 1.2-2.3 1.8-3.3l33.1-64.4c1.6-2.7.6-5.9-1.7-7.3z" style="fill:#cecece"/><path d="M495.1 445.2 462 509.6c-.6 1-1.2 2.3-1.8 3.3h-73.8l23.3-45.4 34.3-66.7 6.3-12.3c1 .6 1.8 1.5 2.2 2.7 7.5 19 20.8 35.5 37.9 45.4l2.5 1.5c2.6 1.4 3.6 4.6 2.2 7.1z" style="fill:#989898"/><path d="m460.1 497-5.1 10c-1 2.1-2.2 4-3.3 5.9h-79.9l22-42.6 15.9-2.7 17.6-4 29 16.9 3.8 16.5z" class="st10"/><path d="m409.7 467.5-23.3 45.4h-32.7c-9.6-20.7-9.8-44.5.6-64.8l5.1-10 20.8-2.1 23.9 14h.2l5.4 17.5z" style="fill:#edf5ff"/><path d="m460.1 497 23.3-45.4c1.4-2.7.6-6.3-2-8.2-13.9-11.3-25.7-24.7-34.9-40.1-.6-1-1.6-1.9-2.5-2.5l-17.6 6.1-22.6 43.9 5.9 16.7 50.4 29.5z" style="fill:#d5e8fe"/><path d="M444 400.9c-1-.6-2.2-.8-3.3-.8-17.1 0-34.1-3.3-50.7-9.8-2.9-1.3-6.1 0-7.5 2.7l-23.3 45.4 50.5 29.5 34.3-67z" class="st10"/><path d="M0 0h512v511.3H0z" class="st1"/><path d="M406 513.5h-94.6l2.9-11.1c.2-.6.4-1.3.6-1.9.2-.4.4-.8.6-1.3.2-.6.4-1.3.8-1.7.2-.4.4-1 .8-1.5.4-.8.8-1.5 1.2-2.1.2-.4.6-.8 1-1.5l.2-.2c.4-.4.6-.8 1-1.3.8-1 1.6-1.9 2.5-2.7.2-.2.6-.4.8-.6.2-.2.6-.6.8-.6.4-.2.6-.6 1-.8 1-.8 2-1.5 2.9-2.1.4-.2 1-.6 1.4-.8 0 0 .2-.2.4-.2.4-.2 1-.4 1.4-.6.6-.2 1.2-.4 1.6-.6 4.5-1.7 9.2-2.1 14.1-1.3l47.9 10.4 10.7 22.5z" class="st13"/><path d="M333 481.3v32.2h-21.6l2.9-11.1c.2-.6.4-1.3.6-1.9.2-.4.4-.8.6-1.3.2-.6.4-1.3.8-1.7.2-.4.4-1 .8-1.5.4-.8.8-1.5 1.2-2.1.2-.4.6-.8 1-1.5l.2-.2c.4-.4.6-.8 1-1.3.8-1 1.6-1.9 2.5-2.7.2-.2.6-.4.8-.6.2-.2.6-.6.8-.6.4-.2.6-.6 1-.8 1-.6 2-1.5 2.9-2.1.4-.2 1-.6 1.4-.8 0 0 .2-.2.4-.2.4-.2 1-.4 1.4-.6.3-.7.9-1 1.3-1.2z" class="st14"/><path d="M517.9 513.1c-.2-.2-.4-.4-.6-.8-.4-.4-.6-1-1-1.5-.4-.4-.8-1-1.2-1.5-.8-.8-1.6-1.9-2.4-2.7-1-1-2-1.9-3.1-2.7-.6-.4-1.4-1-2-1.5-.2-.2-.4-.4-.8-.4l-1.2-.6c-.4-.2-.8-.4-1-.6-.2 0-.2-.2-.4-.2h-.2c-.4-.2-1-.4-1.4-.6-.6-.2-1.2-.6-1.8-.6-1.2-.4-2.5-.8-3.9-1-1.2-.2-2.4-.4-3.5-.4h-.8c-1.8-.2-3.7 0-5.7.2l-10.8 1.5-23.5-19.2c-.6-.4-1-.8-1.6-1-.2-.2-.4-.4-.6-.4-.2-.2-.4-.4-.8-.4-.4-.2-.8-.6-1.4-.8-.6-.4-1.4-.6-2-1-2.9-1.5-6.1-2.5-9.2-2.7h-.8c-6.5-.8-12.9.6-18.8 4l-22.6 13.4 6.9 23h116.1c.3-1.3.1-1.3.1-1.5z" class="st13"/><path d="m517.9 513.1-.8.4h-78.7l-1.8-40.1c.2 0 .4 0 .8.2 3.1.4 6.3 1.3 9.2 2.7.6.4 1.4.6 2 1 .4.2.8.4 1.4.8.2.2.6.2.8.4s.4.2.6.4c.6.4 1 .6 1.6 1l23.5 19.2 10.8-1.5c2-.2 3.9-.4 5.7-.2h.8c1.2 0 2.4.2 3.5.4 1.4.2 2.5.6 3.9 1l1.8.6c.6.2 1 .4 1.4.6h.2c.2 0 .2.2.4.2.4.2.8.4 1 .6l1.2.6c.2.2.6.2.8.4.6.4 1.4.8 2 1.5 1 .8 2.2 1.7 3.1 2.7.8.8 1.6 1.7 2.4 2.7.2.4.6.6.8 1l.4.4c.2 1.5.6 2.2 1.2 3z" class="st14"/><path d="m517.9 513.1-.8.4h-51.3l10.4-14.2 10.8-1.5c2-.2 3.9-.4 5.7-.2h.8c1.2 0 2.4.2 3.5.4 1.4.2 2.5.6 3.9 1l1.8.6c.6.2 1 .4 1.4.6h.2c.2 0 .2.2.4.2.4.2.8.4 1 .6l1.2.6c.2.2.6.2.8.4.6.4 1.4.8 2 1.5 1 .8 2.2 1.7 3.1 2.7.8.8 1.6 1.7 2.4 2.7.2.4.6.6.8 1l.4.4c.5 1.3.9 2 1.5 2.8z" style="fill:#57565c"/><path d="M0 0h512v511.3H0z" class="st1"/><path d="M0 0h512v511.3H0z" class="st1"/><path d="M423.8 56.5c-3.7-1.9-6.7-3.1-11.2-4.6-12-3.8-21-12.7-30.8-21.7-1.6-1.5-3.3-1.5-4.7.2-5.1 5.9-19.8 11.3-26.3 7.1-2.7-1.4-4.1-3.5-5.9-5.1-1.6-1.5-2.7-1.3-3.9.6l-5.1 8.8c-1.2 1.9-2.2 1.9-3.3 0-1.8-2.9-4.1-5.4-6.9-7.9-8-7.1-7.1 14.8-14.7 4.8-6.5-8.4-6.9-2.5-9.4 3.1-.8 1.7-2 2.1-3.5 1.3-5.9-2.9-18-9.2-24.3-4-13.7 11.1-30.2 21.1-42.7 28.6-7.1 4.4-8.8-1.5-14.1-4.6-1-.6-1.8-.4-2.5.6-4.1 6.1-4.7 14.2-14.5 11.7-1.6-.4-2.7-.6-3.9-.4-11.6 1.3-22.2 4-29.4-.8-6.9-4.4-8.4 8.6-9.2 13-.4 2.5-1.8 4-4.3 4.2-8.8.4-21.4 1.9-23.5-.4-.2-.2-.2-.4.2-.4 5.1-1 10-1.9 15.1-2.7 6.5-1 10-2.5 10.8-9.8.6-6.7 1-11.3 1.2-13.8 0-.4.2-.6.2-.8.8-.8 1.6-1 2.5-.2 10 8.6 19.2 6.1 32.2 3.6 2.2-.4 4.7.2 6.3 0 7.8-.6 9-6.7 12.4-12.5 2.4-4 4.7-2.5 7.6-.4 4.5 3.3 8.2 5.9 13.3 2.5 19.4-12.3 38.5-24.2 55-41 .2-.2.4-.6.2-.8 0-.2-.4-.2-.6-.2L283 16c-.2 0-.4 0-.6-.4-3.3-4.8-6.4-10.2-8.5-15.6h12.7c1.4 3 2.9 5.9 4.4 8.8.2.2.4.2.6.2 0 0 .2 0 .2-.2 1.8-2.9 2.9-5.7 3.8-8.8h7.2c-1 5.7-2.2 9.9-4.5 14.8-.2.4-.2.8 0 1.3 3.5 5.6 9.6 9.6 14.7 13.2.4.2 1 .2 1.2-.2 2.2-2.5 3.5-5.2 4.3-8.6.6-2.9 2.7-2.1 4.3-.6 2.9 2.7 5.9 5.2 9 7.5 1.8 1.3 2.9 1 3.7-.6 1.6-3.8 2.7-7.5 3.1-11.5.4-2.5 1.8-3.3 3.3-1.3 3.3 4.6 6.5 8.8 9.8 13 .8 1 2 1.7 3.3 1.9 5.9.6 11.2-1 15.9-4.6 1.8-1.5 2.7-3.3 3.9-5.4.6-1 1.6-1.5 2.5-.8 1.4.8 2.9 1.7 4.1 2.7 11.8 10.9 21.2 23.6 36.3 29.7 2.7 1 4.7 2.9 6.3 5.6.6.6.4.6-.2.4z" class="st7"/></svg>