<svg xmlns="http://www.w3.org/2000/svg" xml:space="preserve" id="Capa_1" x="0" y="0" style="enable-background:new 0 0 512 512" version="1.1" viewBox="0 0 512 512"><style>.st0{fill:#6997e0}.st1{fill:#8fa345}.st2{fill:#c4af58}.st3{fill:#dbc461}.st4{fill:#95bcf4}.st5{fill:#fff}.st6{opacity:.52;fill:#5496d1;enable-background:new}.st7{fill:#278500}.st8{fill:#823614}.st9{fill:#c45c24}.st10{fill:#d9833b}.st11{fill:#efa873}.st13{fill:#b9e3f9}</style><path d="M301.5 56h62.2-62.2zM356.8 2.7c16.4-3.3 32.7 7.5 35 24.1.1.6.2 1.3.2 1.9.1 1 19.7-9.2 30.7 8 0 0 10.7 15.2 24.3 19.2l-83.3.1H512V0H329.2c2.6 3.7 5.1 7.4 7.5 11 5.8-3.8 12.6-6.8 20.1-8.3zM301.5 55.9h-26.9c1 0 2 .1 2.9.1l24-.1c0 .1 0 .1 0 0zM.9 95.7V56h40.2S38.6 20 69 15.1c2-4.8 4.3-9.8 6.7-15.1H0v512h.9V95.7z" class="st0"/><path d="M363.7 56c0-.1 0-.1 0 0l-42.1-.1h-20.1v.1h62.2z" class="st1"/><path d="m363.7 56 83.3-.1c-13.6-4-24.3-19.2-24.3-19.2-11-17.2-30.6-7-30.7-8 0-.6-.1-1.3-.2-1.9-2.3-16.6-18.6-27.4-35-24.1-7.5 1.5-14.3 4.5-20.2 8.3 15.5 23.4 26.2 43.4 27.1 45z" class="st1"/><path d="M363.7 56c0-.1 0-.1 0 0zM321.6 55.9h42c-.8-1.5-11.6-21.5-27-44.9-2.4-3.6-4.9-7.3-7.5-11h-91.6c8.8 8.8 18.3 17.1 28.2 24.8 16.5 12.5 35.5 24.1 55.9 31.1z" class="st2"/><path d="M95 17.4c1.4-6.6 4.5-12.6 8.9-17.4H75.7C73.3 5.3 71 10.3 69 15.1c6.8-1.1 15.4-.6 26 2.3zM165 18.7c0 .3.1.5.1.8 0 0 31.7-15.9 50 4.9 2.8 3.3 5.9 6.4 9.2 9.3 9.6 8 28.3 21.1 50.4 22.2h47c-20.4-7-39.4-18.6-55.8-31.1-9.9-7.7-19.4-16-28.2-24.8h-81.1c3.2 3.6 5.7 7.8 7.2 12.7.5 2 1 4 1.2 6z" class="st3"/><path d="M301.5 56H.9v39.1H512V56H301.5zm-40.6 26.2h-20.4c-3.5 0-6.4-2.9-6.4-6.4s2.9-6.4 6.4-6.4h20.4c3.5 0 6.4 2.9 6.4 6.4-.1 3.5-2.9 6.4-6.4 6.4zm81.4 0h-38c-3.5 0-6.4-2.9-6.4-6.4s2.9-6.4 6.4-6.4h38c3.5 0 6.4 2.9 6.4 6.4s-2.8 6.4-6.4 6.4zm64.3-12.8H427c3.5 0 6.4 2.9 6.4 6.4s-2.9 6.4-6.4 6.4h-20.4c-3.5 0-6.4-2.9-6.4-6.4s2.9-6.4 6.4-6.4z" class="st4"/><path d="M342.3 69.4h-38c-3.5 0-6.4 2.9-6.4 6.4s2.9 6.4 6.4 6.4h38c3.6 0 6.4-2.9 6.4-6.4s-2.9-6.4-6.4-6.4zM406.6 82.2H427c3.5 0 6.4-2.9 6.4-6.4s-2.9-6.4-6.4-6.4h-20.4c-3.5 0-6.4 2.9-6.4 6.4s2.9 6.4 6.4 6.4zM260.9 69.4h-20.4c-3.5 0-6.4 2.9-6.4 6.4s2.9 6.4 6.4 6.4h20.4c3.5 0 6.3-2.9 6.4-6.4 0-3.5-2.9-6.4-6.4-6.4z" class="st5"/><path d="M69 15.1C38.6 20 41.1 56 41.1 56h236.5c-1 0-2 0-2.9-.1-22-1.1-40.8-14.2-50.4-22.2-3.3-2.9-6.4-6-9.2-9.3-18.3-20.8-50-4.9-50-4.9 0-.3-.1-.5-.1-.8-.2-2-.7-4-1.3-6-1.5-4.9-4.1-9.1-7.2-12.7H104c-4.4 4.8-7.6 10.8-8.9 17.4C84.4 14.5 75.8 14 69 15.1z" class="st1"/><path d="M131.2 447.7 85.8 412l45.4 35.7z" class="st0"/><path d="M131.2 447.7 85.8 412l45.4 35.7z" class="st6"/><path d="m157.8 487 3.1 2.4v-.1l-3-2.3-5.6-17h-.1l5.6 17z" class="st0"/><path d="m157.8 487 3.1 2.4v-.1l-3-2.3-5.6-17h-.1l5.6 17z" class="st6"/><path d="M413.8 489.1c9.8-2.1 18.8-.2 26.8 5.5.6.4.9.2.9-.7-.3-15.6-.5-31.2-.5-46.8 0-.1-.1-.2-.1-.3-.2-.4-.7-.6-1.1-.4-17.5 6.6-26.8-10.7-27-25.9 0-.7.4-1.2.9-1.3 9.6-1.6 18.3.4 26.2 6 .7.5 1.1.4 1.1-.5.2-15.4.6-30.9 1.2-46.3v-.2c-.1-.3-.6-.5-1-.4-8.1 2.4-14.5-.1-18.9-5L355.4 458l5.7 4.5-26.8 34.1 19.6 15.4h67.6c-5.2-5.2-8.2-13.6-8.6-21.5-.1-.7.3-1.3.9-1.4z" class="st0"/><path d="M413.8 489.1c9.8-2.1 18.8-.2 26.8 5.5.6.4.9.2.9-.7-.3-15.6-.5-31.2-.5-46.8 0-.1-.1-.2-.1-.3-.2-.4-.7-.6-1.1-.4-17.5 6.6-26.8-10.7-27-25.9 0-.7.4-1.2.9-1.3 9.6-1.6 18.3.4 26.2 6 .7.5 1.1.4 1.1-.5.2-15.4.6-30.9 1.2-46.3v-.2c-.1-.3-.6-.5-1-.4-8.1 2.4-14.5-.1-18.9-5L355.4 458l5.7 4.5-26.8 34.1 19.6 15.4h67.6c-5.2-5.2-8.2-13.6-8.6-21.5-.1-.7.3-1.3.9-1.4z" class="st6"/><path d="m259.5 474.7-11.4-8.9L266 443l18.4 14.5c6.3.2 12.2 2.1 17.7 5.8.7.5 1.1.4 1.1-.5-.2-15.5-.7-31-1.5-46.5v-.2c-.1-.3-.6-.5-1-.3-16.9 6.5-27.6-9.1-28.5-24.3 0-.5.3-1 .7-1.1 9.5-2.3 18.4-1.1 26.6 3.9.6.4.9.3.9-.2-1-15.7-2.3-31.3-3.9-46.9 0-.2 0-.4-.1-.5-.3-.6-1-.7-1.6-.4-15.9 8.8-27.5-7.8-29.6-22-.1-.6.3-1.1.8-1.3 9.4-3 18.3-2.3 26.9 2.4.8.4 1.1.2 1-.7-1.3-11.5-2.7-23-4.3-34.5 0-.6-.4-1.1-1-1.4-6.4-3.2-9.6-8.2-10.4-13.6l-85.3 108.7c-2.1 7.2-6.2 13.5-12.5 16l-1.7 2.2 17 13.3-8.9 11.4-17-13.3-4 5.1c.1 6.6.2 13.2.4 19.8l6.9 5.4c6.3-3 13.1-3.8 20.4-2.5.5 0 .9.6.9 1.2-.2 8.8-4.7 21.7-13.1 26l.1.3 55.2 43.3-3.9-3.1 26.8-34.3zm-18.3-34.9c-6.6 0-11.9-5.3-11.9-11.9 0-6.6 5.3-11.9 11.9-11.9s11.9 5.3 11.9 11.9c0 6.6-5.3 11.9-11.9 11.9zm7.3-97.9c6.6 0 11.9 5.3 11.9 11.9 0 6.6-5.3 11.9-11.9 11.9s-11.9-5.3-11.9-11.9c0-6.6 5.3-11.9 11.9-11.9zM223 379.5c6.6 0 11.9 5.4 11.9 11.9 0 6.6-5.3 11.9-11.9 11.9s-11.9-5.3-11.9-11.9c0-6.6 5.3-11.9 11.9-11.9zm-4.1 99c-6.6 0-11.9-5.3-11.9-11.9 0-6.6 5.3-11.9 11.9-11.9s11.9 5.3 11.9 11.9c0 6.6-5.3 11.9-11.9 11.9z" class="st0"/><path d="m259.5 474.7-11.4-8.9L266 443l18.4 14.5c6.3.2 12.2 2.1 17.7 5.8.7.5 1.1.4 1.1-.5-.2-15.5-.7-31-1.5-46.5v-.2c-.1-.3-.6-.5-1-.3-16.9 6.5-27.6-9.1-28.5-24.3 0-.5.3-1 .7-1.1 9.5-2.3 18.4-1.1 26.6 3.9.6.4.9.3.9-.2-1-15.7-2.3-31.3-3.9-46.9 0-.2 0-.4-.1-.5-.3-.6-1-.7-1.6-.4-15.9 8.8-27.5-7.8-29.6-22-.1-.6.3-1.1.8-1.3 9.4-3 18.3-2.3 26.9 2.4.8.4 1.1.2 1-.7-1.3-11.5-2.7-23-4.3-34.5 0-.6-.4-1.1-1-1.4-6.4-3.2-9.6-8.2-10.4-13.6l-85.3 108.7c-2.1 7.2-6.2 13.5-12.5 16l-1.7 2.2 17 13.3-8.9 11.4-17-13.3-4 5.1c.1 6.6.2 13.2.4 19.8l6.9 5.4c6.3-3 13.1-3.8 20.4-2.5.5 0 .9.6.9 1.2-.2 8.8-4.7 21.7-13.1 26l.1.3 55.2 43.3-3.9-3.1 26.8-34.3zm-18.3-34.9c-6.6 0-11.9-5.3-11.9-11.9 0-6.6 5.3-11.9 11.9-11.9s11.9 5.3 11.9 11.9c0 6.6-5.3 11.9-11.9 11.9zm7.3-97.9c6.6 0 11.9 5.3 11.9 11.9 0 6.6-5.3 11.9-11.9 11.9s-11.9-5.3-11.9-11.9c0-6.6 5.3-11.9 11.9-11.9zM223 379.5c6.6 0 11.9 5.4 11.9 11.9 0 6.6-5.3 11.9-11.9 11.9s-11.9-5.3-11.9-11.9c0-6.6 5.3-11.9 11.9-11.9zm-4.1 99c-6.6 0-11.9-5.3-11.9-11.9 0-6.6 5.3-11.9 11.9-11.9s11.9 5.3 11.9 11.9c0 6.6-5.3 11.9-11.9 11.9z" class="st6"/><path d="M453.4 309.1c-.5-.1-.9.1-.9.4 0 .5-.1.9-.1 1.4l1.3-1.7h-.1c0-.1-.1-.1-.2-.1z" class="st0"/><path d="M453.4 309.1c-.5-.1-.9.1-.9.4 0 .5-.1.9-.1 1.4l1.3-1.7h-.1c0-.1-.1-.1-.2-.1z" class="st6"/><path d="M185.6 508.8c.1 0 .1 0 0 0l-17.7-14v.1l17.7 13.9z" class="st0"/><path d="M185.6 508.8c.1 0 .1 0 0 0l-17.7-14v.1l17.7 13.9z" class="st6"/><path d="m156.3 430.6 2.9 2.2c0-1.9 0-3.9-.1-5.8l-2.8 3.6z" class="st0"/><path d="m156.3 430.6 2.9 2.2c0-1.9 0-3.9-.1-5.8l-2.8 3.6z" class="st6"/><path d="m132.2 384-2.4-1.9-13.4 17.1-11.4-8.9 13.4-17.2-11.4-8.9-13.4 17.1-4.5-3.5 44.4 34.8 10.3-13.1c-5.7-2.6-9.6-8.7-11.6-15.5z" class="st0"/><path d="m132.2 384-2.4-1.9-13.4 17.1-11.4-8.9 13.4-17.2-11.4-8.9-13.4 17.1-4.5-3.5 44.4 34.8 10.3-13.1c-5.7-2.6-9.6-8.7-11.6-15.5z" class="st6"/><path d="M442.2 356.3c.6.5.9.4.9-.1.2-3.6.4-7.1.6-10.7l-6.1 7.8c1.6.8 3.1 1.8 4.6 3z" class="st0"/><path d="M442.2 356.3c.6.5.9.4.9-.1.2-3.6.4-7.1.6-10.7l-6.1 7.8c1.6.8 3.1 1.8 4.6 3z" class="st6"/><path d="m159.2 432.8 7 5.5c-.2-6.6-.3-13.2-.4-19.8l-6.6 8.5c-.1 1.9 0 3.9 0 5.8z" class="st7"/><path d="m159.2 432.8 7 5.5c-.2-6.6-.3-13.2-.4-19.8l-6.6 8.5c-.1 1.9 0 3.9 0 5.8z" class="st6"/><path d="M181.3 468.4c8.5-4.2 12.9-17.1 13.1-26 0-.6-.4-1.2-.9-1.2-7.3-1.3-14.1-.5-20.4 2.5l.2.2 8 24.5z" class="st7"/><path d="M181.3 468.4c8.5-4.2 12.9-17.1 13.1-26 0-.6-.4-1.2-.9-1.2-7.3-1.3-14.1-.5-20.4 2.5l.2.2 8 24.5z" class="st6"/><path d="M288.6 288.8c.6.3 1 .8 1 1.4 1.6 11.5 3 23 4.3 34.5.1.9-.2 1.1-1 .7-8.6-4.7-17.5-5.4-26.9-2.4-.5.2-.9.7-.8 1.3 2.1 14.2 13.7 30.8 29.6 22 .6-.3 1.3-.2 1.6.4.1.1.1.3.1.5 1.6 15.6 2.9 31.2 3.9 46.9 0 .5-.3.6-.9.2-8.2-5-17.1-6.2-26.6-3.9-.4.1-.7.6-.7 1.1.9 15.2 11.6 30.8 28.5 24.3.4-.2.9 0 1 .3v.2c.8 15.5 1.3 31 1.5 46.5 0 .9-.4 1-1.1.5-5.5-3.7-11.4-5.6-17.7-5.8l27.1 21.3 17.4-22.2c-6.3.4-12.1 2.6-17.4 6.5-1.1.8-1.6.5-1.6-1 .4-15.8-.2-31.7-2-47.4-.1-.7.2-.9.8-.6 17.7 8.5 27.8-11.4 26.7-26.8 0-.6-.6-1.2-1.2-1.2-10.1-1.1-18.7 1.7-26.1 8.3-.6.6-1 .3-1.1-.9-1.1-15.8-2.4-31.7-4-47.5 0-.3.3-.6.8-.6h.3c18.3 4.7 25.8-13.1 24.4-28.7-.1-.6-.5-1.1-1.1-1.1-9.7-.7-18.1 2.2-25.3 8.6-.7.6-1.1.5-1.1-.2-1.5-11.5-3.1-23.1-4.9-34.6-.1-.6.1-1.3.7-1.8 11-10.2 6-23.6-3.3-31.9l-15.4 19.6c.9 5.3 4.1 10.3 10.5 13.5z" class="st7"/><path d="M288.6 288.8c.6.3 1 .8 1 1.4 1.6 11.5 3 23 4.3 34.5.1.9-.2 1.1-1 .7-8.6-4.7-17.5-5.4-26.9-2.4-.5.2-.9.7-.8 1.3 2.1 14.2 13.7 30.8 29.6 22 .6-.3 1.3-.2 1.6.4.1.1.1.3.1.5 1.6 15.6 2.9 31.2 3.9 46.9 0 .5-.3.6-.9.2-8.2-5-17.1-6.2-26.6-3.9-.4.1-.7.6-.7 1.1.9 15.2 11.6 30.8 28.5 24.3.4-.2.9 0 1 .3v.2c.8 15.5 1.3 31 1.5 46.5 0 .9-.4 1-1.1.5-5.5-3.7-11.4-5.6-17.7-5.8l27.1 21.3 17.4-22.2c-6.3.4-12.1 2.6-17.4 6.5-1.1.8-1.6.5-1.6-1 .4-15.8-.2-31.7-2-47.4-.1-.7.2-.9.8-.6 17.7 8.5 27.8-11.4 26.7-26.8 0-.6-.6-1.2-1.2-1.2-10.1-1.1-18.7 1.7-26.1 8.3-.6.6-1 .3-1.1-.9-1.1-15.8-2.4-31.7-4-47.5 0-.3.3-.6.8-.6h.3c18.3 4.7 25.8-13.1 24.4-28.7-.1-.6-.5-1.1-1.1-1.1-9.7-.7-18.1 2.2-25.3 8.6-.7.6-1.1.5-1.1-.2-1.5-11.5-3.1-23.1-4.9-34.6-.1-.6.1-1.3.7-1.8 11-10.2 6-23.6-3.3-31.9l-15.4 19.6c.9 5.3 4.1 10.3 10.5 13.5z" class="st6"/><path d="m192 385-11.6 14.9c6.3-2.5 10.4-8.8 12.5-16l-.9 1.1z" class="st7"/><path d="m192 385-11.6 14.9c6.3-2.5 10.4-8.8 12.5-16l-.9 1.1z" class="st6"/><path d="m143.8 399.5 3.1-4-14.7-11.5c2 6.8 5.9 12.9 11.6 15.5z" class="st7"/><path d="m143.8 399.5 3.1-4-14.7-11.5c2 6.8 5.9 12.9 11.6 15.5z" class="st6"/><path d="m149.7 462.2 2.5 7.8h.1l-2.6-7.8-18.5-14.5v.1l18.5 14.4z" class="st7"/><path d="m149.7 462.2 2.5 7.8h.1l-2.6-7.8-18.5-14.5v.1l18.5 14.4z" class="st6"/><path d="M475.5 487.9c-9.5-1.6-18.1.3-25.9 5.9-.8.6-1.2.3-1.2-.7-.5-15.3-.8-30.6-.9-45.9 0-.4.3-.8.6-.8h.2c18.1 6.2 27.1-9.6 28.1-24.8 0-.6-.2-1.1-.6-1.2-9.7-2.1-18.7-.5-26.7 4.9-1.1.7-1.6.4-1.6-1 .9-15.6 1.2-31.2.9-46.9 0-.7.3-.9.8-.5 16.9 9.8 28.6-8.5 29.4-23 0-.6-.4-1.2-1.1-1.3-9.8-2.3-18.8-.7-26.9 4.9-.7.5-1 .1-1-1 .3-6.7.7-13.3 1.1-20l-7 9c-.2 3.6-.4 7.2-.6 10.7 0 .5-.3.6-.9.1-1.5-1.2-3-2.2-4.6-3.1l-15.3 19.5c4.4 4.9 10.8 7.4 18.9 5 .4-.1.9.1 1 .4v.2c-.6 15.4-1 30.9-1.2 46.3 0 .9-.4 1-1.1.5-7.9-5.6-16.6-7.6-26.2-6-.5.1-.9.6-.9 1.3.2 15.2 9.5 32.5 27 25.9.4-.2.9 0 1.1.4 0 .1.1.2.1.3 0 15.6.2 31.2.5 46.8 0 .9-.3 1.1-.9.7-8-5.7-17-7.6-26.8-5.5-.6.1-1 .7-.9 1.4.4 7.9 3.4 16.3 8.6 21.5h46c5.7-5.7 8.7-15.7 8.9-22.9 0-.5-.4-1-.9-1.1z" class="st7"/><path d="M475.5 487.9c-9.5-1.6-18.1.3-25.9 5.9-.8.6-1.2.3-1.2-.7-.5-15.3-.8-30.6-.9-45.9 0-.4.3-.8.6-.8h.2c18.1 6.2 27.1-9.6 28.1-24.8 0-.6-.2-1.1-.6-1.2-9.7-2.1-18.7-.5-26.7 4.9-1.1.7-1.6.4-1.6-1 .9-15.6 1.2-31.2.9-46.9 0-.7.3-.9.8-.5 16.9 9.8 28.6-8.5 29.4-23 0-.6-.4-1.2-1.1-1.3-9.8-2.3-18.8-.7-26.9 4.9-.7.5-1 .1-1-1 .3-6.7.7-13.3 1.1-20l-7 9c-.2 3.6-.4 7.2-.6 10.7 0 .5-.3.6-.9.1-1.5-1.2-3-2.2-4.6-3.1l-15.3 19.5c4.4 4.9 10.8 7.4 18.9 5 .4-.1.9.1 1 .4v.2c-.6 15.4-1 30.9-1.2 46.3 0 .9-.4 1-1.1.5-7.9-5.6-16.6-7.6-26.2-6-.5.1-.9.6-.9 1.3.2 15.2 9.5 32.5 27 25.9.4-.2.9 0 1.1.4 0 .1.1.2.1.3 0 15.6.2 31.2.5 46.8 0 .9-.3 1.1-.9.7-8-5.7-17-7.6-26.8-5.5-.6.1-1 .7-.9 1.4.4 7.9 3.4 16.3 8.6 21.5h46c5.7-5.7 8.7-15.7 8.9-22.9 0-.5-.4-1-.9-1.1z" class="st6"/><path d="m185.6 508.8 4 3.2h.1l-4.1-3.2c.1 0 .1 0 0 0z" class="st7"/><path d="m185.6 508.8 4 3.2h.1l-4.1-3.2c.1 0 .1 0 0 0z" class="st6"/><path d="M452.5 309.5c0-.3.4-.5.9-.4.1 0 .2 0 .2.1h.1l2-2.5 5.7 4.5c12.5.6 20-12.3 21.6-24.7.1-.6-.3-1.1-.8-1.3-9.3-2.7-18.2-1.7-26.6 3-.8.4-1.1.3-1.1-.4.9-11.4 1.9-22.9 3-34.3.1-.6.5-1.2 1.1-1.5 15.7-8.5 10.7-26.5.8-37-.4-.4-1-.5-1.5-.2-12 7.8-20.8 24.8-7.5 36.4.5.4.7 1 .7 1.6-1.3 11.5-2.5 22.9-3.5 34.4-.1.9-.5 1-1.1.4-7.4-6.3-16-9-25.8-7.9-.6.1-1 .5-1.1 1.1-1 14.9 7.6 33.7 24.8 27.6.6-.2 1.3.1 1.5.6.1.1.1.3.1.5-.3 3.5-.5 7-.8 10.5l7.2-9.1c0-.5.1-.9.1-1.4z" class="st7"/><path d="M452.5 309.5c0-.3.4-.5.9-.4.1 0 .2 0 .2.1h.1l2-2.5 5.7 4.5c12.5.6 20-12.3 21.6-24.7.1-.6-.3-1.1-.8-1.3-9.3-2.7-18.2-1.7-26.6 3-.8.4-1.1.3-1.1-.4.9-11.4 1.9-22.9 3-34.3.1-.6.5-1.2 1.1-1.5 15.7-8.5 10.7-26.5.8-37-.4-.4-1-.5-1.5-.2-12 7.8-20.8 24.8-7.5 36.4.5.4.7 1 .7 1.6-1.3 11.5-2.5 22.9-3.5 34.4-.1.9-.5 1-1.1.4-7.4-6.3-16-9-25.8-7.9-.6.1-1 .5-1.1 1.1-1 14.9 7.6 33.7 24.8 27.6.6-.2 1.3.1 1.5.6.1.1.1.3.1.5-.3 3.5-.5 7-.8 10.5l7.2-9.1c0-.5.1-.9.1-1.4z" class="st6"/><path d="M42.8 424.3c-2.2 0-4.5.3-6.8.8-.5.1-.9.6-.9 1.2.3 6.6 2.4 13.7 6.3 18.9l5.6-17.6-4.2-3.3z" class="st7"/><path d="M42.8 424.3c-2.2 0-4.5.3-6.8.8-.5.1-.9.6-.9 1.2.3 6.6 2.4 13.7 6.3 18.9l5.6-17.6-4.2-3.3z" class="st6"/><path d="M416.3 349.2c-.4.1-.8.5-.8 1-.2 2.5-.1 5 .3 7.4l6.8-8.7c-2.1 0-4.2 0-6.3.3z" class="st7"/><path d="M416.3 349.2c-.4.1-.8.5-.8 1-.2 2.5-.1 5 .3 7.4l6.8-8.7c-2.1 0-4.2 0-6.3.3z" class="st6"/><path d="m167.9 494.9-7-5.6v.1l7 5.5z" class="st7"/><path d="m167.9 494.9-7-5.6v.1l7 5.5z" class="st6"/><path d="m65.1 359 2.6 2.1v-.2c-.9-15.8-2-31.5-3.3-47.2 0-.3.3-.6.8-.6h.3c18.2 5 26-12.6 25-28 0-.6-.5-1.1-1-1.2-9.7-.9-18.2 1.8-25.5 8-.7.6-1.1.5-1.1-.2-1.2-11.5-2.5-23-4-34.5-.1-.6.2-1.3.7-1.8 13.5-11.9 4.2-28.9-8.3-36.3-.5-.3-1.1-.2-1.5.2-9.4 10.8-14 28.9 1.6 37.1.6.3.9.8 1 1.5 1.3 11.5 2.4 22.9 3.5 34.4.1.9-.3 1.1-1 .6-8.4-4.8-17.4-5.7-26.9-2.9-.5.2-.9.7-.8 1.2 1.8 14.3 13.1 31 29.1 22.5.6-.3 1.3-.1 1.6.4.1.1.1.3.1.5 1.3 15.6 2.4 31.1 3.2 46.7 0 .5-.3.6-.9.2-8.2-5.1-17-6.4-26.5-4.2-.4.1-.7.5-.7 1.1.5 11.4 6.6 23 16.7 25.5l-2.6-2.1L65.1 359z" class="st7"/><path d="m65.1 359 2.6 2.1v-.2c-.9-15.8-2-31.5-3.3-47.2 0-.3.3-.6.8-.6h.3c18.2 5 26-12.6 25-28 0-.6-.5-1.1-1-1.2-9.7-.9-18.2 1.8-25.5 8-.7.6-1.1.5-1.1-.2-1.2-11.5-2.5-23-4-34.5-.1-.6.2-1.3.7-1.8 13.5-11.9 4.2-28.9-8.3-36.3-.5-.3-1.1-.2-1.5.2-9.4 10.8-14 28.9 1.6 37.1.6.3.9.8 1 1.5 1.3 11.5 2.4 22.9 3.5 34.4.1.9-.3 1.1-1 .6-8.4-4.8-17.4-5.7-26.9-2.9-.5.2-.9.7-.8 1.2 1.8 14.3 13.1 31 29.1 22.5.6-.3 1.3-.1 1.6.4.1.1.1.3.1.5 1.3 15.6 2.4 31.1 3.2 46.7 0 .5-.3.6-.9.2-8.2-5.1-17-6.4-26.5-4.2-.4.1-.7.5-.7 1.1.5 11.4 6.6 23 16.7 25.5l-2.6-2.1L65.1 359z" class="st6"/><path d="m89.1 377.8-6.9-5.4 13.4-17.1-2-1.5c-9.4-.8-17.8 1.9-24.8 8l-.1.1 20.4 15.9z" class="st7"/><path d="m89.1 377.8-6.9-5.4 13.4-17.1-2-1.5c-9.4-.8-17.8 1.9-24.8 8l-.1.1 20.4 15.9z" class="st6"/><path d="M165.8 371.4c.6-13.5.7-26.9.4-40.5 0-.7.3-.9.8-.5 16.9 9.7 28.6-8.6 29.3-23.1 0-.6-.4-1.1-1.1-1.3-9.9-2.2-18.8-.6-26.9 5.1-.7.5-1 .1-1-1 .7-15.6 1.5-31.2 2.5-46.9 0-.3.4-.5.9-.4.1 0 .2 0 .2.1 17.3 7.4 27.5-8.3 29.1-23 .1-.6-.3-1.1-.8-1.3-9.4-2.6-18.2-1.5-26.5 3.3-.8.4-1.1.3-1.1-.4.8-11.4 1.6-22.8 2.6-34.3 0-.6.4-1.2 1.1-1.6 15.6-8.7 10.4-26.6.2-36.9-.4-.4-1-.5-1.5-.1-11.9 8-20.5 25-6.9 36.4.5.4.7 1 .7 1.6-1.1 11.4-2.2 22.9-3.1 34.3-.1.9-.5 1-1.1.4-7.5-6.2-16.1-8.8-25.9-7.6-.6.1-1 .5-1 1.1-.8 14.9 7.9 33.5 25.1 27.3.6-.2 1.3.1 1.5.6.1.1.1.3.1.5-1 15.5-1.9 31.1-2.6 46.6 0 .5-.3.6-.9.1-7.6-5.8-16.3-8.2-26-7-.4.1-.8.5-.8 1-.9 15.7 8.6 32.4 25.9 27.3.4-.1.9 0 1 .4v.2c-.5 15.4-.9 30.8-1.1 46.2 0 .9-.4 1-1.1.5-5.4-3.8-11.2-6-17.4-6.4l15.4 12.1 10-12.8z" class="st7"/><path d="M165.8 371.4c.6-13.5.7-26.9.4-40.5 0-.7.3-.9.8-.5 16.9 9.7 28.6-8.6 29.3-23.1 0-.6-.4-1.1-1.1-1.3-9.9-2.2-18.8-.6-26.9 5.1-.7.5-1 .1-1-1 .7-15.6 1.5-31.2 2.5-46.9 0-.3.4-.5.9-.4.1 0 .2 0 .2.1 17.3 7.4 27.5-8.3 29.1-23 .1-.6-.3-1.1-.8-1.3-9.4-2.6-18.2-1.5-26.5 3.3-.8.4-1.1.3-1.1-.4.8-11.4 1.6-22.8 2.6-34.3 0-.6.4-1.2 1.1-1.6 15.6-8.7 10.4-26.6.2-36.9-.4-.4-1-.5-1.5-.1-11.9 8-20.5 25-6.9 36.4.5.4.7 1 .7 1.6-1.1 11.4-2.2 22.9-3.1 34.3-.1.9-.5 1-1.1.4-7.5-6.2-16.1-8.8-25.9-7.6-.6.1-1 .5-1 1.1-.8 14.9 7.9 33.5 25.1 27.3.6-.2 1.3.1 1.5.6.1.1.1.3.1.5-1 15.5-1.9 31.1-2.6 46.6 0 .5-.3.6-.9.1-7.6-5.8-16.3-8.2-26-7-.4.1-.8.5-.8 1-.9 15.7 8.6 32.4 25.9 27.3.4-.1.9 0 1 .4v.2c-.5 15.4-.9 30.8-1.1 46.2 0 .9-.4 1-1.1.5-5.4-3.8-11.2-6-17.4-6.4l15.4 12.1 10-12.8z" class="st6"/><path d="m178.6 402.1 1.7-2.2L192 385l.9-1.1 85.3-108.7 15.4-19.6 16.9-21.5 6.6-8.5c1.2-1.5 2.1-3.2 2.6-5.1.5-1.8.7-3.7.4-5.6-.2-1.9-.8-3.8-1.7-5.4-1-1.7-2.2-3.1-3.7-4.3-1.5-1.2-3.2-2-5-2.6-1.8-.5-3.7-.7-5.6-.4-1.9.2-3.8.8-5.4 1.7-1.7 1-3.1 2.2-4.3 3.7l-8.9 11.4L166 371.1l-.2.3-10 12.8 22.8 17.9z" class="st8"/><path d="m178.6 402.1 1.7-2.2L192 385l.9-1.1 85.3-108.7 15.4-19.6 16.9-21.5 6.6-8.5c1.2-1.5 2.1-3.2 2.6-5.1.5-1.8.7-3.7.4-5.6-.2-1.9-.8-3.8-1.7-5.4-1-1.7-2.2-3.1-3.7-4.3-1.5-1.2-3.2-2-5-2.6-1.8-.5-3.7-.7-5.6-.4-1.9.2-3.8.8-5.4 1.7-1.7 1-3.1 2.2-4.3 3.7l-8.9 11.4L166 371.1l-.2.3-10 12.8 22.8 17.9z" class="st6"/><path d="m146.9 395.6-3.1 3.9-10.3 13.2 22.8 17.9 2.8-3.6 6.7-8.5 3.9-5z" class="st8"/><path d="m146.9 395.6-3.1 3.9-10.3 13.2 22.8 17.9 2.8-3.6 6.7-8.5 3.9-5z" class="st6"/><path d="m334.3 496.6 26.8-34.1-5.7-4.5 66.9-85.2 15.3-19.6 6.1-7.7 7-9 16.4-20.9-5.7-4.4-5.7-4.5-2 2.5-1.3 1.7-7.2 9.1-22.6 28.9-6.8 8.7-71.8 91.5-5.7-4.5-9.4 11.9-17.4 22.2z" class="st8"/><path d="m334.3 496.6 26.8-34.1-5.7-4.5 66.9-85.2 15.3-19.6 6.1-7.7 7-9 16.4-20.9-5.7-4.4-5.7-4.5-2 2.5-1.3 1.7-7.2 9.1-22.6 28.9-6.8 8.7-71.8 91.5-5.7-4.5-9.4 11.9-17.4 22.2z" class="st6"/><path d="m181.3 468.4-8-24.5-.2-.2-6.9-5.4-7-5.5-2.9-2.2-22.8-17.9-44.4-34.9-20.4-15.9-1-.8-2.6-2.1-17.9 22.8 2.6 2.1 8.8 6.8L85.8 412l45.4 35.7 18.6 14.5 2.5 7.8 5.6 17 3 2.3 7 5.6 17.8 13.9 4.1 3.2h46.8l-55.2-43.3z" class="st9"/><path d="m181.3 468.4-8-24.5-.2-.2-6.9-5.4-7-5.5-2.9-2.2-22.8-17.9-44.4-34.9-20.4-15.9-1-.8-2.6-2.1-17.9 22.8 2.6 2.1 8.8 6.8L85.8 412l45.4 35.7 18.6 14.5 2.5 7.8 5.6 17 3 2.3 7 5.6 17.8 13.9 4.1 3.2h46.8l-55.2-43.3z" class="st6"/><path d="m167.9 494.9-7-5.5-3.1-2.4-5.6-17-2.5-7.8-18.5-14.5L85.8 412l-27.2-21.3-7 22.1L96.5 448l-8.9 11.4-40.7-31.8-5.6 17.6-1.4 4.5c2.2-2.9 4.5-5.7 4.5-5.7l22.8 17.9-8.9 11.4-20.7-16.2-4.7 14.7L77.8 507l-3.9 5h28c.6-1 1.2-2 1.9-3 7.4-9.5 21-11.1 30.5-3.7 2.4 1.9 4.3 4.2 5.7 6.7h49.7l-4-3.2-17.8-13.9z" class="st10"/><path d="m167.9 494.9-7-5.5-3.1-2.4-5.6-17-2.5-7.8-18.5-14.5L85.8 412l-27.2-21.3-7 22.1L96.5 448l-8.9 11.4-40.7-31.8-5.6 17.6-1.4 4.5c2.2-2.9 4.5-5.7 4.5-5.7l22.8 17.9-8.9 11.4-20.7-16.2-4.7 14.7L77.8 507l-3.9 5h28c.6-1 1.2-2 1.9-3 7.4-9.5 21-11.1 30.5-3.7 2.4 1.9 4.3 4.2 5.7 6.7h49.7l-4-3.2-17.8-13.9z" class="st6"/><path d="m28.3 486.6-7 22 4.3 3.4h35.1z" class="st10"/><path d="m28.3 486.6-7 22 4.3 3.4h35.1z" class="st6"/><path d="m87.6 459.4 8.9-11.4-44.9-35.2-.7-.5-8.9 11.4.8.6 4.1 3.3z" class="st11"/><path d="m87.6 459.4 8.9-11.4-44.9-35.2-.7-.5-8.9 11.4.8.6 4.1 3.3z" class="st6"/><path d="M67.2 461.9 44.4 444s-2.2 2.9-4.5 5.7c-2.2 2.8-4.4 5.7-4.4 5.7l2.1 1.7 20.7 16.2 8.9-11.4z" class="st11"/><path d="M67.2 461.9 44.4 444s-2.2 2.9-4.5 5.7c-2.2 2.8-4.4 5.7-4.4 5.7l2.1 1.7 20.7 16.2 8.9-11.4z" class="st6"/><path d="m32.9 471.8-.7-.6-8.9 11.5 5 3.9L60.7 512h13.2l3.9-5z" class="st11"/><path d="m32.9 471.8-.7-.6-8.9 11.5 5 3.9L60.7 512h13.2l3.9-5z" class="st6"/><path d="M134.3 505.3c-9.5-7.4-23.1-5.8-30.5 3.7-.7 1-1.4 2-1.9 3H140c-1.4-2.5-3.3-4.8-5.7-6.7z" class="st8"/><path d="M134.3 505.3c-9.5-7.4-23.1-5.8-30.5 3.7-.7 1-1.4 2-1.9 3H140c-1.4-2.5-3.3-4.8-5.7-6.7z" class="st6"/><path d="m259.5 474.7-26.8 34.2 3.9 3.1H307z" class="st10"/><path d="m259.5 474.7-26.8 34.2 3.9 3.1H307z" class="st6"/><path d="m311.5 478.7-27.1-21.2L266 443l-17.9 22.8 11.4 8.9L307 512h46.9l-19.6-15.4z" class="st9"/><path d="m311.5 478.7-27.1-21.2L266 443l-17.9 22.8 11.4 8.9L307 512h46.9l-19.6-15.4z" class="st6"/><path d="m82.2 372.4 6.9 5.4 4.5 3.5 13.4-17.1 11.4 8.9-13.4 17.2 11.4 8.9 13.4-17.1 2.4 1.9 14.7 11.6 22.8 17.9 17 13.3 8.9-11.4-17-13.3-22.8-17.9-15.4-12.1L93.1 335l-8.9 11.4 9.4 7.4 2 1.5z" style="fill:#5a6470"/><path d="m82.2 372.4 6.9 5.4 4.5 3.5 13.4-17.1 11.4 8.9-13.4 17.2 11.4 8.9 13.4-17.1 2.4 1.9 14.7 11.6 22.8 17.9 17 13.3 8.9-11.4-17-13.3-22.8-17.9-15.4-12.1L93.1 335l-8.9 11.4 9.4 7.4 2 1.5z" class="st6"/><path d="M211.3 462.4c-.2-.1-.5 0-.6.3-1.5 3.2-1.3 6.2.6 9 .4.5 1.2 1.1 1.5.1 0-.1 0-.2-.1-.3-2.3-2.4-2.2-5.3-1.1-8.2.2-.4.1-.8-.3-.9z" class="st5"/><path d="M211.3 462.4c-.2-.1-.5 0-.6.3-1.5 3.2-1.3 6.2.6 9 .4.5 1.2 1.1 1.5.1 0-.1 0-.2-.1-.3-2.3-2.4-2.2-5.3-1.1-8.2.2-.4.1-.8-.3-.9z" class="st6"/><path d="M213.3 459.3c-.6 0-1.2.5-1.2 1.2 0 .6.5 1.2 1.2 1.2.7-.1 1.2-.6 1.2-1.2s-.5-1.2-1.2-1.2z" class="st5"/><path d="M213.3 459.3c-.6 0-1.2.5-1.2 1.2 0 .6.5 1.2 1.2 1.2.7-.1 1.2-.6 1.2-1.2s-.5-1.2-1.2-1.2z" class="st6"/><path d="M218.9 454.7c-6.6 0-11.9 5.3-11.9 11.9 0 6.6 5.3 11.9 11.9 11.9 6.6 0 11.9-5.3 11.9-11.9 0-6.6-5.3-11.9-11.9-11.9zm-6.2 16.8c.1.1.1.2.1.3-.3 1-1.1.4-1.5-.1-1.9-2.8-2.1-5.8-.6-9 .1-.3.4-.4.6-.3.4.1.5.5.3.9-1.1 2.9-1.2 5.8 1.1 8.2zm.6-9.8c-.7 0-1.2-.6-1.2-1.2 0-.7.6-1.2 1.2-1.2.7 0 1.2.6 1.2 1.2s-.5 1.1-1.2 1.2z" class="st13"/><path d="M218.9 454.7c-6.6 0-11.9 5.3-11.9 11.9 0 6.6 5.3 11.9 11.9 11.9 6.6 0 11.9-5.3 11.9-11.9 0-6.6-5.3-11.9-11.9-11.9zm-6.2 16.8c.1.1.1.2.1.3-.3 1-1.1.4-1.5-.1-1.9-2.8-2.1-5.8-.6-9 .1-.3.4-.4.6-.3.4.1.5.5.3.9-1.1 2.9-1.2 5.8 1.1 8.2zm.6-9.8c-.7 0-1.2-.6-1.2-1.2 0-.7.6-1.2 1.2-1.2.7 0 1.2.6 1.2 1.2s-.5 1.1-1.2 1.2z" class="st6"/><path d="M235.6 420.6c-.6 0-1.2.5-1.2 1.2 0 .6.5 1.2 1.2 1.2.7-.1 1.2-.6 1.2-1.2s-.5-1.2-1.2-1.2z" class="st5"/><path d="M235.6 420.6c-.6 0-1.2.5-1.2 1.2 0 .6.5 1.2 1.2 1.2.7-.1 1.2-.6 1.2-1.2s-.5-1.2-1.2-1.2z" class="st6"/><path d="M233.7 423.7c-.2-.1-.5 0-.6.3-1.5 3.2-1.3 6.2.6 9 .4.5 1.2 1.1 1.5.1 0-.1 0-.2-.1-.3-2.3-2.4-2.2-5.3-1.1-8.2.1-.4.1-.7-.3-.9z" class="st5"/><path d="M233.7 423.7c-.2-.1-.5 0-.6.3-1.5 3.2-1.3 6.2.6 9 .4.5 1.2 1.1 1.5.1 0-.1 0-.2-.1-.3-2.3-2.4-2.2-5.3-1.1-8.2.1-.4.1-.7-.3-.9z" class="st6"/><path d="M241.2 416c-6.6 0-11.9 5.3-11.9 11.9 0 6.6 5.3 11.9 11.9 11.9s11.9-5.3 11.9-11.9c0-6.6-5.3-11.9-11.9-11.9zm-6.1 16.8c.1.1.1.2.1.3-.3 1-1.1.4-1.5-.1-1.9-2.8-2.1-5.8-.6-9 .1-.3.4-.4.6-.3.4.2.4.5.3.9-1.1 2.9-1.2 5.8 1.1 8.2zm.5-9.8c-.7 0-1.2-.6-1.2-1.2 0-.7.6-1.2 1.2-1.2.7 0 1.2.6 1.2 1.2s-.5 1.1-1.2 1.2z" class="st13"/><path d="M241.2 416c-6.6 0-11.9 5.3-11.9 11.9 0 6.6 5.3 11.9 11.9 11.9s11.9-5.3 11.9-11.9c0-6.6-5.3-11.9-11.9-11.9zm-6.1 16.8c.1.1.1.2.1.3-.3 1-1.1.4-1.5-.1-1.9-2.8-2.1-5.8-.6-9 .1-.3.4-.4.6-.3.4.2.4.5.3.9-1.1 2.9-1.2 5.8 1.1 8.2zm.5-9.8c-.7 0-1.2-.6-1.2-1.2 0-.7.6-1.2 1.2-1.2.7 0 1.2.6 1.2 1.2s-.5 1.1-1.2 1.2z" class="st6"/><path d="M217.4 384.1c-.6 0-1.2.5-1.2 1.2 0 .6.5 1.2 1.2 1.2s1.2-.5 1.2-1.2c0-.6-.5-1.2-1.2-1.2z" class="st5"/><path d="M217.4 384.1c-.6 0-1.2.5-1.2 1.2 0 .6.5 1.2 1.2 1.2s1.2-.5 1.2-1.2c0-.6-.5-1.2-1.2-1.2z" class="st6"/><path d="M215.5 396.6c.4.5 1.2 1.1 1.5.1 0-.1 0-.2-.1-.3-2.3-2.4-2.2-5.3-1.1-8.2.1-.4.1-.8-.3-.9-.2-.1-.5 0-.6.3-1.5 3.2-1.3 6.2.6 9z" class="st5"/><path d="M215.5 396.6c.4.5 1.2 1.1 1.5.1 0-.1 0-.2-.1-.3-2.3-2.4-2.2-5.3-1.1-8.2.1-.4.1-.8-.3-.9-.2-.1-.5 0-.6.3-1.5 3.2-1.3 6.2.6 9z" class="st6"/><path d="M223 403.3c6.6 0 11.9-5.3 11.9-11.9 0-6.5-5.3-11.9-11.9-11.9s-11.9 5.3-11.9 11.9c0 6.6 5.3 11.9 11.9 11.9zm-5.6-16.8c-.7 0-1.2-.6-1.2-1.2 0-.7.6-1.2 1.2-1.2.7 0 1.2.6 1.2 1.2 0 .7-.5 1.2-1.2 1.2zm-1.9.8c.4.1.4.5.3.9-1.1 2.9-1.2 5.8 1.1 8.2.1.1.1.2.1.3-.3 1-1.1.4-1.5-.1-1.9-2.8-2.1-5.8-.6-9 .1-.3.4-.4.6-.3z" class="st13"/><path d="M223 403.3c6.6 0 11.9-5.3 11.9-11.9 0-6.5-5.3-11.9-11.9-11.9s-11.9 5.3-11.9 11.9c0 6.6 5.3 11.9 11.9 11.9zm-5.6-16.8c-.7 0-1.2-.6-1.2-1.2 0-.7.6-1.2 1.2-1.2.7 0 1.2.6 1.2 1.2 0 .7-.5 1.2-1.2 1.2zm-1.9.8c.4.1.4.5.3.9-1.1 2.9-1.2 5.8 1.1 8.2.1.1.1.2.1.3-.3 1-1.1.4-1.5-.1-1.9-2.8-2.1-5.8-.6-9 .1-.3.4-.4.6-.3z" class="st6"/><path d="M243 346.5c-.6 0-1.2.5-1.2 1.2 0 .6.5 1.2 1.2 1.2.7-.1 1.2-.6 1.2-1.2s-.5-1.2-1.2-1.2z" class="st5"/><path d="M243 346.5c-.6 0-1.2.5-1.2 1.2 0 .6.5 1.2 1.2 1.2.7-.1 1.2-.6 1.2-1.2s-.5-1.2-1.2-1.2z" class="st6"/><path d="M241 358.9c.4.5 1.2 1.1 1.5.1 0-.1 0-.2-.1-.3-2.3-2.4-2.2-5.3-1.1-8.2.2-.4.1-.7-.3-.9-.2-.1-.5 0-.6.3-1.5 3.2-1.3 6.2.6 9z" class="st5"/><path d="M241 358.9c.4.5 1.2 1.1 1.5.1 0-.1 0-.2-.1-.3-2.3-2.4-2.2-5.3-1.1-8.2.2-.4.1-.7-.3-.9-.2-.1-.5 0-.6.3-1.5 3.2-1.3 6.2.6 9z" class="st6"/><path d="M248.5 365.7c6.6 0 11.9-5.3 11.9-11.9 0-6.6-5.3-11.9-11.9-11.9s-11.9 5.3-11.9 11.9c0 6.6 5.3 11.9 11.9 11.9zm-5.5-16.8c-.7 0-1.2-.6-1.2-1.2 0-.7.6-1.2 1.2-1.2.7 0 1.2.6 1.2 1.2s-.5 1.1-1.2 1.2zm-2 .7c.4.2.5.5.3.9-1.1 2.9-1.2 5.8 1.1 8.2.1.1.1.2.1.3-.3 1-1.1.4-1.5-.1-1.9-2.8-2.1-5.8-.6-9 .1-.3.4-.4.6-.3z" class="st13"/><path d="M248.5 365.7c6.6 0 11.9-5.3 11.9-11.9 0-6.6-5.3-11.9-11.9-11.9s-11.9 5.3-11.9 11.9c0 6.6 5.3 11.9 11.9 11.9zm-5.5-16.8c-.7 0-1.2-.6-1.2-1.2 0-.7.6-1.2 1.2-1.2.7 0 1.2.6 1.2 1.2s-.5 1.1-1.2 1.2zm-2 .7c.4.2.5.5.3.9-1.1 2.9-1.2 5.8 1.1 8.2.1.1.1.2.1.3-.3 1-1.1.4-1.5-.1-1.9-2.8-2.1-5.8-.6-9 .1-.3.4-.4.6-.3z" class="st6"/><path d="M.9 95.1H512v.6H.9z" class="st4"/><path d="M.9 95.1H512v.6H.9z" class="st6"/><path d="M512 95.7H.9V512h24.7l-4.3-3.4 7-22-5-3.9 8.9-11.5.7.6 4.7-14.7-2.1-1.7s2.2-2.8 4.4-5.7l1.4-4.5c-3.8-5.2-5.9-12.3-6.3-18.9 0-.6.4-1.1.9-1.2 2.3-.5 4.6-.7 6.8-.8l-.8-.6 8.9-11.4.7.5 7-22.1-8.8-6.9c-10.1-2.5-16.2-14.1-16.7-25.5 0-.6.3-1 .7-1.1 9.5-2.2 18.3-.9 26.5 4.2.6.4.9.3.9-.2-.8-15.6-1.9-31.1-3.2-46.7 0-.2 0-.4-.1-.5-.3-.5-1-.7-1.6-.4-16 8.5-27.3-8.2-29.1-22.5-.1-.5.3-1 .8-1.2 9.5-2.8 18.5-1.9 26.9 2.9.7.5 1.1.3 1-.6-1.1-11.5-2.2-22.9-3.5-34.4-.1-.7-.4-1.2-1-1.5-15.6-8.2-11-26.3-1.6-37.1.4-.4 1-.5 1.5-.2 12.5 7.4 21.8 24.4 8.3 36.3-.5.5-.8 1.2-.7 1.8 1.5 11.5 2.8 23 4 34.5 0 .7.4.8 1.1.2 7.3-6.2 15.8-8.9 25.5-8 .5.1 1 .6 1 1.2 1 15.4-6.8 33-25 28h-.3c-.5 0-.8.3-.8.6 1.3 15.7 2.4 31.4 3.3 47.2v.2l1 .8.1-.1c7.1-6.1 15.4-8.8 24.8-8l-9.4-7.4 8.9-11.4 47.3 37.1c6.2.4 12 2.6 17.4 6.4.7.5 1.1.4 1.1-.5.2-15.4.6-30.8 1.1-46.2v-.2c-.1-.4-.6-.5-1-.4-17.3 5.1-26.8-11.6-25.9-27.3 0-.5.4-.9.8-1 9.7-1.2 18.4 1.2 26 7 .6.5.9.4.9-.1.7-15.5 1.6-31.1 2.6-46.6 0-.2 0-.4-.1-.5-.2-.5-.9-.8-1.5-.6-17.2 6.2-25.9-12.4-25.1-27.3 0-.6.4-1 1-1.1 9.8-1.2 18.4 1.4 25.9 7.6.6.6 1 .5 1.1-.4.9-11.4 2-22.9 3.1-34.3 0-.6-.2-1.2-.7-1.6-13.6-11.4-5-28.4 6.9-36.4.5-.4 1.1-.3 1.5.1 10.2 10.3 15.4 28.2-.2 36.9-.7.4-1.1 1-1.1 1.6-1 11.5-1.8 22.9-2.6 34.3 0 .7.3.8 1.1.4 8.3-4.8 17.1-5.9 26.5-3.3.5.2.9.7.8 1.3-1.6 14.7-11.8 30.4-29.1 23 0-.1-.1-.1-.2-.1-.5-.1-.9.1-.9.4-1 15.7-1.8 31.3-2.5 46.9 0 1.1.3 1.5 1 1 8.1-5.7 17-7.3 26.9-5.1.7.2 1.1.7 1.1 1.3-.7 14.5-12.4 32.8-29.3 23.1-.5-.4-.8-.2-.8.5.3 13.6.2 27-.4 40.5l.2-.3 119.5-152 8.9-11.4c1.2-1.5 2.6-2.7 4.3-3.7 1.6-.9 3.5-1.5 5.4-1.7 1.9-.3 3.8-.1 5.6.4 1.8.6 3.5 1.4 5 2.6 1.5 1.2 2.7 2.6 3.7 4.3.9 1.6 1.5 3.5 1.7 5.4.3 1.9.1 3.8-.4 5.6-.5 1.9-1.4 3.6-2.6 5.1l-6.6 8.5-16.9 21.5c9.3 8.3 14.2 21.7 3.3 31.9-.6.5-.8 1.2-.7 1.8 1.8 11.5 3.4 23.1 4.9 34.6 0 .7.4.8 1.1.2 7.2-6.4 15.6-9.3 25.3-8.6.6 0 1 .5 1.1 1.1 1.4 15.6-6.1 33.4-24.4 28.7h-.3c-.5 0-.8.3-.8.6 1.6 15.8 2.9 31.7 4 47.5.1 1.2.5 1.5 1.1.9 7.4-6.6 16-9.4 26.1-8.3.6 0 1.2.6 1.2 1.2 1.1 15.4-9 35.3-26.7 26.8-.6-.3-.9-.1-.8.6 1.8 15.7 2.4 31.6 2 47.4 0 1.5.5 1.8 1.6 1 5.4-3.9 11.2-6 17.4-6.5l9.4-11.9 5.7 4.5 71.7-91.5c-.3-2.4-.4-5-.3-7.4 0-.5.4-.9.8-1 2.1-.3 4.2-.3 6.3-.3l22.7-28.9c.2-3.5.5-7 .8-10.5 0-.2 0-.4-.1-.5-.2-.5-.9-.8-1.5-.6-17.2 6.1-25.8-12.7-24.8-27.6.1-.6.5-1 1.1-1.1 9.8-1.1 18.4 1.6 25.8 7.9.6.6 1 .5 1.1-.4 1-11.5 2.2-22.9 3.5-34.4 0-.6-.2-1.2-.7-1.6-13.3-11.6-4.5-28.6 7.5-36.4.5-.3 1.1-.2 1.5.2 9.9 10.5 14.9 28.5-.8 37-.6.3-1 .9-1.1 1.5-1.1 11.4-2.1 22.9-3 34.3 0 .7.3.8 1.1.4 8.4-4.7 17.3-5.7 26.6-3 .5.2.9.7.8 1.3-1.6 12.3-9.1 25.3-21.6 24.7l5.7 4.4-16.4 20.9c-.4 6.7-.8 13.3-1.1 20 0 1.1.3 1.5 1 1 8.1-5.6 17.1-7.2 26.9-4.9.7.1 1.1.7 1.1 1.3-.8 14.5-12.5 32.8-29.4 23-.5-.4-.8-.2-.8.5.3 15.7 0 31.3-.9 46.9 0 1.4.5 1.7 1.6 1 8-5.4 17-7 26.7-4.9.4.1.6.6.6 1.2-1 15.2-10 31-28.1 24.8h-.2c-.3 0-.6.4-.6.8.1 15.3.4 30.6.9 45.9 0 1 .4 1.3 1.2.7 7.8-5.6 16.4-7.5 25.9-5.9.5.1.9.6.9 1.2-.2 7.2-3.2 17.2-8.9 22.9H512V95.7zm-138.7 14.4h4.4c3.5 0 6.4 2.9 6.4 6.4-.1 3.5-2.9 6.4-6.4 6.4h-4.4c-3.5 0-6.4-2.9-6.4-6.4s2.9-6.4 6.4-6.4zm-52.8 22.8h30c3.5 0 6.4 2.9 6.4 6.4s-2.9 6.4-6.4 6.4h-30c-3.5 0-6.4-2.9-6.4-6.4s2.9-6.4 6.4-6.4zm-47.4-22.8h28.4c3.5 0 6.4 2.9 6.4 6.4-.1 3.5-2.9 6.4-6.4 6.4h-28.4c-3.5 0-6.4-2.9-6.4-6.4s2.9-6.4 6.4-6.4zm-134.4 22.8h30c3.5 0 6.4 2.9 6.4 6.4-.1 3.5-2.9 6.4-6.4 6.4h-30c-3.5 0-6.4-2.9-6.4-6.4s2.9-6.4 6.4-6.4z" class="st0"/><path d="M512 95.7H.9V512h24.7l-4.3-3.4 7-22-5-3.9 8.9-11.5.7.6 4.7-14.7-2.1-1.7s2.2-2.8 4.4-5.7l1.4-4.5c-3.8-5.2-5.9-12.3-6.3-18.9 0-.6.4-1.1.9-1.2 2.3-.5 4.6-.7 6.8-.8l-.8-.6 8.9-11.4.7.5 7-22.1-8.8-6.9c-10.1-2.5-16.2-14.1-16.7-25.5 0-.6.3-1 .7-1.1 9.5-2.2 18.3-.9 26.5 4.2.6.4.9.3.9-.2-.8-15.6-1.9-31.1-3.2-46.7 0-.2 0-.4-.1-.5-.3-.5-1-.7-1.6-.4-16 8.5-27.3-8.2-29.1-22.5-.1-.5.3-1 .8-1.2 9.5-2.8 18.5-1.9 26.9 2.9.7.5 1.1.3 1-.6-1.1-11.5-2.2-22.9-3.5-34.4-.1-.7-.4-1.2-1-1.5-15.6-8.2-11-26.3-1.6-37.1.4-.4 1-.5 1.5-.2 12.5 7.4 21.8 24.4 8.3 36.3-.5.5-.8 1.2-.7 1.8 1.5 11.5 2.8 23 4 34.5 0 .7.4.8 1.1.2 7.3-6.2 15.8-8.9 25.5-8 .5.1 1 .6 1 1.2 1 15.4-6.8 33-25 28h-.3c-.5 0-.8.3-.8.6 1.3 15.7 2.4 31.4 3.3 47.2v.2l1 .8.1-.1c7.1-6.1 15.4-8.8 24.8-8l-9.4-7.4 8.9-11.4 47.3 37.1c6.2.4 12 2.6 17.4 6.4.7.5 1.1.4 1.1-.5.2-15.4.6-30.8 1.1-46.2v-.2c-.1-.4-.6-.5-1-.4-17.3 5.1-26.8-11.6-25.9-27.3 0-.5.4-.9.8-1 9.7-1.2 18.4 1.2 26 7 .6.5.9.4.9-.1.7-15.5 1.6-31.1 2.6-46.6 0-.2 0-.4-.1-.5-.2-.5-.9-.8-1.5-.6-17.2 6.2-25.9-12.4-25.1-27.3 0-.6.4-1 1-1.1 9.8-1.2 18.4 1.4 25.9 7.6.6.6 1 .5 1.1-.4.9-11.4 2-22.9 3.1-34.3 0-.6-.2-1.2-.7-1.6-13.6-11.4-5-28.4 6.9-36.4.5-.4 1.1-.3 1.5.1 10.2 10.3 15.4 28.2-.2 36.9-.7.4-1.1 1-1.1 1.6-1 11.5-1.8 22.9-2.6 34.3 0 .7.3.8 1.1.4 8.3-4.8 17.1-5.9 26.5-3.3.5.2.9.7.8 1.3-1.6 14.7-11.8 30.4-29.1 23 0-.1-.1-.1-.2-.1-.5-.1-.9.1-.9.4-1 15.7-1.8 31.3-2.5 46.9 0 1.1.3 1.5 1 1 8.1-5.7 17-7.3 26.9-5.1.7.2 1.1.7 1.1 1.3-.7 14.5-12.4 32.8-29.3 23.1-.5-.4-.8-.2-.8.5.3 13.6.2 27-.4 40.5l.2-.3 119.5-152 8.9-11.4c1.2-1.5 2.6-2.7 4.3-3.7 1.6-.9 3.5-1.5 5.4-1.7 1.9-.3 3.8-.1 5.6.4 1.8.6 3.5 1.4 5 2.6 1.5 1.2 2.7 2.6 3.7 4.3.9 1.6 1.5 3.5 1.7 5.4.3 1.9.1 3.8-.4 5.6-.5 1.9-1.4 3.6-2.6 5.1l-6.6 8.5-16.9 21.5c9.3 8.3 14.2 21.7 3.3 31.9-.6.5-.8 1.2-.7 1.8 1.8 11.5 3.4 23.1 4.9 34.6 0 .7.4.8 1.1.2 7.2-6.4 15.6-9.3 25.3-8.6.6 0 1 .5 1.1 1.1 1.4 15.6-6.1 33.4-24.4 28.7h-.3c-.5 0-.8.3-.8.6 1.6 15.8 2.9 31.7 4 47.5.1 1.2.5 1.5 1.1.9 7.4-6.6 16-9.4 26.1-8.3.6 0 1.2.6 1.2 1.2 1.1 15.4-9 35.3-26.7 26.8-.6-.3-.9-.1-.8.6 1.8 15.7 2.4 31.6 2 47.4 0 1.5.5 1.8 1.6 1 5.4-3.9 11.2-6 17.4-6.5l9.4-11.9 5.7 4.5 71.7-91.5c-.3-2.4-.4-5-.3-7.4 0-.5.4-.9.8-1 2.1-.3 4.2-.3 6.3-.3l22.7-28.9c.2-3.5.5-7 .8-10.5 0-.2 0-.4-.1-.5-.2-.5-.9-.8-1.5-.6-17.2 6.1-25.8-12.7-24.8-27.6.1-.6.5-1 1.1-1.1 9.8-1.1 18.4 1.6 25.8 7.9.6.6 1 .5 1.1-.4 1-11.5 2.2-22.9 3.5-34.4 0-.6-.2-1.2-.7-1.6-13.3-11.6-4.5-28.6 7.5-36.4.5-.3 1.1-.2 1.5.2 9.9 10.5 14.9 28.5-.8 37-.6.3-1 .9-1.1 1.5-1.1 11.4-2.1 22.9-3 34.3 0 .7.3.8 1.1.4 8.4-4.7 17.3-5.7 26.6-3 .5.2.9.7.8 1.3-1.6 12.3-9.1 25.3-21.6 24.7l5.7 4.4-16.4 20.9c-.4 6.7-.8 13.3-1.1 20 0 1.1.3 1.5 1 1 8.1-5.6 17.1-7.2 26.9-4.9.7.1 1.1.7 1.1 1.3-.8 14.5-12.5 32.8-29.4 23-.5-.4-.8-.2-.8.5.3 15.7 0 31.3-.9 46.9 0 1.4.5 1.7 1.6 1 8-5.4 17-7 26.7-4.9.4.1.6.6.6 1.2-1 15.2-10 31-28.1 24.8h-.2c-.3 0-.6.4-.6.8.1 15.3.4 30.6.9 45.9 0 1 .4 1.3 1.2.7 7.8-5.6 16.4-7.5 25.9-5.9.5.1.9.6.9 1.2-.2 7.2-3.2 17.2-8.9 22.9H512V95.7zm-138.7 14.4h4.4c3.5 0 6.4 2.9 6.4 6.4-.1 3.5-2.9 6.4-6.4 6.4h-4.4c-3.5 0-6.4-2.9-6.4-6.4s2.9-6.4 6.4-6.4zm-52.8 22.8h30c3.5 0 6.4 2.9 6.4 6.4s-2.9 6.4-6.4 6.4h-30c-3.5 0-6.4-2.9-6.4-6.4s2.9-6.4 6.4-6.4zm-47.4-22.8h28.4c3.5 0 6.4 2.9 6.4 6.4-.1 3.5-2.9 6.4-6.4 6.4h-28.4c-3.5 0-6.4-2.9-6.4-6.4s2.9-6.4 6.4-6.4zm-134.4 22.8h30c3.5 0 6.4 2.9 6.4 6.4-.1 3.5-2.9 6.4-6.4 6.4h-30c-3.5 0-6.4-2.9-6.4-6.4s2.9-6.4 6.4-6.4z" class="st6"/><path d="M273.1 122.9h28.4c3.5 0 6.3-2.9 6.4-6.4 0-3.5-2.9-6.4-6.4-6.4h-28.4c-3.5 0-6.4 2.9-6.4 6.4s2.9 6.4 6.4 6.4z" class="st5"/><path d="M273.1 122.9h28.4c3.5 0 6.3-2.9 6.4-6.4 0-3.5-2.9-6.4-6.4-6.4h-28.4c-3.5 0-6.4 2.9-6.4 6.4s2.9 6.4 6.4 6.4z" class="st6"/><path d="M373.3 122.9h4.4c3.5 0 6.3-2.9 6.4-6.4 0-3.5-2.9-6.4-6.4-6.4h-4.4c-3.5 0-6.4 2.9-6.4 6.4s2.9 6.4 6.4 6.4z" class="st5"/><path d="M373.3 122.9h4.4c3.5 0 6.3-2.9 6.4-6.4 0-3.5-2.9-6.4-6.4-6.4h-4.4c-3.5 0-6.4 2.9-6.4 6.4s2.9 6.4 6.4 6.4z" class="st6"/><path d="M320.5 145.7h30c3.5 0 6.4-2.9 6.4-6.4s-2.9-6.4-6.4-6.4h-30c-3.5 0-6.4 2.9-6.4 6.4s2.9 6.4 6.4 6.4z" class="st5"/><path d="M320.5 145.7h30c3.5 0 6.4-2.9 6.4-6.4s-2.9-6.4-6.4-6.4h-30c-3.5 0-6.4 2.9-6.4 6.4s2.9 6.4 6.4 6.4z" class="st6"/><path d="M138.7 145.7h30c3.5 0 6.3-2.9 6.4-6.4 0-3.5-2.9-6.4-6.4-6.4h-30c-3.5 0-6.4 2.9-6.4 6.4s2.9 6.4 6.4 6.4z" class="st5"/><path d="M138.7 145.7h30c3.5 0 6.3-2.9 6.4-6.4 0-3.5-2.9-6.4-6.4-6.4h-30c-3.5 0-6.4 2.9-6.4 6.4s2.9 6.4 6.4 6.4z" class="st6"/></svg>