<?xml version="1.0" encoding="utf-8"?>
<!-- Generator: Adobe Illustrator 27.6.1, SVG Export Plug-In . SVG Version: 6.00 Build 0)  -->
<svg version="1.1" id="Capa_1" xmlns="http://www.w3.org/2000/svg" xmlns:xlink="http://www.w3.org/1999/xlink" x="0px" y="0px"
	 viewBox="0 0 512 512" style="enable-background:new 0 0 512 512;" xml:space="preserve">
<style type="text/css">
	.st0{fill:#87D0CE;}
	.st1{fill:#FFFFFF;}
	.st2{fill:#DFEBFF;}
	.st3{fill:#F68A21;}
	.st4{fill:#FBAA1D;}
	.st5{fill:#499421;}
	.st6{fill:#FFC222;}
	.st7{fill:#D08F17;}
	.st8{fill:#96C133;}
	.st9{fill:#F9B721;}
	.st10{fill:#EFA93E;}
	.st11{fill:#FFA850;}
	.st12{fill:#FECB69;}
</style>
<rect class="st0" width="512" height="512"/>
<g>
	<path class="st1" d="M387,108.9c0-0.1,0-0.3,0-0.4c0-24.1-19.6-43.7-43.7-43.7c-5.7,0-11.2,1.1-16.2,3.1
		c-9.7-17.4-28.2-29.1-49.5-29.1c-27.7,0-50.7,19.8-55.7,46c-1.5-0.2-3-0.3-4.6-0.3c-15,0-27.6,10.4-31,24.4L387,108.9L387,108.9z"
		/>
	<path class="st2" d="M344.3,108.9c0-0.1,0-0.1,0-0.2c0-13.9-11.3-25.1-25.1-25.1c-3.3,0-6.4,0.6-9.3,1.8
		c-5.6-10-16.2-16.7-28.5-16.7c-15.9,0-29.1,11.4-32,26.5c-0.9-0.1-1.7-0.2-2.6-0.2c-8.6,0-15.9,6-17.8,14L344.3,108.9L344.3,108.9z
		"/>
</g>
<g>
	<path class="st1" d="M485.6,221c0-0.1,0-0.2,0-0.3c0-18.5-15-33.4-33.4-33.4c-4.4,0-8.6,0.9-12.4,2.4
		c-7.4-13.3-21.6-22.3-37.9-22.3c-21.2,0-38.8,15.1-42.6,35.2c-1.1-0.2-2.3-0.3-3.5-0.3c-11.5,0-21.1,8-23.7,18.7L485.6,221
		L485.6,221z"/>
	<path class="st2" d="M452.9,221c0-0.1,0-0.1,0-0.2c0-10.6-8.6-19.2-19.2-19.2c-2.5,0-4.9,0.5-7.1,1.4c-4.3-7.6-12.4-12.8-21.8-12.8
		c-12.2,0-22.3,8.7-24.5,20.2c-0.7-0.1-1.3-0.1-2-0.1c-6.6,0-12.2,4.6-13.6,10.7L452.9,221L452.9,221z"/>
</g>
<g>
	<path class="st1" d="M138.6,69c0-0.1,0-0.1,0-0.2c0-12.9-10.5-23.4-23.4-23.4c-3.1,0-6,0.6-8.7,1.7c-5.2-9.3-15.1-15.6-26.6-15.6
		C65.1,31.4,52.7,42,50,56.1c-0.8-0.1-1.6-0.2-2.4-0.2c-8.1,0-14.8,5.6-16.6,13.1L138.6,69L138.6,69z"/>
	<path class="st2" d="M115.7,69c0,0,0-0.1,0-0.1c0-7.4-6-13.5-13.5-13.5c-1.8,0-3.5,0.3-5,1c-3-5.4-8.7-9-15.3-9
		c-8.5,0-15.6,6.1-17.2,14.2c-0.5-0.1-0.9-0.1-1.4-0.1c-4.6,0-8.5,3.2-9.6,7.5L115.7,69L115.7,69z"/>
</g>
<g>
	<polygon class="st3" points="177.7,352.7 0,352.7 0,184.7 40,116 	"/>
	<polygon class="st4" points="177.7,352.7 40,352.7 40,116 	"/>
</g>
<path class="st5" d="M302.2,261.7c-3.7,0-6.8,3-6.8,6.8v16.7h-1.6c-1.6,0-2.9-1.3-2.9-2.9v-10.2c0-3.7-3-6.8-6.8-6.8s-6.8,3-6.8,6.8
	v10.2c0,9.1,7.4,16.5,16.5,16.5h1.6v36.7c0,3.7,3,6.8,6.8,6.8c3.7,0,6.8-3,6.8-6.8v-67C309,264.7,306,261.7,302.2,261.7z"/>
<path class="st6" d="M512,377.1v126.8H57.7c-17,0-31.1-26-33.6-59.9c-0.3-3.5-0.4-7.1-0.4-10.8v-46.4c17.1,6.5,37.2,11.1,62.8,12.3
	c4.2,0.2,8.6,0.3,13.2,0.3c13.8,0,26.1-0.9,37.3-2.6c20.5-3.1,37-8.6,51.6-15.4h0c29.2-13.6,50.7-32.1,80.6-45.3
	c21.8-9.6,48.2-16.4,85.4-16.4C437.7,319.7,466.7,353.5,512,377.1z"/>
<g>
	<polygon class="st3" points="0,441.3 0,352.7 0,344.5 40,275.8 86.5,195.9 137.1,108.9 193.3,205.6 206.5,228.2 210.1,234.4 
		223.2,257 226.5,262.5 239.6,285.1 310.3,406.5 332,444 332.1,444 332.1,444 0,444 	"/>
	<polygon class="st4" points="332.1,444 137.1,444 137.1,109 193.3,205.6 206.5,228.2 210.1,234.3 223.2,257 226.5,262.5 
		239.6,285.2 	"/>
	<path class="st7" d="M206.5,228.2H168c-4.4,0-8-3.6-8-8v-6.6c0-4.4,3.6-8,8-8h25.3L206.5,228.2z"/>
	<path class="st7" d="M223.2,257h-38.9c-4.4,0-8-3.6-8-8v-6.6c0-4.4,3.6-8,8-8h25.8L223.2,257z"/>
	<path class="st7" d="M239.6,285.2h-35.9c-4.4,0-8-3.6-8-8v-6.6c0-4.4,3.6-8,8-8h22.8L239.6,285.2z"/>
</g>
<path class="st8" d="M485,300.8c-4.3,0-7.8,3.5-7.8,7.8v16.1c0,5.2-4.3,9.5-9.5,9.5h-1.2V293c0-4.3-3.5-7.8-7.8-7.8
	s-7.8,3.5-7.8,7.8v96.6c-5.1-0.2-9.1-4.4-9.1-9.5v-23.4c0-4.3-3.5-7.8-7.8-7.8s-7.8,3.5-7.8,7.8v23.4c0,13.8,11.1,25,24.8,25.2v62.2
	c0,4.3,3.5,7.8,7.8,7.8c4.3,0,7.8-3.5,7.8-7.8V349.9h1.2c13.9,0,25.2-11.3,25.2-25.2v-16.1C492.8,304.3,489.3,300.8,485,300.8z"/>
<path class="st9" d="M0,441.3c8.4-3.5,16.2-7.2,23.8-11.1c20.6-10.5,39.6-22,62.8-31.1c14.6-5.8,31-10.6,50.5-13.8
	c15.1-2.4,32.1-3.9,51.6-3.9h1.1c55.8,0,90.7,11.2,120.4,25.2c0,0,0,0,0,0c49.6,23.4,84.5,54.5,177.7,54.5c8.5,0,16.5-0.3,24-0.8
	V512H0v-68V441.3z"/>
<g>
	<circle class="st10" cx="102.4" cy="444" r="14.8"/>
	<circle class="st10" cx="189.1" cy="475.3" r="7.3"/>
	<ellipse class="st10" cx="263.3" cy="471.4" rx="14" ry="14"/>
	<ellipse class="st10" cx="352.9" cy="482.6" rx="14" ry="14"/>
	<circle class="st10" cx="328.5" cy="444" r="7.3"/>
	<circle class="st10" cx="485.6" cy="482.6" r="7.3"/>
	<circle class="st10" cx="419.7" cy="496.6" r="7.3"/>
	<circle class="st10" cx="165.2" cy="436.4" r="7.3"/>
	<circle class="st10" cx="47.3" cy="482.6" r="7.3"/>
	<circle class="st10" cx="244.6" cy="436.4" r="7.3"/>
</g>
<path class="st2" d="M62.8,261.8C62.8,261.8,62.8,261.8,62.8,261.8C62.8,261.7,62.8,261.7,62.8,261.8z"/>
<path class="st11" d="M412.4,13.5v137.1c37.9,0,68.6-30.7,68.6-68.6S450.3,13.5,412.4,13.5z"/>
<path class="st12" d="M412.4,13.5c16.8,0,30.5,30.7,30.5,68.6s-13.6,68.6-30.5,68.6c-37.9,0-68.6-30.7-68.6-68.6
	S374.6,13.5,412.4,13.5z"/>
</svg>
