<svg xmlns="http://www.w3.org/2000/svg" xml:space="preserve" id="Capa_1" x="0" y="0" style="enable-background:new 0 0 512 512" version="1.1" viewBox="0 0 512 512"><style>.st1{fill:#fff}.st2{fill:#dfebff}.st3{fill:#f68a21}.st4{fill:#fbaa1d}.st7{fill:#d08f17}.st10{fill:#efa93e}</style><path d="M0 0h512v512H0z" style="fill:#87d0ce"/><path d="M387 108.9v-.4c0-24.1-19.6-43.7-43.7-43.7-5.7 0-11.2 1.1-16.2 3.1-9.7-17.4-28.2-29.1-49.5-29.1-27.7 0-50.7 19.8-55.7 46-1.5-.2-3-.3-4.6-.3-15 0-27.6 10.4-31 24.4H387z" class="st1"/><path d="M344.3 108.9v-.2c0-13.9-11.3-25.1-25.1-25.1-3.3 0-6.4.6-9.3 1.8-5.6-10-16.2-16.7-28.5-16.7-15.9 0-29.1 11.4-32 26.5-.9-.1-1.7-.2-2.6-.2-8.6 0-15.9 6-17.8 14l115.3-.1z" class="st2"/><path d="M485.6 221v-.3c0-18.5-15-33.4-33.4-33.4-4.4 0-8.6.9-12.4 2.4-7.4-13.3-21.6-22.3-37.9-22.3-21.2 0-38.8 15.1-42.6 35.2-1.1-.2-2.3-.3-3.5-.3-11.5 0-21.1 8-23.7 18.7h153.5z" class="st1"/><path d="M452.9 221v-.2c0-10.6-8.6-19.2-19.2-19.2-2.5 0-4.9.5-7.1 1.4-4.3-7.6-12.4-12.8-21.8-12.8-12.2 0-22.3 8.7-24.5 20.2-.7-.1-1.3-.1-2-.1-6.6 0-12.2 4.6-13.6 10.7h88.2z" class="st2"/><path d="M138.6 69v-.2c0-12.9-10.5-23.4-23.4-23.4-3.1 0-6 .6-8.7 1.7-5.2-9.3-15.1-15.6-26.6-15.6C65.1 31.4 52.7 42 50 56.1c-.8-.1-1.6-.2-2.4-.2-8.1 0-14.8 5.6-16.6 13.1h107.6z" class="st1"/><path d="M115.7 69v-.1c0-7.4-6-13.5-13.5-13.5-1.8 0-3.5.3-5 1-3-5.4-8.7-9-15.3-9-8.5 0-15.6 6.1-17.2 14.2-.5-.1-.9-.1-1.4-.1-4.6 0-8.5 3.2-9.6 7.5h62z" class="st2"/><path d="M177.7 352.7H0v-168L40 116z" class="st3"/><path d="M177.7 352.7H40V116z" class="st4"/><path d="M302.2 261.7c-3.7 0-6.8 3-6.8 6.8v16.7h-1.6c-1.6 0-2.9-1.3-2.9-2.9v-10.2c0-3.7-3-6.8-6.8-6.8s-6.8 3-6.8 6.8v10.2c0 9.1 7.4 16.5 16.5 16.5h1.6v36.7c0 3.7 3 6.8 6.8 6.8 3.7 0 6.8-3 6.8-6.8v-67c0-3.8-3-6.8-6.8-6.8z" style="fill:#499421"/><path d="M512 377.1v126.8H57.7c-17 0-31.1-26-33.6-59.9-.3-3.5-.4-7.1-.4-10.8v-46.4c17.1 6.5 37.2 11.1 62.8 12.3 4.2.2 8.6.3 13.2.3 13.8 0 26.1-.9 37.3-2.6 20.5-3.1 37-8.6 51.6-15.4 29.2-13.6 50.7-32.1 80.6-45.3 21.8-9.6 48.2-16.4 85.4-16.4 83.1 0 112.1 33.8 157.4 57.4z" style="fill:#ffc222"/><path d="M0 441.3v-96.8l40-68.7 46.5-79.9 50.6-87 56.2 96.7 13.2 22.6 3.6 6.2 13.1 22.6 3.3 5.5 13.1 22.6 70.7 121.4L332 444h.1H0z" class="st3"/><path d="M332.1 444h-195V109l56.2 96.6 13.2 22.6 3.6 6.1 13.1 22.7 3.3 5.5 13.1 22.7z" class="st4"/><path d="M206.5 228.2H168c-4.4 0-8-3.6-8-8v-6.6c0-4.4 3.6-8 8-8h25.3l13.2 22.6zM223.2 257h-38.9c-4.4 0-8-3.6-8-8v-6.6c0-4.4 3.6-8 8-8h25.8l13.1 22.6zM239.6 285.2h-35.9c-4.4 0-8-3.6-8-8v-6.6c0-4.4 3.6-8 8-8h22.8l13.1 22.6z" class="st7"/><path d="M485 300.8c-4.3 0-7.8 3.5-7.8 7.8v16.1c0 5.2-4.3 9.5-9.5 9.5h-1.2V293c0-4.3-3.5-7.8-7.8-7.8s-7.8 3.5-7.8 7.8v96.6c-5.1-.2-9.1-4.4-9.1-9.5v-23.4c0-4.3-3.5-7.8-7.8-7.8s-7.8 3.5-7.8 7.8v23.4c0 13.8 11.1 25 24.8 25.2v62.2c0 4.3 3.5 7.8 7.8 7.8s7.8-3.5 7.8-7.8V349.9h1.2c13.9 0 25.2-11.3 25.2-25.2v-16.1c-.2-4.3-3.7-7.8-8-7.8z" style="fill:#96c133"/><path d="M0 441.3c8.4-3.5 16.2-7.2 23.8-11.1 20.6-10.5 39.6-22 62.8-31.1 14.6-5.8 31-10.6 50.5-13.8 15.1-2.4 32.1-3.9 51.6-3.9h1.1c55.8 0 90.7 11.2 120.4 25.2 49.6 23.4 84.5 54.5 177.7 54.5 8.5 0 16.5-.3 24-.8V512H0v-70.7z" style="fill:#f9b721"/><circle cx="102.4" cy="444" r="14.8" class="st10"/><circle cx="189.1" cy="475.3" r="7.3" class="st10"/><circle cx="263.3" cy="471.4" r="14" class="st10"/><circle cx="352.9" cy="482.6" r="14" class="st10"/><circle cx="328.5" cy="444" r="7.3" class="st10"/><circle cx="485.6" cy="482.6" r="7.3" class="st10"/><circle cx="419.7" cy="496.6" r="7.3" class="st10"/><circle cx="165.2" cy="436.4" r="7.3" class="st10"/><circle cx="47.3" cy="482.6" r="7.3" class="st10"/><circle cx="244.6" cy="436.4" r="7.3" class="st10"/><path d="M62.8 261.8c0-.1 0-.1 0 0z" class="st2"/><path d="M412.4 13.5v137.1c37.9 0 68.6-30.7 68.6-68.6s-30.7-68.5-68.6-68.5z" style="fill:#ffa850"/><path d="M412.4 13.5c16.8 0 30.5 30.7 30.5 68.6s-13.6 68.6-30.5 68.6c-37.9 0-68.6-30.7-68.6-68.6s30.8-68.6 68.6-68.6z" style="fill:#fecb69"/></svg>