<svg xmlns="http://www.w3.org/2000/svg" xml:space="preserve" id="Capa_1" x="0" y="0" style="enable-background:new 0 0 512 512" version="1.1" viewBox="0 0 512 512"><style>.st0{fill:#fb3}.st1{opacity:.23}.st3{fill:#f93}</style><path d="M465 258.5v8.3c0 12-9.7 21.8-21.8 21.8H68.8c-12 0-21.8-9.7-21.8-21.8v-8.3c0-12 9.7-21.8 21.8-21.8h374.4c12.1 0 21.8 9.7 21.8 21.8z" class="st0"/><path d="M425.3 273.9c0 4.9-.1 9.8-.4 14.7C419.3 406.9 346 500.7 256 502.1h-2.1c-91 0-165.4-94.3-171-213.5-.3-4.8-.4-9.7-.4-14.7 0-12.7.8-25.1 2.3-37.2 8.8-71.3 42.4-131.5 88.7-164.3 4-2.8 8-5.4 12.2-7.8 20.9-12.1 44-18.8 68.3-18.8h2.1c23.5.4 45.8 7 66.1 18.7 4.1 2.4 8.1 4.9 12 7.7 46.4 32.7 80.1 93 88.9 164.5 1.4 12.1 2.2 24.5 2.2 37.2z" class="st0"/><path d="M234.1 472.5c-9.4 3-42.5-15.9-51.3-21.3C137 423 121.5 378.1 118 326.9c-1.4-20.9-2.2-41.9-2.2-62.9 0-15.2 3.5-31.6 23.2-29.8 6.3.6 11.8 1.4 16.6 2.6 20.9 5 36.3 9.1 46.3 12.3 12.5 4 15.3 18.4 24.1 27 5.1 5 10.9 9.3 17.3 12.6 4.3 2.3 5.6 6.4 5.7 11 .4 48.6-2.9 92.4-6 148.5-.5 8.7-.1 21.5-8.9 24.3zM273.2 471.4c-1.5-.9-2.6-2.1-3.3-3.7-1.7-3.8-2.5-7.7-2.7-12.2-2.6-49.1-6.1-97.9-6.5-147.1 0-7.2-1.3-15.5 6-19.8 8.3-4.8 15.8-9.9 20.6-16.6 6.9-9.6 9.6-20.1 23.8-24 14.8-4.1 29.6-8 44.6-11.5 5.8-1.4 11.6-2.2 17.6-2.4 19.1-.6 20.7 18.7 20.7 32.8 0 23.1-1 45.6-2.9 67.4-4.3 49.2-21.2 90.8-64.4 117.1-11.5 7-24.7 13.7-37.8 18.9-5.1 2-11.2 3.8-15.7 1.1zM229.4 101.1c14.9 1 29.8.9 44.7-.3 16-1.2 35.6-5.8 50.7 1.7 3.9 1.9 8.1 4.8 12.5 8.6 28.5 24.4 42.8 60.2 39.2 97.9-1.2 12.3-12.7 12.3-22.1 14.4-24.7 5.4-46.1 9.3-64.4 11.6-30.4 3.9-60.7 3.4-91-1.5-21.1-3.5-42.1-7.5-63-12-7.4-1.6-11.8-4.5-12.7-12.3-4.5-38.9 14-82.9 47.5-104.3 17.1-10.9 39.4-5 58.6-3.8z" class="st1"/><path d="M269.2 259.3c-6.5-8.1-10.6-13.1-12.2-15-.7-.8-1.6-1.2-2.9-1.3h-.1c-1.4-.1-2.4.3-3.1 1.1-1.6 1.9-5.8 7-12.4 15.3-1.9 2.3-1.6 4.2.3 6.6 4 5 8.1 10 12.1 15 .4.5 1.3 1 2.7 1.3l.4-.1c1.4-.1 2.4-.6 3.2-1.5 1.7-2 5.7-7 12.2-15 1.8-2.3 1.5-4.2-.2-6.4z" style="fill:#ff3f3f"/><path d="M159.5 9.9h1.2c4.8 4.1 8.9 9.1 12.5 15 1.4 2.3 3.3 2.9 5.6 1.8l4.1-2c1.8-.9 2.5-.3 2.1 1.6-.9 4.9-1.6 9.9-2.1 14.9-2.4 25.6 11.2 42 30.1 57.7 2 1.7 2.2 3.1.8 4.3l-5.3 4.3c-1.8 1.5-3.9 1.2-6.3-.8-22.3-18.9-40.5-48.2-44.1-77.3-.9-6.6-.4-13 1.4-19.5zM350 22.5c-2.1 18.3-7.4 34.9-15.9 49.7-5.5 9.7-12.4 18.7-20.6 26.9-1.7 1.8-3.6 3.5-5.4 5.2-6.1 5.5-10.7 4.1-14.9-2.6-.4-.6-.3-1.4.3-1.9.4-.3.8-.7 1.2-1 7.3-6.1 14.9-13.9 20-20.8 3.4-4.5 5.7-9 7.3-13.5 4.3-12.2 2.9-24.8.2-39.1-.2-1 .3-1.4 1.3-1.3.3 0 .7.2.9.4 8.9 8.9 15.5-11 22.5-14.5h1.1c1.9 3.8 2.6 8 2 12.5z" class="st3"/><path d="M465 258.5v8.3c0 12-9.7 21.8-21.8 21.8h-18.3C419.3 406.9 346 500.7 256 502.1V45.7c23.5.4 45.8 7 66.1 18.7 4.3-12.2 2.9-24.8.2-39.1-.2-1 .3-1.4 1.3-1.3.3 0 .7.2.9.4 8.9 8.9 15.5-11 22.5-14.5h1.1c1.8 3.9 2.4 8.1 1.9 12.5-2.1 18.3-7.4 34.9-15.9 49.7 46.4 32.7 80.1 93 88.9 164.5h20.2c12.1.1 21.8 9.8 21.8 21.9z" style="opacity:.13"/></svg>