<svg xmlns="http://www.w3.org/2000/svg" xml:space="preserve" id="Capa_1" x="0" y="0" style="enable-background:new 0 0 512 512" version="1.1" viewBox="0 0 512 512"><style>.st0{fill:#e7b467}.st1{fill:#fbcb80}.st2{fill:#d57e4b}.st3{fill:#c56e37}.st4{fill:#fad59a}.st5{fill:#fae2c0}.st6{fill:#ebb044}</style><path d="M486.4 76.8c7.5.5 18 1.5 20.3-6.5V22.5c-.7-3.8-2.6-6-5.9-6.6-7.9-1.4-25.7-3.6-24.9 10.2l-32.3-.5c.9-8.1 1-17.1-7.4-20.2H77.3c-10.8 2.3-8.7 12.2-8.8 20.4l-32.6.2c1.5-13.2-13.4-10.4-21.1-10.6-4.8-.1-8 2.1-9.4 6.6v48.1c2.2 8.5 12.9 7.1 21.4 6.8 6.3-.2 9.3-3.5 9.1-10 10.9-.7 21.8-.7 32.7-.1.2 10.5-1.1 21.7 14.1 20.2l.4 23.2c-.1.7-.1 1.5 0 2.4-.6 66.5-.6 132.6-.1 198.2 0 2.8 1.4 4.2 4.2 4.2 4.2.1 20.2-.9 22.8 1.1 4.1 3.1.1 6.1-2.8 8-7.6 5-15.1 10.1-22.7 15.1-1.3.9-1.8 2.3-1.5 4.3-.5 9.5-.5 18.9 0 28.4l.1 19.8-.1 32v.7c-1.9.4-3.8.7-5.7 1.1-10.7 2-8.5 12.1-8.6 20l-32.7.2c.7-7.1-2.9-10.1-9.8-10.4-8.1-.4-18.9-2-20.8 6.8v47.5c1.8 8.7 10.7 7.2 18.4 7.1 7.7 0 12.5-1.9 12.4-10.4h32.3c0 7.9-1.9 18.1 8.7 20.4h358.5c9.1-2.8 8.3-10.9 8.2-20.4l32.3.3c-.6 7.2 3.1 9.6 9.8 10 8 .5 18.6 1.7 20.6-6.9v-47.5c-1.7-8.8-11.9-7-20.5-6.9-3.4.1-5.8.7-7.3 2-2.3 2-3.2 4.7-2.8 8.4-11-.5-21.9-.5-32.7.1 3.4-13.3-1.2-20.2-13.7-20.9-.3 0-.4-.2-.3-.5V259.7c0-2.5-1.2-3.7-3.7-3.7h-16.8c-2.2-.1-5.1.5-6.9-1-5.3-4.6 6.3-10.1 9.2-12l17.7-11.8c.4-.3.6-.7.6-1.1V87.4c5.5.5 9.5-1.2 12.2-4.9 3-4.2 2.3-10.8 2.3-16l32.4.4c-.7 7.4 3.4 9.5 10.1 9.9z" class="st0"/><path d="M77.3 5.4h260.6c-.7 8.8-1 17.7-.8 26.5 0 2.7.5 4.8 1.4 6.1 2.7 4.2 8.8 4.4 11.8.5 3.4-4.4 1.9-20.2 2-33.2h10.4c-.1 5.5-1.4 18.4 1.5 22.9 2.8 4.3 10.7 3.5 12.8-1.4 2-4.5.6-15.7 1.4-21.4h39.8l-.1 81.6H82.6c-15.1 1.5-13.9-9.7-14.1-20.2.6-13.7.6-27.4 0-41.1.1-8.1-2-18 8.8-20.3z" class="st1"/><path d="M337.9 5.4h14.4c-.1 13 1.4 28.8-2 33.2-3 3.9-9.1 3.7-11.8-.5-.9-1.4-1.3-3.4-1.4-6.1-.2-8.9.1-17.8.8-26.6zM362.7 5.4h15.7c-.8 5.7.5 17-1.4 21.4-2.2 5-10.1 5.7-12.8 1.4-2.9-4.4-1.6-17.3-1.5-22.8zM418.1 5.4h18c8.4 3.2 8.2 12.1 7.4 20.2l.3 40.9c.1 5.2.7 11.8-2.3 16-2.7 3.7-6.7 5.3-12.2 4.9-3.8-.7-7.5-.8-11.3-.4l.1-81.6z" class="st0"/><path d="M35.9 26v41c.2 6.5-2.8 9.8-9.1 10-8.5.2-19.2 1.7-21.4-6.8V22c1.4-4.5 4.5-6.7 9.4-6.6 7.6.2 22.6-2.7 21.1 10.6zM506.6 22.5v47.8c-2.2 8.1-12.8 7.1-20.3 6.5-6.7-.5-10.8-2.6-10.1-9.9l-.4-40.9c-.8-13.7 17-11.6 24.9-10.2 3.3.7 5.2 2.9 5.9 6.7z" class="st2"/><path d="m443.5 25.6 32.3.5.4 40.9-32.4-.4-.3-41zM68.5 25.8c.6 13.7.6 27.4 0 41.1-10.9-.6-21.8-.6-32.7.1V26l32.7-.2z" class="st3"/><path d="M418.1 87c3.8-.4 7.6-.3 11.3.4V230c0 .5-.2.9-.6 1.1L411.1 243c-1.6-1-2.4-2.4-2.4-4.4 0-16.6 0-33.3-.1-50 0-.7-.6-1.3-1.3-1.3-2-.1-4-.2-6-.2-3.4 0-5.7-.4-7-1.2-6.5-3.7-3.6-12.5 3.3-13.8 1.1-.2 4.4-.3 9.7-.4.7 0 1.3-.6 1.3-1.3l.1-17.7c0-.6-.4-1.1-.9-1.3l-2.9-.9c-.2-.1-.3-.1-.5-.2-6.6-5.4-3.5-11.5 3.4-14 .5-.2.9-.7.9-1.3 0-11.4 4.4-27.7-13-27.7H86.6c-2.9 0-4.1 1.8-3.6 5.3L82.6 87h335.5z" class="st4"/><path d="M411.1 243c-2.8 1.9-14.5 7.4-9.2 12 1.8 1.6 4.8 1 6.9 1l-.1 166.7c0 .7-.5 1.2-1.2 1.3-.4 0-.8.2-1.2.3l-323.5.1v-.7l.8-16.5c0-.7.6-1.3 1.3-1.3 4.7 0 16.6 1.2 20.4-1.3 4.9-3.3 3.8-12.2-2.1-13.4-5.2-1-12-.9-20.3.5V372c-.1-2 0-2.7.4-2 .2.4.7.7 1.2.7l29.1-.1c.3 0 .6-.1.9-.3 5.8-5.2 5.7-10-.1-14.4-.2-.2-.5-.3-.8-.3l-29.4-.4c-.7 0-1.3-.6-1.3-1.3l-.1-10.3c-.3-2 .2-3.4 1.5-4.3 7.6-5.1 15.1-10.1 22.7-15.1 2.9-1.9 6.9-4.9 2.8-8-2.7-2-18.6-1-22.8-1.1-2.8-.1-4.2-1.5-4.2-4.2-.5-65.6-.4-131.7.1-198.2-.5-3.6.7-5.3 3.6-5.3h309.1c17.4 0 13 16.4 13 27.7 0 .6-.4 1.1-.9 1.3-6.8 2.5-10 8.6-3.4 14 .1.1.3.2.5.2l2.9.9c.6.2.9.7.9 1.3l-.1 17.7c0 .7-.6 1.3-1.3 1.3-5.3.1-8.5.2-9.7.4-6.9 1.3-9.8 10.1-3.3 13.8 1.3.8 3.7 1.1 7 1.2 2 0 4 .1 6 .2.7 0 1.3.6 1.3 1.3.1 16.7.1 33.4.1 50 .1 1.8.9 3.3 2.5 4.3z" class="st5"/><path d="M194 249c6.8 2.3 13.4 5.2 19.9 8.8-30.1.9-55.5 3-70.3-27.2-.1-.1 0-.2.1-.2s.2 0 .2.1c13.1 14.6 29.9 20.8 50.1 18.5z" class="st5"/><path d="M408.8 256h16.8c2.5 0 3.7 1.2 3.7 3.7v164.7l-11.7.3-11.4-.4c.4-.2.8-.3 1.2-.3.7-.1 1.2-.6 1.2-1.3l.2-166.7zM82.9 343.5l.1 10.3c0 .7.6 1.3 1.3 1.3l29.4.4c.3 0 .6.1.8.3 5.8 4.5 5.9 9.3.1 14.4-.2.2-.6.3-.9.3l-29.1.1c-.5 0-1-.3-1.2-.7-.4-.7-.5-.1-.4 2-.6-9.4-.6-18.9-.1-28.4zM82.9 423.7l.1-32c8.3-1.3 15.1-1.5 20.3-.5 5.9 1.1 7 10 2.1 13.4-3.7 2.5-15.6 1.4-20.4 1.3-.7 0-1.3.6-1.3 1.3l-.8 16.5z" class="st4"/><path d="M429.4 424.5c-.1.3 0 .5.3.5 12.5.6 17.1 7.6 13.7 20.9l.4 40.4c.1 9.4.9 17.6-8.2 20.4h-17.5l-.5-81.8 11.8-.4z" class="st0"/><path d="M36 445.7c-.4 13.6-.3 27.1.2 40.5.1 8.5-4.7 10.4-12.4 10.4-7.8 0-16.6 1.5-18.4-7.1V442c1.9-8.7 12.7-7.2 20.8-6.8 6.9.5 10.4 3.4 9.8 10.5zM506.6 442.2v47.5c-2 8.6-12.6 7.4-20.6 6.9-6.8-.4-10.4-2.8-9.8-10 .2-3 .6-6.1.5-9.2-.2-10.5-.4-21-.7-31.6-.4-3.6.5-6.4 2.8-8.4 1.5-1.3 3.9-1.9 7.3-2 8.7-.2 18.8-2 20.5 6.8z" class="st2"/><path d="M68.5 445.5c.6 13.6.6 27.2 0 40.8H36.2c-.6-13.4-.6-26.9-.2-40.5l32.5-.3zM476.1 445.7c.2 10.5.4 21.1.7 31.6.1 3.1-.3 6.2-.5 9.2l-32.3-.3-.4-40.4c10.6-.5 21.5-.6 32.5-.1z" class="st3"/><path d="M168 506.6h-15c-.5-16.8-.6-26.7-.2-29.7 1-8.9 15.1-8.6 15 3.2-.1 8.8 0 17.6.2 26.5zM142.6 506.6h-15.7c.4-5.4.6-10.8.4-16.3-.3-13.3 15.3-12 15-.8-.1 5.8 0 11.4.3 17.1z" class="st0"/><path d="M164.7 139.7c-4.7-3.8-9.4-7.6-14-11.4-2.8-2.3-4.9-4.3-7.6-2.2-5.4 4.4-10.8 8.7-16.2 13.1-4.5 3.6-3.3 7.1.7 10.4 4.4 3.7 8.9 7.3 13.4 10.8.2.2.3.4.3.7l-.1 12.7c0 .3-.1.6-.3.7-4.2 3.4-8.5 6.8-12.7 10.2-1.8 1.5-3 2.6-3.5 3.4-2.8 4.3 2 9.8 6 6.6 4.8-3.8 9.6-7.7 14.3-11.6.3-.2.6-.2.9 0 4.4 3.6 8.7 7.2 13.2 10.8 3.6 2.9 7.6 2.7 8-3.7 0-.2 0-.3-.1-.5-.8-1.6-1.7-2.8-2.8-3.7-4.7-3.8-9.4-7.7-14.2-11.6-.2-.2-.3-.4-.3-.7l.1-12.5c0-.3.1-.6.3-.7 4.4-3.6 8.7-7.1 13.1-10.6 3.5-2.6 6.1-6.5 1.5-10.2zm-9.6 4.8s0 .1 0 0l-9.4 7.6c-.1.1-.3.1-.4 0l-9.3-7.6c-.1-.1-.2-.4-.1-.5 0 0 0-.1.1-.1l9.3-7.6c.1-.1.3-.1.4 0l9.3 7.6c.2.2.2.4.1.6zM179.1 181.4c4.7 3.8 9.4 7.6 14 11.4 2.8 2.3 4.9 4.3 7.6 2.2 5.4-4.4 10.8-8.7 16.2-13.1 4.5-3.6 3.3-7.1-.7-10.4-4.4-3.7-8.9-7.3-13.4-10.8-.2-.2-.3-.4-.3-.7l.1-12.7c0-.3.1-.6.3-.7 4.2-3.4 8.5-6.8 12.7-10.2 1.8-1.5 3-2.6 3.5-3.4 2.8-4.3-2-9.8-6-6.6-4.8 3.8-9.6 7.7-14.3 11.6-.3.2-.6.2-.9 0-4.4-3.6-8.7-7.2-13.2-10.8-3.6-2.9-7.6-2.7-8 3.7 0 .2 0 .3.1.5.8 1.6 1.7 2.8 2.8 3.7 4.7 3.8 9.4 7.7 14.2 11.6.2.2.3.4.3.7l-.1 12.5c0 .3-.1.6-.3.7-4.4 3.6-8.7 7.1-13.1 10.6-3.4 2.6-6.1 6.5-1.5 10.2zm9.6-4.8s.1 0 0 0l9.4-7.6c.1-.1.3-.1.4 0l9.3 7.6c.1.1.2.4.1.5 0 0 0 .1-.1.1l-9.3 7.6c-.1.1-.3.1-.4 0l-9.3-7.6c-.2-.2-.2-.4-.1-.6zM272.1 139.7c-4.7-3.8-9.4-7.6-14-11.4-2.8-2.3-4.9-4.3-7.6-2.2-5.4 4.4-10.8 8.7-16.2 13.1-4.5 3.6-3.3 7.1.7 10.4 4.4 3.7 8.9 7.3 13.4 10.8.2.2.3.4.3.7l-.1 12.7c0 .3-.1.6-.3.7-4.2 3.4-8.5 6.8-12.7 10.2-1.8 1.5-3 2.6-3.5 3.4-2.8 4.3 2 9.8 6 6.6 4.8-3.8 9.6-7.7 14.3-11.6.3-.2.6-.2.9 0 4.4 3.6 8.7 7.2 13.2 10.8 3.6 2.9 7.6 2.7 8-3.7 0-.2 0-.3-.1-.5-.8-1.6-1.7-2.8-2.8-3.7-4.7-3.8-9.4-7.7-14.2-11.6-.2-.2-.3-.4-.3-.7l.1-12.5c0-.3.1-.6.3-.7 4.4-3.6 8.7-7.1 13.1-10.6 3.4-2.6 6.1-6.5 1.5-10.2zm-9.6 4.8s-.1.1 0 0l-9.4 7.6c-.1.1-.3.1-.4 0l-9.3-7.6c-.1-.1-.2-.4-.1-.5 0 0 0-.1.1-.1l9.3-7.6c.1-.1.3-.1.4 0l9.3 7.6c.1.2.2.4.1.6zM379.5 139.7c-4.7-3.8-9.4-7.6-14-11.4-2.8-2.3-4.9-4.3-7.6-2.2-5.4 4.4-10.8 8.7-16.2 13.1-4.5 3.6-3.3 7.1.7 10.4 4.4 3.7 8.9 7.3 13.4 10.8.2.2.3.4.3.7l-.1 12.7c0 .3-.1.6-.3.7-4.2 3.4-8.5 6.8-12.7 10.2-1.8 1.5-3 2.6-3.5 3.4-2.8 4.3 2 9.8 6 6.6 4.8-3.8 9.6-7.7 14.3-11.6.3-.2.6-.2.9 0 4.4 3.6 8.7 7.2 13.2 10.8 3.6 2.9 7.6 2.7 8-3.7 0-.2 0-.3-.1-.5-.8-1.6-1.7-2.8-2.8-3.7-4.7-3.8-9.4-7.7-14.2-11.6-.2-.2-.3-.4-.3-.7l.1-12.5c0-.3.1-.6.3-.7 4.4-3.6 8.7-7.1 13.1-10.6 3.4-2.6 6.1-6.5 1.5-10.2zm-9.6 4.8s-.1.1 0 0l-9.4 7.6c-.1.1-.3.1-.4 0l-9.3-7.6c-.1-.1-.2-.4-.1-.5 0 0 0-.1.1-.1l9.3-7.6c.1-.1.3-.1.4 0l9.3 7.6c.1.2.2.4.1.6zM286.5 181.4c4.7 3.8 9.4 7.6 14 11.4 2.8 2.3 4.9 4.3 7.6 2.2 5.4-4.4 10.8-8.7 16.2-13.1 4.5-3.6 3.3-7.1-.7-10.4-4.4-3.7-8.9-7.3-13.4-10.8-.2-.2-.3-.4-.3-.7l.1-12.7c0-.3.1-.6.3-.7 4.2-3.4 8.5-6.8 12.7-10.2 1.8-1.5 3-2.6 3.5-3.4 2.8-4.3-2-9.8-6-6.6-4.8 3.8-9.6 7.7-14.3 11.6-.3.2-.6.2-.9 0-4.4-3.6-8.7-7.2-13.2-10.8-3.6-2.9-7.6-2.7-8 3.7 0 .2 0 .3.1.5.8 1.6 1.7 2.8 2.8 3.7 4.7 3.8 9.4 7.7 14.2 11.6.2.2.3.4.3.7l-.1 12.5c0 .3-.1.6-.3.7-4.4 3.6-8.7 7.1-13.1 10.6-3.5 2.6-6.1 6.5-1.5 10.2zm9.6-4.8 9.4-7.6c.1-.1.3-.1.4 0l9.3 7.6c.1.1.2.4.1.5 0 0 0 .1-.1.1l-9.3 7.6c-.1.1-.3.1-.4 0l-9.3-7.6c-.2-.2-.2-.4-.1-.6zM164.8 263.8c-4.7 3.8-9.4 7.6-14 11.4-2.8 2.3-4.9 4.3-7.6 2.2-5.4-4.4-10.8-8.7-16.2-13.1-4.5-3.6-3.3-7.1.7-10.4 4.4-3.7 8.9-7.3 13.4-10.8.2-.2.3-.4.3-.7l-.1-12.7c0-.3-.1-.6-.3-.7-4.2-3.4-8.5-6.8-12.7-10.2-1.8-1.5-3-2.6-3.5-3.4-2.8-4.3 2-9.8 6-6.6 4.8 3.8 9.6 7.7 14.3 11.6.3.2.6.2.9 0 4.4-3.6 8.7-7.2 13.2-10.8 3.6-2.9 7.6-2.7 8 3.7 0 .2 0 .3-.1.5-.8 1.6-1.7 2.8-2.8 3.7-4.7 3.8-9.4 7.7-14.2 11.6-.2.2-.3.4-.3.7l.1 12.5c0 .3.1.6.3.7 4.4 3.6 8.7 7.1 13.1 10.6 3.4 2.6 6.1 6.5 1.5 10.2zm-9.7-4.8-9.4-7.6c-.1-.1-.3-.1-.4 0L136 259c-.1.1-.2.4-.1.5 0 0 0 .1.1.1l9.3 7.6c.1.1.3.1.4 0l9.3-7.6c.2-.2.2-.4.1-.6zM179.1 222.1c4.7-3.8 9.4-7.6 14-11.4 2.8-2.3 4.9-4.3 7.6-2.2 5.4 4.4 10.8 8.7 16.2 13.1 4.5 3.6 3.3 7.1-.7 10.4-4.4 3.7-8.9 7.3-13.4 10.8-.2.2-.3.4-.3.7l.1 12.7c0 .3.1.6.3.7 4.2 3.4 8.5 6.8 12.7 10.2 1.8 1.5 3 2.6 3.5 3.4 2.8 4.3-2 9.8-6 6.6-4.8-3.8-9.6-7.7-14.3-11.6-.3-.2-.6-.2-.9 0-4.4 3.6-8.7 7.2-13.2 10.8-3.6 2.9-7.6 2.7-8-3.7 0-.2 0-.3.1-.5.8-1.6 1.7-2.8 2.8-3.7 4.7-3.8 9.4-7.7 14.2-11.6.2-.2.3-.4.3-.7l-.1-12.5c0-.3-.1-.6-.3-.7-4.4-3.6-8.7-7.1-13.1-10.6-3.4-2.6-6.1-6.5-1.5-10.2zm9.6 4.8c.1 0 .1.1 0 0l9.4 7.6c.1.1.3.1.4 0l9.3-7.6c.1-.1.2-.4.1-.5 0 0 0-.1-.1-.1l-9.3-7.6c-.1-.1-.3-.1-.4 0l-9.3 7.6c-.1.2-.2.4-.1.6zM272.1 263.8c-4.7 3.8-9.4 7.6-14 11.4-2.8 2.3-4.9 4.3-7.6 2.2-5.4-4.4-10.8-8.7-16.2-13.1-4.5-3.6-3.3-7.1.7-10.4 4.4-3.7 8.9-7.3 13.4-10.8.2-.2.3-.4.3-.7l-.1-12.7c0-.3-.1-.6-.3-.7-4.2-3.4-8.5-6.8-12.7-10.2-1.8-1.5-3-2.6-3.5-3.4-2.8-4.3 2-9.8 6-6.6 4.8 3.8 9.6 7.7 14.3 11.6.3.2.6.2.9 0 4.4-3.6 8.7-7.2 13.2-10.8 3.6-2.9 7.6-2.7 8 3.7 0 .2 0 .3-.1.5-.8 1.6-1.7 2.8-2.8 3.7-4.7 3.8-9.4 7.7-14.2 11.6-.2.2-.3.4-.3.7l.1 12.5c0 .3.1.6.3.7 4.4 3.6 8.7 7.1 13.1 10.6 3.5 2.6 6.2 6.5 1.5 10.2zm-9.6-4.8-9.4-7.6c-.1-.1-.3-.1-.4 0l-9.3 7.6c-.1.1-.2.4-.1.5 0 0 0 .1.1.1l9.3 7.6c.1.1.3.1.4 0l9.3-7.6c.2-.2.2-.4.1-.6zM379.5 263.8c-4.7 3.8-9.4 7.6-14 11.4-2.8 2.3-4.9 4.3-7.6 2.2-5.4-4.4-10.8-8.7-16.2-13.1-4.5-3.6-3.3-7.1.7-10.4 4.4-3.7 8.9-7.3 13.4-10.8.2-.2.3-.4.3-.7l-.1-12.7c0-.3-.1-.6-.3-.7-4.2-3.4-8.5-6.8-12.7-10.2-1.8-1.5-3-2.6-3.5-3.4-2.8-4.3 2-9.8 6-6.6 4.8 3.8 9.6 7.7 14.3 11.6.3.2.6.2.9 0 4.4-3.6 8.7-7.2 13.2-10.8 3.6-2.9 7.6-2.7 8 3.7 0 .2 0 .3-.1.5-.8 1.6-1.7 2.8-2.8 3.7-4.7 3.8-9.4 7.7-14.2 11.6-.2.2-.3.4-.3.7l.1 12.5c0 .3.1.6.3.7 4.4 3.6 8.7 7.1 13.1 10.6 3.5 2.6 6.1 6.5 1.5 10.2zm-9.6-4.8-9.4-7.6c-.1-.1-.3-.1-.4 0l-9.3 7.6c-.1.1-.2.4-.1.5 0 0 0 .1.1.1l9.3 7.6c.1.1.3.1.4 0l9.3-7.6c.2-.2.2-.4.1-.6zM286.5 222.1c4.7-3.8 9.4-7.6 14-11.4 2.8-2.3 4.9-4.3 7.6-2.2 5.4 4.4 10.8 8.7 16.2 13.1 4.5 3.6 3.3 7.1-.7 10.4-4.4 3.7-8.9 7.3-13.4 10.8-.2.2-.3.4-.3.7l.1 12.7c0 .3.1.6.3.7 4.2 3.4 8.5 6.8 12.7 10.2 1.8 1.5 3 2.6 3.5 3.4 2.8 4.3-2 9.8-6 6.6-4.8-3.8-9.6-7.7-14.3-11.6-.3-.2-.6-.2-.9 0-4.4 3.6-8.7 7.2-13.2 10.8-3.6 2.9-7.6 2.7-8-3.7 0-.2 0-.3.1-.5.8-1.6 1.7-2.8 2.8-3.7 4.7-3.8 9.4-7.7 14.2-11.6.2-.2.3-.4.3-.7l-.1-12.5c0-.3-.1-.6-.3-.7-4.4-3.6-8.7-7.1-13.1-10.6-3.4-2.6-6.1-6.5-1.5-10.2zm9.6 4.8s.1.1 0 0l9.4 7.6c.1.1.3.1.4 0l9.3-7.6c.1-.1.2-.4.1-.5 0 0 0-.1-.1-.1l-9.3-7.6c-.1-.1-.3-.1-.4 0l-9.3 7.6c-.1.2-.2.4-.1.6zM164.8 346.2c-4.7 3.8-9.4 7.6-14 11.4-2.8 2.3-4.9 4.3-7.6 2.2-5.4-4.4-10.8-8.7-16.2-13.1-4.5-3.6-3.3-7.1.7-10.4 4.4-3.7 8.9-7.3 13.4-10.8.2-.2.3-.4.3-.7l-.1-12.7c0-.3-.1-.6-.3-.7-4.2-3.4-8.5-6.8-12.7-10.2-1.8-1.5-3-2.6-3.5-3.4-2.8-4.3 2-9.8 6-6.6 4.8 3.8 9.6 7.7 14.3 11.6.3.2.6.2.9 0 4.4-3.6 8.7-7.2 13.2-10.8 3.6-2.9 7.6-2.7 8 3.7 0 .2 0 .3-.1.5-.8 1.6-1.7 2.8-2.8 3.7-4.7 3.8-9.4 7.7-14.2 11.6-.2.2-.3.4-.3.7l.1 12.5c0 .3.1.6.3.7 4.4 3.6 8.7 7.1 13.1 10.6 3.4 2.6 6.1 6.5 1.5 10.2zm-9.7-4.8-9.4-7.6c-.1-.1-.3-.1-.4 0l-9.3 7.6c-.1.1-.2.4-.1.5 0 0 0 .1.1.1l9.3 7.6c.1.1.3.1.4 0l9.3-7.6c.2-.1.2-.4.1-.6zM179.1 304.5c4.7-3.8 9.4-7.6 14-11.4 2.8-2.3 4.9-4.3 7.6-2.2 5.4 4.4 10.8 8.7 16.2 13.1 4.5 3.6 3.3 7.1-.7 10.4-4.4 3.7-8.9 7.3-13.4 10.8-.2.2-.3.4-.3.7l.1 12.7c0 .3.1.6.3.7 4.2 3.4 8.5 6.8 12.7 10.2 1.8 1.5 3 2.6 3.5 3.4 2.8 4.3-2 9.8-6 6.6-4.8-3.8-9.6-7.7-14.3-11.6-.3-.2-.6-.2-.9 0-4.4 3.6-8.7 7.2-13.2 10.8-3.6 2.9-7.6 2.7-8-3.7 0-.2 0-.3.1-.5.8-1.6 1.7-2.8 2.8-3.7 4.7-3.8 9.4-7.7 14.2-11.6.2-.2.3-.4.3-.7L194 326c0-.3-.1-.6-.3-.7-4.4-3.6-8.7-7.1-13.1-10.6-3.4-2.6-6.1-6.4-1.5-10.2zm9.6 4.8c.1.1.1.1 0 0l9.4 7.6c.1.1.3.1.4 0l9.3-7.6c.1-.1.2-.4.1-.5 0 0 0-.1-.1-.1l-9.3-7.6c-.1-.1-.3-.1-.4 0l-9.3 7.6c-.1.2-.2.4-.1.6zM272.1 346.2c-4.7 3.8-9.4 7.6-14 11.4-2.8 2.3-4.9 4.3-7.6 2.2-5.4-4.4-10.8-8.7-16.2-13.1-4.5-3.6-3.3-7.1.7-10.4 4.4-3.7 8.9-7.3 13.4-10.8.2-.2.3-.4.3-.7l-.1-12.7c0-.3-.1-.6-.3-.7-4.2-3.4-8.5-6.8-12.7-10.2-1.8-1.5-3-2.6-3.5-3.4-2.8-4.3 2-9.8 6-6.6 4.8 3.8 9.6 7.7 14.3 11.6.3.2.6.2.9 0 4.4-3.6 8.7-7.2 13.2-10.8 3.6-2.9 7.6-2.7 8 3.7 0 .2 0 .3-.1.5-.8 1.6-1.7 2.8-2.8 3.7-4.7 3.8-9.4 7.7-14.2 11.6-.2.2-.3.4-.3.7l.1 12.5c0 .3.1.6.3.7 4.4 3.6 8.7 7.1 13.1 10.6 3.5 2.6 6.2 6.5 1.5 10.2zm-9.6-4.8-9.4-7.6c-.1-.1-.3-.1-.4 0l-9.3 7.6c-.1.1-.2.4-.1.5 0 0 0 .1.1.1l9.3 7.6c.1.1.3.1.4 0l9.3-7.6c.2-.1.2-.4.1-.6zM379.5 346.2c-4.7 3.8-9.4 7.6-14 11.4-2.8 2.3-4.9 4.3-7.6 2.2-5.4-4.4-10.8-8.7-16.2-13.1-4.5-3.6-3.3-7.1.7-10.4 4.4-3.7 8.9-7.3 13.4-10.8.2-.2.3-.4.3-.7L356 312c0-.3-.1-.6-.3-.7-4.2-3.4-8.5-6.8-12.7-10.2-1.8-1.5-3-2.6-3.5-3.4-2.8-4.3 2-9.8 6-6.6 4.8 3.8 9.6 7.7 14.3 11.6.3.2.6.2.9 0 4.4-3.6 8.7-7.2 13.2-10.8 3.6-2.9 7.6-2.7 8 3.7 0 .2 0 .3-.1.5-.8 1.6-1.7 2.8-2.8 3.7-4.7 3.8-9.4 7.7-14.2 11.6-.2.2-.3.4-.3.7l.1 12.5c0 .3.1.6.3.7 4.4 3.6 8.7 7.1 13.1 10.6 3.5 2.7 6.1 6.6 1.5 10.3zm-9.6-4.8-9.4-7.6c-.1-.1-.3-.1-.4 0l-9.3 7.6c-.1.1-.2.4-.1.5 0 0 0 .1.1.1l9.3 7.6c.1.1.3.1.4 0l9.3-7.6c.2-.1.2-.4.1-.6zM286.5 304.5c4.7-3.8 9.4-7.6 14-11.4 2.8-2.3 4.9-4.3 7.6-2.2 5.4 4.4 10.8 8.7 16.2 13.1 4.5 3.6 3.3 7.1-.7 10.4-4.4 3.7-8.9 7.3-13.4 10.8-.2.2-.3.4-.3.7l.1 12.7c0 .3.1.6.3.7 4.2 3.4 8.5 6.8 12.7 10.2 1.8 1.5 3 2.6 3.5 3.4 2.8 4.3-2 9.8-6 6.6-4.8-3.8-9.6-7.7-14.3-11.6-.3-.2-.6-.2-.9 0-4.4 3.6-8.7 7.2-13.2 10.8-3.6 2.9-7.6 2.7-8-3.7 0-.2 0-.3.1-.5.8-1.6 1.7-2.8 2.8-3.7 4.7-3.8 9.4-7.7 14.2-11.6.2-.2.3-.4.3-.7l-.1-12.5c0-.3-.1-.6-.3-.7-4.4-3.6-8.7-7.1-13.1-10.6-3.4-2.6-6.1-6.4-1.5-10.2zm9.6 4.8c0 .1.1.1 0 0l9.4 7.6c.1.1.3.1.4 0l9.3-7.6c.1-.1.2-.4.1-.5 0 0 0-.1-.1-.1l-9.3-7.6c-.1-.1-.3-.1-.4 0l-9.3 7.6c-.1.2-.2.4-.1.6zM164.8 425.9c-4.7 3.8-9.4 7.6-14 11.4-2.8 2.3-4.9 4.3-7.6 2.2-5.4-4.4-10.8-8.7-16.2-13.1-4.5-3.6-3.3-7.1.7-10.4 4.4-3.7 8.9-7.3 13.4-10.8.2-.2.3-.4.3-.7l-.1-12.7c0-.3-.1-.6-.3-.7-4.2-3.4-8.5-6.8-12.7-10.2-1.8-1.5-3-2.6-3.5-3.4-2.8-4.3 2-9.8 6-6.6 4.8 3.8 9.6 7.7 14.3 11.6.3.2.6.2.9 0 4.4-3.6 8.7-7.2 13.2-10.8 3.6-2.9 7.6-2.7 8 3.7 0 .2 0 .3-.1.5-.8 1.6-1.7 2.8-2.8 3.7-4.7 3.8-9.4 7.7-14.2 11.6-.2.2-.3.4-.3.7l.1 12.5c0 .3.1.6.3.7 4.4 3.6 8.7 7.1 13.1 10.6 3.4 2.5 6.1 6.4 1.5 10.2zm-9.7-4.8c0-.1 0-.1 0 0l-9.4-7.6c-.1-.1-.3-.1-.4 0l-9.3 7.6c-.1.1-.2.4-.1.5 0 0 0 .1.1.1l9.3 7.6c.1.1.3.1.4 0l9.3-7.6c.2-.2.2-.4.1-.6zM179.1 384.2c4.7-3.8 9.4-7.6 14-11.4 2.8-2.3 4.9-4.3 7.6-2.2 5.4 4.4 10.8 8.7 16.2 13.1 4.5 3.6 3.3 7.1-.7 10.4-4.4 3.7-8.9 7.3-13.4 10.8-.2.2-.3.4-.3.7l.1 12.7c0 .3.1.6.3.7 4.2 3.4 8.5 6.8 12.7 10.2 1.8 1.5 3 2.6 3.5 3.4 2.8 4.3-2 9.8-6 6.6-4.8-3.8-9.6-7.7-14.3-11.6-.3-.2-.6-.2-.9 0-4.4 3.6-8.7 7.2-13.2 10.8-3.6 2.9-7.6 2.7-8-3.7 0-.2 0-.3.1-.5.8-1.6 1.7-2.8 2.8-3.7 4.7-3.8 9.4-7.7 14.2-11.6.2-.2.3-.4.3-.7l-.1-12.5c0-.3-.1-.6-.3-.7-4.4-3.6-8.7-7.1-13.1-10.6-3.4-2.6-6.1-6.5-1.5-10.2zm9.6 4.7c.1.1.1.1 0 0l9.4 7.6c.1.1.3.1.4 0l9.3-7.6c.1-.1.2-.4.1-.5 0 0 0-.1-.1-.1l-9.3-7.6c-.1-.1-.3-.1-.4 0l-9.3 7.6c-.1.2-.2.5-.1.6zM272.1 425.9c-4.7 3.8-9.4 7.6-14 11.4-2.8 2.3-4.9 4.3-7.6 2.2-5.4-4.4-10.8-8.7-16.2-13.1-4.5-3.6-3.3-7.1.7-10.4 4.4-3.7 8.9-7.3 13.4-10.8.2-.2.3-.4.3-.7l-.1-12.7c0-.3-.1-.6-.3-.7-4.2-3.4-8.5-6.8-12.7-10.2-1.8-1.5-3-2.6-3.5-3.4-2.8-4.3 2-9.8 6-6.6 4.8 3.8 9.6 7.7 14.3 11.6.3.2.6.2.9 0 4.4-3.6 8.7-7.2 13.2-10.8 3.6-2.9 7.6-2.7 8 3.7 0 .2 0 .3-.1.5-.8 1.6-1.7 2.8-2.8 3.7-4.7 3.8-9.4 7.7-14.2 11.6-.2.2-.3.4-.3.7l.1 12.5c0 .3.1.6.3.7 4.4 3.6 8.7 7.1 13.1 10.6 3.5 2.5 6.2 6.4 1.5 10.2zm-9.6-4.8c0-.1 0-.1 0 0l-9.4-7.6c-.1-.1-.3-.1-.4 0l-9.3 7.6c-.1.1-.2.4-.1.5 0 0 0 .1.1.1l9.3 7.6c.1.1.3.1.4 0l9.3-7.6c.2-.2.2-.4.1-.6zM379.5 425.9c-4.7 3.8-9.4 7.6-14 11.4-2.8 2.3-4.9 4.3-7.6 2.2-5.4-4.4-10.8-8.7-16.2-13.1-4.5-3.6-3.3-7.1.7-10.4 4.4-3.7 8.9-7.3 13.4-10.8.2-.2.3-.4.3-.7l-.1-12.7c0-.3-.1-.6-.3-.7-4.2-3.4-8.5-6.8-12.7-10.2-1.8-1.5-3-2.6-3.5-3.4-2.8-4.3 2-9.8 6-6.6 4.8 3.8 9.6 7.7 14.3 11.6.3.2.6.2.9 0 4.4-3.6 8.7-7.2 13.2-10.8 3.6-2.9 7.6-2.7 8 3.7 0 .2 0 .3-.1.5-.8 1.6-1.7 2.8-2.8 3.7-4.7 3.8-9.4 7.7-14.2 11.6-.2.2-.3.4-.3.7l.1 12.5c0 .3.1.6.3.7 4.4 3.6 8.7 7.1 13.1 10.6 3.5 2.5 6.1 6.4 1.5 10.2zm-9.6-4.8c0-.1 0-.1 0 0l-9.4-7.6c-.1-.1-.3-.1-.4 0l-9.3 7.6c-.1.1-.2.4-.1.5 0 0 0 .1.1.1l9.3 7.6c.1.1.3.1.4 0l9.3-7.6c.2-.2.2-.4.1-.6zM286.5 384.2c4.7-3.8 9.4-7.6 14-11.4 2.8-2.3 4.9-4.3 7.6-2.2 5.4 4.4 10.8 8.7 16.2 13.1 4.5 3.6 3.3 7.1-.7 10.4-4.4 3.7-8.9 7.3-13.4 10.8-.2.2-.3.4-.3.7l.1 12.7c0 .3.1.6.3.7 4.2 3.4 8.5 6.8 12.7 10.2 1.8 1.5 3 2.6 3.5 3.4 2.8 4.3-2 9.8-6 6.6-4.8-3.8-9.6-7.7-14.3-11.6-.3-.2-.6-.2-.9 0-4.4 3.6-8.7 7.2-13.2 10.8-3.6 2.9-7.6 2.7-8-3.7 0-.2 0-.3.1-.5.8-1.6 1.7-2.8 2.8-3.7 4.7-3.8 9.4-7.7 14.2-11.6.2-.2.3-.4.3-.7l-.1-12.5c0-.3-.1-.6-.3-.7-4.4-3.6-8.7-7.1-13.1-10.6-3.4-2.6-6.1-6.5-1.5-10.2zm9.6 4.7c0 .1.1.1 0 0l9.4 7.6c.1.1.3.1.4 0l9.3-7.6c.1-.1.2-.4.1-.5 0 0 0-.1-.1-.1l-9.3-7.6c-.1-.1-.3-.1-.4 0l-9.3 7.6c-.1.2-.2.5-.1.6z" class="st6"/><path d="m406.4 424.4 11.4.4.5 81.8H168c-.3-8.9-.4-17.7-.3-26.6.1-11.7-14-12-15-3.2-.4 3.1-.3 13 .2 29.7h-10.4c-.3-5.7-.4-11.4-.2-17.1.3-11.2-15.3-12.5-15 .8.1 5.4 0 10.8-.4 16.3H77.1c-10.5-2.3-8.6-12.5-8.7-20.4.6-13.6.6-27.2 0-40.8.1-7.9-2.1-18 8.6-20 1.9-.3 3.8-.7 5.7-1.1l323.7.2z" class="st1"/></svg>