<?xml version="1.0" encoding="utf-8"?>
<!-- Generator: Adobe Illustrator 27.6.1, SVG Export Plug-In . SVG Version: 6.00 Build 0)  -->
<svg version="1.1" id="Capa_1" xmlns="http://www.w3.org/2000/svg" xmlns:xlink="http://www.w3.org/1999/xlink" x="0px" y="0px"
	 viewBox="0 0 512 512" style="enable-background:new 0 0 512 512;" xml:space="preserve">
<style type="text/css">
	.st0{fill:#96773D;}
	.st1{fill:#876B37;}
	.st2{fill:#A68343;}
	.st3{fill:#997738;}
	.st4{opacity:0.16;}
	.st5{fill:#4A4638;}
</style>
<g>
	<path class="st0" d="M506.9,255c0,137.9-112,251.8-249.9,251.8c-124.3,0-229.1-92.6-248.6-211.8c4.8-0.7,9.5-1.3,14.3-1.9
		c4.4-0.5,7.5-1.6,10.8-4c1-0.7,2.1-0.9,3.3-0.6c3,0.8,5.7,2,8.3,3.6c2.2,1.4,4.4,3.4,6.6,5.5c3.1,3.1,6.1,6.4,8.8,8.2
		c4.8,3.3,10.2,4.8,16.2,4.6c2.9-0.1,6.9-1.7,10.2-1.2c5.5,0.8,8,4.5,12.6,6.8c1.4,0.7,2.1,0.4,2.1-0.9c0.1-2.1,0.2-4.2,0.5-6.3
		c1.5-11.9,11.6-17.6,22.1-20.4c0.3-0.1,0.5-0.2,0.6-0.5c0.7-2-0.8-2.5-2.5-2.5c-10.2-0.1-21.9,1.8-27.2,11.7
		c-0.7,1.3-1.4,2.5-2,3.7c-0.4,0.7-1.2,1.2-2,1.1c-5.7-0.7-10.5,0.3-16,1.4c-7.5,1.5-5.3-6.6-6.6-10.2c-0.7-1.9-1.9-3.5-3.6-4.7
		c-5.6-4-11.1-8.1-16.5-12.4c-1.4-1.1-2.8-2.2-4.2-3.4c-0.4-0.3-0.6-0.9-0.4-1.4c0.1-0.2,0.4-0.7,0.7-0.8c1.2-0.6,2.3-1.3,3.3-2
		c3.8-2.7,6.6-6.2,9.6-10.2c9.4-12.6,27.3-13.5,41.5-13.9c3.3-0.1,2.9-2.5,2-4.7c-10.1-24.4,18.8-15.8,21.9-33.5
		c0-0.3-0.2-0.6-0.4-0.2c-5.2,8-12.2,10.3-21.1,13.9c-8.1,3.2-7,10-5.8,17c0.3,2.1-0.5,3.2-2.7,3.2c-16.4,0.1-32.1,1-43.2,14.7
		c-0.7,0.9-1.4,1.7-2.1,2.5c-4.9,5.1-10.2,7.7-18.1,6.3c-2.1-0.4-3,0.5-2.5,2.6c1.2,5.5,4.1,14.8-4,16.3c-4.8,0.9-10.9,0-15.9,1.3
		c-1.1-9.4-1.7-19-1.7-28.6C5.1,117.1,119.1,5.1,257,5.1c28.8,0,56.4,4.9,82.2,13.9c-3.7,3.5-7.4,7.2-11,11.6
		c-8.5,10.3-15.1,15.3-28,17.9c-2.1,0.4-2.5,1.4-1.2,2.9c0,0,0,0,0,0c0.2,0.2,0.5,0.4,0.8,0.5c3.8,0.7,7.2,2.2,10.3,4.4
		c0.8,0.6,0.7,1-0.2,1.2c-9.5,2.2-18.1,6.4-25.8,12.7c-6,4.9-3.2,10.2,1.9,14.2c0.3,0.2,0.6,0.3,0.9,0.2c1.2-0.6-6.9-8.5-1.4-12.2
		c10.4-7.1,22.4-12.1,35.2-10c1.4,0.2,9.1,1.3,6.5-1.2c-1.2-1.2-2.9-2.3-4.8-3.5c0,0,0,0,0,0c-2.5-1.6-5.3-3.4-7.4-5.5
		c-0.1-0.1-0.1-0.1-0.1-0.2c-0.2-0.4,0-0.9,0.4-1.1c6.8-3.4,13-7.7,18.5-12.9c0.5-0.5,0.7-0.4,0.6,0.3c-0.8,5.7,1.5,10.5,1.8,16.2
		c0,0.5,0.2,0.7,0.5,0.5c1.6-1,2.5-2.5,2.5-4.5c0.1-1.8,0.5-2,1.3-0.3c3.2,6.6,6.8,13,10.5,19.4c5.2,9.1,10.6,18.2,15.3,27.5
		c0.7,1.4,1.1,1.3,1.3-0.2c0.2-1.9,0.1-3.3-0.8-5.1c-3.2-6.3-6.5-12.6-9.7-18.9c-2.3-4.6-4.6-9.1-6.9-13.7c-2.5-5-5.7-12.2-6.4-16.5
		c-1.3-8-0.3-15.1,2.9-21C440.3,57.8,506.9,148.7,506.9,255z"/>
	<path class="st1" d="M506.9,255c0,137.9-112,251.8-249.9,251.8V5.1c28.8,0,56.4,4.9,82.2,13.9c-3.7,3.5-7.4,7.2-11,11.6
		c-8.5,10.3-15.1,15.3-28,17.9c-2.1,0.4-2.5,1.4-1.2,2.9c0,0,0,0,0,0c0.2,0.2,0.5,0.4,0.8,0.5c3.8,0.7,7.2,2.2,10.3,4.4
		c0.8,0.6,0.7,1-0.2,1.2c-9.5,2.2-18.1,6.4-25.8,12.7c-6,4.9-3.2,10.2,1.9,14.2c0.3,0.2,0.6,0.3,0.9,0.2c1.2-0.6-6.9-8.5-1.4-12.2
		c10.4-7.1,22.4-12.1,35.2-10c1.4,0.2,9.1,1.3,6.5-1.2c-1.2-1.2-2.9-2.3-4.8-3.5c0,0,0,0,0,0c-2.5-1.6-5.3-3.4-7.4-5.5
		c-0.1-0.1-0.1-0.1-0.1-0.2c-0.2-0.4,0-0.9,0.4-1.1c6.8-3.4,13-7.7,18.5-12.9c0.5-0.5,0.7-0.4,0.6,0.3c-0.8,5.7,1.5,10.5,1.8,16.2
		c0,0.5,0.2,0.7,0.5,0.5c1.6-1,2.5-2.5,2.5-4.5c0.1-1.8,0.5-2,1.3-0.3c3.2,6.6,6.8,13,10.5,19.4c5.2,9.1,10.6,18.2,15.3,27.5
		c0.7,1.4,1.1,1.3,1.3-0.2c0.2-1.9,0.1-3.3-0.8-5.1c-3.2-6.3-6.5-12.6-9.7-18.9c-2.3-4.6-4.6-9.1-6.9-13.7c-2.5-5-5.7-12.2-6.4-16.5
		c-1.3-8-0.3-15.1,2.9-21C440.3,57.8,506.9,148.7,506.9,255z"/>
	<path class="st2" d="M464.8,254.9c0,114.4-93.3,209.9-207.8,209.9H257c-99.8,0-185.1-72.7-205.3-167.2c3.1,3.1,6.1,6.4,8.8,8.2
		c4.8,3.3,10.2,4.8,16.2,4.6c2.9-0.1,6.9-1.7,10.2-1.2c5.5,0.8,8,4.5,12.6,6.8c1.4,0.7,2.1,0.4,2.1-0.9c0.1-2.1,0.2-4.2,0.5-6.3
		c1.5-11.9,11.6-17.6,22.1-20.4c0.3-0.1,0.5-0.2,0.6-0.5c0.7-2-0.8-2.5-2.5-2.5c-10.2-0.1-21.9,1.8-27.2,11.7
		c-0.7,1.3-1.4,2.5-2,3.7c-0.4,0.7-1.2,1.2-2,1.1c-5.7-0.7-10.5,0.3-16,1.4c-7.5,1.5-5.3-6.6-6.6-10.2c-0.7-1.9-1.9-3.5-3.6-4.7
		c-5.6-4-11.1-8.1-16.5-12.4c-0.3-2.5-0.5-5-0.6-7.5c3.8-2.7,6.6-6.2,9.6-10.2c9.4-12.6,27.3-13.5,41.5-13.9c3.3-0.1,2.9-2.5,2-4.7
		c-10.1-24.4,18.8-15.8,21.9-33.5c0-0.3-0.2-0.6-0.4-0.2c-5.2,8-12.2,10.3-21.1,13.9c-8.1,3.2-7,10-5.8,17c0.3,2.1-0.5,3.2-2.7,3.2
		c-16.4,0.1-32.1,1-43.2,14.7c-0.7,0.9-1.4,1.7-2.1,2.5c0-0.7,0-1.5,0-2.2c0-114.4,95.4-207.7,209.8-207.8h0.1
		c14.3,0,28.3,1.5,41.9,4.2c0,0,0,0,0,0c0.2,0.2,0.5,0.4,0.8,0.5c3.8,0.7,7.2,2.2,10.3,4.4c0.8,0.6,0.7,1-0.2,1.2
		c-9.5,2.2-18.1,6.4-25.8,12.7c-6,4.9-3.2,10.2,1.9,14.2c0.3,0.2,0.6,0.3,0.9,0.2c1.2-0.6-6.9-8.5-1.4-12.2
		c10.4-7.1,22.4-12.1,35.2-10c1.4,0.2,9.1,1.3,6.5-1.2c-1.2-1.2-2.9-2.3-4.8-3.5c9.9,3.3,19.4,7.3,28.6,11.9
		c5.2,9.1,10.6,18.2,15.3,27.5c0.7,1.4,1.1,1.3,1.3-0.2c0.2-1.9,0.1-3.3-0.8-5.1c-3.2-6.3-6.5-12.6-9.7-18.9
		C421.2,108.3,464.8,176.7,464.8,254.9z"/>
	<path class="st3" d="M464.8,254.9c0,114.4-93.3,209.9-207.8,209.9V47.2c14.3,0,28.3,1.5,41.9,4.2c0,0,0,0,0,0
		c0.2,0.2,0.5,0.4,0.8,0.5c3.8,0.7,7.2,2.2,10.3,4.4c0.8,0.6,0.7,1-0.2,1.2c-9.5,2.2-18.1,6.4-25.8,12.7c-6,4.9-3.2,10.2,1.9,14.2
		c0.3,0.2,0.6,0.3,0.9,0.2c1.2-0.6-6.9-8.5-1.4-12.2c10.4-7.1,22.4-12.1,35.2-10c1.4,0.2,9.1,1.3,6.5-1.2c-1.2-1.2-2.9-2.3-4.8-3.5
		c9.9,3.3,19.4,7.3,28.6,11.9c5.2,9.1,10.6,18.2,15.3,27.5c0.7,1.4,1.1,1.3,1.3-0.2c0.2-1.9,0.1-3.3-0.8-5.1
		c-3.2-6.3-6.5-12.6-9.7-18.9C421.2,108.3,464.8,176.7,464.8,254.9z"/>
</g>
<path class="st4" d="M374.9,314.4c-7.1-0.4-14.1,1.2-21.1,4.8c-0.3,0.2-0.7,0.1-1-0.2l-27.4-27.6c0.1-0.7,0.2-1.4,0.2-2.1
	c0.4-6.4-2.2-11.8-8-16.1c7.5-15.3,9.4-30.8,5.9-46.4c-0.3-1.3-0.6-2.5-1-3.8l30.3-30.3c0.3-0.2,0.6-0.3,1-0.1
	c19.2,10.6,43,3.5,51.6-17c8.2-19.3-1.4-40.6-20.7-48c-0.2-0.1-0.4-0.2-0.5-0.4c-13.5-33.8-62-30.4-69.2,5.3
	c-1.8,8.7-0.4,17.3,4.2,25.6c0.2,0.3,0.1,0.7-0.1,1l-25.4,25.3c-21.1-13.3-49.1-14.7-72.8,0.3c-0.5,0.3-0.9,0.6-1.4,1l-26.7-26.6
	c-0.3-0.2-0.3-0.7-0.1-1c8.9-16.2,5.4-36.9-9.9-47.7c-19.9-14.1-46.4-5.7-55.1,16.7c-0.1,0.2-0.2,0.4-0.4,0.5
	c-29.2,11.9-32.3,51.9-3.5,66.2c11,5.5,22.5,5,34.4-1.2c0.3-0.2,0.7-0.1,1,0.1l32.4,32.6c-3.7,15.1-2.2,31.5,5.2,46.8
	c0.3,0.6,0.1,1.2-0.3,1.6c-4.9,4.5-7,9.8-7,15l-30.2,30.2c-0.2,0.2-0.6,0.3-1,0.1c-10.3-5.5-20.5-6.4-30.7-2.8
	c-31.8,11.4-31.7,55.7-0.3,67.8c0.2,0.1,0.4,0.2,0.5,0.5c5,13.2,17.1,22.5,31,23.5c29.8,2.2,47.8-28.9,34-54.5
	c-0.2-0.3-0.1-0.7,0.2-1l19.5-19.4c2.1,5,6.3,8.4,15.3,8.9l-0.2-23.9l0-6.1c0-0.6,0.3-1.1,0.9-1.3c3-1.2,5.5-1.4,7.3-0.7l0,0
	c0,0,0,0,0.1,0c0.1,0,0.2,0.1,0.2,0.1c0.2,0.1,0.3,0.2,0.5,0.3c0.1,0.1,0.3,0.2,0.4,0.3c0.1,0.1,0.2,0.1,0.2,0.2h0c0,0,0,0,0,0
	c0.1,0.1,0.1,0.1,0.2,0.2c0,0,0,0,0,0c0.1,0.1,0.2,0.2,0.3,0.4c0.1,0.1,0.1,0.2,0.2,0.3c0.1,0.1,0.2,0.2,0.2,0.3
	c0.1,0.2,0.2,0.3,0.3,0.5c0.1,0.1,0.1,0.2,0.1,0.3c0,0.1,0.1,0.2,0.1,0.4c0,0.1,0,0.1,0.1,0.2c0.1,0.4,0.2,0.8,0.3,1.3
	c0,0.1,0,0.2,0,0.3c0,0.2,0.1,0.4,0.1,0.6c0,0.2,0,0.4,0.1,0.7c0,0,0,0,0,0c0,0.1,0,0.2,0,0.3c0,0.3,0,0.6,0,0.9
	c0,8.1,0,16.2,0,24.3h12.2l0-26.2c0-2.4,0.9-4.3,2.8-5.9c2.9-2.5,6-1.7,9.2,2.2c0.2,0.2,0.3,0.6,0.3,0.9l0.3,29h12.2L276,315v-0.1
	c0-0.1,0-0.3,0-0.4c0-0.1,0-0.2,0-0.3c0-0.1,0-0.2,0-0.3c0-0.1,0-0.3,0.1-0.4c0-0.1,0.1-0.3,0.1-0.4c0.1-0.2,0.1-0.3,0.2-0.5
	c0-0.1,0.1-0.1,0.1-0.2c0-0.1,0.1-0.2,0.1-0.2c0-0.1,0.1-0.1,0.1-0.2c0.1-0.1,0.2-0.3,0.3-0.4c0.1-0.1,0.2-0.2,0.4-0.4
	c0.6-0.6,1.5-1,2.5-1.3c5.3-1.5,8.1,1.9,8.1,7c0,8.4,0,16.7,0,25c6.9-0.7,11.1-3.1,13.5-6.6l17.4,17.4c0.3,0.2,0.3,0.6,0.1,1
	c-12.1,22.2-0.4,49.6,25.1,54.1c17.5,3.1,33.2-6.9,39.9-22.9c0.1-0.2,0.2-0.3,0.3-0.4c0.9-0.5,1.9-1.1,2.9-1.5
	C421.2,367.2,411.4,316.7,374.9,314.4z M255.5,212.4c0.3-7.2,4.3-8.4,11-8.8c11-0.7,17.1-9.2,24.2-16.6c0.3-0.3,0.7-0.5,1.1-0.4
	c1.2,0.1,2.1,0.8,2.5,2c0.2,0.5,0,1-0.3,1.3l-3.4,4c-0.4,0.5-0.5,1.3,0,1.8c4.2,5.1,9.9,9.9,4.2,16.8c-1.8,2.1-9.6,5.7-8.7,0.6
	c0-0.3,0.2-0.6,0.5-0.8c2.8-2.4,9-2.9,5-8.6c-1.3-1.8-2.8-3.4-4.5-4.7c-0.6-0.4-1.4-0.3-1.9,0.2c-5.3,6.1-12.1,9-20.3,8.9
	c-2.8-0.1-4.4,1.3-4.7,4.2c-0.6,6-0.7,12-0.2,18c0.2,2.4-1.1,3.7-3.6,2.5c-0.5-0.2-0.8-0.7-0.8-1.2
	C255.2,225,255.2,218.7,255.5,212.4z M241.2,265c-8.5,11.8-22.2,8.8-28.2,0.4c-0.4-0.6-0.8-1.2-1.1-1.8c-0.2-0.3-0.3-0.6-0.5-1
	c-0.1-0.3-0.3-0.7-0.4-1c-0.1-0.3-0.2-0.7-0.3-1c0,0,0,0,0,0c-0.1-0.3-0.2-0.7-0.3-1c-0.1-0.3-0.1-0.7-0.2-1c0,0,0,0,0-0.1
	c-0.1-0.4-0.1-0.7-0.1-1.1c0-0.2,0-0.4,0-0.7c0-0.4,0-0.8,0-1.2c0-0.7,0.1-1.3,0.2-2c0-0.3,0.1-0.5,0.1-0.8c0.1-0.5,0.2-0.9,0.4-1.4
	c0.4-1.4,1.1-2.8,1.9-4.2c2.2-3.7,5.4-6.1,9.6-7.4C238,236,248.5,251,241.2,265z M268.3,294.7c-1.6,0.4-3.4,0.5-5.4,0.3
	c-0.5,0-1,0-1.5,0c-0.8,0-1.8,0.1-2.7,0.2c-0.6,0.1-1.2,0.1-1.8,0.2c-0.3,0-0.7,0.1-1,0.1s-0.7,0.1-1,0.1c-0.4,0-0.8,0.1-1.2,0.1
	c0,0-0.1,0-0.1,0c-0.6,0.1-1.2,0.1-1.8,0.1c0,0,0,0-0.1,0c-0.2,0-0.3,0-0.5,0c-4.7,0.1-8-1.3-4.9-8c2.7-5.9,5.9-11.4,9.8-16.6
	c0.5-0.6,1.4-0.7,2-0.3c0,0,0,0,0.1,0l5.6,4.9l0.8,1.8c-0.3,2.8,4.4,9.5,5.9,12.3C271.6,292.6,270.9,294.1,268.3,294.7z M288,272.8
	c-9.3,0-16.9-7.6-16.9-16.9s7.5-16.9,16.9-16.9s16.9,7.5,16.9,16.9S297.3,272.8,288,272.8z"/>
<path class="st5" d="M253.4,295.9c-0.6,0.1-1.3,0.1-1.9,0.1c0,0,0.1,0,0.1,0C252.1,296,252.7,296,253.4,295.9z"/>
</svg>
