<?xml version="1.0" encoding="utf-8"?>
<!-- Generator: Adobe Illustrator 27.6.1, SVG Export Plug-In . SVG Version: 6.00 Build 0)  -->
<svg version="1.1" id="Capa_1" xmlns="http://www.w3.org/2000/svg" xmlns:xlink="http://www.w3.org/1999/xlink" x="0px" y="0px"
	 viewBox="0 0 512 512" style="enable-background:new 0 0 512 512;" xml:space="preserve">
<style type="text/css">
	.st0{fill:#FFBB33;}
	.st1{opacity:0.23;}
	.st2{fill:#FF3F3F;}
	.st3{fill:#FF9933;}
	.st4{opacity:0.13;}
</style>
<g>
	<path class="st0" d="M465,258.5v8.3c0,12-9.7,21.8-21.8,21.8H68.8c-12,0-21.8-9.7-21.8-21.8v-8.3c0-12,9.7-21.8,21.8-21.8h374.4
		C455.3,236.7,465,246.4,465,258.5z"/>
	<path class="st0" d="M425.3,273.9c0,4.9-0.1,9.8-0.4,14.7C419.3,406.9,346,500.7,256,502.1c-0.7,0-1.4,0-2.1,0
		c-91,0-165.4-94.3-171-213.5c-0.3-4.8-0.4-9.7-0.4-14.7c0-12.7,0.8-25.1,2.3-37.2c8.8-71.3,42.4-131.5,88.7-164.3
		c4-2.8,8-5.4,12.2-7.8c20.9-12.1,44-18.8,68.3-18.8c0.7,0,1.4,0,2.1,0c23.5,0.4,45.8,7,66.1,18.7c4.1,2.4,8.1,4.9,12,7.7
		c46.4,32.7,80.1,93,88.9,164.5C424.5,248.8,425.3,261.2,425.3,273.9z"/>
	<path class="st1" d="M234.1,472.5c-9.4,3-42.5-15.9-51.3-21.3c-45.8-28.2-61.3-73.1-64.8-124.3c-1.4-20.9-2.2-41.9-2.2-62.9
		c0-15.2,3.5-31.6,23.2-29.8c6.3,0.6,11.8,1.4,16.6,2.6c20.9,5,36.3,9.1,46.3,12.3c12.5,4,15.3,18.4,24.1,27
		c5.1,5,10.9,9.3,17.3,12.6c4.3,2.3,5.6,6.4,5.7,11c0.4,48.6-2.9,92.4-6,148.5C242.5,456.9,242.9,469.7,234.1,472.5z"/>
	<path class="st1" d="M273.2,471.4c-1.5-0.9-2.6-2.1-3.3-3.7c-1.7-3.8-2.5-7.7-2.7-12.2c-2.6-49.1-6.1-97.9-6.5-147.1
		c0-7.2-1.3-15.5,6-19.8c8.3-4.8,15.8-9.9,20.6-16.6c6.9-9.6,9.6-20.1,23.8-24c14.8-4.1,29.6-8,44.6-11.5c5.8-1.4,11.6-2.2,17.6-2.4
		c19.1-0.6,20.7,18.7,20.7,32.8c0,23.1-1,45.6-2.9,67.4c-4.3,49.2-21.2,90.8-64.4,117.1c-11.5,7-24.7,13.7-37.8,18.9
		C283.8,472.3,277.7,474.1,273.2,471.4z"/>
	<path class="st1" d="M229.4,101.1c14.9,1,29.8,0.9,44.7-0.3c16-1.2,35.6-5.8,50.7,1.7c3.9,1.9,8.1,4.8,12.5,8.6
		c28.5,24.4,42.8,60.2,39.2,97.9c-1.2,12.3-12.7,12.3-22.1,14.4c-24.7,5.4-46.1,9.3-64.4,11.6c-30.4,3.9-60.7,3.4-91-1.5
		c-21.1-3.5-42.1-7.5-63-12c-7.4-1.6-11.8-4.5-12.7-12.3c-4.5-38.9,14-82.9,47.5-104.3C187.9,94,210.2,99.9,229.4,101.1z"/>
	<path class="st2" d="M269.2,259.3c-6.5-8.1-10.6-13.1-12.2-15c-0.7-0.8-1.6-1.2-2.9-1.3l-0.1,0c-1.4-0.1-2.4,0.3-3.1,1.1
		c-1.6,1.9-5.8,7-12.4,15.3c-1.9,2.3-1.6,4.2,0.3,6.6c4,5,8.1,10,12.1,15c0.4,0.5,1.3,1,2.7,1.3l0.4-0.1c1.4-0.1,2.4-0.6,3.2-1.5
		c1.7-2,5.7-7,12.2-15C271.2,263.4,270.9,261.5,269.2,259.3z"/>
	<path class="st3" d="M159.5,9.9l1.2,0c4.8,4.1,8.9,9.1,12.5,15c1.4,2.3,3.3,2.9,5.6,1.8l4.1-2c1.8-0.9,2.5-0.3,2.1,1.6
		c-0.9,4.9-1.6,9.9-2.1,14.9c-2.4,25.6,11.2,42,30.1,57.7c2,1.7,2.2,3.1,0.8,4.3l-5.3,4.3c-1.8,1.5-3.9,1.2-6.3-0.8
		c-22.3-18.9-40.5-48.2-44.1-77.3C157.2,22.8,157.7,16.4,159.5,9.9z"/>
	<path class="st3" d="M350,22.5c-2.1,18.3-7.4,34.9-15.9,49.7c-5.5,9.7-12.4,18.7-20.6,26.9c-1.7,1.8-3.6,3.5-5.4,5.2
		c-6.1,5.5-10.7,4.1-14.9-2.6c-0.4-0.6-0.3-1.4,0.3-1.9c0.4-0.3,0.8-0.7,1.2-1c7.3-6.1,14.9-13.9,20-20.8c3.4-4.5,5.7-9,7.3-13.5
		c4.3-12.2,2.9-24.8,0.2-39.1c-0.2-1,0.3-1.4,1.3-1.3c0.3,0,0.7,0.2,0.9,0.4c8.9,8.9,15.5-11,22.5-14.5h1.1
		C349.9,13.8,350.6,18,350,22.5z"/>
	<path class="st4" d="M465,258.5v8.3c0,12-9.7,21.8-21.8,21.8h-18.3C419.3,406.9,346,500.7,256,502.1V45.7
		c23.5,0.4,45.8,7,66.1,18.7c4.3-12.2,2.9-24.8,0.2-39.1c-0.2-1,0.3-1.4,1.3-1.3c0.3,0,0.7,0.2,0.9,0.4c8.9,8.9,15.5-11,22.5-14.5
		h1.1c1.8,3.9,2.4,8.1,1.9,12.5c-2.1,18.3-7.4,34.9-15.9,49.7c46.4,32.7,80.1,93,88.9,164.5h20.2C455.3,236.7,465,246.4,465,258.5z"
		/>
</g>
</svg>
