<svg xmlns="http://www.w3.org/2000/svg" xml:space="preserve" id="Capa_1" x="0" y="0" style="enable-background:new 0 0 512 512" version="1.1" viewBox="0 0 512 512"><style>.st3{fill:#7e7e7e}.st5{fill:#ffe1bd}.st6{fill:#ffbd86}</style><path d="M453.3 68.5c-8.7 24-20.2 39.5-45.8 71.7-20.9 26.4-43.4 54-67.4 82.6-45.7 55.4-94.3 111.9-146 169.3L157.9 365c56.6-57.9 94.7-98.1 136.6-145.8C337.8 169.9 397.4 98.8 463.9 8c-.1 14.6-1.9 36.3-10.6 60.5z" style="fill:#b3b3b3"/><path d="M442 77.9c-7.7 21.2-20.4 33.9-43.1 62.5-18.6 23.4-41 50.2-62.3 75.6-40.5 49.1-79.7 97.1-125.5 148l-22-20c50.1-51.3 82-87.4 119.1-129.6 38.4-43.8 91.4-108.9 150.4-189.4-.2 13.1-8.9 31.5-16.6 52.9z" style="fill:#999"/><path d="M125 320.5c-8.1-5-16.1-10-23.9-15.1-2.9-1.9-3.9-1.2-3.1 2.2l13.2 54.7c.1.5.4 1 .8 1.3l22.6 20.2-19 22.6-1.8 2-19.6 22.8-1.8 2.2-20.2 22c-2.3-.7-4.6-1.8-6.7-3.4-.1-.1-.3-.2-.4-.2-1.3-.6-2.8 0-3.4 1.2l-13.4 29.3c-.6 1.3 0 2.8 1.2 3.3l38.8 18.2c.5.2 1.1.3 1.6.2l36.2-7.5c3.9-.8 4.2-2.3.9-4.6l-12.8-8.7c9.1-5.2 12.5-12.6 10.4-22.3l1.9-1.6c15 4.6 27.7-9.2 20.2-23.2l.7-1.8c15.1 3.3 22.7-2.9 22.8-18.6.9-1.1 33.1 27.2 36.7 30.2.9.7 2.1.8 3.1.1l51.1-35.9c.3-.2.5-.4.7-.7.7-1.2.4-2.7-.8-3.5l-18.3-11.5c-.5-.3-.9-.8-1.1-1.4-1.9-6-2.7-12.1-2.5-18.4l-2.1-12.9-7.1-39.7c-.2-1.2-1.3-2.1-2.6-2.1l-65.5 2" style="fill:#5b5b5b"/><path d="M170.1 415.8c-.1 15.7-7.7 21.9-22.8 18.6l-31.8-28 19-22.6 34.3 29.4c.3.3.5.6.7 1l.6 1.6zM113.7 408.4l32.9 27.8c7.5 14-5.2 27.8-20.2 23.2l-32.3-28.2 19.6-22.8zM92.3 433.4l32.2 27.5c2.1 9.7-1.3 17.1-10.4 22.3l-42-27.8 20.2-22z" class="st3"/><path d="M203.5 385.2c-6.5-1.5-11.5-5-15-10.7l.2-.6c.8-1.5.6-4.1-1.9-3.2-.2.1-.5 0-.6-.3-.6-1.4-.9-2.9-.9-4.5 5-2 5.6-8.3.7-10.9 1.9-6 5.6-10.6 11.2-13.7.4-.2.6-.7.7-1.1 16.1 2.3 25.1 19.6 17.6 34-2.7 5-6.7 8.7-12 11z" style="fill:#fff1ce"/><path d="M197.8 340.3c-.1.4-.3.8-.7 1.1-5.5 3.1-9.2 7.6-11.2 13.7-1.4-.6-2.8-.7-4.2-.2-7.1 2.4-4.1 13 3.5 11.1 0 1.5.3 3 .9 4.5.1.2.4.4.6.3 2.5-.9 2.6 1.7 1.9 3.2l-.4-2.5c0-.3-.3-.4-.6-.4-2.2.5-4.3 1.2-6.3 2.2-4.3 2 1.3 4.1 2.8 5.6.5.5 1 .9 1.5 1.1.8.4 1.4.2 1.6-.8.2-1.1.5-3.9 1.2-4.5 3.5 5.7 8.5 9.2 15 10.7.5 2.4 0 4.4-1.5 6-2.8 2.8-5.9 3.2-9.5 1-.2-.1-.4-.1-.6.1-3.3 3.6-6.1 8.1-11.5 4.3 1.9-2.2 3.7-4.4 5.6-6.6 1.1-1.4 1.1-2.9-.6-3.7-.9-.4-1.6-.2-2.2.5l-6 7.2-3.2-2.7 6.4-7.7c.1-.1.1-.2.1-.3 0-1.7-.6-2.6-1.9-2.6-.8 0-1.5.3-2.1.9l-5.9 6.9-3.2-2.7c1.8-2.1 3.6-4.3 5.4-6.4 1.6-1.9 1.2-3.4-1.3-4.3-.2-.1-.4 0-.5.1l-6.6 8c-5.1-4.8-.5-8.2 2.3-12.3.1-.2.1-.4 0-.6-4-4.8-1.7-11.8 4.8-12.1.2 0 .4-.2.5-.4 3-11.8 13.8-19.3 25.9-17.7z" class="st5"/><path d="M196.4 360.8c-.1-.2 0-.4.1-.5 1.4-1.7 2.8-3.4 4.3-5 1.7-1.8 3-1.2 4.8.1 3 2.3 6.6 1.4 10.1 1 .1 0 .3 0 .4.1.3.3.4.7.2 1.1-.1.2-.2.3-.4.3l-1.8.3c-.2 0-.4.2-.4.5 0 2.3.4 4.8-2.7 5.4-.9.2-3.8-.6-2.4-1.8.1-.1.2-.1.3-.1 1.3 0 3 1.2 3.2-1.2.1-.8 0-1.5-.1-2.2-.1-.2-.3-.4-.5-.4-2.8.4-5.2-.3-7.3-2.2-.7-.7-1.5-.6-2.2 0-1.5 1.4-2.9 3-4.1 4.7-.5.7-1.1.8-1.5-.1z" class="st5"/><path d="M185.2 365.9c-7.6 1.9-10.6-8.7-3.5-11.1 1.4-.5 2.8-.4 4.2.2 4.9 2.6 4.4 8.9-.7 10.9z" class="st6"/><circle cx="199.6" cy="374" r="5.8" class="st6"/><path d="m188.6 373.9-.2.6c-.7.7-1 3.5-1.2 4.5-.2.9-.7 1.2-1.6.8-.5-.3-1-.6-1.5-1.1-1.5-1.5-7.1-3.6-2.8-5.6 2-1 4.1-1.7 6.3-2.2.3-.1.5.1.6.4l.4 2.6zM174 391.4l-3.3-2.8 5.9-6.9c.5-.6 1.2-.9 2.1-.9 1.3 0 2 .9 1.9 2.6 0 .1 0 .2-.1.3l-6.5 7.7zM180.4 396.7l-3.2-2.6 6-7.2c.6-.7 1.3-.9 2.2-.5 1.7.8 1.7 2.3.6 3.7-1.9 2.2-3.8 4.4-5.6 6.6zM167.4 385.8l-3-2.6 6.6-8c.1-.2.3-.2.5-.1 2.5.9 2.9 2.4 1.3 4.3-1.8 2.2-3.6 4.3-5.4 6.4z" class="st6"/></svg>