<svg xmlns="http://www.w3.org/2000/svg" xml:space="preserve" id="Capa_1" x="0" y="0" style="enable-background:new 0 0 512 512" version="1.1" viewBox="0 0 512 512"><style>.st0{fill:#c2c2c2}.st1{fill:#1c140b}.st4{fill:#f90000}.st5{fill:#9c9c9c}</style><path d="M113.9 399.3 98 382.9c-.2.5-.5.9-.9 1.3-13.2 13-30.1 30-50.7 51 8.3 1.7 15.5 5.2 21.7 10.6 5.6 6.2 9 13.4 10.3 21.7l21.7-21.3 15.4-15.3 15.2-14.9-16.8-16.7zm-29.7 30.9h-.3.3zm.5.2c-.1 0-.1-.1-.2-.1 0 0 .1.1.2.1zm-1-.2c-.1 0-.2 0-.3.1.1 0 .2 0 .3-.1zm-.7.4c.1-.1.1-.1.2-.1 0 0-.1 0-.2.1zm17.6-17.4v.3-.3zm.2-.5c0 .1-.1.1-.1.2 0 0 .1-.1.1-.2zm.2 1.7c-.1-.1-.1-.1-.1-.2 0 .1.1.1.1.2zm-.3-.7c0 .1 0 .2.1.2-.1 0-.1-.1-.1-.2z"/><path d="M502.5 12.5v5.1c-2.3 19-4.5 38.1-6.5 57.1-.4 3.4-1.1 5.7-2.2 6.8-108.3 108.4-216.7 216.7-325.1 325.1-.2.4-.6.4-1.1.2-13.1-6.9-24.7-15.7-34.8-26.4L502 11.3c.2.4.4.8.5 1.2z" class="st0"/><path d="m113.9 399.3 16.7 16.6-15.2 14.9c-4.2-6-9-11.5-14.4-16.4-.5-.5-.6-1.3-.1-1.9l13-13.2zM100.1 446.1l-21.7 21.3c-1.3-8.3-4.7-15.5-10.3-21.7L83 430.6c.5-.5 1.4-.5 1.9 0l15.2 15.5z" class="st1"/><path d="M46.4 435.2c8.3 1.7 15.5 5.2 21.7 10.6 5.6 6.2 9 13.4 10.3 21.7-.7 20.9-11.2 33.2-31.6 36.9h-6.4c-17.6-2.9-27.9-13.1-30.9-30.7v-7.4c3.1-17.1 13.1-27.1 29.9-30 1.9-.4 4.7-.1 7-1.1z" style="fill:#ffd928"/><circle cx="43.7" cy="470.1" r="11.4" style="fill:#0597ff"/><path d="m44.849 325.592 20.576-20.577L207.27 446.86l-20.576 20.577z" class="st0"/><circle cx="197.1" cy="457.2" r="25.1" class="st0"/><circle cx="197.1" cy="457.2" r="17.7" class="st4"/><path d="m44.92 325.569 20.576-20.577 71.558 71.559-20.576 20.576z" class="st5"/><circle cx="56" cy="316.2" r="25.1" class="st5"/><circle cx="56" cy="316.2" r="17.7" class="st4"/><path d="M502 11.3 132.8 380.4c-.5-.5-.9-1-1.4-1.4l-.6-.3c-11-10.6-20.2-22.4-27.8-35.6-.1-.2-.1-.5-.1-.7l.1-.4C263.6 181.8 369.9 75.5 422 23.1c4.4-4.4 7.8-8.5 14.1-9.1 19-1.9 37.9-4 56.8-6.3h5.1l2.7 1.7c.5.7 1 1.3 1.3 1.9z" class="st5"/><path d="m175.1 423.7-12.4 12.4c-4 4-10.4 4-14.3 0l-70.8-70.8c-4-4-4-10.4 0-14.3L90 338.5c4-4 10.4-4 14.3 0l70.8 70.8c4 4 4 10.4 0 14.4z" style="fill:#919191"/></svg>