<svg xmlns="http://www.w3.org/2000/svg" xml:space="preserve" id="Layer_1" x="0" y="0" style="enable-background:new 0 0 512 512" version="1.1" viewBox="0 0 512 512"><style>.st0{fill:#764528}.st3{fill:#8d5333}.st6{fill:#2c2f38}</style><path d="M44.8 44.8h422.4v422.4H44.8V44.8z" class="st0"/><path d="m481 22.3.2-.1c-.4-7.4-.3-14.8.1-22.2h-467c-3 .5-5.5 1.4-7.5 2.8C3.2 5.1 1 8.8 0 13.9v484c1.4 7.9 6 12.6 13.9 14.1h466.8c.6-7.4.6-14.8.1-22.2-7.8-2.3-8.4-11.6-1.6-14.7.6-.3 1.2-.5 1.8-.6V37.6l-.3-.3c-8.5-2.2-8.2-13.1.3-15zm-451.1 0c4.2 0 7.6 3.4 7.6 7.6 0 1-.2 2-.6 2.9-1.2 2.7-3.9 4.7-7 4.7-4.2 0-7.6-3.4-7.6-7.6 0-3.2 1.9-5.9 4.6-7 .9-.4 1.9-.6 3-.6zm0 467.4c-4.2 0-7.6-3.4-7.6-7.6 0-4.2 3.4-7.6 7.6-7.6 4.2 0 7.6 3.4 7.6 7.6 0 4.2-3.4 7.6-7.6 7.6zm422-29.1c-13 0-26.1-.1-39.2-.1H59c-6.6 0-7.5-5.3-7.5-11-.1-116.4-.1-232.7 0-349-.1-13.7-.1-27.3 0-41 .1-4.4 1.9-6.4 4.8-7.2 1.5-.5 3.3-.6 5.3-.7 12.5-.2 24.9-.1 37.4 0h353.9c6.6 0 7.5 5.3 7.5 11 .1 116.6.1 233.2 0 349.8.1 22.5.1 35.9 0 40.2 0 1.2-.2 2.3-.5 3.2-1 3.2-3.7 4.8-8 4.8z" style="fill:#c07149"/><path d="M481.3 0h16.8c8 1.5 12.7 6.3 13.9 14.3v483.8c-1.5 7.9-6.2 12.5-14.1 13.9h-17.2c.6-7.4.6-14.8.1-22.2h.5c10.4.6 11.9-13.1 1.7-15.4-.6-.1-1.1-.1-1.7.2l-.2-.1v-437c12.2-.1 11.4-15.8.2-15.3-.4-7.4-.4-14.8 0-22.2z" style="fill:#a8633f"/><circle cx="29.9" cy="29.9" r="7.6" class="st3"/><path d="m481 22.3-.3 15c-8.5-2.2-8.2-13.1.3-15z" class="st3"/><path d="m481 22.3.2-.1c11.1-.5 11.9 15.3-.2 15.3l-.3-.3.3-14.9zm.2 467.4c-.4-5.1-.4-10.1 0-15.2.5-.3 1.1-.3 1.7-.2 10.2 2.3 8.7 16-1.7 15.4z" class="st0"/><circle cx="29.9" cy="482.1" r="7.6" class="st3"/><path d="m481 474.5.2.1c-.4 5.1-.4 10.1 0 15.2h-.5c-8.4-2.6-8.3-13.3.3-15.3z" class="st3"/><path d="M156.6 172.6H86.1c-7.8 0-14-6.3-14-14V88.1c0-7.8 6.3-14 14-14h70.5c7.8 0 14 6.3 14 14v70.5c0 7.8-6.2 14-14 14zm134.6 0h-70.5c-7.8 0-14-6.3-14-14V88.1c0-7.8 6.3-14 14-14h70.5c7.8 0 14 6.3 14 14v70.5c.1 7.8-6.2 14-14 14zm134.7 0h-70.5c-7.8 0-14-6.3-14-14V88.1c0-7.8 6.3-14 14-14h70.5c7.8 0 14 6.3 14 14v70.5c0 7.8-6.3 14-14 14zM156.6 305.3H86.1c-7.8 0-14-6.3-14-14v-70.5c0-7.8 6.3-14 14-14h70.5c7.8 0 14 6.3 14 14v70.5c0 7.7-6.2 14-14 14zm269.3 0h-70.5c-7.8 0-14-6.3-14-14v-70.5c0-7.8 6.3-14 14-14h70.5c7.8 0 14 6.3 14 14v70.5c0 7.7-6.3 14-14 14zM156.6 438.9H86.1c-7.8 0-14-6.3-14-14v-70.5c0-7.8 6.3-14 14-14h70.5c7.8 0 14 6.3 14 14v70.5c0 7.7-6.2 14-14 14zm134.7 0h-70.5c-7.8 0-14-6.3-14-14v-70.5c0-7.8 6.3-14 14-14h70.5c7.8 0 14 6.3 14 14v70.5c0 7.7-6.3 14-14 14zm134.6 0h-70.5c-7.8 0-14-6.3-14-14v-70.5c0-7.8 6.3-14 14-14h70.5c7.8 0 14 6.3 14 14v70.5c0 7.7-6.3 14-14 14z" style="fill:#4f2a10"/><path d="M203.1 206.7H309v67.6c0 24.9-23.7 45-53 45s-53-20.2-53-45v-67.6h.1z" style="fill:#f0c419"/><path d="M273.7 248.7c0 9.8-7.9 17.7-17.7 17.7s-17.7-7.9-17.7-17.7S246.2 231 256 231c9.8 0 17.7 8 17.7 17.7z" class="st6"/><path d="M256 292.8c-4.9 0-8.8-4-8.8-8.8v-17.7c0-4.9 4-8.8 8.8-8.8 4.8 0 8.8 4 8.8 8.8V284c.1 4.9-3.9 8.8-8.8 8.8z" class="st6"/><path d="M480.7 512H13.9C6 510.5 1.4 505.8 0 497.9v-484C1 8.8 3.2 5.1 6.8 2.8L27 23l10 9.9 19.4 19.4L460 455.9l19.3 19.3c-6.7 3.1-6.2 12.4 1.6 14.7.4 7.3.4 14.7-.2 22.1z" style="opacity:.1;stroke:#000;stroke-miterlimit:10"/></svg>