<?xml version="1.0" encoding="utf-8"?>
<!-- Generator: Adobe Illustrator 27.6.1, SVG Export Plug-In . SVG Version: 6.00 Build 0)  -->
<svg version="1.1" id="Capa_1" xmlns="http://www.w3.org/2000/svg" xmlns:xlink="http://www.w3.org/1999/xlink" x="0px" y="0px"
	 viewBox="0 0 512 512" style="enable-background:new 0 0 512 512;" xml:space="preserve">
<style type="text/css">
	.st0{fill:#B3B3B3;}
	.st1{fill:#999999;}
	.st2{fill:#5B5B5B;}
	.st3{fill:#7E7E7E;}
	.st4{fill:#FFF1CE;}
	.st5{fill:#FFE1BD;}
	.st6{fill:#FFBD86;}
</style>
<g>
	<path class="st0" d="M453.3,68.5c-8.7,24-20.2,39.5-45.8,71.7c-20.9,26.4-43.4,54-67.4,82.6c-45.7,55.4-94.3,111.9-146,169.3
		l-36.2-27.1c56.6-57.9,94.7-98.1,136.6-145.8C337.8,169.9,397.4,98.8,463.9,8C463.8,22.6,462,44.3,453.3,68.5z"/>
	<path class="st1" d="M442,77.9c-7.7,21.2-20.4,33.9-43.1,62.5c-18.6,23.4-41,50.2-62.3,75.6c-40.5,49.1-79.7,97.1-125.5,148l-22-20
		c50.1-51.3,82-87.4,119.1-129.6c38.4-43.8,91.4-108.9,150.4-189.4C458.4,38.1,449.7,56.5,442,77.9z"/>
	<g>
		<path class="st2" d="M125,320.5c-8.1-5-16.1-10-23.9-15.1c-2.9-1.9-3.9-1.2-3.1,2.2l13.2,54.7c0.1,0.5,0.4,1,0.8,1.3l22.6,20.2
			l-19,22.6l-1.8,2l-19.6,22.8l-1.8,2.2l-20.2,22c-2.3-0.7-4.6-1.8-6.7-3.4c-0.1-0.1-0.3-0.2-0.4-0.2c-1.3-0.6-2.8,0-3.4,1.2
			l-13.4,29.3c0,0,0,0,0,0c-0.6,1.3,0,2.8,1.2,3.3l38.8,18.2c0.5,0.2,1.1,0.3,1.6,0.2l36.2-7.5c3.9-0.8,4.2-2.3,0.9-4.6l-12.8-8.7
			c9.1-5.2,12.5-12.6,10.4-22.3l1.9-1.6c15,4.6,27.7-9.2,20.2-23.2l0.7-1.8c15.1,3.3,22.7-2.9,22.8-18.6
			c0.9-1.1,33.1,27.2,36.7,30.2c0.9,0.7,2.1,0.8,3.1,0.1l51.1-35.9c0.3-0.2,0.5-0.4,0.7-0.7c0.7-1.2,0.4-2.7-0.8-3.5l-18.3-11.5
			c-0.5-0.3-0.9-0.8-1.1-1.4c-1.9-6-2.7-12.1-2.5-18.4l-2.1-12.9l-7.1-39.7c-0.2-1.2-1.3-2.1-2.6-2.1l-65.5,2"/>
		<path class="st3" d="M170.1,415.8c-0.1,15.7-7.7,21.9-22.8,18.6l-31.8-28l19-22.6l34.3,29.4c0.3,0.3,0.5,0.6,0.7,1L170.1,415.8z"
			/>
		<path class="st3" d="M113.7,408.4l32.9,27.8c7.5,14-5.2,27.8-20.2,23.2l-32.3-28.2L113.7,408.4z"/>
		<path class="st3" d="M92.3,433.4l32.2,27.5c2.1,9.7-1.3,17.1-10.4,22.3l-42-27.8L92.3,433.4z"/>
	</g>
	<g>
		<path class="st4" d="M203.5,385.2c-6.5-1.5-11.5-5-15-10.7l0.2-0.6c0.8-1.5,0.6-4.1-1.9-3.2c-0.2,0.1-0.5,0-0.6-0.3
			c-0.6-1.4-0.9-2.9-0.9-4.5c5-2,5.6-8.3,0.7-10.9c1.9-6,5.6-10.6,11.2-13.7c0.4-0.2,0.6-0.7,0.7-1.1c16.1,2.3,25.1,19.6,17.6,34
			C212.8,379.2,208.8,382.9,203.5,385.2z"/>
		<path class="st5" d="M197.8,340.3c-0.1,0.4-0.3,0.8-0.7,1.1c-5.5,3.1-9.2,7.6-11.2,13.7c-1.4-0.6-2.8-0.7-4.2-0.2
			c-7.1,2.4-4.1,13,3.5,11.1c0,1.5,0.3,3,0.9,4.5c0.1,0.2,0.4,0.4,0.6,0.3c2.5-0.9,2.6,1.7,1.9,3.2l-0.4-2.5c0-0.3-0.3-0.4-0.6-0.4
			c0,0,0,0,0,0c-2.2,0.5-4.3,1.2-6.3,2.2c-4.3,2,1.3,4.1,2.8,5.6c0.5,0.5,1,0.9,1.5,1.1c0.8,0.4,1.4,0.2,1.6-0.8
			c0.2-1.1,0.5-3.9,1.2-4.5c3.5,5.7,8.5,9.2,15,10.7c0.5,2.4,0,4.4-1.5,6c-2.8,2.8-5.9,3.2-9.5,1c-0.2-0.1-0.4-0.1-0.6,0.1
			c-3.3,3.6-6.1,8.1-11.5,4.3c1.9-2.2,3.7-4.4,5.6-6.6c1.1-1.4,1.1-2.9-0.6-3.7c-0.9-0.4-1.6-0.2-2.2,0.5l-6,7.2l-3.2-2.7l6.4-7.7
			c0.1-0.1,0.1-0.2,0.1-0.3c0-1.7-0.6-2.6-1.9-2.6c-0.8,0-1.5,0.3-2.1,0.9l-5.9,6.9l-3.2-2.7c1.8-2.1,3.6-4.3,5.4-6.4
			c1.6-1.9,1.2-3.4-1.3-4.3c-0.2-0.1-0.4,0-0.5,0.1l-6.6,8c-5.1-4.8-0.5-8.2,2.3-12.3c0.1-0.2,0.1-0.4,0-0.6
			c-4-4.8-1.7-11.8,4.8-12.1c0.2,0,0.4-0.2,0.5-0.4C174.9,346.2,185.7,338.7,197.8,340.3z"/>
		<path class="st5" d="M196.4,360.8c-0.1-0.2,0-0.4,0.1-0.5c1.4-1.7,2.8-3.4,4.3-5c1.7-1.8,3-1.2,4.8,0.1c3,2.3,6.6,1.4,10.1,1
			c0.1,0,0.3,0,0.4,0.1c0.3,0.3,0.4,0.7,0.2,1.1c-0.1,0.2-0.2,0.3-0.4,0.3l-1.8,0.3c-0.2,0-0.4,0.2-0.4,0.5c0,2.3,0.4,4.8-2.7,5.4
			c-0.9,0.2-3.8-0.6-2.4-1.8c0.1-0.1,0.2-0.1,0.3-0.1c1.3,0,3,1.2,3.2-1.2c0.1-0.8,0-1.5-0.1-2.2c-0.1-0.2-0.3-0.4-0.5-0.4
			c-2.8,0.4-5.2-0.3-7.3-2.2c-0.7-0.7-1.5-0.6-2.2,0c-1.5,1.4-2.9,3-4.1,4.7C197.4,361.6,196.8,361.7,196.4,360.8z"/>
		<path class="st6" d="M185.2,365.9c-7.6,1.9-10.6-8.7-3.5-11.1c1.4-0.5,2.8-0.4,4.2,0.2C190.8,357.6,190.3,363.9,185.2,365.9z"/>
		<circle class="st6" cx="199.6" cy="374" r="5.8"/>
		<path class="st6" d="M188.6,373.9l-0.2,0.6c-0.7,0.7-1,3.5-1.2,4.5c-0.2,0.9-0.7,1.2-1.6,0.8c-0.5-0.3-1-0.6-1.5-1.1
			c-1.5-1.5-7.1-3.6-2.8-5.6c2-1,4.1-1.7,6.3-2.2c0.3-0.1,0.5,0.1,0.6,0.4c0,0,0,0,0,0L188.6,373.9z"/>
		<path class="st6" d="M174,391.4l-3.3-2.8l5.9-6.9c0.5-0.6,1.2-0.9,2.1-0.9c1.3,0,2,0.9,1.9,2.6c0,0.1,0,0.2-0.1,0.3L174,391.4z"/>
		<path class="st6" d="M180.4,396.7l-3.2-2.6l6-7.2c0.6-0.7,1.3-0.9,2.2-0.5c1.7,0.8,1.7,2.3,0.6,3.7
			C184.1,392.3,182.2,394.5,180.4,396.7z"/>
		<path class="st6" d="M167.4,385.8l-3-2.6l6.6-8c0.1-0.2,0.3-0.2,0.5-0.1c2.5,0.9,2.9,2.4,1.3,4.3
			C171,381.6,169.2,383.7,167.4,385.8z"/>
	</g>
</g>
</svg>
