<?xml version="1.0" encoding="utf-8"?>
<!-- Generator: Adobe Illustrator 27.6.1, SVG Export Plug-In . SVG Version: 6.00 Build 0)  -->
<svg version="1.1" id="Capa_1" xmlns="http://www.w3.org/2000/svg" xmlns:xlink="http://www.w3.org/1999/xlink" x="0px" y="0px"
	 viewBox="0 0 512 512" style="enable-background:new 0 0 512 512;" xml:space="preserve">
<style type="text/css">
	.st0{fill:#F5A526;}
	.st1{fill:#D18D21;}
	.st2{fill:#BA7E1D;}
	.st3{opacity:0.48;}
	.st4{fill:#A6701A;}
</style>
<g>
	<path class="st0" d="M508.9,292c-3.9,18.7-9.6,44.5-17.3,76.8c-0.3,1.3-0.7,2.6-1.1,3.8c-3.2,10-9.3,16.7-18.3,19.9
		c-3.9,1.5-10.5,2.2-19.7,2.3c-16.6,0-33.2-0.1-49.5-0.4H402c-54.2,0.7-102.6,0.4-152.8,0.4c-28.2,0-56.4,0-84.5,0
		c-9.8,0-19.5,0-29.3,0c-2.6,0-5.2,0-7.8,0c-6.2,0-12.4,0-18.6,0c-17,0-34.1,0-51.1-0.1c-4.7,0-9.3-1.1-13.7-3.2
		c-3.6-1.7-6.4-3.7-8.5-6c-0.8-0.8-1.4-1.7-2-2.5c-1.3-1.9-2.9-4.5-4.8-7.8c-4.6-7.8-11.2-19.5-19.9-34.9c-2.8-5.1-4.7-12.1-5.8-21
		v-7.8c0.8-9.2,3.6-18.3,8.6-27.6c9-17,21.7-40.3,37.7-69.7c5-9.2,11.1-17,18.3-23.5c2.2-1.9,4.3-3.8,6.7-5.4c1.5-1.1,3-2.1,4.4-3
		c0.7-0.5,1.5-1,2.1-1.4c4.5-2.9,8.1-4.8,11-5.8c9.8-3.2,19.3-6.5,28.3-9.4c70.1-23.3,116.6-38.7,139.5-46.1
		c7.1-2.3,15.4-3.1,24.4-2.3c11.9,1.3,22.5,5.9,31.7,14c9.7,8.4,19.1,16.8,28.4,25.5c16.2,14.4,32.3,28.7,48.4,43
		c4.7,4.2,12.3,7.7,19.3,10.5c21.3,8.6,42.6,17.4,63.9,26c7.7,3.1,14.7,9.2,20.9,17.9c6.7,8.4,10.6,18.7,11.9,30.9L508.9,292z"/>
	<path class="st1" d="M98.6,302.6l34.6-21.8c3.8-2.4,4.9-7.3,2.6-11.1l-0.1-0.3c-2.4-3.8-7.3-4.9-11.1-2.6L90,288.7
		c-3.8,2.4-4.9,7.3-2.6,11.1l0.1,0.3C90,304,94.9,305.1,98.6,302.6z M291.1,254.9l33.3,6.7c4.3,0.8,8.5-1.9,9.3-6.2l0.1-0.5
		c0.8-4.3-1.9-8.5-6.2-9.3l-33.3-6.7c-4.3-0.8-8.5,1.9-9.3,6.2l-0.1,0.5C284,249.9,286.8,254.1,291.1,254.9z M347.2,201.9
		c-0.1,3.1-0.3,6.3-0.4,9.4l-0.8,8.2l-27,8.8c-4.4,1.5-9-0.8-10.4-5l-0.1-0.5c-1.2-4.2,1.3-8.8,5.8-10.2L347.2,201.9L347.2,201.9z
		 M284.6,117.3c-9-0.8-17.1,0-24.4,2.3c-25.9,8.4-81.8,26.8-167.8,55.5c-4.2,1.3-10.1,4.9-17.5,10.2c16.6,18.2,29.8,31.9,39.6,41.1
		c5.9,5.4,13.9,7.7,22.6,8.8c14,1.8,27.9,3.5,41.9,5.3c10.8,1.3,18.5,1.6,23.3,0.9c18.5-3,27.6-13.7,36-30.5
		C254,179.7,269.4,148.6,284.6,117.3L284.6,117.3z"/>
	<path class="st1" d="M508.5,284.8c-1.2-12.1-5.1-22.4-11.9-30.9c-3.1-4.4-6.5-8.1-10-11.1c-3.5-3-7.1-5.3-11.1-6.9
		c-21.3-8.6-42.6-17.4-63.9-26c-7-2.8-14.6-6.3-19.3-10.5c-15.8-14.2-31.9-28.6-48.1-42.9c2.3,15,3.2,30.1,2.8,45.3l1.9-0.5
		c4.4-1.5,9.2,0.8,10.4,5l0.1,0.5c1.2,4.2-1.3,8.8-5.8,10.2l-7.7,2.6l-1.2,12.7c-0.5,7.3-1.8,12.7-3.5,22
		c-9.7,50.1-32.1,98.5-70.8,132.9c-0.4,0.4-1.1,0.4-1.5,0.1c-44.5-21.8-89.2-43.8-134.2-65.8c-7.3-3.5-13.1-5.7-17.4-6.3
		c-21.2-3.5-39.5,7.4-49.1,26.1c-10.1,20.1-18.2,36.8-24.4,50.3c4.4,2.2,9.2,3.2,13.7,3.2c63.8,0.1,127.6,0.1,191.4,0.1
		c50.3,0,98.7,0.3,152.8-0.4c16.6,0.4,33.4,0.5,50.4,0.4c9.2,0,15.8-0.8,19.7-2.3c10.1-3.8,16.4-11.6,19.3-23.7
		c7.5-32.5,13.3-58.1,17.3-76.8L508.5,284.8L508.5,284.8z"/>
	<path class="st2" d="M353.6,217l-7.7,2.6l0.8-8.2c0.1-3.1,0.3-6.3,0.4-9.4l1.9-0.5c4.4-1.5,9.2,0.8,10.4,5l0.1,0.5
		C360.8,211,358.1,215.6,353.6,217L353.6,217z M508.8,292l-0.1-7.1c-1.2-12.1-5.1-22.4-11.9-30.9c-32.3,7.7-64.8,14.6-97.3,20.6
		c-18.1,3.4-25.6,21.6-20.2,38.5c6.1,18.9,13.6,46,22.8,81.1c16.6,0.4,33.4,0.5,50.4,0.4c9.2,0,15.8-0.8,19.7-2.3
		c10.1-3.8,16.4-11.6,19.4-23.7C499.2,336.5,504.9,310.7,508.8,292L508.8,292z"/>
	<path class="st0" d="M439.1,361.3c11.3,9.3,19.3,19.9,23.9,32.2c-2.4,1.1-4.3,0.7-5.8-1.3c-0.5-0.8-1.5-0.9-2.2-0.3l-0.1,0.1
		c-2.3,2.7-5.1,3.6-8.4,2.4c19.5-21.2-13.6-22.8-23.3-25.1c-6.1-1.5-8.9-4.6-12-10l-15.9-28c-1.1-2-2.6-3.4-4.2-3.9
		c-4.4-1.6-7.3-3.1-8.4-4.6c-1.1-1.3-0.5-2,1.5-1.9c15.4,0.7,46.1,10.2,51.8,29C436.9,354.1,438.2,357.9,439.1,361.3L439.1,361.3z
		 M419.6,337.4c-4.7-3.6-8.6-5.7-11.7-6.1c-2.3-0.3-4,0.4-5.1,2c-0.7,0.9-0.7,2.7,0.1,4.3c5.9,12.8,16,29.9,29.2,27.6
		c1.1-0.1,1.9-1.3,1.9-2.6C434,353,429.1,344.5,419.6,337.4z"/>
	<path class="st3" d="M403,306.1l-4.1-6.2c4-4.1-1.6-5.1-4.7-4.4c-3.5-1.3-6.7-3.1-9.7-5.4c1.5-0.9,5.9-2.4,4.5-4.6
		c-0.2-0.3-0.5-0.5-0.8-0.5c-3.4-0.3-6.6,0.3-9.7,1.8l-2.3,0l-7.8-3c1.2-1.4,6.8-4.5,4.2-6.3c-0.2-0.2-0.5-0.2-0.7-0.2
		c-4.2,0.5-8.1,1.8-11.6,4c-2.8-0.1-5.6-0.6-8.2-1.6c1-2,2.5-3.7,4.4-5c0.2-0.1,0.4-0.4,0.4-0.6c1.9-6.2-13,3.5-13.8,4.2l-3.1-0.2
		l-4.3-0.9c1.1-1.4,5.2-10.4,1.2-9.2c-0.2,0.1-0.4,0.2-0.6,0.4c-2.2,3.1-5,5.6-8.3,7.4L316,275c2.8-2.7,4.5-5.6,5.2-8.7
		c0.4-1.7,0-2.3-1.3-1.8c-0.2,0.1-0.4,0.2-0.5,0.4c-3.6,5.6-8.7,7.8-15.5,6.8c-2.6-2-4.5-4.6-5.7-7.7c1.3-0.3,6.7-1.6,4.2-4.2
		c-0.2-0.2-0.4-0.3-0.7-0.3l-6.2-0.4l-3-6.6c2.8,0,5.2-1.1,7-3.1c1.2-1.3,0.7-3.5-1.2-3.3c-3.9,0.3-7,0.3-9.3-0.2l-3.1-4.1
		c4.5-2.4,7.6-6.3,12.7-7.5c2.7-0.7,1.9-2.6-0.4-2.6c-6.6-0.1-11,3.3-17.5,3.7l-5.8-5.5c1.7-0.9,3-2.2,4-3.8
		c0.1-0.2,0.2-0.5,0.2-0.7c-0.5-3.6-8-1-9.8-1l-5-3.9l4.9-3.1c0.2-0.1,0.4-0.3,0.4-0.5c0.7-2-0.7-2.8-2.5-2.4
		c-2.9,0.6-5.8,0.9-8.8,0.9c-1.9-0.8-3.5-1.9-5-3.3c6.7-2.3,11.7-5.5,15-9.6c1.6-2,1.3-3.2-1.1-3.5c-0.3,0-0.6,0-0.8,0.2
		c-5.6,4.1-11.9,6.6-18.8,7.7c-2.6-0.6-5-1.8-7.1-3.5l-1.1-2c1.9-0.9,3.5-2.2,4.9-3.8c0.2-0.2,0.3-0.6,0.3-0.9
		c-0.4-2.2-7.8-1.5-9.2-1.8l-5.2-4.4c2-1.2,3.7-2.7,5.2-4.5c0.2-0.3,0.3-0.7,0.2-1c-0.3-0.9-0.9-1.3-1.8-1c-3.4,0.9-6.4,1.3-9,1.1
		c-2.2-1.2-4.1-2.9-5.5-5c2.4-1.1,4.4-2.6,6-4.6c0.3-0.4,0.3-0.9,0-1.3l-0.3-0.3c-0.3-0.3-0.7-0.5-1.1-0.4l-9.3,1.8l-3.6-3.6
		c4.7-2.8,8.1-6.6,10.4-11.4c0.6-1.4,0.4-3.2-1.5-3c-0.3,0-0.5,0.2-0.7,0.4c-3.9,4.4-8.8,7.5-14.5,9.5c-1.1,0.2-2.3,0.1-3.5-0.4
		c1.8-2,3-4.4,3.5-7c0.6-2.8-2-3.3-3.6-1.3c-2.1,2.7-4.6,4.9-7.6,6.6c-6.2-1.1-13.4-5.4-19.5-1.7c-7.4,4.6-15.2,8.3-23.5,11.2
		c-6.6,2.3-7.6,8.6-2.4,13.5l1.1,3.5c2.3,4.6,5.9,5.8,11,6.7c3.3,0.6,7.7,2.6,13,5.9c1.5,3.7,2.3,6.4,2.5,8.2
		c0.4,3.6-0.8,8.3,0.5,12.3c2.4,7.3,7.7,11.3,16,11.9c0.2,0,0.3,0.1,0.4,0.1c0.5,0.3,0.7,1,0.4,1.5c-3.1,5.6-6.3,11.3-9.4,16.9
		c-5.2,9.2-6.4,23-7.4,33.3c-0.2,1.7-1.1,2.5-2.8,2.4c-7.2-0.4-12.4-1.2-17.2,5.3c-0.9,1.2-0.6,1.8,0.9,1.7c4.2-0.1,8.2,0.5,12.2,2
		c4.1,1.5,9.3,2.9,12.4,1.9c6.3-2,12.4-1.9,18.3,0.3c1.3,0.5,1.8,0.1,1.4-1.3c-1.7-6.2-5.6-9.7-11.8-10.5c0,0-0.1,0-0.1,0
		c-0.6-0.2-0.9-0.7-0.8-1.3c1.8-7.1,3-11.4,3.6-13.1c2.5-7.4,11.1-13.5,19.2-20c7.8,23.5,23.4,39.3,46.8,47.4l7.3,2.4
		c0.6,4.5,0.5,9-0.3,13.4c0,0.1,0,0.1-0.1,0.2c-0.2,0.6-0.8,0.9-1.4,0.6c-9.4-3.5-16.4-0.6-21,8.5c-0.8,1.5-0.3,2.1,1.3,1.5
		c5.1-1.6,10.2-1.6,15.2,0.1c0,0,0,0,0,0c0.6,0.2,0.9,0.8,0.7,1.4c-1.4,4.1-1.9,8.3-1.4,12.6c0.2,1.3,1.6,2.1,2.4,1
		c3-4.2,5.5-8.3,10.7-9.2c6.4-1.1,10.9-1.6,16.6-6.4c0.2-0.1,0.4-0.2,0.6-0.3c1.9-0.2,3.4,0.5,4.5,2.1c0.2,0.3,0.6,0.5,1,0.5l0.4,0
		c0.5,0,1-0.5,1-1c0.4-4.5-0.7-12-6.7-10.5c-3.1,0.8-5.6,1.2-7.6,1.3c-0.1,0-0.2,0-0.2,0c-0.6-0.1-1-0.7-0.9-1.3l2.1-11.7
		c18,1.4,36,1.7,53.9,0.7l1.9,3.7c0,0.1,0.1,0.2,0.1,0.2c0.1,0.6-0.2,1.2-0.8,1.3c-3.5,0.8-7,1.9-10.3,3.3c-2,0.9-3.4,3-0.4,4.1
		c7.3,2.4,16.9,0.2,24.3-1.8c0.2-0.1,0.4,0,0.7,0c7.2,2.6,14.8,3.9,22.7,3.9c0,3.3-0.6,6.6-1.6,9.8l-2.8,5.5l-8.7,9.8
		c-6.9,5.5-14.4,9.8-22.7,12.9c-6,2.2-12.1,3.9-18.4,5.2c-12.7,1.7-25.6,2.2-38.6,1.4c-14.1-0.5-28.1-2.2-42-5.3
		c-1.8-0.4-4.5-0.6-3.3,2.3c0.1,0.2,0.3,0.4,0.5,0.5c13.7,7.6,28.3,12.6,43.8,15.2c13,2.8,26.1,4.1,39.4,3.8
		c8.4-0.2,16.5-1.3,24.5-3.1c11.1-2.5,21.4-6.6,31-12.2c8.7-5.3,16.1-12,22.1-20.2C407.4,336.1,412.2,321.8,403,306.1z M195.3,222.3
		c-0.1,0.1-0.1,0.1-0.1,0.2C195.2,222.4,195.3,222.3,195.3,222.3z M195.6,222.1C195.5,222.1,195.5,222.1,195.6,222.1
		C195.5,222.1,195.5,222.1,195.6,222.1z M195.1,222.6c0,0.1-0.1,0.1-0.1,0.2C195.1,222.8,195.1,222.7,195.1,222.6z M195,223.1
		c0,0.1,0,0.1,0,0.2c0,0,0,0,0-0.1C195,223.2,195,223.1,195,223.1z M195.1,223.4c0,0.1,0.1,0.2,0.2,0.3
		C195.2,223.6,195.1,223.5,195.1,223.4z M226.1,221.8C226.1,221.8,226.1,221.7,226.1,221.8C226.1,221.7,226.1,221.8,226.1,221.8z
		 M226,221.3c0,0.1,0,0.1,0.1,0.2C226,221.4,226,221.3,226,221.3z M224.9,220.6c0.1,0,0.3,0,0.4,0.1
		C225.2,220.6,225.1,220.6,224.9,220.6z M225.4,220.7C225.4,220.7,225.5,220.7,225.4,220.7c0.1,0,0.1,0.1,0.2,0.1
		C225.5,220.7,225.5,220.7,225.4,220.7z M225.8,220.9c0,0.1,0.1,0.1,0.1,0.2C225.8,221,225.8,221,225.8,220.9z"/>
	<path class="st0" d="M164.3,394.6c0.1,0.1,0.2,0.1,0.4,0.2c-9.8,0-19.5,0-29.3,0c0.3-0.2,0.6-0.5,1-0.7
		C144.8,387.6,155.6,390.5,164.3,394.6z"/>
	<path class="st4" d="M195.5,326.5c-9.6,14-31.1-4.7-31.9,20.2c-0.1,2.3-0.6,4.5-3.5,3.3c-12.3-5.1-28.1-11.3-41.1-4.2
		c-5.2,2.9-9.8,5.2-15.9,5.4c-0.3,0-0.8,0.3-0.9,0.4c-0.3,0.3-0.4,0.9-0.2,1.3c3.7,7.3,7.6,14.6,11.7,21.7c1,1.7,1.4,3.5,1.2,5.4
		c-0.3,3.6-5.3,9.8,1.7,11.4c3.9,0.9,7.4,1.7,10.8,3.2c-6.2,0-12.4,0-18.6,0c-2.3-1.8-4.2-4-5.8-6.6c-2.6-4.4-4.5-12.7-7.9-17.8
		c-1.6-2.4-3.5-4.5-5.8-6.3c-0.9-0.7-1.9-1-3.1-0.8c-3.8,0.8-6.9,0.5-10.9-0.7c-8.2-2.6-16.6-5-25-7.2c-7.5-1.9-1.2,5.6-0.6,7.6
		c0.1,0.4-0.1,0.8-0.6,1c-0.1,0-0.2,0-0.3,0l-6.9-0.3c-1.4-0.1-2,0.7-1.8,2.2c0.3,3.2,1,6.5,1.8,9.6c2.4,8.6-8.6,0.2-6.8,9.7
		c0,0.1,0,0.2,0.1,0.3c-0.8-0.8-1.4-1.7-2-2.5c-1.3-1.9-2.9-4.5-4.8-7.8c0.1-0.1,0.3-0.1,0.5-0.2l4.6-1.3c1.5-0.4,2.1-1.5,1.8-3.2
		l-1.8-10.1c-0.1-0.3,0-0.5,0.1-0.7c1.8-4.2,11.2,1.5,4.2-9.4c-0.2-0.4-0.1-0.9,0.2-1.1c0.1-0.1,0.2-0.1,0.3-0.1
		c2.9-0.4,7.4,0.9,10.4,1.2c0.6,0.1,0.7-0.1,0.3-0.6l-2.5-3.5c-0.2-0.3-0.2-0.6-0.1-0.8c0.3-0.5,0.8-0.7,1.4-0.6
		c0.3,0,0.5-0.2,0.6-0.4c0-0.1,0-0.1,0-0.2c-2.9-10.7-6-21.3-9.3-31.8c-1.3-4.2-0.6-6.5,3.4-8.3c9.7-4.3,19.2-8.9,28.5-13.9
		c2.8-1.5,2.7-3.7,1.4-6.3c-9.5-19.2-16.1-33-27.5-47c-1-1.3-0.7-2.2,1.1-2.8c4.7-1.5,10-3,14-5.2c14.6-7.9,17.4-19.3,18.2-35.1
		c0.2-3.9,0.3-7.8,0.4-11.7c0.7-0.5,1.5-1,2.1-1.4c0.3,6.4,0.2,12.8,0,19.2c-0.7,15.2-8.9,28.1-23.4,33.7c-3.9,1.5-8.9,2.3-5.3,7
		c4.9,6.3,8.9,12.5,12.1,18.5c5.7,10.8,11,20.2,15.9,28.1c1.7,2.7,0.9,4.1-1.8,5.5c-9.6,4.8-19.2,9.6-28.8,14.2
		c-3.5,1.7-5.5,3.5-4.2,7.5c3,9,5.8,18.1,8.4,27.3c0.1,0.3,0.3,0.5,0.5,0.4l0.9,0c0.1,0,0.4,0.2,0.7,0.5c2.5,3,5.6,4.7,9.3,5.3
		c4.9,0.7,9.9,3.9,14.5,5.1c7.6,1.9,8.7-7.3,9.8-12.5c0.4-2,1.5-2.4,3.1-1.3c7.1,4.9,13.5,4,20.8,0.4c14.9-7.4,28.8-2.1,43,4.2
		c1.8,0.8,3,0.3,3.5-1.7c1.8-6.5,3.4-12.8,11.6-12.4c9.1,0.4,15.9,1.2,23.5-3.7C195.6,326,195.6,326.3,195.5,326.5z"/>
</g>
</svg>
