<svg xmlns="http://www.w3.org/2000/svg" viewBox="0 0 375 375"><g fill="none" stroke-width="2"><path stroke="#885243" d="M187.5 34.79v73.92" vector-effect="non-scaling-stroke"/><path stroke="#b47456" d="m187.5 108.71-142.24.03a1 1 0 0 1-1-1q-.03-13.3 0-26.72.02-12.76 1.57-18.23 3.85-13.53 16.42-21.81 3.7-2.44 12.52-6" vector-effect="non-scaling-stroke"/><path stroke="#885243" d="M302 35.04q-.31.48-.07.96a.83.81-5 0 0 .5.41c15.44 4.31 27.73 18.54 28.09 34.59q.44 19.14.16 36.74a1 1 0 0 1-1 .99l-141.5.03a.21.19-73.5 0 0-.17.1q-.09.13-.22.14" vector-effect="non-scaling-stroke"/><path stroke="#b47456" d="M187.79 109q-.7 15.73-.04 31.46" vector-effect="non-scaling-stroke"/><path stroke="#b47456" d="M146.53 140.59 0 140.69" vector-effect="non-scaling-stroke"/><path stroke="#b47456" d="m146.46 172.25-96.45.01a1 1 0 0 0-1 1c.04 11.13 1.22 20.21-13.08 20.24q-3.59 0-7.18.01a1.01 1-.3 0 0-1 1v94.62a1 1 0 0 0 .95 1q3.7.18 7.4.15c7.67-.06 13.04 2.94 12.92 11.49q-.08 5.3.14 8.68a1.01 1 87.8 0 0 1 .93l137.34.12" vector-effect="non-scaling-stroke"/><path stroke="#fda82a" d="M187.5 140.54v82.21" vector-effect="non-scaling-stroke"/><path stroke="#e2a345" d="M187.5 222.75c-22.06-1.53-37.7-15.27-40.73-37.31q-.3-2.13-.31-13.19" vector-effect="non-scaling-stroke"/><path stroke="#ce783b" d="M228.53 172.16c-.06 5.67.23 12.14-1 17.42q-5.86 25.22-31.37 31.98c-2.54.68-5.82.6-8.66 1.19" vector-effect="non-scaling-stroke"/><path stroke="#885243" d="m187.5 311.5 137.47-.2a.99.99 0 0 0 .99-.97l.22-9.31c.21-8.43 5.28-10.8 12.91-10.77q3.62.02 7.17-.02a1 1 0 0 0 .99-1v-94.61a1 1 0 0 0-.95-1q-3.27-.17-6.55-.15c-7.95.04-13.54-2.04-13.65-11.23l-.12-9a1 1 0 0 0-1-.99l-96.45-.09" vector-effect="non-scaling-stroke"/><path stroke="#b47456" d="M187.5 311.5v-88.75" vector-effect="non-scaling-stroke"/></g><path fill="#9f5f4e" d="M187.5 34.79v73.92l-142.24.03a1 1 0 0 1-1-1q-.03-13.3 0-26.72.02-12.76 1.57-18.23 3.85-13.53 16.42-21.81 3.7-2.44 12.52-6l112.73-.19Z"/><path fill="#714437" d="m187.5 34.79 114.5.25q-.31.48-.07.96a.83.81-5 0 0 .5.41c15.44 4.31 27.73 18.54 28.09 34.59q.44 19.14.16 36.74a1 1 0 0 1-1 .99l-141.5.03a.21.19-73.5 0 0-.17.1q-.09.13-.22.14l-.29-.29V34.79Z"/><path fill="#c8885e" d="M74.77 34.98q-8.82 3.56-12.52 6-12.57 8.28-16.42 21.81-1.55 5.47-1.57 18.23-.03 13.42 0 26.72a1 1 0 0 0 1 1l142.24-.03.29.29q-.7 15.73-.04 31.46l-.25.08-40.97.05-146.53.1v-48c2.67-32.17 27.25-56.64 59.76-57.48q7.47-.19 15.01-.23Z"/><path fill="#9f5f4e" d="M302 35.04c20.64-1.16 37.97 2.24 53.42 16.28Q373.3 67.58 375 93.56v47.14l-146.5-.11-40.75-.13q-.66-15.73.04-31.46.13-.01.22-.14a.21.19-73.5 0 1 .17-.1l141.5-.03a1 1 0 0 0 1-.99q.28-17.6-.16-36.74c-.36-16.05-12.65-30.28-28.09-34.59a.83.81-5 0 1-.5-.41q-.24-.48.07-.96ZM146.53 140.59l-.07 31.66-96.45.01a1 1 0 0 0-1 1c.04 11.13 1.22 20.21-13.08 20.24q-3.59 0-7.18.01a1.01 1-.3 0 0-1 1v94.62a1 1 0 0 0 .95 1q3.7.18 7.4.15c7.67-.06 13.04 2.94 12.92 11.49q-.08 5.3.14 8.68a1.01 1 87.8 0 0 1 .93l137.34.12.25 28.46L0 339.83V140.69l146.53-.1Z"/><path fill="#fcbe2c" d="M187.5 140.54v82.21c-22.06-1.53-37.7-15.27-40.73-37.31q-.3-2.13-.31-13.19l.07-31.66 40.97-.05Z"/><path fill="#fd9127" d="m187.5 140.54.25-.08 40.75.13.03 31.57c-.06 5.67.23 12.14-1 17.42q-5.86 25.22-31.37 31.98c-2.54.68-5.82.6-8.66 1.19v-82.21Z"/><path fill="#714437" d="M375 140.7v199.05l-187.25.21-.25-28.46 137.47-.2a.99.99 0 0 0 .99-.97l.22-9.31c.21-8.43 5.28-10.8 12.91-10.77q3.62.02 7.17-.02a1 1 0 0 0 .99-1v-94.61a1 1 0 0 0-.95-1q-3.27-.17-6.55-.15c-7.95.04-13.54-2.04-13.65-11.23l-.12-9a1 1 0 0 0-1-.99l-96.45-.09-.03-31.57 146.5.11Z"/><path fill="#9f5f4e" d="m228.53 172.16 96.45.09a1 1 0 0 1 1 .99l.12 9c.11 9.19 5.7 11.27 13.65 11.23q3.28-.02 6.55.15a1 1 0 0 1 .95 1v94.61a1 1 0 0 1-.99 1q-3.55.04-7.17.02c-7.63-.03-12.7 2.34-12.91 10.77l-.22 9.31a.99.99 0 0 1-.99.97l-137.47.2v-88.75c2.84-.59 6.12-.51 8.66-1.19q25.51-6.76 31.37-31.98c1.23-5.28.94-11.75 1-17.42Z"/><path fill="#c8885e" d="M146.46 172.25q.01 11.06.31 13.19c3.03 22.04 18.67 35.78 40.73 37.31v88.75l-137.34-.12a1.01 1 87.8 0 1-1-.93q-.22-3.38-.14-8.68c.12-8.55-5.25-11.55-12.92-11.49q-3.7.03-7.4-.15a1 1 0 0 1-.95-1v-94.62a1.01 1-.3 0 1 1-1q3.59-.01 7.18-.01c14.3-.03 13.12-9.11 13.08-20.24a1 1 0 0 1 1-1l96.45-.01Z"/></svg>