<?xml version="1.0" encoding="utf-8"?>
<!-- Generator: Adobe Illustrator 27.6.1, SVG Export Plug-In . SVG Version: 6.00 Build 0)  -->
<svg version="1.1" id="Capa_1" xmlns="http://www.w3.org/2000/svg" xmlns:xlink="http://www.w3.org/1999/xlink" x="0px" y="0px"
	 viewBox="0 0 512 512" style="enable-background:new 0 0 512 512;" xml:space="preserve">
<style type="text/css">
	.st0{fill:#EDBF35;}
	.st1{fill:#FFCD39;}
	.st2{fill:#08B7FC;}
	.st3{fill:#82D2FF;}
	.st4{fill:#55CBFF;}
	.st5{fill:#006DFF;}
	.st6{fill:#0050C0;}
	.st7{fill:#FF0059;}
	.st8{fill:#FF5E95;}
	.st9{fill:#E50048;}
	.st10{fill:#FFA2C3;}
	.st11{fill:#FDFFD6;}
</style>
<g>
	<g>
		<path class="st0" d="M483.8,194.9c-24.4,17-48.8,34.1-73.3,51.2c-0.1,0.1-0.3,0.2-0.5,0.2c-0.7,0.2-1.5,0-1.8-0.3
			c-5.4-5.8-11-11.7-16.9-17.7c-4.6-4.7-14.1-7.9-23.5-4.3c-2,0.8-4.2,2.3-6.4,4.7c-4.6,4.8-9.2,9.6-13.7,14.4
			c-0.8,0.9-1.6,0.9-2.4,0c-24.5-25.8-49.2-51.7-73.9-77.6c-3.6-3.8-7.2-6.1-15.3-6.1c-0.1,0-0.2,0-0.3,0c-7.5,0.3-11,2.2-14.5,5.8
			c-24.9,26-49.7,52-74.4,78c-0.8,0.9-1.6,0.9-2.4,0c-4.5-4.8-9.1-9.7-13.8-14.6c-1.9-2-4-3.5-6.2-4.4c-8.5-3.5-18.3-1.4-22.9,3.4
			c-5.9,6.1-11.8,12.3-17.7,18.4c-0.1,0.1-0.2,0.2-0.4,0.3c-0.6,0.2-1.5,0.2-1.9-0.1c-23.6-16.6-47.3-33.2-71.3-49.8
			c-3.5-2.5-6.5-4-8.9-4.7c-8.9-2.4-19.4,0.9-21.3,6.1v1.8c19.4,40.9,38.9,81.8,58.5,122.6c3.6,7.6,5,10.7,20.8,10.7
			c58.8,0,117.6,0,176.4,0.1h0.1c58.8,0.1,117.7,0.2,176.6,0.1c10.8,0,17-1.6,19.6-7.1c19.9-41.9,39.9-83.8,60-125.6v-2.9
			C508.4,189.9,492.6,188.7,483.8,194.9z"/>
		<path class="st1" d="M483.8,194.9c-24.4,17-48.8,34.1-73.3,51.2c-0.1,0.1-0.3,0.2-0.5,0.2c-0.7,0.2-1.5,0-1.8-0.3
			c-5.4-5.8-11-11.7-16.9-17.7c-4.6-4.7-14.1-7.9-23.5-4.3c-2,0.8-4.2,2.3-6.4,4.7c-4.6,4.8-9.2,9.6-13.7,14.4
			c-0.8,0.9-1.6,0.9-2.4,0c-24.5-25.8-49.2-51.7-73.9-77.6c-3.6-3.8-7.2-6.1-15.3-6.1c-0.1,0-0.2,0-0.3,0v173.7h0.1
			c58.8,0.1,117.7,0.2,176.6,0.1c10.8,0,17-1.6,19.6-7.1c19.9-41.9,39.9-83.8,60-125.6v-2.9C508.4,189.9,492.6,188.7,483.8,194.9z"
			/>
	</g>
	<g>
		<path class="st2" d="M301.1,236.2c0-0.1-0.1-0.3-0.4-0.4c-14.8-8.5-29.7-17.1-44.5-25.6c-0.1-0.1-0.3-0.1-0.4,0
			c-14.9,8.6-29.8,17.2-44.7,25.8L211,236c0,0-0.1,0.1-0.1,0.2l0,51.8l44.9,25.9c0.1,0.1,0.3,0.1,0.4,0
			c14.8-8.6,29.7-17.1,44.5-25.7c0.3-0.1,0.3-0.3,0.2-0.5L301.1,236.2z M256.3,232.9C256.2,232.9,256.2,232.9,256.3,232.9
			C256.2,232.9,256.2,232.9,256.3,232.9z M256,233.1c0,0,0-0.1,0-0.1c0,0,0,0,0,0C256,233,256,233.1,256,233.1z"/>
		<path class="st3" d="M256.2,210.2c14.8,8.5,29.7,17.1,44.5,25.6c0.2,0.1,0.3,0.3,0.4,0.4c-0.2,0-0.3,0-0.4,0.1
			c-6.3,3.6-12.7,7.3-19.1,11.1l-25.1-14.4c-0.1-0.1-0.3,0-0.4,0.1c0,0,0,0.1,0,0.1v57.7c0,0,0,0,0,0.1l0.1,0.4l-0.2,0l-25.3-14.6
			l-0.1-22.5l0.1-6.8c0-0.1,0.1-0.2,0.1-0.2l25.1-14.5c0.1,0,0.1-0.1,0.1-0.2v-22c0-0.1,0-0.1,0.1-0.2L256.2,210.2z"/>
		<path class="st4" d="M281.5,247.3c-0.2,0.4,0,0.8,0,1.1c0,9.4,0,18.8-0.1,28.2l-25.3,14.6l-0.1-0.4c0,0,0,0,0-0.1v-57.7
			c0-0.2,0.1-0.3,0.3-0.3c0,0,0.1,0,0.1,0L281.5,247.3z"/>
		<path class="st5" d="M211.1,235.9c0.2,0.2,0.3,0.4,0.4,0.4c6.3,3.6,12.6,7.2,18.9,10.9c0.1,0,0.1,0.1,0.1,0.2l0,6.8l0.1,22.5
			c-0.1,0-0.2,0-0.3,0.1c-6.4,3.7-12.9,7.5-19.4,11.2l0-51.8C211,236.1,211,236,211.1,235.9L211.1,235.9z"/>
		<path class="st2" d="M301.1,236.2l0,51.5c-6.6-3.6-13.1-7.2-19.6-11.1c0-9.4,0-18.8,0.1-28.2c0-0.3-0.1-0.7,0-1.1
			c6.4-3.7,12.8-7.4,19.1-11.1C300.8,236.2,300.9,236.2,301.1,236.2z"/>
		<path class="st5" d="M281.4,276.7c6.5,3.8,13,7.5,19.6,11.1c0.1,0.2,0,0.3-0.2,0.5c-14.8,8.6-29.7,17.1-44.5,25.7
			c-0.2,0.1-0.3,0.1-0.4,0c0.1-0.3,0.2-0.5,0.2-0.5c0-7.3,0-14.7-0.1-22l0.2,0L281.4,276.7z"/>
		<path class="st6" d="M230.6,276.7l25.3,14.6c0.1,7.3,0.1,14.7,0.1,22c0,0.1-0.1,0.3-0.2,0.5L210.9,288c6.5-3.7,13-7.4,19.4-11.2
			C230.4,276.7,230.5,276.7,230.6,276.7z"/>
		<path class="st2" d="M256.2,210.2l-0.1,0.2c0,0-0.1,0.1-0.1,0.2v22c0,0.1-0.1,0.2-0.1,0.2l-25.1,14.5c-0.1,0-0.1,0.1-0.1,0.2
			l-0.1,6.8l0-6.8c0-0.1-0.1-0.2-0.1-0.2c-6.3-3.7-12.6-7.3-18.9-10.9c-0.1,0-0.2-0.2-0.4-0.4c14.9-8.6,29.8-17.2,44.7-25.8
			C255.9,210.1,256.1,210.1,256.2,210.2z"/>
	</g>
	<g>
		<path class="st7" d="M155.2,270.5c0-0.1-0.1-0.2-0.2-0.4c-0.1-0.3-0.2-0.5-0.4-0.6c-6.8-4.6-13.6-9.1-20.3-13.7
			c-0.4-0.3-0.8-0.5-1.1-0.6h-0.4h-0.3c-0.3,0.1-0.5,0.1-0.6,0.2c-6.9,4.6-13.8,9.3-20.7,13.9c-0.3,0.2-0.4,0.4-0.6,0.7
			c-0.1,0.2-0.2,0.4-0.2,0.6c0,9.3,0,18.6,0,27.9c0,0.1,0.1,0.2,0.2,0.4c0.1,0.3,0.3,0.5,0.5,0.7c6.9,4.6,13.8,9.3,20.7,13.9
			c0.2,0.1,0.5,0.2,0.7,0.3h0.4h0.3c0.3-0.1,0.4-0.1,0.6-0.2c7-4.7,13.9-9.4,20.9-14c0.1-0.1,0.2-0.2,0.3-0.4
			c0.2-0.3,0.3-0.5,0.3-0.6C155.2,289.3,155.2,279.9,155.2,270.5z M132.8,270.4C132.8,270.4,132.8,270.4,132.8,270.4
			C132.8,270.4,132.8,270.4,132.8,270.4z M132.7,270.4C132.7,270.4,132.7,270.4,132.7,270.4C132.7,270.4,132.7,270.4,132.7,270.4
			C132.7,270.4,132.7,270.4,132.7,270.4z M132.7,298.8C132.7,298.8,132.7,298.8,132.7,298.8C132.7,298.8,132.7,298.8,132.7,298.8z
			 M132.8,298.7C132.8,298.7,132.8,298.7,132.8,298.7C132.8,298.7,132.8,298.7,132.8,298.7C132.8,298.7,132.8,298.7,132.8,298.7z"/>
		<path class="st8" d="M132.6,255.2h0.3l0,14.9c0,0.1,0,0.1,0.1,0.1c0.3,0.2,0.9,0.5,1.6,0.9c2.9,1.5,5.7,3.1,8.6,4.6v17.6
			l-10.2,5.5c-0.1,0-0.1,0.1-0.1,0.1l0,14.9h-0.4c-0.2-0.1-0.5-0.2-0.7-0.3c-6.9-4.6-13.8-9.3-20.7-13.9c-0.2-0.1-0.4-0.4-0.5-0.7
			l11.8-5.7l10.1,5.4c0.1,0,0.2,0,0.2-0.1c0,0,0,0,0-0.1l0-28.1c0-0.1-0.1-0.2-0.2-0.2c0,0-0.1,0-0.1,0l-10.1,5.4
			c-3.2-1.5-6.4-3-9.6-4.6c-0.8-0.4-1.5-0.8-2.3-1.1c0.1-0.3,0.3-0.6,0.6-0.7c6.9-4.6,13.8-9.3,20.7-13.9
			C132.1,255.4,132.3,255.3,132.6,255.2z"/>
		<path class="st7" d="M132.9,255.2h0.4c0.3,0.1,0.7,0.3,1.1,0.6c6.8,4.6,13.6,9.1,20.3,13.7c0.2,0.1,0.3,0.3,0.4,0.6l-11.8,5.7
			c-2.9-1.5-5.8-3-8.6-4.6c-0.8-0.4-1.3-0.7-1.6-0.9c0,0-0.1-0.1-0.1-0.1L132.9,255.2z"/>
		<path class="st9" d="M155.1,270.1c0.1,0.2,0.2,0.3,0.2,0.4c0,9.4,0,18.8,0,28.1c0,0.1-0.1,0.3-0.3,0.6c0-0.1,0-0.2-0.1-0.3
			c-3.9-1.9-7.8-3.7-11.6-5.6v-17.6L155.1,270.1z"/>
		<path class="st7" d="M110.7,270.1c0.8,0.3,1.5,0.7,2.3,1.1c3.2,1.5,6.4,3.1,9.6,4.6v17.6l-11.8,5.7c-0.1-0.2-0.2-0.3-0.2-0.4
			c0-9.3,0-18.6,0-27.9C110.5,270.5,110.6,270.3,110.7,270.1z"/>
		<path class="st10" d="M122.5,293.4v-17.6l10.1-5.4c0.1,0,0.2,0,0.2,0.1c0,0,0,0,0,0.1l0,28.1c0,0.1-0.1,0.2-0.2,0.2
			c0,0-0.1,0-0.1,0L122.5,293.4z"/>
		<path class="st7" d="M143.2,293.4c3.9,1.9,7.7,3.8,11.6,5.6c0.1,0.1,0.1,0.1,0.1,0.3c-0.1,0.2-0.2,0.4-0.3,0.4
			c-7,4.7-13.9,9.4-20.9,14c-0.1,0.1-0.3,0.1-0.6,0.2h-0.3l0-14.9c0-0.1,0-0.1,0.1-0.1L143.2,293.4z"/>
	</g>
	<g>
		<path class="st7" d="M89.2,261.8c0-0.1,0-0.2-0.1-0.3c-0.1-0.2-0.2-0.3-0.3-0.4c-4.3-2.9-8.7-5.8-13-8.7c-0.3-0.2-0.5-0.3-0.7-0.4
			h-0.2h-0.2c-0.2,0-0.3,0.1-0.4,0.2c-4.4,3-8.8,5.9-13.2,8.9c-0.2,0.1-0.3,0.3-0.4,0.5c-0.1,0.1-0.1,0.2-0.1,0.4
			c0,5.9,0,11.9,0,17.8c0,0.1,0,0.1,0.1,0.2c0.1,0.2,0.2,0.3,0.3,0.4c4.4,3,8.8,5.9,13.2,8.9c0.1,0.1,0.3,0.1,0.4,0.2h0.2h0.2
			c0.2,0,0.3-0.1,0.4-0.1c4.4-3,8.9-6,13.3-9c0.1,0,0.1-0.1,0.2-0.3c0.1-0.2,0.2-0.3,0.2-0.4C89.2,273.8,89.2,267.8,89.2,261.8z
			 M74.9,261.8C74.8,261.8,74.8,261.8,74.9,261.8C74.8,261.8,74.8,261.8,74.9,261.8z M74.8,261.8C74.8,261.8,74.8,261.8,74.8,261.8
			C74.8,261.8,74.8,261.8,74.8,261.8C74.7,261.8,74.8,261.8,74.8,261.8z M74.8,279.9C74.8,279.9,74.8,279.9,74.8,279.9
			C74.8,279.9,74.8,279.9,74.8,279.9z M74.8,279.9C74.8,279.9,74.8,279.9,74.8,279.9C74.8,279.9,74.8,279.8,74.8,279.9
			C74.8,279.8,74.8,279.9,74.8,279.9z"/>
		<path class="st8" d="M74.7,252.1h0.2l0,9.5c0,0,0,0.1,0,0.1c0.2,0.1,0.6,0.3,1.1,0.6c1.8,1,3.7,2,5.5,2.9v11.3l-6.5,3.5
			c0,0-0.1,0.1-0.1,0.1l0,9.5h-0.2c-0.2-0.1-0.3-0.1-0.4-0.2c-4.4-3-8.8-5.9-13.2-8.9c-0.1-0.1-0.2-0.2-0.3-0.4l7.6-3.6l6.4,3.4
			c0,0,0.1,0,0.1,0c0,0,0,0,0,0l0-18c0-0.1,0-0.1-0.1-0.1c0,0,0,0,0,0l-6.5,3.5c-2-1-4.1-1.9-6.1-2.9c-0.5-0.2-1-0.5-1.5-0.7
			c0.1-0.2,0.2-0.4,0.4-0.5c4.4-3,8.8-5.9,13.2-8.9C74.4,252.2,74.5,252.1,74.7,252.1z"/>
		<path class="st7" d="M74.9,252.1h0.2c0.2,0.1,0.4,0.2,0.7,0.4c4.3,2.9,8.7,5.8,13,8.7c0.1,0.1,0.2,0.2,0.3,0.4l-7.6,3.6
			c-1.8-1-3.7-1.9-5.5-2.9c-0.5-0.3-0.8-0.5-1.1-0.6c0,0,0-0.1,0-0.1L74.9,252.1z"/>
		<path class="st9" d="M89,261.6c0.1,0.1,0.1,0.2,0.1,0.3c0,6,0,12,0,18c0,0.1-0.1,0.2-0.2,0.4c0-0.1,0-0.1-0.1-0.2
			c-2.5-1.2-5-2.4-7.4-3.6v-11.3L89,261.6z"/>
		<path class="st7" d="M60.7,261.6c0.5,0.2,1,0.4,1.5,0.7c2,1,4.1,2,6.1,2.9v11.3l-7.6,3.6c-0.1-0.1-0.1-0.2-0.1-0.2
			c0-5.9,0-11.9,0-17.8C60.6,261.9,60.6,261.7,60.7,261.6z"/>
		<path class="st10" d="M68.3,276.5v-11.3l6.5-3.5c0,0,0.1,0,0.1,0c0,0,0,0,0,0l0,18c0,0.1,0,0.1-0.1,0.1c0,0,0,0,0,0L68.3,276.5z"
			/>
		<path class="st7" d="M81.5,276.5c2.5,1.2,4.9,2.4,7.4,3.6c0.1,0,0.1,0.1,0.1,0.2c-0.1,0.1-0.1,0.2-0.2,0.3c-4.4,3-8.9,6-13.3,9
			c-0.1,0-0.2,0.1-0.4,0.1h-0.2l0-9.5c0,0,0-0.1,0.1-0.1L81.5,276.5z"/>
	</g>
	<g>
		<path class="st7" d="M454,261.9c0-0.1,0-0.2-0.1-0.3c-0.1-0.2-0.2-0.3-0.3-0.4c-4.3-2.9-8.7-5.8-13-8.7c-0.3-0.2-0.5-0.3-0.7-0.4
			h-0.2h-0.2c-0.2,0-0.3,0.1-0.4,0.2c-4.4,3-8.8,5.9-13.2,8.9c-0.2,0.1-0.3,0.3-0.4,0.5c-0.1,0.1-0.1,0.2-0.1,0.4
			c0,5.9,0,11.9,0,17.8c0,0.1,0,0.1,0.1,0.2c0.1,0.2,0.2,0.3,0.3,0.4c4.4,3,8.8,5.9,13.2,8.9c0.1,0.1,0.3,0.1,0.4,0.2h0.2h0.2
			c0.2,0,0.3-0.1,0.4-0.1c4.4-3,8.9-6,13.3-9c0.1,0,0.1-0.1,0.2-0.3c0.1-0.2,0.2-0.3,0.2-0.4C454,273.9,454,267.9,454,261.9z
			 M439.7,261.8C439.7,261.8,439.6,261.8,439.7,261.8C439.6,261.8,439.7,261.8,439.7,261.8z M439.6,261.8
			C439.6,261.8,439.6,261.8,439.6,261.8C439.6,261.8,439.6,261.8,439.6,261.8C439.6,261.8,439.6,261.8,439.6,261.8z M439.6,280
			C439.6,280,439.6,280,439.6,280C439.6,280,439.6,280,439.6,280z M439.6,279.9C439.6,279.9,439.6,279.9,439.6,279.9
			C439.6,279.9,439.7,279.9,439.6,279.9C439.7,279.9,439.7,279.9,439.6,279.9z"/>
		<path class="st8" d="M439.5,252.1h0.2l0,9.5c0,0,0,0.1,0,0.1c0.2,0.1,0.6,0.3,1.1,0.6c1.8,1,3.7,2,5.5,2.9v11.3l-6.5,3.5
			c0,0-0.1,0.1-0.1,0.1l0,9.5h-0.2c-0.2-0.1-0.3-0.1-0.4-0.2c-4.4-3-8.8-5.9-13.2-8.9c-0.1-0.1-0.2-0.2-0.3-0.4l7.6-3.6l6.4,3.4
			c0,0,0.1,0,0.1,0c0,0,0,0,0,0l0-18c0-0.1,0-0.1-0.1-0.1c0,0,0,0,0,0l-6.5,3.5c-2-1-4.1-1.9-6.1-2.9c-0.5-0.2-1-0.5-1.5-0.7
			c0.1-0.2,0.2-0.4,0.4-0.5c4.4-3,8.8-5.9,13.2-8.9C439.2,252.2,439.3,252.2,439.5,252.1z"/>
		<path class="st7" d="M439.7,252.1h0.2c0.2,0.1,0.4,0.2,0.7,0.4c4.3,2.9,8.7,5.8,13,8.7c0.1,0.1,0.2,0.2,0.3,0.4l-7.6,3.6
			c-1.8-1-3.7-1.9-5.5-2.9c-0.5-0.3-0.8-0.5-1.1-0.6c0,0,0-0.1,0-0.1L439.7,252.1z"/>
		<path class="st9" d="M453.8,261.6c0.1,0.1,0.1,0.2,0.1,0.3c0,6,0,12,0,18c0,0.1-0.1,0.2-0.2,0.4c0-0.1,0-0.1-0.1-0.2
			c-2.5-1.2-5-2.4-7.4-3.6v-11.3L453.8,261.6z"/>
		<path class="st7" d="M425.5,261.7c0.5,0.2,1,0.4,1.5,0.7c2,1,4.1,2,6.1,2.9v11.3l-7.6,3.6c-0.1-0.1-0.1-0.2-0.1-0.2
			c0-5.9,0-11.9,0-17.8C425.4,261.9,425.4,261.8,425.5,261.7z"/>
		<path class="st10" d="M433.1,276.5v-11.3l6.5-3.5c0,0,0.1,0,0.1,0c0,0,0,0,0,0l0,18c0,0.1,0,0.1-0.1,0.1c0,0,0,0,0,0L433.1,276.5z
			"/>
		<path class="st7" d="M446.3,276.5c2.5,1.2,4.9,2.4,7.4,3.6c0.1,0,0.1,0.1,0.1,0.2c-0.1,0.1-0.1,0.2-0.2,0.3c-4.4,3-8.9,6-13.3,9
			c-0.1,0-0.2,0.1-0.4,0.1h-0.2l0-9.5c0,0,0-0.1,0.1-0.1L446.3,276.5z"/>
	</g>
	<g>
		<path class="st7" d="M398.1,270.5c0-0.1-0.1-0.2-0.2-0.4c-0.1-0.3-0.2-0.5-0.4-0.6c-6.8-4.6-13.6-9.1-20.3-13.7
			c-0.4-0.3-0.8-0.5-1.1-0.6h-0.4h-0.3c-0.3,0.1-0.5,0.1-0.6,0.2c-6.9,4.6-13.8,9.3-20.7,13.9c-0.3,0.2-0.4,0.4-0.6,0.7
			c-0.1,0.2-0.2,0.4-0.2,0.6c0,9.3,0,18.6,0,27.9c0,0.1,0.1,0.2,0.2,0.4c0.1,0.3,0.3,0.5,0.5,0.7c6.9,4.6,13.8,9.3,20.7,13.9
			c0.2,0.1,0.5,0.2,0.7,0.3h0.4h0.3c0.3-0.1,0.4-0.1,0.6-0.2c7-4.7,13.9-9.4,20.9-14c0.1-0.1,0.2-0.2,0.3-0.4
			c0.2-0.3,0.3-0.5,0.3-0.6C398.1,289.3,398.1,279.9,398.1,270.5z M375.7,270.4C375.7,270.4,375.7,270.4,375.7,270.4
			C375.7,270.4,375.7,270.4,375.7,270.4z M375.6,270.4C375.6,270.4,375.6,270.4,375.6,270.4C375.6,270.4,375.6,270.4,375.6,270.4
			C375.5,270.4,375.6,270.4,375.6,270.4z M375.6,298.8C375.6,298.8,375.6,298.8,375.6,298.8C375.6,298.8,375.6,298.8,375.6,298.8z
			 M375.7,298.7C375.7,298.7,375.7,298.7,375.7,298.7C375.7,298.7,375.7,298.7,375.7,298.7C375.7,298.7,375.7,298.7,375.7,298.7z"/>
		<path class="st8" d="M375.5,255.2h0.3l0,14.9c0,0.1,0,0.1,0.1,0.1c0.3,0.2,0.9,0.5,1.6,0.9c2.9,1.5,5.7,3.1,8.6,4.6v17.6
			l-10.2,5.5c-0.1,0-0.1,0.1-0.1,0.1l0,14.9h-0.4c-0.2-0.1-0.5-0.2-0.7-0.3c-6.9-4.6-13.8-9.3-20.7-13.9c-0.2-0.1-0.4-0.4-0.5-0.7
			l11.8-5.7l10.1,5.4c0.1,0,0.2,0,0.2-0.1c0,0,0,0,0-0.1l0-28.1c0-0.1-0.1-0.2-0.2-0.2c0,0-0.1,0-0.1,0l-10.1,5.4
			c-3.2-1.5-6.4-3-9.6-4.6c-0.8-0.4-1.5-0.8-2.3-1.1c0.1-0.3,0.3-0.6,0.6-0.7c6.9-4.6,13.8-9.3,20.7-13.9
			C375,255.4,375.2,255.3,375.5,255.2z"/>
		<path class="st7" d="M375.7,255.2h0.4c0.3,0.1,0.7,0.3,1.1,0.6c6.8,4.6,13.6,9.1,20.3,13.7c0.2,0.1,0.3,0.3,0.4,0.6l-11.8,5.7
			c-2.9-1.5-5.8-3-8.6-4.6c-0.8-0.4-1.3-0.7-1.6-0.9c0,0-0.1-0.1-0.1-0.1L375.7,255.2z"/>
		<path class="st9" d="M397.9,270.1c0.1,0.2,0.2,0.3,0.2,0.4c0,9.4,0,18.8,0,28.1c0,0.1-0.1,0.3-0.3,0.6c0-0.1,0-0.2-0.1-0.3
			c-3.9-1.9-7.8-3.7-11.6-5.6v-17.6L397.9,270.1z"/>
		<path class="st7" d="M353.6,270.1c0.8,0.3,1.5,0.7,2.3,1.1c3.2,1.5,6.4,3.1,9.6,4.6v17.6l-11.8,5.7c-0.1-0.2-0.2-0.3-0.2-0.4
			c0-9.3,0-18.6,0-27.9C353.4,270.5,353.5,270.3,353.6,270.1z"/>
		<path class="st10" d="M365.4,293.4v-17.6l10.1-5.4c0.1,0,0.2,0,0.2,0.1c0,0,0,0,0,0.1l0,28.1c0,0.1-0.1,0.2-0.2,0.2
			c0,0-0.1,0-0.1,0L365.4,293.4z"/>
		<path class="st7" d="M386.1,293.4c3.9,1.9,7.7,3.8,11.6,5.6c0.1,0.1,0.1,0.1,0.1,0.3c-0.1,0.2-0.2,0.4-0.3,0.4
			c-7,4.7-13.9,9.4-20.9,14c-0.1,0.1-0.3,0.1-0.6,0.2h-0.3l0-14.9c0-0.1,0-0.1,0.1-0.1L386.1,293.4z"/>
	</g>
	<path class="st11" d="M457.4,352.6H54.1c-4.5,0-8.2-3.7-8.2-8.2V337c0-4.5,3.7-8.2,8.2-8.2h403.4c4.5,0,8.2,3.7,8.2,8.2v7.4
		C465.6,349,461.9,352.6,457.4,352.6z"/>
</g>
</svg>
