<?xml version="1.0" encoding="utf-8"?>
<!-- Generator: Adobe Illustrator 27.6.1, SVG Export Plug-In . SVG Version: 6.00 Build 0)  -->
<svg version="1.1" id="Capa_1" xmlns="http://www.w3.org/2000/svg" xmlns:xlink="http://www.w3.org/1999/xlink" x="0px" y="0px"
	 viewBox="0 0 512 512" style="enable-background:new 0 0 512 512;" xml:space="preserve">
<style type="text/css">
	.st0{fill:#B9ACAC;}
	.st1{fill:#9E9797;}
	.st2{fill:#CDBFBB;}
	.st3{fill:#FFC107;}
</style>
<path class="st0" d="M426.3,296.1c-11.5-77.1-23-154.3-34.4-231.4c-1.6-10.8-3.5-21-14.7-23.4c-10-2.2-41.3-8.5-93.9-19l-28.5-5.8
	c-16.5-3.4-33-6.7-49.4-10c-7.1-1.4-17.3,4.5-24,8.5c-17.1,8.4-34.3,16.9-51.4,25.5c-4.4,2.2-7.3,5.3-8.9,9.4
	c-11,28.2-22,56.4-32.9,84.7c-1.3,3.3-2.8,7.3-2.5,10.1c12,103,24,206,36.1,309c1,8.7,5,15.5,13.8,17.4
	c40.8,8.8,81.6,17.5,122.4,26.2l30.7,6.7c5,1.2,8,1.9,9,2c6.5,0.5,11.8-2.4,18-5.4c33.7-14.7,55.4-24.3,65.3-28.7
	c6-2.7,8.5-7.6,10-14.3c11.6-51.7,23.1-103.5,34.6-155.2C426.2,299,426.5,297,426.3,296.1z"/>
<path class="st1" d="M254.6,16.5l28.5,5.8c-2.5,4.3-5.5,8.1-9,11.4c-10.5,11.7-21.1,23.4-31.7,35.1c-12.5,13.7-30.6-3.5-19.2-16.4
	c7-7.9,14.1-16,21.2-24.3L254.6,16.5z"/>
<circle class="st1" cx="309.1" cy="109.9" r="18"/>
<path class="st1" d="M314.5,471.9c-0.2,7.9-0.4,15.8-0.5,23.7c0,2,0.5,3.5,1.7,4.8c-6.2,3-11.5,5.9-18,5.4c-1-0.1-4-0.7-9-2l0-20.2
	c0-10-1.2-22.1,1-31.8c1.6-7.1,3.2-14.2,4.8-21.3c1.7-7.8,3.2-13.1,10.9-14.9c7-1.6,13.7,2.8,15,9.8c0.4,2.3,0.1,5.8-1,10.6
	c-1.4,6.1-2.8,12.2-4.1,18.4C314.1,460.3,314.4,465.9,314.5,471.9z"/>
<path class="st2" d="M181.5,14.9L244.7,28c-7.1,8.3-14.2,16.4-21.2,24.3c-11.5,12.9,6.7,30.1,19.2,16.4
	c10.6-11.7,21.1-23.4,31.7-35.1c11.9,2.5,23.7,4.9,35.4,7.5c8.9,1.9,13.8,6.8,15.2,16.1c1.5,10.1,3,20.2,4.5,30.2
	c0.3,2.1-0.1,3.9-0.1,6c-0.1,3.6,2.1,6.7,2.6,9.5c9.7,65.1,19.4,130,29.1,194.5c0,0.1,0,0.2,0,0.4c-11.9,53.7-23.9,107.4-36,161.1
	c-1.4,6.2-4.9,10.5-10.6,13c-0.1-6-0.4-11.6,0.9-17.5c1.3-6.1,2.7-12.3,4.1-18.4c1.1-4.8,1.4-8.3,1-10.6c-1.3-7-8.1-11.3-15-9.8
	c-7.7,1.7-9.2,7.1-10.9,14.9c-1.6,7.1-3.2,14.2-4.8,21.3c-2.2,9.7-1,21.8-1,31.8c-10.4,4.1-20.6,8.6-30.6,13.5
	c-40.8-8.7-81.6-17.4-122.4-26.2c-8.8-1.9-12.8-8.7-13.8-17.4c-12.1-103-24.1-206-36.1-309c-0.3-2.8,1.2-6.8,2.5-10.1
	c10.9-28.2,21.9-56.5,32.9-84.7c1.6-4.1,4.6-7.2,8.9-9.4C147.2,31.8,164.4,23.3,181.5,14.9z M321.8,109.9c0-7-5.7-12.7-12.7-12.7
	s-12.7,5.7-12.7,12.7s5.7,12.7,12.7,12.7S321.8,116.9,321.8,109.9z"/>
<path class="st1" d="M289.9,226.2c-5.2,2.6-10.9,1.6-18.6-2.1c-6.5-3.5-14.8-9.7-24.9-19.8c-9.1-8.7-23.7-19.6-42.6-33.6
	c-4.5,12.2-4.5,25.3-0.6,36.6c3.9,11.4,6.9,21.3,10.2,29.1c4.2,3.1,8.4,6.2,14.4,12c6.3,4.7,13.5,10.7,21.7,18.1
	c16.5,13.6,31.4,23.3,46.1,27.1c-7.8,10.5-13.2,14.2-17.6,12.3c-4.6-0.8-10.1-3-15.5-6.3c-5.5-2.2-11.8-6.8-19-12.9
	c-6.1-5.8-12.3-10.5-17.9-12.7c-5.3-3.3-9-2.8-11.7-0.9c-2.9,3-3.2,11.3-1,25.9l0.1,13c1.4,12.1,3,23,4.4,35.1
	c2.5,12.3,4.2,23.2,4.4,35.1c0.9,8.4-1.3,14-6.7,17.8c-5.4,3.8-10.4,5.3-16.4,5.4c-5.9,0.1-11.5-2-16.8-5.4
	c-2.1-1.6-2.8-4.1-3.2-8.9c0.8-4.6,1.2-6.9,2.6-7.8c2.9-3,4.9-7.4,6.1-14.3c0.9-11.7,2-24.5-0.2-39.1c-1.2-13.2-3.3-27.8-6.4-43.8
	c-2.1-14.6-3.7-25.5-4.8-32.8l0.2-1.1c-0.5-3.6,0.1-7.1-0.3-11.9c-0.3-4.8-0.5-10.7,0.8-17.6c-0.1-13-0.1-26.1-1.3-39.3
	c-0.3-11.9-1.9-22.8-4.8-32.8c-1.3-6.1-3-10-6.2-11.8c-1.1-0.2-0.7-2.5-0.5-3.6c0.4-2.3,0.6-3.4,2-4.4c2.7-1.9,5.4-3.8,9.5-6.6
	c6.6-3.6,16.7-0.6,29.6,6.5c7.4,4.9,15.6,12.2,24.7,21l13.1,13l14.2,13.2c10.3,8.9,19.6,16.5,27.9,22.7c4.2,3.1,6.8,8.3,8.1,14.5
	C294.1,222.2,293.5,225.7,289.9,226.2z"/>
<path class="st3" d="M147.8,244.4c3.1,2.2,5.5,5.3,7.2,9.3c10.3,24,20.5,48,30.5,72c0.2,0.5,0.7,0.8,1.2,0.9c27.3,2.5,54.6,5,82,7.5
	c2.4,0.2,4.7,1.3,6.9,3.3c13,12,0.5,22.6-8.7,30.4l-51.7,45.3c-0.4,0.3-0.6,0.9-0.5,1.4c5.8,25.7,11.5,51.3,17.2,76.6
	c2.2,9.8-0.8,17.3-10.8,20.3l-5.5,0.3c-25.1-13.9-49.7-28.4-74.1-43.5c-0.4-0.3-1-0.3-1.5,0l-74.6,43.6l-5.2-0.4
	c-10-3.3-13.8-10.1-11.4-20.4c5.8-25.2,11.6-50.6,17.5-76.2c0.1-0.5-0.1-1-0.4-1.4c-20.1-17.7-40.1-35.3-59.9-52.8
	c-2.3-2-4.2-4.8-5.7-8.4v-8.9c2.8-2.4,4.5-6.4,9.1-8.2c1.5-0.6,3.6-1,6.3-1.3c19.4-1.8,38.6-3.6,57.7-5.3l20.3-1.6
	c0.5,0,1-0.4,1.2-0.9l16.5-38.2c5.3-12.6,10.8-25.1,16.4-37.6c1.1-2.6,3.4-4.2,5.5-5.8C138,242.1,142.9,242.1,147.8,244.4z"/>
</svg>
