<svg xmlns="http://www.w3.org/2000/svg" xml:space="preserve" id="Capa_1" x="0" y="0" style="enable-background:new 0 0 512 512" version="1.1" viewBox="0 0 512 512"><style>.st0{fill:#ce7549}.st1{fill:#ffb24d}.st3{fill:#dd8858}.st4{opacity:.37;fill:#282528}.st5{fill:#ffc265}</style><path d="M209.7 175.5h95.9v32.6h-95.9z" class="st0"/><path d="M360.1 9c-19.9-3-41.5-4.2-64.6-3.4L237 5.5l-19.4.1c-18.6-.5-37.1.2-55.5 2.1-34.4 3.6-61.1 18.6-61.1 57.5-.4.7-.4 1.7 0 2.9l-.3 8.3c5.2 54.5 43.2 107.9 84.7 142 0-.1 0-.3.1-.4 9.8-8 21.7-13.7 34.1-17.2l.1-13.2c6.3 1.4 12.6 1.4 18.8-.1 4.1-1.7 8.4-2.8 12.7-3.2 3.3-.5 6.5-.5 9.7-.2 10.8 1.7 18.9 6.1 31.6 3.4l.1 13.6c12.2 3.5 23.8 9 33.1 16.9.1.3.2.7.2 1l.2-.2c41.9-33.5 79.6-87.4 85.3-142.1V66.1c-2-33.1-18-52-51.3-57.1zM230.8 97c5.8-6 6.1-18.4 3.4-25.7-3-8-10.7-12.9-18.3-6.3 7.6-6.6 15.3-1.7 18.3 6.3 2.7 7.2 2.4 19.6-3.4 25.7z" class="st0"/><path d="M217.5 5.6c-19.5 3.3-34.8 13.9-43.1 32.3-22.4-.2-58.2 4.7-70.6 25.7-.9 1.5-1.8 3-2.8 4.5-.5-1.2-.5-2.2 0-2.9-.1-38.9 26.7-53.9 61.1-57.5 18.3-1.8 36.8-2.6 55.4-2.1zM411.4 65.9v1.2c-.7-.4-1.3-1-1.8-1.9-9.6-15.8-27-21.8-44.6-24.9-9.7-1.7-18.8-2.5-27.3-2.5-6.6-13.7-22.2-29.8-38.5-30.6-1.5-.1-2.8-.6-3.8-1.6 23.2-.7 44.8.4 64.7 3.4 33.3 5.1 49.3 24 51.3 56.9z" class="st1"/><path d="M219.4 100.1c-11.1-10.5-12.3-22.2-3.5-35.2 7.6-6.6 15.3-1.7 18.3 6.3 4 10.6 1.5 32.1-14.8 28.9z" style="fill:#282528"/><path d="M336.8 37.8C330.3 24 314.6 7.9 298.4 7.1c-1.5-.1-2.8-.6-3.8-1.6l-58.5-.1-19.4.1c-19.5 3.3-34.8 13.9-43.1 32.3-4.7 11.2-5.6 22.6-2.9 34.2 5.5 23.7 12.2 52 20.2 84.7 3.8 15.8 13.2 26 28 30.7 6.3 1.4 12.6 1.4 18.8-.1 4.1-1.7 8.4-2.8 12.7-3.2 3.3-.5 6.5-.5 9.7-.2 10.8 1.7 18.9 6.1 31.6 3.4 14.8-4.6 24.1-14.9 28-30.8 11.6-47.9 18.5-76.7 20.6-86.5 2.1-10.3 1-21-3.5-32.2zM233.4 71.2c2.7 7.3 2.4 19.7-3.4 25.7 5.8-6 6.1-18.5 3.4-25.7-3-8-10.7-12.9-18.3-6.3 7.6-6.7 15.3-1.8 18.3 6.3zm-23.7 14.3zm-.4-2.2z" class="st3"/><ellipse cx="288.8" cy="81.2" class="st4" rx="12.9" ry="19.3"/><ellipse cx="223" cy="79.3" class="st4" rx="12.9" ry="19.3"/><path d="m227.4 140.2.3-.2c2.1-1.3 4.8-.7 6.1 1.4l6.3 9.9c1.3 2.1.7 4.8-1.4 6.1l-.3.2c-2.1 1.3-4.8.7-6.1-1.4l-6.3-9.9c-1.3-2-.7-4.7 1.4-6.1zM284.4 140.1l.3.2c2.1 1.3 2.7 4.1 1.3 6.2l-6.3 9.9c-1.3 2.1-4.1 2.7-6.2 1.3l-.3-.2c-2.1-1.3-2.7-4.1-1.3-6.2l6.3-9.9c1.4-2.1 4.2-2.7 6.2-1.3z" class="st4"/><path d="M351.9 393.6c-5.8 29.6-14.2 58.3-25.5 86.3-1.9 5.4-4 10.6-6.3 15.4-1.7 5.7-3.9 10.3-10 11.2H200.9c-6.1-1-7.8-5.5-10.1-11.4l-6.1-15.3c-15.5-39-28.1-83.3-30.1-126.2-.4-9 0-18.4 1.4-28.3 1.7-12.2 5-22.7 9.9-31.3 4.7-10.3 14.3-20 22-26.8 4.7-6.2 8-9.6 7.1-17.2-1.5-3.9-4.6-7.7-9.2-11.3-.9-3-1.1-6.5-.7-10.5-.3-3.4-.2-6.7.4-9.8 0-.1 0-.3.1-.4 9.8-8 21.7-13.7 34.1-17.2 10.3-2.9 21-4.5 31.3-4.8h9.8c10.3.5 21.3 2.1 31.7 5 12.2 3.5 23.8 9 33.1 16.9.1.3.2.7.2 1 .6 2.6.6 5.4.1 8.3.6 4.2.5 8-.4 11.6-4.4 3.1-7.4 6.8-9 11.1-1.6 6.2 1.9 11.6 6 16.3 9.4 8.9 17.5 17.5 23.4 28.1 14.8 30 12.2 67.5 6 99.3z" class="st3"/><path d="M185.2 218c41.9.2 83.8.3 125.7.1 3.7 0 9.5.5 14.4-.2.8 2.9.9 6 .4 9.3-45.5.1-91 .1-136.5.1-.2 0-1-.1-2.2-.4-1.1-.2-1.9.2-2.2 1.4-.3-3.6-.2-7 .4-10.3z" class="st5"/><path d="M325.7 227.1c.6 4.2.5 8-.4 11.6H185.5c-.9-3-1.1-6.5-.7-10.5.4-1.2 1.1-1.6 2.2-1.4 1.2.2 2 .4 2.2.4 45.5 0 91 0 136.5-.1z" class="st1"/><path d="M325.3 238.7c-4.4 3.1-7.4 6.8-9 11.1l-121.6.2c-1.5-3.9-4.6-7.7-9.2-11.3h139.8z" class="st0"/><path d="M322.2 266.1c9.4 8.9 17.5 17.5 23.4 28.1l-180.1-.2c4.7-10.3 14.3-20 22-26.8 60.8.2 105.1.2 133 .1.8.1 1.3-.3 1.7-1.2zM326.2 479.9c-1.9 5.5-4 10.6-6.2 15.4l-129.4-.1-6.1-15.3c47.1-.3 94.5-1 141.7 0z" class="st5"/><path d="m190.5 495.2 129.4.1c-1.8 5.7-3.9 10.3-10 11.2H200.6c-6.1-.9-7.8-5.4-10.1-11.3z" class="st1"/></svg>