<svg xmlns="http://www.w3.org/2000/svg" xmlns:xlink="http://www.w3.org/1999/xlink" xml:space="preserve" id="Capa_1" x="0" y="0" style="enable-background:new 0 0 512 512" version="1.1" viewBox="0 0 512 512"><style>.st1{fill:#ffc51c}.st2{fill:#ff0059}.st4{fill:#08b7fc}</style><path d="m397.5 9.6-5.1 45.8-.2 1.6-10.4 93.7c-.5 4.2-1.1 8.3-2 12.4-9.5 43.8-41.9 79.7-85 93.4h-77.6c-43.1-13.7-75.5-49.6-85-93.4-.9-4.1-1.6-8.2-2-12.4L119.8 57l-.2-1.6-5.1-45.8h283z" style="fill:#ffd24f"/><path d="m407.5 26.8-1.7 15.3c-.8 7.5-6.4 13.5-13.6 15-1.1.2-2.3.4-3.5.4H123.3c-1.2 0-2.4-.1-3.6-.4-7.1-1.5-12.7-7.4-13.6-15l-1.7-15.3c-1.1-10.2 6.9-19.1 17.1-19.1h268.8c10.3 0 18.3 8.9 17.2 19.1zM217.9 256.5H294v108.6h-76.1zM356.7 483.9v.8c0 10.9-8.8 19.7-19.7 19.7H174.9c-10.9 0-19.6-8.8-19.6-19.7v-.8c0-10.8 8.8-19.6 19.6-19.6H337c10.9-.1 19.7 8.7 19.7 19.6z" class="st1"/><path d="M321.7 464.2c-.8.2-1.6.4-2.5.4H192.7c-.9 0-1.7-.1-2.5-.4-4.2-1.3-6.8-5.7-5.5-10.2l24.1-86.4c1-3.6 4.3-6.1 8-6.1H295c3.7 0 7 2.5 8 6.1l24.1 86.4c1.4 4.5-1.2 8.9-5.4 10.2z" class="st1"/><path d="M278 111.1c-.1-9-.1-18.1-.1-27.1 0-.1-.1-.2-.2-.4-.1-.3-.2-.5-.4-.6-6.6-4.4-13.2-8.8-19.9-13.2-.4-.3-.8-.5-1.1-.6H255.6c-.2.1-.3.1-.4.1-.1 0-.2 0-.4-.1-6.8 4.4-13.5 9-20.3 13.4-.3.1-.5.4-.6.7.1 0 .2.1.3.1 0 0 0 .1-.1.1-.1.2-.2.4-.2.6V111c0 .1.1.2.2.4.1.3.3.6.5.7 6.8 4.4 13.5 9 20.3 13.4.2.1.5.2.7.3h.3v.1h.3c.3-.1.5-.1.6-.2 6.9-4.4 13.6-9 20.5-13.5.1 0 .1-.1.2-.2s.1-.2.2-.3c.2-.3.3-.5.3-.6zM278 422.4c-.1-9-.1-18.1-.1-27.1 0-.1-.1-.2-.2-.4-.1-.3-.2-.5-.4-.6-6.6-4.4-13.2-8.8-19.9-13.2-.4-.3-.8-.5-1.1-.6H255.6c-.2.1-.3.1-.4.1-.1 0-.2 0-.4-.1-6.8 4.4-13.5 9-20.3 13.4-.3.1-.5.4-.6.7.1 0 .2.1.3.1 0 0 0 .1-.1.1-.1.2-.2.4-.2.6v26.9c0 .1.1.2.2.4.1.3.3.6.5.7 6.8 4.4 13.5 9 20.3 13.4.2.1.5.2.7.3h.3v.1h.3c.3-.1.5-.1.6-.2 6.9-4.4 13.6-9 20.5-13.5.1 0 .1-.1.2-.2s.1-.2.2-.3c.2-.3.3-.5.3-.6zM358.2 111.1c-.1-9-.1-18.1-.1-27.1 0-.1-.1-.2-.2-.4-.1-.3-.2-.5-.4-.6-6.6-4.4-13.2-8.8-19.9-13.2-.4-.3-.8-.5-1.1-.6h-.6c-.2.1-.3.1-.4.1-.1 0-.2 0-.4-.1-6.8 4.4-13.5 9-20.3 13.4-.3.1-.5.4-.6.7.1 0 .2.1.3.1 0 0 0 .1-.1.1-.1.2-.2.4-.2.6V111c0 .1.1.2.2.4.1.3.3.6.5.7 6.8 4.4 13.5 9 20.3 13.4.2.1.5.2.7.3h.3v.1h.3c.3-.1.5-.1.6-.2 6.9-4.4 13.6-9 20.5-13.5.1 0 .1-.1.2-.2s.1-.2.2-.3c.1-.3.2-.5.2-.6zM199.8 111.1c-.1-9-.1-18.1-.1-27.1 0-.1-.1-.2-.2-.4-.1-.3-.2-.5-.4-.6-6.6-4.4-13.2-8.8-19.9-13.2-.4-.3-.8-.5-1.1-.6H177.4c-.2.1-.3.1-.4.1-.1 0-.2 0-.4-.1-6.8 4.4-13.5 9-20.3 13.4-.3.1-.5.4-.6.7.1 0 .2.1.3.1 0 0 0 .1-.1.1-.1.2-.2.4-.2.6V111c0 .1.1.2.2.4.1.3.3.6.5.7 6.8 4.4 13.5 9 20.3 13.4.2.1.5.2.7.3h.3v.1h.3c.3-.1.5-.1.6-.2 6.9-4.4 13.6-9 20.5-13.5.1 0 .1-.1.2-.2s.1-.2.2-.3c.2-.3.3-.5.3-.6z" class="st2"/><path d="M381.8 150.8c-.5 4.2-1.1 8.4-2 12.4H132.2c-.9-4.1-1.6-8.2-2-12.4h251.6z" class="st1"/><defs><path id="SVGID_1_" d="M247.6 169.2h119v22.4h-119z"/></defs><clipPath id="SVGID_00000034069785634919373240000007209076377803081368_"><use xlink:href="#SVGID_1_" style="overflow:visible"/></clipPath><g style="clip-path:url(#SVGID_00000034069785634919373240000007209076377803081368_)"><circle cx="256" cy="177.5" r="8.3" class="st4"/><circle cx="288.6" cy="177.5" r="8.3" class="st4"/><circle cx="321.3" cy="177.5" r="8.3" class="st4"/><circle cx="353.9" cy="177.5" r="8.3" class="st4"/></g><defs><path id="SVGID_00000177455918980921352590000010785115050744083623_" d="M181.2 476.9h153v22.4h-153z"/></defs><clipPath id="SVGID_00000034084229467023394110000013795860668076682924_"><use xlink:href="#SVGID_00000177455918980921352590000010785115050744083623_" style="overflow:visible"/></clipPath><g style="clip-path:url(#SVGID_00000034084229467023394110000013795860668076682924_)"><circle cx="189.5" cy="485.3" r="8.3" class="st4"/><circle cx="222.2" cy="485.3" r="8.3" class="st4"/><circle cx="254.8" cy="485.3" r="8.3" class="st4"/><circle cx="287.4" cy="485.3" r="8.3" class="st4"/><circle cx="320.1" cy="485.3" r="8.3" class="st4"/></g><defs><path id="SVGID_00000038401591960717496380000004129098290973081220_" d="M145.3 169.2h119v22.4h-119z"/></defs><clipPath id="SVGID_00000060009461907407554130000009017133188885809034_"><use xlink:href="#SVGID_00000038401591960717496380000004129098290973081220_" style="overflow:visible"/></clipPath><g style="clip-path:url(#SVGID_00000060009461907407554130000009017133188885809034_)"><circle cx="256" cy="177.5" r="8.3" class="st4"/><circle cx="223.3" cy="177.5" r="8.3" class="st4"/><circle cx="190.7" cy="177.5" r="8.3" class="st4"/><circle cx="158.1" cy="177.5" r="8.3" class="st4"/></g><path d="M256 7.7v496.6h-81.1c-10.9 0-19.6-8.8-19.6-19.7v-.8c0-10.8 8.8-19.6 19.6-19.6h15.4c-4.2-1.3-6.8-5.7-5.5-10.2l24.1-86.4c1-3.6 4.3-6.1 8-6.1h1.1v-105h-.7c-43.1-13.7-75.5-49.6-85-93.4-.9-4.1-1.6-8.2-2-12.4L119.8 57c-7.1-1.5-12.7-7.4-13.6-15l-1.7-15.3c-1.1-10.2 6.9-19.1 17.1-19.1H256z" style="opacity:5.000000e-02"/></svg>