<?xml version="1.0" encoding="utf-8"?>
<!-- Generator: Adobe Illustrator 27.6.1, SVG Export Plug-In . SVG Version: 6.00 Build 0)  -->
<svg version="1.1" id="Capa_1" xmlns="http://www.w3.org/2000/svg" xmlns:xlink="http://www.w3.org/1999/xlink" x="0px" y="0px"
	 viewBox="0 0 512 512" style="enable-background:new 0 0 512 512;" xml:space="preserve">
<style type="text/css">
	.st0{fill:#5C1100;}
	.st1{fill:#B2643E;}
	.st2{fill:#330A00;}
	.st3{opacity:0.14;}
	.st4{fill:#874C2F;}
	.st5{opacity:0.19;}
</style>
<path class="st0" d="M408.2,267.7c-0.4,39.3-3.1,76.2-7.2,110.1c-1.9,15.2-4,29.8-6.3,43.7c-4.9,29-10.6,55.4-16.6,78.8H134
	c-0.1-0.3-0.2-0.6-0.2-0.9c-5.5-21.9-10.9-46.3-15.6-73.1c-2.5-14.5-4.8-29.6-6.8-45.4c-4.1-32.4-6.8-67.5-7.5-104.9
	c-0.8-42.1,1.3-81.2,4.9-117c0.4-3.9,0.8-7.7,1.2-11.5c2.1-18.7,4.7-36.3,7.5-53c0.7-4.2,1.4-8.3,2.2-12.4c0.7-3.9,1.4-7.7,2.2-11.4
	c1.3-6.6,2.6-13,4-19.2h260.4c1.7,8.1,3.5,16.6,5.1,25.3c0.8,4.1,1.5,8.2,2.2,12.4c0.1,0.6,0.2,1.2,0.3,1.9l0,0.2
	c3,17.6,5.8,36.4,8,56.3c0.5,4.2,0.9,8.4,1.3,12.6C406.7,193.4,408.6,229.3,408.2,267.7z"/>
<path class="st1" d="M386.3,51.5c0,2.7-0.8,5.2-2.5,7.8c-7.2,11.2-29.7,20.7-60.5,26.4c-5.3,1-10.8,1.9-16.6,2.6c0,0,0,0,0,0h0
	c-15.6,2-32.7,3.1-50.7,3.1c-18.1,0-35.4-1.1-51-3.2c-8.2-1.1-16-2.4-23.3-3.9h0C148,77,125.8,65,125.8,51.5
	c0-22,58.3-39.8,130.2-39.8c55.7,0,103.1,10.7,121.8,25.7C383.3,41.8,386.3,46.5,386.3,51.5z"/>
<path class="st2" d="M125.8,51.5l-8.3,43c26,11.7,74.1,29.2,136.6,28.9C318.8,123,368,103.7,394,91.3l-7.7-39.8
	c-16.9,11.4-63.8,39.8-130.2,39.8S142.8,62.9,125.8,51.5z"/>
<path class="st2" d="M401,377.8c-1.9,15.2-4,29.8-6.3,43.7c-13.5,4.4-29.5,8.9-47.8,12.7c-10.4,2.2-21.4,4.1-33.2,5.8
	c-15.5,2.1-32.2,3.6-49.9,4.2c-4.3,0.1-8.7,0.2-13.1,0.2c-16.4,0.1-31.9-0.7-46.5-2c-11.7-1.1-22.9-2.6-33.4-4.3
	c-19.9-3.3-37.6-7.5-52.7-11.8c-2.5-14.5-4.8-29.6-6.8-45.4c27.6,13.1,77,31.5,141.6,31.5c15.9,0,30.9-1.1,44.8-3
	C345.3,403,381,387.9,401,377.8z"/>
<path class="st2" d="M160.6,102.5c-2.3-16.6-11.8-29.7-25.4-32.5c-4.4-0.9-8.8-0.6-13.1,0.6c-0.1,0-0.2,0-0.3,0.1
	c-0.7,3.7-1.5,7.5-2.2,11.4c0.1,0,0.2-0.1,0.2-0.1c4.2-1.9,8.7-2.5,13.1-1.6C144.3,82.7,151.9,94,153,108c0.3,4.2,0.1,8.7-0.8,13.3
	c-4,19.6-19,33.1-33.6,30.1c-3.1-0.6-6-2-8.5-3.9c-0.4,3.8-0.8,7.6-1.2,11.5c2.4,1.3,4.9,2.3,7.6,2.8c14.2,2.9,28.7-6.3,37.2-21.8
	c2.8-5.1,4.9-10.8,6.2-17.1c0.9-4.2,1.3-8.4,1.3-12.4C161.2,107.7,161,105.1,160.6,102.5z"/>
<path class="st2" d="M222.5,122c0-0.1,0-0.3,0-0.4c-0.1-1-0.2-1.9-0.4-2.8c-2-13.3-8.3-24.5-17.1-30.6c-4.1-2.9-8.8-4.7-13.8-5
	c-3.2-0.2-6.4,0.2-9.5,1.1h0c-8.5,2.5-15.9,9.1-21.1,18.3c-1.2,2.2-2.3,4.4-3.3,6.8c-2.2,5.5-3.6,11.6-4,18.1
	c-0.3,4.3-0.2,8.5,0.4,12.5c2.6,20,15,35.5,31,36.7c15.4,1.1,29.5-11.6,35.3-30.1c0.1-0.4,0.2-0.7,0.3-1.1c1.2-4.1,2-8.5,2.3-13
	C222.8,128.8,222.8,125.4,222.5,122z M214.7,131.8c-1.4,20-14.5,35.3-29.3,34.2c-14.8-1-25.6-18.1-24.2-38c0.4-6,1.9-11.5,4.1-16.3
	c5.3-11.3,14.8-18.6,25.2-17.9c12.1,0.9,21.5,12.4,23.8,27.4C214.8,124.5,215,128.1,214.7,131.8z"/>
<path class="st2" d="M287.5,125.5c-0.2-1-0.5-1.9-0.7-2.8c-0.1-0.4-0.2-0.7-0.3-1.1c0-0.1-0.1-0.2-0.1-0.3
	c-3.8-12.3-11.4-21.9-20.9-26.1c0,0-0.1-0.1-0.2-0.1h0c-3.2-1.4-6.6-2.2-10.2-2.2c-3.8-0.1-7.4,0.7-10.8,2.1c-0.1,0-0.2,0.1-0.3,0.1
	h0c-9.7,4.2-17.6,13.9-21.6,26.5c0,0.1-0.1,0.3-0.1,0.4c-0.1,0.2-0.2,0.5-0.2,0.8c-0.3,1-0.6,2.1-0.8,3.1c-1,4.2-1.6,8.6-1.6,13.2
	c0,2.5,0.1,5,0.3,7.4c0.1,1,0.2,1.9,0.3,2.9c3.1,21,16.7,36.9,33.3,37.2c16.7,0.3,30.9-15.4,34.6-36.5c0.1-0.9,0.3-1.7,0.4-2.6
	c0.3-2.3,0.5-4.7,0.5-7.1C289.1,135.2,288.6,130.2,287.5,125.5z M253.7,176c-14.8-0.3-26.6-16.7-26.2-36.7c0.1-4.5,0.8-8.7,1.9-12.7
	c0.4-1.3,0.9-2.7,1.4-3.9c4.7-11.5,13.8-19.3,24.2-19.2c10,0.2,18.7,7.8,23.1,18.9c0.5,1.2,1,2.5,1.3,3.9c1.2,4.3,1.9,9,1.8,13.9
	C280.8,160.2,268.5,176.2,253.7,176z"/>
<path class="st2" d="M355.3,128.9c-0.7-7.4-2.6-14.3-5.4-20.3c-0.3-0.7-0.6-1.3-1-2c-5.9-11.4-15.2-19.2-25.6-21
	c-2.2-0.4-4.5-0.5-6.8-0.3c-3.5,0.3-6.7,1.3-9.8,2.9c0,0,0,0,0,0h0c-10,5.2-17.4,16.5-19.9,30.5c-0.2,0.9-0.3,1.7-0.4,2.6
	c0,0.1,0,0.2,0,0.3c-0.6,4.3-0.7,8.8-0.2,13.5c0.3,3.8,1,7.5,2,11c0.1,0.5,0.3,0.9,0.4,1.4c5.8,19.3,20.5,32.6,36.4,31.2
	c14.5-1.3,25.8-14.4,29.4-31.8C355.5,141.2,355.9,135.2,355.3,128.9z M323.9,168.1c-14.8,1.3-28.2-13.8-30-33.7
	c-0.4-4.8-0.2-9.4,0.7-13.7c2.8-13.6,11.5-23.7,22.8-24.7c9.6-0.9,18.6,5.2,24.3,15.1c3,5.3,5.1,11.6,5.7,18.6
	C349.2,149.5,338.7,166.7,323.9,168.1z"/>
<path class="st2" d="M402,147.6c-2.6,3.5-5.8,6.2-9.4,7.9c-2.2,1-4.6,1.7-7.1,1.9c-14.8,1.3-28.1-13.9-29.8-33.8
	c-0.5-6.3,0.1-12.2,1.8-17.6v0c3.6-11.6,11.8-20,21.9-20.8c3.3-0.3,6.6,0.3,9.7,1.5c1.6,0.6,3.1,1.5,4.5,2.4c0,0,0,0,0,0
	c-0.7-4.2-1.5-8.4-2.2-12.4c-0.1,0-0.1-0.1-0.2-0.1c-1.3-0.5-2.6-1-4-1.3c-2.8-0.7-5.7-1-8.7-0.7c-14.5,1.2-25.9,14.4-29.6,31.9
	c-0.2,0.8-0.3,1.6-0.5,2.4v0c-0.8,4.9-1,10-0.6,15.3c0.7,8.3,3,16,6.4,22.5c7.1,13.7,19.2,22.3,32.2,21.2c1.9-0.2,3.8-0.5,5.6-1.1
	c4.2-1.3,8-3.6,11.3-6.7C402.9,156,402.5,151.8,402,147.6z"/>
<polygon class="st2" points="206.5,425 196.8,500.3 162.8,500.3 173.2,420.7 "/>
<polygon class="st2" points="356.4,500.3 322.4,500.3 312.1,428.9 345.4,424.1 "/>
<path class="st3" d="M240.5,214.5V271h-55C195,242.1,215.5,220.4,240.5,214.5z"/>
<path class="st3" d="M323.1,271h-55v-56.5C293.1,220.4,313.7,242.1,323.1,271z"/>
<rect x="185.5" y="294.4" class="st3" width="54.9" height="55.4"/>
<rect x="268.1" y="294.4" class="st3" width="54.9" height="55.4"/>
<path class="st4" d="M351.2,48.5c0,1.7-0.6,3.4-1.8,5.1c-5.3,7.3-21.7,13.5-44.2,17.3c-3.9,0.6-7.9,1.2-12.1,1.7c0,0,0,0,0,0h0
	c-11.4,1.3-23.9,2.1-37,2.1c-13.2,0-25.9-0.7-37.3-2.1c-6-0.7-11.7-1.6-17-2.6h0c-24.7-4.7-40.8-12.6-40.8-21.4
	c0-14.4,42.6-26.1,95.2-26.1c40.7,0,75.4,7,89,16.8C349.1,42.1,351.2,45.2,351.2,48.5z"/>
<g>
	<path class="st5" d="M393.7,156c-0.1,3.8-0.3,7.6-0.6,11.4c-1.8,28.5-6.7,58-14.9,87.6c-16.7,60.8-44.8,113.8-79.3,154.8
		c-10.8,12.8-22.2,24.5-34,34.8c-20.6,17.9-42.6,31.9-65.2,41.4c-11.6,4.9-23.5,8.5-35.3,10.8c-9.8,1.9-19.7,3-29.5,3
		c-5.5-21.9-10.9-46.3-15.6-73.1c-2.5-14.5-4.8-29.6-6.8-45.4c-4.1-32.4-6.8-67.5-7.5-104.9c-0.8-42.1,1.3-81.2,4.9-117
		c0.4-3.9,0.8-7.7,1.2-11.5c2.1-18.7,4.7-36.3,7.5-53c0.7-4.2,1.4-8.3,2.2-12.4c0.7-3.9,1.4-7.7,2.2-11.4c1.3-6.6,2.6-13,4-19.2
		c0-22,58.3-39.8,130.2-39.8c55.7,0,103.1,10.7,121.8,25.7c1.5,4.6,2.8,9.4,4.1,14.1c0.2,0.8,0.4,1.7,0.6,2.5
		c0.5,1.8,0.9,3.5,1.3,5.3c1.2,5.3,2.4,10.7,3.4,16.2c0.7,3.8,1.3,7.5,1.9,11.4c0.3,2.1,0.6,4.3,0.9,6.4
		C393.5,113.7,394.5,134.5,393.7,156z"/>
</g>
</svg>
