<?xml version="1.0" encoding="utf-8"?>
<!-- Generator: Adobe Illustrator 27.6.1, SVG Export Plug-In . SVG Version: 6.00 Build 0)  -->
<svg version="1.1" id="Capa_1" xmlns="http://www.w3.org/2000/svg" xmlns:xlink="http://www.w3.org/1999/xlink" x="0px" y="0px"
	 viewBox="0 0 512 512" style="enable-background:new 0 0 512 512;" xml:space="preserve">
<style type="text/css">
	.st0{fill:#393B2E;}
	.st1{fill:#5E5939;}
	.st2{fill:#DFEEAB;}
	.st3{fill:#9F4B03;}
	.st4{opacity:0.18;}
</style>
<g>
	<path class="st0" d="M431.2,263.8c3.3,39.6,4.8,89.8-16.4,125.1c-3,5-7.9,11.1-14.7,18.2c-17.5,18.5-34,35.9-48.5,56.9
		c-20.2,29.4-57.9,43.9-95.7,43.9c-37.8-0.1-75.5-14.8-95.6-44.1c-15.5-22.6-32.9-41-53.6-61.9c-27.6-27.8-29.3-83-27.2-119.7
		c0.4-7.3,1.1-13.3,2.2-18.1c-41.5,3.5-65.5-40-44-74.4c8.9-14.2,23-21,42.5-20.3c0.5-1.6,0.8-3.1,0.8-4.6
		c1.2-27.3,6.3-52.4,15.1-75.4C117.9,33,187.3,9.5,241.8,4.7c4.8-0.4,9.5-0.6,14.2-0.6c4.5,0,9,0.2,13.5,0.5
		c43.1,3.6,88.9,18,121.4,47.4c31,28,37.6,78.5,40.9,117.6c16.5-3.2,34.2,7,42.8,20.4C495.5,222.5,471.5,268.7,431.2,263.8z"/>
	<path class="st1" d="M372.9,335.3c-10.3,7-21.3,12.7-33.1,17c-16.8,5.4-33.9,9.1-51.4,11.1c-21.5,1.7-43.1,1.7-64.6,0
		c-17.4-2.1-34.5-5.7-51.4-10.8c-13.3-5.3-25.8-12-37.6-20c-0.2-0.1-0.5-0.2-0.7-0.2c-10.2-0.3-11.5,6.6-9,14.9
		c18.2,60.2,58.2,110.3,125.8,112.9c72.6,2.8,117.6-49,136.6-113.7C390.6,335.1,383.3,328.2,372.9,335.3z"/>
	<path class="st2" d="M352.3,357.4c-8.5,5.2-17.6,9.3-27.3,12.4c-13.8,4-27.9,6.7-42.4,8.2c-17.7,1.3-35.5,1.3-53.2,0
		c-14.3-1.5-28.4-4.2-42.3-7.9c-10.9-3.9-21.2-8.8-31-14.7c-0.2-0.1-0.4-0.2-0.6-0.2c-8.4-0.2-9.5,4.9-7.4,10.9
		c15,44.1,47.9,80.8,103.6,82.7c59.8,2,96.8-35.9,112.5-83.3C366.9,357.2,360.8,352.2,352.3,357.4z"/>
	<path class="st3" d="M319.4,168.5c-8.4,20.2-19.9,38.3-34.7,54.4c-19.3,13.5-38.5,13.4-57.6-0.3c-16.6-15.9-26.1-37.8-34.9-53.2
		c-5.8-13.8-16.7-32.5-30.2-38.2c-16.4-7-37.4,1.1-45.5,17.1c-2.8,5.4-7.1,8.4-12.9,5.2c-6.8-3.8-3.6-12.2,0.3-18.1
		c13.6-20.6,42.6-30.1,65.4-20c13.6,6,24.3,19.7,31.4,33c6.9,12.8,13.7,25.7,20.5,38.6c6.3,11.9,16,25,29.1,28.1
		c27.2,6.3,44.9-36,53.8-54.3c14.5-29.9,34-57,72.6-47.3c16.7,4.2,28.4,14.3,35.2,30.3c0.6,1.4,0.5,3.1-0.3,5.3
		c-2,5.1-7.9,7.2-12.5,4.3c-1.3-0.8-2.7-2.6-4.2-5.3c-11.2-21.3-42.2-26.7-58.1-7C330.4,148.9,324.6,158.1,319.4,168.5z"/>
	<path class="st2" d="M284.7,222.9c14.8-16.1,26.4-34.2,34.7-54.4c1.9-0.1,6.1-0.6,12.6-1.4c31.2-3.9,59.4,25.7,34,54.1
		C346.1,243.5,304.2,250.4,284.7,222.9z"/>
	<path class="st2" d="M192.2,169.4c8.8,15.4,18.3,37.2,34.9,53.2c-16.1,29.1-59.1,20.9-79,2.1c-11-10.4-17-29.2-6.8-42
		c9.3-11.7,25.4-16.3,39.5-14.6C187.1,168.9,190.9,169.4,192.2,169.4z"/>
	<path class="st1" d="M251.3,255.3h9.4c1.2,0,21.2,16.8,21.2,37.5v2.6c0,20.7,15.6,37.5,7,37.5h-65.7c-8.6,0,7-16.8,7-37.5v-2.6
		C230.1,272.1,250.1,255.3,251.3,255.3z"/>
	<path class="st3" d="M238.5,37.5h34.9c4.6,0,8.3,3.7,8.3,8.3v0.6c0,4.6-3.7,8.3-8.3,8.3h-34.9c-4.6,0-8.3-3.7-8.3-8.3v-0.6
		C230.2,41.2,233.9,37.5,238.5,37.5z"/>
	<path class="st3" d="M195.2,72.2h121.5c4.7,0,8.5,3.8,8.5,8.5V81c0,4.7-3.8,8.5-8.5,8.5H195.2c-4.7,0-8.5-3.8-8.5-8.5v-0.3
		C186.7,76.1,190.5,72.2,195.2,72.2z"/>
	<path class="st3" d="M238.2,107.1l35.3-0.1c4.6,0,8.3,3.7,8.3,8.2l0,0.6c0,4.6-3.7,8.3-8.2,8.3l-35.3,0.1c-4.6,0-8.3-3.7-8.3-8.2
		l0-0.6C230,110.8,233.7,107.1,238.2,107.1z"/>
	<path d="M331.6,375.4c-6.7,3.6-13.8,6.5-21.4,8.6c-10.8,2.8-21.9,4.6-33.3,5.7c-13.9,0.9-27.9,0.9-41.8,0
		c-11.3-1.1-22.3-2.9-33.2-5.5c-8.6-2.7-16.7-6.1-24.3-10.2c-0.1-0.1-0.3-0.1-0.5-0.1c-6.6-0.2-7.5,3.4-5.8,7.6
		c11.8,30.6,37.7,56,81.4,57.3c47,1.4,76.1-24.9,88.4-57.8C343.1,375.3,338.3,371.8,331.6,375.4z"/>
	<ellipse cx="183.9" cy="203.8" rx="23.8" ry="16.7"/>
	<ellipse cx="327.5" cy="203.8" rx="23.8" ry="16.7"/>
</g>
<path class="st4" d="M431.2,263.8c3.3,39.6,4.8,89.8-16.4,125.1c-3,5-7.9,11.1-14.7,18.2c-17.5,18.5-34,35.9-48.5,56.9
	c-20.2,29.4-57.9,43.9-95.7,43.9V4.1c4.5,0,9,0.2,13.5,0.5c43.1,3.6,88.9,18,121.4,47.4c31,28,37.6,78.5,40.9,117.6
	c16.5-3.2,34.2,7,42.8,20.4C495.5,222.5,471.5,268.7,431.2,263.8z"/>
</svg>
