<?xml version="1.0" encoding="utf-8"?>
<!-- Generator: Adobe Illustrator 27.6.1, SVG Export Plug-In . SVG Version: 6.00 Build 0)  -->
<svg version="1.1" id="Capa_1" xmlns="http://www.w3.org/2000/svg" xmlns:xlink="http://www.w3.org/1999/xlink" x="0px" y="0px"
	 viewBox="0 0 512 512" style="enable-background:new 0 0 512 512;" xml:space="preserve">
<style type="text/css">
	.st0{fill:#470D00;}
	.st1{fill:#FFF2A8;}
	.st2{fill:#F0E39E;}
	.st3{fill:#E39D00;}
	.st4{fill:#FFB000;}
	.st5{fill:#561000;}
</style>
<g>
	<g>
		<path class="st0" d="M331.2,143c-25.6-3.5-48.2,12-64,31c-8.2,9.8-15.4,21.1-18.2,33.6c-1.3,5.9-1.7,11.9-0.9,17.8
			c0.9,6.8,3.7,12.9,5.8,19.4c2.2,7,2.2,13.2-0.6,20.1c-2.6,6.4-6.4,12.4-9.7,18.4c-6,10.9-11.6,22.2-12.6,34.8
			c-0.9,10.8,1.7,22.4,9.1,30.6c8.4,9.5,21.1,11.5,33,13.2c12.7,1.8,26.9,4.3,36,14.3c3.7,4.1,6.1,9.2,6.2,14.8
			c0.1,6-1.2,12.1,0.7,18c4.1,12.5,19.9,13.8,31,14.8c11.8,1.1,24.3,0.6,35.5-3.6c10.3-3.9,19.3-11.1,22.6-22
			c3.7-12.5-2.3-25.5,1.3-37.9c3.2-11.3,14.3-18.3,24.3-23c11.6-5.5,23.9-9.3,34.4-16.8c19.9-14.4,32.6-37.2,35.4-61.5
			c1.4-12.1,0.3-25.3-4.3-36.6c-4.7-11.4-14.1-22.4-27.5-21.6c-7.7,0.4-7.7,12.4,0,12c10.1-0.5,15.7,10.5,18,18.9
			c2.6,9.2,3,19.1,1.6,28.5c-2.8,18.9-12.7,36.9-27.7,48.8c-17.5,13.8-42,15.9-57.2,33.1c-7.5,8.5-10.5,18.6-9.9,29.8
			c0.5,10.4,3.7,22.5-4.6,30.8c-6.5,6.5-16.5,8.9-25.4,9.5c-6.1,0.4-12.2,0.2-18.3-0.5c-4.6-0.5-13-0.8-16.5-4.4
			c-3-3-1.6-9.3-1.4-13.2c0.2-5.7-0.5-11.1-2.9-16.3c-4.5-10.1-13.6-17.2-23.6-21.4c-11-4.6-22.6-5.3-34.1-7.5
			c-10.8-2.1-19.7-6.8-22.7-18.1c-5.8-22.4,12.3-41.8,20.4-61c2.7-6.4,4.1-13,3.2-20c-0.9-6.5-3.5-12.4-5.5-18.5
			c-4.3-13.2-1.1-25.9,5.9-37.5c11.8-19.7,35.3-42.5,60.3-39.1c3.2,0.4,6.4-0.8,7.4-4.2C336.2,147.5,334.4,143.4,331.2,143
			L331.2,143z"/>
	</g>
</g>
<path class="st1" d="M460,102.1c-3.6,77.7-55.3,159.1-140.8,207.9c-104.1,59.5-224.3,51.5-291.2-13.4c8.1,1.5,17.4,2.9,27.7,4
	c6.9,0.7,14.6,1.6,22.9,2.3c47.1,4.1,113,4.3,168.4-36.1c14.2-10.3,25.7-21.9,35.3-33.7c19.3-23.8,30.3-48.4,37.6-64.7
	c6.1-13.6,10.6-26.6,14.1-38.8c5.6-19.8,8.3-37.2,9.6-50.5c10.4-1.5,21.9-2.3,34.2-1.6C410.4,79.2,438.1,89.8,460,102.1z"/>
<path class="st2" d="M503.9,134.3c-5.4,20.3-12.1,38.3-19,54.1c-9.7,22-19.9,39.5-28.5,52.6c-6.2,9.4-17.6,26.7-35.2,46.3
	c-23.5,26.2-57.8,56.7-105,78.6c-18.6,8.7-53.4,24.4-101.3,26.7c-29.1,1.4-51.5-2.9-63.3-5.2c-39.8-7.8-67.5-22-88-33.8
	c6.6-6.8,11.3-14.8,14-23.1c68,31.5,159.8,26.5,241.7-20.3c85.5-48.9,137.2-130.3,140.8-207.9C479.6,113.2,494.5,125.6,503.9,134.3z
	"/>
<path class="st3" d="M77.6,330.4c-2.7,8.4-7.4,16.3-14,23.1c-3.1-1.8-6-3.5-8.7-5.1c-46.1-27.4-49-43.6-48.7-51.1
	c0.1-2.2,0.4-4,0.7-5.2c0.7,0.2,1.4,0.4,2.1,0.5c5.3,1.3,11.7,2.7,19.1,4.1C42.4,310.6,59.1,321.9,77.6,330.4z"/>
<path class="st4" d="M78.6,303.1c2.3,8.9,1.8,18.4-1,27.4c-18.5-8.6-35.2-19.8-49.5-33.7c8.1,1.5,17.4,2.9,27.7,4
	C62.7,301.5,70.4,302.4,78.6,303.1z"/>
<path class="st5" d="M486.6,181.4c6.5,2.5,9.4,10,6.5,16.3c-9.3,19.4-18.7,35.4-26.8,47.7c-6.3,9.6-17.5,26.4-34.2,45.9
	c-3.3,3.8-8.7,5.2-13.4,3.4l-134.4-52.2c-7.2-2.8-9.9-11.7-5.4-18c16.2-22.9,26.2-45.2,33.2-60.9c4.9-10.9,8.9-21.6,12.2-31.8
	c2.1-6.5,9.3-9.9,15.7-7.4L486.6,181.4z"/>
<path class="st0" d="M493,197.7c-9.3,19.4-18.7,35.4-26.8,47.7c-6.3,9.6-17.5,26.4-34.2,45.9c-3.3,3.8-8.7,5.2-13.4,3.4l-77.4-30
	c10.8-14.6,23.8-35.5,34-62.5c8.4-22.2,12.5-42.3,14.6-58.3c32.3,12.5,64.5,25,96.8,37.6C493.1,183.9,496,191.4,493,197.7z"/>
</svg>
