<?xml version="1.0" encoding="utf-8"?>
<!-- Generator: Adobe Illustrator 27.6.1, SVG Export Plug-In . SVG Version: 6.00 Build 0)  -->
<svg version="1.1" id="Capa_1" xmlns="http://www.w3.org/2000/svg" xmlns:xlink="http://www.w3.org/1999/xlink" x="0px" y="0px"
	 viewBox="0 0 512 512" style="enable-background:new 0 0 512 512;" xml:space="preserve">
<style type="text/css">
	.st0{fill:#6A553A;}
	.st1{fill:#755C30;}
	.st2{fill:#CDB85B;}
	.st3{fill:#F3E8D6;}
	.st4{fill:#611317;}
	.st5{fill:#E5D8C6;}
	.st6{fill:#FFBD86;}
	.st7{fill:#D03312;}
</style>
<g>
	<path class="st0" d="M34.8,293.7c0,2.2,0.6,4.2,2,5.9c0.2,0.2,0.3,0.5,0.3,0.7c0,3.1,0.5,6.5,1.7,10.2c1,3.2,1.1,7.3,2,10.5
		c19.4,68,80.2,124.7,158.2,140.4c5.7,1.1,11.3,2.6,16.8,3.3c17.7,2.2,35.4,2.6,53.2,1.3c79.8-6,147.6-53,178.3-118.1
		c3.6-7.6,6.4-16.2,9.3-24.5c0.6-1.7,1.2-4.4,1.7-7.9c0.6-4.5,2.3-8.8,4.9-12.8c4.7,109.3-87.9,197.9-210,201.2h-9.4
		c-111.3-4.2-198-77.3-208.6-175.8C34.6,322.8,34.5,311.4,34.8,293.7z"/>
	<path class="st1" d="M276.2,61.3c-3.7-0.3-7.4-0.6-11.1-1.1c-7.8-0.9-16-0.4-24-1.3c-0.3,0-0.6,0.1-0.9,0.3c-1.2,1-15.5,1.7-18.2,2
		c-6-9.4-7.8-18.8-5.1-28.2c7.1-25.3,40.1-34.1,57.8-13C284.6,31.9,285,48.4,276.2,61.3z M264.6,50.8c9.9-16.2-9.8-34.3-25-24.4
		c-8.3,5.4-11.2,16.5-5.7,25c1.4,2.2,3.2,4,5.3,5.5c1.5,1,2.2,0.6,2.2-1.2c-0.1-2.5-0.1-4.9,0-7.3c0.6-12.2,14.8-11.7,15.1-1.3
		c0.1,3,0.2,5.9,0.2,8.6c0,1.8,0.8,2.1,2.2,1.1C261.3,55.1,263.2,53.1,264.6,50.8z"/>
	<path class="st2" d="M276.2,61.3C379.6,75.5,460.3,161.8,463.3,267c0.3,11,0.3,23.2-0.1,36.7c-2.6,4.5-4.3,9.3-4.9,14.4
		c-0.5,4-1.1,7-1.7,8.9c-2.9,9.3-5.7,19-9.3,27.6c-30.8,73.1-98.5,126-178.3,132.7c-17.7,1.5-35.4,1-53.2-1.4
		c-5.5-0.8-11.2-2.4-16.8-3.7c-78-17.6-138.8-81.4-158.2-157.9c-0.9-3.6-1-8.2-2-11.8c-1.2-4.1-1.7-7.9-1.7-11.4
		c0-0.3-0.1-0.6-0.3-0.8c-1.4-1.9-2.1-4.1-2-6.6c0-11.2-0.4-23.4,0.4-33.9C42.8,156.5,119.8,76.3,222,61.2c2.7-0.3,17-0.9,18.2-2
		c0.2-0.2,0.6-0.3,0.9-0.3c8,0.9,16.3,0.4,24,1.3C268.8,60.7,272.5,61,276.2,61.3z"/>
	<path class="st3" d="M241.4,90.8c0.1,5.5-1.1,17.2,1.2,21.6c3.7,7.3,14.4,3.8,14.3-4.2c-0.1-6.4,0-10.9,0.3-13.5
		c30.7,7.1,57.5,20.6,80.4,40.5c113.6,98.5,67.7,282.5-78.1,317.5c-1,0.2-1.9,0-2.7-0.8c0-6.2,2.1-19-6.9-19.9
		c-11.8-1.1-8.3,18.2-8.8,25.1c-94.1-4-172-80.7-175-175.6l18.6,0.1c2.4,0,4.2-1.2,5.4-3.5c3.7-7.3-1.5-11.5-8.4-11.7
		c-3.2-0.1-14-1.4-15.9,1.1C70.6,170.1,144.4,97.8,241.4,90.8z"/>
	<path class="st4" d="M256.8,90.9l0.4,3.9c-0.3,2.6-0.4,7-0.3,13.5c0.1,8-10.6,11.4-14.3,4.2c-2.3-4.5-1.1-16.1-1.2-21.6L256.8,90.9
		z"/>
	<path class="st5" d="M256.8,90.9c95.9,4.2,171.2,80.7,175.7,175.7c-5.7-0.4-16.9-1.6-21.8,1.1c-4.9,2.7-4.8,9.7-0.4,12.6
		c4.6,3,16.7,1.6,22.2,1.3c-3.9,79.2-55.5,145.2-130.8,168.4c-14.6,4.5-29.6,6.9-44.9,7.3l0.1-5.2c0.8,0.8,1.6,1.1,2.7,0.8
		c145.7-35.1,191.7-219,78.1-317.5c-23-19.9-49.8-33.4-80.4-40.5L256.8,90.9z"/>
	<path class="st4" d="M66.1,281.6l-0.3-14c1.9-2.5,12.7-1.2,15.9-1.1c7,0.2,12.2,4.4,8.4,11.7c-1.2,2.3-3,3.5-5.4,3.5L66.1,281.6z"
		/>
	<path class="st4" d="M432.4,266.6v15c-5.5,0.4-17.6,1.7-22.2-1.3c-4.5-2.9-4.6-9.9,0.4-12.6C415.5,265,426.7,266.2,432.4,266.6z"/>
	<path class="st4" d="M256.8,452l-0.1,5.2c-5.2,0.7-10.4,0.7-15.7,0c0.5-6.9-3-26.2,8.8-25.1C259,433,256.8,445.8,256.8,452z"/>
	<path class="st5" d="M308.8,278c7.4-15.2,9.4-30.6,5.9-46.2c-10.3-45.8-62.4-66.9-102-41.9c-29.6,19.1-39.3,55.5-24.1,87
		c0.3,0.6,0.1,1.2-0.3,1.6c-13.8,12.6-5.8,32.3,12,35.4c0.6,0.1,1.1,0.6,1.2,1.2c1.4,14.1-2.2,30.3,17.8,31.3l-0.3-29.8
		c0-0.6,0.3-1.1,0.9-1.3c7.1-2.8,10.9-0.3,10.9,7c0,8.1,0,16.2,0,24.2H243l0-26.1c0-2.4,0.9-4.3,2.8-5.9c2.9-2.4,6-1.7,9.1,2.2
		c0.2,0.2,0.3,0.5,0.3,0.9l0.3,28.8h12.2l-0.3-27c0-2.6,1.3-4.3,4-5.1c5.3-1.5,8.1,1.9,8.1,7c0,8.3,0,16.6,0,24.9
		c19-1.8,16.8-17,17.2-31c0-0.7,0.5-1.2,1.2-1.3c11.8-1.9,18-8.6,18.8-19.9C317.2,287.7,314.5,282.4,308.8,278z M247.1,217.4
		c0.3-7.2,4.3-8.4,10.9-8.8c10.9-0.7,17-9.2,24.1-16.5c0.3-0.3,0.7-0.5,1.1-0.4c1.2,0.1,2.1,0.8,2.5,2c0.1,0.5,0,1-0.3,1.4l-3.4,3.9
		c-0.4,0.5-0.5,1.3,0,1.8c4.1,5,9.8,9.9,4.2,16.7c-1.8,2.1-9.5,5.7-8.7,0.6c0-0.3,0.2-0.6,0.5-0.8c2.8-2.4,8.9-2.9,4.9-8.5
		c-1.3-1.8-2.8-3.4-4.5-4.6c-0.6-0.4-1.4-0.3-1.9,0.2c-5.3,6.1-12.1,9-20.3,8.8c-2.8-0.1-4.4,1.3-4.7,4.1c-0.6,6-0.7,11.9-0.2,17.9
		c0.2,2.4-1.1,3.7-3.6,2.5c-0.5-0.2-0.8-0.7-0.8-1.2C246.7,230,246.8,223.7,247.1,217.4z M232.9,269.7
		c-13.2,18.4-39.5,0.7-28.4-17.8c2.2-3.6,5.4-6.1,9.6-7.4C229.7,240.9,240.1,255.8,232.9,269.7z M259.8,299.3
		c-1.6,0.4-3.4,0.5-5.4,0.3c-6.2-0.5-22.3,5.4-16.7-7c2.6-5.8,5.9-11.3,9.8-16.5c0,0,0,0,0-0.1c0.1-0.1,0.1-0.1,0.2-0.2
		c0.2-0.1,0.4-0.2,0.6-0.3c0.1,0,0.2,0,0.3,0h0.1c0,0,0.1,0,0.1,0l0,0h0c0,0,0,0,0,0c0,0,0,0,0,0c0.1,0,0.1,0,0.2,0
		c0.1,0,0.3,0.1,0.4,0.2c0,0,0,0,0.1,0.1l5.6,4.9l0.8,1.7c-0.3,2.8,4.4,9.5,5.8,12.2C263.1,297.1,262.4,298.7,259.8,299.3z
		 M279.4,277.5c-9.3,0-16.8-7.5-16.8-16.8c0-9.3,7.5-16.8,16.8-16.8c9.3,0,16.8,7.5,16.8,16.8C296.2,270,288.6,277.5,279.4,277.5z"
		/>
	<path class="st6" d="M477.3,36.3c-0.1,0-0.3-0.1-0.4-0.1c-0.1,0-0.3,0-0.4,0C476.8,36.2,477.1,36.2,477.3,36.3z"/>
	<path class="st7" d="M244.7,144.9l-15.1-53.2c15.6-1.7,31.3-1.2,46.7,1.2l-18.6,52.4C255.5,151.6,246.5,151.3,244.7,144.9z"/>
</g>
</svg>
