<svg xmlns="http://www.w3.org/2000/svg" xml:space="preserve" id="Capa_1" x="0" y="0" style="enable-background:new 0 0 512 512" version="1.1" viewBox="0 0 512 512"><style>.st3{fill:#d90700}</style><path d="M502.8 256c0 136.3-110.5 246.8-246.8 246.8V9.2c136.3 0 246.8 110.5 246.8 246.8z" style="fill:#333"/><path d="M256 9.2v493.6C119.7 502.8 9.2 392.3 9.2 256S119.7 9.2 256 9.2z" style="fill:#262626"/><g style="opacity:.36"><path d="M120.3 333.3c.2-.2.5-.2.7-.2l132.9 35.1 58.5 100.3c1 1.8.6 2.4-1.4 1.9-35.5-9.1-71-18.7-106.5-28.8-28.1-36-56.1-71.7-84.3-107.2-.4-.3-.4-.7.1-1.1z" class="st3"/><path d="M108.7 197.2c.2.1.5.2.6.5l55.4 125.8-42 108.3c-.7 1.9-1.5 1.9-2.4.1-15-33.5-29.7-67.2-43.9-101.2 10.6-44.4 21-88.6 31.2-132.7.2-.7.5-.9 1.1-.8z" class="st3"/><path d="M207.8 103.3c.1.2.1.5 0 .7L144 225.8 33.2 260.5c-1.9.6-2.5 0-1.5-1.8 16.8-32.6 34-65.1 51.7-97.4 41.3-19.4 82.4-38.8 123.2-58.3.6-.3.9-.2 1.2.3z" class="st3"/><path d="M343 122.3c-.1.2-.3.4-.6.4l-134.9 26.1-96.2-65c-1.7-1.1-1.5-1.9.5-2.3 36-7.2 72.1-14 108.5-20.3 40.9 20.2 81.7 40.2 122.4 60 .4.2.6.6.3 1.1z" class="st3"/><path d="M412.5 239.8c-.2.1-.5 0-.7-.2l-104.5-89.3-9.2-115.8c-.2-2 .5-2.4 2.1-1.1 28.1 23.6 55.9 47.7 83.5 72.1 9.7 44.6 19.5 88.9 29.4 133.1.2.7 0 1.1-.6 1.2z" class="st3"/><path d="M363.9 367.4c-.2-.2-.3-.4-.3-.7l4.6-137.4 84.8-79.4c1.5-1.4 2.2-1.1 2.2 1-1 36.7-2.4 73.4-4.3 110.2-28.8 35.4-57.4 70.7-85.7 106-.4.6-.8.7-1.3.3z" class="st3"/><path d="M233.9 409c0-.3.1-.5.3-.7l110.3-82 114.9 16.8c2 .3 2.2 1.1.6 2.3-29.3 22.1-58.9 43.9-88.9 65.3-45.6-.5-91-.8-136.3-.9-.6.1-.9-.2-.9-.8z" class="st3"/></g></svg>