<svg xmlns="http://www.w3.org/2000/svg" xml:space="preserve" id="Capa_1" x="0" y="0" style="enable-background:new 0 0 512 512" version="1.1" viewBox="0 0 512 512"><style>.st1{opacity:.27}</style><path d="M475.4 45.7v415.5c0 12.8-10.4 23.2-23.2 23.2H59.8c-12.8 0-23.2-10.4-23.2-23.2V45.7h438.8z" style="fill:#a6a6a6"/><path d="M288.9 151.4c-6.1-1.9-12.9-1.6-18.9 1.2v-2.7c-.5-10.5-6.5-19.6-15.1-24.6a31.3 31.3 0 0 0-10.8 10.6c-2.8 4.6-4.3 9.9-4.3 15.6v1.1c-6-2.8-12.8-3.1-18.9-1.2-.4 8.3 3.1 16.6 10.1 22 7 5.4 16 6.7 23.9 4.3 7.9 2.5 16.8 1.2 23.9-4.3 7-5.4 10.5-13.8 10.1-22z" class="st1"/><path d="M387 330.1c-7.8-.5-15.7 1.3-23.5 5.4-.4.2-.8.1-1.1-.2l-70-70.3 70.1-70.1c.3-.3.7-.3 1.1-.2 21.3 11.8 47.8 3.8 57.4-18.8 9.1-21.4-1.6-45.1-23-53.4-.2-.1-.4-.3-.5-.5-15.1-37.6-69-33.8-76.9 5.9-1.9 9.7-.4 19.2 4.6 28.5.2.4.1.8-.2 1.1l-70 70-70.3-70c-.3-.3-.3-.7-.2-1.1 9.9-18.1 6-41-11-53-22-15.6-51.5-6.4-61.2 18.6-.1.2-.3.4-.5.5-32.5 13.2-35.9 57.7-3.9 73.6 12.2 6.1 25 5.6 38.2-1.3.4-.2.8-.1 1.1.2l70 70.4-69.9 69.9c-.3.3-.7.3-1.1.2-11.4-6.1-22.8-7.1-34.1-3.1-35.4 12.7-35.2 61.9-.4 75.3.2.1.4.3.5.5 5.5 14.7 19 25 34.5 26.1 33.2 2.4 53.2-32.2 37.8-60.6-.2-.3-.1-.8.2-1.1l70.2-70.1 70.1 70.1c.3.3.3.7.2 1.1-13.5 24.7-.4 55.1 27.9 60.1 19.5 3.4 36.9-7.7 44.4-25.5.1-.2.2-.3.4-.4 1-.6 2.1-1.2 3.2-1.7 37.5-17.4 26.5-73.6-14.1-76.1z" class="st1"/><path d="M283.8 390.6c3.6-7.4 4.5-14.8 2.8-22.3-5-22.2-30.2-32.4-49.3-20.3-14.3 9.2-19 26.8-11.6 42.1.1.3.1.6-.2.8-6.7 6.1-2.8 15.6 5.8 17.1.3.1.5.3.6.6.7 6.8-1.1 14.7 8.6 15.1l-.1-14.4c0-.3.2-.5.4-.6 3.4-1.3 5.3-.1 5.3 3.4v11.7h5.9v-12.6c0-1.1.5-2.1 1.4-2.8 1.4-1.2 2.9-.8 4.4 1.1.1.1.1.3.1.4l.1 13.9h5.9l-.1-13.1c0-1.3.6-2.1 1.9-2.5 2.5-.7 3.9.9 3.9 3.4v12c9.2-.9 8.1-8.2 8.3-15 0-.3.2-.6.6-.6 5.7-.9 8.7-4.1 9.1-9.6.2-3.1-1-5.7-3.8-7.8zm-29.9-29.3c.2-3.5 2.1-4 5.3-4.2 5.3-.3 8.2-4.4 11.7-8 .1-.1.3-.2.5-.2.6.1 1 .4 1.2.9.1.2 0 .5-.1.7l-1.7 1.9c-.2.2-.2.6 0 .9 2 2.4 4.8 4.8 2 8.1-.8 1-4.6 2.8-4.2.3 0-.2.1-.3.2-.4 1.4-1.2 4.3-1.4 2.4-4.1-.6-.9-1.3-1.6-2.2-2.2-.3-.2-.7-.2-.9.1-2.6 2.9-5.8 4.3-9.8 4.3-1.4 0-2.1.6-2.3 2-.3 2.9-.3 5.8-.1 8.6.1 1.2-.5 1.8-1.7 1.2-.2-.1-.4-.3-.4-.6 0-3.2 0-6.3.1-9.3zm-6.8 25.3c-6.4 8.9-19.1.3-13.7-8.6 1-1.8 2.6-2.9 4.6-3.6 7.5-1.7 12.6 5.5 9.1 12.2zm13 14.3c-.8.2-1.6.2-2.6.2-3-.3-10.8 2.6-8.1-3.4 1.3-2.8 2.9-5.5 4.7-8l.1-.1c.1-.1.2-.1.3-.1h.6l2.7 2.4.4.8c-.1 1.4 2.1 4.6 2.8 5.9.7 1.3.3 2-.9 2.3zm9.5-10.5c-4.5 0-8.1-3.6-8.1-8.1s3.6-8.1 8.1-8.1 8.1 3.6 8.1 8.1c0 4.4-3.7 8.1-8.1 8.1zM113.2 233.1v29h16.1c4.2 0 7-.6 8.4-1.9 1.9-1.7 2.9-4.6 3.1-8.8h2V277h-2c-.5-3.6-1-5.9-1.5-6.9-.6-1.3-1.7-2.3-3.2-3-1.5-.7-3.8-1.1-6.8-1.1h-16.1v24.2c0 3.2.1 5.2.4 5.9.3.7.8 1.3 1.5 1.7.7.4 2.1.6 4.1.6h12.4c4.1 0 7.2-.3 9-.9 1.9-.6 3.7-1.7 5.4-3.4 2.2-2.2 4.5-5.6 6.9-10.1h2.2l-6.3 18.4H92.4v-2H95c1.7 0 3.4-.4 4.9-1.2 1.2-.6 1.9-1.4 2.4-2.6.4-1.2.6-3.5.6-7.1v-47.6c0-4.7-.5-7.5-1.4-8.6-1.3-1.4-3.5-2.2-6.5-2.2h-2.6v-2h56.5l.8 16.1h-2.1c-.8-3.9-1.6-6.5-2.5-8-.9-1.4-2.3-2.5-4.1-3.3-1.4-.5-4-.8-7.6-.8h-20.2zM424.2 228.5v2c-2.5.5-4.5 1.3-5.8 2.4-1.9 1.7-3.5 4.4-5 7.9l-25 60.9h-2L359.8 240c-1.4-3.2-2.3-5.1-2.9-5.8-.9-1.1-2-1.9-3.2-2.6-1.3-.6-3-1-5.2-1.2v-2h29.2v2c-3.3.3-5.5.9-6.4 1.7-1 .8-1.5 1.8-1.5 3.1 0 1.8.8 4.5 2.4 8.2l18.2 42 16.9-41.4c1.7-4.1 2.5-6.9 2.5-8.5 0-1-.5-2-1.5-2.9-1-.9-2.7-1.6-5.2-2-.2 0-.5-.1-.9-.2v-2h22z" class="st1"/><path d="M492.9 36v19.3c0 4.6-3.8 8.4-8.4 8.4H27.6c-4.7 0-8.4-3.8-8.4-8.4V36c0-4.7 3.8-8.4 8.4-8.4h456.9c4.6 0 8.4 3.8 8.4 8.4z" style="fill:#8c8c8c"/><path d="M492.9 36v19.3c0 4.6-3.8 8.4-8.4 8.4h-9.1v397.5c0 12.8-10.4 23.2-23.2 23.2H256V27.6h228.4c4.7 0 8.5 3.8 8.5 8.4z" style="opacity:.12"/></svg>