<svg xmlns="http://www.w3.org/2000/svg" xml:space="preserve" id="Capa_1" x="0" y="0" style="enable-background:new 0 0 512 512" version="1.1" viewBox="0 0 512 512"><style>.st0{fill:#f5a526}.st1{fill:#d18d21}</style><path d="M508.9 292c-3.9 18.7-9.6 44.5-17.3 76.8-.3 1.3-.7 2.6-1.1 3.8-3.2 10-9.3 16.7-18.3 19.9-3.9 1.5-10.5 2.2-19.7 2.3-16.6 0-33.2-.1-49.5-.4h-1c-54.2.7-102.6.4-152.8.4H109c-17 0-34.1 0-51.1-.1-4.7 0-9.3-1.1-13.7-3.2-3.6-1.7-6.4-3.7-8.5-6-.8-.8-1.4-1.7-2-2.5-1.3-1.9-2.9-4.5-4.8-7.8-4.6-7.8-11.2-19.5-19.9-34.9-2.8-5.1-4.7-12.1-5.8-21v-7.8c.8-9.2 3.6-18.3 8.6-27.6 9-17 21.7-40.3 37.7-69.7 5-9.2 11.1-17 18.3-23.5 2.2-1.9 4.3-3.8 6.7-5.4 1.5-1.1 3-2.1 4.4-3 .7-.5 1.5-1 2.1-1.4 4.5-2.9 8.1-4.8 11-5.8 9.8-3.2 19.3-6.5 28.3-9.4 70.1-23.3 116.6-38.7 139.5-46.1 7.1-2.3 15.4-3.1 24.4-2.3 11.9 1.3 22.5 5.9 31.7 14 9.7 8.4 19.1 16.8 28.4 25.5 16.2 14.4 32.3 28.7 48.4 43 4.7 4.2 12.3 7.7 19.3 10.5 21.3 8.6 42.6 17.4 63.9 26 7.7 3.1 14.7 9.2 20.9 17.9 6.7 8.4 10.6 18.7 11.9 30.9l.2 6.9z" class="st0"/><path d="m98.6 302.6 34.6-21.8c3.8-2.4 4.9-7.3 2.6-11.1l-.1-.3c-2.4-3.8-7.3-4.9-11.1-2.6L90 288.7c-3.8 2.4-4.9 7.3-2.6 11.1l.1.3c2.5 3.9 7.4 5 11.1 2.5zm192.5-47.7 33.3 6.7c4.3.8 8.5-1.9 9.3-6.2l.1-.5c.8-4.3-1.9-8.5-6.2-9.3l-33.3-6.7c-4.3-.8-8.5 1.9-9.3 6.2l-.1.5c-.9 4.3 1.9 8.5 6.2 9.3zm56.1-53c-.1 3.1-.3 6.3-.4 9.4l-.8 8.2-27 8.8c-4.4 1.5-9-.8-10.4-5l-.1-.5c-1.2-4.2 1.3-8.8 5.8-10.2l32.9-10.7zm-62.6-84.6c-9-.8-17.1 0-24.4 2.3-25.9 8.4-81.8 26.8-167.8 55.5-4.2 1.3-10.1 4.9-17.5 10.2 16.6 18.2 29.8 31.9 39.6 41.1 5.9 5.4 13.9 7.7 22.6 8.8 14 1.8 27.9 3.5 41.9 5.3 10.8 1.3 18.5 1.6 23.3.9 18.5-3 27.6-13.7 36-30.5 15.7-31.2 31.1-62.3 46.3-93.6z" class="st1"/><path d="M508.5 284.8c-1.2-12.1-5.1-22.4-11.9-30.9-3.1-4.4-6.5-8.1-10-11.1s-7.1-5.3-11.1-6.9c-21.3-8.6-42.6-17.4-63.9-26-7-2.8-14.6-6.3-19.3-10.5-15.8-14.2-31.9-28.6-48.1-42.9 2.3 15 3.2 30.1 2.8 45.3l1.9-.5c4.4-1.5 9.2.8 10.4 5l.1.5c1.2 4.2-1.3 8.8-5.8 10.2l-7.7 2.6-1.2 12.7c-.5 7.3-1.8 12.7-3.5 22-9.7 50.1-32.1 98.5-70.8 132.9-.4.4-1.1.4-1.5.1-44.5-21.8-89.2-43.8-134.2-65.8-7.3-3.5-13.1-5.7-17.4-6.3-21.2-3.5-39.5 7.4-49.1 26.1-10.1 20.1-18.2 36.8-24.4 50.3 4.4 2.2 9.2 3.2 13.7 3.2 63.8.1 127.6.1 191.4.1 50.3 0 98.7.3 152.8-.4 16.6.4 33.4.5 50.4.4 9.2 0 15.8-.8 19.7-2.3 10.1-3.8 16.4-11.6 19.3-23.7 7.5-32.5 13.3-58.1 17.3-76.8l.1-7.3z" class="st1"/><path d="m353.6 217-7.7 2.6.8-8.2c.1-3.1.3-6.3.4-9.4l1.9-.5c4.4-1.5 9.2.8 10.4 5l.1.5c1.3 4-1.4 8.6-5.9 10zm155.2 75-.1-7.1c-1.2-12.1-5.1-22.4-11.9-30.9-32.3 7.7-64.8 14.6-97.3 20.6-18.1 3.4-25.6 21.6-20.2 38.5 6.1 18.9 13.6 46 22.8 81.1 16.6.4 33.4.5 50.4.4 9.2 0 15.8-.8 19.7-2.3 10.1-3.8 16.4-11.6 19.4-23.7 7.6-32.1 13.3-57.9 17.2-76.6z" style="fill:#ba7e1d"/><path d="M439.1 361.3c11.3 9.3 19.3 19.9 23.9 32.2-2.4 1.1-4.3.7-5.8-1.3-.5-.8-1.5-.9-2.2-.3l-.1.1c-2.3 2.7-5.1 3.6-8.4 2.4 19.5-21.2-13.6-22.8-23.3-25.1-6.1-1.5-8.9-4.6-12-10l-15.9-28c-1.1-2-2.6-3.4-4.2-3.9-4.4-1.6-7.3-3.1-8.4-4.6-1.1-1.3-.5-2 1.5-1.9 15.4.7 46.1 10.2 51.8 29 .9 4.2 2.2 8 3.1 11.4zm-19.5-23.9c-4.7-3.6-8.6-5.7-11.7-6.1-2.3-.3-4 .4-5.1 2-.7.9-.7 2.7.1 4.3 5.9 12.8 16 29.9 29.2 27.6 1.1-.1 1.9-1.3 1.9-2.6 0-9.6-4.9-18.1-14.4-25.2z" class="st0"/><path d="m403 306.1-4.1-6.2c4-4.1-1.6-5.1-4.7-4.4-3.5-1.3-6.7-3.1-9.7-5.4 1.5-.9 5.9-2.4 4.5-4.6-.2-.3-.5-.5-.8-.5-3.4-.3-6.6.3-9.7 1.8h-2.3l-7.8-3c1.2-1.4 6.8-4.5 4.2-6.3-.2-.2-.5-.2-.7-.2-4.2.5-8.1 1.8-11.6 4-2.8-.1-5.6-.6-8.2-1.6 1-2 2.5-3.7 4.4-5 .2-.1.4-.4.4-.6 1.9-6.2-13 3.5-13.8 4.2l-3.1-.2-4.3-.9c1.1-1.4 5.2-10.4 1.2-9.2-.2.1-.4.2-.6.4-2.2 3.1-5 5.6-8.3 7.4l-12-.8c2.8-2.7 4.5-5.6 5.2-8.7.4-1.7 0-2.3-1.3-1.8-.2.1-.4.2-.5.4-3.6 5.6-8.7 7.8-15.5 6.8-2.6-2-4.5-4.6-5.7-7.7 1.3-.3 6.7-1.6 4.2-4.2-.2-.2-.4-.3-.7-.3l-6.2-.4-3-6.6c2.8 0 5.2-1.1 7-3.1 1.2-1.3.7-3.5-1.2-3.3-3.9.3-7 .3-9.3-.2l-3.1-4.1c4.5-2.4 7.6-6.3 12.7-7.5 2.7-.7 1.9-2.6-.4-2.6-6.6-.1-11 3.3-17.5 3.7l-5.8-5.5c1.7-.9 3-2.2 4-3.8.1-.2.2-.5.2-.7-.5-3.6-8-1-9.8-1l-5-3.9 4.9-3.1c.2-.1.4-.3.4-.5.7-2-.7-2.8-2.5-2.4-2.9.6-5.8.9-8.8.9-1.9-.8-3.5-1.9-5-3.3 6.7-2.3 11.7-5.5 15-9.6 1.6-2 1.3-3.2-1.1-3.5-.3 0-.6 0-.8.2-5.6 4.1-11.9 6.6-18.8 7.7-2.6-.6-5-1.8-7.1-3.5l-1.1-2c1.9-.9 3.5-2.2 4.9-3.8.2-.2.3-.6.3-.9-.4-2.2-7.8-1.5-9.2-1.8l-5.2-4.4c2-1.2 3.7-2.7 5.2-4.5.2-.3.3-.7.2-1-.3-.9-.9-1.3-1.8-1-3.4.9-6.4 1.3-9 1.1-2.2-1.2-4.1-2.9-5.5-5 2.4-1.1 4.4-2.6 6-4.6.3-.4.3-.9 0-1.3l-.3-.3c-.3-.3-.7-.5-1.1-.4l-9.3 1.8-3.6-3.6c4.7-2.8 8.1-6.6 10.4-11.4.6-1.4.4-3.2-1.5-3-.3 0-.5.2-.7.4-3.9 4.4-8.8 7.5-14.5 9.5-1.1.2-2.3.1-3.5-.4 1.8-2 3-4.4 3.5-7 .6-2.8-2-3.3-3.6-1.3-2.1 2.7-4.6 4.9-7.6 6.6-6.2-1.1-13.4-5.4-19.5-1.7-7.4 4.6-15.2 8.3-23.5 11.2-6.6 2.3-7.6 8.6-2.4 13.5l1.1 3.5c2.3 4.6 5.9 5.8 11 6.7 3.3.6 7.7 2.6 13 5.9 1.5 3.7 2.3 6.4 2.5 8.2.4 3.6-.8 8.3.5 12.3 2.4 7.3 7.7 11.3 16 11.9.2 0 .3.1.4.1.5.3.7 1 .4 1.5-3.1 5.6-6.3 11.3-9.4 16.9-5.2 9.2-6.4 23-7.4 33.3-.2 1.7-1.1 2.5-2.8 2.4-7.2-.4-12.4-1.2-17.2 5.3-.9 1.2-.6 1.8.9 1.7 4.2-.1 8.2.5 12.2 2 4.1 1.5 9.3 2.9 12.4 1.9 6.3-2 12.4-1.9 18.3.3 1.3.5 1.8.1 1.4-1.3-1.7-6.2-5.6-9.7-11.8-10.5h-.1c-.6-.2-.9-.7-.8-1.3 1.8-7.1 3-11.4 3.6-13.1 2.5-7.4 11.1-13.5 19.2-20 7.8 23.5 23.4 39.3 46.8 47.4l7.3 2.4c.6 4.5.5 9-.3 13.4 0 .1 0 .1-.1.2-.2.6-.8.9-1.4.6-9.4-3.5-16.4-.6-21 8.5-.8 1.5-.3 2.1 1.3 1.5 5.1-1.6 10.2-1.6 15.2.1.6.2.9.8.7 1.4-1.4 4.1-1.9 8.3-1.4 12.6.2 1.3 1.6 2.1 2.4 1 3-4.2 5.5-8.3 10.7-9.2 6.4-1.1 10.9-1.6 16.6-6.4l.6-.3c1.9-.2 3.4.5 4.5 2.1.2.3.6.5 1 .5h.4c.5 0 1-.5 1-1 .4-4.5-.7-12-6.7-10.5-3.1.8-5.6 1.2-7.6 1.3h-.2c-.6-.1-1-.7-.9-1.3l2.1-11.7c18 1.4 36 1.7 53.9.7l1.9 3.7c0 .1.1.2.1.2.1.6-.2 1.2-.8 1.3-3.5.8-7 1.9-10.3 3.3-2 .9-3.4 3-.4 4.1 7.3 2.4 16.9.2 24.3-1.8.2-.1.4 0 .7 0 7.2 2.6 14.8 3.9 22.7 3.9 0 3.3-.6 6.6-1.6 9.8l-2.8 5.5-8.7 9.8c-6.9 5.5-14.4 9.8-22.7 12.9-6 2.2-12.1 3.9-18.4 5.2-12.7 1.7-25.6 2.2-38.6 1.4-14.1-.5-28.1-2.2-42-5.3-1.8-.4-4.5-.6-3.3 2.3.1.2.3.4.5.5 13.7 7.6 28.3 12.6 43.8 15.2 13 2.8 26.1 4.1 39.4 3.8 8.4-.2 16.5-1.3 24.5-3.1 11.1-2.5 21.4-6.6 31-12.2 8.7-5.3 16.1-12 22.1-20.2 9.6-13.3 14.4-27.6 5.2-43.3zm-207.7-83.8c-.1.1-.1.1-.1.2 0-.1.1-.2.1-.2zm.3-.2c-.1 0-.1 0 0 0-.1 0-.1 0 0 0zm-.5.5c0 .1-.1.1-.1.2.1 0 .1-.1.1-.2zm-.1.5v.2-.2zm.1.3c0 .1.1.2.2.3-.1-.1-.2-.2-.2-.3zm31-1.6s0-.1 0 0c0-.1 0 0 0 0zm-.1-.5c0 .1 0 .1.1.2-.1-.1-.1-.2-.1-.2zm-1.1-.7c.1 0 .3 0 .4.1-.1-.1-.2-.1-.4-.1zm.5.1s.1 0 0 0c.1 0 .1.1.2.1-.1-.1-.1-.1-.2-.1zm.4.2c0 .1.1.1.1.2-.1-.1-.1-.1-.1-.2z" style="opacity:.48"/><path d="M164.3 394.6c.1.1.2.1.4.2h-29.3c.3-.2.6-.5 1-.7 8.4-6.5 19.2-3.6 27.9.5z" class="st0"/><path d="M195.5 326.5c-9.6 14-31.1-4.7-31.9 20.2-.1 2.3-.6 4.5-3.5 3.3-12.3-5.1-28.1-11.3-41.1-4.2-5.2 2.9-9.8 5.2-15.9 5.4-.3 0-.8.3-.9.4-.3.3-.4.9-.2 1.3 3.7 7.3 7.6 14.6 11.7 21.7 1 1.7 1.4 3.5 1.2 5.4-.3 3.6-5.3 9.8 1.7 11.4 3.9.9 7.4 1.7 10.8 3.2h-18.6c-2.3-1.8-4.2-4-5.8-6.6-2.6-4.4-4.5-12.7-7.9-17.8-1.6-2.4-3.5-4.5-5.8-6.3-.9-.7-1.9-1-3.1-.8-3.8.8-6.9.5-10.9-.7-8.2-2.6-16.6-5-25-7.2-7.5-1.9-1.2 5.6-.6 7.6.1.4-.1.8-.6 1h-.3l-6.9-.3c-1.4-.1-2 .7-1.8 2.2.3 3.2 1 6.5 1.8 9.6 2.4 8.6-8.6.2-6.8 9.7 0 .1 0 .2.1.3-.8-.8-1.4-1.7-2-2.5-1.3-1.9-2.9-4.5-4.8-7.8.1-.1.3-.1.5-.2l4.6-1.3c1.5-.4 2.1-1.5 1.8-3.2l-1.8-10.1c-.1-.3 0-.5.1-.7 1.8-4.2 11.2 1.5 4.2-9.4-.2-.4-.1-.9.2-1.1.1-.1.2-.1.3-.1 2.9-.4 7.4.9 10.4 1.2.6.1.7-.1.3-.6l-2.5-3.5c-.2-.3-.2-.6-.1-.8.3-.5.8-.7 1.4-.6.3 0 .5-.2.6-.4v-.2c-2.9-10.7-6-21.3-9.3-31.8-1.3-4.2-.6-6.5 3.4-8.3 9.7-4.3 19.2-8.9 28.5-13.9 2.8-1.5 2.7-3.7 1.4-6.3-9.5-19.2-16.1-33-27.5-47-1-1.3-.7-2.2 1.1-2.8 4.7-1.5 10-3 14-5.2 14.6-7.9 17.4-19.3 18.2-35.1.2-3.9.3-7.8.4-11.7.7-.5 1.5-1 2.1-1.4.3 6.4.2 12.8 0 19.2-.7 15.2-8.9 28.1-23.4 33.7-3.9 1.5-8.9 2.3-5.3 7 4.9 6.3 8.9 12.5 12.1 18.5 5.7 10.8 11 20.2 15.9 28.1 1.7 2.7.9 4.1-1.8 5.5-9.6 4.8-19.2 9.6-28.8 14.2-3.5 1.7-5.5 3.5-4.2 7.5 3 9 5.8 18.1 8.4 27.3.1.3.3.5.5.4h.9c.1 0 .4.2.7.5 2.5 3 5.6 4.7 9.3 5.3 4.9.7 9.9 3.9 14.5 5.1 7.6 1.9 8.7-7.3 9.8-12.5.4-2 1.5-2.4 3.1-1.3 7.1 4.9 13.5 4 20.8.4 14.9-7.4 28.8-2.1 43 4.2 1.8.8 3 .3 3.5-1.7 1.8-6.5 3.4-12.8 11.6-12.4 9.1.4 15.9 1.2 23.5-3.7.8.2.8.5.7.7z" style="fill:#a6701a"/></svg>