<svg xmlns="http://www.w3.org/2000/svg" xml:space="preserve" id="Capa_1" x="0" y="0" style="enable-background:new 0 0 512 512" version="1.1" viewBox="0 0 512 512"><style>.st1{fill:#5e5939}.st2{fill:#dfeeab}.st3{fill:#9f4b03}</style><path d="M431.2 263.8c3.3 39.6 4.8 89.8-16.4 125.1-3 5-7.9 11.1-14.7 18.2-17.5 18.5-34 35.9-48.5 56.9-20.2 29.4-57.9 43.9-95.7 43.9-37.8-.1-75.5-14.8-95.6-44.1-15.5-22.6-32.9-41-53.6-61.9-27.6-27.8-29.3-83-27.2-119.7.4-7.3 1.1-13.3 2.2-18.1-41.5 3.5-65.5-40-44-74.4 8.9-14.2 23-21 42.5-20.3.5-1.6.8-3.1.8-4.6 1.2-27.3 6.3-52.4 15.1-75.4C117.9 33 187.3 9.5 241.8 4.7c4.8-.4 9.5-.6 14.2-.6 4.5 0 9 .2 13.5.5 43.1 3.6 88.9 18 121.4 47.4 31 28 37.6 78.5 40.9 117.6 16.5-3.2 34.2 7 42.8 20.4 20.9 32.5-3.1 78.7-43.4 73.8z" style="fill:#393b2e"/><path d="M372.9 335.3c-10.3 7-21.3 12.7-33.1 17-16.8 5.4-33.9 9.1-51.4 11.1-21.5 1.7-43.1 1.7-64.6 0-17.4-2.1-34.5-5.7-51.4-10.8-13.3-5.3-25.8-12-37.6-20-.2-.1-.5-.2-.7-.2-10.2-.3-11.5 6.6-9 14.9 18.2 60.2 58.2 110.3 125.8 112.9 72.6 2.8 117.6-49 136.6-113.7 3.1-11.4-4.2-18.3-14.6-11.2z" class="st1"/><path d="M352.3 357.4c-8.5 5.2-17.6 9.3-27.3 12.4-13.8 4-27.9 6.7-42.4 8.2-17.7 1.3-35.5 1.3-53.2 0-14.3-1.5-28.4-4.2-42.3-7.9-10.9-3.9-21.2-8.8-31-14.7-.2-.1-.4-.2-.6-.2-8.4-.2-9.5 4.9-7.4 10.9 15 44.1 47.9 80.8 103.6 82.7 59.8 2 96.8-35.9 112.5-83.3 2.7-8.3-3.4-13.3-11.9-8.1z" class="st2"/><path d="M319.4 168.5c-8.4 20.2-19.9 38.3-34.7 54.4-19.3 13.5-38.5 13.4-57.6-.3-16.6-15.9-26.1-37.8-34.9-53.2-5.8-13.8-16.7-32.5-30.2-38.2-16.4-7-37.4 1.1-45.5 17.1-2.8 5.4-7.1 8.4-12.9 5.2-6.8-3.8-3.6-12.2.3-18.1 13.6-20.6 42.6-30.1 65.4-20 13.6 6 24.3 19.7 31.4 33 6.9 12.8 13.7 25.7 20.5 38.6 6.3 11.9 16 25 29.1 28.1 27.2 6.3 44.9-36 53.8-54.3 14.5-29.9 34-57 72.6-47.3 16.7 4.2 28.4 14.3 35.2 30.3.6 1.4.5 3.1-.3 5.3-2 5.1-7.9 7.2-12.5 4.3-1.3-.8-2.7-2.6-4.2-5.3-11.2-21.3-42.2-26.7-58.1-7-6.4 7.8-12.2 17-17.4 27.4z" class="st3"/><path d="M284.7 222.9c14.8-16.1 26.4-34.2 34.7-54.4 1.9-.1 6.1-.6 12.6-1.4 31.2-3.9 59.4 25.7 34 54.1-19.9 22.3-61.8 29.2-81.3 1.7zM192.2 169.4c8.8 15.4 18.3 37.2 34.9 53.2-16.1 29.1-59.1 20.9-79 2.1-11-10.4-17-29.2-6.8-42 9.3-11.7 25.4-16.3 39.5-14.6 6.3.8 10.1 1.3 11.4 1.3z" class="st2"/><path d="M251.3 255.3h9.4c1.2 0 21.2 16.8 21.2 37.5v2.6c0 20.7 15.6 37.5 7 37.5h-65.7c-8.6 0 7-16.8 7-37.5v-2.6c-.1-20.7 19.9-37.5 21.1-37.5z" class="st1"/><path d="M238.5 37.5h34.9c4.6 0 8.3 3.7 8.3 8.3v.6c0 4.6-3.7 8.3-8.3 8.3h-34.9c-4.6 0-8.3-3.7-8.3-8.3v-.6c0-4.6 3.7-8.3 8.3-8.3zM195.2 72.2h121.5c4.7 0 8.5 3.8 8.5 8.5v.3c0 4.7-3.8 8.5-8.5 8.5H195.2c-4.7 0-8.5-3.8-8.5-8.5v-.3c0-4.6 3.8-8.5 8.5-8.5zM238.2 107.1l35.3-.1c4.6 0 8.3 3.7 8.3 8.2v.6c0 4.6-3.7 8.3-8.2 8.3l-35.3.1c-4.6 0-8.3-3.7-8.3-8.2v-.6c0-4.6 3.7-8.3 8.2-8.3z" class="st3"/><path d="M331.6 375.4c-6.7 3.6-13.8 6.5-21.4 8.6-10.8 2.8-21.9 4.6-33.3 5.7-13.9.9-27.9.9-41.8 0-11.3-1.1-22.3-2.9-33.2-5.5-8.6-2.7-16.7-6.1-24.3-10.2-.1-.1-.3-.1-.5-.1-6.6-.2-7.5 3.4-5.8 7.6 11.8 30.6 37.7 56 81.4 57.3 47 1.4 76.1-24.9 88.4-57.8 2-5.7-2.8-9.2-9.5-5.6z"/><ellipse cx="183.9" cy="203.8" rx="23.8" ry="16.7"/><ellipse cx="327.5" cy="203.8" rx="23.8" ry="16.7"/><path d="M431.2 263.8c3.3 39.6 4.8 89.8-16.4 125.1-3 5-7.9 11.1-14.7 18.2-17.5 18.5-34 35.9-48.5 56.9-20.2 29.4-57.9 43.9-95.7 43.9V4.1c4.5 0 9 .2 13.5.5 43.1 3.6 88.9 18 121.4 47.4 31 28 37.6 78.5 40.9 117.6 16.5-3.2 34.2 7 42.8 20.4 21 32.5-3 78.7-43.3 73.8z" style="opacity:.18"/></svg>