<svg xmlns="http://www.w3.org/2000/svg" xml:space="preserve" id="Capa_1" x="0" y="0" style="enable-background:new 0 0 512 512" version="1.1" viewBox="0 0 512 512"><style>.st0{fill:#bcaa83}</style><path d="M218.2 184.4c.7-2.2 4.2-12.7 15-18.2 11.5-5.9 22.8-1.8 26.4-.2 10.9 4.7 15.8 14.2 20.7 22.8 10.7 18.7 25.1 35.2 36.8 53.3 7.6 11.7 18.7 28.3 33.3 48 7.4 7.6 14.3 14.8 21.7 22.4 3.2 3.3 7.7 7.9 6.5 12.3-.6 2.1-2.3 3.6-4.5 4.8-9.1 5.1-16.1 3.5-36.7 0-17.9-3-20.2-4-22.6-6.2-7.8-7.2-5.1-15.1-10.2-19.7-2.9-2.7-4.4-.4-15.1-2.5-7.2-1.4-14.5-2.9-20.1-8.2-2-1.9-6.1-6.5-7.6-15.4-.7-5.1.1-10.3-3.6-14.4-1.1-1.2-2.4-2.1-3.6-2.8-4-2.4-7.8-2.2-19.7-9-10.1-5.8-17.8-10.2-22.2-16.5-11.6-17.1 2.8-45.3 5.5-50.5zM342.6 175.9c-2.9 2.3-8.7 6.8-10.7 5.3-2.1-1.6 1.1-9.1 2.7-12.9 2.3-5.4 4.9-9.5 6.9-12.2 4.3 2.4 8.7 4.7 13 7.1-2.3 3.4-6.1 8.2-11.9 12.7zM365 192.9c-3.2 1.9-9.5 5.6-11.3 3.9-1.9-1.8 2.3-8.9 4.4-12.5 3-5.1 6.1-8.8 8.4-11.2l12 8.7c-2.8 3-7.2 7.3-13.5 11.1zM385.9 210.4c-3.2 1.9-9.5 5.6-11.3 3.9-1.9-1.8 2.3-8.9 4.4-12.5 3-5.1 6.1-8.8 8.4-11.2l12 8.7a53.3 53.3 0 0 1-13.5 11.1zM411.2 223.6c-3.2 1.9-9.4 5.8-11.2 4.1-1.9-1.8 2.1-8.9 4.2-12.5 2.9-5.1 6-8.9 8.2-11.3 4 2.8 8.1 5.7 12.1 8.5-2.6 2.9-6.9 7.3-13.3 11.2zM431.6 240.8c-3.5 1.3-10.3 3.9-11.8 1.9-1.5-2.1 3.8-8.4 6.5-11.6 3.8-4.5 7.5-7.6 10.2-9.6l10.3 10.6c-3.2 2.7-8.3 6.1-15.2 8.7z" class="st0"/><path d="M364 282.9c3.5-1.3 10.3-4 11.8-2 1.5 2.1-3.7 8.4-6.4 11.6-3.7 4.5-7.5 7.7-10.1 9.7-3.5-3.5-6.9-7-10.4-10.5 3.1-2.6 8.2-6.1 15.1-8.8zM380.2 304.1c3.3-.7 9.8-2.1 10.9-.1 1.1 2.1-4.5 7-7.4 9.5-4 3.5-7.8 5.8-10.4 7.2-2.6-3.7-5.2-7.3-7.8-11 3.1-1.8 8.1-4.2 14.7-5.6zM347.5 262.8c3.6-.9 10.7-2.7 11.9-.5 1.2 2.3-4.7 7.8-7.8 10.7-4.3 4-8.4 6.6-11.2 8.3-3-3.9-6-7.9-9-11.8 3.4-2.1 8.9-5 16.1-6.7zM332.4 239.5c3.6-.9 10.7-2.7 11.9-.5 1.2 2.3-4.7 7.8-7.8 10.7-4.3 4-8.4 6.6-11.2 8.3-3-3.9-6-7.9-9-11.8 3.5-2.1 9-4.9 16.1-6.7zM316.6 216.2c3.6-.9 10.7-2.8 11.9-.7 1.3 2.3-4.6 7.9-7.6 10.8-4.2 4-8.3 6.8-11.1 8.5-3-3.9-6.1-7.8-9.1-11.6 3.4-2.2 8.8-5.1 15.9-7zM302.7 195.8c3.7-.5 11-1.5 11.9.8 1 2.4-5.5 7.3-8.9 9.8-4.7 3.5-9 5.7-12.1 7-2.6-4.2-5.1-8.4-7.7-12.7 3.8-1.6 9.5-3.9 16.8-4.9z" class="st0"/><path d="M470.3 182.7c-1.9-6-5.5-14.7-12.4-23.4-11.9-14.8-24.9-18.2-42-29.3-9.4-6.1-22.3-15.9-35.7-31.9-3.9-8.3-11-20.1-23.3-30.7-8.7-7.5-21.7-18.8-39.6-19.9-10.4-.6-13.9 2.7-26.6.7-10.8-1.7-13.9-5-21.9-7.3-10.7-3.1-23.4.6-48.5 8C182.6 60 177 66.9 174.9 70c-4.3 6.1-3.1 8.6-9.5 17.1-8.9 12-16 13.6-17 21.7-.6 4.4 1.4 8.4 5.3 16.4 4.7 9.5 7.5 15.2 13.1 19.4 13.1 10 32.3 5.2 39.7 3.4 14-3.5 14.2-8.1 24.8-8.5 11.6-.3 13.4 5.2 27.6 5.9 13.8.7 15-4.4 24.5-2.3 12.7 2.8 14.1 12.7 26.5 16.4 5.7 1.7 13.8 2.1 25.1-2.8 38.3 27.7 76.7 55.4 115 83 3.5-.1 15.1-.9 22.8-9.4 10.2-11.2 10.1-31.4-2.5-47.6zm-266.8-48.2c-17.2 5.8-34.7-.3-39.1-13.5-4.4-13.2 5.9-28.6 23-34.3 17.2-5.8 34.7.3 39.1 13.5s-5.9 28.6-23 34.3zm112.9-3.1c-18.6 0-33.6-15-33.6-33.6s15-33.6 33.6-33.6 33.6 15 33.6 33.6-15.1 33.6-33.6 33.6zm143 90.7c-7.7 3.6-17.4-1-21.7-10.2-4.3-9.2-1.5-19.6 6.1-23.1 7.7-3.6 17.4 1 21.7 10.2 4.3 9.1 1.6 19.5-6.1 23.1zM31.5 55l1.5-3.5c4.6-7.4 11.2-10.9 19.8-10.7.1 0 .2 0 .3-.1 6.3-5.9 13.7-7.7 22.1-5.2l3.4 1.5c12.2 7.5 14.8 24 3.9 33.9-.7.6-1.3 1.2-2 1.8-.1.1-.2.3-.1.5 6.1 16 12.3 32.1 18.4 48.1.1.3.3.4.6.3l-.2.5v.3c3.1 8 6.2 16.1 9.3 24.2.1.3.4.6.7 1l-.1.1c-.1.1-.1.3 0 .4l18.5 48.3c.1.2.3.3.5.3 15.8-1.2 27.1 12.8 22.3 27.9l-1.4 3.1c-4.6 7.5-11.2 11.2-19.9 10.9-.1 0-.2 0-.3.1-6.3 5.9-13.6 7.7-22 5.2l-3.6-1.6c-13.1-8.4-14.6-26.1-1.8-35.5.2-.1.2-.4.2-.6l-18.7-48.6-9.9-26.1-18.7-48.4c-.1-.2-.3-.3-.5-.3C38 84.2 27 70 31.5 55zM415.5 367.3l2.9.5c6.5 2.2 10.5 6.5 11.9 13.2 0 .1.1.2.2.2 5.7 3.7 8.4 9 8.1 15.9l-.5 2.8c-3.4 10.7-15.6 15.8-25.2 9.3l-1.8-1.2c-.1-.1-.3-.1-.4 0-11.1 7.7-22.3 15.4-33.4 23.1-.2.1-.2.3-.1.5l-.4-.1c-.1 0-.2 0-.3.1-5.6 3.9-11.2 7.8-16.8 11.6-.2.1-.4.4-.6.7h-.1c-.1 0-.2 0-.3.1L325 467.3c-.1.1-.2.3-.1.4 3.9 11.9-4.8 23.1-17.2 22.3l-2.7-.5c-6.6-2.1-10.6-6.5-12.1-13.2 0-.1-.1-.2-.2-.2-5.7-3.7-8.4-9-8.1-15.8l.6-3c4-11.6 17.2-16 26.9-8 .1.1.3.1.5 0l33.8-23.4 18.2-12.4 33.8-23.3c.1-.1.2-.3.1-.4-4.2-12.1 4.7-23.1 17-22.5zM464.5 329.8c.8 2.3-7.5 4.8-19.8 16.6-11.5 11-14.3 18.5-16.7 17.5-3.3-1.3-3.6-17.7 5.7-27.4 10.5-11 29.6-10 30.8-6.7zM485.5 356.3c-.1 2.5-8.7 1.9-24.4 8.6-14.6 6.3-19.8 12.3-21.7 10.6-2.6-2.3 2.8-17.8 14.9-23.7 13.6-6.6 31.3 1 31.2 4.5zM497.7 385.5c-.8 2.3-8.9-.9-25.8.8-15.8 1.5-22.6 5.6-23.9 3.4-1.8-3 8.1-16.1 21.5-18 14.9-2.1 29.3 10.5 28.2 13.8zM232.1 457.5c-3 7.8-9.1 11.7-11 12.8-5 1.7-12.6 3.5-20.9 1.6-34.2-7.9-23.5-65.1-62.9-93.7-26.9-19.5-85.5-31.9-94.9-41.7-4.7-5-5.1-10.1-5.1-10.1-.3-3.8.9-7.7 3.5-10.8l11-12.8c2.7-3.1 6.3-4.8 10.1-5.1 5.4-.4 9.6 2.7 10.8 3.5 17.2 12.1 59.7 15.1 91.9 46.4 26.5 25.8 22.1 46.6 66 89 .7 1.4 5.4 10.5 1.5 20.9z" class="st0"/><path d="M163.5 309.2c-14.1 7.3-32.6 18.6-51.3 35.8-19.1 17.6-32.1 35.4-40.6 49-.6.6-4 3.6-9.2 3.4-3.3-.1-6.5-1.5-8.9-4.1l-4.8-5.2c-2.4-2.6-3.5-5.9-3.4-9.2.2-3.9 2.3-6.9 4.1-8.9 9.6-10.8 36.1-24 51-37.8 14.3-13.3 31.6-40 41-47.1 1.3-1 4.8-3.6 9.2-3.4 3.3.1 6.5 1.5 8.9 4.1l4.8 5.2c4.7 5.3 4.4 13.4-.8 18.2zM210.3 342.7c-14.6 6.4-33.7 16.5-53.5 32.5-20.2 16.3-34.3 33.3-43.7 46.3-.7.5-4.2 3.3-9.4 2.8-3.3-.3-6.4-1.9-8.6-4.7l-4.4-5.4c-2.2-2.7-3.1-6.1-2.8-9.4.4-3.9 2.8-6.7 4.7-8.6 10.3-10.1 37.6-21.6 53.3-34.5 15.1-12.4 34.1-37.9 43.9-44.3 1.4-.9 5-3.3 9.4-2.8 3.3.3 6.4 1.9 8.6 4.7l4.4 5.4c4.5 5.5 3.6 13.5-1.9 18zM241.5 388.3c-15.1 4.8-35.2 12.9-56.6 26.8-21.8 14.1-37.6 29.5-48.2 41.6-.7.5-4.6 2.9-9.6 1.8-3.2-.7-6.2-2.6-8.1-5.5l-3.8-5.9c-1.9-3-2.5-6.4-1.8-9.6.8-3.8 3.5-6.4 5.5-8.1 11.3-9 39.6-17.6 56.6-28.8 16.3-10.7 37.8-34.2 48.2-39.6 1.5-.8 5.4-2.7 9.6-1.8 3.2.7 6.2 2.6 8.1 5.5l3.8 5.9c3.9 5.9 2.2 13.8-3.7 17.7z" class="st0"/></svg>