<svg xmlns="http://www.w3.org/2000/svg" xml:space="preserve" id="Layer_1" x="0" y="0" style="enable-background:new 0 0 375 375" version="1.1" viewBox="0 0 375 375"><style>.st0{fill:#fff}.st1{fill:#ede4e5}.st4{fill:#c0baba}.st6{fill:#05d9e3}.st7{fill:#fcf5c7}.st8{fill:#f8e883}.st10{fill:#729962}.st12{fill:#26aadd}.st13{fill:#41a9b7}</style><path d="M185.4 152.7c-7.2 5.3-14.3 10.9-21.3 16.7-4.7 4-20.4 13.7-24.5 7-2.9-4.8-.8-13.1 2-17.6 8.9-14.4 23.9-22.4 40.4-20.6 9 .9 10.7 9 3.4 14.5z" class="st0"/><path d="m193.586 151.912 81.811-81.811 29.84 29.84-81.812 81.811z" class="st1"/><path d="M360.5 26.5c-8.8 8-14.3 14.8-25.1 4.1L322.8 18c4.2-4.3 7.6-7.7 10.2-10.1 3.5-3.3 6.7-2.3 9.9.9 5.9 5.7 11.8 11.7 17.6 17.7z" style="fill:#e2a467"/><path d="m322.8 17.9 12.6 12.6c10.8 10.8 16.3 3.9 25.1-4.1 3.8 3.7 12.6 9.6 6.6 15.7-6.9 7-13.9 14-20.9 21.1-5-4.4-9.8-9.1-14.5-14.2-.4-.4-1-.4-1.4-.1l-76.4 76.5-29.8 30-4.5-4.7 30.3-30.2L326 44.7c.4-.4.4-1 0-1.4-4.9-4.5-9.6-9.3-14-14.5l10.8-10.9z" style="fill:#b27846"/><path d="M312 28.8c4.4 5.2 9.1 10 14 14.5.4.4.4 1 .1 1.4l-16 15.9c-7.2-6.1-13.8-12.8-19.6-20.1 3.7-3.4 7.3-6.8 11-10.1 3.4-3.3 6.4-5 10.5-1.6z" class="st4"/><path d="M141.1 188.5c-6.4 6.9-14.4 11.3-23.8 13.1-.5.1-1-.1-1.3-.4-5.9-6.9-.9-13.6 4.6-18.7 6.1-5.7 12.5-10.1 21.7-8 .4.1.8.4.9.8 1.9 5.3 1.2 9.7-2.1 13.2z" class="st0"/><path d="M135.2 209c.3.1.7 0 .9-.2l-.9.2zM290.4 40.5c-25.3 23.2-50.6 46.4-75.9 69.7-7.4 6.8-15.4 12.9-23.8 15.3l-23.4 6.6c-11.9 3.3-20 10-29.7 19.7C97.4 191.9 57.3 232 17.2 272.2c-.1 5.3.7 10.3 2.5 15.2l35.8 6.1.5-.1 10-10.6 89.7-89.6c36.8-36.5 67.6-67.2 92.3-92 5-5 8.7-8.7 11.2-11 5.2-7 14.8-3.8 20.5.5L310 60.6c-7.2-6.1-13.8-12.8-19.6-20.1zM138.2 188.4c-4.9 5.9-10.9 9.6-18.1 11.2-.4.1-.8-.1-1-.4-4.5-5.9-.7-11.6 3.5-16 4.6-4.9 9.5-8.7 16.5-6.9.3.1.6.3.7.7 1.4 4.6.8 8.4-1.6 11.4zm45.2-34.9c-6.5 4.6-13 9.4-19.3 14.4-4.3 3.4-18.5 11.8-22.2 6-2.7-4.2-.7-11.3 1.8-15.2 8.1-12.4 21.7-19.2 36.6-17.7 8.2.8 9.7 7.8 3.1 12.5z" class="st1"/><path d="M346.3 63.2c2.3 2.9 2.5 5.7.4 8.2-1.3 1.6-5.5 6.1-12.4 13.3L314 65.5 330.4 49c.4-.4 1-.4 1.4 0 4.7 5.1 9.5 9.8 14.5 14.2z" class="st4"/><path d="m228.5 172.5 59.6-60.1c.1-.1.2-.3.3-.5 1.2-6-.2-11.5-4.2-16.4l29.8-30 20.2 19.3c-23.2 25.4-46.5 50.8-69.8 76.1-4 4.3-6.9 7.9-8.8 10.8-9 13.6-9.4 30.7-16.2 44.8-2.9 5.9-6.5 11.1-10.9 15.5-26.1 26.1-51.8 52.9-78.5 78.3l-50-9.1c.1-.4.2-.7.5-1 20-19.8 40-39.7 59.8-59.8l68.2-67.9z" class="st1"/><path d="M17.2 272.2c-.1 5.3.7 10.4 2.5 15.2 1.4 4.7 3.8 8.7 7.2 12.1 16 16.1 32.1 32.1 48.1 48.1 7.7 7.6 16.3 9 27 10.5l-4.8 4.8-1.5-1.2c-.3-.2-.6-.3-.9-.2-12.6 4.1-19.7-.6-28.9-9.8L22.2 308c-9.6-9.6-13.8-19.1-7.2-32.4.1-.2 0-.4-.1-.5-.2-.1-.2-.3-.2-.5l2.5-2.4z" style="fill:#d4cbcc"/><path d="M14.7 274.8c0 .2.1.4.2.5.2.1.2.3.1.5-6.6 13.3-2.4 22.8 7.2 32.4 14.6 14.5 29.1 29.1 43.7 43.7 9.2 9.2 16.3 14 28.9 9.8.3-.1.7 0 .9.2l1.5 1.2c-10.5 8.8-24.3 8-33.9-1.7-17.4-17.5-34.9-35-52.3-52.4-2.5-2.5-4.1-6.3-4.7-11.5-1.1-9.2 1.7-16.7 8.4-22.7z" class="st4"/><path d="m100 301.2 50 9.1c-15.7 16.3-31.7 32.3-48 48-10.7-1.6-19.4-2.9-27-10.5l-48.1-48.1c-3.4-3.4-5.8-7.4-7.2-12.1l35.8 6.1 44.5 7.5zM393.9 548.2c-.3.4-.7.8-1 1.3.3-.5.6-.9 1-1.3z" class="st6"/><path d="m114.6 218.6 21.4-22 .6.1 5.8-5.4 13.4 4.9 2.9 2.9-21.4 24.2z" class="st7"/><path d="m162 254.8 23.6-22.8-1.2-5.8-3.4-2.7-25.2 19.5z" class="st8"/><path d="M226.3 158.4c-7.7-9.7-28.6-30.2-42.2-19.7-1.1.8-3.3 3.4-6.8 7.6-12.6 15.6-26.5 33.2-41.3 50.3.2.2.3.2.5 0 6.7-4.5 16-1.9 22.2 2.4.5.1.7.4 1.2.4 5.5.2 10.2 2.2 14 5.9 1.4 1.1 2.6 2.3 3.6 3.7.6.5 1.1 1 1.6 1.5l.8.8c.5.5.9 1.1 1.3 1.6.2.2.3.5.5.7 0 .1.1.1.1.2.2.3.4.5.5.8.2.3.4.6.5.9.2.3.3.6.5.9.3.6.5 1.2.7 1.8.1.2.1.4.2.7.1.3.2.7.3 1.1 0 .1.1.1.1.2.1.4.2.8.3 1.1 0 .1.1.3.1.4 0 .1 0 .3.1.4 0 .2.1.4.1.6 0 .3.1.5.1.8.1.6.3.8.8.3 11-9.5 22.2-18.8 33.6-27.9 1-.8 1.9-1.5 2.8-2.2.9-.7 1.8-1.4 2.6-2.1.7-.5 1.3-1 2-1.5 2.8-2.2 5.2-4.1 7.2-5.7.6-.5 1.2-1 1.8-1.4l1.5-1.2c.2-.2.4-.3.6-.5-2.3-8.1-6.3-15.8-11.9-22.9z" class="st7"/><path d="M238.2 181.6c.4 1 .7 2.4 1.1 4.3.4 2.1-.5 2.5-2.2 3.9-17.5 13.6-34.7 27.7-51.5 42.2l-.6-.3c0-2-2.8-6.4-4-8.2.3-5.2-.9-10-3.5-14.4 4.6 3.8 7.2 8.7 7.8 14.6.1.7.3.8.8.3 11-9.5 22.2-18.8 33.6-27.9 9.1-7.1 15.3-12 18.5-14.5z" class="st8"/><path d="M173.9 205.4c-3.8-3.7-8.5-5.7-14-5.9-.5 0-.7-.3-1.2-.4 0 .2-.1.4-.3.4h-.1c-12.8.8-21.7 11.1-21 23.8.5 4.8 2.3 8.9 5.4 12.4 2.6 1.9 5.3 3.3 8.3 4.2l1.2.3c.3.1.6.2.9.2.2 0 .4.1.6.1.3.1.7.1 1 .2h.4c.4 0 .8.1 1.2.1h2.2c.2 0 .5 0 .7-.1.3 0 .5-.1.8-.1l1.5-.3c.3-.1.6-.1.9-.2.2-.1.4-.1.6-.2.8-.2 1.5-.5 2.2-.8.1-.1.3-.1.4-.2.3-.1.7-.3 1-.5l.6-.3c.6-.3 1.2-.7 1.7-1.1.2-.1.4-.3.6-.4.3-.2.7-.5 1-.8.1-.1.2-.2.3-.2.1-.1.2-.2.4-.3.2-.2.4-.4.6-.5l.6-.6c.2-.2.4-.4.6-.7.2-.3.5-.5.7-.8l.1-.1c.2-.3.5-.6.7-1 .2-.3.4-.5.5-.8.2-.3.3-.5.5-.8.2-.3.4-.7.6-1 .2-.4.4-.9.6-1.3.2-.5.4-.9.5-1.4.1-.2.2-.5.2-.8v-.2c.1-.2.1-.5.2-.7.2-.6.3-1.1.4-1.7 1.5-6.2 0-12.1-4.1-17.5zM150.8 217c-1.1-1.1-1.1-2.9 0-4l.1-.1c1.1-1.1 2.9-1.1 4 0l12.8 12.8c1.1 1.1 1.1 2.9 0 4l-.1.1c-1.1 1.1-2.9 1.1-4 0L150.8 217z" style="fill:#a3da8b"/><path d="M173.9 205.4c1.4 1.1 2.6 2.3 3.6 3.7 2.7 4.5 3.8 9.3 3.5 14.4-1.6 12.8-12.3 20.9-25.3 19.5-3.4-.6-6.5-1.9-9.3-3.9-1.4-.9-2.6-2.1-3.7-3.5 2.6 1.9 5.3 3.3 8.3 4.2 12.5 4 25.1-4.7 27.3-17.1 1.2-6-.3-11.9-4.4-17.3z" class="st10"/><path d="M150.8 213c1.2-1.2 3-1.2 4.1-.1l12.8 12.8c1.1 1.1 1.1 2.9 0 4l-.1.1c-1.1 1.1-2.9 1.1-4 0L150.8 217c-1.1-1.1-1.1-2.9 0-4z" class="st10"/><path d="m158.4 247.2-.5-.5c-.1 0-.2 0-.2-.1-.2-.1-.5-.1-.7-.2-.7-.2-1.4-.5-2.1-.7-.2-.1-.4-.2-.7-.3-.3-.1-.6-.3-.9-.4-.2-.1-.3-.2-.5-.3-.9-.5-1.8-1.1-2.6-1.8-.2-.2-.5-.4-.7-.6l-.6-.6-.6-.6c-.3-.3-.6-.6-.9-1-.3-.3-.6-.7-.8-1-1.4-.9-2.6-2.1-3.7-3.5-3.1-3.5-4.9-7.7-5.4-12.4-4.5-3-8.8-4.8-13.1-5.6-2.8-.5-6-.2-9.6.8-17.3 15.3-33 27.7-53.9 44.3-1.8 1.4-3.5 3-5.2 4.7 3.2-1.4 6.4-2.1 9.6-2.1 2.1 0 4.5.4 7.1 1.1.5.2 1.1.4 1.6.6.5.2 1.1.4 1.6.6.5.2 1 .4 1.6.7.5.2 1 .5 1.5.7.5.2 1 .5 1.5.8.5.3 1 .5 1.5.8l1.5.9c.5.3.9.6 1.3.8.6.4 1.1.8 1.7 1.2l1.2.9 1.2.9c.1.1.2.2.4.3.3.3.7.6 1 .8l.2.2c.3.3.7.6 1 .9.7.6 1.4 1.3 2 1.9.3.3.6.6.8.9 1.2 1.2 2.4 2.6 3.5 3.9.3.4.6.8 1 1.2 1 1.3 2 2.6 2.9 4 .6.9 1.2 1.8 1.8 2.8.6.9 1.1 1.9 1.7 2.8.3.5.5 1 .8 1.4.2.5.5 1 .8 1.5.2.5.5 1 .7 1.4.2.5.5 1 .7 1.5l.6 1.5 5.6 1c-.3.4-.7.8-1 1.3.3-.4.7-.8 1-1.3 1.5-1.9 3-3.8 4.4-5.6 2.4-3 4.7-6 7.1-8.9 1.4-1.7 2.8-3.5 4.2-5.2 4-4.9 8-9.7 12-14.5 1-1.1 1.9-2.2 2.9-3.4 1-1.1 1.9-2.2 2.9-3.3 1-1.1 1.9-2.2 2.9-3.3 1-1.1 1.9-2.2 2.9-3.3 2-2.2 3.9-4.4 5.9-6.5l.1-.1-1-2z" class="st7"/><path d="M146.4 239.2c2.8 1.9 5.9 3.2 9.3 3.9l2.2 3.7c-4.7-1.2-8.5-3.8-11.5-7.6zM113.9 303.4c-.3.4-.7.8-1 1.3.3-.4.6-.8 1-1.3z" class="st8"/><path d="M162 254.8c-14.7 15.8-28.4 32.8-41.7 49.8l-6.5-1.2c1.5-1.9 3-3.8 4.4-5.6 2.4-3 4.7-6 7.1-8.9 1.4-1.7 2.8-3.5 4.2-5.2 4-4.9 8-9.7 12-14.5 1-1.1 1.9-2.2 2.9-3.4 1-1.1 1.9-2.2 2.9-3.3 1-1.1 1.9-2.2 2.9-3.3 1-1.1 1.9-2.2 2.9-3.3 2-2.2 3.9-4.4 5.9-6.5l.1-.1 2.9 5.5z" class="st8"/><path d="M65.1 265.5c2.1 0 4.5.4 7.1 1.1l-5.5 5.5-4.6 4.9c-6.3 4.6-3.3 11.7.2 16.9.1.2.3.4.4.6l-7-1.2-.6-.1c-1.6-3.4-2.5-6.9-2.4-10.1.1-1.4.4-2.7.9-4 .4-.9.2-1.1-.6-.5-2 1.5-3.8 3.3-5.4 5.2l-.2-.1v-2c.4-6.1 3.3-10.5 8.1-14.1 3.2-1.4 6.4-2.1 9.6-2.1z" style="fill:#ffd064"/><path d="m108.3 302.4-6.8-1.2c-5.6-10.5-13.2-19-23-25.7-2.7-1.8-8.1-4.5-11.7-3.3l5.5-5.5c.5.2 1.1.4 1.6.6.5.2 1.1.4 1.6.6.5.2 1 .4 1.6.7.5.2 1 .5 1.5.7.5.2 1 .5 1.5.8s1 .5 1.5.8l1.5.9c.5.3.9.6 1.3.8.6.4 1.1.8 1.7 1.2l1.2.9 1.2.9c.1.1.2.2.4.3.3.3.7.6 1 .8l.2.2c.3.3.7.6 1 .9.7.6 1.4 1.3 2 1.9.3.3.6.6.8.9 1.2 1.2 2.4 2.6 3.5 3.9.3.4.6.8 1 1.2 1 1.3 2 2.6 2.9 4 .6.9 1.2 1.8 1.8 2.8.6.9 1.1 1.9 1.7 2.8.3.5.5 1 .8 1.4.2.5.5 1 .8 1.5.2.5.5 1 .7 1.4.2.5.5 1 .7 1.5.1.3.3.8.5 1.3z" class="st8"/><path d="m101.5 301.2-1.3-.2-5.7-1c-6-9.3-17.4-22-28.2-23.4-.7-.1-2.1.1-4.2.5l4.6-4.9c3.6-1.1 9 1.5 11.7 3.3 9.9 6.7 17.5 15.2 23.1 25.7z" class="st7"/><path d="m94.5 300-31.8-5.5c-.1-.2-.3-.4-.4-.6-3.5-5.2-6.5-12.2-.2-16.9 2.1-.4 3.6-.5 4.2-.5 10.9 1.5 22.2 14.2 28.2 23.5zM55.1 293.2l-5.9-1c-.2-.6-.4-1.2-.6-1.7-.8-2.4-1.1-4.6-1-6.6 1.6-2 3.4-3.7 5.4-5.2.8-.6 1-.5.6.5-.5 1.3-.8 2.6-.9 4-.2 3.1.7 6.6 2.4 10z" class="st8"/><path d="M108.3 302.2c.2.4.3.7.5 1.1.2.4.3.7.4 1.1l1.2 3.4 3.6-4.5-5.7-1.1z" class="st12"/><path d="m114 303.2 6.5 1.2c-1.7 2.2-3.5 4.4-5.2 6.7-3.3 4.2-4.3-1.3-4.9-3.3 1.2-1.6 2.4-3.1 3.6-4.6z" class="st13"/><path d="M99.1 316.9c-3 3.8-6.3 6.3-11.2 6.3 1.2-2.1 2.5-4.1 3.9-5.8.5-.5.3-.8-.4-.7-5.7.8-11-.1-16-2.7-.3-.2-.6-.3-.9-.5-.9-.5-1.8-1.1-2.8-1.8-.3-.2-.6-.4-1-.7-.3-.2-.5-.4-.8-.6-1-.8-2-1.6-3-2.5-.3-.3-.6-.6-1-.9-1.6-1.5-3.1-3.1-4.6-4.9-.3-.3-.5-.7-.8-1-.2-.3-.5-.6-.7-.9-.1-.1-.2-.2-.2-.3-.2-.3-.5-.6-.7-.9-.2-.3-.5-.6-.7-.9-.3-.4-.6-.8-.8-1.2-.2-.4-.5-.7-.7-1.1-.2-.4-.4-.8-.6-1.1-.2-.3-.4-.7-.6-1.1v-.1c-.1-.2-.2-.5-.4-.7l.6.1 7 1.2c5.2 7.6 12.4 14.5 21.4 17.1.8.2 1.6 0 2.2-.6l9.3-9.1c1.3 2.1 2.3 4.5 3 7 .5 2.5.6 5 0 7.6v.1c0 .1.1.2.3.2.3 0 .3.2.2.5z" style="fill:#35909c"/><path d="M99.1 316.9c.1-.4.1-.5-.1-.5-.1 0-.3-.1-.3-.2v-.1c.5-2.6.5-5.1 0-7.6 1.6-1.4 3-3 4.1-4.7.1-.1.1-.3 0-.5-.3-.5-.5-1.1-.8-1.6-.1-.3-.3-.6-.4-.9l6.8 1.2c.2.4.3.7.5 1.1.2.4.3.7.4 1.1l-10.2 12.7z" class="st13"/><path d="M102.7 303.8c-1.1 1.8-2.5 3.3-4.1 4.7-.7-2.5-1.7-4.9-3-7-.3-.6-.7-1.2-1.2-1.8l5.7 1 1.3.2c.2.3.3.6.4.9.3.5.5 1 .8 1.6.2.1.2.3.1.4z" class="st12"/><path d="m95.7 301.6-9.3 9.1c-.7.6-1.4.8-2.2.6-9-2.6-16.2-9.4-21.4-17.1l31.8 5.5c.4.6.8 1.3 1.1 1.9z" class="st13"/><path d="M91.8 317.5c-1.4 1.7-2.7 3.6-3.9 5.8-2.2.1-4.3-.1-6.6-.7-14.5-4.1-26.9-16.5-32-30.6l5.9 1c.1.1.1.2.2.4.1.1.1.2.2.4v.1c.2.4.4.7.6 1.1.2.4.4.8.6 1.1.2.4.5.7.7 1.1.3.4.5.8.8 1.2.2.3.4.6.7.9.2.3.4.6.7.9.1.1.2.2.2.3.2.3.5.6.7.9.3.3.5.6.8 1 1.5 1.7 3 3.4 4.6 4.9.3.3.6.6 1 .9 1 .9 2 1.7 3 2.5.3.2.5.4.8.6.3.2.6.5 1 .7.9.7 1.9 1.2 2.8 1.8.3.2.6.3.9.5 5 2.6 10.4 3.5 16 2.7.6-.2.7 0 .3.5z" class="st13"/></svg>