<svg xmlns="http://www.w3.org/2000/svg" xml:space="preserve" id="Capa_1" x="0" y="0" style="enable-background:new 0 0 512 512" version="1.1" viewBox="0 0 512 512"><style>.st0{fill:#837445}</style><path d="M334.9 298.8c-.4-57.8 1.3-112.5 4.5-164h-45.5l27.5-123.5H202.9L224 133.9h-40c1.7 48.2 2 99.2.2 152.8-2.5 76.8-8.8 148.4-17.3 213.9h58.8l11.3-125 21.2 1.1 15.8.8 11.4 123.2h59.7c-5.9-62.4-9.7-129.9-10.2-201.9zM266.4 36.7c9 2.3 15.7 10.2 15.7 19.7 0 9.8-7.1 17.9-16.6 19.9-1.4.3-2.9.5-4.5.5-11.6 0-21.1-9.1-21.1-20.4 0-11.2 9.4-20.4 21.1-20.4 1.8 0 3.7.3 5.4.7z" class="st0"/><path d="M328.7 295c-.4-55.3 1.8-104.4 4.8-153.7l-47-1.3 28.1-123.2H209.5l20.5 122c-12.8 0-25.5 1.3-38.2 1.3 1.7 46.1-.7 95.6-2.4 146.9-2.4 73.6-8.5 146-16.6 208.8l47.1-1.3 13.1-125 17.8.9 7.5.4 2.9.1 16.9.8 10.9 124h50.2c-5.5-59.6-10-131.7-10.5-200.7zM239.9 56.4c0-11.2 9.4-20.4 21.1-20.4 1.9 0 3.7.2 5.4.7 9 2.3 15.7 10.2 15.7 19.7 0 9.8-7.1 17.9-16.6 19.9-1.4.3-2.9.5-4.5.5-11.7 0-21.1-9.1-21.1-20.4z" style="fill:#573f13"/><path d="M266.6 27.8c-1.8-.3-3.7-.5-5.6-.5-16.6 0-30.1 13-30.1 29.1 0 14.7 11.3 26.8 25.9 28.8 1.4.2 2.8.3 4.2.3 1.4 0 2.9-.1 4.2-.3.7-.1 1.4-.2 2-.3 13.6-2.8 23.8-14.5 23.8-28.4.1-14.3-10.5-26.1-24.4-28.7zm-1.2 48.5c-1.4.3-2.9.5-4.5.5-11.6 0-21.1-9.1-21.1-20.4 0-11.2 9.4-20.4 21.1-20.4 1.9 0 3.7.2 5.4.7 9 2.3 15.7 10.2 15.7 19.7.1 9.8-7.1 17.9-16.6 19.9z" class="st0"/><path d="m256.916 81.625 10.398.216-6.021 290.642-10.398-.216zM315.9 203.4c-4.4-3.2-8.8-6.3-13.2-9.5-.2-.1-.3-.4-.3-.6l.2-10c0-.2.1-.4.3-.6 4.1-2.8 8.3-5.6 12.4-8.3 3.3-2.2 5.9-5.3 1.6-8.3-4.3-3.1-8.7-6.2-13-9.3-2.6-1.9-4.6-3.6-7.1-1.8-5.1 3.4-10.2 6.8-15.4 10.3-4.2 2.8-3.2 5.7.5 8.4 4.1 3 8.2 6 12.4 8.9.2.1.3.4.3.6l-.2 10.2c0 .2-.1.4-.3.6-4 2.7-8 5.4-12 8-1.8 1.2-2.9 2-3.3 2.7-2.6 3.4 1.8 7.9 5.5 5.4 4.5-3 9-6 13.6-9.1.2-.2.6-.2.8 0 4 3 8.1 5.9 12.2 8.8 3.4 2.4 7.1 2.3 7.6-2.8 0-.1 0-.3-.1-.4-.6-1.5-1.5-2.5-2.5-3.2zm-17.2-27.7-8.6-6.2v-.1c0-.1 0 0 0 0V169.1l8.8-5.9c.1-.1.2-.1.3 0l8.6 6.3c.1 0 .1.1.1.2v.1c0 .1 0 .1-.1.1 0 0 0 .1-.1.1l-8.8 5.9c0-.1-.1-.1-.2-.2zM239.6 203.4c-4.4-3.2-8.8-6.3-13.2-9.5-.2-.1-.3-.4-.3-.6l.2-10c0-.2.1-.4.3-.6 4.1-2.8 8.3-5.6 12.4-8.3 3.3-2.2 5.9-5.3 1.6-8.3-4.3-3.1-8.7-6.2-13-9.3-2.6-1.9-4.6-3.6-7.1-1.8-5.1 3.4-10.2 6.8-15.4 10.3-4.2 2.8-3.2 5.7.5 8.4 4.1 3 8.2 6 12.4 8.9.2.1.3.4.3.6l-.2 10.2c0 .2-.1.4-.3.6-4 2.7-8 5.4-12 8-1.8 1.2-2.9 2-3.3 2.7-2.6 3.4 1.8 7.9 5.5 5.4 4.5-3 9.1-6 13.6-9.1.2-.2.6-.2.8 0 4 3 8.1 5.9 12.2 8.8 3.4 2.4 7.1 2.3 7.5-2.8 0-.1 0-.3-.1-.4-.5-1.5-1.4-2.5-2.4-3.2zm-17.2-27.7-8.6-6.2v-.4c0-.1 0 0 0 0l8.8-5.9c.1-.1.2-.1.3 0l8.6 6.3c.1 0 .1.1.1.2v.2s0 .1-.1.1l-8.8 5.9c-.1-.1-.2-.1-.3-.2zM239.1 332.3c-4.2-3-8.4-5.8-12.6-8.7-.2-.1-.3-.4-.3-.6l.1-10.2c0-.2.1-.4.3-.6 4-2.8 7.9-5.5 11.9-8.2 1.7-1.2 2.8-2.1 3.3-2.7 2.6-3.5-1.9-7.9-5.6-5.3-4.5 3.1-9 6.2-13.4 9.3-.2.2-.6.2-.8 0-4.1-2.9-8.2-5.8-12.4-8.6-3.4-2.4-7.1-2.1-7.5 3 0 .1 0 .3.1.4.7 1.3 1.6 2.3 2.6 3 4.4 3.1 8.9 6.2 13.3 9.3.2.1.3.3.3.6v10c0 .2-.1.4-.3.6-4.1 2.9-8.2 5.7-12.3 8.5-3.3 2.2-5.8 5.4-1.5 8.4 4.4 3 8.8 6.1 13.2 9.1 2.6 1.8 4.6 3.5 7.2 1.7 5.1-3.5 10.1-7 15.2-10.5 4.1-3 3-5.8-.8-8.5zm-7.8 4.5c0 .1 0 .1 0 0 0 .1-.1.1-.1.2l-8.7 6.1c-.1.1-.2.1-.3 0l-8.7-6.1c-.1 0-.1-.1-.1-.2v-.2l.1-.1 8.7-6c.1-.1.2-.1.3 0l8.7 6.1c.1.1.1.1.1.2zM299.8 312.4c4-2.7 8-5.3 12.1-8 1.8-1.1 2.9-2 3.3-2.6 2.7-3.4-1.7-7.9-5.5-5.4-4.6 3-9.1 6-13.6 9-.2.2-.6.2-.8 0-4-3-8.1-6-12.2-8.9-3.3-2.4-7.1-2.3-7.6 2.8 0 .1 0 .3.1.4.7 1.3 1.5 2.3 2.5 3 4.4 3.2 8.7 6.4 13.1 9.6.2.1.3.4.3.6l-.3 10c0 .2-.1.4-.3.6-4.2 2.8-8.3 5.5-12.5 8.2-3.3 2.2-5.9 5.2-1.7 8.3 4.3 3.2 8.6 6.3 12.9 9.4 2.6 1.9 4.5 3.6 7.1 1.9 5.1-3.4 10.3-6.8 15.4-10.2 4.3-2.8 3.2-5.7-.5-8.4-4.1-3-8.2-6-12.4-9-.2-.1-.3-.4-.3-.6l.3-10.2c.3-.2.5-.4.6-.5zm4 24.3s.1 0 0 0c.1.1.1.1 0 0 .1.1.1.1 0 0l.1.1v.4l-8.8 5.9c-.1.1-.2.1-.3 0l-8.6-6.3c-.1 0-.1-.1-.1-.2v-.1c0-.1 0 0 0 0v-.1l.1-.1 8.9-5.8c.1-.1.2-.1.3 0l8.4 6.2z" class="st0"/><path d="M345.1 500.7h-59.7L274 377.5l-15.8-.8.1-4.2v-1.7l6.9-285.5.1-3.4.1-5.5c9.5-2 16.6-10.1 16.6-19.9 0-9.5-6.7-17.4-15.7-19.7l.2-8.9.3-11 .1-5.5h54.4l-27.5 123.5h45.5c-3.2 51.4-4.9 106.2-4.5 164 .6 71.9 4.4 139.4 10.3 201.8z" style="opacity:.13"/></svg>