<?xml version="1.0" encoding="utf-8"?>
<!-- Generator: Adobe Illustrator 27.6.1, SVG Export Plug-In . SVG Version: 6.00 Build 0)  -->
<svg version="1.1" id="Capa_1" xmlns="http://www.w3.org/2000/svg" xmlns:xlink="http://www.w3.org/1999/xlink" x="0px" y="0px"
	 viewBox="0 0 512 512" style="enable-background:new 0 0 512 512;" xml:space="preserve">
<style type="text/css">
	.st0{fill:#FFF1CE;}
	.st1{fill:#FFE1BD;}
	.st2{fill:#FFBD86;}
	.st3{fill:#7F8806;}
	.st4{fill:#C03B15;}
	.st5{fill:#FC3B23;}
	.st6{fill:#FFAB9E;}
	.st7{fill:#FF8171;}
	.st8{fill:#FF4E1C;}
</style>
<g>
	<path class="st0" d="M432.3,300.6c-50.1,26.1-102.1,30.5-156.1,13.3l-2.4-5.1c-3.2-13.7-19.1-30-29.9-10.4c-1.1,2-3.5,2.7-5.5,1.7
		c-11.8-6.1-21.9-14.1-30.4-24.1c21.4-41-9.5-84.9-55.4-74.5c-20.7-49.7-21.6-99.7-2.8-150.1c1.4-3.6,0.4-7.6-1.2-10.8
		C225.8-8.1,319.2,2.5,382.4,54.4c-0.6,0.3-1.4,0.6-2.2,0.9c-13.4,4.7,9.6,11.9-1,18.1c-3.7,2.2-7.4,3.7-11.1,4.6
		c-2.4,0.6-2.9,1.8-1.4,3.8l6.9,8.9c1.5,1.9,1.2,3.4-0.9,4.6c-2.3,1.3-5.1,2.1-6.9,3.6c-7,5.7-7.3,23.8-3.4,31.8
		c1.2,2.3,0.6,4.1-1.7,5.4c-13.4,7.3-26.3,13.9-35.2,25.6c-3.3,4.4-5.9,7.2-9.3,10.6c-0.5,0.5-0.4,0.7,0.3,0.6
		c3.3-0.6,6.1-2.2,8.3-4.7c12.5-14.3,29.3-19.8,45.5-28.5c1.6-0.9,3.1-2.3,4.5-3.5c1.1-1,1.2-2,0.3-3.2c-1.6-2-3.4-3.8-4.1-6.4
		c-1.8-6.6-1.2-13,1.8-19.3c0.7-1.4,1.7-2.4,3.2-2.9c5.6-2.1,11.4-4,17.4-5.8c3-0.9,2.6-2.8,0.2-4.1c-4-2.1-7.5-4.7-10.7-7.9
		c-1.5-1.5-1.2-3,0.8-4.3c3.7-2.5,7.6-4.8,11.5-7.1c2.1-1.2,3.8-3.1,1.1-5c-3.1-2.1-5.4-4.8-7-8.1c-0.2-0.4-0.1-1,0.2-1.3
		c29,26.1,50.7,61.4,60.3,103.9C460,210.3,454.2,255.7,432.3,300.6z"/>
	<path class="st1" d="M455.7,348c-2.3,33.4-20.9,53-55.6,58.7c-1.9,0.3-3.4,2-3.4,3.9c-0.1,2.1-0.1,4.1-0.1,6.2
		c-0.5,30.4,1.3,61.6-22.2,76.6c-7,4.5-16.3,7.5-28.5,8.7c0-13.4,0-26.7,0-40.1v0c0-3.7,0-7.5,0-11.2c0-7.4,0-14.8-0.1-22.1
		c0-0.5,0-1,0-1.6c0-0.1,0-0.2,0-0.2c0-0.5-0.1-1-0.1-1.5c0,0,0-0.1,0-0.1c0-0.5-0.1-1-0.2-1.5c-0.1-0.5-0.2-1-0.3-1.5
		c-0.1-0.3-0.1-0.6-0.2-0.8c0-0.1-0.1-0.3-0.1-0.4c-0.1-0.3-0.1-0.6-0.2-0.9c-0.2-0.7-0.4-1.4-0.7-2.1c-0.1-0.3-0.2-0.6-0.3-0.8
		c-0.1-0.3-0.2-0.5-0.3-0.8c-0.1-0.2-0.2-0.3-0.2-0.5c-0.1-0.2-0.2-0.4-0.3-0.6c-0.1-0.1-0.1-0.2-0.2-0.3c-0.1-0.1-0.1-0.3-0.2-0.4
		c-0.3-0.6-0.7-1.1-1.1-1.6c-0.2-0.2-0.3-0.4-0.5-0.6c-0.1-0.2-0.3-0.3-0.4-0.5c-0.2-0.2-0.4-0.5-0.7-0.7c-0.2-0.2-0.3-0.3-0.5-0.5
		c-0.2-0.2-0.5-0.4-0.7-0.6c-0.1-0.1-0.3-0.2-0.4-0.3c-0.7-0.5-1.4-0.9-2.1-1.3c-0.2-0.1-0.4-0.2-0.6-0.3c-0.1,0-0.2-0.1-0.3-0.1
		c-0.2-0.1-0.5-0.2-0.7-0.3c-0.3-0.1-0.5-0.2-0.8-0.3c-0.5-0.2-1.1-0.3-1.6-0.4c-0.2,0-0.4-0.1-0.6-0.1c-0.1,0-0.3,0-0.4-0.1
		c-0.1,0-0.3,0-0.4,0c-2.6-0.3-5.5,0-8.8,0.9c-7.9,2.2-11.8,7.3-11.7,15l0.1,13.8l0.1,11.6l0.5,54.3H275l-0.6-61.2l-0.1-12.8
		l-0.1-11.2c0-0.9-0.3-1.8-0.9-2.5c-9.3-11.6-18.3-13.8-26.9-6.6c-0.3,0.3-0.7,0.6-1,0.9c-0.3,0.2-0.5,0.4-0.7,0.7l-0.3,0.3
		c-0.3,0.3-0.5,0.5-0.7,0.8c0,0,0,0,0,0.1c-0.3,0.3-0.6,0.6-0.8,1c-0.3,0.3-0.5,0.7-0.8,1c-0.2,0.3-0.4,0.6-0.6,0.9
		c-0.4,0.6-0.8,1.3-1.1,2c-0.1,0.2-0.2,0.3-0.2,0.5c-0.1,0.2-0.2,0.4-0.3,0.7c-0.1,0.2-0.2,0.4-0.3,0.7c-0.1,0.3-0.2,0.6-0.3,0.9
		c0,0,0,0,0,0c-0.2,0.6-0.3,1.2-0.5,1.8c-0.1,0.4-0.2,0.8-0.3,1.3c0,0.2-0.1,0.4-0.1,0.6c0,0.2-0.1,0.3-0.1,0.5c0,0.2,0,0.4-0.1,0.5
		c0,0.3-0.1,0.6-0.1,0.9c0,0.5-0.1,1-0.1,1.5v4.3l0,72.6h-35.9c0-23.6,0-47.4,0-71.3c0-0.5,0-1,0-1.5c0-0.5,0-0.9-0.1-1.4
		c0-1-0.1-1.9-0.2-2.8c0-0.4-0.1-0.8-0.1-1.1c0-0.3-0.1-0.6-0.1-0.9c-0.1-0.6-0.2-1.2-0.3-1.7c-0.1-0.3-0.1-0.6-0.2-0.8
		c-0.1-0.3-0.1-0.5-0.2-0.8c-0.1-0.2-0.1-0.4-0.2-0.6c-0.2-0.5-0.3-1.1-0.5-1.6c-0.1-0.2-0.1-0.4-0.2-0.6c-0.1-0.3-0.3-0.6-0.4-0.9
		c0,0,0-0.1-0.1-0.1c-0.1-0.3-0.3-0.6-0.5-0.9c0-0.1-0.1-0.1-0.1-0.2c-0.1-0.2-0.2-0.4-0.4-0.7c-0.1-0.1-0.2-0.3-0.3-0.4
		c-0.2-0.4-0.5-0.7-0.8-1.1c-0.1-0.2-0.3-0.4-0.5-0.6c0,0-0.1-0.1-0.1-0.1c-0.2-0.2-0.4-0.4-0.6-0.6c0,0-0.1-0.1-0.1-0.1
		c-0.2-0.2-0.4-0.4-0.7-0.6c0,0-0.1-0.1-0.1-0.1c-0.3-0.2-0.5-0.4-0.8-0.6c-0.3-0.2-0.6-0.4-0.9-0.6c0,0-0.1,0-0.1-0.1
		c-0.3-0.2-0.6-0.3-0.9-0.5c-0.3-0.1-0.6-0.3-0.9-0.4c-0.1,0-0.2-0.1-0.3-0.1c-0.3-0.1-0.6-0.2-0.9-0.3c0,0,0,0-0.1,0
		c-0.4-0.1-0.7-0.2-1.1-0.3c-0.3-0.1-0.6-0.1-0.9-0.2c-0.2-0.1-0.4-0.1-0.7-0.1c-0.3-0.1-0.6-0.1-0.9-0.1c-0.3,0-0.5-0.1-0.8-0.1
		c-0.1,0-0.3,0-0.4,0c-1.1-0.1-2.3,0-3.6,0.1c-0.3,0-0.6,0.1-0.8,0.1c-0.9,0.1-1.9,0.3-2.9,0.5c0,0-0.1,0-0.1,0
		c-0.3,0.1-0.6,0.1-0.9,0.2c-0.3,0.1-0.6,0.1-0.9,0.2c-0.4,0.1-0.8,0.2-1.1,0.3c-0.2,0.1-0.5,0.1-0.7,0.2c-0.2,0.1-0.5,0.1-0.7,0.2
		c-0.3,0.1-0.7,0.2-1,0.3c-0.4,0.1-0.8,0.3-1.1,0.4c-0.3,0.1-0.6,0.2-0.9,0.3c-0.3,0.1-0.7,0.3-1,0.4c-1.6,0.6-2.6,2.2-2.6,3.9
		l0.8,88.1c-59.1-3-48.5-50.7-52.6-92.4c-0.2-1.8-1.6-3.3-3.4-3.7c-37.4-6.5-60.2-37.8-55.5-68.8c0.5-3.5,1.4-7,2.7-10.5
		c3.2-8.9,8.9-17.5,17.3-25.2c1.3-1.2,1.7-3.2,0.9-4.8C32.6,204.5,61.5,97,148.7,40.7c1.7,3.2,2.6,7.2,1.2,10.8
		c-18.9,50.4-18,100.4,2.8,150.1c-12.4,3.8-21.8,11.1-28.3,21.8c-32.8,54.8,44.7,107,83.7,52.7c8.5,10,18.6,18,30.4,24.1
		c2,1,4.4,0.3,5.5-1.7c10.8-19.5,26.6-3.2,29.9,10.4l-16.5-14.4c-0.1-0.1-0.1-0.1-0.2-0.1c-0.1,0-0.1-0.1-0.2-0.1
		c-0.1-0.1-0.2-0.1-0.3-0.2c-0.1-0.1-0.2-0.1-0.3-0.2c-0.1-0.1-0.2-0.1-0.3-0.1c-0.1,0-0.2-0.1-0.3-0.1c-0.1,0-0.2-0.1-0.3-0.1
		c-0.3-0.1-0.6-0.1-0.9-0.1c-0.4,0-0.7,0.1-1.1,0.1c-0.2,0-0.4,0.1-0.6,0.2c-0.1,0-0.2,0.1-0.3,0.2c-0.3,0.2-0.6,0.4-0.9,0.6
		c-0.1,0.1-0.1,0.1-0.2,0.2c-0.1,0.1-0.1,0.2-0.2,0.2c-11.4,15.2-21.1,31.4-28.9,48.6c-16.6,36.7,30.8,19.1,49.2,20.7
		c5.9,0.5,11.3,0.2,15.9-1c7.8-1.9,9.7-6.4,5.9-13.4c-4.4-8.1-18.1-27.7-17.2-36c54,17.2,106,12.7,156.1-13.3
		C449.2,313.5,457,329.2,455.7,348z"/>
	<path class="st2" d="M208.1,276c-39,54.3-116.5,2.1-83.7-52.7c6.4-10.7,15.9-18,28.3-21.8C198.7,191.1,229.5,235,208.1,276z"/>
	<circle class="st2" cx="345.4" cy="249.5" r="49.5"/>
	<path class="st2" d="M273.8,308.9l2.4,5.1c-0.8,8.3,12.9,27.9,17.3,36c3.8,7,1.8,11.5-5.9,13.4c-4.7,1.2-10,1.5-15.9,1
		c-18.4-1.6-65.8,16-49.2-20.7c7.8-17.3,17.5-33.5,28.9-48.6c1.4-1.8,4-2.2,5.8-0.8c0.1,0,0.1,0.1,0.2,0.1L273.8,308.9z"/>
	<path class="st2" d="M275,502.8h-37l0-76.9c0-7,2.8-12.8,8.3-17.3c8.6-7.2,17.6-5,26.9,6.6c0.6,0.7,0.9,1.6,0.9,2.5L275,502.8z"/>
	<path class="st2" d="M345.9,502.1l-34.9,0.7l-0.8-79.8c-0.1-7.8,3.8-12.8,11.7-15c15.5-4.4,23.9,5.5,23.9,20.6
		C345.9,453.1,345.9,477.6,345.9,502.1z"/>
	<path class="st2" d="M202.1,502.8h-33.9l-0.8-88.1c0-1.7,1-3.2,2.6-3.9c20.9-8.2,32.1-0.9,32.1,20.6
		C202.1,455.4,202.1,479.2,202.1,502.8z"/>
	<path class="st3" d="M291.9,13c12.5,6.4,16.9,14.2,18.6,18.4c2.5,6.2,0.4,7.4,2.8,25.9c1.4,10.6,2.8,15.5,0.6,16.6
		c-2.8,1.4-7.3-0.3-12.4-7.1c-15.3-20.7-31.3-22.3-48.7-3.9c-3.1,3.3-3.7,7.5-2.3,10.9L284,152c2.1,5,2.9,10.2,1.4,13.7
		c-12.2,32.9-46.3-60.9-57-86c-2.3-5.4-6.8-9-9.9-8.1l-36,15.4c-3.3,1.4-4.1,6.7-1.7,12.1l0.4,0.8c5.7,10.9,4.7,20.3-2.1,28.6
		c-2.6,3.1-7.5,2.2-10.9-1.3c-0.2-0.4-1-1.1-1.1-1.5c-5.6-8.5-13-14.2-21.8-17.4c-4.6-1.5-9.1-1.6-12.7,0.5
		c-11.3,6.4-15.2,4.2-19.4,4.7c-5.8,0.7-14.3-1-25.6-11.7c9.7-15.1,35.8-51.5,85.2-74.1C226.1,3.2,274.6,9.8,291.9,13z"/>
	<g>
		<path class="st4" d="M218.2,279l0-59.3c0-0.2-0.2-0.3-0.4-0.5c-17.1-9.8-34.2-19.7-51.2-29.5c-0.2-0.1-0.3-0.1-0.5,0
			c-17.2,9.9-34.3,19.8-51.5,29.7l-0.1,0.1c-0.1,0-0.1,0.1-0.1,0.2l0,59.7l51.7,29.8c0.2,0.1,0.3,0.1,0.5,0
			c17.1-9.9,34.2-19.7,51.3-29.6C218.2,279.4,218.3,279.2,218.2,279z M166.8,215.8C166.7,215.8,166.7,215.8,166.8,215.8
			C166.7,215.8,166.7,215.8,166.8,215.8z M166.7,215.8C166.6,215.8,166.6,215.8,166.7,215.8C166.6,215.8,166.6,215.8,166.7,215.8z
			 M166.4,216.1c0,0,0-0.1,0-0.1C166.4,216.1,166.4,216.1,166.4,216.1z M166.5,215.9C166.5,215.9,166.5,215.9,166.5,215.9
			C166.5,215.9,166.5,215.9,166.5,215.9z M166.5,215.9C166.4,216,166.4,216,166.5,215.9C166.4,216,166.4,216,166.5,215.9
			C166.4,216,166.4,215.9,166.5,215.9z"/>
		<path class="st5" d="M166.4,189.7l-0.2,0.2c0,0.1-0.1,0.1-0.1,0.2v25.3c0,0.1-0.1,0.2-0.2,0.3L137,232.5c-0.1,0.1-0.2,0.2-0.2,0.3
			l-0.1,7.8l0-7.8c0-0.1-0.1-0.2-0.2-0.3c-7.3-4.2-14.5-8.4-21.8-12.5c-0.1-0.1-0.3-0.2-0.5-0.5c17.2-9.9,34.3-19.8,51.5-29.7
			C166,189.6,166.2,189.6,166.4,189.7z"/>
		<path class="st6" d="M166.4,189.7c17.1,9.8,34.2,19.7,51.2,29.5c0.2,0.1,0.4,0.3,0.4,0.5c-0.2,0-0.3,0-0.5,0.1
			c-7.3,4.2-14.6,8.4-22,12.7l-28.9-16.6c-0.2-0.1-0.3,0-0.4,0.1c0,0,0,0.1,0,0.2v66.4c0,0,0,0.1,0,0.1l0.1,0.5l-0.2,0l-29.2-16.8
			l-0.1-25.9l0.1-7.8c0-0.1,0.1-0.2,0.2-0.3l28.9-16.7c0.1-0.1,0.2-0.2,0.2-0.3v-25.3c0-0.1,0-0.1,0.1-0.2L166.4,189.7z"/>
		<path class="st7" d="M195.5,232.5c-0.2,0.4,0,0.9,0,1.3c0,10.8-0.1,21.7-0.1,32.5l-29.1,16.9l-0.1-0.5c0,0,0-0.1,0-0.1v-66.4
			c0-0.2,0.1-0.3,0.3-0.3c0.1,0,0.1,0,0.2,0L195.5,232.5z"/>
		<path class="st8" d="M114.4,219.4c0.2,0.3,0.4,0.4,0.5,0.5c7.2,4.1,14.5,8.3,21.8,12.5c0.1,0.1,0.2,0.2,0.2,0.3l0,7.8l0.1,25.9
			c-0.1,0-0.2,0-0.3,0.1c-7.4,4.3-14.8,8.6-22.3,12.9l0-59.7C114.2,219.6,114.3,219.6,114.4,219.4L114.4,219.4z"/>
		<path class="st5" d="M218,219.7l0,59.3c-7.6-4.1-15.1-8.3-22.6-12.7c0-10.8,0.1-21.7,0.1-32.5c0-0.4-0.2-0.9,0-1.3
			c7.4-4.3,14.7-8.5,22-12.7C217.7,219.7,217.8,219.7,218,219.7z"/>
		<path class="st8" d="M195.4,266.3c7.4,4.4,15,8.6,22.6,12.7c0.1,0.2,0,0.4-0.3,0.5c-17.1,9.9-34.2,19.7-51.3,29.6
			c-0.2,0.1-0.3,0.1-0.5,0c0.2-0.3,0.2-0.5,0.2-0.6c0-8.4,0-16.9-0.1-25.3l0.2,0L195.4,266.3z"/>
		<path class="st4" d="M136.9,266.4l29.2,16.8c0.1,8.4,0.1,16.9,0.1,25.3c0,0.1-0.1,0.3-0.2,0.6l-51.7-29.8
			c7.5-4.3,14.9-8.6,22.3-12.9C136.6,266.4,136.7,266.4,136.9,266.4z"/>
	</g>
	<g>
		<path class="st4" d="M397.5,279.1l0-59.5c0-0.2-0.2-0.3-0.4-0.5c-17.1-9.9-34.2-19.7-51.3-29.6c-0.2-0.1-0.3-0.1-0.5,0
			c-17.2,9.9-34.4,19.8-51.6,29.8l-0.1,0.1c-0.1,0-0.1,0.1-0.1,0.2l0,59.8l51.8,29.9c0.2,0.1,0.3,0.1,0.5,0
			c17.1-9.9,34.3-19.8,51.4-29.7C397.5,279.4,397.6,279.2,397.5,279.1z M345.9,215.8C345.9,215.8,345.9,215.8,345.9,215.8
			C345.9,215.8,345.9,215.8,345.9,215.8z M345.9,215.8C345.8,215.8,345.8,215.8,345.9,215.8C345.8,215.8,345.8,215.8,345.9,215.8z
			 M345.6,216.1c0,0,0-0.1,0-0.1C345.6,216,345.6,216,345.6,216.1z M345.7,215.8C345.7,215.8,345.7,215.8,345.7,215.8
			C345.7,215.8,345.7,215.8,345.7,215.8z M345.6,215.9C345.6,215.9,345.6,215.9,345.6,215.9C345.6,215.9,345.6,215.9,345.6,215.9
			C345.6,215.9,345.6,215.9,345.6,215.9z"/>
		<path class="st5" d="M345.6,189.6l-0.2,0.2c0,0.1-0.1,0.1-0.1,0.2v25.4c0,0.1-0.1,0.2-0.2,0.3l-29,16.7c-0.1,0.1-0.2,0.2-0.2,0.3
			l-0.1,7.8l0-7.8c0-0.1-0.1-0.2-0.2-0.3c-7.3-4.2-14.6-8.4-21.8-12.6c-0.1-0.1-0.3-0.2-0.5-0.5c17.2-9.9,34.4-19.8,51.6-29.8
			C345.2,189.5,345.4,189.5,345.6,189.6z"/>
		<path class="st6" d="M345.6,189.6c17.1,9.9,34.2,19.7,51.3,29.6c0.2,0.1,0.4,0.3,0.4,0.5c-0.2,0-0.3,0-0.5,0.1
			c-7.3,4.2-14.7,8.4-22,12.8l-29-16.6c-0.2-0.1-0.3,0-0.4,0.1c0,0,0,0.1,0,0.2v66.6c0,0,0,0.1,0,0.1l0.1,0.5l-0.2,0L316,266.5
			l-0.1-25.9l0.1-7.8c0-0.1,0.1-0.2,0.2-0.3l29-16.7c0.1-0.1,0.2-0.2,0.2-0.3v-25.4c0-0.1,0-0.1,0.1-0.2L345.6,189.6z"/>
		<path class="st7" d="M374.8,232.5c-0.2,0.4,0,0.9,0,1.3c0,10.9-0.1,21.7-0.1,32.6l-29.2,16.9l-0.1-0.5c0,0,0-0.1,0-0.1v-66.6
			c0-0.2,0.1-0.3,0.3-0.3c0.1,0,0.1,0,0.2,0L374.8,232.5z"/>
		<path class="st8" d="M293.5,219.4c0.2,0.3,0.4,0.4,0.5,0.5c7.2,4.1,14.5,8.3,21.8,12.6c0.1,0.1,0.2,0.2,0.2,0.3l0,7.8l0.1,25.9
			c-0.1,0-0.2,0-0.3,0.1c-7.4,4.3-14.8,8.6-22.3,12.9l0-59.8C293.3,219.6,293.4,219.5,293.5,219.4L293.5,219.4z"/>
		<path class="st5" d="M397.3,219.7l0,59.5c-7.6-4.1-15.2-8.4-22.6-12.8c0-10.9,0.1-21.7,0.1-32.6c0-0.4-0.2-0.9,0-1.3
			c7.4-4.3,14.7-8.6,22-12.8C397,219.7,397.1,219.7,397.3,219.7z"/>
		<path class="st8" d="M374.6,266.4c7.4,4.4,15,8.7,22.6,12.8c0.1,0.2,0,0.4-0.3,0.5c-17.1,9.9-34.3,19.8-51.4,29.7
			c-0.2,0.1-0.3,0.1-0.5,0c0.2-0.3,0.2-0.5,0.2-0.6c0-8.5,0-16.9-0.1-25.4l0.2,0L374.6,266.4z"/>
		<path class="st4" d="M316,266.5l29.2,16.8c0.1,8.5,0.1,16.9,0.1,25.4c0,0.1-0.1,0.3-0.2,0.6l-51.8-29.9
			c7.5-4.3,14.9-8.6,22.3-12.9C315.8,266.5,315.9,266.4,316,266.5z"/>
	</g>
	<path class="st3" d="M396.6,416.8c-0.5,30.4,1.3,61.6-22.2,76.6l-1.9-15.2c-0.9-7.3-3.5-8.6-7.9-3.8c-19.7,21.3-13.5-2.8-18.7-12.4
		v0c-2-3.8-5.9-5.3-13.8-0.7c-3.2,1.8-7,0.6-8.7-2.7c0-0.2-0.2-0.3-0.2-0.5c-2.8-6.7-7-10-12.7-9.6c-1.2,0.1-2.4,0.3-3.7,0.7
		l-32.3-7.6l-3.4-0.8l-32.9-10.6l-25.9-8.3l-12.7-5.1l-20.3-8.2c-0.2-0.1-0.4-0.2-0.7-0.3c-31.1-14.3-61.1-30.7-90-49
		c-3.5-2.1-7.2-4.6-10.7-6.9c-7.1-4.7-14.1-9.6-21.1-14.5c0.5-3.5,1.4-7,2.7-10.5c9.4,6.7,19,13.1,28.6,19.2
		c3.7,2.3,7.5,4.6,11.1,6.9c22.9,13.7,46.9,26,71.6,36.8c9.9,6.7,20.8,11,32.4,12.8c11,6,23.1,10.9,36.3,14.8
		c8.3,2.5,17.1,4.6,26.3,6.3c2.3,1.9,5.2,3.5,8.5,4.7c6.5,2.4,14.9,3.5,25.2,3.3c2.7,2.4,6.3,4,10.8,4.8c2.1,0.4,4.5,0.6,7.1,0.6
		c1.8-0.2,3.7-1.5,4.6-3.7c2.8-6.7,7-11.9,13-15.6c1.7-1.1,3.7-1.1,4.9-0.2c1.8,1.5,3.5,2.8,5.4,4.1c8.8,6,18.5,9.5,29,10.4
		c0.9,0.1,2.9-1.1,5-3.2C384.5,424.2,390.3,420,396.6,416.8z"/>
	<path class="st3" d="M397.5,416.3c-0.1,0-0.1,0-0.1,0.1v-0.1H397.5z"/>
</g>
</svg>
