<svg xmlns="http://www.w3.org/2000/svg" xml:space="preserve" id="Capa_1" x="0" y="0" style="enable-background:new 0 0 512 512" version="1.1" viewBox="0 0 512 512"><style>.st0{fill:#955205}.st7{fill:#dabb9f}.st8{fill:#b09780}</style><path d="M495.9 51.5c-4.7-4.7-9.5-9.5-14.3-14.2-7.3-7.4-14.7-14.8-22.1-22.2-6.8-6.7-11.7-5.8-18.4.8-4.2 4.1-8.4 8.3-12.6 12.4-8 7.5-22.1 17.5-15.1 28.1-50.9 51.1-81.9 82.2-93.2 93.2-8.2 8.1-18.4 13.3-30.5 15.5-16.9 1.9-33.8 3.9-50.7 5.9-12.7 1.5-21.8 3.3-27.3 5.4-22.2 8.4-41.4 30.9-55.2 45.8-29.5 28.8-58.6 57.9-87.4 87.4-16.7 16.2-33.2 32.5-49.4 49-14.2 14.6-10.5 29.1 2.3 41.8 15.2 15.1 30.3 30.2 45.5 45.3 14.4 14.5 28.8 29 43.3 43.4 9.6 9.6 19.2 15.8 32.2 10.2 3.7-1.6 9-5.8 15.9-12.8 52.9-52.8 105.7-105.7 158.5-158.6 14.3-14.3 20.2-29 22.7-49.5 2.2-17.8 4.4-35.7 6.6-53.5 1.6-13.5 7.2-25 16.8-34.6 30.3-30.3 60.7-60.6 91-90.9.4-.4 1.1-.5 1.6-.3 4.9 2.6 9.5 1.9 13.8-2.2 4.5-4.3 9-8.7 13.3-13.2 4.7-4.9 9.4-9.7 14.2-14.4 6.6-6.4 4.2-12-1.5-17.8z" class="st0"/><path d="M481.6 37.3c-2.2 5.8-3.7 9.2-4.6 10.1-4.8 4.9-9.6 9.7-14.6 14.5l-.6-.4-33.4-33.2c4.2-4.1 8.4-8.2 12.6-12.4 6.7-6.6 11.6-7.5 18.4-.8 7.5 7.4 14.9 14.8 22.2 22.2z" style="fill:#392300"/><path d="m428.4 28.4 33.4 33.2c-3.6 4.7-7.6 9-11.9 13-5.4 5.1-11 6.8-16.8 1.4-4.8-4.4-11.4-11-19.8-19.6-7-10.5 7.1-20.5 15.1-28z" class="st0"/><path d="M481.6 37.3c4.8 4.7 9.6 9.5 14.3 14.2 5.7 5.8 8.2 11.4 1.7 17.7-4.8 4.7-9.6 9.5-14.2 14.4l-21-21.7c4.9-4.8 9.8-9.6 14.6-14.5.9-.9 2.4-4.2 4.6-10.1z" style="fill:#573500"/><path d="M413.4 56.5c8.5 8.6 15.1 15.1 19.8 19.6 5.8 5.4 11.4 3.6 16.8-1.4 4.3-4 8.2-8.4 11.9-13l.6.4 21 21.7c-4.3 4.5-8.7 8.9-13.3 13.2-4.3 4.1-8.9 4.8-13.8 2.2-.5-.3-1.2-.2-1.6.3-30.4 30.3-60.7 60.6-91 90.9-9.6 9.6-15.2 21.1-16.8 34.6-2.2 17.9-4.4 35.7-6.6 53.5-2.6 20.6-8.5 35.2-22.7 49.5-52.8 52.9-105.6 105.8-158.5 158.6-6.9 6.9-12.2 11.2-15.9 12.8-13 5.6-22.6-.5-32.2-10.2-14.4-14.4-28.9-28.9-43.3-43.4l2.1-1.8c.3-.3.8-.4 1.2-.3 9.2 1.9 17-.2 23.2-6.4 16.6-16.5 33.1-33.1 49.6-49.6.2-.2.5-.4.8-.4.5-.1 1-.3 1.4-.6 11.5 11.4 23.9 29.7 41.3 12.2 19.6-19.7 39.3-39.3 59.1-58.8 16.6-16.4-2.6-29.8-13.4-41 8-8.4 16.1-16.7 24.3-25 13.2-13.3 21.8-25.7 24.7-42.8 1.7-10.1 4-29 6.8-56.8 0-.5.4-2 1-4.4.4-1.5.5-3 .2-4.6 12.1-2.3 22.3-7.5 30.5-15.5 10.9-11.4 41.9-42.4 92.8-93.5z" style="fill:#7f4705"/><path d="M289.7 165.3c.3 1.6.2 3.1-.2 4.6-.6 2.4-1 3.9-1 4.4-2.8 27.8-5.1 46.7-6.8 56.8-2.9 17.2-11.5 29.5-24.7 42.8-8.2 8.3-16.3 16.6-24.3 25l-.6-.3-75.6-76.2c13.8-14.8 33-37.4 55.2-45.8 5.5-2.1 14.6-3.9 27.3-5.4 16.9-2.1 33.8-4 50.7-5.9z" class="st0"/><path d="m156.5 222.3 75.6 76.2C203.5 328 174.5 357 145 385.6l-75.9-75.9c28.8-29.5 57.9-58.6 87.4-87.4z" style="fill:#d4b488"/><path d="m232.1 298.5.6.3c10.9 11.2 30.1 24.6 13.4 41-19.8 19.5-39.5 39.1-59.1 58.8-17.4 17.5-29.8-.8-41.3-12.2l-.7-.9c29.5-28.5 58.5-57.5 87.1-87z" style="fill:#c8a472"/><path d="m69.1 309.7 75.9 75.9.7.9c-.4.4-.8.6-1.4.6-.3 0-.6.2-.8.4l-49.6 49.6c-6.2 6.2-14 8.4-23.2 6.4-.4-.1-.9 0-1.2.3l-2.1 1.8c-15.2-15.1-30.3-30.2-45.5-45.3-12.8-12.8-16.5-27.2-2.3-41.7 16.4-16.4 32.9-32.7 49.5-48.9z" class="st0"/><path d="M185.5 348.5c9.5-3.3 16.8-8.9 21.9-17 14.9-23.6 1.9-54.4-25.3-60.5-20.5-4.4-39.9 6.8-46.7 26.5-.1.3-.5.6-.8.6-11.1-.5-16 11.2-9.8 19.9.2.3.2.7 0 1-5.4 6.5-13.7 11.8-5.7 20.7l12.4-12.7c.2-.2.6-.3.9-.2 4.2 1.8 4.7 4.5 1.6 7.5l-10.2 10.2 5.1 5.1 11-11c1-1 2.2-1.4 3.6-1.3 2.3.2 3.2 1.8 2.9 4.8 0 .2-.1.4-.2.5l-12 12.3 5.1 5.1 11.3-11.5c1.1-1.1 2.4-1.3 3.8-.5 2.8 1.6 2.6 4.2.5 6.3l-10.5 10.5c8.8 7.2 14.2-.1 20.3-5.8.3-.3.7-.3 1-.1 5.8 4.1 11.2 4 16.3-.5 3-2.3 4.1-5.6 3.5-9.9zm-.4-51.4c3.2-2.9 5.3-1.7 8.3.9 4.9 4.3 11 3.3 17.1 3.2.3 0 .5.1.6.3.5.6.5 1.2.2 1.9-.1.3-.4.4-.7.5l-3.1.2c-.4 0-.7.3-.8.7-.4 3.9 0 8.3-5.3 8.8-1.6.2-6.4-1.6-3.9-3.4.2-.1.4-.2.6-.1 2.2.2 5 2.5 5.7-1.5.2-1.3.3-2.6.1-3.8-.1-.4-.5-.7-.9-.7-4.8.3-8.9-1.3-12.2-4.8-1.2-1.2-2.4-1.3-3.7-.2-2.8 2.3-5.3 4.7-7.6 7.4-.9 1.1-2 1.1-2.6-.5-.1-.3 0-.6.2-.8 2.5-3 5.2-5.6 8-8.1zm-28 16c-13.3 2.2-16.9-16.3-4.4-19.4 2.4-.6 4.8-.3 7.1.9 8 5 6.2 15.7-2.7 18.5zm-1.2 23.8c-.8-.5-1.6-1.2-2.4-2.1-2.4-2.8-11.7-7.1-4.1-10 3.6-1.3 7.3-2.3 11.1-2.8h.2c.1 0 .3.1.4.1l.3.3v.4l.3 4.4-.4 1.1c-1.3 1.1-2.1 5.8-2.7 7.6-.4 1.4-1.3 1.8-2.7 1zm17.5-1c-3.9-3.9-3.9-10.2 0-14.1s10.2-3.9 14.1 0c3.9 3.9 3.9 10.2 0 14.1s-10.2 3.9-14.1 0z" style="opacity:.25;enable-background:new"/><path d="m159 319.2-.3-.3c.2.1.3.2.3.3z"/><circle cx="146.5" cy="452.2" r="15.8" class="st7"/><circle cx="146.5" cy="452.2" r="11.2" class="st8"/><circle cx="122.5" cy="461.4" r="6.7" class="st7"/><circle cx="122.5" cy="461.4" r="4.7" class="st8"/><circle cx="173.9" cy="428.1" r="6.7" class="st7"/><circle cx="173.9" cy="428.1" r="4.7" class="st8"/><circle cx="122.5" cy="445.6" r="4.7" class="st7"/><circle cx="122.5" cy="445.6" r="3.3" class="st8"/><circle cx="188.9" cy="423.4" r="4.7" class="st7"/><circle cx="188.9" cy="423.4" r="3.3" class="st8"/></svg>