<svg xmlns="http://www.w3.org/2000/svg" xml:space="preserve" id="Capa_1" x="0" y="0" style="enable-background:new 0 0 512 512" version="1.1" viewBox="0 0 512 512"><style>.st0{fill:#ff4d4d}.st1{fill:#ea365d}.st2{fill:#ffad42}.st3{fill:#ffe257}.st4{fill:#5cc67a}</style><path d="M256 272.9V331h138.6s-9.8-128.1 75.2-166.7c3.2-10.2-24.5-27.9-61-35.5-63.3-13.2-152.8 4.1-152.8 144.1z" class="st0"/><path d="M341.8 330.9h52.8s-9.8-128.1 75.2-166.7c3.2-10.2-24.5-27.9-61-35.5-63.5 14.1-86.5 123.8-67 202.2z" class="st1"/><path d="M256 272.9V331H117.4s9.8-128.1-75.2-166.7c-3.2-10.2 24.5-27.9 61-35.5 63.3-13.2 152.8 4.1 152.8 144.1z" class="st2"/><path d="M170.2 330.9h-52.8s9.8-128.1-75.2-166.7c-3.2-10.2 24.5-27.9 61-35.5 63.5 14.1 86.6 123.8 67 202.2z" class="st3"/><path d="M469.8 206.1c-84.9 38.6-75.2 166.7-75.2 166.7H117.4s9.8-128.1-75.2-166.7C33.4 178.3 256 94 256 314.7c0-154.4 108.9-159.5 171.4-139.1 26.8 8.7 45 22.2 42.4 30.5z" class="st3"/><path d="M256 314.7v58.1H117.4s9.8-128.1-75.2-166.7c-3.2-10.2 24.5-27.9 61-35.5 63.3-13.2 152.8 4.1 152.8 144.1z" class="st0"/><path d="M170.2 372.8h-52.8s9.8-128.1-75.2-166.7c-3.2-10.2 24.5-27.9 61-35.5 63.5 14.1 86.6 123.8 67 202.2z" class="st1"/><path d="M427.4 175.6C288.4 195.7 256 314.7 256 344.3v-29.6c0-154.4 108.9-159.5 171.4-139.1z" class="st2"/><circle cx="485.9" cy="206.1" r="22" class="st4"/><circle cx="26.1" cy="206.1" r="22" class="st4"/><circle cx="35" cy="157.4" r="15.3" class="st4"/><circle cx="474.4" cy="157.4" r="15.3" class="st4"/><path d="M443.2 287.6v2.1c-14.7 30.6-29.3 61.2-43.9 91.9-1.9 4-6.4 5.2-14.3 5.2-43 .1-86.1 0-129-.1v-127c5.9 0 8.5 1.7 11.2 4.5 18.1 18.9 36.1 37.9 54 56.8.6.7 1.2.7 1.8 0 3.3-3.5 6.7-7 10-10.5 1.6-1.8 3.2-2.9 4.7-3.4 6.9-2.6 13.8-.3 17.2 3.1 4.3 4.4 8.4 8.7 12.4 12.9.2.2.8.4 1.3.2.1 0 .3-.1.4-.1 17.9-12.5 35.8-25 53.6-37.5 6.4-4.5 17.9-3.6 20.6 1.9z" class="st0"/><path d="M256 259.8v127h-.2c-43-.1-86-.1-129-.1-11.6 0-12.6-2.3-15.2-7.8C97.2 349 83 319.1 68.8 289.2v-1.3c1.4-3.8 9.1-6.2 15.6-4.5 1.8.5 3.9 1.6 6.5 3.4 17.6 12.2 34.9 24.3 52.2 36.4.3.2 1 .2 1.4.1.1-.1.2-.1.3-.2 4.3-4.5 8.6-9 13-13.5 3.4-3.5 10.5-5 16.8-2.5 1.6.7 3.2 1.8 4.5 3.2 3.4 3.6 6.8 7.2 10.1 10.7.6.7 1.2.7 1.8 0 18.1-19 36.2-38 54.4-57 2.6-2.6 5.1-4 10.6-4.2z" class="st3"/></svg>