<svg xmlns="http://www.w3.org/2000/svg" xml:space="preserve" id="Layer_1" x="0" y="0" style="enable-background:new 0 0 375 375" version="1.1" viewBox="0 0 375 375"><style>.st1{fill:#aaa9b3}.st2{fill:#896746}.st3{fill:#85848c}.st4{fill:#c2c1cc}</style><path d="M335.3 66H39.6c-19 0-34.3 15.4-34.3 34.3v215.3h365.5V101.4c-.1-19.5-15.9-35.4-35.5-35.4z" style="fill:#a07852"/><path d="m93.5 66.2.2 114.8-47.4-.3-.1-15.4V86.5l.3-20.1c2-6 5.9-7.1 12.2-7.1h22.9c6.1-.1 9.9 1.2 11.9 6.9zM329.5 66.3v98.9l-.1 15.5H282l.2-114.7c2.1-5.4 5.8-6.7 11.6-6.7H317c6.4-.1 10.1 1.2 12.5 7z" class="st1"/><path d="M115.8 66v19.5c0 .6.4 1 1 1h106c8.4 0 8.7 11-1.3 11H116.8c-.6 0-1 .4-1 1v21c0 .6.4 1 1 1 42-.1 84-.1 126.1-.1 0 0 2.4.1 7.2.2 2.4.1 4.8 0 7.3-.2.5 0 .9-.5.9-1V98.5c0-.6-.4-1-1-1-3.5.1-9.5.8-12.2-1.3-3.8-3-1.2-9.8 3.9-9.7 3.5 0 6.3 0 8.4-.1.5 0 1-.5.9-1l-.2-18.2c0-.5-.3-.9-.8-1-.2 0-.4-.1-.6-.2h25.5l-.2 114.8v106.4c-7.7 3.5-7.8 7.3-.3 11.5.4 5.5.4 11.2 0 17h-28c.5-5.1 0-11.8 0-15.3V195.5c0-.6-.4-1-1-1l-34.2.4-.1-29.3h38.8c.6 0 1-.4 1-1v-31.8c0-.6-.4-1-1-1l-140.5-.1c-.6 0-1 .4-1 1v31.7c0 .6.4 1 1 1 13.6 0 27.1.1 40.5.2l-.1 28.5-34.5.4c-.6 0-1 .5-1 1 .2 40.1-.1 80.1.1 120.2l-27.9.3v-17.4c7.2-1.4 7.5-10.4.2-11.3l-.3-81.5V181l-.2-114.8 22.3-.2zM367.4 85.8c2 .2 3.7 1 5 2.2 3.4 3.1 2.1 7.4-1.7 9.5l-41.2.2V86.5h35.6c.9 0 1.4-.4 2.3-.7zM8.1 86.1c12.7.5 25.4.6 38.1.4v11.2c-13.7-.4-27.3-.3-41 .1-3.8-1.6-5.2-4.2-4.1-7.6 1.1-3.2 3.9-4 7-4.1zM370.6 120.2c5 4 4.9 7.9-.3 11.8-13.6-.5-27.2-.4-40.9.1v-11.6c13.9.3 27.6.2 41.2-.3zM5.3 120.2c3.5.5 7 .7 10.7.6 10.1-.2 20.1-.2 30.2 0v10.8l-39.9.2c-.4 0-.7.2-.9.5l-.1.2c-.4-1.6-3.6-1.7-4.2-4.1-1.1-3.8.3-6.6 4.2-8.2zM46.2 165.2l.1 15.4V194l-41 .4v-29l40.9-.2zM329.5 165.2l40.9.2v29.2c-13.6-.4-27.3-.4-40.9 0l-.1-14 .1-15.4z" class="st2"/><path d="m46.3 180.7 47.4.3v24.8l-47.3-.2-.2-11.5.1-13.4zM329.5 180.8l.1 14-.1 11.4c-15.8-.5-31.7-.6-47.4-.1v-25.2l47.4-.1z" class="st3"/><path d="m46.4 205.6 47.3.2.3 81.5H46.5c-.4-27.4-.4-54.6-.1-81.7zM329.5 206.1v80.8c-1.2.8-2.1.3-3.2.3H282V206c15.8-.5 31.6-.4 47.5.1z" class="st1"/><path d="M329.5 287c7.5 3.9 7.5 7.8 0 11.8-15.9-.5-31.9-.5-47.8-.1-7.5-4.2-7.4-8 .3-11.5 14.8 0 29.5.1 44.3 0 1.1 0 2 .6 3.2-.2zM46.5 287.2H94c7.3.9 7 9.9-.2 11.3l-47.3.1c-7.1-1.3-7.9-10.2 0-11.4z" class="st4"/><path d="M93.7 298.6V316l-47.7-.3.4-17 47.3-.1zM281.7 298.7c15.9-.4 31.8-.4 47.8.1l.2 17.2-48-.2c.5-5.9.5-11.6 0-17.1z" class="st1"/><circle cx="189" cy="179.9" r="52.7" class="st1"/><circle cx="188.8" cy="179.9" r="47" style="fill:#919099"/><path d="M189.8 150.6c-.3-.4-.8-.6-1.3-.3l-.3.3c-3.9 5.7-6.4 12-7.4 18.8-.1.3-.3.6-.5.7l-2.4 1c-.5.2-1 0-1.2-.5-.1-.1-.1-.3-.1-.4 1-10.3 4.9-19.4 11.7-27.2.3-.4.9-.4 1.3-.1l.1.1c3.1 3.6 5.6 7.5 7.6 11.8.5 1.2.2 1.6-1 1.3l-3.3-.9c-.2-.1-.4-.2-.5-.4l-2.7-4.2z" class="st3"/><path d="M200.6 163.1c-4.6-2.9-9.5-4-14.9-3.2-1.1.2-1.5-.3-.9-1.3l1-1.9c.1-.3.4-.5.7-.5 6.4-.8 12.1.7 17 4.5 5.9 4.6 9.1 10.6 9.5 18 .1 1.5-.4 1.7-1.5.7-1.4-1.3-2.4-2.8-3-4.6-1.6-4.7-3.9-9.1-7.9-11.7zM171.9 169.2c-4.7 8-4.2 15.8 1.5 23.3.7.9.5 1.4-.7 1.4l-2.4.1c-.3 0-.6-.1-.8-.4-8.8-12.4-3.8-27.2 7.8-34.9.1-.1.3-.1.4 0l.2.2c.1.1.1.2.1.3l-1.3 4c0 .1-.1.2-.2.3-1.6 1.9-3.4 3.7-4.6 5.7z" class="st3"/><path d="M200.3 164.2c.2.1.3.3.4.6 2.1 9.8-.2 18.3-6.7 25.5-.3.3-.7.4-1.1.2l-1.8-1c-.4-.2-.6-.8-.4-1.2 0-.1.1-.2.2-.2 4.6-4.5 6.9-10.1 6.7-16.8 0-1.7-.6-4.4-1.6-8.3-.3-1.2.1-1.4 1.1-.8l3.2 2z" class="st3"/><path d="M196.5 173.5c-.1.5-.6.8-1.1.7h-.1c-2.3-.7-4.6-1-7-1-2.4 0-4.8.6-7.2 1.6-3.9 1.7-7.2 4.2-9.9 7.4-.8 1-1.2.8-1.3-.5l-.1-3.7c0-.3.1-.5.3-.7 7.2-6.7 15.7-9 25.4-7 .3.1.5.2.6.5.6.9.7 1.8.4 2.7zM214.7 193.7c-3-6.1-7.1-11.4-12.4-15.8-.2-.2-.3-.5-.3-.8l.2-2.7c.1-1.1.6-1.3 1.4-.7 8.3 6.3 14.3 14.3 18 24.1.2.5-.1 1-.5 1.2-.1 0-.2 0-.2.1-4.8.4-9.7.5-14.6.3-1.4-.1-1.6-.6-.6-1.6l2.4-2.3c.2-.2.4-.2.6-.3l5.1-.2c.5 0 .9-.4.9-.9.1-.1.1-.3 0-.4z" class="st3"/><path d="M189.9 189.9c2.7 1.9 6 3.2 9.9 4 1.1.2 1.2.7.5 1.5s-1.6 1.3-2.6 1.6c-1 .3-2.3.1-3.8-.5-8.2-3.2-13.6-9.1-16.3-17.7-.1-.4 0-.8.4-1l1.8-1.2c.4-.3 1-.2 1.3.3.1.1.1.2.1.3 1.2 5.3 4.1 9.6 8.7 12.7zM164 195.1c6.8.5 13.5-.5 19.9-2.9.3-.1.6-.1.8.1l2.3 1.4c.4.3.6.8.3 1.2l-.3.3c-1 .7-2 1.2-3.1 1.6-8.8 2.9-17.7 3.6-26.9 2.2-.5-.1-.8-.5-.8-1 0-.1 0-.1.1-.2 1.9-4.5 4.2-8.8 7-12.8.8-1.1 1.3-1 1.6.3l.9 3.6c.1.2 0 .5-.1.7l-2.5 4.2c-.3.4-.1 1 .3 1.2.2 0 .3.1.5.1z" class="st3"/><path d="M187.8 199.9c9.7 0 16.4-4.3 20.1-12.8.4-1 .9-1 1.6-.2l1.2 1.7c.2.3.2.6.1.9-6 13-20 17.3-32.7 11.6-.2-.1-.4-.2-.5-.3-1.3-.9-1.2-1.4.4-1.6.7-.1 1.4-.2 2.1-.4 2.6-.5 5.4 1.1 7.7 1.1z" class="st3"/></svg>