<svg xmlns="http://www.w3.org/2000/svg" xml:space="preserve" style="enable-background:new 0 0 512 512" viewBox="0 0 512 512"><path d="M506.9 255c0 137.9-112 251.8-249.9 251.8-124.3 0-229.1-92.6-248.6-211.8 4.8-.7 9.5-1.3 14.3-1.9 4.4-.5 7.5-1.6 10.8-4 1-.7 2.1-.9 3.3-.6 3 .8 5.7 2 8.3 3.6 2.2 1.4 4.4 3.4 6.6 5.5 3.1 3.1 6.1 6.4 8.8 8.2 4.8 3.3 10.2 4.8 16.2 4.6 2.9-.1 6.9-1.7 10.2-1.2 5.5.8 8 4.5 12.6 6.8 1.4.7 2.1.4 2.1-.9.1-2.1.2-4.2.5-6.3 1.5-11.9 11.6-17.6 22.1-20.4.3-.1.5-.2.6-.5.7-2-.8-2.5-2.5-2.5-10.2-.1-21.9 1.8-27.2 11.7-.7 1.3-1.4 2.5-2 3.7-.4.7-1.2 1.2-2 1.1-5.7-.7-10.5.3-16 1.4-7.5 1.5-5.3-6.6-6.6-10.2-.7-1.9-1.9-3.5-3.6-4.7-5.6-4-11.1-8.1-16.5-12.4-1.4-1.1-2.8-2.2-4.2-3.4-.4-.3-.6-.9-.4-1.4.1-.2.4-.7.7-.8 1.2-.6 2.3-1.3 3.3-2 3.8-2.7 6.6-6.2 9.6-10.2 9.4-12.6 27.3-13.5 41.5-13.9 3.3-.1 2.9-2.5 2-4.7-10.1-24.4 18.8-15.8 21.9-33.5 0-.3-.2-.6-.4-.2-5.2 8-12.2 10.3-21.1 13.9-8.1 3.2-7 10-5.8 17 .3 2.1-.5 3.2-2.7 3.2-16.4.1-32.1 1-43.2 14.7-.7.9-1.4 1.7-2.1 2.5-4.9 5.1-10.2 7.7-18.1 6.3-2.1-.4-3 .5-2.5 2.6 1.2 5.5 4.1 14.8-4 16.3-4.8.9-10.9 0-15.9 1.3-1.1-9.4-1.7-19-1.7-28.6-.2-138 113.8-250 251.7-250 28.8 0 56.4 4.9 82.2 13.9-3.7 3.5-7.4 7.2-11 11.6-8.5 10.3-15.1 15.3-28 17.9-2.1.4-2.5 1.4-1.2 2.9.2.2.5.4.8.5 3.8.7 7.2 2.2 10.3 4.4.8.6.7 1-.2 1.2-9.5 2.2-18.1 6.4-25.8 12.7-6 4.9-3.2 10.2 1.9 14.2.3.2.6.3.9.2 1.2-.6-6.9-8.5-1.4-12.2 10.4-7.1 22.4-12.1 35.2-10 1.4.2 9.1 1.3 6.5-1.2-1.2-1.2-2.9-2.3-4.8-3.5-2.5-1.6-5.3-3.4-7.4-5.5-.1-.1-.1-.1-.1-.2-.2-.4 0-.9.4-1.1 6.8-3.4 13-7.7 18.5-12.9.5-.5.7-.4.6.3-.8 5.7 1.5 10.5 1.8 16.2 0 .5.2.7.5.5 1.6-1 2.5-2.5 2.5-4.5.1-1.8.5-2 1.3-.3 3.2 6.6 6.8 13 10.5 19.4 5.2 9.1 10.6 18.2 15.3 27.5.7 1.4 1.1 1.3 1.3-.2.2-1.9.1-3.3-.8-5.1-3.2-6.3-6.5-12.6-9.7-18.9-2.3-4.6-4.6-9.1-6.9-13.7-2.5-5-5.7-12.2-6.4-16.5-1.3-8-.3-15.1 2.9-21 93.6 36.1 160.2 127 160.2 233.3z" style="fill:#96773d"/><path d="M506.9 255c0 137.9-112 251.8-249.9 251.8V5.1c28.8 0 56.4 4.9 82.2 13.9-3.7 3.5-7.4 7.2-11 11.6-8.5 10.3-15.1 15.3-28 17.9-2.1.4-2.5 1.4-1.2 2.9.2.2.5.4.8.5 3.8.7 7.2 2.2 10.3 4.4.8.6.7 1-.2 1.2-9.5 2.2-18.1 6.4-25.8 12.7-6 4.9-3.2 10.2 1.9 14.2.3.2.6.3.9.2 1.2-.6-6.9-8.5-1.4-12.2 10.4-7.1 22.4-12.1 35.2-10 1.4.2 9.1 1.3 6.5-1.2-1.2-1.2-2.9-2.3-4.8-3.5-2.5-1.6-5.3-3.4-7.4-5.5-.1-.1-.1-.1-.1-.2-.2-.4 0-.9.4-1.1 6.8-3.4 13-7.7 18.5-12.9.5-.5.7-.4.6.3-.8 5.7 1.5 10.5 1.8 16.2 0 .5.2.7.5.5 1.6-1 2.5-2.5 2.5-4.5.1-1.8.5-2 1.3-.3 3.2 6.6 6.8 13 10.5 19.4 5.2 9.1 10.6 18.2 15.3 27.5.7 1.4 1.1 1.3 1.3-.2.2-1.9.1-3.3-.8-5.1-3.2-6.3-6.5-12.6-9.7-18.9-2.3-4.6-4.6-9.1-6.9-13.7-2.5-5-5.7-12.2-6.4-16.5-1.3-8-.3-15.1 2.9-21 93.6 36.1 160.2 127 160.2 233.3z" style="fill:#876b37"/><path d="M464.8 254.9c0 114.4-93.3 209.9-207.8 209.9-99.8 0-185.1-72.7-205.3-167.2 3.1 3.1 6.1 6.4 8.8 8.2 4.8 3.3 10.2 4.8 16.2 4.6 2.9-.1 6.9-1.7 10.2-1.2 5.5.8 8 4.5 12.6 6.8 1.4.7 2.1.4 2.1-.9.1-2.1.2-4.2.5-6.3 1.5-11.9 11.6-17.6 22.1-20.4.3-.1.5-.2.6-.5.7-2-.8-2.5-2.5-2.5-10.2-.1-21.9 1.8-27.2 11.7-.7 1.3-1.4 2.5-2 3.7-.4.7-1.2 1.2-2 1.1-5.7-.7-10.5.3-16 1.4-7.5 1.5-5.3-6.6-6.6-10.2-.7-1.9-1.9-3.5-3.6-4.7-5.6-4-11.1-8.1-16.5-12.4-.3-2.5-.5-5-.6-7.5 3.8-2.7 6.6-6.2 9.6-10.2 9.4-12.6 27.3-13.5 41.5-13.9 3.3-.1 2.9-2.5 2-4.7-10.1-24.4 18.8-15.8 21.9-33.5 0-.3-.2-.6-.4-.2-5.2 8-12.2 10.3-21.1 13.9-8.1 3.2-7 10-5.8 17 .3 2.1-.5 3.2-2.7 3.2-16.4.1-32.1 1-43.2 14.7-.7.9-1.4 1.7-2.1 2.5v-2.2c0-114.4 95.4-207.7 209.8-207.8h.1c14.3 0 28.3 1.5 41.9 4.2.2.2.5.4.8.5 3.8.7 7.2 2.2 10.3 4.4.8.6.7 1-.2 1.2-9.5 2.2-18.1 6.4-25.8 12.7-6 4.9-3.2 10.2 1.9 14.2.3.2.6.3.9.2 1.2-.6-6.9-8.5-1.4-12.2 10.4-7.1 22.4-12.1 35.2-10 1.4.2 9.1 1.3 6.5-1.2-1.2-1.2-2.9-2.3-4.8-3.5 9.9 3.3 19.4 7.3 28.6 11.9 5.2 9.1 10.6 18.2 15.3 27.5.7 1.4 1.1 1.3 1.3-.2.2-1.9.1-3.3-.8-5.1-3.2-6.3-6.5-12.6-9.7-18.9 63.8 35.3 107.4 103.7 107.4 181.9z" style="fill:#a68343"/><path d="M464.8 254.9c0 114.4-93.3 209.9-207.8 209.9V47.2c14.3 0 28.3 1.5 41.9 4.2.2.2.5.4.8.5 3.8.7 7.2 2.2 10.3 4.4.8.6.7 1-.2 1.2-9.5 2.2-18.1 6.4-25.8 12.7-6 4.9-3.2 10.2 1.9 14.2.3.2.6.3.9.2 1.2-.6-6.9-8.5-1.4-12.2 10.4-7.1 22.4-12.1 35.2-10 1.4.2 9.1 1.3 6.5-1.2-1.2-1.2-2.9-2.3-4.8-3.5 9.9 3.3 19.4 7.3 28.6 11.9 5.2 9.1 10.6 18.2 15.3 27.5.7 1.4 1.1 1.3 1.3-.2.2-1.9.1-3.3-.8-5.1-3.2-6.3-6.5-12.6-9.7-18.9 64.2 35.4 107.8 103.8 107.8 182z" style="fill:#997738"/><path d="M374.9 314.4c-7.1-.4-14.1 1.2-21.1 4.8-.3.2-.7.1-1-.2l-27.4-27.6c.1-.7.2-1.4.2-2.1.4-6.4-2.2-11.8-8-16.1 7.5-15.3 9.4-30.8 5.9-46.4-.3-1.3-.6-2.5-1-3.8l30.3-30.3c.3-.2.6-.3 1-.1 19.2 10.6 43 3.5 51.6-17 8.2-19.3-1.4-40.6-20.7-48-.2-.1-.4-.2-.5-.4-13.5-33.8-62-30.4-69.2 5.3-1.8 8.7-.4 17.3 4.2 25.6.2.3.1.7-.1 1l-25.4 25.3c-21.1-13.3-49.1-14.7-72.8.3-.5.3-.9.6-1.4 1l-26.7-26.6c-.3-.2-.3-.7-.1-1 8.9-16.2 5.4-36.9-9.9-47.7-19.9-14.1-46.4-5.7-55.1 16.7-.1.2-.2.4-.4.5-29.2 11.9-32.3 51.9-3.5 66.2 11 5.5 22.5 5 34.4-1.2.3-.2.7-.1 1 .1l32.4 32.6c-3.7 15.1-2.2 31.5 5.2 46.8.3.6.1 1.2-.3 1.6-4.9 4.5-7 9.8-7 15l-30.2 30.2c-.2.2-.6.3-1 .1-10.3-5.5-20.5-6.4-30.7-2.8-31.8 11.4-31.7 55.7-.3 67.8.2.1.4.2.5.5 5 13.2 17.1 22.5 31 23.5 29.8 2.2 47.8-28.9 34-54.5-.2-.3-.1-.7.2-1l19.5-19.4c2.1 5 6.3 8.4 15.3 8.9l-.2-23.9V312c0-.6.3-1.1.9-1.3 3-1.2 5.5-1.4 7.3-.7h.1c.1 0 .2.1.2.1.2.1.3.2.5.3.1.1.3.2.4.3.1.1.2.1.2.2l.2.2c.1.1.2.2.3.4.1.1.1.2.2.3.1.1.2.2.2.3.1.2.2.3.3.5.1.1.1.2.1.3 0 .1.1.2.1.4 0 .1 0 .1.1.2.1.4.2.8.3 1.3v.3c0 .2.1.4.1.6 0 .2 0 .4.1.7v25.5h12.2v-26.2c0-2.4.9-4.3 2.8-5.9 2.9-2.5 6-1.7 9.2 2.2.2.2.3.6.3.9l.3 29h12.2L276 315v-1.1c0-.1 0-.3.1-.4 0-.1.1-.3.1-.4.1-.2.1-.3.2-.5 0-.1.1-.1.1-.2s.1-.2.1-.2c0-.1.1-.1.1-.2.1-.1.2-.3.3-.4l.4-.4c.6-.6 1.5-1 2.5-1.3 5.3-1.5 8.1 1.9 8.1 7v25c6.9-.7 11.1-3.1 13.5-6.6l17.4 17.4c.3.2.3.6.1 1-12.1 22.2-.4 49.6 25.1 54.1 17.5 3.1 33.2-6.9 39.9-22.9.1-.2.2-.3.3-.4.9-.5 1.9-1.1 2.9-1.5 34-15.8 24.2-66.3-12.3-68.6zm-119.4-102c.3-7.2 4.3-8.4 11-8.8 11-.7 17.1-9.2 24.2-16.6.3-.3.7-.5 1.1-.4 1.2.1 2.1.8 2.5 2 .2.5 0 1-.3 1.3l-3.4 4c-.4.5-.5 1.3 0 1.8 4.2 5.1 9.9 9.9 4.2 16.8-1.8 2.1-9.6 5.7-8.7.6 0-.3.2-.6.5-.8 2.8-2.4 9-2.9 5-8.6-1.3-1.8-2.8-3.4-4.5-4.7-.6-.4-1.4-.3-1.9.2-5.3 6.1-12.1 9-20.3 8.9-2.8-.1-4.4 1.3-4.7 4.2-.6 6-.7 12-.2 18 .2 2.4-1.1 3.7-3.6 2.5-.5-.2-.8-.7-.8-1.2-.4-6.6-.4-12.9-.1-19.2zM241.2 265c-8.5 11.8-22.2 8.8-28.2.4-.4-.6-.8-1.2-1.1-1.8-.2-.3-.3-.6-.5-1-.1-.3-.3-.7-.4-1-.1-.3-.2-.7-.3-1-.1-.3-.2-.7-.3-1-.1-.3-.1-.7-.2-1v-.1c-.1-.4-.1-.7-.1-1.1v-1.9c0-.7.1-1.3.2-2 0-.3.1-.5.1-.8.1-.5.2-.9.4-1.4.4-1.4 1.1-2.8 1.9-4.2 2.2-3.7 5.4-6.1 9.6-7.4C238 236 248.5 251 241.2 265zm27.1 29.7c-1.6.4-3.4.5-5.4.3h-1.5c-.8 0-1.8.1-2.7.2-.6.1-1.2.1-1.8.2-.3 0-.7.1-1 .1s-.7.1-1 .1c-.4 0-.8.1-1.2.1h-.1c-.6.1-1.2.1-1.8.1h-.6c-4.7.1-8-1.3-4.9-8 2.7-5.9 5.9-11.4 9.8-16.6.5-.6 1.4-.7 2-.3h.1l5.6 4.9.8 1.8c-.3 2.8 4.4 9.5 5.9 12.3 1.1 2.7.4 4.2-2.2 4.8zm19.7-21.9c-9.3 0-16.9-7.6-16.9-16.9S278.6 239 288 239s16.9 7.5 16.9 16.9-7.6 16.9-16.9 16.9z" style="opacity:.16"/><path d="M253.4 295.9c-.6.1-1.3.1-1.9.1h.1c.5 0 1.1 0 1.8-.1z" style="fill:#4a4638"/></svg>