<svg xmlns="http://www.w3.org/2000/svg" xml:space="preserve" id="Capa_1" x="0" y="0" style="enable-background:new 0 0 512 512" version="1.1" viewBox="0 0 512 512"><style>.st2{fill:#330a00}.st3{opacity:.14}</style><path d="M408.2 267.7c-.4 39.3-3.1 76.2-7.2 110.1-1.9 15.2-4 29.8-6.3 43.7-4.9 29-10.6 55.4-16.6 78.8H134c-.1-.3-.2-.6-.2-.9-5.5-21.9-10.9-46.3-15.6-73.1-2.5-14.5-4.8-29.6-6.8-45.4-4.1-32.4-6.8-67.5-7.5-104.9-.8-42.1 1.3-81.2 4.9-117 .4-3.9.8-7.7 1.2-11.5 2.1-18.7 4.7-36.3 7.5-53 .7-4.2 1.4-8.3 2.2-12.4.7-3.9 1.4-7.7 2.2-11.4 1.3-6.6 2.6-13 4-19.2h260.4c1.7 8.1 3.5 16.6 5.1 25.3.8 4.1 1.5 8.2 2.2 12.4.1.6.2 1.2.3 1.9v.2c3 17.6 5.8 36.4 8 56.3.5 4.2.9 8.4 1.3 12.6 3.5 33.2 5.4 69.1 5 107.5z" style="fill:#5c1100"/><path d="M386.3 51.5c0 2.7-.8 5.2-2.5 7.8-7.2 11.2-29.7 20.7-60.5 26.4-5.3 1-10.8 1.9-16.6 2.6-15.6 2-32.7 3.1-50.7 3.1-18.1 0-35.4-1.1-51-3.2-8.2-1.1-16-2.4-23.3-3.9C148 77 125.8 65 125.8 51.5c0-22 58.3-39.8 130.2-39.8 55.7 0 103.1 10.7 121.8 25.7 5.5 4.4 8.5 9.1 8.5 14.1z" style="fill:#b2643e"/><path d="m125.8 51.5-8.3 43c26 11.7 74.1 29.2 136.6 28.9C318.8 123 368 103.7 394 91.3l-7.7-39.8c-16.9 11.4-63.8 39.8-130.2 39.8S142.8 62.9 125.8 51.5zM401 377.8c-1.9 15.2-4 29.8-6.3 43.7-13.5 4.4-29.5 8.9-47.8 12.7-10.4 2.2-21.4 4.1-33.2 5.8-15.5 2.1-32.2 3.6-49.9 4.2-4.3.1-8.7.2-13.1.2-16.4.1-31.9-.7-46.5-2-11.7-1.1-22.9-2.6-33.4-4.3-19.9-3.3-37.6-7.5-52.7-11.8-2.5-14.5-4.8-29.6-6.8-45.4 27.6 13.1 77 31.5 141.6 31.5 15.9 0 30.9-1.1 44.8-3 47.6-6.4 83.3-21.5 103.3-31.6z" class="st2"/><path d="M160.6 102.5c-2.3-16.6-11.8-29.7-25.4-32.5-4.4-.9-8.8-.6-13.1.6-.1 0-.2 0-.3.1-.7 3.7-1.5 7.5-2.2 11.4.1 0 .2-.1.2-.1 4.2-1.9 8.7-2.5 13.1-1.6 11.4 2.3 19 13.6 20.1 27.6.3 4.2.1 8.7-.8 13.3-4 19.6-19 33.1-33.6 30.1-3.1-.6-6-2-8.5-3.9-.4 3.8-.8 7.6-1.2 11.5 2.4 1.3 4.9 2.3 7.6 2.8 14.2 2.9 28.7-6.3 37.2-21.8 2.8-5.1 4.9-10.8 6.2-17.1.9-4.2 1.3-8.4 1.3-12.4 0-2.8-.2-5.4-.6-8z" class="st2"/><path d="M222.5 122v-.4c-.1-1-.2-1.9-.4-2.8-2-13.3-8.3-24.5-17.1-30.6-4.1-2.9-8.8-4.7-13.8-5-3.2-.2-6.4.2-9.5 1.1-8.5 2.5-15.9 9.1-21.1 18.3-1.2 2.2-2.3 4.4-3.3 6.8-2.2 5.5-3.6 11.6-4 18.1-.3 4.3-.2 8.5.4 12.5 2.6 20 15 35.5 31 36.7 15.4 1.1 29.5-11.6 35.3-30.1.1-.4.2-.7.3-1.1 1.2-4.1 2-8.5 2.3-13 .2-3.7.2-7.1-.1-10.5zm-7.8 9.8c-1.4 20-14.5 35.3-29.3 34.2-14.8-1-25.6-18.1-24.2-38 .4-6 1.9-11.5 4.1-16.3 5.3-11.3 14.8-18.6 25.2-17.9 12.1.9 21.5 12.4 23.8 27.4.5 3.3.7 6.9.4 10.6z" class="st2"/><path d="M287.5 125.5c-.2-1-.5-1.9-.7-2.8-.1-.4-.2-.7-.3-1.1 0-.1-.1-.2-.1-.3-3.8-12.3-11.4-21.9-20.9-26.1 0 0-.1-.1-.2-.1-3.2-1.4-6.6-2.2-10.2-2.2-3.8-.1-7.4.7-10.8 2.1-.1 0-.2.1-.3.1-9.7 4.2-17.6 13.9-21.6 26.5 0 .1-.1.3-.1.4-.1.2-.2.5-.2.8-.3 1-.6 2.1-.8 3.1-1 4.2-1.6 8.6-1.6 13.2 0 2.5.1 5 .3 7.4.1 1 .2 1.9.3 2.9 3.1 21 16.7 36.9 33.3 37.2 16.7.3 30.9-15.4 34.6-36.5.1-.9.3-1.7.4-2.6.3-2.3.5-4.7.5-7.1 0-5.2-.5-10.2-1.6-14.9zM253.7 176c-14.8-.3-26.6-16.7-26.2-36.7.1-4.5.8-8.7 1.9-12.7.4-1.3.9-2.7 1.4-3.9 4.7-11.5 13.8-19.3 24.2-19.2 10 .2 18.7 7.8 23.1 18.9.5 1.2 1 2.5 1.3 3.9 1.2 4.3 1.9 9 1.8 13.9-.4 20-12.7 36-27.5 35.8z" class="st2"/><path d="M355.3 128.9c-.7-7.4-2.6-14.3-5.4-20.3-.3-.7-.6-1.3-1-2-5.9-11.4-15.2-19.2-25.6-21-2.2-.4-4.5-.5-6.8-.3-3.5.3-6.7 1.3-9.8 2.9-10 5.2-17.4 16.5-19.9 30.5-.2.9-.3 1.7-.4 2.6v.3c-.6 4.3-.7 8.8-.2 13.5.3 3.8 1 7.5 2 11 .1.5.3.9.4 1.4 5.8 19.3 20.5 32.6 36.4 31.2 14.5-1.3 25.8-14.4 29.4-31.8 1.1-5.7 1.5-11.7.9-18zm-31.4 39.2c-14.8 1.3-28.2-13.8-30-33.7-.4-4.8-.2-9.4.7-13.7 2.8-13.6 11.5-23.7 22.8-24.7 9.6-.9 18.6 5.2 24.3 15.1 3 5.3 5.1 11.6 5.7 18.6 1.8 19.8-8.7 37-23.5 38.4z" class="st2"/><path d="M402 147.6c-2.6 3.5-5.8 6.2-9.4 7.9-2.2 1-4.6 1.7-7.1 1.9-14.8 1.3-28.1-13.9-29.8-33.8-.5-6.3.1-12.2 1.8-17.6 3.6-11.6 11.8-20 21.9-20.8 3.3-.3 6.6.3 9.7 1.5 1.6.6 3.1 1.5 4.5 2.4-.7-4.2-1.5-8.4-2.2-12.4-.1 0-.1-.1-.2-.1-1.3-.5-2.6-1-4-1.3-2.8-.7-5.7-1-8.7-.7-14.5 1.2-25.9 14.4-29.6 31.9-.2.8-.3 1.6-.5 2.4-.8 4.9-1 10-.6 15.3.7 8.3 3 16 6.4 22.5 7.1 13.7 19.2 22.3 32.2 21.2 1.9-.2 3.8-.5 5.6-1.1 4.2-1.3 8-3.6 11.3-6.7-.4-4.1-.8-8.3-1.3-12.5zM206.5 425l-9.7 75.3h-34l10.4-79.6zM356.4 500.3h-34l-10.3-71.4 33.3-4.8z" class="st2"/><path d="M240.5 214.5V271h-55c9.5-28.9 30-50.6 55-56.5zM323.1 271h-55v-56.5c25 5.9 45.6 27.6 55 56.5zM185.5 294.4h54.9v55.4h-54.9zM268.1 294.4H323v55.4h-54.9z" class="st3"/><path d="M351.2 48.5c0 1.7-.6 3.4-1.8 5.1-5.3 7.3-21.7 13.5-44.2 17.3-3.9.6-7.9 1.2-12.1 1.7-11.4 1.3-23.9 2.1-37 2.1-13.2 0-25.9-.7-37.3-2.1-6-.7-11.7-1.6-17-2.6-24.7-4.7-40.8-12.6-40.8-21.4 0-14.4 42.6-26.1 95.2-26.1 40.7 0 75.4 7 89 16.8 3.9 2.8 6 5.9 6 9.2z" style="fill:#874c2f"/><path d="M393.7 156c-.1 3.8-.3 7.6-.6 11.4-1.8 28.5-6.7 58-14.9 87.6-16.7 60.8-44.8 113.8-79.3 154.8-10.8 12.8-22.2 24.5-34 34.8-20.6 17.9-42.6 31.9-65.2 41.4-11.6 4.9-23.5 8.5-35.3 10.8-9.8 1.9-19.7 3-29.5 3-5.5-21.9-10.9-46.3-15.6-73.1-2.5-14.5-4.8-29.6-6.8-45.4-4.1-32.4-6.8-67.5-7.5-104.9-.8-42.1 1.3-81.2 4.9-117 .4-3.9.8-7.7 1.2-11.5 2.1-18.7 4.7-36.3 7.5-53 .7-4.2 1.4-8.3 2.2-12.4.7-3.9 1.4-7.7 2.2-11.4 1.3-6.6 2.6-13 4-19.2 0-22 58.3-39.8 130.2-39.8 55.7 0 103.1 10.7 121.8 25.7 1.5 4.6 2.8 9.4 4.1 14.1.2.8.4 1.7.6 2.5.5 1.8.9 3.5 1.3 5.3 1.2 5.3 2.4 10.7 3.4 16.2.7 3.8 1.3 7.5 1.9 11.4.3 2.1.6 4.3.9 6.4 2.3 20 3.3 40.8 2.5 62.3z" style="opacity:.19"/></svg>