<?xml version="1.0" encoding="utf-8"?>
<!-- Generator: Adobe Illustrator 27.6.1, SVG Export Plug-In . SVG Version: 6.00 Build 0)  -->
<svg version="1.1" id="Capa_1" xmlns="http://www.w3.org/2000/svg" xmlns:xlink="http://www.w3.org/1999/xlink" x="0px" y="0px"
	 viewBox="0 0 512 512" style="enable-background:new 0 0 512 512;" xml:space="preserve">
<style type="text/css">
	.st0{fill:#955205;}
	.st1{fill:#392300;}
	.st2{fill:#573500;}
	.st3{fill:#7F4705;}
	.st4{fill:#D4B488;}
	.st5{fill:#C8A472;}
	.st6{opacity:0.25;enable-background:new    ;}
	.st7{fill:#DABB9F;}
	.st8{fill:#B09780;}
</style>
<g>
	<path class="st0" d="M495.9,51.5c-4.7-4.7-9.5-9.5-14.3-14.2c-7.3-7.4-14.7-14.8-22.1-22.2c-6.8-6.7-11.7-5.8-18.4,0.8
		c-4.2,4.1-8.4,8.3-12.6,12.4c-8,7.5-22.1,17.5-15.1,28.1c-50.9,51.1-81.9,82.2-93.2,93.2c-8.2,8.1-18.4,13.3-30.5,15.5
		c-16.9,1.9-33.8,3.9-50.7,5.9c-12.7,1.5-21.8,3.3-27.3,5.4c-22.2,8.4-41.4,30.9-55.2,45.8C127,251,97.9,280.1,69.1,309.6
		c-16.7,16.2-33.2,32.5-49.4,49C5.5,373.2,9.2,387.7,22,400.4c15.2,15.1,30.3,30.2,45.5,45.3c14.4,14.5,28.8,29,43.3,43.4
		c9.6,9.6,19.2,15.8,32.2,10.2c3.7-1.6,9-5.8,15.9-12.8c52.9-52.8,105.7-105.7,158.5-158.6c14.3-14.3,20.2-29,22.7-49.5
		c2.2-17.8,4.4-35.7,6.6-53.5c1.6-13.5,7.2-25,16.8-34.6c30.3-30.3,60.7-60.6,91-90.9c0.4-0.4,1.1-0.5,1.6-0.3
		c4.9,2.6,9.5,1.9,13.8-2.2c4.5-4.3,9-8.7,13.3-13.2c4.7-4.9,9.4-9.7,14.2-14.4C504,62.9,501.6,57.3,495.9,51.5z"/>
	<path class="st1" d="M481.6,37.3c-2.2,5.8-3.7,9.2-4.6,10.1c-4.8,4.9-9.6,9.7-14.6,14.5l-0.6-0.4l-33.4-33.2
		c4.2-4.1,8.4-8.2,12.6-12.4c6.7-6.6,11.6-7.5,18.4-0.8C466.9,22.5,474.3,29.9,481.6,37.3z"/>
	<path class="st0" d="M428.4,28.4l33.4,33.2c-3.6,4.7-7.6,9-11.9,13c-5.4,5.1-11,6.8-16.8,1.4c-4.8-4.4-11.4-11-19.8-19.6
		C406.3,45.9,420.4,35.9,428.4,28.4z"/>
	<path class="st2" d="M481.6,37.3c4.8,4.7,9.6,9.5,14.3,14.2c5.7,5.8,8.2,11.4,1.7,17.7c-4.8,4.7-9.6,9.5-14.2,14.4l-21-21.7
		c4.9-4.8,9.8-9.6,14.6-14.5C477.9,46.5,479.4,43.2,481.6,37.3z"/>
	<path class="st3" d="M413.4,56.5c8.5,8.6,15.1,15.1,19.8,19.6c5.8,5.4,11.4,3.6,16.8-1.4c4.3-4,8.2-8.4,11.9-13l0.6,0.4l21,21.7
		c-4.3,4.5-8.7,8.9-13.3,13.2c-4.3,4.1-8.9,4.8-13.8,2.2c-0.5-0.3-1.2-0.2-1.6,0.3c-30.4,30.3-60.7,60.6-91,90.9
		c-9.6,9.6-15.2,21.1-16.8,34.6c-2.2,17.9-4.4,35.7-6.6,53.5c-2.6,20.6-8.5,35.2-22.7,49.5c-52.8,52.9-105.6,105.8-158.5,158.6
		c-6.9,6.9-12.2,11.2-15.9,12.8c-13,5.6-22.6-0.5-32.2-10.2c-14.4-14.4-28.9-28.9-43.3-43.4l2.1-1.8c0.3-0.3,0.8-0.4,1.2-0.3
		c9.2,1.9,17-0.2,23.2-6.4c16.6-16.5,33.1-33.1,49.6-49.6c0.2-0.2,0.5-0.4,0.8-0.4c0.5-0.1,1-0.3,1.4-0.6
		c11.5,11.4,23.9,29.7,41.3,12.2c19.6-19.7,39.3-39.3,59.1-58.8c16.6-16.4-2.6-29.8-13.4-41c8-8.4,16.1-16.7,24.3-25
		c13.2-13.3,21.8-25.7,24.7-42.8c1.7-10.1,4-29,6.8-56.8c0-0.5,0.4-2,1-4.4c0.4-1.5,0.5-3,0.2-4.6c12.1-2.3,22.3-7.5,30.5-15.5
		C331.5,138.6,362.5,107.6,413.4,56.5z"/>
	<path class="st0" d="M289.7,165.3c0.3,1.6,0.2,3.1-0.2,4.6c-0.6,2.4-1,3.9-1,4.4c-2.8,27.8-5.1,46.7-6.8,56.8
		c-2.9,17.2-11.5,29.5-24.7,42.8c-8.2,8.3-16.3,16.6-24.3,25l-0.6-0.3l-75.6-76.2c13.8-14.8,33-37.4,55.2-45.8
		c5.5-2.1,14.6-3.9,27.3-5.4C255.9,169.1,272.8,167.2,289.7,165.3z"/>
	<path class="st4" d="M156.5,222.3l75.6,76.2C203.5,328,174.5,357,145,385.6l-75.9-75.9C97.9,280.2,127,251.1,156.5,222.3z"/>
	<path class="st5" d="M232.1,298.5l0.6,0.3c10.9,11.2,30.1,24.6,13.4,41c-19.8,19.5-39.5,39.1-59.1,58.8
		c-17.4,17.5-29.8-0.8-41.3-12.2l-0.7-0.9C174.5,357,203.5,328,232.1,298.5z"/>
	<path class="st0" d="M69.1,309.7l75.9,75.9l0.7,0.9c-0.4,0.4-0.8,0.6-1.4,0.6c-0.3,0-0.6,0.2-0.8,0.4
		c-16.5,16.5-33.1,33.1-49.6,49.6c-6.2,6.2-14,8.4-23.2,6.4c-0.4-0.1-0.9,0-1.2,0.3l-2.1,1.8c-15.2-15.1-30.3-30.2-45.5-45.3
		c-12.8-12.8-16.5-27.2-2.3-41.7C36,342.2,52.5,325.9,69.1,309.7z"/>
	<path class="st6" d="M185.5,348.5c9.5-3.3,16.8-8.9,21.9-17c14.9-23.6,1.9-54.4-25.3-60.5c-20.5-4.4-39.9,6.8-46.7,26.5
		c-0.1,0.3-0.5,0.6-0.8,0.6c-11.1-0.5-16,11.2-9.8,19.9c0.2,0.3,0.2,0.7,0,1c-5.4,6.5-13.7,11.8-5.7,20.7l12.4-12.7
		c0.2-0.2,0.6-0.3,0.9-0.2c4.2,1.8,4.7,4.5,1.6,7.5c-3.4,3.4-6.8,6.8-10.2,10.2l5.1,5.1l11-11c1-1,2.2-1.4,3.6-1.3
		c2.3,0.2,3.2,1.8,2.9,4.8c0,0.2-0.1,0.4-0.2,0.5l-12,12.3l5.1,5.1l11.3-11.5c1.1-1.1,2.4-1.3,3.8-0.5c2.8,1.6,2.6,4.2,0.5,6.3
		c-3.5,3.5-7,7-10.5,10.5c8.8,7.2,14.2-0.1,20.3-5.8c0.3-0.3,0.7-0.3,1-0.1c5.8,4.1,11.2,4,16.3-0.5
		C185,356.1,186.1,352.8,185.5,348.5z M185.1,297.1c3.2-2.9,5.3-1.7,8.3,0.9c4.9,4.3,11,3.3,17.1,3.2c0.3,0,0.5,0.1,0.6,0.3
		c0.5,0.6,0.5,1.2,0.2,1.9c-0.1,0.3-0.4,0.4-0.7,0.5l-3.1,0.2c-0.4,0-0.7,0.3-0.8,0.7c-0.4,3.9,0,8.3-5.3,8.8
		c-1.6,0.2-6.4-1.6-3.9-3.4c0.2-0.1,0.4-0.2,0.6-0.1c2.2,0.2,5,2.5,5.7-1.5c0.2-1.3,0.3-2.6,0.1-3.8c-0.1-0.4-0.5-0.7-0.9-0.7
		c-4.8,0.3-8.9-1.3-12.2-4.8c-1.2-1.2-2.4-1.3-3.7-0.2c-2.8,2.3-5.3,4.7-7.6,7.4c-0.9,1.1-2,1.1-2.6-0.5c-0.1-0.3,0-0.6,0.2-0.8
		C179.6,302.2,182.3,299.6,185.1,297.1z M157.1,313.1c-13.3,2.2-16.9-16.3-4.4-19.4c2.4-0.6,4.8-0.3,7.1,0.9
		C167.8,299.6,166,310.3,157.1,313.1z M155.9,336.9c-0.8-0.5-1.6-1.2-2.4-2.1c-2.4-2.8-11.7-7.1-4.1-10c3.6-1.3,7.3-2.3,11.1-2.8
		l0,0c0.1,0,0.1,0,0.2,0c0.1,0,0.3,0.1,0.4,0.1c0.1,0.1,0.2,0.2,0.3,0.3v0.1v0.1v0.1c0,0,0,0,0,0.1l0.3,4.4l-0.4,1.1
		c-1.3,1.1-2.1,5.8-2.7,7.6C158.2,337.3,157.3,337.7,155.9,336.9z M173.4,335.9c-3.9-3.9-3.9-10.2,0-14.1s10.2-3.9,14.1,0
		c3.9,3.9,3.9,10.2,0,14.1S177.3,339.8,173.4,335.9z"/>
	<path d="M159,319.2c-0.1-0.1-0.2-0.2-0.3-0.3C158.9,319,159,319.1,159,319.2z"/>
</g>
<g>
	<circle class="st7" cx="146.5" cy="452.2" r="15.8"/>
	<circle class="st8" cx="146.5" cy="452.2" r="11.2"/>
</g>
<g>
	<circle class="st7" cx="122.5" cy="461.4" r="6.7"/>
	<circle class="st8" cx="122.5" cy="461.4" r="4.7"/>
</g>
<g>
	<circle class="st7" cx="173.9" cy="428.1" r="6.7"/>
	<circle class="st8" cx="173.9" cy="428.1" r="4.7"/>
</g>
<g>
	<circle class="st7" cx="122.5" cy="445.6" r="4.7"/>
	<circle class="st8" cx="122.5" cy="445.6" r="3.3"/>
</g>
<g>
	<circle class="st7" cx="188.9" cy="423.4" r="4.7"/>
	<circle class="st8" cx="188.9" cy="423.4" r="3.3"/>
</g>
</svg>
