<?xml version="1.0" encoding="utf-8"?>
<!-- Generator: Adobe Illustrator 27.6.1, SVG Export Plug-In . SVG Version: 6.00 Build 0)  -->
<svg version="1.1" id="Capa_1" xmlns="http://www.w3.org/2000/svg" xmlns:xlink="http://www.w3.org/1999/xlink" x="0px" y="0px"
	 viewBox="0 0 512 512" style="enable-background:new 0 0 512 512;" xml:space="preserve">
<style type="text/css">
	.st0{fill:#E99823;}
	.st1{fill:#FAAA42;}
</style>
<path class="st0" d="M409.7,393.1H170.7l25.9-55.9c3.7-7.9,11.6-12.9,20.2-12.9H363c8.6,0,16.5,5,20.2,12.8L409.7,393.1z"/>
<path class="st1" d="M337,337.4c14.3-4.9,28.9-10.5,40.1-19.2c9.1-7,15.7-16.7,20.6-24.7c0.8-1.3,2.4-4.2,3.5-8.1
	c6.5-24-15.9-55.2-42.8-66.7c-7-3-12.7-4-14.6-4.3c-53.5-9.1-119.2,2.3-119.2,2.3c-17.7,3.7-30.6,13.3-47.7,13
	c-23.2-0.3-50-11.8-69.8-17c-46.3-19.2-71.2-28.6-99.7-22.4c-2.3,0.5-6.9,7.4-5.4,12.7c2.7,9.9,18,11.8,40.9,18.7
	C57,226,80.6,242.1,112,263c0,0,58.5,42.8,71.4,49.5c31.2,16.3,76.4,32.1,92.9,33.6C298.6,348,324.6,341.6,337,337.4z"/>
<path class="st1" d="M412.9,288.8c0.5-0.6,0.7-1.4,1-2.1c3.3-7.9,11.5-12.4,19.3-15.9c21.8-9.7,45.6-15.6,65.1-29.3
	c3.2-2.2,6.3-4.7,8.5-7.9c4.6-6.7,4.5-15.9,1-23.2c-3.6-7.3-10.2-12.7-17.6-16.1c-7.4-3.4-15.5-4.8-23.5-5.7
	c-6.7-0.8-13.5-1.1-20.2-1.2c-7.7,0-15.6,0.4-23,2.7c-7.4,2.2-14.4,6.3-19.1,12.5c-6.6,8.7-7.7,20.4-7.7,31.3c0,2.2,0,4.5-1,6.5
	c-1,2-3.3,3.5-5.4,2.9c-0.7-0.2-1.4-0.7-2.2-0.7c-1.2,0-2,1.3-2,2.5c0,2.4,1.9,5.6,2.7,7.8c1.1,3.1,2.2,6.2,3.2,9.4
	c2.1,6.3,4,12.6,6.1,18.8c0.1,0.4,0.3,0.9,0.6,1.2c0.7,0.7,2,0.5,2.8-0.2c0.7-0.7,1.1-1.7,1.4-2.7c5-16.1,11.8-31.6,20.2-46.1
	c1.6-2.8,3.3-5.6,5.3-8.2c1.8-2.3,3.9-4.4,6-6.3c8.6-7.8,19.6-13.7,31.2-13.1c3.1,0.2,6.3,0.9,8.5,2.9c2.6,2.3,3.5,6,3.5,9.5
	c-0.1,5.6-2.6,11.1-6.7,14.9c-2.7,2.5-6.1,4.2-9.4,6c-9.9,5.2-19.7,10.8-29.1,16.9c-6.9,4.5-13.7,9.5-17.8,16.6
	c-2.5,4.4-3.8,9.4-5.1,14.3c-0.3,1-0.5,2.2,0.3,2.9c0.7,0.7,2,0.4,2.7-0.3C412.6,289.1,412.7,288.9,412.9,288.8z"/>
<path class="st0" d="M222,223.7c0.2-2.1-0.8-4.3-2.4-5.6c1-2.5,3.7-3.8,6.1-5c6.3-3.2,12.2-7.2,17.6-11.8c3.8-3.3,7.4-7,11.7-9.6
	c5.1-3,10.9-4.5,16.6-5.9c2.3-0.6,4.9-1.5,5.6-3.7c0.7-2.3-1-4.5-2.3-6.4c-5.8-8.6-5.9-20.1-2.3-29.8c2.5-6.7,6.5-12.7,11.2-18.1
	c1.8-2.1,4.5-6.1,7.1-7.2c2.8-1.1,5.4,1.1,7,3.2c7.6,10,12.1,22.2,12.9,34.7c0.3,5.6-0.2,11.8-4,16c-2.1,2.4-5.5,4.8-4.7,8
	c0.6,2.7,3.9,3.7,6.5,4.5c18.5,5.7,30.2,24.4,47.8,32.5c0,1.6-1.1,3.2-2.6,3.7c0.8,1.5,0.2,3.5-1.1,4.6c-1.2,1.2-2.9,1.7-4.6,2.2
	c-13.1,3.6-26.9,3.6-40.5,3.4c-13.4-0.1-26.9-0.4-40.3-1.1c-15.4-0.8-31.1-2.4-45.3-8.4C222,223.8,222,223.8,222,223.7z"/>
</svg>
