<svg xmlns="http://www.w3.org/2000/svg" xml:space="preserve" id="Capa_1" x="0" y="0" style="enable-background:new 0 0 512 512" version="1.1" viewBox="0 0 512 512"><style>.st6{fill:#08b7fc}.st9{fill:#006dff}</style><path d="M173.4 392.4c-10.8-5.5-19-13.6-24.7-24.3 34.3-34.2 69.6-69.4 103.6-103.5 45.2-45.4 85.8-99.9 111.2-158.5.1-.4.5-.6.8-.7 25.6-7.8 46.8-23.4 65.3-42.4 15.3-15.6 28.7-32.6 40.3-50.9 1.2-2 1.9-1.8 1.9.5.5 23.7-1.2 47.2-5 70.5-4 24.6-10.7 47.9-20.2 69.9-1.1 2.5-3 4.2-5.7 4.9-11.5 3.1-23.2 4.5-35.1 4.1-.7 0-1.3.5-1.4 1.3 0 .2 0 .3.1.5 3.5 10 6.4 20.2 8.6 30.6.1.4 0 .9-.3 1.2-29.6 32.1-61.4 62.5-95.5 91.4-4.2 3.6-9.9 7.9-17.1 12.9-14.3 10.1-30.7 18-45.5 28-28.2 19.1-56.1 41.3-81.3 64.5z" style="fill:#dadada"/><path d="M173.4 392.4c-9.2-1.2-14.7-6.3-14.3-10.3.3-3 3.8-5 4.7-5.6 13.2-11.3 32.3-27.6 55.3-47.3 36.1-31 54.3-46.6 63.8-55.3 16.4-15.1 46.1-43.1 79.9-80.8 29.5-32.9 42.3-50.9 46-56.2 13.9-20 23.6-33.8 32.6-54.9 11.9-27.9 17.8-41.9 18.3-46 0 0 1.1-9.5 10.2-23.9.2-.4.9-1.5 1.4-1.3.3.1.5.7.5 1.9.5 23.7-1.2 47.2-5 70.5-4 24.6-10.7 47.9-20.2 69.9-1.1 2.5-3 4.2-5.7 4.9-11.5 3.1-23.2 4.5-35.1 4.1-.7 0-1.3.5-1.4 1.3 0 .2 0 .3.1.5 3.5 10 6.4 20.2 8.6 30.6.1.4 0 .9-.3 1.2-29.6 32.1-61.4 62.5-95.5 91.4-4.2 3.6-9.9 7.9-17.1 12.9-14.3 10.1-30.7 18-45.5 28-28.2 19-56.1 41.2-81.3 64.4z" style="opacity:6.000000e-02"/><path d="M196.8 399.1c-9.4-2.1-16.7-4.7-22.1-7.7-10.8-5.5-19-13.6-24.7-24.3-3.7-6.3-6.4-13-8.1-20.1-.8-3.7-1.8-6.3-2.9-7.8-8.3-11.7-26.7-8.5-30.4 5.4-3.3 12.5 9.4 37.1 16.4 47.5l-56.5 56.7-1.3 1.1c-.2.2-.5.3-.8.3-13.2.3-23.7 8.5-26 21.3-2.1 11.2 4.6 23.5 15.1 27.8 18.8 7.6 34.8-5.7 35.9-25.4l57.8-57.5c9.7 6.2 21 11.2 33.9 14.9 7.1 2 13 1.3 18-2.2 10.8-7.8 8.8-27-4.3-30z" style="fill:#fde2c5"/><path d="M148.7 416.7 135.4 430l-26.8 26.7L91 474.2c-2.3-12.4-9.3-20.1-21.1-23.3-.2-.1-.4-.2-.6-.4l-1.2-1.3 16.5-16.6 26.7-26.8 13.3-13.3c6.9 9 15 17.1 24.1 24.2z" style="fill:#bd8366"/><path d="m135.4 429.9-26.8 26.7-24.1-24 26.7-26.8z" style="opacity:.38"/><g style="opacity:.13"><path d="M53.1 463.3v.1l5.2 5.2v.1l-2.5 9.3v.1l1.6 1.6-1.6-1.6h-.1c-2.4.6-4.7 1.3-7 1.9h-.2c1.5-5.5 3-11.1 4.5-16.6l.1-.1z"/><path d="M53.1 463.3c5.5-1.5 11-3 16.6-4.4h.2l-.1.1c-.6 2.4-1.3 4.7-1.9 7.1l-9.3 2.5-.1.1 13.6 13.6.1.1-9.4 2.5-5.3-5.3-1.6-1.6v-.1l2.5-9.3v-.1l-5.2-5.2c-.1.1-.1.1-.1 0z"/><path d="M67.9 466.1c0 .1.2.2.3.3 2.2 2.2 4.4 4.5 6.6 6.7l-2.5 9.4-.1-.1-13.6-13.6v-.1l9.3-2.6zM48.6 480h.2c2.3-.6 4.7-1.3 7-1.9h.1l1.6 1.6 5.3 5.3s0 .1-.1.1c-.6 2.4-1.3 4.8-1.9 7.2L48.6 480c0 .1 0 .1 0 0zM69.9 458.9 82 471c-2.4.7-4.8 1.4-7.2 2-2.2-2.2-4.4-4.5-6.6-6.7-.1-.1-.2-.1-.3-.3.6-2.4 1.3-4.8 1.9-7.1h.1zM74.8 473.1c2.4-.6 4.8-1.3 7.2-2 .1 0 .1.1.1.2-1.5 5.5-3 11.1-4.4 16.6 0 .1-.1.1-.1.1 0-.1-.1-.2-.1-.2l-5.2-5.2 2.5-9.5z"/><path d="m62.8 485.1 9.4-2.5c1.7 1.7 3.5 3.4 5.2 5.2 0 0 0 .1.1.2l-16.7 4.5c.7-2.6 1.3-5 2-7.4-.1 0 0 0 0 0z"/></g><path d="M54.5 464.7v.1l4.6 4.6v.1l-2.2 8.3v.1l1.4 1.4-1.4-1.4h-.1c-2.1.6-4.2 1.1-6.2 1.7h-.2c1.4-5 2.7-9.9 4.1-14.9-.1 0-.1 0 0 0z" class="st6"/><path d="m54.5 464.7 14.7-3.9h.2l-.1.1c-.6 2.1-1.1 4.2-1.7 6.3l-8.3 2.2-.1.1 12.1 12.1.1.1L63 484l-4.7-4.7-1.4-1.4v-.1l2.2-8.3v-.1l-4.6-4.6v-.1z" style="fill:#82d2ff"/><path d="M67.6 467.1c0 .1.2.2.2.2 2 2 3.9 4 5.9 5.9l-2.2 8.4-.1-.1-12.1-12.1v-.1l8.3-2.2z" style="fill:#55cbff"/><path d="M50.4 479.5h.2c2.1-.6 4.1-1.1 6.2-1.7h.1l1.4 1.4 4.7 4.7-.1.1c-.6 2.1-1.1 4.3-1.7 6.4l-10.8-10.9c0 .1 0 .1 0 0z" class="st9"/><path d="m69.3 460.7 10.8 10.8c-2.1.6-4.3 1.2-6.4 1.8-2-2-3.9-4-5.9-5.9-.1-.1-.2-.1-.2-.2.6-2.1 1.1-4.2 1.7-6.3v-.2z" class="st6"/><path d="M73.7 473.3c2.2-.6 4.3-1.1 6.4-1.8.1 0 .1.1 0 .1l-3.9 14.7c0 .1 0 .1-.1.1 0-.1-.1-.1-.1-.2l-4.6-4.6 2.3-8.3z" class="st9"/><path d="m63.1 484 8.4-2.3c1.6 1.5 3.1 3.1 4.6 4.6 0 0 0 .1.1.2l-14.8 4c.5-2.2 1.1-4.3 1.7-6.5-.1 0-.1 0 0 0z" style="fill:#0050c0"/></svg>