<?xml version="1.0" encoding="utf-8"?>
<!-- Generator: Adobe Illustrator 27.6.1, SVG Export Plug-In . SVG Version: 6.00 Build 0)  -->
<svg version="1.1" id="Capa_1" xmlns="http://www.w3.org/2000/svg" xmlns:xlink="http://www.w3.org/1999/xlink" x="0px" y="0px"
	 viewBox="0 0 512 512" style="enable-background:new 0 0 512 512;" xml:space="preserve">
<style type="text/css">
	.st0{fill:#F7E8D1;}
	.st1{fill:#EFD3AC;}
	.st2{fill:#5D5D5D;}
	.st3{fill:#909CA8;}
	.st4{clip-path:url(#SVGID_00000111900181835601596820000016135338875260074136_);}
	.st5{clip-path:url(#SVGID_00000176011520952734327830000008306383554417043364_);}
</style>
<g>
	<path class="st0" d="M119.7,237.8c-8.5,11.9-15.2,25-20,39.1c-25.7-8.3-46.2-23.6-61.4-45.7c-3.6-5.2-6.2-10.6-7.8-16.2
		c-10.7-36.1-5.2-75.5,17.6-106.2c0.5-0.7,0.5-1.2-0.3-1.6c1-1.2,5.8-6.8,6.9-7c1.1-0.2-2.5,5.5-2.6,5.9
		c-8.6,19.4-13.7,39.5-12.9,60.2c0.8,19.4,8.7,40.7,25.7,51.8C82.1,229.2,100,233.1,119.7,237.8z"/>
	<path class="st1" d="M47.7,107.1c0.8,0.4,0.8,1,0.3,1.6c-22.8,30.7-28.2,70.1-17.6,106.2c1.6,5.6,4.2,11,7.8,16.2
		c15.2,22.2,35.7,37.4,61.4,45.7c-3.9,12.4-6.3,25.3-7.2,38.9c-15.8-4.9-30.5-12.1-43.9-21.6C15.9,271.1,2.1,237.5,5.1,198
		C7.6,164.1,25.1,131.9,47.7,107.1z"/>
</g>
<g>
	<path class="st0" d="M394.1,248.3c8.5,11.9,15.2,25,20,39.1c25.7-8.3,46.2-23.6,61.4-45.7c3.6-5.2,6.2-10.6,7.8-16.2
		c10.7-36.1,5.2-75.5-17.6-106.2c-0.5-0.7-0.5-1.2,0.3-1.6c-1-1.2-5.8-6.8-6.9-7c-1.1-0.2,2.5,5.5,2.6,5.9
		c8.6,19.4,13.7,39.5,12.9,60.2c-0.8,19.4-8.7,40.7-25.7,51.8C431.6,239.7,413.8,243.6,394.1,248.3z"/>
	<path class="st1" d="M466,117.6c-0.8,0.4-0.8,1-0.3,1.6c22.8,30.7,28.2,70.1,17.6,106.2c-1.6,5.6-4.2,11-7.8,16.2
		c-15.2,22.2-35.7,37.4-61.4,45.7c3.9,12.4,6.3,25.3,7.2,38.9c15.8-4.9,30.5-12.1,43.9-21.6c32.7-23.1,46.5-56.7,43.5-96.2
		C506.1,174.6,488.7,142.4,466,117.6z"/>
</g>
<path class="st2" d="M448.4,379.9c0,4.9-0.1,9.8-0.4,14.7c-1.3,0.3-2.6,0.4-4,0.5l-376.7,1.7c-1.4,0-2.7-0.1-4-0.4
	c-0.3-4.9-0.5-9.8-0.5-14.7c-0.1-13,0.9-25.7,2.8-38c15.6-101.2,94.1-178.3,189-178.7c94.9-0.4,174.1,76,190.5,177
	C447.3,354.3,448.3,366.9,448.4,379.9z"/>
<path class="st3" d="M462,361.6l0.1,17.1c0,8.6-6,15.8-14,17.7c-1.3,0.3-2.6,0.4-4,0.5l-376.7,1.7c-1.4,0-2.7-0.1-4-0.4
	c-8.1-1.8-14.1-8.9-14.2-17.5l-0.1-17.1c0-9.5,7.2-17.3,16.6-18c0.5,0,1-0.1,1.4-0.1l376.7-1.7c0.5,0,1,0,1.4,0
	C454.6,344.4,461.9,352.1,462,361.6z"/>
<path class="st3" d="M234.7,157.9l39.8-0.2c3.2,0,5.7,2.5,5.8,5.7l0.8,180.9l-51.3,0.2L229,163.6C229,160.5,231.6,157.9,234.7,157.9
	z"/>
<g>
	<defs>
		
			<rect id="SVGID_1_" x="68" y="361.2" transform="matrix(1 -4.384861e-03 4.384861e-03 1 -1.6399 1.157)" width="390.1" height="26.7"/>
	</defs>
	<clipPath id="SVGID_00000015351473287203676620000001416893560619637420_">
		<use xlink:href="#SVGID_1_"  style="overflow:visible;"/>
	</clipPath>
	<g style="clip-path:url(#SVGID_00000015351473287203676620000001416893560619637420_);">
		<g id="_x3C_Grid_Repeat_x3E__00000064344846098725438230000017598349399155520158_">
			
				<ellipse transform="matrix(1 -4.384861e-03 4.384861e-03 1 -1.6297 0.3447)" class="st2" cx="77.8" cy="371.8" rx="9.8" ry="9.8"/>
		</g>
		<g id="_x3C_Grid_Repeat_x3E__00000006680925360941441420000015857540354618152871_">
			
				<ellipse transform="matrix(1 -4.384861e-03 4.384861e-03 1 -1.6284 0.5377)" class="st2" cx="121.8" cy="371.6" rx="9.8" ry="9.8"/>
		</g>
		<g id="_x3C_Grid_Repeat_x3E__00000129171697932086075230000009635475683556193411_">
			
				<ellipse transform="matrix(1 -4.384861e-03 4.384861e-03 1 -1.6272 0.7307)" class="st2" cx="165.8" cy="371.4" rx="9.8" ry="9.8"/>
		</g>
		<g id="_x3C_Grid_Repeat_x3E__00000060016920254961206770000002360273464029301639_">
			
				<ellipse transform="matrix(1 -4.384861e-03 4.384861e-03 1 -1.6259 0.9237)" class="st2" cx="209.8" cy="371.3" rx="9.8" ry="9.8"/>
		</g>
		<g id="_x3C_Grid_Repeat_x3E__00000100347001478144940400000001950414055635493265_">
			
				<ellipse transform="matrix(1 -4.384861e-03 4.384861e-03 1 -1.6246 1.1167)" class="st2" cx="253.9" cy="371.1" rx="9.8" ry="9.8"/>
		</g>
		<g id="_x3C_Grid_Repeat_x3E__00000122000248033519858590000013232414570500113302_">
			
				<ellipse transform="matrix(1 -4.384861e-03 4.384861e-03 1 -1.6233 1.3097)" class="st2" cx="297.9" cy="370.9" rx="9.8" ry="9.8"/>
		</g>
		<g id="_x3C_Grid_Repeat_x3E__00000132070335104269937710000002235173594293681061_">
			
				<ellipse transform="matrix(1 -4.384861e-03 4.384861e-03 1 -1.6221 1.5026)" class="st2" cx="341.9" cy="370.7" rx="9.8" ry="9.8"/>
		</g>
		<g id="_x3C_Grid_Repeat_x3E__00000069366327801957652120000006008360849824170637_">
			
				<ellipse transform="matrix(1 -4.384861e-03 4.384861e-03 1 -1.6208 1.6956)" class="st2" cx="385.9" cy="370.5" rx="9.8" ry="9.8"/>
		</g>
		<g id="_x3C_Grid_Repeat_x3E__00000011007670200005280490000012302872125318283188_">
			
				<ellipse transform="matrix(1 -4.384861e-03 4.384861e-03 1 -1.6195 1.8886)" class="st2" cx="429.9" cy="370.3" rx="9.8" ry="9.8"/>
		</g>
	</g>
</g>
<g>
	<defs>
		
			<rect id="SVGID_00000085241339645140365260000014795986569681271448_" x="245.7" y="170.7" transform="matrix(1 -4.384861e-03 4.384861e-03 1 -1.1414 1.1339)" width="24.6" height="180.3"/>
	</defs>
	<clipPath id="SVGID_00000153677628567739404960000008455977071914853253_">
		<use xlink:href="#SVGID_00000085241339645140365260000014795986569681271448_"  style="overflow:visible;"/>
	</clipPath>
	<g style="clip-path:url(#SVGID_00000153677628567739404960000008455977071914853253_);">
		<g>
			
				<ellipse transform="matrix(1 -4.384861e-03 4.384861e-03 1 -0.7891 1.1205)" class="st2" cx="255.1" cy="180.5" rx="9.8" ry="9.8"/>
		</g>
		<g>
			
				<ellipse transform="matrix(1 -4.384861e-03 4.384861e-03 1 -0.9512 1.1216)" class="st2" cx="255.3" cy="217.5" rx="9.8" ry="9.8"/>
		</g>
		<g>
			
				<ellipse transform="matrix(1 -4.384861e-03 4.384861e-03 1 -1.1132 1.1227)" class="st2" cx="255.5" cy="254.4" rx="9.8" ry="9.8"/>
		</g>
		<g>
			
				<ellipse transform="matrix(1 -4.384861e-03 4.384861e-03 1 -1.2752 1.1237)" class="st2" cx="255.6" cy="291.4" rx="9.8" ry="9.8"/>
		</g>
		<g>
			
				<ellipse transform="matrix(1 -4.384861e-03 4.384861e-03 1 -1.4373 1.1248)" class="st2" cx="255.8" cy="328.3" rx="9.8" ry="9.8"/>
		</g>
	</g>
</g>
</svg>
