<?xml version="1.0" encoding="utf-8"?>
<!-- Generator: Adobe Illustrator 27.6.1, SVG Export Plug-In . SVG Version: 6.00 Build 0)  -->
<svg version="1.1" id="Capa_1" xmlns="http://www.w3.org/2000/svg" xmlns:xlink="http://www.w3.org/1999/xlink" x="0px" y="0px"
	 viewBox="0 0 512 512" style="enable-background:new 0 0 512 512;" xml:space="preserve">
<style type="text/css">
	.st0{fill:#DADADA;}
	.st1{opacity:6.000000e-02;}
	.st2{fill:#FDE2C5;}
	.st3{fill:#BD8366;}
	.st4{opacity:0.38;}
	.st5{opacity:0.13;}
	.st6{fill:#08B7FC;}
	.st7{fill:#82D2FF;}
	.st8{fill:#55CBFF;}
	.st9{fill:#006DFF;}
	.st10{fill:#0050C0;}
</style>
<path class="st0" d="M173.4,392.4c-10.8-5.5-19-13.6-24.7-24.3c34.3-34.2,69.6-69.4,103.6-103.5c45.2-45.4,85.8-99.9,111.2-158.5
	c0.1-0.4,0.5-0.6,0.8-0.7c25.6-7.8,46.8-23.4,65.3-42.4c15.3-15.6,28.7-32.6,40.3-50.9c1.2-2,1.9-1.8,1.9,0.5
	c0.5,23.7-1.2,47.2-5,70.5c-4,24.6-10.7,47.9-20.2,69.9c-1.1,2.5-3,4.2-5.7,4.9c-11.5,3.1-23.2,4.5-35.1,4.1c-0.7,0-1.3,0.5-1.4,1.3
	c0,0.2,0,0.3,0.1,0.5c3.5,10,6.4,20.2,8.6,30.6c0.1,0.4,0,0.9-0.3,1.2c-29.6,32.1-61.4,62.5-95.5,91.4c-4.2,3.6-9.9,7.9-17.1,12.9
	c-14.3,10.1-30.7,18-45.5,28C226.5,347,198.6,369.2,173.4,392.4z"/>
<path class="st1" d="M173.4,392.4c-9.2-1.2-14.7-6.3-14.3-10.3c0.3-3,3.8-5,4.7-5.6c13.2-11.3,32.3-27.6,55.3-47.3
	c36.1-31,54.3-46.6,63.8-55.3c16.4-15.1,46.1-43.1,79.9-80.8c29.5-32.9,42.3-50.9,46-56.2c13.9-20,23.6-33.8,32.6-54.9
	c11.9-27.9,17.8-41.9,18.3-46c0,0,1.1-9.5,10.2-23.9c0.2-0.4,0.9-1.5,1.4-1.3c0.3,0.1,0.5,0.7,0.5,1.9c0.5,23.7-1.2,47.2-5,70.5
	c-4,24.6-10.7,47.9-20.2,69.9c-1.1,2.5-3,4.2-5.7,4.9c-11.5,3.1-23.2,4.5-35.1,4.1c-0.7,0-1.3,0.5-1.4,1.3c0,0.2,0,0.3,0.1,0.5
	c3.5,10,6.4,20.2,8.6,30.6c0.1,0.4,0,0.9-0.3,1.2c-29.6,32.1-61.4,62.5-95.5,91.4c-4.2,3.6-9.9,7.9-17.1,12.9
	c-14.3,10.1-30.7,18-45.5,28C226.5,347,198.6,369.2,173.4,392.4z"/>
<path class="st2" d="M196.8,399.1c-9.4-2.1-16.7-4.7-22.1-7.7c-10.8-5.5-19-13.6-24.7-24.3c-3.7-6.3-6.4-13-8.1-20.1
	c-0.8-3.7-1.8-6.3-2.9-7.8c-8.3-11.7-26.7-8.5-30.4,5.4c-3.3,12.5,9.4,37.1,16.4,47.5l-56.5,56.7l-1.3,1.1c-0.2,0.2-0.5,0.3-0.8,0.3
	c-13.2,0.3-23.7,8.5-26,21.3c-2.1,11.2,4.6,23.5,15.1,27.8c18.8,7.6,34.8-5.7,35.9-25.4l57.8-57.5c9.7,6.2,21,11.2,33.9,14.9
	c7.1,2,13,1.3,18-2.2C211.9,421.3,209.9,402.1,196.8,399.1z"/>
<path class="st3" d="M148.7,416.7l-13.3,13.3l-26.8,26.7l-17.6,17.5c-2.3-12.4-9.3-20.1-21.1-23.3c-0.2-0.1-0.4-0.2-0.6-0.4
	l-1.2-1.3l16.5-16.6l26.7-26.8l13.3-13.3C131.5,401.5,139.6,409.6,148.7,416.7z"/>
<polygon class="st4" points="135.4,429.9 108.6,456.6 84.5,432.6 111.2,405.8 "/>
<g class="st5">
	<path d="M53.1,463.3L53.1,463.3c0,0.1,0,0.1,0,0.1l5.2,5.2c0,0,0,0.1,0,0.1l-2.5,9.3c0,0,0,0.1,0,0.1l1.6,1.6l-1.6-1.6
		c0,0-0.1,0-0.1,0c-2.4,0.6-4.7,1.3-7,1.9c0,0-0.1,0-0.2,0c1.5-5.5,3-11.1,4.5-16.6C53,463.4,53.1,463.3,53.1,463.3z"/>
	<path d="M53.1,463.3c5.5-1.5,11-3,16.6-4.4c0.1,0,0.1,0,0.2,0c0,0-0.1,0.1-0.1,0.1c-0.6,2.4-1.3,4.7-1.9,7.1l-9.3,2.5
		c0,0-0.1,0.1-0.1,0.1c0,0,0,0,0,0l13.6,13.6c0,0,0,0,0,0l0.1,0.1l0,0l-9.4,2.5l-5.3-5.3l-1.6-1.6c0,0,0-0.1,0-0.1l2.5-9.3
		c0,0,0-0.1,0-0.1l-5.2-5.2C53.1,463.4,53.1,463.4,53.1,463.3L53.1,463.3z"/>
	<path d="M67.9,466.1c0,0.1,0.2,0.2,0.3,0.3c2.2,2.2,4.4,4.5,6.6,6.7l-2.5,9.4l-0.1-0.1c0,0,0,0,0,0l-13.6-13.6c0,0,0-0.1,0-0.1
		c0,0,0,0,0,0L67.9,466.1z"/>
	<path d="M48.6,480c0.1,0,0.2,0,0.2,0c2.3-0.6,4.7-1.3,7-1.9c0,0,0.1,0,0.1,0l1.6,1.6l5.3,5.3c0,0,0,0.1-0.1,0.1
		c-0.6,2.4-1.3,4.8-1.9,7.2L48.6,480C48.6,480.1,48.6,480.1,48.6,480L48.6,480z"/>
	<path d="M69.9,458.9L82,471c-2.4,0.7-4.8,1.4-7.2,2c-2.2-2.2-4.4-4.5-6.6-6.7c-0.1-0.1-0.2-0.1-0.3-0.3c0.6-2.4,1.3-4.8,1.9-7.1
		C69.8,458.9,69.8,458.9,69.9,458.9z"/>
	<path d="M74.8,473.1c2.4-0.6,4.8-1.3,7.2-2c0.1,0,0.1,0.1,0.1,0.2c-1.5,5.5-3,11.1-4.4,16.6c0,0.1-0.1,0.1-0.1,0.1
		c0-0.1-0.1-0.2-0.1-0.2c-1.7-1.7-3.5-3.5-5.2-5.2l0,0L74.8,473.1z"/>
	<path d="M62.8,485.1l9.4-2.5c1.7,1.7,3.5,3.4,5.2,5.2c0,0,0,0.1,0.1,0.2l-16.7,4.5C61.5,489.9,62.1,487.5,62.8,485.1
		C62.7,485.1,62.8,485.1,62.8,485.1z"/>
</g>
<g>
	<path class="st6" d="M54.5,464.7L54.5,464.7c0,0.1,0,0.1,0,0.1l4.6,4.6c0,0,0,0.1,0,0.1l-2.2,8.3c0,0,0,0.1,0,0.1l1.4,1.4l-1.4-1.4
		c0,0-0.1,0-0.1,0c-2.1,0.6-4.2,1.1-6.2,1.7c0,0-0.1,0-0.2,0C51.8,474.6,53.1,469.7,54.5,464.7C54.4,464.7,54.4,464.7,54.5,464.7z"
		/>
	<path class="st7" d="M54.5,464.7c4.9-1.3,9.8-2.6,14.7-3.9c0.1,0,0.1,0,0.2,0c0,0-0.1,0.1-0.1,0.1c-0.6,2.1-1.1,4.2-1.7,6.3
		l-8.3,2.2c0,0-0.1,0.1-0.1,0.1c0,0,0,0,0,0l12.1,12.1c0,0,0,0,0,0l0.1,0.1l0,0l-8.4,2.3l-4.7-4.7l-1.4-1.4c0,0,0-0.1,0-0.1l2.2-8.3
		c0,0,0-0.1,0-0.1l-4.6-4.6C54.5,464.8,54.5,464.8,54.5,464.7L54.5,464.7z"/>
	<path class="st8" d="M67.6,467.1c0,0.1,0.2,0.2,0.2,0.2c2,2,3.9,4,5.9,5.9l-2.2,8.4l-0.1-0.1c0,0,0,0,0,0l-12.1-12.1
		c0,0,0-0.1,0-0.1c0,0,0,0,0,0L67.6,467.1z"/>
	<path class="st9" d="M50.4,479.5c0.1,0,0.1,0,0.2,0c2.1-0.6,4.1-1.1,6.2-1.7c0,0,0.1,0,0.1,0l1.4,1.4l4.7,4.7c0,0,0,0-0.1,0.1
		c-0.6,2.1-1.1,4.3-1.7,6.4L50.4,479.5C50.4,479.6,50.4,479.6,50.4,479.5L50.4,479.5z"/>
	<path class="st6" d="M69.3,460.7l10.8,10.8c-2.1,0.6-4.3,1.2-6.4,1.8c-2-2-3.9-4-5.9-5.9c-0.1-0.1-0.2-0.1-0.2-0.2
		c0.6-2.1,1.1-4.2,1.7-6.3C69.3,460.8,69.3,460.8,69.3,460.7z"/>
	<path class="st9" d="M73.7,473.3c2.2-0.6,4.3-1.1,6.4-1.8c0.1,0,0.1,0.1,0,0.1c-1.3,4.9-2.6,9.8-3.9,14.7c0,0.1,0,0.1-0.1,0.1
		c0-0.1-0.1-0.1-0.1-0.2c-1.5-1.5-3.1-3.1-4.6-4.6l0,0L73.7,473.3z"/>
	<path class="st10" d="M63.1,484l8.4-2.3c1.6,1.5,3.1,3.1,4.6,4.6c0,0,0,0.1,0.1,0.2l-14.8,4C61.9,488.3,62.5,486.2,63.1,484
		C63,484,63,484,63.1,484z"/>
</g>
</svg>
