<?xml version="1.0" encoding="utf-8"?>
<!-- Generator: Adobe Illustrator 27.6.1, SVG Export Plug-In . SVG Version: 6.00 Build 0)  -->
<svg version="1.1" id="Capa_1" xmlns="http://www.w3.org/2000/svg" xmlns:xlink="http://www.w3.org/1999/xlink" x="0px" y="0px"
	 viewBox="0 0 512 512" style="enable-background:new 0 0 512 512;" xml:space="preserve">
<style type="text/css">
	.st0{fill:#C2C2C2;}
	.st1{fill:#1C140B;}
	.st2{fill:#FFD928;}
	.st3{fill:#0597FF;}
	.st4{fill:#F90000;}
	.st5{fill:#9C9C9C;}
	.st6{fill:#919191;}
</style>
<g>
	<path d="M113.9,399.3L98,382.9c-0.2,0.5-0.5,0.9-0.9,1.3c-13.2,13-30.1,30-50.7,51c8.3,1.7,15.5,5.2,21.7,10.6
		c5.6,6.2,9,13.4,10.3,21.7l21.7-21.3l15.4-15.3l15.2-14.9L113.9,399.3z M84.2,430.2c-0.1,0-0.2,0-0.3,0
		C84,430.2,84.1,430.2,84.2,430.2z M84.7,430.4c-0.1,0-0.1-0.1-0.2-0.1C84.5,430.3,84.6,430.4,84.7,430.4z M83.7,430.2
		c-0.1,0-0.2,0-0.3,0.1C83.5,430.3,83.6,430.3,83.7,430.2z M83,430.6c0.1-0.1,0.1-0.1,0.2-0.1C83.2,430.5,83.1,430.5,83,430.6
		C83,430.6,83,430.6,83,430.6z M100.6,413.2c0,0.1,0,0.2,0,0.3C100.6,413.4,100.6,413.3,100.6,413.2z M100.8,412.7
		c0,0.1-0.1,0.1-0.1,0.2C100.7,412.9,100.8,412.8,100.8,412.7z M101,414.4c-0.1-0.1-0.1-0.1-0.1-0.2
		C100.9,414.3,101,414.3,101,414.4C101,414.4,101,414.4,101,414.4z M100.7,413.7c0,0.1,0,0.2,0.1,0.2
		C100.7,413.9,100.7,413.8,100.7,413.7z"/>
	<path class="st0" d="M502.5,12.5v5.1c-2.3,19-4.5,38.1-6.5,57.1c-0.4,3.4-1.1,5.7-2.2,6.8C385.5,189.9,277.1,298.2,168.7,406.6
		c-0.2,0.4-0.6,0.4-1.1,0.2c-13.1-6.9-24.7-15.7-34.8-26.4L502,11.3C502.2,11.7,502.4,12.1,502.5,12.5z"/>
	<path class="st1" d="M113.9,399.3l16.7,16.6l-15.2,14.9c-4.2-6-9-11.5-14.4-16.4c-0.5-0.5-0.6-1.3-0.1-1.9c0,0,0,0,0,0L113.9,399.3
		z"/>
	<path class="st1" d="M100.1,446.1l-21.7,21.3c-1.3-8.3-4.7-15.5-10.3-21.7L83,430.6c0.5-0.5,1.4-0.5,1.9,0c0,0,0,0,0,0L100.1,446.1
		z"/>
	<path class="st2" d="M46.4,435.2c8.3,1.7,15.5,5.2,21.7,10.6c5.6,6.2,9,13.4,10.3,21.7c-0.7,20.9-11.2,33.2-31.6,36.9h-6.4
		c-17.6-2.9-27.9-13.1-30.9-30.7v-7.4c3.1-17.1,13.1-27.1,29.9-30C41.3,435.9,44.1,436.2,46.4,435.2z"/>
	<circle class="st3" cx="43.7" cy="470.1" r="11.4"/>
	
		<rect x="111.5" y="285.9" transform="matrix(0.7071 -0.7071 0.7071 0.7071 -236.153 202.2736)" class="st0" width="29.1" height="200.6"/>
	<circle class="st0" cx="197.1" cy="457.2" r="25.1"/>
	<circle class="st4" cx="197.1" cy="457.2" r="17.7"/>
	
		<rect x="76.4" y="300.5" transform="matrix(0.7071 -0.7071 0.7071 0.7071 -221.5868 167.1077)" class="st5" width="29.1" height="101.2"/>
	<circle class="st5" cx="56" cy="316.2" r="25.1"/>
	<circle class="st4" cx="56" cy="316.2" r="17.7"/>
	<path class="st5" d="M502,11.3L132.8,380.4c-0.5-0.5-0.9-1-1.4-1.4l-0.6-0.3c-11-10.6-20.2-22.4-27.8-35.6
		c-0.1-0.2-0.1-0.5-0.1-0.7l0.1-0.4C263.6,181.8,369.9,75.5,422,23.1c4.4-4.4,7.8-8.5,14.1-9.1c19-1.9,37.9-4,56.8-6.3h5.1l2.7,1.7
		C501.2,10.1,501.7,10.7,502,11.3z"/>
	<path class="st6" d="M175.1,423.7l-12.4,12.4c-4,4-10.4,4-14.3,0l-70.8-70.8c-4-4-4-10.4,0-14.3L90,338.5c4-4,10.4-4,14.3,0
		l70.8,70.8C179.1,413.3,179.1,419.7,175.1,423.7z"/>
</g>
</svg>
