<svg xmlns="http://www.w3.org/2000/svg" xml:space="preserve" id="Layer_1" x="0" y="0" style="enable-background:new 0 0 375 375" version="1.1" viewBox="0 0 375 375"><style>.st0{fill:#611717}.st1{fill:#a22109}.st2,.st3,.st4,.st5{fill:none;stroke:#c57c26;stroke-width:2}.st3,.st4,.st5{stroke:#e9a82b}.st4,.st5{stroke:#a66920}.st5{stroke:#b06e22}.st10,.st6,.st7,.st8,.st9{fill:none;stroke:#823e1a;stroke-width:2}.st10,.st7,.st8,.st9{stroke:#f5b12e}.st10,.st8,.st9{stroke:#b47023}.st10,.st9{stroke:#bd7724}.st10{stroke:#b37222}.st11,.st12,.st13,.st14,.st15{fill:none;stroke:#ecaa2c;stroke-width:2}.st12,.st13,.st14,.st15{stroke:#bb7824}.st13,.st14,.st15{stroke:#5e2c13}.st14,.st15{stroke:#542811}.st15{stroke:#97661d}.st16{fill:#fdb62f}.st17{fill:#30160a}.st18{fill:#d49927}.st19{fill:#db9e29}.st20{fill:#edab2c}</style><path d="M23.2 23.2c0-3 2.5-5.5 5.5-5.5 3.1 0 5.5 2.5 5.5 5.5s-2.5 5.5-5.5 5.5c-3 .1-5.5-2.4-5.5-5.5z" class="st0"/><circle cx="93.5" cy="94.1" r="6.3" class="st0" transform="rotate(-76.714 93.5 94.064)"/><path d="M105.2 59.7v2.6c-1.2 10.1-8.6 17.5-18.8 17.9-.1 0-.2.1-.2.2-.7 4.4-2.8 7.7-6.4 10.1-6.7 4.4-15.5 4.2-22.1-.2l-.6-.6c-2.5-1.8-4.3-4.3-5.2-7.4 0-.1-.2-.2-.3-.2-5.1 2.5-9.9 3.5-15.5 2.3C26.6 82.3 19.5 73.7 19 64v-1.5c.6-8.6 5.1-15.4 12.9-19.1 1.8-.8 2.3-1.7 1.8-3.5-1.2-4.6 2.1-8.9 6.8-9.1 1 0 1.8-.3 2.3-1.2 7.6-12.9 26-12.6 33 .7.1.1.2.2.3.1 3.1-2 6.5-2.7 10.1-2 3.1.6 5.6 2 7.6 4.3 2.4 2.8 3.5 6 3.3 9.7 0 1 0 1.7.1 2 .4 1.3 1.3 1.8 2.1 2.5 3.6 3.7 5.5 7.9 5.9 12.8z" class="st1"/><path d="M82.1 111.3c-18 27.5-23.7 55.5-23.7 87.7" class="st2" vector-effect="non-scaling-stroke"/><path d="m58.5 199-.3.2c-.2.1-.3.1-.5.1l-37.7-.5" class="st3" vector-effect="non-scaling-stroke"/><path d="M58.8 211.2c-.1-.2-.2-.3-.4-.3-12.5.1-25 .1-37.6 0-.5 0-1 .4-1 .9l-.2 3.3" class="st3" vector-effect="non-scaling-stroke"/><path d="M122.5 111.3c-1.4 2.4-2.8 4.8-4.3 7.2-5.9 9.7-9.8 20.1-11.6 31.3-2.4 14.8-1.1 33.5-1.1 49.4" class="st2" vector-effect="non-scaling-stroke"/><path d="M105.5 199.2h-47" class="st6" vector-effect="non-scaling-stroke"/><path d="m63.7 304.8-36-.1c-.5 0-.9-.3-1-.8l-.9-3.5" class="st7" vector-effect="non-scaling-stroke"/><path d="M105.5 199.2v11.5" class="st4" vector-effect="non-scaling-stroke"/><path d="m105.5 210.8-45.2.2c-.2 0-.4-.1-.4-.3-.1-.3-.3-.5-.8-.4" class="st6" vector-effect="non-scaling-stroke"/><path d="M105.5 211v17.8" class="st2" vector-effect="non-scaling-stroke"/><path d="M105.5 228.8v11.5" class="st8" vector-effect="non-scaling-stroke"/><path d="M105.5 240.2v70" class="st2" vector-effect="non-scaling-stroke"/><path d="M63.7 304.8c-1.7-31.2-2.9-62.5-4.9-93.6M146.4 111.4c-11.2 15.6-16.9 33.1-17.2 52.4-.2 11.8-.3 23.6-.4 35.5" class="st2" vector-effect="non-scaling-stroke"/><path d="M128.8 199.2h-23.2" class="st3" vector-effect="non-scaling-stroke"/><path d="m129 244.5-.2-3.3c0-.5-.5-.9-1-.9l-22.2-.1" class="st11" vector-effect="non-scaling-stroke"/><path d="M228.6 111.3c9.3 13 14.8 27.2 16.7 42.7 1.6 12.9.6 30.2.9 45" class="st2" vector-effect="non-scaling-stroke"/><path d="M246 199.2c-8 .4-16 .1-23.9-.8" class="st6" vector-effect="non-scaling-stroke"/><path d="M222 198.5c-8.2-38-60.2-38.1-69-.2" class="st13" vector-effect="non-scaling-stroke"/><path d="M153 198.3c-8 1.1-16 1.4-24 1" class="st6" vector-effect="non-scaling-stroke"/><path d="M152.7 211H129" class="st6" vector-effect="non-scaling-stroke"/><path d="M129 211v-11.7" class="st4" vector-effect="non-scaling-stroke"/><path d="m169.7 235.2.1 4c0 .6-.4 1-1 1H165c-4.4.1-6.7 1.9-6.7 6.3V293c0 4.1 2.6 5.7 6.6 5.7h46.3c3.8 0 5.6-2.6 5.6-6.3v-45.7c0-3.1-.9-5.1-3.7-6.2-.7-.3-3-.4-6.8-.3-.5 0-1-.4-1-1v-3.5" class="st2" vector-effect="non-scaling-stroke"/><path d="M246 228.2v12.6" class="st8" vector-effect="non-scaling-stroke"/><path d="m310.8 314.8-.1-3.5c0-.5-.5-1-1-1l-40.2-.1" class="st6" vector-effect="non-scaling-stroke"/><path d="M269.5 310.2V240" class="st2" vector-effect="non-scaling-stroke"/><path d="M269.5 240v-11.2" class="st8" vector-effect="non-scaling-stroke"/><path d="M252 111.3c8.6 11.6 14.1 24.3 16.4 38.3 2.5 14.8 1.1 33.5 1.1 49.4" class="st2" vector-effect="non-scaling-stroke"/><path d="M269.5 199c-7.8.4-15.5.4-23.3 0" class="st3" vector-effect="non-scaling-stroke"/><path d="M222 198.5c.6 4.1.7 8.3.2 12.6" class="st14" vector-effect="non-scaling-stroke"/><path d="M222.2 211.1c-2.3 10.7-7.9 18.9-17 24.6" class="st13" vector-effect="non-scaling-stroke"/><path d="M205.2 235.7c0-4.4-1.2-8.3-3.5-12" class="st15" vector-effect="non-scaling-stroke"/><path d="M201.7 223.8c3.8-3.1 6.5-7.2 8.1-12.4" class="st13" vector-effect="non-scaling-stroke"/><path d="M209.8 211.4c1.2-4.2 1.2-8.4 0-12.6" class="st14" vector-effect="non-scaling-stroke"/><path d="M209.8 198.8c-7-22.1-38.4-22.9-44.6.1" class="st13" vector-effect="non-scaling-stroke"/><path d="M165.2 198.9c-1.3 4.7-1.2 8.9.2 12.8" class="st14" vector-effect="non-scaling-stroke"/><path d="M165.4 211.7c1.7 4.7 4.2 9 7.6 12.9" class="st13" vector-effect="non-scaling-stroke"/><path d="M173 224.5c-2.2 3.1-3.3 6.7-3.3 10.7" class="st15" vector-effect="non-scaling-stroke"/><path d="M169.7 235.2c-9.3-5.4-15-13.5-17-24.2" class="st13" vector-effect="non-scaling-stroke"/><path d="M152.7 211c-.5-4.5-.4-8.7.3-12.7" class="st14" vector-effect="non-scaling-stroke"/><path d="M269.5 199v11.8" class="st4" vector-effect="non-scaling-stroke"/><path d="m269.5 240-23.5.8M269.5 228.8l-23.4-.5" class="st11" vector-effect="non-scaling-stroke"/><path d="M348.7 305.2c-.3-1.1-.4-1.2-.5-.5 0 .4-.4.8-.8.7-.1 0-.2 0-.2-.1-.2-.1-.4-.2-.6-.4-.2-.2-.5-.3-.7-.3h-32.2c-.2 0-.5.1-.6.2-.8.7-1.4.5-1.5-.5" class="st7" vector-effect="non-scaling-stroke"/><path d="m355.2 211-37.7-.1c-.5 0-.9.4-1 .8l-.7 4.7" class="st3" vector-effect="non-scaling-stroke"/><path d="M292.8 111.3c14.8 22.4 22.6 47.2 23.4 74.2l.3 13.8" class="st2" vector-effect="non-scaling-stroke"/><path d="M201.7 223.8c-5.4-6.4-12-8.5-19.7-6.2-3.9 1.1-6.9 3.4-9 7" class="st2" vector-effect="non-scaling-stroke"/><path d="M209.8 198.8c-14.9.7-29.7.7-44.6.1M209.8 211.4c-14.8-.8-29.6-.7-44.5.3" class="st6" vector-effect="non-scaling-stroke"/><path d="M355 198.6c-12.8.8-25.7 1-38.5.7" class="st3" vector-effect="non-scaling-stroke"/><path d="M46.9 181.6c0-3.2-2.6-5.9-5.9-5.9s-5.9 2.6-5.9 5.9c0 3.2 2.6 5.9 5.9 5.9 3.3 0 5.9-2.6 5.9-5.9M339.9 181.7c0-3.2-2.6-5.9-5.9-5.9-3.2 0-5.9 2.6-5.9 5.9 0 3.2 2.6 5.9 5.9 5.9 3.2-.1 5.9-2.7 5.9-5.9M46.9 228.5c0-3.3-2.6-5.9-5.9-5.9s-5.9 2.6-5.9 5.9 2.6 5.9 5.9 5.9 5.9-2.6 5.9-5.9M46.9 275.4c0-3.3-2.6-5.9-5.9-5.9-3.3 0-5.9 2.6-5.9 5.9 0 3.3 2.6 5.9 5.9 5.9s5.9-2.7 5.9-5.9M339.9 228.5c0-3.3-2.6-5.9-5.9-5.9-3.3 0-5.9 2.6-5.9 5.9s2.6 5.9 5.9 5.9 5.9-2.6 5.9-5.9M339.9 275.4c0-3.2-2.6-5.9-5.9-5.9-3.2 0-5.9 2.6-5.9 5.9 0 3.2 2.6 5.9 5.9 5.9 3.2 0 5.9-2.7 5.9-5.9" class="st15" vector-effect="non-scaling-stroke"/><path d="M189.5 229c-.1-.1-.3-.1-.4-.2-4.5-.6-6.9 1.4-7.2 5.9-.1 1.5-.1 3-.1 4.5 0 .5.5 1 1 1h9.5c.5 0 1-.4 1-.9.1-2.6.1-4.5-.1-5.6-.3-1.7-1.5-3.2-3.7-4.7" class="st2" vector-effect="non-scaling-stroke"/><path d="M191.9 260c-5.6-6.7-14.8 2.7-7.8 8.5.2.2.4.5.4.8v17c0 .6.5 1 1 1l4.2-.1c.5 0 1-.5 1-1v-17c0-.3.1-.5.3-.7 2.9-2.9 3.2-5.8.9-8.5" class="st15" vector-effect="non-scaling-stroke"/><path d="M82.1 111.3c-18 27.5-23.7 55.5-23.7 87.7l-.3.2c-.2.1-.3.1-.5.1l-37.6-.5c.5-14.1 1.4-25.9 2.8-35.6 4.2-30.3 28.4-52.3 59.3-51.9zm-35.2 70.3c0-3.2-2.6-5.9-5.9-5.9s-5.9 2.6-5.9 5.9c0 3.2 2.6 5.9 5.9 5.9 3.3 0 5.9-2.6 5.9-5.9z" class="st16"/><path d="M82.1 111.3h40.4c-1.4 2.4-2.8 4.8-4.3 7.2-5.9 9.7-9.8 20.1-11.6 31.3-2.4 14.8-1.1 33.5-1.1 49.4h-47l-.1-.2c0-32.2 5.7-60.1 23.7-87.7z" class="st1"/><path d="m122.5 111.3 23.9.1c-11.2 15.6-16.9 33.1-17.2 52.4-.2 11.8-.3 23.6-.4 35.5h-23.2c0-16-1.3-34.7 1.1-49.4 1.9-11.2 5.7-21.6 11.6-31.3 1.4-2.5 2.8-4.9 4.2-7.3z" class="st16"/><path d="M146.4 111.4h82.3c9.3 13 14.8 27.2 16.7 42.7 1.6 12.9.6 30.2.9 45l-.2.2c-8 .4-16 .1-23.9-.8-8.2-38-60.2-38.1-69-.2-8 1.1-16 1.4-24 1l-.2-.1c.1-11.8.2-23.6.4-35.5.1-19.2 5.8-36.7 17-52.3z" class="st1"/><path d="m228.6 111.3 23.4-.1c8.6 11.6 14.1 24.3 16.4 38.3 2.5 14.8 1.1 33.5 1.1 49.4-7.8.4-15.5.4-23.3 0-.3-14.8.7-32-.9-45-1.9-15.3-7.4-29.6-16.7-42.6z" class="st16"/><path d="M252 111.3h40.8c14.8 22.4 22.6 47.2 23.4 74.2l.3 13.8-47-.2c0-16 1.4-34.6-1.1-49.4-2.3-14.1-7.8-26.8-16.4-38.4z" class="st1"/><path d="M292.8 111.3c19.4 0 35.1 7.3 47 22 8.1 10 11.3 20.5 12.9 34.1 1.2 10.2 2 20.6 2.3 31.2-12.8.8-25.7 1-38.5.7l-.3-13.8c-.8-27-8.6-51.8-23.4-74.2zm47.1 70.4c0-3.2-2.6-5.9-5.9-5.9-3.2 0-5.9 2.6-5.9 5.9 0 3.2 2.6 5.9 5.9 5.9 3.2-.1 5.9-2.7 5.9-5.9z" class="st16"/><path d="M222 198.5c.6 4.1.7 8.3.2 12.6-2.3 10.7-7.9 18.9-17 24.6 0-4.4-1.2-8.3-3.5-12 3.8-3.1 6.5-7.2 8.1-12.4 1.2-4.2 1.2-8.4 0-12.6-7-22.1-38.4-22.9-44.6.1-1.3 4.7-1.2 8.9.2 12.8 1.7 4.7 4.2 9 7.6 12.9-2.2 3.1-3.3 6.7-3.3 10.7-9.3-5.4-15-13.5-17-24.2-.5-4.5-.4-8.7.3-12.7 8.9-37.9 60.8-37.8 69 .2z" class="st17"/><circle cx="41" cy="181.6" r="5.9" class="st17"/><circle cx="334" cy="181.7" r="5.9" class="st17"/><path d="M209.8 198.8c-14.9.7-29.7.7-44.6.1 6.2-23 37.7-22.2 44.6-.1z" class="st1"/><path d="M153 198.3c-.7 4-.8 8.2-.3 12.7H129v-11.7c8 .4 16 .1 24-1z" class="st0"/><path d="m355 198.6.2 12.4-37.7-.1c-.5 0-.9.4-1 .8l-.7 4.7.2-5.9.5-11.4c12.8.5 25.7.3 38.5-.5z" class="st18"/><path d="M222 198.5c7.9.9 15.9 1.1 23.9.8l.2 11.5-24 .4c.6-4.4.6-8.6-.1-12.7z" class="st0"/><path d="m20 198.8 37.7.5c.2 0 .4 0 .5-.1l.3-.2.1.2.5 11-.2 1c-.1-.2-.2-.3-.4-.3-12.5.1-25 .1-37.6 0-.5 0-1 .4-1 .9l-.2 3.3.3-16.3z" class="st18"/><path d="M209.8 198.8c1.2 4.2 1.2 8.4 0 12.6-14.8-.8-29.6-.7-44.5.3-1.4-3.8-1.5-8.1-.2-12.8 15 .6 29.9.6 44.7-.1zM105.5 199.2v11.5l-45.2.2c-.2 0-.4-.1-.4-.3-.1-.3-.3-.5-.8-.4l-.5-11h46.9z" class="st0"/><path d="M246.2 199c7.8.4 15.5.4 23.3 0v11.8l-23.2.2-.1-.2-.2-11.5.2-.3z" class="st18"/><path d="m269.5 199 47 .2-.5 11.4-46.5.4-.1-.2.1-11.8z" class="st0"/><path d="M105.5 199.2h23.2l.2.1V211l-.3.3-23.2-.3-.1-.2.2-11.6z" class="st18"/><path d="m316 210.6-.2 5.9-4.3 88-.7 10.2-.1-3.5c0-.5-.5-1-1-1l-40.2-.1v-81.4l.1-17.8 46.4-.3zM59 210.2c.4-.1.7 0 .8.4 0 .2.2.3.4.3l45.2-.2.1.2v99.3l-41.5.5-.3-5.8c-1.7-31.2-2.9-62.5-4.9-93.6l.2-1.1z" class="st1"/><path d="m269.5 210.8.1.2-.1 17.8-23.4-.5.2-17.2 23.2-.3zM58.8 211.2c2 31.1 3.2 62.3 4.9 93.6l-36-.1c-.5 0-.9-.3-1-.8l-.9-3.5c-2.4-28.3-5.9-56.8-6.1-85.2l.2-3.3c0-.5.5-1 1-.9 12.5.1 25.1.1 37.6 0 .1-.1.2 0 .3.2zm-11.9 17.3c0-3.3-2.6-5.9-5.9-5.9s-5.9 2.6-5.9 5.9 2.6 5.9 5.9 5.9 5.9-2.6 5.9-5.9zm0 46.9c0-3.3-2.6-5.9-5.9-5.9-3.3 0-5.9 2.6-5.9 5.9 0 3.3 2.6 5.9 5.9 5.9s5.9-2.7 5.9-5.9zM128.8 211.3l.1 16.6-23.3.9V211l23.2.3z" class="st16"/><path d="M152.7 211c2 10.7 7.6 18.8 17 24.2l.1 4c0 .6-.4 1-1 1H165c-4.4.1-6.7 1.9-6.7 6.3V293c0 4.1 2.6 5.7 6.6 5.7h46.3c3.8 0 5.6-2.6 5.6-6.3v-45.7c0-3.1-.9-5.1-3.7-6.2-.7-.3-3-.4-6.8-.3-.5 0-1-.4-1-1v-3.5c9.1-5.7 14.7-13.9 17-24.6l24-.4.1.2-.2 17.2v12.6l.3 69.6-117.7.1.4-66-.1-16.6-.1-16.6.3-.3h23.4z" class="st1"/><path d="M355.2 211c.1 10.9-.3 22.7-1.4 35.6-2.4 28.4-4.1 48-5.1 58.7-.3-1.1-.4-1.2-.5-.5 0 .4-.4.8-.8.7-.1 0-.2 0-.2-.1-.2-.1-.4-.2-.6-.4-.2-.2-.5-.3-.7-.3h-32.2c-.2 0-.5.1-.6.2-.8.7-1.4.5-1.5-.5l4.3-88 .7-4.7c.1-.5.5-.9 1-.8l37.6.1zm-15.3 17.5c0-3.3-2.6-5.9-5.9-5.9-3.3 0-5.9 2.6-5.9 5.9s2.6 5.9 5.9 5.9 5.9-2.6 5.9-5.9zm0 46.9c0-3.2-2.6-5.9-5.9-5.9-3.2 0-5.9 2.6-5.9 5.9 0 3.2 2.6 5.9 5.9 5.9 3.2 0 5.9-2.7 5.9-5.9z" class="st16"/><path d="M209.8 211.4c-1.6 5.2-4.3 9.3-8.1 12.4-5.4-6.4-12-8.5-19.7-6.2-3.9 1.1-6.9 3.4-9 7-3.4-3.9-5.9-8.2-7.6-12.9 14.8-1 29.7-1.1 44.4-.3z" class="st1"/><path d="M201.7 223.8c2.4 3.6 3.6 7.6 3.5 12v3.5c0 .6.4 1 1 1 3.8-.1 6 0 6.8.3 2.8 1.2 3.7 3.1 3.7 6.2v45.7c0 3.7-1.8 6.3-5.6 6.3h-46.3c-3.9 0-6.6-1.6-6.6-5.7v-46.5c0-4.4 2.3-6.2 6.7-6.3h3.8c.6 0 1-.5 1-1l-.1-4c0-4 1.1-7.6 3.3-10.7 2.1-3.6 5.1-5.9 9-7 7.8-2.3 14.4-.2 19.8 6.2zm-12.2 5.2c-.1-.1-.3-.1-.4-.2-4.5-.6-6.9 1.4-7.2 5.9-.1 1.5-.1 3-.1 4.5 0 .5.5 1 1 1h9.5c.5 0 1-.4 1-.9.1-2.6.1-4.5-.1-5.6-.3-1.7-1.5-3.2-3.7-4.7zm2.4 31c-5.6-6.7-14.8 2.7-7.8 8.5.2.2.4.5.4.8v17c0 .6.5 1 1 1l4.2-.1c.5 0 1-.5 1-1v-17c0-.3.1-.5.3-.7 2.9-2.9 3.2-5.8.9-8.5z" class="st16"/><circle cx="41" cy="228.5" r="5.9" class="st17"/><circle cx="334" cy="228.5" r="5.9" class="st17"/><path d="m128.8 227.9.1 16.6-.2-3.3c0-.5-.5-.9-1-.9l-22.2-.1v-11.5l23.3-.8zM246 228.2l23.4.5V240l-23.5.8.1-12.6z" class="st19"/><path d="M189.5 229c2.1 1.4 3.3 3 3.6 4.7.2 1.1.2 3 .1 5.6 0 .5-.5 1-1 .9h-9.5c-.5 0-1-.4-1-1 0-1.5 0-3 .1-4.5.3-4.5 2.7-6.5 7.2-5.9.2.1.4.2.5.2z" class="st1"/><path d="M269.5 240v70.2l-23.2.2-.3-69.6 23.5-.8zM105.5 240.2l22.2.1c.5 0 1 .4 1 .9l.2 3.3-.4 66-23.1-.2.1-70.1z" class="st16"/><path d="M191.9 260c2.2 2.7 1.9 5.5-.9 8.5-.2.2-.3.4-.3.7v17c0 .5-.4 1-1 1l-4.2.1c-.6 0-1-.4-1-1v-17c0-.3-.1-.6-.4-.8-6.9-5.7 2.2-15.2 7.8-8.5z" class="st17"/><circle cx="41" cy="275.4" r="5.9" class="st17"/><circle cx="334" cy="275.4" r="5.9" class="st17"/><path d="m25.8 300.5.9 3.5c.1.4.5.8 1 .8l36 .1.3 5.8.5 11.7v16.4c0 .6-.4 1-1 1H30.1c-.5 0-.9-.4-1-.9l-3.3-38.4zM348.7 305.2l-2.8 33.6c0 .5-.5.9-1 .9h-33.3c-.5 0-1-.4-1-1l-.1-16.3.3-7.8.7-10.2c.2 1 .7 1.2 1.5.5.2-.1.4-.2.6-.2h32.2c.3 0 .5.1.7.3.2.2.4.3.6.4.4.2.9 0 1-.5 0-.1 0-.2.1-.2.1-.7.2-.5.5.5z" class="st20"/><path d="m105.5 310.3 23.1.2 117.7-.1 23.2-.2 40.2.1c.5 0 1 .4 1 1l.1 3.5-.3 7.8L205.6 340c-.2 0-.5 0-.7-.1l-16.8-11.1c-.3-.2-.8-.2-1.1 0l-16.6 11.1c-.2.1-.5.2-.7.2l-105-17.5-.7-11.9 41.5-.4zM34.2 23.2c0 3-2.5 5.5-5.5 5.5s-5.5-2.5-5.5-5.5 2.5-5.5 5.5-5.5c3.1 0 5.5 2.5 5.5 5.5z" class="st0"/><circle cx="60.9" cy="30" r="1.3" class="st0"/><circle cx="54.2" cy="33.9" r="1.3" class="st0"/><path d="M72.4 37.5c3.5-2.1 7.8-1.2 10 2.2l.1.1c.7.2 1.6.2 2.3.4 6.8 1.5 9.9 8.6 6.9 14.8-.5 1.1-2.1 1.5-2.5.1-.3-.8.4-1.6.7-2.3 1.5-4.1-.7-8.5-4.8-9.8-1.3-.4-2.8-.2-3.9-1-.8-.6-1.4-1.6-2.3-2.2-1.7-1-3.4-1-5.2 0-1.7.9-2.9-1.3-1.3-2.3z" class="st0"/><circle cx="78.9" cy="46" r="1.3" class="st0"/><circle cx="76.3" cy="51.5" r="1.3" class="st0"/><circle cx="83.3" cy="53" r="1.3" class="st0"/><circle cx="39.3" cy="56" r="1.3" class="st0"/><path d="M55.4 70.2c1.1-1.1 2.9.5 1.9 1.7-.1.2-.5.5-1 .9-3.4 2.9-8.3 3.4-12.2 1.2-2-1.1-2.5-2.7-5.2-2.2-5.7 1-10.8-3-10.8-8.8 0-1.2 1.4-1.9 2.2-1 .6.7.3 1.9.6 2.7 1 3.3 3.9 5.1 7.4 4.5 2-.3 3.8-.2 5.4 1.2 3.6 3.3 8.3 3.2 11.7-.2z" class="st0"/><circle cx="95.2" cy="64" r="1.3" class="st0"/><circle cx="49.5" cy="64.1" r="1.3" class="st0"/><circle cx="71.6" cy="76.1" r="1.3" class="st0"/><circle cx="65" cy="80.1" r="1.3" class="st0"/><circle cx="76.5" cy="80.5" r="1.3" class="st0"/><circle cx="93.5" cy="94.1" r="6.3" class="st0" transform="rotate(-76.714 93.5 94.064)"/><path d="M355.8 36.2c0-2.4-1.9-4.3-4.3-4.3s-4.3 1.9-4.3 4.3 1.9 4.3 4.3 4.3c2.3 0 4.3-1.9 4.3-4.3z" class="st0"/><circle cx="300.6" cy="91.4" r="4.9" class="st0"/><path d="M291.4 64.6v2.1c.9 7.9 6.8 13.7 14.8 14 .1 0 .2.1.2.1.5 3.4 2.2 6 5 7.9 5.2 3.4 12.2 3.3 17.4-.2.2-.1.4-.3.5-.4 2-1.4 3.3-3.4 4-5.8 0-.1.1-.1.2-.1 4 2 7.8 2.8 12.1 1.8 7.5-1.7 13-8.3 13.4-15.9v-1.2c-.4-6.7-4-12-10.1-14.9-1.4-.6-1.8-1.3-1.4-2.8.9-3.6-1.7-6.9-5.4-7.1-.8 0-1.4-.2-1.8-.9-6-10.1-20.4-9.8-25.9.5 0 .1-.2.1-.2.1-2.4-1.6-5.1-2.1-7.9-1.6-2.4.5-4.4 1.6-5.9 3.4-1.9 2.2-2.7 4.7-2.6 7.6v1.6c-.3 1-1 1.4-1.6 2-3 2.7-4.5 6-4.8 9.8z" class="st1"/><path d="M347.1 36.2c0 2.4 1.9 4.3 4.3 4.3s4.3-1.9 4.3-4.3-1.9-4.3-4.3-4.3-4.3 1.9-4.3 4.3z" class="st0"/><circle cx="326.2" cy="41.5" r="1" class="st0"/><circle cx="331.5" cy="44.5" r="1" class="st0"/><path d="M317.2 47.3c-2.7-1.6-6.1-.9-7.9 1.7l-.1.1c-.6.2-1.3.2-1.8.3-5.3 1.2-7.7 6.7-5.4 11.5.4.9 1.6 1.1 2 .1.2-.6-.3-1.2-.5-1.8-1.2-3.2.6-6.6 3.8-7.7 1-.3 2.2-.2 3.1-.8.7-.5 1.1-1.3 1.8-1.7 1.3-.8 2.7-.8 4.1 0 1.1.8 2.1-.9.9-1.7z" class="st0"/><circle cx="312.1" cy="54" r="1" class="st0"/><circle cx="314.1" cy="58.2" r="1" class="st0"/><circle cx="308.5" cy="59.4" r="1" class="st0"/><circle cx="343.1" cy="61.8" r="1" class="st0"/><path d="M330.5 72.8c-.9-.9-2.3.4-1.5 1.3.1.1.4.4.8.7 2.7 2.2 6.5 2.6 9.6.9 1.5-.9 2-2.1 4.1-1.8 4.5.8 8.5-2.3 8.5-6.9 0-.9-1.1-1.5-1.7-.8-.5.5-.3 1.5-.5 2.1-.8 2.5-3.1 4-5.8 3.5-1.6-.3-3-.2-4.2.9-3 2.9-6.7 2.8-9.3.1z" class="st0"/><circle cx="299.3" cy="68" r="1" class="st0"/><circle cx="335.1" cy="68.1" r="1" class="st0"/><circle cx="317.8" cy="77.4" r="1" class="st0"/><circle cx="323" cy="80.5" r="1" class="st0"/><circle cx="313.9" cy="80.8" r="1" class="st0"/><circle cx="300.6" cy="91.4" r="4.9" class="st0"/></svg>