<svg xmlns="http://www.w3.org/2000/svg" xml:space="preserve" id="Capa_1" x="0" y="0" style="enable-background:new 0 0 512 512" version="1.1" viewBox="0 0 512 512"><style>.st2{opacity:.3;enable-background:new}</style><path d="M462.9 262.1v9.5c-.5 30.4-4.9 59.4-12.9 86.1-.4 1.2-.7 2.5-1.1 3.7-6.7 21.3-15.9 41.2-27.5 58.8-26.5 40.6-65.2 70-115.2 81.6-.8.2-1.5.4-2.4.5-5.8 1.3-11.7 2.3-17.8 3.1-2.8.4-5.5.7-8.3 1h-.1c-3.4.3-7 .5-10.6.7-3.6.2-7.2.2-10.9.2-34 0-64.2-7-90.2-19.7-1.7-.8-3.4-1.7-5-2.6-5.7-3-11.2-6.3-16.5-9.8-15.3-10.3-28.8-22.8-40.6-37.1-36-43.9-54.8-105-54.8-172.7 0-3.2.1-6.4.2-9.6-.1-3.2-.2-6.4-.2-9.5 0-4.2.1-8.3.2-12.4.1-3.7.3-7.4.6-11.1 3.9-58.2 22.2-110.4 54-149.1 11.7-14.3 25.2-26.8 40.6-37.1 18.1-12.2 38.7-21.2 61.7-26.6 8.2-1.9 16.7-3.4 25.5-4.3 7.9-.8 16.1-1.3 24.5-1.3 7.2 0 14.5.3 21.5.9h.1c9 .9 17.8 2.2 26.2 4.1.8.1 1.5.3 2.4.5 50.1 11.7 88.8 41.1 115.2 81.6 11.5 17.7 20.7 37.5 27.5 58.9.4 1.2.7 2.4 1.1 3.7 8.6 28.5 13 59.6 13 92.2 0 3.2-.1 6.3-.2 9.5-.1 2.2 0 4.3 0 6.3z" style="fill:#eaeaea"/><path d="M462.9 265.5v6.1c-5.8-3-12-4.9-19.1-3.8-3.6.5-7.6 2.4-11.5 3.4-2.1.6-3.3-.8-3.3-4 .1-11.3-1.2-27.5-6.5-35.7-6.1-9.9-16.3-9.1-25.1-8.1-14.6 1.6-28.9 4.4-44 3.9-8-.3-9.5 8.9-10.6 17.4-.5 4.2-3.7 7.4-4.7 10.7-3.6 11.6 9.9 18.4 3.1 25.8-2.1 2.3-7.6 7.9-16.5 16.5-8 7.8-15.4 22-20.5 30.2-14.8 23.4-31.5 47.5-41.9 74.8-8.3 21.8-1.1 35.5 9 53.5 7.8 13.7 11.1 26.2 7.2 43-.8 3.4.5 5 3.9 4.7 5.4-.5 10.8-.8 16.1-.8l-12.5 2.5c-2.8.4-5.5.7-8.3 1h-.1c-3.4.3-7 .5-10.6.7l.7-2.4c.9-3.1.1-4.5-2.1-4.8-4.7-.5-8.5-.6-13.7.3-9.6 1.9-19.4.5-29-4.2-19.9-9.7-37.2-14.7-56.9-8.4-1.7-.8-3.4-1.7-5-2.6 12.7-6.7 25.6-9.3 39.2-8 19.8 1.9 34.6 12.3 55.3 5.2 4.8-1.6 19.9 1 10.6-13.4-7.4-11.5-11.8-18.7-13.1-21.6-12.4-27.5-1.4-54.3 11.1-77.9 3.6-7 11.7-21 24.5-42.3 5.4-9.1 5-15.7-4.1-18.9-15.6-5.5-36.6-9.2-53-19.7-6.8-4.4-12.1-7.3-12.6-16-.1-3.4-1.5-5.3-4-6.1-11.8-3.6-24.3 2.8-37.4 6.1-20.6 5.5-30.4-9.7-41-29.7-7.1-13.2-19.5-5.6-28.9-3.1-20.2 5.7-39.7 2.9-58.1-5.6.1-3.7.3-7.4.6-11.1 16.2 5.8 33 6.4 49.7 1.9 23.5-6.3 38-20 55 12.8 8.7 17 14.9 15.3 29.6 11.1 5.6-1.6 11.8-4.4 17-5 10-1.4 19.8.5 29.3 5.8 3.4 1.9 4.5 4.4 5 9.4.8 7.1 4 11.9 9.6 14.7 18.3 8.9 37.3 13.7 55.8 21.8.4.2.9.2 1.2 0 7.6-3.9 13.4-9.5 17.5-16.6 4.5-7.7-3.9-23.7-7.6-29.7-.5-.8-.9-2.1-1-3.9 0-.5-.2-1-.8-1.1-1.2-.6-2.2-1.8-3.1-3.6-12.5-24.2-11.4-51-1.9-75.4.1-.5 0-1-.4-1.3-.1 0-.3-.2-.4-.2-14.7.3-27.9 9.5-41 17.3-.7.5-1 .2-.7-1 .7-2.9 1.5-5.5 3-8.1 7.6-12.8 14.4-26.3 20-40.7.6-1.5.2-3.2-.9-4-6.5-5.6-13.6-10.2-21.4-13.6-7.7-3.4-9.6 1.8-16.3 4.4-6.4 2.4-14 2.4-17.3 12.6-4.9 15.2-11.8 28.4-20.9 39.9-4.2 5.3-6.9 11-1.2 16.6 1.6 1.8 2.8 5.2.9 6.8-11.4 10-21 17.8-27.6 32.3-.2.5-.6.8-1 .6-1-.2-1.2-1-.8-2.6 4.3-12.8 11.9-21.5 20.1-30 1.5-1.6 1.6-3.2.4-5.2-5.4-7.8-3-14.9 1.6-22.5 10.1-16.6 16.1-27.9 18.6-49.3.5-4.5 2.9-7.6 7-8.9 16.8-5.6 30.4-14.1 39.5-33.9.4-.8.1-1.6-.4-2.1-.1-.2-.2-.2-.4-.2-6.6-1.8-13.3-3.7-19.9-5.6-5.6-1.6-11-1.8-16.6-2.1-2.5-.2-3.1-1.5-1.7-3.9 5.7-10.7 10.4-22 14-33.9.4-1.1-.1-2.4-1-2.9-11.2-5.2-22.7-12.8-34.6-13.6 8.2-1.9 16.7-3.4 25.5-4.3 10.5 4.3 20.6 8.4 32.1 8.1.4 0 .8.3.9.8.4 2.1-.1 3.6-1.2 4.4-9 6.1-14.6 16.2-17.1 29.7-.2 1.6.5 3.2 1.8 3.6h.1c12.8 3.2 24.4 7.6 37.5 6.6.5 0 .9.2 1.3.5 1.1 1.1 1.1 2.7.1 4.5-5.9 10.2-11.5 20.2-17 29.9-1.4 2.4-1 4 1.1 5.3L303 118c2.7 1.6 3.2 4 1.4 7.1-3.6 6.1-6.6 12.8-9.3 19.5-.2.6 0 1.3.5 1.6.1.2.3.2.5.2 9.6-.6 19.5-1.8 29.5-3.1 6.9-1 9.9 1.9 4.1 9.7-15.1 19.9-22.5 49.1-9.3 74 1.1 2.1 1.1 3.7 1.9 6 .1.3.5.5.8.3h.1c5-4.2 9.9-8.7 14.5-13.4 6.6-6.6-3.6-17.3-7.1-22.3-1.6-2.3-1.5-4.4.4-6.4 9.6-10.3 22.7-20.2 25.5-37.6 4.1-26 8.8-52 13.8-77.9.4-1.9 3.1-5.5 2.4-.5-3.4 22-6 44.1-8.1 66.4-1.5 15.7-3.5 27.8-11.4 38-3.5 4.7-9.4 10-9.1 16.3.7 15.5 44.1 10.5 52.3 10 25.6-1.1 39.5 8.1 41.8 44.6.4 6 1.6 7.4 6.3 7.3 6.6-.2 12.8 1.3 18.7 4.3-.3 1.1-.3 2.2-.3 3.4z" style="opacity:.16;enable-background:new"/><circle cx="93.4" cy="279.6" r="25.3" class="st2"/><circle cx="397.8" cy="261.3" r="17.8" class="st2"/><circle cx="355.9" cy="404.2" r="17.8" class="st2"/><circle cx="127.3" cy="308.9" r="14.2" class="st2"/><circle cx="387.9" cy="378.8" r="14.2" class="st2"/><circle cx="131.7" cy="279.6" r="7" class="st2"/><circle cx="398" cy="127.1" r="21.5" class="st2"/><circle cx="326.7" cy="66.6" r="14.2" class="st2"/><circle cx="324.3" cy="96.1" r="7" class="st2"/><circle cx="134.5" cy="391.5" r="7" class="st2"/><circle cx="153.7" cy="378.8" r="7" class="st2"/><circle cx="158.8" cy="409" r="13" class="st2"/><circle cx="155.5" cy="98.6" r="7" class="st2"/><circle cx="133" cy="93.6" r="7" class="st2"/><circle cx="140" cy="190.4" r="7" class="st2"/><circle cx="121.8" cy="197.5" r="7" class="st2"/><circle cx="105.3" cy="183.4" r="7" class="st2"/><circle cx="151.2" cy="68.9" r="13" class="st2" transform="rotate(-45.001 151.236 68.928)"/></svg>