<svg xmlns="http://www.w3.org/2000/svg" xml:space="preserve" id="Layer_1" x="0" y="0" style="enable-background:new 0 0 512 512" version="1.1" viewBox="0 0 512 512"><style>.st0{fill:#764528}.st3{fill:#8d5333}.st4{fill:#4f2a10}.st6{fill:#2c2f38}</style><path d="M44.8 44.8h422.4v422.4H44.8z" class="st0"/><path d="M14.3 0h467c-.4 7.4-.5 14.8-.1 22.2l-.2.1c-8.5 1.9-8.8 12.8-.3 15l.3.3v436.9c-8.6 2.1-8.7 12.8-.2 15.3.5 7.4.5 14.8-.1 22.2H13.9C6 510.5 1.4 505.8 0 497.9v-484C1.5 5.9 6.2 1.3 14.3 0zm23.2 29.9c0-4.2-3.4-7.6-7.6-7.6s-7.6 3.4-7.6 7.6c0 4.2 3.4 7.6 7.6 7.6 4.2 0 7.6-3.5 7.6-7.6zm236.3 430.6h138.9c13.1 0 26.2.1 39.2.1 5.6 0 8.4-2.7 8.5-8 .1-4.3.1-17.7 0-40.2.1-116.6.1-233.2 0-349.8 0-5.7-.9-11-7.5-11H99c-12.5-.1-24.9-.2-37.4 0-5.9.1-10 1.3-10.1 7.9-.1 13.7-.1 27.3 0 41-.1 116.3-.1 232.6 0 349 0 5.7.9 11 7.5 11h179.1M37.5 482.1c0-4.2-3.4-7.6-7.6-7.6-4.2 0-7.6 3.4-7.6 7.6 0 4.2 3.4 7.6 7.6 7.6 4.2 0 7.6-3.4 7.6-7.6z" style="fill:#c07149"/><path d="M481.3 0h16.8c8 1.5 12.7 6.3 13.9 14.3v483.8c-1.5 7.9-6.2 12.5-14.1 13.9h-17.2c.6-7.4.6-14.8.1-22.2h.5c10.4.6 11.9-13.1 1.7-15.4-.6-.1-1.1-.1-1.7.2l-.2-.1v-437c12.2-.1 11.4-15.8.2-15.3-.4-7.4-.4-14.8 0-22.2z" style="fill:#a8633f"/><circle cx="29.9" cy="29.9" r="7.6" class="st3"/><path d="m481 22.3-.3 15c-8.5-2.2-8.2-13.1.3-15z" class="st3"/><path d="m481 22.3.2-.1c11.1-.5 11.9 15.3-.2 15.3l-.3-.3.3-14.9zM481.2 489.7c-.4-5.1-.4-10.1 0-15.2.5-.3 1.1-.3 1.7-.2 10.2 2.3 8.7 16-1.7 15.4z" class="st0"/><circle cx="29.9" cy="482.1" r="7.6" class="st3"/><path d="m481 474.5.2.1c-.4 5.1-.4 10.1 0 15.2h-.5c-8.4-2.6-8.3-13.3.3-15.3z" class="st3"/><path d="M156.6 172.6H86.1c-7.8 0-14-6.3-14-14V88.1c0-7.8 6.3-14 14-14h70.5c7.8 0 14 6.3 14 14v70.5c0 7.8-6.2 14-14 14zM291.2 172.6h-70.5c-7.8 0-14-6.3-14-14V88.1c0-7.8 6.3-14 14-14h70.5c7.8 0 14 6.3 14 14v70.5c.1 7.8-6.2 14-14 14zM425.9 172.6h-70.5c-7.8 0-14-6.3-14-14V88.1c0-7.8 6.3-14 14-14h70.5c7.8 0 14 6.3 14 14v70.5c0 7.8-6.3 14-14 14zM156.6 305.3H86.1c-7.8 0-14-6.3-14-14v-70.5c0-7.8 6.3-14 14-14h70.5c7.8 0 14 6.3 14 14v70.5c0 7.7-6.2 14-14 14zM425.9 305.3h-70.5c-7.8 0-14-6.3-14-14v-70.5c0-7.8 6.3-14 14-14h70.5c7.8 0 14 6.3 14 14v70.5c0 7.7-6.3 14-14 14zM156.6 438.9H86.1c-7.8 0-14-6.3-14-14v-70.5c0-7.8 6.3-14 14-14h70.5c7.8 0 14 6.3 14 14v70.5c0 7.7-6.2 14-14 14zM291.3 438.9h-70.5c-7.8 0-14-6.3-14-14v-70.5c0-7.8 6.3-14 14-14h70.5c7.8 0 14 6.3 14 14v70.5c0 7.7-6.3 14-14 14zM425.9 438.9h-70.5c-7.8 0-14-6.3-14-14v-70.5c0-7.8 6.3-14 14-14h70.5c7.8 0 14 6.3 14 14v70.5c0 7.7-6.3 14-14 14z" class="st4"/><path d="M203.1 206.7H309v67.6c0 24.9-23.7 45-53 45s-53-20.2-53-45v-67.6z" style="fill:#f0c419"/><path d="M273.7 248.7c0 9.8-7.9 17.7-17.7 17.7s-17.7-7.9-17.7-17.7S246.2 231 256 231s17.7 8 17.7 17.7z" class="st6"/><path d="M256 292.8c-4.9 0-8.8-4-8.8-8.8v-17.7c0-4.9 4-8.8 8.8-8.8s8.8 4 8.8 8.8V284c.1 4.9-3.9 8.8-8.8 8.8z" class="st6"/></svg>