<svg xmlns="http://www.w3.org/2000/svg" xml:space="preserve" id="Capa_1" x="0" y="0" style="enable-background:new 0 0 512 512" version="1.1" viewBox="0 0 512 512"><style>.st0{fill:#242424}.st1{fill:#171717}</style><path d="M83.4 469.6c.4 2.1 1.3 3.2 2.7 3.4 42 6 83.9 12 125.9 18 2.9.4 5.8.4 8.7-.1 36.1-6 72.1-12 108.2-18.1-3.1-3-6.3-5.8-9.7-8.5h.2c3.3 2.7 6.4 5.6 9.5 8.6.2-.2.7-1 1.1-2 24.8-55.7 49.5-111.3 74.3-166.9l93.8-56.2v-132c-18.6-31.5-37.6-62.7-57.2-93.7l-222.8.3-57.6-.1c-.4 0-.8.2-1 .5l-101 121.3c-.2.2-.3.4-.3.6l-10.9 65.1.2.3-.1.3c0-.2-.1-.4-.1-.6L13.9 317.4c0 .2 0 .5.1.8l69.4 151.4m355-444v-.2.2c0-.1 0-.1 0 0z"/><path d="M215.5 21.7h2.6l-.1.2c0 .1 0 .2.1.2h.1l73.1 18.1c.3.1.6.3.8.5l18 27c.3.5.3 1.2-.2 1.6L292.2 87c-.3.3-.7.4-1.1.4l-8.3-1.4c1.6.2 2.3-.2 2.1-1.2-.1-.4-.3-.8-.7-.9l-48.7-24.4c-.3-.1-.5-.3-.6-.6l-17.6-35.3c-.2-.4-.6-.7-1.1-.7l-1.3-.1.6-1.1z" class="st0"/><path d="m214.9 22.9 1.3.1c.5 0 .9.3 1.1.7L234.9 59c.1.3.3.5.6.6L284.2 84c.4.2.6.5.7.9.2 1-.5 1.4-2.1 1.2l-47.2-7.9c-.3 0-.5 0-.7.1-36.1 15.9-72.5 31.1-109.2 45.6-1.9.8-2.3.3-1.3-1.5 7.9-12.7 13.6-21.3 17.1-25.8 12-15.2 24.4-30.7 37.2-46.6.1-.1.1-.2.2-.2l36-26.9z" class="st1"/><path d="m440.3 148.8 1-.7c.3-.2.6-.6.5-1.1l-.3-39.9c0-.4-.2-.8-.5-1-4.2-3-8.8-6.2-13.6-9.6-1.2-.8-2.2-.6-3.4-.1-.6-.9-.9-1.9-.9-3.1 0-.3.1-.7.3-.9L441 73.3c.3-.4.9-.5 1.4-.3 4 1.4 8.7 2.8 11 6.7 2.8 4.7 7.3 11.2 7.3 16.8 0 12.5-.1 25-.1 37.5 0 .3-.1.7-.4.9l-16.9 16.8c-.5.5-1.3.5-1.8 0-.1-.1-.2-.3-.3-.5l-.9-2.4z" class="st0"/><path d="m440.3 148.8-16.2-52.3c1.2-.5 2.2-.7 3.4.1 4.8 3.4 9.3 6.5 13.6 9.6.3.2.5.6.5 1l.3 39.9c0 .4-.2.8-.5 1.1l-1.1.6z" class="st1"/><path d="m47.4 209.2 18.4 36.9c-11.1-4.7-22-9.8-32.6-15.5-.4-.2-.8-.2-1.2 0-1.3.6-2.5.3-3.8-1 6.1-7.2 12.5-13.9 19.2-20.4z" class="st0"/><path d="M28.2 229.6c1.3 1.2 2.5 1.6 3.8 1 .4-.2.8-.2 1.2 0 10.6 5.7 21.5 10.8 32.6 15.5l.7 1 .4 1.9 1 16.4c-12.7 5.7-25 11.8-37 18.2-.6.3-1.4.1-1.7-.5-.1-.2-.2-.4-.2-.6-.1-7.7-.1-15.5 0-23.2 0-1.4-.4-2.1-1.3-2 1.3-9.2 1.5-18.4.5-27.7z" class="st1"/><path d="M265.1 317.9c-.5-.4-1.1-.6-1.7-.7s-1-.5-1.1-1l-6.8-36.5c-.1-.4-.3-.7-.6-.9-6.3-3.8-11.9-7.9-17-12.3l50.5-15.1c.7-.2 1.4.2 1.6.9.1.2.1.4 0 .6-.3 1.6-.6 3.3-.8 5-.4 2.1-.9 4.2-1.7 6.1-7.4 17.9-14.8 35.9-22.4 53.9z" class="st0"/><path d="M237.9 266.4c5 4.5 10.7 8.6 17 12.3.3.2.5.5.6.9l6.8 36.5c.1.6.6 1 1.1 1 .7.1 1.2.3 1.7.7l-1.3 3.3c-.2.5-.7.8-1.2.8l-7.7.2c-.5 0-1-.3-1.2-.8l-29-62.5c-.3-.7-.1-.9.6-.7l.6.3c4.1 3.5 8.1 6.1 12 8zM314.7 418.9l-13 22c-.2.3-.2.5-.2.8.9 5.8 2.7 11.6 5.3 17.4-5.9 2.6-12.2 4.4-18.6 5.5-.3 0-.6 0-.9-.2l-21.2-12.3c-.6-.4-.8-1.2-.5-1.8l12.9-22.2 36.2-9.2z" class="st1"/><path d="m314.7 418.9 4.8 17.4c.1.3 0 .7-.1 1l-10.6 18.5-2 3.3c-2.7-5.8-4.4-11.5-5.3-17.4 0-.3 0-.6.2-.8l13-22z" class="st0"/><path d="m215.5 21.7-.6 1.2L179 49.8c-.1.1-.2.1-.2.2-12.8 15.9-25.3 31.5-37.2 46.6-3.5 4.5-9.2 13-17.1 25.8-1.1 1.8-.7 2.3 1.3 1.5 36.7-14.5 73.1-29.7 109.2-45.6.2-.1.5-.1.7-.1l47.2 7.9 8.3 1.4c.4.1.8-.1 1.1-.4L310 69.4c.4-.4.5-1.1.2-1.6l-18-27c-.2-.3-.4-.5-.8-.5l-73.1-18.1c-.1 0-.2-.1-.2-.2l.1-.2 222.8-.3c-2 .7-2.8 1.8-2.5 3.5.1.4 0 .8-.3 1.1-36.1 42.4-72.3 84.6-108.7 126.8-.2.2-.2.5-.2.8l-.3-.1h-.3L66.5 247.1l-.7-1-18.4-36.9 10.9-65.1c0-.2.1-.4.3-.6l101-121.3c.2-.3.6-.5 1-.5h54.9z" style="fill:#303030"/><path d="M441 21.5c19.6 31 38.6 62.2 57.2 93.7v131.9l-93.8 56.2c-.8-.7-1.3-1.5-1.7-2.4-.6-1.7-1-2.6-1-2.7-24.3-48.1-48.4-96.3-72.4-144.6 0-.2.1-.6.2-.8 36.3-42.2 72.6-84.4 108.7-126.8.3-.3.4-.7.3-1.1-.3-1.6.5-2.8 2.5-3.4zm-16.9 74.9 16.2 52.3.8 2.5c.2.7 1 1 1.6.8.2-.1.4-.2.5-.3l16.9-16.8c.2-.2.4-.6.4-.9 0-12.5 0-25 .1-37.5 0-5.6-4.5-12.1-7.3-16.8-2.3-3.8-7-5.3-11-6.7-.5-.2-1 0-1.4.3l-17.5 19.1c-.2.3-.3.6-.3.9.1 1.2.4 2.2 1 3.1z" style="fill:#363636"/><path d="M329.3 153.6c24 48.3 48.1 96.5 72.4 144.6 0 .1.4 1 1 2.7.4.9.9 1.8 1.7 2.4-24.8 55.6-49.5 111.2-74.3 166.9-.4 1-.8 1.6-1 1.8-6.2-6.1-12.9-11.5-20.2-16.2l10.6-18.5c.2-.3.2-.7.1-1l-4.8-17.4-36.2 9.3c-79.5-70.3-123.8-107.9-209.7-179-.2-.2-.5-.3-.8-.3H67l-.4-1.9 262.2-93.6h.3l.2.2zm-91.4 112.8c-3.8-1.9-7.8-4.5-11.9-7.8-.2-.2-.4-.3-.6-.3-.7-.2-.9 0-.6.7l29 62.5c.2.5.7.8 1.2.8l7.7-.2c.5 0 1-.3 1.2-.8l1.3-3.3c7.6-17.9 15.1-35.9 22.3-54 .8-2 1.4-4 1.7-6.1.3-1.7.6-3.3.8-5 .1-.7-.4-1.4-1.1-1.5h-.6l-50.4 15z" style="fill:#2b2b2b"/><path d="M66.9 249H68c.3 0 .6.1.8.3 85.9 71.1 130.2 108.7 209.7 179l-12.9 22.2c-.4.6-.1 1.4.5 1.8l21.2 12.3c.3.2.6.2.9.2 6.5-1.1 12.7-2.9 18.6-5.5l2-3.3c7.3 4.8 14 10.2 20.2 16.2-36.1 6.1-72.1 12.1-108.2 18.1-2.9.5-5.8.5-8.7.1-42-6-83.9-12-125.9-18-1.4-.2-2.3-1.3-2.7-3.4 0-.8.2-1.3.7-1.5.3-.2.5-.5.5-.8L67.9 265.4l-1-16.4z" style="fill:#212121"/><path d="M27.6 257.3c.9-.1 1.4.6 1.3 2-.1 7.7-.1 15.5 0 23.2 0 .7.6 1.3 1.3 1.3.2 0 .4-.1.6-.2 12-6.4 24.3-12.5 37-18.2l16.8 201.1c0 .3-.2.7-.5.8-.5.2-.7.8-.7 1.5L14 317.6c-.1-.3-.1-.6-.1-.8l13.7-59.5z" style="fill:#1a1a1a"/></svg>