<?xml version="1.0" encoding="utf-8"?>
<!-- Generator: Adobe Illustrator 27.6.1, SVG Export Plug-In . SVG Version: 6.00 Build 0)  -->
<svg version="1.1" id="Capa_1" xmlns="http://www.w3.org/2000/svg" xmlns:xlink="http://www.w3.org/1999/xlink" x="0px" y="0px"
	 viewBox="0 0 512 512" style="enable-background:new 0 0 512 512;" xml:space="preserve">
<style type="text/css">
	.st0{fill:#CE7549;}
	.st1{fill:#FFB24D;}
	.st2{fill:#282528;}
	.st3{fill:#DD8858;}
	.st4{opacity:0.37;fill:#282528;}
	.st5{fill:#FFC265;}
</style>
<g>
	<rect x="209.7" y="175.5" class="st0" width="95.9" height="32.6"/>
	<path class="st0" d="M360.1,9c-19.9-3-41.5-4.2-64.6-3.4l-58.5-0.1l-19.4,0.1c-18.6-0.5-37.1,0.2-55.5,2.1
		c-34.4,3.6-61.1,18.6-61.1,57.5c-0.4,0.7-0.4,1.7,0,2.9l-0.3,8.3c5.2,54.5,43.2,107.9,84.7,142c0-0.1,0-0.3,0.1-0.4
		c9.8-8,21.7-13.7,34.1-17.2l0.1-13.2c6.3,1.4,12.6,1.4,18.8-0.1c4.1-1.7,8.4-2.8,12.7-3.2c3.3-0.5,6.5-0.5,9.7-0.2
		c10.8,1.7,18.9,6.1,31.6,3.4l0.1,13.6c12.2,3.5,23.8,9,33.1,16.9c0.1,0.3,0.2,0.7,0.2,1c0.1-0.1,0.1-0.1,0.2-0.2
		c41.9-33.5,79.6-87.4,85.3-142.1v-9.4v-1.2C409.4,33,393.4,14.1,360.1,9z M230.8,97c5.8-6,6.1-18.4,3.4-25.7
		c-3-8-10.7-12.9-18.3-6.3c0,0,0,0,0,0c7.6-6.6,15.3-1.7,18.3,6.3C236.9,78.5,236.6,90.9,230.8,97z"/>
	<path class="st1" d="M217.5,5.6c-19.5,3.3-34.8,13.9-43.1,32.3c-22.4-0.2-58.2,4.7-70.6,25.7c-0.9,1.5-1.8,3-2.8,4.5
		c-0.5-1.2-0.5-2.2,0-2.9c-0.1-38.9,26.7-53.9,61.1-57.5C180.4,5.9,198.9,5.1,217.5,5.6z"/>
	<path class="st1" d="M411.4,65.9v1.2c-0.7-0.4-1.3-1-1.8-1.9c-9.6-15.8-27-21.8-44.6-24.9c-9.7-1.7-18.8-2.5-27.3-2.5
		C331.1,24.1,315.5,8,299.2,7.2c-1.5-0.1-2.8-0.6-3.8-1.6C318.6,4.9,340.2,6,360.1,9C393.4,14.1,409.4,33,411.4,65.9z"/>
	<path class="st2" d="M219.4,100.1c-11.1-10.5-12.3-22.2-3.5-35.2c7.6-6.6,15.3-1.7,18.3,6.3C238.2,81.8,235.7,103.3,219.4,100.1z"
		/>
	<path class="st3" d="M336.8,37.8C330.3,24,314.6,7.9,298.4,7.1c-1.5-0.1-2.8-0.6-3.8-1.6l-58.5-0.1l-19.4,0.1
		c-19.5,3.3-34.8,13.9-43.1,32.3C168.9,49,168,60.4,170.7,72c5.5,23.7,12.2,52,20.2,84.7c3.8,15.8,13.2,26,28,30.7
		c6.3,1.4,12.6,1.4,18.8-0.1c4.1-1.7,8.4-2.8,12.7-3.2c3.3-0.5,6.5-0.5,9.7-0.2c10.8,1.7,18.9,6.1,31.6,3.4
		c14.8-4.6,24.1-14.9,28-30.8c11.6-47.9,18.5-76.7,20.6-86.5C342.4,59.7,341.3,49,336.8,37.8z M233.4,71.2
		c2.7,7.3,2.4,19.7-3.4,25.7C235.8,90.9,236.1,78.4,233.4,71.2c-3-8-10.7-12.9-18.3-6.3c0,0,0,0,0,0
		C222.7,58.2,230.4,63.1,233.4,71.2z M209.7,85.5C209.7,85.5,209.7,85.5,209.7,85.5C209.7,85.5,209.7,85.5,209.7,85.5z M209.3,83.3
		C209.3,83.3,209.3,83.3,209.3,83.3C209.3,83.3,209.3,83.3,209.3,83.3z"/>
	<ellipse class="st4" cx="288.8" cy="81.2" rx="12.9" ry="19.3"/>
	<ellipse class="st4" cx="223" cy="79.3" rx="12.9" ry="19.3"/>
	<path class="st4" d="M227.4,140.2l0.3-0.2c2.1-1.3,4.8-0.7,6.1,1.4l6.3,9.9c1.3,2.1,0.7,4.8-1.4,6.1l-0.3,0.2
		c-2.1,1.3-4.8,0.7-6.1-1.4l-6.3-9.9C224.7,144.3,225.3,141.6,227.4,140.2z"/>
	<path class="st4" d="M284.4,140.1l0.3,0.2c2.1,1.3,2.7,4.1,1.3,6.2l-6.3,9.9c-1.3,2.1-4.1,2.7-6.2,1.3l-0.3-0.2
		c-2.1-1.3-2.7-4.1-1.3-6.2l6.3-9.9C279.6,139.3,282.4,138.7,284.4,140.1z"/>
	<path class="st3" d="M351.9,393.6c-5.8,29.6-14.2,58.3-25.5,86.3c-1.9,5.4-4,10.6-6.3,15.4c-1.7,5.7-3.9,10.3-10,11.2H200.9
		c-6.1-1-7.8-5.5-10.1-11.4l-6.1-15.3c-15.5-39-28.1-83.3-30.1-126.2c-0.4-9,0-18.4,1.4-28.3c1.7-12.2,5-22.7,9.9-31.3
		c4.7-10.3,14.3-20,22-26.8c4.7-6.2,8-9.6,7.1-17.2c-1.5-3.9-4.6-7.7-9.2-11.3c-0.9-3-1.1-6.5-0.7-10.5c-0.3-3.4-0.2-6.7,0.4-9.8
		c0-0.1,0-0.3,0.1-0.4c9.8-8,21.7-13.7,34.1-17.2c10.3-2.9,21-4.5,31.3-4.8h9.5c0.1,0,0.2,0,0.3,0c10.3,0.5,21.3,2.1,31.7,5
		c12.2,3.5,23.8,9,33.1,16.9c0.1,0.3,0.2,0.7,0.2,1c0.6,2.6,0.6,5.4,0.1,8.3c0.6,4.2,0.5,8-0.4,11.6c-4.4,3.1-7.4,6.8-9,11.1
		c-1.6,6.2,1.9,11.6,6,16.3c9.4,8.9,17.5,17.5,23.4,28.1C360.7,324.3,358.1,361.8,351.9,393.6z"/>
	<path class="st5" d="M185.2,218c41.9,0.2,83.8,0.3,125.7,0.1c3.7,0,9.5,0.5,14.4-0.2c0.8,2.9,0.9,6,0.4,9.3
		c-45.5,0.1-91,0.1-136.5,0.1c-0.2,0-1-0.1-2.2-0.4c-1.1-0.2-1.9,0.2-2.2,1.4C184.5,224.7,184.6,221.3,185.2,218z"/>
	<path class="st1" d="M325.7,227.1c0.6,4.2,0.5,8-0.4,11.6l-139.8,0c-0.9-3-1.1-6.5-0.7-10.5c0.4-1.2,1.1-1.6,2.2-1.4
		c1.2,0.2,2,0.4,2.2,0.4C234.7,227.2,280.2,227.2,325.7,227.1z"/>
	<path class="st0" d="M325.3,238.7c-4.4,3.1-7.4,6.8-9,11.1L194.7,250c-1.5-3.9-4.6-7.7-9.2-11.3L325.3,238.7z"/>
	<path class="st5" d="M322.2,266.1c9.4,8.9,17.5,17.5,23.4,28.1l-180.1-0.2c4.7-10.3,14.3-20,22-26.8c60.8,0.2,105.1,0.2,133,0.1
		C321.3,267.4,321.8,267,322.2,266.1z"/>
	<path class="st5" d="M326.2,479.9c-1.9,5.5-4,10.6-6.2,15.4l-129.4-0.1l-6.1-15.3C231.6,479.6,279,478.9,326.2,479.9z"/>
	<path class="st1" d="M190.5,495.2l129.4,0.1c-1.8,5.7-3.9,10.3-10,11.2H200.6C194.5,505.6,192.8,501.1,190.5,495.2z"/>
</g>
</svg>
