<svg xmlns="http://www.w3.org/2000/svg" xml:space="preserve" id="Capa_1" x="0" y="0" style="enable-background:new 0 0 512 512" version="1.1" viewBox="0 0 512 512"><style>.st2{fill:#08b7fc}.st5{fill:#006dff}.st7{fill:#ff0059}.st8{fill:#ff5e95}.st9{fill:#e50048}.st10{fill:#ffa2c3}</style><path d="M483.8 194.9c-24.4 17-48.8 34.1-73.3 51.2-.1.1-.3.2-.5.2-.7.2-1.5 0-1.8-.3-5.4-5.8-11-11.7-16.9-17.7-4.6-4.7-14.1-7.9-23.5-4.3-2 .8-4.2 2.3-6.4 4.7-4.6 4.8-9.2 9.6-13.7 14.4-.8.9-1.6.9-2.4 0-24.5-25.8-49.2-51.7-73.9-77.6-3.6-3.8-7.2-6.1-15.3-6.1h-.3c-7.5.3-11 2.2-14.5 5.8-24.9 26-49.7 52-74.4 78-.8.9-1.6.9-2.4 0-4.5-4.8-9.1-9.7-13.8-14.6-1.9-2-4-3.5-6.2-4.4-8.5-3.5-18.3-1.4-22.9 3.4-5.9 6.1-11.8 12.3-17.7 18.4-.1.1-.2.2-.4.3-.6.2-1.5.2-1.9-.1C78 229.6 54.3 213 30.3 196.4c-3.5-2.5-6.5-4-8.9-4.7-8.9-2.4-19.4.9-21.3 6.1v1.8c19.4 40.9 38.9 81.8 58.5 122.6 3.6 7.6 5 10.7 20.8 10.7 58.8 0 117.6 0 176.4.1h.1c58.8.1 117.7.2 176.6.1 10.8 0 17-1.6 19.6-7.1 19.9-41.9 39.9-83.8 60-125.6v-2.9c-3.7-7.6-19.5-8.8-28.3-2.6z" style="fill:#edbf35"/><path d="M483.8 194.9c-24.4 17-48.8 34.1-73.3 51.2-.1.1-.3.2-.5.2-.7.2-1.5 0-1.8-.3-5.4-5.8-11-11.7-16.9-17.7-4.6-4.7-14.1-7.9-23.5-4.3-2 .8-4.2 2.3-6.4 4.7-4.6 4.8-9.2 9.6-13.7 14.4-.8.9-1.6.9-2.4 0-24.5-25.8-49.2-51.7-73.9-77.6-3.6-3.8-7.2-6.1-15.3-6.1h-.3v173.7h.1c58.8.1 117.7.2 176.6.1 10.8 0 17-1.6 19.6-7.1 19.9-41.9 39.9-83.8 60-125.6v-2.9c-3.7-7.7-19.5-8.9-28.3-2.7z" style="fill:#ffcd39"/><path d="M301.1 236.2c0-.1-.1-.3-.4-.4-14.8-8.5-29.7-17.1-44.5-25.6-.1-.1-.3-.1-.4 0L211.1 236h-.1s-.1.1-.1.2V288l44.9 25.9c.1.1.3.1.4 0 14.8-8.6 29.7-17.1 44.5-25.7.3-.1.3-.3.2-.5l.2-51.5zm-44.8-3.3c-.1 0-.1 0 0 0-.1 0-.1 0 0 0zm-.3.2v-.1.1z" class="st2"/><path d="M256.2 210.2c14.8 8.5 29.7 17.1 44.5 25.6.2.1.3.3.4.4-.2 0-.3 0-.4.1-6.3 3.6-12.7 7.3-19.1 11.1L256.5 233c-.1-.1-.3 0-.4.1V291l.1.4h-.2l-25.3-14.6-.1-22.5.1-6.8c0-.1.1-.2.1-.2l25.1-14.5c.1 0 .1-.1.1-.2v-22c0-.1 0-.1.1-.2l.1-.2z" style="fill:#82d2ff"/><path d="M281.5 247.3c-.2.4 0 .8 0 1.1 0 9.4 0 18.8-.1 28.2l-25.3 14.6-.1-.4V233c0-.2.1-.3.3-.3h.1l25.1 14.6z" style="fill:#55cbff"/><path d="M211.1 235.9c.2.2.3.4.4.4 6.3 3.6 12.6 7.2 18.9 10.9.1 0 .1.1.1.2v6.8l.1 22.5c-.1 0-.2 0-.3.1-6.4 3.7-12.9 7.5-19.4 11.2v-51.8c.1-.1.1-.2.2-.3z" class="st5"/><path d="M301.1 236.2v51.5c-6.6-3.6-13.1-7.2-19.6-11.1 0-9.4 0-18.8.1-28.2 0-.3-.1-.7 0-1.1 6.4-3.7 12.8-7.4 19.1-11.1h.4z" class="st2"/><path d="M281.4 276.7c6.5 3.8 13 7.5 19.6 11.1.1.2 0 .3-.2.5-14.8 8.6-29.7 17.1-44.5 25.7-.2.1-.3.1-.4 0 .1-.3.2-.5.2-.5 0-7.3 0-14.7-.1-22h.2l25.2-14.8z" class="st5"/><path d="m230.6 276.7 25.3 14.6c.1 7.3.1 14.7.1 22 0 .1-.1.3-.2.5L210.9 288c6.5-3.7 13-7.4 19.4-11.2.1-.1.2-.1.3-.1z" style="fill:#0050c0"/><path d="m256.2 210.2-.1.2s-.1.1-.1.2v22c0 .1-.1.2-.1.2l-25.1 14.5c-.1 0-.1.1-.1.2l-.1 6.8v-6.8c0-.1-.1-.2-.1-.2-6.3-3.7-12.6-7.3-18.9-10.9-.1 0-.2-.2-.4-.4l44.7-25.8c0-.1.2-.1.3 0z" class="st2"/><path d="M155.2 270.5c0-.1-.1-.2-.2-.4-.1-.3-.2-.5-.4-.6-6.8-4.6-13.6-9.1-20.3-13.7-.4-.3-.8-.5-1.1-.6h-.7c-.3.1-.5.1-.6.2-6.9 4.6-13.8 9.3-20.7 13.9-.3.2-.4.4-.6.7-.1.2-.2.4-.2.6v27.9c0 .1.1.2.2.4.1.3.3.5.5.7 6.9 4.6 13.8 9.3 20.7 13.9.2.1.5.2.7.3h.7c.3-.1.4-.1.6-.2 7-4.7 13.9-9.4 20.9-14 .1-.1.2-.2.3-.4.2-.3.3-.5.3-.6-.1-9.3-.1-18.7-.1-28.1zm-22.4-.1zm-.1 0zm0 28.4zm.1-.1z" class="st7"/><path d="M132.6 255.2h.3v14.9c0 .1 0 .1.1.1.3.2.9.5 1.6.9 2.9 1.5 5.7 3.1 8.6 4.6v17.6l-10.2 5.5c-.1 0-.1.1-.1.1v14.9h-.4c-.2-.1-.5-.2-.7-.3-6.9-4.6-13.8-9.3-20.7-13.9-.2-.1-.4-.4-.5-.7l11.8-5.7 10.1 5.4c.1 0 .2 0 .2-.1V270.3c0-.1-.1-.2-.2-.2h-.1l-10.1 5.4c-3.2-1.5-6.4-3-9.6-4.6-.8-.4-1.5-.8-2.3-1.1.1-.3.3-.6.6-.7 6.9-4.6 13.8-9.3 20.7-13.9.4.2.6.1.9 0z" class="st8"/><path d="M132.9 255.2h.4c.3.1.7.3 1.1.6 6.8 4.6 13.6 9.1 20.3 13.7.2.1.3.3.4.6l-11.8 5.7c-2.9-1.5-5.8-3-8.6-4.6-.8-.4-1.3-.7-1.6-.9l-.1-.1-.1-15z" class="st7"/><path d="M155.1 270.1c.1.2.2.3.2.4v28.1c0 .1-.1.3-.3.6 0-.1 0-.2-.1-.3-3.9-1.9-7.8-3.7-11.6-5.6v-17.6l11.8-5.6z" class="st9"/><path d="M110.7 270.1c.8.3 1.5.7 2.3 1.1 3.2 1.5 6.4 3.1 9.6 4.6v17.6l-11.8 5.7c-.1-.2-.2-.3-.2-.4v-27.9c-.1-.3 0-.5.1-.7z" class="st7"/><path d="M122.5 293.4v-17.6l10.1-5.4c.1 0 .2 0 .2.1V298.7c0 .1-.1.2-.2.2h-.1l-10-5.5z" class="st10"/><path d="M143.2 293.4c3.9 1.9 7.7 3.8 11.6 5.6.1.1.1.1.1.3-.1.2-.2.4-.3.4-7 4.7-13.9 9.4-20.9 14-.1.1-.3.1-.6.2h-.3V299c0-.1 0-.1.1-.1l10.3-5.5zM89.2 261.8c0-.1 0-.2-.1-.3-.1-.2-.2-.3-.3-.4-4.3-2.9-8.7-5.8-13-8.7-.3-.2-.5-.3-.7-.4h-.4c-.2 0-.3.1-.4.2-4.4 3-8.8 5.9-13.2 8.9-.2.1-.3.3-.4.5-.1.1-.1.2-.1.4v17.8c0 .1 0 .1.1.2.1.2.2.3.3.4 4.4 3 8.8 5.9 13.2 8.9.1.1.3.1.4.2h.4c.2 0 .3-.1.4-.1 4.4-3 8.9-6 13.3-9 .1 0 .1-.1.2-.3.1-.2.2-.3.2-.4.1-5.9.1-11.9.1-17.9zm-14.3 0c-.1 0-.1 0 0 0-.1 0-.1 0 0 0zm-.1 0c-.1 0 0 0 0 0zm0 18.1zm0 0s0-.1 0 0c0-.1 0 0 0 0z" class="st7"/><path d="M74.7 252.1h.2v9.6c.2.1.6.3 1.1.6 1.8 1 3.7 2 5.5 2.9v11.3L75 280l-.1.1v9.5h-.2c-.2-.1-.3-.1-.4-.2-4.4-3-8.8-5.9-13.2-8.9-.1-.1-.2-.2-.3-.4l7.6-3.6 6.4 3.4h.1v-18c0-.1 0-.1-.1-.1l-6.5 3.5c-2-1-4.1-1.9-6.1-2.9-.5-.2-1-.5-1.5-.7.1-.2.2-.4.4-.5 4.4-3 8.8-5.9 13.2-8.9.1-.1.2-.2.4-.2z" class="st8"/><path d="M74.9 252.1h.2c.2.1.4.2.7.4 4.3 2.9 8.7 5.8 13 8.7.1.1.2.2.3.4l-7.6 3.6c-1.8-1-3.7-1.9-5.5-2.9-.5-.3-.8-.5-1.1-.6v-9.6z" class="st7"/><path d="M89 261.6c.1.1.1.2.1.3v18c0 .1-.1.2-.2.4 0-.1 0-.1-.1-.2-2.5-1.2-5-2.4-7.4-3.6v-11.3l7.6-3.6z" class="st9"/><path d="M60.7 261.6c.5.2 1 .4 1.5.7 2 1 4.1 2 6.1 2.9v11.3l-7.6 3.6c-.1-.1-.1-.2-.1-.2v-17.8c0-.2 0-.4.1-.5z" class="st7"/><path d="M68.3 276.5v-11.3l6.5-3.5h.1v18c0 .1 0 .1-.1.1l-6.5-3.3z" class="st10"/><path d="M81.5 276.5c2.5 1.2 4.9 2.4 7.4 3.6.1 0 .1.1.1.2-.1.1-.1.2-.2.3-4.4 3-8.9 6-13.3 9-.1 0-.2.1-.4.1h-.2v-9.5s0-.1.1-.1l6.5-3.6zM454 261.9c0-.1 0-.2-.1-.3-.1-.2-.2-.3-.3-.4-4.3-2.9-8.7-5.8-13-8.7-.3-.2-.5-.3-.7-.4h-.4c-.2 0-.3.1-.4.2-4.4 3-8.8 5.9-13.2 8.9-.2.1-.3.3-.4.5-.1.1-.1.2-.1.4v17.8c0 .1 0 .1.1.2.1.2.2.3.3.4 4.4 3 8.8 5.9 13.2 8.9.1.1.3.1.4.2h.4c.2 0 .3-.1.4-.1 4.4-3 8.9-6 13.3-9 .1 0 .1-.1.2-.3.1-.2.2-.3.2-.4.1-5.9.1-11.9.1-17.9zm-14.3-.1s-.1 0 0 0c-.1 0 0 0 0 0zm-.1 0zm0 18.2zm0-.1s.1 0 0 0c.1 0 .1 0 0 0z" class="st7"/><path d="M439.5 252.1h.2v9.6c.2.1.6.3 1.1.6 1.8 1 3.7 2 5.5 2.9v11.3l-6.5 3.5-.1.1v9.5h-.2c-.2-.1-.3-.1-.4-.2-4.4-3-8.8-5.9-13.2-8.9-.1-.1-.2-.2-.3-.4l7.6-3.6 6.4 3.4h.1v-18c0-.1 0-.1-.1-.1l-6.5 3.5c-2-1-4.1-1.9-6.1-2.9-.5-.2-1-.5-1.5-.7.1-.2.2-.4.4-.5 4.4-3 8.8-5.9 13.2-8.9.1-.1.2-.1.4-.2z" class="st8"/><path d="M439.7 252.1h.2c.2.1.4.2.7.4 4.3 2.9 8.7 5.8 13 8.7.1.1.2.2.3.4l-7.6 3.6c-1.8-1-3.7-1.9-5.5-2.9-.5-.3-.8-.5-1.1-.6v-9.6z" class="st7"/><path d="M453.8 261.6c.1.1.1.2.1.3v18c0 .1-.1.2-.2.4 0-.1 0-.1-.1-.2-2.5-1.2-5-2.4-7.4-3.6v-11.3l7.6-3.6z" class="st9"/><path d="M425.5 261.7c.5.2 1 .4 1.5.7 2 1 4.1 2 6.1 2.9v11.3l-7.6 3.6c-.1-.1-.1-.2-.1-.2v-17.8c0-.3 0-.4.1-.5z" class="st7"/><path d="M433.1 276.5v-11.3l6.5-3.5h.1v18c0 .1 0 .1-.1.1l-6.5-3.3z" class="st10"/><path d="M446.3 276.5c2.5 1.2 4.9 2.4 7.4 3.6.1 0 .1.1.1.2-.1.1-.1.2-.2.3-4.4 3-8.9 6-13.3 9-.1 0-.2.1-.4.1h-.2v-9.5s0-.1.1-.1l6.5-3.6zM398.1 270.5c0-.1-.1-.2-.2-.4-.1-.3-.2-.5-.4-.6-6.8-4.6-13.6-9.1-20.3-13.7-.4-.3-.8-.5-1.1-.6h-.7c-.3.1-.5.1-.6.2-6.9 4.6-13.8 9.3-20.7 13.9-.3.2-.4.4-.6.7-.1.2-.2.4-.2.6v27.9c0 .1.1.2.2.4.1.3.3.5.5.7 6.9 4.6 13.8 9.3 20.7 13.9.2.1.5.2.7.3h.7c.3-.1.4-.1.6-.2 7-4.7 13.9-9.4 20.9-14 .1-.1.2-.2.3-.4.2-.3.3-.5.3-.6-.1-9.3-.1-18.7-.1-28.1zm-22.4-.1zm-.1 0c-.1 0 0 0 0 0zm0 28.4zm.1-.1z" class="st7"/><path d="M375.5 255.2h.3v14.9c0 .1 0 .1.1.1.3.2.9.5 1.6.9 2.9 1.5 5.7 3.1 8.6 4.6v17.6l-10.2 5.5c-.1 0-.1.1-.1.1v14.9h-.4c-.2-.1-.5-.2-.7-.3-6.9-4.6-13.8-9.3-20.7-13.9-.2-.1-.4-.4-.5-.7l11.8-5.7 10.1 5.4c.1 0 .2 0 .2-.1V270.3c0-.1-.1-.2-.2-.2h-.1l-10.1 5.4c-3.2-1.5-6.4-3-9.6-4.6-.8-.4-1.5-.8-2.3-1.1.1-.3.3-.6.6-.7 6.9-4.6 13.8-9.3 20.7-13.9.4.2.6.1.9 0z" class="st8"/><path d="M375.7 255.2h.4c.3.1.7.3 1.1.6 6.8 4.6 13.6 9.1 20.3 13.7.2.1.3.3.4.6l-11.8 5.7c-2.9-1.5-5.8-3-8.6-4.6-.8-.4-1.3-.7-1.6-.9l-.1-.1-.1-15z" class="st7"/><path d="M397.9 270.1c.1.2.2.3.2.4v28.1c0 .1-.1.3-.3.6 0-.1 0-.2-.1-.3-3.9-1.9-7.8-3.7-11.6-5.6v-17.6l11.8-5.6z" class="st9"/><path d="M353.6 270.1c.8.3 1.5.7 2.3 1.1 3.2 1.5 6.4 3.1 9.6 4.6v17.6l-11.8 5.7c-.1-.2-.2-.3-.2-.4v-27.9c-.1-.3 0-.5.1-.7z" class="st7"/><path d="M365.4 293.4v-17.6l10.1-5.4c.1 0 .2 0 .2.1V298.7c0 .1-.1.2-.2.2h-.1l-10-5.5z" class="st10"/><path d="M386.1 293.4c3.9 1.9 7.7 3.8 11.6 5.6.1.1.1.1.1.3-.1.2-.2.4-.3.4-7 4.7-13.9 9.4-20.9 14-.1.1-.3.1-.6.2h-.3V299c0-.1 0-.1.1-.1l10.3-5.5z" class="st7"/><path d="M457.4 352.6H54.1c-4.5 0-8.2-3.7-8.2-8.2V337c0-4.5 3.7-8.2 8.2-8.2h403.4c4.5 0 8.2 3.7 8.2 8.2v7.4c-.1 4.6-3.8 8.2-8.3 8.2z" style="fill:#fdffd6"/></svg>