<?xml version="1.0" encoding="utf-8"?>
<!-- Generator: Adobe Illustrator 27.6.1, SVG Export Plug-In . SVG Version: 6.00 Build 0)  -->
<svg version="1.1" id="Capa_1" xmlns="http://www.w3.org/2000/svg" xmlns:xlink="http://www.w3.org/1999/xlink" x="0px" y="0px"
	 viewBox="0 0 512 512" style="enable-background:new 0 0 512 512;" xml:space="preserve">
<style type="text/css">
	.st0{fill:#4D351E;}
	.st1{fill:#654628;}
	.st2{fill:#3B2817;}
	.st3{fill:#4A321D;}
	.st4{fill:#555555;}
	.st5{opacity:0.72;fill:#555555;enable-background:new    ;}
	.st6{fill:#FFC107;}
</style>
<path class="st0" d="M371.1,18.6L17.6,495.1c-5-3.7-8-9.2-8.9-14.9c-0.9-5.8,0.5-11.8,4.2-16.9l326.4-440
	C346.8,13.3,361,11.2,371.1,18.6z"/>
<path class="st1" d="M17.6,495.1L371.1,18.6c5,3.7,8,9.2,8.9,14.9c0.9,5.8-0.5,11.8-4.2,16.9l-326.4,440
	C41.8,500.4,27.6,502.5,17.6,495.1z"/>
<path class="st2" d="M79.4,461.6l-13.3,18c-1.1,1.4-3.1,1.7-4.5,0.7L20,449.5c-1.4-1.1-1.7-3.1-0.7-4.5l13.3-18
	c1.1-1.4,3.1-1.7,4.5-0.7L78.7,457C80.2,458.1,80.5,460.1,79.4,461.6z"/>
<path class="st2" d="M113.5,415.6l-13.3,18c-1.1,1.4-3.1,1.7-4.5,0.7l-41.5-30.8c-1.4-1.1-1.7-3.1-0.7-4.5l13.3-18
	c1.1-1.4,3.1-1.7,4.5-0.7l41.5,30.8C114.2,412.2,114.5,414.2,113.5,415.6z"/>
<path class="st2" d="M147.5,369.7l-13.3,18c-1.1,1.4-3.1,1.7-4.5,0.7l-41.5-30.8c-1.4-1.1-1.7-3.1-0.7-4.5l13.3-18
	c1.1-1.4,3.1-1.7,4.5-0.7l41.5,30.8C148.3,366.2,148.6,368.3,147.5,369.7z"/>
<path class="st3" d="M102.2,443l-13.3,18c-1.1,1.4-3.1,1.7-4.5,0.7l-53.2-39.4c-1.4-1.1-1.7-3.1-0.7-4.5l13.3-18
	c1.1-1.4,3.1-1.7,4.5-0.7l53.2,39.4C103,439.5,103.3,441.6,102.2,443z"/>
<path class="st3" d="M136.4,396.9l-13.3,18c-1.1,1.4-3.1,1.7-4.5,0.7l-53.2-39.4c-1.4-1.1-1.7-3.1-0.7-4.5l13.3-18
	c1.1-1.4,3.1-1.7,4.5-0.7l53.2,39.4C137.2,393.4,137.5,395.5,136.4,396.9z"/>
<path class="st4" d="M496.8,143.2c-17.2,20.5-35.5,41.3-55,62.4c-21.9,23.6-43.6,45.7-64.9,66.3c-8.7-12.2-17.5-24.3-26.2-36.5
	c5.4-5.2,12.8-12.6,21.1-22c8.7-9.8,13.6-15.4,19-23.9c7.4-11.7,12.7-20.1,13.1-32.2c0.1-3.2,0.4-14.2-6.2-24.4
	c-9.6-15-27.7-18.7-42.5-21.5c-29.2-5.5-51.2-2.6-51.2-2.6s-5.3-33.3-25.2-50.9l32.3-45.5c14,8.5,28.1,17.3,42.3,26.5
	C405.8,73,453.5,108.1,496.8,143.2z"/>
<path class="st5" d="M505.6,150.4c-14.4,19.5-31,40.2-50,61.3c-24.5,27.3-48.8,50.5-71.5,70.2c-2.4-3.3-4.8-6.6-7.2-10
	c21.3-20.6,43-42.7,64.9-66.3c19.5-21.1,37.8-41.9,55-62.4C499.8,145.6,502.7,148,505.6,150.4z"/>
<path class="st6" d="M147.8,244.4c3.1,2.2,5.5,5.3,7.2,9.3c10.3,24,20.5,48,30.5,72c0.2,0.5,0.7,0.8,1.2,0.9c27.3,2.5,54.6,5,82,7.5
	c2.4,0.2,4.7,1.3,6.9,3.3c13,12,0.5,22.6-8.7,30.4l-51.7,45.3c-0.4,0.3-0.6,0.9-0.5,1.4c5.8,25.7,11.5,51.3,17.2,76.6
	c2.2,9.8-0.8,17.3-10.8,20.3l-5.5,0.3c-25.1-13.9-49.7-28.4-74.1-43.5c-0.4-0.3-1-0.3-1.5,0l-74.6,43.6l-5.2-0.4
	c-10-3.3-13.8-10.1-11.4-20.4c5.8-25.2,11.6-50.6,17.5-76.2c0.1-0.5-0.1-1-0.4-1.4c-20.1-17.7-40.1-35.3-59.9-52.8
	c-2.3-2-4.2-4.8-5.7-8.4v-8.9c2.8-2.4,4.5-6.4,9.1-8.2c1.5-0.6,3.6-1,6.3-1.3c19.4-1.8,38.6-3.6,57.7-5.3l20.3-1.6
	c0.5,0,1-0.4,1.2-0.9l16.5-38.2c5.3-12.6,10.8-25.1,16.4-37.6c1.1-2.6,3.4-4.2,5.5-5.8C138,242.1,142.9,242.1,147.8,244.4z"/>
</svg>
