<?xml version="1.0" encoding="utf-8"?>
<!-- Generator: Adobe Illustrator 27.6.1, SVG Export Plug-In . SVG Version: 6.00 Build 0)  -->
<svg version="1.1" id="Capa_1" xmlns="http://www.w3.org/2000/svg" xmlns:xlink="http://www.w3.org/1999/xlink" x="0px" y="0px"
	 viewBox="0 0 512 512" style="enable-background:new 0 0 512 512;" xml:space="preserve">
<style type="text/css">
	.st0{fill:#5C1100;}
	.st1{fill:#D8D7DA;}
	.st2{fill:#420C00;}
	.st3{fill:#ACABB1;}
	.st4{fill:#330A00;}
	.st5{fill:#8C4203;}
	.st6{fill:#9F4B03;}
</style>
<g>
	<path class="st0" d="M256.8,373.3c-4.6-20.9-13-37.5-25.4-54.2c-11-14.7-24.6-26.5-40.7-35.3c-0.1-0.1-0.3-0.4-0.6-0.8
		c-0.1-0.2-0.2-0.3-0.4-0.4c-3-1.3-23.2-10.6-23.4-13c0.8-1.9,1.1-4.1,1-6.7c-1.1-27.9-36.7-41.6-53.2-17.4
		c-8.1,10.5-8.1,21.1-0.2,31.7c11.1,14.9,24.7,26.9,41,35.9c-10.4,8.7-20.2,18.3-29.6,28.7c-0.6,0.6-1.4,0.8-2.3,0.6
		c-11.1-3.1-26.5,1.7-23.6,15.9c0.7,3.4,2.3,6.4,4.7,9.1c-6.1,8.2-11.6,16.9-16.4,26.2c-9.8,1-20.5,3.5-21.2,14.3
		c-0.4,6.3,2.7,11.4,9.2,15.1c-3.5,11-5.1,22.3-4.9,33.9c0.5,22.9,15.3,46.8,39.5,49.9h1c7.3-0.4,14.2-2.3,20.5-6
		c10.2-6.4,15.8-15.7,16.7-27.8c-1-10.6-0.4-21,1.7-31.4c18.1,1.4,24.7-19.7,8.3-27.8l8.7-18.3c16.2,6.8,30-10.5,15.7-24.4
		l16.5-20.6c0.1-0.1,0.1-0.1,0.2-0.2c0.6-0.5,1.4-0.4,1.9,0.2c2.8,3.4,4.6,6.8,5.2,10.2c-5.9,6.5-8.7,13.6-8.4,21.1
		c1.3,28.7,38,39,54.3,15.4C257.3,390.1,258.7,382.2,256.8,373.3z M123.4,398.4c0,0.1,0,0.2,0,0.3
		C123.4,398.6,123.4,398.5,123.4,398.4z M123.3,397.9c0,0.1,0.1,0.2,0.1,0.2C123.4,398.1,123.4,398,123.3,397.9z M123.2,397.7
		c0-0.1-0.1-0.1-0.2-0.2C123.1,397.6,123.1,397.6,123.2,397.7z M124.3,396.5c0,0.1,0,0.2,0,0.3C124.3,396.7,124.3,396.6,124.3,396.5
		z M124.4,397.3c0-0.1-0.1-0.2-0.1-0.2C124.3,397.1,124.4,397.2,124.4,397.3z M155.5,351.1c0,0.1,0,0.2,0,0.3
		C155.5,351.3,155.5,351.2,155.5,351.1z M155.6,351.6c0,0.1,0.1,0.2,0.1,0.2C155.7,351.8,155.6,351.7,155.6,351.6z M155.5,350.9
		c0-0.1,0-0.2,0.1-0.3C155.6,350.7,155.5,350.8,155.5,350.9z M178,326.5c0-0.1,0-0.2,0-0.3C178,326.3,178,326.4,178,326.5z M178,326
		c0-0.1-0.1-0.2-0.1-0.2C177.9,325.8,178,325.9,178,326z M177.7,325.4C177.7,325.4,177.7,325.5,177.7,325.4c0,0-0.1-0.1-0.3-0.2
		C177.5,325.3,177.6,325.3,177.7,325.4z M178,326.7c0,0.1-0.1,0.2-0.1,0.3C177.9,326.9,177.9,326.8,178,326.7z M153.9,352.4
		c0-0.1,0-0.2,0-0.3C153.9,352.2,153.9,352.3,153.9,352.4z M153.9,351.9c0-0.1,0-0.2-0.1-0.2C153.9,351.8,153.9,351.8,153.9,351.9z
		 M153.7,351.2c0,0.1,0.1,0.1,0.1,0.2C153.8,351.4,153.7,351.3,153.7,351.2z M153.5,351C153.5,351,153.5,351,153.5,351
		c-0.1-0.1-0.2-0.2-0.4-0.2C153.2,350.8,153.3,350.9,153.5,351z M122.7,397.3C122.8,397.3,122.8,397.3,122.7,397.3
		c0,0-0.1-0.1-0.3-0.1C122.5,397.2,122.6,397.2,122.7,397.3z M124.5,397.5c0,0.1,0.1,0.1,0.2,0.2
		C124.6,397.6,124.6,397.6,124.5,397.5z M125,397.9C124.9,397.9,124.9,397.9,125,397.9c0,0,0.1,0.1,0.3,0.1
		C125.1,398,125,398,125,397.9z M155.9,352.1C155.9,352.1,155.9,352.1,155.9,352.1c0,0,0.1,0.1,0.2,0.2
		C156.1,352.3,156,352.2,155.9,352.1z"/>
	<path class="st1" d="M445.4,14.2c-0.1-4.2-2.4-7.2-7.1-9L437,5.1c-1.8,9.8-4,19.4-6.7,28.9c-0.8,2.8-1.6,5.6-2.5,8.3
		c0.9-2.8,1.7-5.5,2.5-8.3c2.7-9.5,4.9-19.1,6.7-28.9l-4.7,0.1c-2.7,1.1-4.3,2.4-5.1,3.7C393,73.4,347.2,130.6,296,183.1
		c-37.5,38.4-72.9,71.7-106.4,99.7c0.2,0.1,0.3,0.2,0.4,0.4c0.2,0.4,0.5,0.7,0.6,0.8c16.1,8.8,29.7,20.5,40.7,35.3
		c9.3-8.3,32.3-31.4,43.6-13.9c2.1,3.3,3.4,10.6,7.7,12.9c3.9,2.1,7.3,0.8,10.4-2.3c7.7-8.1,15.4-16.4,23-24.8
		c-3.4-1.7-6.8-3.4-10.2-5.2c-1.5-0.7-2.9-1.5-4.2-2.3c-2-1.2-3.8-2.6-5.4-4c1.6,1.5,3.5,2.8,5.4,4c1.3,0.8,2.7,1.6,4.2,2.3
		c3.4,1.7,6.8,3.4,10.2,5.2c5.8-5.9,11.3-12.2,16.6-18.9C391.5,202.9,447.1,108,445.4,14.2z M287.4,267.2c-1.1-2.8-1.9-5.8-2.4-9.2
		v0C285.5,261.4,286.3,264.4,287.4,267.2c1.7,4.2,4.1,7.7,7.1,10.8C291.5,274.9,289.1,271.3,287.4,267.2z M285.3,256.9
		c-0.3,0.3-0.4,0.7-0.3,1.1C285,257.6,285.1,257.2,285.3,256.9l19.3-20.7L285.3,256.9z M426.9,45c-0.9,2.6-1.7,5.2-2.7,7.8
		C425.2,50.2,426.1,47.6,426.9,45z"/>
	<path class="st2" d="M166.3,269.7c-3.2,0.5-15.7-14.5-17.8-17.1c-8.6-10.3-17-15.2-30.4-8.6c-0.2,0.1-0.4,0.3-0.5,0.5
		c-0.8,1.3-1.9,1.6-3.4,1c16.4-24.1,52.1-10.5,53.2,17.4C167.4,265.6,167.1,267.9,166.3,269.7z"/>
	<path class="st3" d="M445.4,14.2c-0.1-4.2-2.4-7.2-7.1-9L437,5.1c-4.7,26.1-12.8,51.1-24.1,75c-27.2,57.2-66,109.2-108.3,156
		l-19.3,20.7c-0.3,0.3-0.4,0.7-0.3,1.1c1.9,13.4,9,22,20.7,27.9c3.4,1.7,6.8,3.4,10.2,5.2c5.8-5.9,11.3-12.2,16.6-18.9
		C391.5,202.9,447.1,108,445.4,14.2z"/>
	<path class="st2" d="M154.9,313.2c7.8,3.4,15.3,7.4,22.5,12c0.6,0.4,0.8,1.2,0.4,1.8c-0.1,0.1-0.1,0.2-0.2,0.3
		c-7.7,7.3-14.9,14.9-21.8,23c-0.5,0.6-0.4,1.4,0.1,1.9c0.1,0.1,0.1,0.1,0.2,0.2c9.7,5.2,18.6,11.5,26.9,18.8
		c14.3,13.9,0.4,31.3-15.7,24.4c-8.3-9.3-18.2-16.3-29.7-20.9c5.1-8,10.5-15.3,16.1-21.8c0.5-0.6,0.4-1.4-0.2-1.9
		c-0.1-0.1-0.2-0.2-0.4-0.2c-9.6-3.7-18.9-6.7-27.7-8.8C134.7,331.5,144.5,321.9,154.9,313.2z"/>
	<path class="st4" d="M125.3,341.9c8.9,2.2,18.1,5.1,27.7,8.8c0.7,0.3,1,1,0.8,1.7c-0.1,0.1-0.1,0.3-0.2,0.4
		c-5.6,6.6-10.9,13.9-16.1,21.8l-0.6,0.1c-9.2-4-18.8-5.7-29-5.1c-0.6,0-1.2-0.4-1.4-1c-0.4-1.6-1.2-2-2.4-1.2
		c-2.5-2.7-4-5.7-4.7-9.1c-2.9-14.2,12.6-19,23.6-15.9C124,342.7,124.7,342.5,125.3,341.9z"/>
	<path class="st2" d="M206.8,360.6c4.3,6,7.1,12.4,8.2,19.2c3,17.8,18.1,28.8,35,17c1.1-0.8,2-0.7,2.6,0.3
		c-16.3,23.6-53,13.4-54.3-15.4C198.1,374.2,200.9,367.2,206.8,360.6z"/>
	<path class="st2" d="M136.9,374.8l-12.5,21.4c-0.4,0.6-0.2,1.5,0.5,1.8c0.1,0.1,0.2,0.1,0.3,0.1c11.7,3.6,22.8,8.9,33.3,15.8
		c16.4,8.1,9.8,29.2-8.3,27.8c-12.1-7-21.4-13.7-36.5-17.4c2.4-8.7,5.5-17.1,9.5-25.2c0.3-0.7,0-1.5-0.6-1.8c-0.1,0-0.2-0.1-0.3-0.1
		c-12-3-22.4-3.2-34.6-3.5c4.8-9.3,10.2-18.1,16.4-26.2c1.2-0.8,2-0.4,2.4,1.2c0.1,0.6,0.7,1.1,1.4,1
		C118.1,369.1,127.8,370.8,136.9,374.8z"/>
	<path class="st4" d="M87.8,393.7c12.3,0.3,22.6,0.5,34.6,3.5c0.7,0.2,1.2,0.9,1,1.6c0,0.1-0.1,0.2-0.1,0.3
		c-4,8.1-7.1,16.5-9.5,25.2c-12.6-2.6-25.3-3-38-1.2c-6.5-3.8-9.6-8.8-9.2-15.1C67.2,397.1,78,394.6,87.8,393.7z"/>
	<path class="st2" d="M113.8,424.3c-3.4,10.5-5.2,21.3-5.4,32.4c-12.5-3-25-2.9-37.6,0.3c-0.2-11.6,1.4-22.9,4.9-33.9
		C88.5,421.3,101.2,421.7,113.8,424.3z"/>
	<path class="st5" d="M108.5,456.7l1,0.4c0,18.5,7.5,33.1,22.4,43.8c-6.3,3.6-13.2,5.6-20.5,6h-1c-24.2-3.1-39-27-39.5-49.9
		C83.5,453.8,96,453.7,108.5,456.7z"/>
	<path class="st6" d="M109.5,457.1c13.9,3.1,27,8.4,39.1,16c-0.9,12.1-6.5,21.4-16.7,27.8C117,490.2,109.5,475.6,109.5,457.1z"/>
</g>
</svg>
