<svg xmlns="http://www.w3.org/2000/svg" xml:space="preserve" id="Capa_1" x="0" y="0" style="enable-background:new 0 0 512 512" version="1.1" viewBox="0 0 512 512"><style>.st2{fill:#0070bf}.st3{fill:#fff}</style><path d="M435.7 124.3c.6-1.4.9-2.9.9-4.7-.5-17.2-1-34.4-1.7-51.7 0-.7-.6-1.2-1.2-1.3-17.7-1.5-35.2-3.9-52.5-7.1-26.5-5.6-52-14.1-76.6-25.3-15.7-10.8-31.7-20.8-47.8-30-.4-.2-.9-.2-1.3 0-16.3 9.2-32.1 19.1-47.3 29.6-24.6 11.3-50.1 19.9-76.6 25.6-17.1 3.2-34.3 5.5-51.7 7.1-.7.1-1.2.6-1.2 1.3L76.5 125c-2.2 58.3-3.1 120.8 9.9 179.4 16.4 73.8 60.3 130.7 121.5 173.4 15.4 11 31.2 20.9 47.6 29.9.4.2.9.2 1.3 0 16.4-9.1 32.2-19.1 47.5-29.8 59.6-41.9 102.8-96.5 120.3-168.3 14.6-60.4 12.9-122.6 11.1-185.3zm-15.6 1.9zm-.3-.5c.1.1.1.3.2.4-.1-.1-.1-.2-.2-.4zm.7.8c.1.1.3.1.5.1-.2 0-.4-.1-.5-.1zm.5.1c.2 0 .3 0 .5-.1-.2.1-.4.1-.5.1zm.5-.1c.1 0 .3-.1.4-.2-.1.1-.2.2-.4.2z" style="fill:#9c9c9c"/><path d="M295 47.6c26.5 12.6 54.2 21.9 83 27.9 31.3 6.9 41.7 17.2 41.6 49.9-.2 12.4-.2 24.8.2 37.2 3 92.9-5.3 184.4-71.6 255.9-15.8 17-33.7 32.4-53.8 46.2-6.9 4.8-13 8-18.3 9.8-7.1 2.3-13.5.8-19.2-4.6-.5-.5-1.3-.5-1.8 0-3 2.7-6.4 4.4-10.1 5.1-9 1.7-20.6-5-27.8-10.3-23.2-16-43.2-33.8-60.1-53.3-58.8-68-67.3-154.2-65.2-241 .3-14.1.6-28.2.8-42.2 2-13.2 1.3-34 14.7-42.2 7.4-4.6 16.9-8.1 28.3-10.5 26.7-5.9 52.6-14.4 77.6-25.6 1.2-.6 2.3-1.6 3.9-2 7.1-4.9 18.6-11.9 27.2-10.7 4.1.5 7.7 2.4 10.7 5.5.5.5 1.4.5 1.9 0 12.3-12 25.9-2.9 38 4.9z" style="fill:#c2c2c2"/><path d="m257 277.9 98.3 98.3c-8 11.4-17.3 22.3-28 32.7-20.8 20.2-44.4 37.8-70.9 52.9-.4.2-.9.2-1.3 0-39-23.1-72.7-50.4-97.4-84.6l99.3-99.3z" class="st2"/><path d="M391.6 293.7c-3.2 13.3-7.2 26.3-12.4 38.9L257 210.5 133.3 334.2c-5.2-12.1-9.4-25-12.6-38.7L257 159.2l134.6 134.5z" class="st2"/><path d="M400.9 209.5c-.1 8.5-.4 16.9-.9 25.2L257 91.8 112.2 236.7c-.7-9.2-1.1-18.4-1.1-27.7-.3-36.4.5-72.9 2.2-109.2 0-.7.5-1.2 1.2-1.3 50.3-6.5 97.3-22.7 141-48.3.4-.2.9-.2 1.4 0C285.7 67.1 316 80 347.8 88.6c16.5 4.5 33.2 7.8 50.1 9.8.7.1 1.2.6 1.2 1.3 1.6 39.6 2.2 76.3 1.8 109.8z" class="st2"/><path d="M400 234.8c-1.3 20.3-3.9 40-8.4 59L257 159.2 120.8 295.5c-.4-1.9-.8-3.7-1.2-5.6-3.6-17.6-6.1-35.3-7.4-53.2L257 91.8l143 143z" class="st3"/><path d="M379.2 332.6c-6.2 15.2-14.1 29.7-23.8 43.6L257 277.9l-99.3 99.3c-9.6-13.2-17.8-27.5-24.4-43L257 210.5l122.2 122.1z" class="st3"/></svg>