<svg xmlns="http://www.w3.org/2000/svg" xml:space="preserve" id="Capa_1" x="0" y="0" style="enable-background:new 0 0 512 512" version="1.1" viewBox="0 0 512 512"><style>.st0{fill:#ecc32e}.st1{fill:#cfab28}.st2{fill:#ecd16f}.st4{opacity:.26}.st5{fill:#a80d00}</style><path d="m492.2 176.6-.6.6-4.7 4.7c-30.5 24.7-76.7 32.9-114.7 28.6-4.5-.5-7.8-.8-9.8-.8-8.5.1-16.6 1.8-24.2 5.3-3 1.4-5.9 3-8.7 4.9-.3.2-.5.4-.8.5-.1 0-.1.1-.1.1l.1-.1c2.4-2.6 4.8-5.1 7.2-7.6 8.7-9.1 17.6-18 26.8-26.6l8.2-8.3c-.1 0-.1-.1-.2-.1-7.8-5-9.7-11.3-14.2-17.6-1.4-1.8-3.1-3.4-5-4.8-2.4-2-5.1-3.6-8-4.8-3.8-2.4-7-5.5-9.4-9.3l-35 34.7-7.4 7.4c.7-1 1.4-2.1 2-3.1 1.3-2.1 2.4-4.2 3.4-6.3 3-6.4 4.7-13.2 5.2-20.2.2-2.6 0-6.4-.6-11.5-4.4-38.6 3.2-86.2 28.6-117l4.3-4c.4-.8.9-1.3 1.4-1.5 19.6-19.6 40.6-13.7 59.8 1.8 10.3 8.3 20 17.3 29.1 26.9-5.8-4.1-11.9-6.7-18.3-7.7 6.3 1 12.4 3.6 18.1 7.6l9.8 9.7L464 87.7c0 1 .3 1.9 1.1 2.7 7.8 8.6 7.6 24.6 3.9 34.8-3.4 7.9-8.2 13.9-14.5 17.9-6 3.9-24 14.9-54 33.2-6.8 4.2-13.6 5.7-20.4 4.6 6.8 1.2 13.7-.4 20.6-4.6 30-18.3 48-29.4 54-33.2 6.3-4 11.2-10 14.5-17.9 3.7-10.3 3.9-26.3-3.9-34.8-.7-.8-1.1-1.7-1.1-2.7 12 11.3 22.3 22.8 30.9 34.3 14.2 19.5 12.7 37.1-2.9 54.6z" class="st0"/><path d="m377.7 171.8-41.4 41.5-6.8 6.7-.6.7-6.1 6-7.4 7.5L67.7 481.8 29.9 444l247.7-247.6 7.4-7.5 6.1-6 2.5-2.6 46.3-46.2z" class="st0"/><path d="m77.5 492-9.1 9.1c-4 4-10.5 4-14.6 0L10.7 458c-4-4-4-10.5 0-14.6l9.1-9.1c4-4 10.5-4 14.6 0l43.1 43.1c4 4 4 10.6 0 14.6zM111.7 457.7l-9.1 9.1c-4 4-10.5 4-14.6 0l-43.1-43.1c-4-4-4-10.5 0-14.6L54 400c4-4 10.5-4 14.6 0l43.1 43.1c4 4.1 4 10.6 0 14.6z" class="st1"/><path d="M424.9 48.5c-11.5-8.2-24.6-10.5-38-5.5-11.2-11.4-31.7-27-48.6-22.6l-3.6.9c.4-.8.9-1.3 1.4-1.5 19.6-19.6 40.6-13.7 59.8 1.8 10.2 8.3 19.9 17.3 29 26.9zM464.2 87.8c12 11.3 22.3 22.8 30.9 34.3 14.3 19.3 12.8 37-2.8 54.5l-.6.6c-.2-.5-.2-1.2 0-1.9 3.1-12.8-2.6-24.6-9.9-35-4-5.7-8.2-10.7-12.5-15 3.7-10.2 3.9-26.3-3.9-34.8-.9-.8-1.2-1.7-1.2-2.7z" class="st2"/><path d="M378.2 97.1c-.3-10.9 5-17.4 16-19.5 7.2.5 8.6 6.9 6 12.4-3.3 7.3-15.4 16.9-22 7.1z" style="fill:#282528"/><path d="M465 90.4c-.7-.8-1.1-1.7-1.1-2.7l-29.5-29.6-9.8-9.7c-11.5-8.2-24.6-10.5-38-5.5-7.9 3.3-14.2 8.6-18.7 15.8-9.2 14.7-20.1 32.4-32.5 52.9-6 9.9-6.5 19.8-1.4 29.6 2.5 3.9 5.7 7 9.6 9.4 2.9 1.2 5.6 2.8 8 4.8 1.9 1.4 3.5 3 5 4.8 4.5 6.3 6.4 12.6 14.2 17.6 9.8 5.1 19.7 4.6 29.6-1.5 30-18.3 48-29.4 54-33.2 6.3-4.1 11.2-10 14.5-17.9 3.7-10.2 3.9-26.2-3.9-34.8z" class="st1"/><ellipse cx="422.7" cy="122.5" class="st4" rx="13.8" ry="9.2" transform="rotate(-45.001 422.745 122.55)"/><ellipse cx="391.4" cy="92.1" class="st4" rx="13.8" ry="9.2" transform="rotate(-45.001 391.435 92.059)"/><path d="m362 121.3.2.1c1.7.4 2.8 2.1 2.4 3.8l-1.8 8.2c-.4 1.7-2.1 2.8-3.8 2.4l-.2-.1c-1.7-.4-2.8-2.1-2.4-3.8l1.8-8.2c.4-1.7 2.1-2.7 3.8-2.4zM390.8 150l.1.2c.4 1.7-.7 3.4-2.4 3.8l-8.2 1.8c-1.7.4-3.4-.7-3.8-2.4l-.1-.2c-.4-1.7.7-3.4 2.4-3.8l8.2-1.8c1.7-.4 3.5.7 3.8 2.4z" class="st4"/><path d="m134.5 377.5-.2-.2-.1-.1c-.1-.1-.3-.1-.4-.2-4.9-1-9.8-1.9-14.7-2.9h-.3c-.1 0-.2 0-.3.1-.1 0-.2.1-.3.2l-11.9 11.9s-.1.1-.1.2c-.1.2-.1.4-.1.5 1 4.9 1.9 9.8 2.9 14.7 0 .2.1.3.2.4l.2.1.1.1c.1.1.2.1.3.1 5 1 9.9 1.9 14.9 2.9h.3c.1 0 .2-.1.2-.1.1 0 .1-.1.1-.1l12-12s.1-.1.1-.3c.1-.2.1-.3.1-.4-.9-4.8-1.9-9.7-2.8-14.5l-.2-.4zm-6.6 6.3zm-12.1 12.1zM171 341.5c0-.1-.1-.2-.1-.3l-.1-.1-.1-.1c-.1-.1-.3-.1-.4-.2-4.9-1-9.8-1.9-14.7-2.9-.2 0-.4 0-.5.1-.1 0-.2.1-.3.2l-11.9 11.9s-.1.1-.1.2c-.1.2-.1.4-.1.5 1 4.9 1.9 9.8 2.9 14.7 0 .1 0 .1.1.2 0 .1.1.1.1.2l.2.1.1.1c.1.1.2.1.3.1 5 1 9.9 1.9 14.9 2.9h.3c.2-.1.3-.1.4-.2l12-12s.1-.1.1-.3c.1-.2.1-.3.1-.4-.9-4.8-1.9-9.7-2.8-14.5-.4 0-.4-.1-.4-.2zm-18.8 18zm12-12.1zM207.3 305.2c0-.1-.1-.2-.1-.3l-.1-.2-.1-.1c-.1-.1-.3-.1-.4-.2-4.9-1-9.8-1.9-14.7-2.9h-.3c-.1 0-.2 0-.3.1-.1 0-.1 0-.2.1-.1 0-.1.1-.2.1L179 313.7s-.1.1-.1.2c-.1.2-.1.4-.1.5 1 4.9 1.9 9.8 2.9 14.7 0 .2.1.3.2.4l.2.1.1.1c.1.1.2.1.2.1h.1c5 1 9.9 1.9 14.9 2.9h.3c.2-.1.3-.1.4-.2l12-12s.1-.1.1-.3c0-.1.1-.2.1-.2v-.2c-.9-4.8-1.9-9.7-2.8-14.5-.1.1-.2 0-.2-.1zm-18.8 18zm12-12.1zM243.1 272.4c-.1-.7-.3-1.4-.4-2.1 0-.2-.1-.3-.1-.4 0-.1-.1-.2-.1-.3h-.1l-.1-.1-.1-.1c-.1-.1-.3-.1-.4-.2-4.9-1-9.8-1.9-14.7-2.9-.2 0-.4 0-.5.1-.1 0-.2.1-.3.2l-11.9 11.9s0 .1-.1.1v.1c0 .1-.1.2-.1.2v.2c.4 1.8.7 3.6 1.1 5.5l1.8 9.3c0 .1 0 .1.1.2 0 .1 0 .1.1.2 0 0 0 .1.1.1l.1.1.1.1c.1.1.2.1.3.1 5 1 9.9 1.9 14.9 2.9h.3c.1 0 .2-.1.3-.1 0 0 .1 0 .1-.1l10.1-10.1 1.9-1.9s.1-.1.1-.3c0-.1.1-.2.1-.2v-.2c-1-4-1.8-8.2-2.6-12.3zM281.8 248.9c0-.1.1-.2.1-.3v-.1c-.8-4-1.6-8.1-2.4-12.1-.2-.8-.3-1.6-.5-2.4v-.2c-.1-.2-.1-.4-.2-.5l-.1-.1-.1-.1-.1-.1c-.1-.1-.3-.1-.4-.2-1.6-.3-3.2-.6-4.7-.9-3.3-.7-6.7-1.3-10-2-.2 0-.4 0-.5.1-.1 0-.2.1-.3.2l-11.9 11.9s0 .1-.1.1v.1c-.1.1-.1.3-.1.4v.1c.6 3.2 1.3 6.4 1.9 9.6.3 1.7.7 3.4 1 5.1 0 .1.1.3.2.4l.2.1.1.1h.1c.1 0 .1.1.2.1h.1c5 1 9.9 1.9 14.9 2.9h.3c.1 0 .2-.1.3-.1 0 0 .1 0 .1-.1l10.2-10.2 1.8-1.8c-.2.2-.2.1-.1 0zM338.2 215.2c-3 1.4-5.9 3-8.7 4.9l-.7.7L291 183l2.6-2.6c1.3-2.1 2.4-4.2 3.4-6.3l1.5 1.5.6.6 36.8 36.8 2.3 2.2zM277.61 196.348l7.42-7.429 37.781 37.738-7.42 7.429z" class="st5"/></svg>