<?xml version="1.0" encoding="utf-8"?>
<!-- Generator: Adobe Illustrator 27.6.1, SVG Export Plug-In . SVG Version: 6.00 Build 0)  -->
<svg version="1.1" id="Capa_1" xmlns="http://www.w3.org/2000/svg" xmlns:xlink="http://www.w3.org/1999/xlink" x="0px" y="0px"
	 viewBox="0 0 512 512" style="enable-background:new 0 0 512 512;" xml:space="preserve">
<style type="text/css">
	.st0{fill:#ECC32E;}
	.st1{fill:#CFAB28;}
	.st2{fill:#ECD16F;}
	.st3{fill:#282528;}
	.st4{opacity:0.26;}
	.st5{fill:#A80D00;}
</style>
<g>
	<path class="st0" d="M492.2,176.6l-0.6,0.6l-4.7,4.7c-30.5,24.7-76.7,32.9-114.7,28.6c-4.5-0.5-7.8-0.8-9.8-0.8
		c-8.5,0.1-16.6,1.8-24.2,5.3c-3,1.4-5.9,3-8.7,4.9c-0.3,0.2-0.5,0.4-0.8,0.5c-0.1,0-0.1,0.1-0.1,0.1c0,0,0.1-0.1,0.1-0.1
		c2.4-2.6,4.8-5.1,7.2-7.6c8.7-9.1,17.6-18,26.8-26.6l8.2-8.3c-0.1,0-0.1-0.1-0.2-0.1c-7.8-5-9.7-11.3-14.2-17.6
		c-1.4-1.8-3.1-3.4-5-4.8c-2.4-2-5.1-3.6-8-4.8c-3.8-2.4-7-5.5-9.4-9.3l-35,34.7l-7.4,7.4c0.7-1,1.4-2.1,2-3.1
		c1.3-2.1,2.4-4.2,3.4-6.3c3-6.4,4.7-13.2,5.2-20.2c0.2-2.6,0-6.4-0.6-11.5c-4.4-38.6,3.2-86.2,28.6-117l4.3-4
		c0.4-0.8,0.9-1.3,1.4-1.5c19.6-19.6,40.6-13.7,59.8,1.8c10.3,8.3,20,17.3,29.1,26.9c-5.8-4.1-11.9-6.7-18.3-7.7
		c6.3,1,12.4,3.6,18.1,7.6l9.8,9.7l29.5,29.6c0,1,0.3,1.9,1.1,2.7c7.8,8.6,7.6,24.6,3.9,34.8c-3.4,7.9-8.2,13.9-14.5,17.9
		c-6,3.9-24,14.9-54,33.2c-6.8,4.2-13.6,5.7-20.4,4.6c6.8,1.2,13.7-0.4,20.6-4.6c30-18.3,48-29.4,54-33.2c6.3-4,11.2-10,14.5-17.9
		c3.7-10.3,3.9-26.3-3.9-34.8c-0.7-0.8-1.1-1.7-1.1-2.7c12,11.3,22.3,22.8,30.9,34.3C509.3,141.5,507.8,159.1,492.2,176.6z"/>
	<polygon class="st0" points="377.7,171.8 336.3,213.3 329.5,220 328.9,220.7 322.8,226.7 315.4,234.2 67.7,481.8 29.9,444 
		277.6,196.4 285,188.9 291.1,182.9 293.6,180.3 339.9,134.1 	"/>
	<path class="st1" d="M77.5,492l-9.1,9.1c-4,4-10.5,4-14.6,0L10.7,458c-4-4-4-10.5,0-14.6l9.1-9.1c4-4,10.5-4,14.6,0l43.1,43.1
		C81.5,481.4,81.5,488,77.5,492z"/>
	<path class="st1" d="M111.7,457.7l-9.1,9.1c-4,4-10.5,4-14.6,0l-43.1-43.1c-4-4-4-10.5,0-14.6l9.1-9.1c4-4,10.5-4,14.6,0l43.1,43.1
		C115.7,447.2,115.7,453.7,111.7,457.7z"/>
	<path class="st2" d="M424.9,48.5c-11.5-8.2-24.6-10.5-38-5.5c-11.2-11.4-31.7-27-48.6-22.6c-1.2,0.3-2.4,0.6-3.6,0.9
		c0.4-0.8,0.9-1.3,1.4-1.5c19.6-19.6,40.6-13.7,59.8,1.8C406.1,29.9,415.8,38.9,424.9,48.5z"/>
	<path class="st2" d="M464.2,87.8c12,11.3,22.3,22.8,30.9,34.3c14.3,19.3,12.8,37-2.8,54.5l-0.6,0.6c-0.2-0.5-0.2-1.2,0-1.9
		c3.1-12.8-2.6-24.6-9.9-35c-4-5.7-8.2-10.7-12.5-15c3.7-10.2,3.9-26.3-3.9-34.8C464.5,89.7,464.2,88.8,464.2,87.8z"/>
	<path class="st3" d="M378.2,97.1c-0.3-10.9,5-17.4,16-19.5c7.2,0.5,8.6,6.9,6,12.4C396.9,97.3,384.8,106.9,378.2,97.1z"/>
	<path class="st1" d="M465,90.4c-0.7-0.8-1.1-1.7-1.1-2.7l-29.5-29.6l-9.8-9.7c-11.5-8.2-24.6-10.5-38-5.5
		c-7.9,3.3-14.2,8.6-18.7,15.8c-9.2,14.7-20.1,32.4-32.5,52.9c-6,9.9-6.5,19.8-1.4,29.6c2.5,3.9,5.7,7,9.6,9.4
		c2.9,1.2,5.6,2.8,8,4.8c1.9,1.4,3.5,3,5,4.8c4.5,6.3,6.4,12.6,14.2,17.6c9.8,5.1,19.7,4.6,29.6-1.5c30-18.3,48-29.4,54-33.2
		c6.3-4.1,11.2-10,14.5-17.9C472.6,115,472.8,99,465,90.4z"/>
	
		<ellipse transform="matrix(0.7071 -0.7071 0.7071 0.7071 37.167 334.8178)" class="st4" cx="422.7" cy="122.5" rx="13.8" ry="9.2"/>
	
		<ellipse transform="matrix(0.7071 -0.7071 0.7071 0.7071 49.5566 303.7474)" class="st4" cx="391.4" cy="92.1" rx="13.8" ry="9.2"/>
	<path class="st4" d="M362,121.3l0.2,0.1c1.7,0.4,2.8,2.1,2.4,3.8l-1.8,8.2c-0.4,1.7-2.1,2.8-3.8,2.4l-0.2-0.1
		c-1.7-0.4-2.8-2.1-2.4-3.8l1.8-8.2C358.6,122,360.3,121,362,121.3z"/>
	<path class="st4" d="M390.8,150l0.1,0.2c0.4,1.7-0.7,3.4-2.4,3.8l-8.2,1.8c-1.7,0.4-3.4-0.7-3.8-2.4l-0.1-0.2
		c-0.4-1.7,0.7-3.4,2.4-3.8l8.2-1.8C388.7,147.2,390.5,148.3,390.8,150z"/>
	<g>
		<path class="st5" d="M134.5,377.5l-0.2-0.2l-0.1-0.1c-0.1-0.1-0.3-0.1-0.4-0.2c-4.9-1-9.8-1.9-14.7-2.9c-0.1,0-0.2,0-0.3,0
			s-0.2,0-0.3,0.1c-0.1,0-0.2,0.1-0.3,0.2c-4,4-7.9,7.9-11.9,11.9c0,0-0.1,0.1-0.1,0.2c-0.1,0.2-0.1,0.4-0.1,0.5
			c1,4.9,1.9,9.8,2.9,14.7c0,0.2,0.1,0.3,0.2,0.4l0.2,0.1l0.1,0.1c0.1,0.1,0.2,0.1,0.3,0.1c5,1,9.9,1.9,14.9,2.9c0.1,0,0.2,0,0.3,0
			c0.1,0,0.2-0.1,0.2-0.1c0.1,0,0.1-0.1,0.1-0.1c4-4,8-8,12-12c0,0,0.1-0.1,0.1-0.3c0.1-0.2,0.1-0.3,0.1-0.4
			c-0.9-4.8-1.9-9.7-2.8-14.5C134.7,377.9,134.6,377.7,134.5,377.5z M127.9,383.8C127.9,383.8,127.9,383.8,127.9,383.8
			C127.9,383.8,127.9,383.8,127.9,383.8C127.9,383.8,127.9,383.8,127.9,383.8z M115.8,395.9C115.8,395.9,115.8,395.9,115.8,395.9
			C115.8,395.9,115.8,395.9,115.8,395.9C115.8,395.9,115.8,395.9,115.8,395.9z"/>
		<path class="st5" d="M171,341.5c0-0.1-0.1-0.2-0.1-0.3l-0.1-0.1l-0.1-0.1c-0.1-0.1-0.3-0.1-0.4-0.2c-4.9-1-9.8-1.9-14.7-2.9
			c-0.2,0-0.4,0-0.5,0.1c-0.1,0-0.2,0.1-0.3,0.2c-4,4-7.9,7.9-11.9,11.9c0,0-0.1,0.1-0.1,0.2c-0.1,0.2-0.1,0.4-0.1,0.5
			c1,4.9,1.9,9.8,2.9,14.7c0,0.1,0,0.1,0.1,0.2c0,0.1,0.1,0.1,0.1,0.2l0.2,0.1l0.1,0.1c0.1,0.1,0.2,0.1,0.3,0.1
			c5,1,9.9,1.9,14.9,2.9c0.1,0,0.2,0,0.3,0c0.2-0.1,0.3-0.1,0.4-0.2c4-4,8-8,12-12c0,0,0.1-0.1,0.1-0.3c0.1-0.2,0.1-0.3,0.1-0.4
			c-0.9-4.8-1.9-9.7-2.8-14.5C171,341.7,171,341.6,171,341.5z M152.2,359.5C152.2,359.5,152.2,359.5,152.2,359.5
			C152.2,359.5,152.2,359.5,152.2,359.5C152.2,359.5,152.2,359.5,152.2,359.5z M164.2,347.4C164.2,347.4,164.2,347.4,164.2,347.4
			C164.2,347.4,164.2,347.4,164.2,347.4C164.2,347.4,164.2,347.4,164.2,347.4z"/>
		<path class="st5" d="M207.3,305.2c0-0.1-0.1-0.2-0.1-0.3l-0.1-0.2l-0.1-0.1c-0.1-0.1-0.3-0.1-0.4-0.2c-4.9-1-9.8-1.9-14.7-2.9
			c-0.1,0-0.2,0-0.3,0c-0.1,0-0.2,0-0.3,0.1c-0.1,0-0.1,0-0.2,0.1c-0.1,0-0.1,0.1-0.2,0.1c-4,4-7.9,7.9-11.9,11.9
			c0,0-0.1,0.1-0.1,0.2c-0.1,0.2-0.1,0.4-0.1,0.5c1,4.9,1.9,9.8,2.9,14.7c0,0.2,0.1,0.3,0.2,0.4l0.2,0.1l0.1,0.1
			c0.1,0.1,0.2,0.1,0.2,0.1c0,0,0.1,0,0.1,0c5,1,9.9,1.9,14.9,2.9c0.1,0,0.2,0,0.3,0c0.2-0.1,0.3-0.1,0.4-0.2c4-4,8-8,12-12
			c0,0,0.1-0.1,0.1-0.3c0-0.1,0.1-0.2,0.1-0.2c0-0.1,0-0.1,0-0.2c-0.9-4.8-1.9-9.7-2.8-14.5C207.4,305.4,207.3,305.3,207.3,305.2z
			 M188.5,323.2C188.5,323.2,188.5,323.2,188.5,323.2C188.5,323.2,188.5,323.2,188.5,323.2C188.5,323.2,188.5,323.2,188.5,323.2z
			 M200.5,311.1C200.5,311.1,200.5,311.1,200.5,311.1C200.5,311.1,200.5,311.1,200.5,311.1C200.5,311.1,200.5,311.1,200.5,311.1z"/>
		<path class="st5" d="M243.1,272.4c-0.1-0.7-0.3-1.4-0.4-2.1c0-0.2-0.1-0.3-0.1-0.4c0-0.1-0.1-0.2-0.1-0.3l-0.1,0l-0.1-0.1
			l-0.1-0.1l0,0c-0.1-0.1-0.3-0.1-0.4-0.2c0,0,0,0,0,0c-4.9-1-9.8-1.9-14.7-2.9c-0.2,0-0.4,0-0.5,0.1c-0.1,0-0.2,0.1-0.3,0.2
			c-4,4-7.9,7.9-11.9,11.9c0,0,0,0.1-0.1,0.1c0,0,0,0.1,0,0.1c0,0.1-0.1,0.2-0.1,0.2c0,0,0,0,0,0c0,0,0,0,0,0c0,0.1,0,0.1,0,0.2
			c0.4,1.8,0.7,3.6,1.1,5.5c0.6,3.1,1.2,6.2,1.8,9.3c0,0.1,0,0.1,0.1,0.2c0,0.1,0,0.1,0.1,0.2c0,0,0,0.1,0.1,0.1l0,0l0.1,0.1
			l0.1,0.1l0,0c0.1,0.1,0.2,0.1,0.3,0.1c0,0,0,0,0,0c5,1,9.9,1.9,14.9,2.9c0,0,0,0,0,0c0.1,0,0.2,0,0.3,0c0,0,0,0,0,0
			c0.1,0,0.2-0.1,0.3-0.1c0,0,0.1,0,0.1-0.1c3.4-3.4,6.7-6.7,10.1-10.1c0.6-0.6,1.3-1.3,1.9-1.9c0,0,0.1-0.1,0.1-0.3
			c0-0.1,0.1-0.2,0.1-0.2c0-0.1,0-0.1,0-0.2C244.7,280.7,243.9,276.5,243.1,272.4z"/>
		<path class="st5" d="M281.8,248.9C281.8,248.9,281.8,248.9,281.8,248.9c0-0.1,0.1-0.2,0.1-0.3c0,0,0-0.1,0-0.1
			c-0.8-4-1.6-8.1-2.4-12.1c-0.2-0.8-0.3-1.6-0.5-2.4c0-0.1,0-0.1,0-0.2c-0.1-0.2-0.1-0.4-0.2-0.5l-0.1-0.1l-0.1-0.1l0,0l-0.1-0.1
			c-0.1-0.1-0.3-0.1-0.4-0.2l0,0c0,0,0,0,0,0c-1.6-0.3-3.2-0.6-4.7-0.9c-3.3-0.7-6.7-1.3-10-2c0,0,0,0,0,0c-0.2,0-0.4,0-0.5,0.1
			c-0.1,0-0.2,0.1-0.3,0.2c-4,4-7.9,7.9-11.9,11.9c0,0,0,0.1-0.1,0.1c0,0,0,0.1,0,0.1c-0.1,0.1-0.1,0.3-0.1,0.4c0,0,0,0.1,0,0.1
			c0.6,3.2,1.3,6.4,1.9,9.6c0.3,1.7,0.7,3.4,1,5.1c0,0,0,0,0,0c0,0.1,0.1,0.3,0.2,0.4c0,0,0,0,0,0l0,0c0,0,0,0,0,0l0.2,0.1l0.1,0.1
			c0,0,0,0,0.1,0c0.1,0,0.1,0.1,0.2,0.1c0,0,0.1,0,0.1,0c5,1,9.9,1.9,14.9,2.9c0,0,0,0,0,0c0.1,0,0.2,0,0.3,0c0,0,0,0,0,0
			c0.1,0,0.2-0.1,0.3-0.1c0,0,0.1,0,0.1-0.1c3.4-3.4,6.8-6.8,10.2-10.2c0.6-0.6,1.2-1.2,1.8-1.8c0,0,0,0,0,0c0,0,0,0,0,0
			c0,0,0,0,0,0C281.7,249.1,281.7,249,281.8,248.9C281.8,248.9,281.8,248.9,281.8,248.9z"/>
	</g>
	<path class="st5" d="M338.2,215.2c-3,1.4-5.9,3-8.7,4.9l-0.7,0.7l-37.8-37.8l2.6-2.6c1.3-2.1,2.4-4.2,3.4-6.3l1.5,1.5l0.6,0.6
		l36.8,36.8L338.2,215.2z"/>
	
		<rect x="295" y="184.8" transform="matrix(0.7067 -0.7075 0.7075 0.7067 -61.612 274.4623)" class="st5" width="10.5" height="53.4"/>
</g>
</svg>
