<?xml version="1.0" encoding="utf-8"?>
<!-- Generator: Adobe Illustrator 27.6.1, SVG Export Plug-In . SVG Version: 6.00 Build 0)  -->
<svg version="1.1" id="Capa_1" xmlns="http://www.w3.org/2000/svg" xmlns:xlink="http://www.w3.org/1999/xlink" x="0px" y="0px"
	 viewBox="0 0 512 512" style="enable-background:new 0 0 512 512;" xml:space="preserve">
<style type="text/css">
	.st0{fill:#6E2E00;}
	.st1{opacity:6.000000e-02;fill:#FFFFFF;}
	.st2{opacity:0.11;}
	.st3{fill:#4F2100;}
	.st4{fill:#8C8C8C;}
	.st5{fill:#787878;}
</style>
<circle class="st0" cx="256" cy="256.1" r="221.6"/>
<path class="st1" d="M256,255.9l0-221.6c58.8,0,115.2,23.4,156.7,64.9s64.9,97.9,64.9,156.7H256z"/>
<path class="st2" d="M255.7,256.3l221.6-0.7c0.2,58.8-23,115.2-64.4,156.9s-98.4,66-157.2,66.1V256.3z"/>
<path class="st1" d="M256,255.9l-0.4,221.6c-58.8-0.1-115.1-23.6-156.6-65.2s-64.7-98.1-64.6-156.8L256,255.9z"/>
<path class="st2" d="M256,255.9l-221.6,0.3C34.4,197.4,57.7,141,99.2,99.4s97.9-65,156.6-65.1L256,255.9z"/>
<g>
	<path class="st3" d="M112.2,119v274c-2.8-2.9-5.4-5.8-8-8.8c-1.7-2-3.4-4-5-6.1V134.2c1.6-2.1,3.3-4.1,5-6.2c2.5-2.9,5-5.8,7.7-8.6
		C111.9,119.3,112.1,119.1,112.2,119z"/>
	<path class="st3" d="M181.1,71.8v368.8c-4.5-1.8-8.8-3.7-13-5.8V77.6C172.3,75.5,176.6,73.6,181.1,71.8z"/>
	<path class="st3" d="M345.3,77v358.5c-4.2,2.1-8.6,4.1-13,5.9V71.4C336.7,73.1,341.1,75,345.3,77z"/>
	<path class="st3" d="M262.6,46v420.5c-0.9,0-1.7,0-2.6,0.1c-3.5,0.1-7,0-10.5-0.1V45.9c3.5-0.1,7-0.1,10.5-0.1
		C260.8,45.9,261.7,45.9,262.6,46z"/>
	<path class="st3" d="M410.2,128.1v256.3c-1.6,1.9-3.3,3.8-5,5.7c-1.2,1.3-2.3,2.5-3.5,3.8c-1.4,1.8-2.9,3.4-4.5,5V113.4
		c1.8,1.8,3.4,3.7,4.8,5.7c1.1,1.1,2.2,2.3,3.2,3.4C406.9,124.3,408.6,126.2,410.2,128.1z"/>
</g>
<path class="st4" d="M409,60.3c-1.7-1.3-3.3-2.6-5-3.8c-2.6-1.9-5.3-3.8-8-5.7c-1.6-1.1-3.3-2.2-5-3.3C376.3,38,360.6,30.1,344,23.8
	c-4.3-1.6-8.6-3.1-13-4.5c-2-0.6-4-1.2-6-1.8c-4.3-1.2-8.6-2.4-13-3.4c-14.6-3.4-29.6-5.6-45-6.4h-21.9c-17.4,1-34.2,3.6-50.3,7.7
	c-4.4,1.1-8.7,2.4-13,3.7c-0.7,0.2-1.3,0.4-2,0.6c-4.4,1.4-8.7,2.9-13,4.6c-18.1,6.9-35.2,15.8-50.9,26.5c-1.7,1.1-3.4,2.3-5,3.5
	c-2.7,1.9-5.4,3.9-8,6c-1.7,1.3-3.3,2.7-5,4C45.8,107.2,12,171.1,7.7,245v21.9c3.9,65.5,28.5,120.7,73.8,165.8
	c5.3,5.3,10.8,10.3,16.5,15c1.7,1.4,3.3,2.7,5,4c2.6,2.1,5.3,4.1,8,6c1.7,1.2,3.3,2.4,5,3.5c15.9,10.9,32.9,19.8,50.9,26.6
	c4.3,1.7,8.6,3.2,13,4.6c0.7,0.2,1.3,0.4,2,0.6c4.3,1.3,8.7,2.6,13,3.7c16.2,4.1,33,6.7,50.2,7.6h21.5c15.6-0.9,30.8-3.1,45.5-6.5
	c4.4-1,8.7-2.2,13-3.4c2-0.6,4-1.2,6-1.8c4.4-1.4,8.7-2.9,13-4.5c16.6-6.3,32.3-14.2,46.9-23.6c1.7-1.1,3.4-2.2,5-3.3
	c2.7-1.8,5.4-3.7,8-5.7c1.7-1.2,3.3-2.5,5-3.8c55.3-43,91.4-108.9,95.4-184.7v-21.8C500.5,169.3,464.2,103.4,409,60.3z M463.4,291.7
	c-0.1,0.7-0.8,1.2-1.5,1.1c-3.2-0.4-6.5-0.2-9.8,0.7c-6.7,34.5-21,64.7-43.1,90.8c-1.6,1.9-3.3,3.8-5,5.7c-1.2,1.3-2.4,2.5-3.5,3.8
	c-1.4,1.8-2.9,3.4-4.5,5c-1.6,1.5-3.2,3-5,4.4c-0.2,0.2-0.5,0.4-0.7,0.5c-14,12.7-29.4,23.2-46.2,31.6c-4.2,2.1-8.6,4.1-13,5.9
	c-0.2,0.1-0.5,0.2-0.7,0.3l-5.2,1.8l-3.9,1.3c-3,1-6,2-9.2,3c-5.6,1.7-11.4,3.1-17.6,4.4c-2.8,1.6-1.4,6.5-1.8,10.2
	c-0.1,0.6-0.5,1.1-1.1,1.2c-10.5,1.7-21.1,2.7-31.6,2.9c-4.3,0.1-8.7,0-13-0.2c-8.9-0.4-17.8-1.3-26.8-2.8c-0.6-0.1-1.1-0.7-1.1-1.3
	l-0.1-10c-8.9-1.6-16.9-3.6-24.1-6c-1.3-0.5-2.6-0.9-3.9-1.4c-3.7-1-6.8-2.1-9.1-3.4c-0.2-0.1-0.4-0.2-0.6-0.3
	c-0.5-0.2-0.9-0.4-1.4-0.6c-4.5-1.8-8.8-3.7-13-5.8c-17.1-8.4-32.4-19-45.8-31.9c-1.9-1.3-3.5-2.7-5-4.1c-1.7-1.7-3.2-3.4-4.4-5.2
	c-0.2-0.2-0.4-0.4-0.6-0.6c-2.8-2.9-5.4-5.8-8-8.8c-1.7-2-3.4-4-5-6.1c-8.6-10.9-15.8-22.6-21.8-35.2c-2.6-4.2-4.6-8.7-5.9-13.5
	l-0.7-1.7l-2.3-5.6l-1.3-4l-1.1-3.3c-0.6-1.4-1-2.6-1-3.8c-1.1-2-1.6-3.9-1.5-5.8L60,293.1l-10.2-0.4c-0.6,0-1.2-0.5-1.3-1.1
	c-3.8-23.7-3.8-47.3-0.1-71c0.1-0.6,0.6-1.1,1.2-1.1l10.2-1c6.2-31.7,18.9-59.8,38.1-84.5c1.6-2.1,3.3-4.1,5-6.2
	c2.5-2.9,5-5.8,7.7-8.6c0.1-0.2,0.2-0.3,0.3-0.5c1.4-1.9,3.1-3.7,5-5.4c1.5-1.3,3.1-2.6,4.9-3.8c13.1-13,28.4-23.7,46-32.2
	c4.2-2,8.5-4,13-5.7c0.3-0.1,0.6-0.2,0.9-0.4c0.3-0.2,0.7-0.5,1.1-0.7c2.3-1.3,5.4-2.5,9.2-3.4c1.2-0.5,2.5-0.9,3.8-1.3
	c7.6-2.5,15.8-4.6,24.4-6.2l0-9.9c0-0.6,0.4-1.2,1.1-1.3c8.9-1.4,17.8-2.3,26.7-2.7c4.3-0.2,8.7-0.2,13-0.1
	c10.6,0.2,21.1,1.1,31.7,2.8c0.6,0.1,1.1,0.7,1.1,1.3l0.2,9.2c0,0.3,0.2,0.5,0.4,0.6c0.2,0.1,0.3,0.2,0.4,0.3
	c6.3,1.1,12.4,2.6,18.3,4.3c3,0.9,6,1.9,8.9,2.9c1.5,0.3,2.8,0.7,4.1,1.2c2.3,0.8,4.3,1.7,5.9,2.8c0,0,0,0,0.1,0
	c4.4,1.7,8.8,3.6,13,5.6c17.2,8.2,32.6,18.7,46.2,31.4c0.2,0.2,0.5,0.4,0.7,0.6c1.8,1.4,3.5,2.9,5,4.4c1.8,1.8,3.4,3.7,4.8,5.7
	c1.1,1.1,2.1,2.3,3.2,3.4c1.7,1.9,3.4,3.8,5,5.7c22.3,26.1,36.7,56.4,43.2,90.8l10,0.5c0.6,0,1.1,0.5,1.2,1.1
	C467.4,244.2,467.4,268,463.4,291.7z"/>
<path class="st4" d="M285.4,208.1c7.4,4.8,13.4,10.8,18.2,18.2c10.2,17,11.7,39.4,1.4,56.9c-0.4,0.7-0.3,1.2-0.6,2
	c-0.4,0.1-0.7,0.4-0.9,0.7c-4.9,7.4-11,13.5-18.4,18.4c-19.5,10.5-38.9,10.4-58.3-0.1c-7.8-5.1-14.3-11.5-19.4-19.3
	c-1.8-3.6-3.1-6.4-3.8-8.4c-5.9-16.6-4.8-32.6,3.4-48.1c0.3-0.5,0.3-1,0.2-1.6c0.6-0.2,1-0.5,1.3-0.9c4.9-7.3,11-13.4,18.2-18.3
	c5.7-2.7,9.1-4.2,10.2-4.5C254,197.6,270.1,199.3,285.4,208.1z"/>
<circle class="st5" cx="256" cy="256" r="36.2"/>
<g>
	<g>
		<circle class="st5" cx="409.1" cy="423.6" r="8.7"/>
	</g>
	<g>
		<circle class="st5" cx="362.7" cy="456.4" r="8.7"/>
	</g>
	<g>
		<circle class="st5" cx="309.5" cy="476.7" r="8.7"/>
	</g>
	<g>
		<circle class="st5" cx="253" cy="483" r="8.7"/>
	</g>
	<g>
		<circle class="st5" cx="196.7" cy="475.1" r="8.7"/>
	</g>
	<g>
		<circle class="st5" cx="144.1" cy="453.5" r="8.7"/>
	</g>
	<g>
		<circle class="st5" cx="98.5" cy="419.4" r="8.7"/>
	</g>
	<g>
		<circle class="st5" cx="62.8" cy="375.1" r="8.7"/>
	</g>
	<g>
		<circle class="st5" cx="39.3" cy="323.3" r="8.7"/>
	</g>
	<g>
		<circle class="st5" cx="29.4" cy="267.3" r="8.7"/>
	</g>
	<g>
		<circle class="st5" cx="33.8" cy="210.6" r="8.7"/>
	</g>
	<g>
		<circle class="st5" cx="52.1" cy="156.8" r="8.7"/>
	</g>
	<g>
		<circle class="st5" cx="83.2" cy="109.2" r="8.7"/>
	</g>
	<g>
		<circle class="st5" cx="125.2" cy="70.8" r="8.7"/>
	</g>
	<g>
		<circle class="st5" cx="175.4" cy="44.1" r="8.7"/>
	</g>
	<g>
		<circle class="st5" cx="230.6" cy="30.7" r="8.7"/>
	</g>
	<g>
		<circle class="st5" cx="287.5" cy="31.4" r="8.7"/>
	</g>
	<g>
		<circle class="st5" cx="342.4" cy="46.3" r="8.7"/>
	</g>
	<g>
		<circle class="st5" cx="391.9" cy="74.4" r="8.7"/>
	</g>
	<g>
		<circle class="st5" cx="432.8" cy="113.9" r="8.7"/>
	</g>
	<g>
		<circle class="st5" cx="462.6" cy="162.3" r="8.7"/>
	</g>
	<g>
		<circle class="st5" cx="479.5" cy="216.6" r="8.7"/>
	</g>
	<g>
		<circle class="st5" cx="482.3" cy="273.4" r="8.7"/>
	</g>
	<g>
		<circle class="st5" cx="470.9" cy="329.1" r="8.7"/>
	</g>
	<g>
		<circle class="st5" cx="446" cy="380.3" r="8.7"/>
	</g>
</g>
<g>
	<g>
		<circle class="st5" cx="294.6" cy="281.5" r="3.2"/>
	</g>
	<g>
		<circle class="st5" cx="260.3" cy="302.1" r="3.2"/>
	</g>
	<g>
		<circle class="st5" cx="222.8" cy="288.1" r="3.2"/>
	</g>
	<g>
		<circle class="st5" cx="210.3" cy="250" r="3.2"/>
	</g>
	<g>
		<circle class="st5" cx="232.3" cy="216.6" r="3.2"/>
	</g>
	<g>
		<circle class="st5" cx="272.2" cy="212.9" r="3.2"/>
	</g>
	<g>
		<circle class="st5" cx="299.9" cy="241.8" r="3.2"/>
	</g>
</g>
</svg>
