<?xml version="1.0" encoding="utf-8"?>
<!-- Generator: Adobe Illustrator 27.6.1, SVG Export Plug-In . SVG Version: 6.00 Build 0)  -->
<svg version="1.1" id="Capa_1" xmlns="http://www.w3.org/2000/svg" xmlns:xlink="http://www.w3.org/1999/xlink" x="0px" y="0px"
	 viewBox="0 0 512 512" style="enable-background:new 0 0 512 512;" xml:space="preserve">
<style type="text/css">
	.st0{fill:#FFD24F;}
	.st1{fill:#FFC51C;}
	.st2{fill:#FF0059;}
	.st3{clip-path:url(#SVGID_00000075851705564883812060000011461265601360448924_);}
	.st4{fill:#08B7FC;}
	.st5{clip-path:url(#SVGID_00000051343585898458559960000002086971873903591089_);}
	.st6{clip-path:url(#SVGID_00000172439029396553315830000010368218444671472058_);}
	.st7{opacity:5.000000e-02;}
</style>
<g>
	<path class="st0" d="M397.5,9.6l-5.1,45.8l-0.2,1.6l-10.4,93.7v0c-0.5,4.2-1.1,8.3-2,12.4c-9.5,43.8-41.9,79.7-85,93.4h-77.6
		c-43.1-13.7-75.5-49.6-85-93.4c-0.9-4.1-1.6-8.2-2-12.4v0L119.8,57l-0.2-1.6l-5.1-45.8H397.5z"/>
	<path class="st1" d="M407.5,26.8l-1.7,15.3c-0.8,7.5-6.4,13.5-13.6,15c-1.1,0.2-2.3,0.4-3.5,0.4H123.3c-1.2,0-2.4-0.1-3.6-0.4
		c-7.1-1.5-12.7-7.4-13.6-15l-1.7-15.3c-1.1-10.2,6.9-19.1,17.1-19.1h268.8C400.6,7.7,408.6,16.6,407.5,26.8z"/>
	<rect x="217.9" y="256.5" class="st1" width="76.1" height="108.6"/>
	<path class="st1" d="M356.7,483.9v0.8c0,10.9-8.8,19.7-19.7,19.7H174.9c-10.9,0-19.6-8.8-19.6-19.7v-0.8c0-10.8,8.8-19.6,19.6-19.6
		h162.1C347.9,464.2,356.7,473,356.7,483.9z"/>
	<path class="st1" d="M321.7,464.2c-0.8,0.2-1.6,0.4-2.5,0.4H192.7c-0.9,0-1.7-0.1-2.5-0.4c-4.2-1.3-6.8-5.7-5.5-10.2l24.1-86.4
		c1-3.6,4.3-6.1,8-6.1h78.2c3.7,0,7,2.5,8,6.1l24.1,86.4C328.5,458.5,325.9,462.9,321.7,464.2z"/>
	<path class="st2" d="M278,111.1c-0.1-9-0.1-18.1-0.1-27.1c0-0.1-0.1-0.2-0.2-0.4c-0.1-0.3-0.2-0.5-0.4-0.6
		c-6.6-4.4-13.2-8.8-19.9-13.2c-0.4-0.3-0.8-0.5-1.1-0.6H256h-0.1h-0.2h-0.1c-0.2,0.1-0.3,0.1-0.4,0.1c-0.1,0-0.2,0-0.4-0.1
		c-6.8,4.4-13.5,9-20.3,13.4c-0.3,0.1-0.5,0.4-0.6,0.7c0.1,0,0.2,0.1,0.3,0.1c0,0,0,0.1-0.1,0.1c-0.1,0.2-0.2,0.4-0.2,0.6
		c0,9,0,18,0,26.9c0,0.1,0.1,0.2,0.2,0.4v0l0,0c0.1,0.3,0.3,0.6,0.5,0.7c6.8,4.4,13.5,9,20.3,13.4c0.2,0.1,0.5,0.2,0.7,0.3h0.3v0.1
		h0.3c0.3-0.1,0.5-0.1,0.6-0.2c6.9-4.4,13.6-9,20.5-13.5c0.1,0,0.1-0.1,0.2-0.2c0.1-0.1,0.1-0.2,0.2-0.3
		C277.9,111.4,278,111.2,278,111.1z"/>
	<path class="st2" d="M278,422.4c-0.1-9-0.1-18.1-0.1-27.1c0-0.1-0.1-0.2-0.2-0.4c-0.1-0.3-0.2-0.5-0.4-0.6
		c-6.6-4.4-13.2-8.8-19.9-13.2c-0.4-0.3-0.8-0.5-1.1-0.6H256h-0.1h-0.2h-0.1c-0.2,0.1-0.3,0.1-0.4,0.1c-0.1,0-0.2,0-0.4-0.1
		c-6.8,4.4-13.5,9-20.3,13.4c-0.3,0.1-0.5,0.4-0.6,0.7c0.1,0,0.2,0.1,0.3,0.1c0,0,0,0.1-0.1,0.1c-0.1,0.2-0.2,0.4-0.2,0.6
		c0,9,0,18,0,26.9c0,0.1,0.1,0.2,0.2,0.4v0l0,0c0.1,0.3,0.3,0.6,0.5,0.7c6.8,4.4,13.5,9,20.3,13.4c0.2,0.1,0.5,0.2,0.7,0.3h0.3v0.1
		h0.3c0.3-0.1,0.5-0.1,0.6-0.2c6.9-4.4,13.6-9,20.5-13.5c0.1,0,0.1-0.1,0.2-0.2c0.1-0.1,0.1-0.2,0.2-0.3
		C277.9,422.7,278,422.5,278,422.4z"/>
	<path class="st2" d="M358.2,111.1c-0.1-9-0.1-18.1-0.1-27.1c0-0.1-0.1-0.2-0.2-0.4c-0.1-0.3-0.2-0.5-0.4-0.6
		c-6.6-4.4-13.2-8.8-19.9-13.2c-0.4-0.3-0.8-0.5-1.1-0.6h-0.3h-0.1H336h-0.1c-0.2,0.1-0.3,0.1-0.4,0.1c-0.1,0-0.2,0-0.4-0.1
		c-6.8,4.4-13.5,9-20.3,13.4c-0.3,0.1-0.5,0.4-0.6,0.7c0.1,0,0.2,0.1,0.3,0.1c0,0,0,0.1-0.1,0.1c-0.1,0.2-0.2,0.4-0.2,0.6
		c0,9,0,18,0,26.9c0,0.1,0.1,0.2,0.2,0.4v0l0,0c0.1,0.3,0.3,0.6,0.5,0.7c6.8,4.4,13.5,9,20.3,13.4c0.2,0.1,0.5,0.2,0.7,0.3h0.3v0.1
		h0.3c0.3-0.1,0.5-0.1,0.6-0.2c6.9-4.4,13.6-9,20.5-13.5c0.1,0,0.1-0.1,0.2-0.2c0.1-0.1,0.1-0.2,0.2-0.3
		C358.1,111.4,358.2,111.2,358.2,111.1z"/>
	<path class="st2" d="M199.8,111.1c-0.1-9-0.1-18.1-0.1-27.1c0-0.1-0.1-0.2-0.2-0.4c-0.1-0.3-0.2-0.5-0.4-0.6
		c-6.6-4.4-13.2-8.8-19.9-13.2c-0.4-0.3-0.8-0.5-1.1-0.6h-0.3h-0.1h-0.2h-0.1c-0.2,0.1-0.3,0.1-0.4,0.1c-0.1,0-0.2,0-0.4-0.1
		c-6.8,4.4-13.5,9-20.3,13.4c-0.3,0.1-0.5,0.4-0.6,0.7c0.1,0,0.2,0.1,0.3,0.1c0,0,0,0.1-0.1,0.1c-0.1,0.2-0.2,0.4-0.2,0.6
		c0,9,0,18,0,26.9c0,0.1,0.1,0.2,0.2,0.4v0l0,0c0.1,0.3,0.3,0.6,0.5,0.7c6.8,4.4,13.5,9,20.3,13.4c0.2,0.1,0.5,0.2,0.7,0.3h0.3v0.1
		h0.3c0.3-0.1,0.5-0.1,0.6-0.2c6.9-4.4,13.6-9,20.5-13.5c0.1,0,0.1-0.1,0.2-0.2c0.1-0.1,0.1-0.2,0.2-0.3
		C199.7,111.4,199.8,111.2,199.8,111.1z"/>
	<path class="st1" d="M381.8,150.8L381.8,150.8c-0.5,4.2-1.1,8.4-2,12.4H132.2c-0.9-4.1-1.6-8.2-2-12.4v0H381.8z"/>
	<g>
		<defs>
			<rect id="SVGID_1_" x="247.6" y="169.2" width="119" height="22.4"/>
		</defs>
		<clipPath id="SVGID_00000034069785634919373240000007209076377803081368_">
			<use xlink:href="#SVGID_1_"  style="overflow:visible;"/>
		</clipPath>
		<g style="clip-path:url(#SVGID_00000034069785634919373240000007209076377803081368_);">
			<g>
				<circle class="st4" cx="256" cy="177.5" r="8.3"/>
			</g>
			<g>
				<circle class="st4" cx="288.6" cy="177.5" r="8.3"/>
			</g>
			<g>
				<circle class="st4" cx="321.3" cy="177.5" r="8.3"/>
			</g>
			<g>
				<circle class="st4" cx="353.9" cy="177.5" r="8.3"/>
			</g>
		</g>
	</g>
	<g>
		<defs>
			<rect id="SVGID_00000177455918980921352590000010785115050744083623_" x="181.2" y="476.9" width="153" height="22.4"/>
		</defs>
		<clipPath id="SVGID_00000034084229467023394110000013795860668076682924_">
			<use xlink:href="#SVGID_00000177455918980921352590000010785115050744083623_"  style="overflow:visible;"/>
		</clipPath>
		<g style="clip-path:url(#SVGID_00000034084229467023394110000013795860668076682924_);">
			<g>
				<circle class="st4" cx="189.5" cy="485.3" r="8.3"/>
			</g>
			<g>
				<circle class="st4" cx="222.2" cy="485.3" r="8.3"/>
			</g>
			<g>
				<circle class="st4" cx="254.8" cy="485.3" r="8.3"/>
			</g>
			<g>
				<circle class="st4" cx="287.4" cy="485.3" r="8.3"/>
			</g>
			<g>
				<circle class="st4" cx="320.1" cy="485.3" r="8.3"/>
			</g>
		</g>
	</g>
	<g>
		<defs>
			<rect id="SVGID_00000038401591960717496380000004129098290973081220_" x="145.3" y="169.2" width="119" height="22.4"/>
		</defs>
		<clipPath id="SVGID_00000060009461907407554130000009017133188885809034_">
			<use xlink:href="#SVGID_00000038401591960717496380000004129098290973081220_"  style="overflow:visible;"/>
		</clipPath>
		<g style="clip-path:url(#SVGID_00000060009461907407554130000009017133188885809034_);">
			<g>
				<circle class="st4" cx="256" cy="177.5" r="8.3"/>
			</g>
			<g>
				<circle class="st4" cx="223.3" cy="177.5" r="8.3"/>
			</g>
			<g>
				<circle class="st4" cx="190.7" cy="177.5" r="8.3"/>
			</g>
			<g>
				<circle class="st4" cx="158.1" cy="177.5" r="8.3"/>
			</g>
		</g>
	</g>
	<path class="st7" d="M256,7.7v496.6h-81.1c-10.9,0-19.6-8.8-19.6-19.7v-0.8c0-10.8,8.8-19.6,19.6-19.6h15.4
		c-4.2-1.3-6.8-5.7-5.5-10.2l24.1-86.4c1-3.6,4.3-6.1,8-6.1h1.1v-105h-0.7c-43.1-13.7-75.5-49.6-85-93.4c-0.9-4.1-1.6-8.2-2-12.4v0
		L119.8,57c-7.1-1.5-12.7-7.4-13.6-15l-1.7-15.3c-1.1-10.2,6.9-19.1,17.1-19.1H256z"/>
</g>
</svg>
