<svg xmlns="http://www.w3.org/2000/svg" xml:space="preserve" id="Capa_1" x="0" y="0" style="enable-background:new 0 0 512 512" version="1.1" viewBox="0 0 512 512"><style>.st0{fill:#470d00}</style><path d="M331.2 143c-25.6-3.5-48.2 12-64 31-8.2 9.8-15.4 21.1-18.2 33.6-1.3 5.9-1.7 11.9-.9 17.8.9 6.8 3.7 12.9 5.8 19.4 2.2 7 2.2 13.2-.6 20.1-2.6 6.4-6.4 12.4-9.7 18.4-6 10.9-11.6 22.2-12.6 34.8-.9 10.8 1.7 22.4 9.1 30.6 8.4 9.5 21.1 11.5 33 13.2 12.7 1.8 26.9 4.3 36 14.3 3.7 4.1 6.1 9.2 6.2 14.8.1 6-1.2 12.1.7 18 4.1 12.5 19.9 13.8 31 14.8 11.8 1.1 24.3.6 35.5-3.6 10.3-3.9 19.3-11.1 22.6-22 3.7-12.5-2.3-25.5 1.3-37.9 3.2-11.3 14.3-18.3 24.3-23 11.6-5.5 23.9-9.3 34.4-16.8 19.9-14.4 32.6-37.2 35.4-61.5 1.4-12.1.3-25.3-4.3-36.6-4.7-11.4-14.1-22.4-27.5-21.6-7.7.4-7.7 12.4 0 12 10.1-.5 15.7 10.5 18 18.9 2.6 9.2 3 19.1 1.6 28.5-2.8 18.9-12.7 36.9-27.7 48.8-17.5 13.8-42 15.9-57.2 33.1-7.5 8.5-10.5 18.6-9.9 29.8.5 10.4 3.7 22.5-4.6 30.8-6.5 6.5-16.5 8.9-25.4 9.5-6.1.4-12.2.2-18.3-.5-4.6-.5-13-.8-16.5-4.4-3-3-1.6-9.3-1.4-13.2.2-5.7-.5-11.1-2.9-16.3-4.5-10.1-13.6-17.2-23.6-21.4-11-4.6-22.6-5.3-34.1-7.5-10.8-2.1-19.7-6.8-22.7-18.1-5.8-22.4 12.3-41.8 20.4-61 2.7-6.4 4.1-13 3.2-20-.9-6.5-3.5-12.4-5.5-18.5-4.3-13.2-1.1-25.9 5.9-37.5 11.8-19.7 35.3-42.5 60.3-39.1 3.2.4 6.4-.8 7.4-4.2.5-3-1.3-7.1-4.5-7.5z" class="st0"/><path d="M460 102.1c-3.6 77.7-55.3 159.1-140.8 207.9C215.1 369.5 94.9 361.5 28 296.6c8.1 1.5 17.4 2.9 27.7 4 6.9.7 14.6 1.6 22.9 2.3 47.1 4.1 113 4.3 168.4-36.1 14.2-10.3 25.7-21.9 35.3-33.7 19.3-23.8 30.3-48.4 37.6-64.7 6.1-13.6 10.6-26.6 14.1-38.8 5.6-19.8 8.3-37.2 9.6-50.5 10.4-1.5 21.9-2.3 34.2-1.6 32.6 1.7 60.3 12.3 82.2 24.6z" style="fill:#fff2a8"/><path d="M503.9 134.3c-5.4 20.3-12.1 38.3-19 54.1-9.7 22-19.9 39.5-28.5 52.6-6.2 9.4-17.6 26.7-35.2 46.3-23.5 26.2-57.8 56.7-105 78.6-18.6 8.7-53.4 24.4-101.3 26.7-29.1 1.4-51.5-2.9-63.3-5.2-39.8-7.8-67.5-22-88-33.8 6.6-6.8 11.3-14.8 14-23.1 68 31.5 159.8 26.5 241.7-20.3 85.5-48.9 137.2-130.3 140.8-207.9 19.5 10.9 34.4 23.3 43.8 32z" style="fill:#f0e39e"/><path d="M77.6 330.4c-2.7 8.4-7.4 16.3-14 23.1-3.1-1.8-6-3.5-8.7-5.1-46.1-27.4-49-43.6-48.7-51.1.1-2.2.4-4 .7-5.2.7.2 1.4.4 2.1.5 5.3 1.3 11.7 2.7 19.1 4.1 14.3 13.9 31 25.2 49.5 33.7z" style="fill:#e39d00"/><path d="M78.6 303.1c2.3 8.9 1.8 18.4-1 27.4-18.5-8.6-35.2-19.8-49.5-33.7 8.1 1.5 17.4 2.9 27.7 4 6.9.7 14.6 1.6 22.8 2.3z" style="fill:#ffb000"/><path d="M486.6 181.4c6.5 2.5 9.4 10 6.5 16.3-9.3 19.4-18.7 35.4-26.8 47.7-6.3 9.6-17.5 26.4-34.2 45.9-3.3 3.8-8.7 5.2-13.4 3.4l-134.4-52.2c-7.2-2.8-9.9-11.7-5.4-18 16.2-22.9 26.2-45.2 33.2-60.9 4.9-10.9 8.9-21.6 12.2-31.8 2.1-6.5 9.3-9.9 15.7-7.4l146.6 57z" style="fill:#561000"/><path d="M493 197.7c-9.3 19.4-18.7 35.4-26.8 47.7-6.3 9.6-17.5 26.4-34.2 45.9-3.3 3.8-8.7 5.2-13.4 3.4l-77.4-30c10.8-14.6 23.8-35.5 34-62.5 8.4-22.2 12.5-42.3 14.6-58.3 32.3 12.5 64.5 25 96.8 37.6 6.5 2.4 9.4 9.9 6.4 16.2z" class="st0"/></svg>