<?xml version="1.0" encoding="utf-8"?>
<!-- Generator: Adobe Illustrator 27.6.1, SVG Export Plug-In . SVG Version: 6.00 Build 0)  -->
<svg version="1.1" id="Capa_1" xmlns="http://www.w3.org/2000/svg" xmlns:xlink="http://www.w3.org/1999/xlink" x="0px" y="0px"
	 viewBox="0 0 512 512" style="enable-background:new 0 0 512 512;" xml:space="preserve">
<style type="text/css">
	.st0{fill:#333333;}
	.st1{fill:#262626;}
	.st2{opacity:0.36;}
	.st3{fill:#D90700;}
</style>
<g>
	<g>
		<path class="st0" d="M502.8,256c0,136.3-110.5,246.8-246.8,246.8V9.2C392.3,9.2,502.8,119.7,502.8,256z"/>
		<path class="st1" d="M256,9.2v493.6C119.7,502.8,9.2,392.3,9.2,256C9.2,119.7,119.7,9.2,256,9.2z"/>
	</g>
	<g class="st2">
		<g>
			<g>
				<path class="st3" d="M120.3,333.3c0.2-0.2,0.5-0.2,0.7-0.2l132.9,35.1l58.5,100.3c1,1.8,0.6,2.4-1.4,1.9
					c-35.5-9.1-71-18.7-106.5-28.8c-28.1-36-56.1-71.7-84.3-107.2C119.8,334.1,119.8,333.7,120.3,333.3z"/>
			</g>
			<g>
				<path class="st3" d="M108.7,197.2c0.2,0.1,0.5,0.2,0.6,0.5l55.4,125.8l-42,108.3c-0.7,1.9-1.5,1.9-2.4,0.1
					c-15-33.5-29.7-67.2-43.9-101.2c10.6-44.4,21-88.6,31.2-132.7C107.8,197.3,108.1,197.1,108.7,197.2z"/>
			</g>
			<g>
				<path class="st3" d="M207.8,103.3c0.1,0.2,0.1,0.5,0,0.7L144,225.8L33.2,260.5c-1.9,0.6-2.5,0-1.5-1.8
					c16.8-32.6,34-65.1,51.7-97.4c41.3-19.4,82.4-38.8,123.2-58.3C207.2,102.7,207.5,102.8,207.8,103.3z"/>
			</g>
			<g>
				<path class="st3" d="M343,122.3c-0.1,0.2-0.3,0.4-0.6,0.4l-134.9,26.1l-96.2-65c-1.7-1.1-1.5-1.9,0.5-2.3
					c36-7.2,72.1-14,108.5-20.3c40.9,20.2,81.7,40.2,122.4,60C343.1,121.4,343.3,121.8,343,122.3z"/>
			</g>
			<g>
				<path class="st3" d="M412.5,239.8c-0.2,0.1-0.5,0-0.7-0.2l-104.5-89.3l-9.2-115.8c-0.2-2,0.5-2.4,2.1-1.1
					c28.1,23.6,55.9,47.7,83.5,72.1c9.7,44.6,19.5,88.9,29.4,133.1C413.3,239.3,413.1,239.7,412.5,239.8z"/>
			</g>
			<g>
				<path class="st3" d="M363.9,367.4c-0.2-0.2-0.3-0.4-0.3-0.7l4.6-137.4l84.8-79.4c1.5-1.4,2.2-1.1,2.2,1
					c-1,36.7-2.4,73.4-4.3,110.2c-28.8,35.4-57.4,70.7-85.7,106C364.8,367.7,364.4,367.8,363.9,367.4z"/>
			</g>
			<g>
				<path class="st3" d="M233.9,409c0-0.3,0.1-0.5,0.3-0.7l110.3-82l114.9,16.8c2,0.3,2.2,1.1,0.6,2.3
					c-29.3,22.1-58.9,43.9-88.9,65.3c-45.6-0.5-91-0.8-136.3-0.9C234.2,409.9,233.9,409.6,233.9,409z"/>
			</g>
		</g>
	</g>
</g>
</svg>
