<svg xmlns="http://www.w3.org/2000/svg" xml:space="preserve" id="Capa_1" x="0" y="0" style="enable-background:new 0 0 512 512" version="1.1" viewBox="0 0 512 512"><style>.st2{fill:#ffbd86}.st3{fill:#7f8806}.st4{fill:#c03b15}.st5{fill:#fc3b23}.st6{fill:#ffab9e}.st7{fill:#ff8171}.st8{fill:#ff4e1c}</style><path d="M432.3 300.6c-50.1 26.1-102.1 30.5-156.1 13.3l-2.4-5.1c-3.2-13.7-19.1-30-29.9-10.4-1.1 2-3.5 2.7-5.5 1.7C226.6 294 216.5 286 208 276c21.4-41-9.5-84.9-55.4-74.5-20.7-49.7-21.6-99.7-2.8-150.1 1.4-3.6.4-7.6-1.2-10.8C225.8-8.1 319.2 2.5 382.4 54.4c-.6.3-1.4.6-2.2.9-13.4 4.7 9.6 11.9-1 18.1-3.7 2.2-7.4 3.7-11.1 4.6-2.4.6-2.9 1.8-1.4 3.8l6.9 8.9c1.5 1.9 1.2 3.4-.9 4.6-2.3 1.3-5.1 2.1-6.9 3.6-7 5.7-7.3 23.8-3.4 31.8 1.2 2.3.6 4.1-1.7 5.4-13.4 7.3-26.3 13.9-35.2 25.6-3.3 4.4-5.9 7.2-9.3 10.6-.5.5-.4.7.3.6 3.3-.6 6.1-2.2 8.3-4.7 12.5-14.3 29.3-19.8 45.5-28.5 1.6-.9 3.1-2.3 4.5-3.5 1.1-1 1.2-2 .3-3.2-1.6-2-3.4-3.8-4.1-6.4-1.8-6.6-1.2-13 1.8-19.3.7-1.4 1.7-2.4 3.2-2.9 5.6-2.1 11.4-4 17.4-5.8 3-.9 2.6-2.8.2-4.1-4-2.1-7.5-4.7-10.7-7.9-1.5-1.5-1.2-3 .8-4.3 3.7-2.5 7.6-4.8 11.5-7.1 2.1-1.2 3.8-3.1 1.1-5-3.1-2.1-5.4-4.8-7-8.1-.2-.4-.1-1 .2-1.3 29 26.1 50.7 61.4 60.3 103.9 10.2 45.6 4.4 91-17.5 135.9z" style="fill:#fff1ce"/><path d="M455.7 348c-2.3 33.4-20.9 53-55.6 58.7-1.9.3-3.4 2-3.4 3.9-.1 2.1-.1 4.1-.1 6.2-.5 30.4 1.3 61.6-22.2 76.6-7 4.5-16.3 7.5-28.5 8.7v-51.3c0-7.4 0-14.8-.1-22.1v-1.8c0-.5-.1-1-.1-1.5v-.1c0-.5-.1-1-.2-1.5l-.3-1.5c-.1-.3-.1-.6-.2-.8 0-.1-.1-.3-.1-.4-.1-.3-.1-.6-.2-.9-.2-.7-.4-1.4-.7-2.1-.1-.3-.2-.6-.3-.8-.1-.3-.2-.5-.3-.8-.1-.2-.2-.3-.2-.5l-.3-.6c-.1-.1-.1-.2-.2-.3-.1-.1-.1-.3-.2-.4-.3-.6-.7-1.1-1.1-1.6-.2-.2-.3-.4-.5-.6-.1-.2-.3-.3-.4-.5-.2-.2-.4-.5-.7-.7l-.5-.5c-.2-.2-.5-.4-.7-.6-.1-.1-.3-.2-.4-.3-.7-.5-1.4-.9-2.1-1.3l-.6-.3c-.1 0-.2-.1-.3-.1-.2-.1-.5-.2-.7-.3-.3-.1-.5-.2-.8-.3-.5-.2-1.1-.3-1.6-.4-.2 0-.4-.1-.6-.1-.1 0-.3 0-.4-.1h-.4c-2.6-.3-5.5 0-8.8.9-7.9 2.2-11.8 7.3-11.7 15l.1 13.8.1 11.6.5 54.3H275l-.6-61.2-.1-12.8-.1-11.2c0-.9-.3-1.8-.9-2.5-9.3-11.6-18.3-13.8-26.9-6.6-.3.3-.7.6-1 .9-.3.2-.5.4-.7.7l-.3.3c-.3.3-.5.5-.7.8v.1c-.3.3-.6.6-.8 1-.3.3-.5.7-.8 1l-.6.9c-.4.6-.8 1.3-1.1 2-.1.2-.2.3-.2.5-.1.2-.2.4-.3.7-.1.2-.2.4-.3.7l-.3.9c-.2.6-.3 1.2-.5 1.8-.1.4-.2.8-.3 1.3 0 .2-.1.4-.1.6 0 .2-.1.3-.1.5s0 .4-.1.5c0 .3-.1.6-.1.9 0 .5-.1 1-.1 1.5V502.8h-35.9V430c0-.5 0-.9-.1-1.4 0-1-.1-1.9-.2-2.8 0-.4-.1-.8-.1-1.1 0-.3-.1-.6-.1-.9-.1-.6-.2-1.2-.3-1.7-.1-.3-.1-.6-.2-.8-.1-.3-.1-.5-.2-.8-.1-.2-.1-.4-.2-.6-.2-.5-.3-1.1-.5-1.6-.1-.2-.1-.4-.2-.6-.1-.3-.3-.6-.4-.9 0 0 0-.1-.1-.1-.1-.3-.3-.6-.5-.9 0-.1-.1-.1-.1-.2-.1-.2-.2-.4-.4-.7-.1-.1-.2-.3-.3-.4-.2-.4-.5-.7-.8-1.1-.1-.2-.3-.4-.5-.6l-.1-.1-.6-.6-.1-.1c-.2-.2-.4-.4-.7-.6l-.1-.1c-.3-.2-.5-.4-.8-.6l-.9-.6s-.1 0-.1-.1c-.3-.2-.6-.3-.9-.5-.3-.1-.6-.3-.9-.4-.1 0-.2-.1-.3-.1l-.9-.3h-.1c-.4-.1-.7-.2-1.1-.3-.3-.1-.6-.1-.9-.2-.2-.1-.4-.1-.7-.1-.3-.1-.6-.1-.9-.1-.3 0-.5-.1-.8-.1h-.4c-1.1-.1-2.3 0-3.6.1-.3 0-.6.1-.8.1-.9.1-1.9.3-2.9.5h-.1c-.3.1-.6.1-.9.2-.3.1-.6.1-.9.2-.4.1-.8.2-1.1.3-.2.1-.5.1-.7.2-.2.1-.5.1-.7.2-.3.1-.7.2-1 .3-.4.1-.8.3-1.1.4l-.9.3c-.3.1-.7.3-1 .4-1.6.6-2.6 2.2-2.6 3.9l.8 88.1c-59.1-3-48.5-50.7-52.6-92.4-.2-1.8-1.6-3.3-3.4-3.7-37.4-6.5-60.2-37.8-55.5-68.8.5-3.5 1.4-7 2.7-10.5 3.2-8.9 8.9-17.5 17.3-25.2 1.3-1.2 1.7-3.2.9-4.8-44.9-93.2-16-200.7 71.2-257 1.7 3.2 2.6 7.2 1.2 10.8-18.9 50.4-18 100.4 2.8 150.1-12.4 3.8-21.8 11.1-28.3 21.8-32.8 54.8 44.7 107 83.7 52.7 8.5 10 18.6 18 30.4 24.1 2 1 4.4.3 5.5-1.7 10.8-19.5 26.6-3.2 29.9 10.4l-16.5-14.4c-.1-.1-.1-.1-.2-.1s-.1-.1-.2-.1c-.1-.1-.2-.1-.3-.2-.1-.1-.2-.1-.3-.2-.1-.1-.2-.1-.3-.1-.1 0-.2-.1-.3-.1-.1 0-.2-.1-.3-.1-.3-.1-.6-.1-.9-.1-.4 0-.7.1-1.1.1-.2 0-.4.1-.6.2-.1 0-.2.1-.3.2l-.9.6-.2.2c-.1.1-.1.2-.2.2-11.4 15.2-21.1 31.4-28.9 48.6-16.6 36.7 30.8 19.1 49.2 20.7 5.9.5 11.3.2 15.9-1 7.8-1.9 9.7-6.4 5.9-13.4-4.4-8.1-18.1-27.7-17.2-36 54 17.2 106 12.7 156.1-13.3 16.9 12.9 24.7 28.6 23.4 47.4z" style="fill:#ffe1bd"/><path d="M208.1 276c-39 54.3-116.5 2.1-83.7-52.7 6.4-10.7 15.9-18 28.3-21.8 46-10.4 76.8 33.5 55.4 74.5z" class="st2"/><circle cx="345.4" cy="249.5" r="49.5" class="st2"/><path d="m273.8 308.9 2.4 5.1c-.8 8.3 12.9 27.9 17.3 36 3.8 7 1.8 11.5-5.9 13.4-4.7 1.2-10 1.5-15.9 1-18.4-1.6-65.8 16-49.2-20.7 7.8-17.3 17.5-33.5 28.9-48.6 1.4-1.8 4-2.2 5.8-.8.1 0 .1.1.2.1l16.4 14.5zM275 502.8h-37v-76.9c0-7 2.8-12.8 8.3-17.3 8.6-7.2 17.6-5 26.9 6.6.6.7.9 1.6.9 2.5l.9 85.1zM345.9 502.1l-34.9.7-.8-79.8c-.1-7.8 3.8-12.8 11.7-15 15.5-4.4 23.9 5.5 23.9 20.6.1 24.5.1 49 .1 73.5zM202.1 502.8h-33.9l-.8-88.1c0-1.7 1-3.2 2.6-3.9 20.9-8.2 32.1-.9 32.1 20.6v71.4z" class="st2"/><path d="M291.9 13c12.5 6.4 16.9 14.2 18.6 18.4 2.5 6.2.4 7.4 2.8 25.9 1.4 10.6 2.8 15.5.6 16.6-2.8 1.4-7.3-.3-12.4-7.1-15.3-20.7-31.3-22.3-48.7-3.9-3.1 3.3-3.7 7.5-2.3 10.9L284 152c2.1 5 2.9 10.2 1.4 13.7-12.2 32.9-46.3-60.9-57-86-2.3-5.4-6.8-9-9.9-8.1l-36 15.4c-3.3 1.4-4.1 6.7-1.7 12.1l.4.8c5.7 10.9 4.7 20.3-2.1 28.6-2.6 3.1-7.5 2.2-10.9-1.3-.2-.4-1-1.1-1.1-1.5-5.6-8.5-13-14.2-21.8-17.4-4.6-1.5-9.1-1.6-12.7.5-11.3 6.4-15.2 4.2-19.4 4.7-5.8.7-14.3-1-25.6-11.7 9.7-15.1 35.8-51.5 85.2-74.1C226.1 3.2 274.6 9.8 291.9 13z" class="st3"/><path d="M218.2 279v-59.3c0-.2-.2-.3-.4-.5-17.1-9.8-34.2-19.7-51.2-29.5-.2-.1-.3-.1-.5 0-17.2 9.9-34.3 19.8-51.5 29.7l-.1.1c-.1 0-.1.1-.1.2v59.7l51.7 29.8c.2.1.3.1.5 0 17.1-9.9 34.2-19.7 51.3-29.6.3-.2.4-.4.3-.6zm-51.4-63.2c-.1 0-.1 0 0 0-.1 0-.1 0 0 0zm-.1 0c-.1 0-.1 0 0 0-.1 0-.1 0 0 0zm-.3.3v-.1.1zm.1-.2zm0 0c-.1.1-.1.1 0 0-.1.1-.1.1 0 0-.1.1-.1 0 0 0z" class="st4"/><path d="m166.4 189.7-.2.2c0 .1-.1.1-.1.2v25.3c0 .1-.1.2-.2.3L137 232.5c-.1.1-.2.2-.2.3l-.1 7.8v-7.8c0-.1-.1-.2-.2-.3-7.3-4.2-14.5-8.4-21.8-12.5-.1-.1-.3-.2-.5-.5 17.2-9.9 34.3-19.8 51.5-29.7.3-.2.5-.2.7-.1z" class="st5"/><path d="M166.4 189.7c17.1 9.8 34.2 19.7 51.2 29.5.2.1.4.3.4.5-.2 0-.3 0-.5.1-7.3 4.2-14.6 8.4-22 12.7l-28.9-16.6c-.2-.1-.3 0-.4.1v66.7l.1.5h-.2l-29.2-16.8-.1-25.9.1-7.8c0-.1.1-.2.2-.3l28.9-16.7c.1-.1.2-.2.2-.3v-25.3c0-.1 0-.1.1-.2l.1-.2z" class="st6"/><path d="M195.5 232.5c-.2.4 0 .9 0 1.3 0 10.8-.1 21.7-.1 32.5l-29.1 16.9-.1-.5v-66.5c0-.2.1-.3.3-.3h.2l28.8 16.6z" class="st7"/><path d="M114.4 219.4c.2.3.4.4.5.5 7.2 4.1 14.5 8.3 21.8 12.5.1.1.2.2.2.3v7.8l.1 25.9c-.1 0-.2 0-.3.1-7.4 4.3-14.8 8.6-22.3 12.9v-59.7c-.2-.1-.1-.1 0-.3z" class="st8"/><path d="M218 219.7V279c-7.6-4.1-15.1-8.3-22.6-12.7 0-10.8.1-21.7.1-32.5 0-.4-.2-.9 0-1.3 7.4-4.3 14.7-8.5 22-12.7.2-.1.3-.1.5-.1z" class="st5"/><path d="M195.4 266.3c7.4 4.4 15 8.6 22.6 12.7.1.2 0 .4-.3.5-17.1 9.9-34.2 19.7-51.3 29.6-.2.1-.3.1-.5 0 .2-.3.2-.5.2-.6 0-8.4 0-16.9-.1-25.3h.2l29.2-16.9z" class="st8"/><path d="m136.9 266.4 29.2 16.8c.1 8.4.1 16.9.1 25.3 0 .1-.1.3-.2.6l-51.7-29.8c7.5-4.3 14.9-8.6 22.3-12.9h.3zM397.5 279.1v-59.5c0-.2-.2-.3-.4-.5-17.1-9.9-34.2-19.7-51.3-29.6-.2-.1-.3-.1-.5 0-17.2 9.9-34.4 19.8-51.6 29.8l-.1.1c-.1 0-.1.1-.1.2v59.8l51.8 29.9c.2.1.3.1.5 0 17.1-9.9 34.3-19.8 51.4-29.7.3-.2.4-.4.3-.5zm-51.6-63.3zm0 0c-.1 0-.1 0 0 0-.1 0-.1 0 0 0zm-.3.3v-.1.1zm.1-.3zm-.1.1z" class="st4"/><path d="m345.6 189.6-.2.2c0 .1-.1.1-.1.2v25.4c0 .1-.1.2-.2.3l-29 16.7c-.1.1-.2.2-.2.3l-.1 7.8v-7.8c0-.1-.1-.2-.2-.3-7.3-4.2-14.6-8.4-21.8-12.6-.1-.1-.3-.2-.5-.5 17.2-9.9 34.4-19.8 51.6-29.8.3 0 .5 0 .7.1z" class="st5"/><path d="M345.6 189.6c17.1 9.9 34.2 19.7 51.3 29.6.2.1.4.3.4.5-.2 0-.3 0-.5.1-7.3 4.2-14.7 8.4-22 12.8l-29-16.6c-.2-.1-.3 0-.4.1V283l.1.5h-.2l-29.3-17-.1-25.9.1-7.8c0-.1.1-.2.2-.3l29-16.7c.1-.1.2-.2.2-.3v-25.4c0-.1 0-.1.1-.2l.1-.3z" class="st6"/><path d="M374.8 232.5c-.2.4 0 .9 0 1.3 0 10.9-.1 21.7-.1 32.6l-29.2 16.9-.1-.5V216.1c0-.2.1-.3.3-.3h.2l28.9 16.7z" class="st7"/><path d="M293.5 219.4c.2.3.4.4.5.5 7.2 4.1 14.5 8.3 21.8 12.6.1.1.2.2.2.3v7.8l.1 25.9c-.1 0-.2 0-.3.1-7.4 4.3-14.8 8.6-22.3 12.9v-59.8c-.2-.1-.1-.2 0-.3z" class="st8"/><path d="M397.3 219.7v59.5c-7.6-4.1-15.2-8.4-22.6-12.8 0-10.9.1-21.7.1-32.6 0-.4-.2-.9 0-1.3 7.4-4.3 14.7-8.6 22-12.8h.5z" class="st5"/><path d="M374.6 266.4c7.4 4.4 15 8.7 22.6 12.8.1.2 0 .4-.3.5-17.1 9.9-34.3 19.8-51.4 29.7-.2.1-.3.1-.5 0 .2-.3.2-.5.2-.6 0-8.5 0-16.9-.1-25.4h.2l29.3-17z" class="st8"/><path d="m316 266.5 29.2 16.8c.1 8.5.1 16.9.1 25.4 0 .1-.1.3-.2.6l-51.8-29.9c7.5-4.3 14.9-8.6 22.3-12.9.2 0 .3-.1.4 0z" class="st4"/><path d="M396.6 416.8c-.5 30.4 1.3 61.6-22.2 76.6l-1.9-15.2c-.9-7.3-3.5-8.6-7.9-3.8-19.7 21.3-13.5-2.8-18.7-12.4-2-3.8-5.9-5.3-13.8-.7-3.2 1.8-7 .6-8.7-2.7 0-.2-.2-.3-.2-.5-2.8-6.7-7-10-12.7-9.6-1.2.1-2.4.3-3.7.7l-32.3-7.6-3.4-.8-32.9-10.6-25.9-8.3-12.7-5.1-20.3-8.2c-.2-.1-.4-.2-.7-.3-31.1-14.3-61.1-30.7-90-49-3.5-2.1-7.2-4.6-10.7-6.9-7.1-4.7-14.1-9.6-21.1-14.5.5-3.5 1.4-7 2.7-10.5 9.4 6.7 19 13.1 28.6 19.2 3.7 2.3 7.5 4.6 11.1 6.9 22.9 13.7 46.9 26 71.6 36.8 9.9 6.7 20.8 11 32.4 12.8 11 6 23.1 10.9 36.3 14.8 8.3 2.5 17.1 4.6 26.3 6.3 2.3 1.9 5.2 3.5 8.5 4.7 6.5 2.4 14.9 3.5 25.2 3.3 2.7 2.4 6.3 4 10.8 4.8 2.1.4 4.5.6 7.1.6 1.8-.2 3.7-1.5 4.6-3.7 2.8-6.7 7-11.9 13-15.6 1.7-1.1 3.7-1.1 4.9-.2 1.8 1.5 3.5 2.8 5.4 4.1 8.8 6 18.5 9.5 29 10.4.9.1 2.9-1.1 5-3.2 5.2-5.2 11-9.4 17.3-12.6zM397.5 416.3c-.1 0-.1 0-.1.1v-.1h.1z" class="st3"/></svg>