<svg xmlns="http://www.w3.org/2000/svg" xml:space="preserve" id="Capa_1" x="0" y="0" style="enable-background:new 0 0 512 512" version="1.1" viewBox="0 0 512 512"><style>.st1{fill:#9e9797}</style><path d="M426.3 296.1c-11.5-77.1-23-154.3-34.4-231.4-1.6-10.8-3.5-21-14.7-23.4-10-2.2-41.3-8.5-93.9-19l-28.5-5.8c-16.5-3.4-33-6.7-49.4-10-7.1-1.4-17.3 4.5-24 8.5-17.1 8.4-34.3 16.9-51.4 25.5-4.4 2.2-7.3 5.3-8.9 9.4-11 28.2-22 56.4-32.9 84.7-1.3 3.3-2.8 7.3-2.5 10.1 12 103 24 206 36.1 309 1 8.7 5 15.5 13.8 17.4 40.8 8.8 81.6 17.5 122.4 26.2l30.7 6.7c5 1.2 8 1.9 9 2 6.5.5 11.8-2.4 18-5.4 33.7-14.7 55.4-24.3 65.3-28.7 6-2.7 8.5-7.6 10-14.3 11.6-51.7 23.1-103.5 34.6-155.2.6-3.4.9-5.4.7-6.3z" style="fill:#b9acac"/><path d="m254.6 16.5 28.5 5.8c-2.5 4.3-5.5 8.1-9 11.4-10.5 11.7-21.1 23.4-31.7 35.1-12.5 13.7-30.6-3.5-19.2-16.4 7-7.9 14.1-16 21.2-24.3l10.2-11.6z" class="st1"/><circle cx="309.1" cy="109.9" r="18" class="st1"/><path d="M314.5 471.9c-.2 7.9-.4 15.8-.5 23.7 0 2 .5 3.5 1.7 4.8-6.2 3-11.5 5.9-18 5.4-1-.1-4-.7-9-2v-20.2c0-10-1.2-22.1 1-31.8l4.8-21.3c1.7-7.8 3.2-13.1 10.9-14.9 7-1.6 13.7 2.8 15 9.8.4 2.3.1 5.8-1 10.6-1.4 6.1-2.8 12.2-4.1 18.4-1.2 5.9-.9 11.5-.8 17.5z" class="st1"/><path d="M181.5 14.9 244.7 28c-7.1 8.3-14.2 16.4-21.2 24.3-11.5 12.9 6.7 30.1 19.2 16.4 10.6-11.7 21.1-23.4 31.7-35.1 11.9 2.5 23.7 4.9 35.4 7.5 8.9 1.9 13.8 6.8 15.2 16.1 1.5 10.1 3 20.2 4.5 30.2.3 2.1-.1 3.9-.1 6-.1 3.6 2.1 6.7 2.6 9.5 9.7 65.1 19.4 130 29.1 194.5v.4c-11.9 53.7-23.9 107.4-36 161.1-1.4 6.2-4.9 10.5-10.6 13-.1-6-.4-11.6.9-17.5 1.3-6.1 2.7-12.3 4.1-18.4 1.1-4.8 1.4-8.3 1-10.6-1.3-7-8.1-11.3-15-9.8-7.7 1.7-9.2 7.1-10.9 14.9l-4.8 21.3c-2.2 9.7-1 21.8-1 31.8-10.4 4.1-20.6 8.6-30.6 13.5-40.8-8.7-81.6-17.4-122.4-26.2-8.8-1.9-12.8-8.7-13.8-17.4-12.1-103-24.1-206-36.1-309-.3-2.8 1.2-6.8 2.5-10.1 10.9-28.2 21.9-56.5 32.9-84.7 1.6-4.1 4.6-7.2 8.9-9.4 17-8.5 34.2-17 51.3-25.4zm140.3 95c0-7-5.7-12.7-12.7-12.7s-12.7 5.7-12.7 12.7 5.7 12.7 12.7 12.7 12.7-5.7 12.7-12.7z" style="fill:#cdbfbb"/><path d="M289.9 226.2c-5.2 2.6-10.9 1.6-18.6-2.1-6.5-3.5-14.8-9.7-24.9-19.8-9.1-8.7-23.7-19.6-42.6-33.6-4.5 12.2-4.5 25.3-.6 36.6 3.9 11.4 6.9 21.3 10.2 29.1 4.2 3.1 8.4 6.2 14.4 12 6.3 4.7 13.5 10.7 21.7 18.1 16.5 13.6 31.4 23.3 46.1 27.1-7.8 10.5-13.2 14.2-17.6 12.3-4.6-.8-10.1-3-15.5-6.3-5.5-2.2-11.8-6.8-19-12.9-6.1-5.8-12.3-10.5-17.9-12.7-5.3-3.3-9-2.8-11.7-.9-2.9 3-3.2 11.3-1 25.9l.1 13c1.4 12.1 3 23 4.4 35.1 2.5 12.3 4.2 23.2 4.4 35.1.9 8.4-1.3 14-6.7 17.8-5.4 3.8-10.4 5.3-16.4 5.4-5.9.1-11.5-2-16.8-5.4-2.1-1.6-2.8-4.1-3.2-8.9.8-4.6 1.2-6.9 2.6-7.8 2.9-3 4.9-7.4 6.1-14.3.9-11.7 2-24.5-.2-39.1-1.2-13.2-3.3-27.8-6.4-43.8-2.1-14.6-3.7-25.5-4.8-32.8l.2-1.1c-.5-3.6.1-7.1-.3-11.9-.3-4.8-.5-10.7.8-17.6-.1-13-.1-26.1-1.3-39.3-.3-11.9-1.9-22.8-4.8-32.8-1.3-6.1-3-10-6.2-11.8-1.1-.2-.7-2.5-.5-3.6.4-2.3.6-3.4 2-4.4 2.7-1.9 5.4-3.8 9.5-6.6 6.6-3.6 16.7-.6 29.6 6.5 7.4 4.9 15.6 12.2 24.7 21l13.1 13 14.2 13.2c10.3 8.9 19.6 16.5 27.9 22.7 4.2 3.1 6.8 8.3 8.1 14.5 1.1 7.1.5 10.6-3.1 11.1z" class="st1"/></svg>