<svg xmlns="http://www.w3.org/2000/svg" xml:space="preserve" id="Capa_1" x="0" y="0" style="enable-background:new 0 0 512 512" version="1.1" viewBox="0 0 512 512"><style>.st0{fill:#e99823}.st1{fill:#faaa42}</style><path d="M409.7 393.1h-239l25.9-55.9c2.8-5.9 7.9-10.2 14-12 2-.6 4.1-.9 6.2-.9H363c1.4 0 2.8.1 4.2.4 6.9 1.3 12.9 5.9 16 12.4l26.5 56z" class="st0"/><path d="M402 281.5c-.2 1.3-.4 2.6-.8 3.9-1.1 3.9-2.7 6.8-3.5 8.1-4.9 8-11.5 17.7-20.6 24.7-3.1 2.4-6.4 4.5-9.9 6.5-9.3 5.2-19.8 9.1-30.2 12.7-7.8 2.7-21.1 6.2-35.5 7.9-8.3 1-17 1.5-25.2.8-12.1-1.1-39.6-9.9-65.7-20.9-9.5-4-18.8-8.3-27.2-12.7C170.5 305.8 112 263 112 263c-31.4-20.9-55-37-69.1-41.3-11.8-3.5-21.5-5.8-28.6-8.4-6.7-2.5-11-5.5-12.3-10.3-1.5-5.3 3.1-12.2 5.4-12.7 5.4-1.2 10.8-1.8 16.1-1.9 22.7-.4 46.1 8.8 83.6 24.3 19.8 5.2 46.6 16.7 69.8 17 15.5.3 27.5-7.6 42.8-11.8 1.6-.4 3.2-.8 4.9-1.2 0 0 35.5-6.2 75.6-5.8 14.4.1 29.5 1.1 43.6 3.5 1 .1 3 .5 5.6 1.2 2.5.7 5.6 1.7 9 3.1 11.8 5 22.6 13.8 30.6 24.1 9.4 12 14.8 26.1 13 38.7z" class="st1"/><path d="M506.8 233.6c-2.2 3.2-5.3 5.7-8.5 7.9-19.5 13.7-43.3 19.6-65.1 29.3-7.8 3.5-16 8-19.3 15.9-.3.7-.5 1.5-1 2.1-.2.1-.3.3-.4.6-.7.7-2 1-2.7.3-.8-.7-.6-1.9-.3-2.9 1.3-4.9 2.6-9.9 5.1-14.3 4.1-7.1 10.9-12.1 17.8-16.6 9.4-6.1 19.2-11.7 29.1-16.9 3.3-1.8 6.7-3.5 9.4-6 4.1-3.8 6.6-9.3 6.7-14.9 0-3.5-.9-7.2-3.5-9.5-2.2-2-5.4-2.7-8.5-2.9-11.6-.6-22.6 5.3-31.2 13.1-2.1 1.9-4.2 4-6 6.3-2 2.6-3.7 5.4-5.3 8.2-8.4 14.5-15.2 30-20.2 46.1-.2.7-.5 1.5-.9 2.1-.1.2-.3.4-.5.6-.8.7-2.1.9-2.8.2-.3-.3-.5-.8-.6-1.2-2.1-6.2-4-12.5-6.1-18.8-1-3.2-2.1-6.3-3.2-9.4-.8-2.2-2.7-5.4-2.7-7.8 0-1.2.8-2.5 2-2.5.3 0 .6.1.9.2.4.2.8.4 1.3.5 2.1.6 4.4-.9 5.4-2.9s1-4.3 1-6.5c0-10.9 1.1-22.6 7.7-31.3 4.7-6.2 11.7-10.3 19.1-12.5 7.4-2.3 15.3-2.7 23-2.7 6.7.1 13.5.4 20.2 1.2 8 .9 16.1 2.3 23.5 5.7 7.4 3.4 14 8.8 17.6 16.1 3.5 7.3 3.6 16.5-1 23.2z" class="st1"/><path d="M353.8 223.2c.8 1.5.2 3.5-1.1 4.6-1.2 1.2-2.9 1.7-4.6 2.2-13.1 3.6-26.9 3.6-40.5 3.4-2 0-4 0-6-.1-11.4-.1-22.9-.4-34.3-1-15.4-.8-31.1-2.4-45.3-8.4v-.2c.2-2.1-.8-4.3-2.4-5.6 0-.1.1-.1.1-.2 1-2.4 3.7-3.6 6-4.8 6.3-3.2 12.2-7.2 17.6-11.8 3.8-3.3 7.4-7 11.7-9.6 5.1-3 10.9-4.5 16.6-5.9 2.3-.6 4.9-1.5 5.6-3.7.7-2.3-1-4.5-2.3-6.4-5.8-8.6-5.9-20.1-2.3-29.8 2.5-6.7 6.5-12.7 11.2-18.1 1.5-1.8 3.7-4.9 5.9-6.5.4-.3.8-.5 1.2-.7 2.8-1.1 5.4 1.1 7 3.2 7.6 10 12.1 22.2 12.9 34.7.3 5.6-.2 11.8-4 16-2.1 2.4-5.5 4.8-4.7 8 .6 2.7 3.9 3.7 6.5 4.5 16 4.9 26.8 19.5 40.8 28.6 2.2 1.5 4.5 2.8 7 3.9 0 1.6-1.1 3.2-2.6 3.7z" class="st0"/><path d="M506.8 233.6c-2.2 3.2-5.3 5.7-8.5 7.9-19.5 13.7-43.3 19.6-65.1 29.3-7.8 3.5-16 8-19.3 15.9-.3.7-.5 1.5-1 2.1-.2.1-.3.3-.4.6-.7.7-2 1-2.7.3-.8-.7-.6-1.9-.3-2.9 1.3-4.9 2.6-9.9 5.1-14.3 4.1-7.1 10.9-12.1 17.8-16.6 9.4-6.1 19.2-11.7 29.1-16.9 3.3-1.8 6.7-3.5 9.4-6 4.1-3.8 6.6-9.3 6.7-14.9 0-3.5-.9-7.2-3.5-9.5-2.2-2-5.4-2.7-8.5-2.9-11.6-.6-22.6 5.3-31.2 13.1-2.1 1.9-4.2 4-6 6.3-2 2.6-3.7 5.4-5.3 8.2-8.4 14.5-15.2 30-20.2 46.1-.2.7-.5 1.5-.9 2.1-.2 1.3-.4 2.6-.8 3.9-1.1 3.9-2.7 6.8-3.5 8.1-4.9 8-11.5 17.7-20.6 24.7-3.1 2.4-6.4 4.5-9.9 6.5 6.9 1.3 12.9 5.9 16 12.4l26.5 56H297.9c1.5-15.3 2.8-31.2 3.6-47.8.4-6.9.7-13.9.9-21 .5-14.1.7-28.5.6-43.3-.1-16.4-.6-32.3-1.4-47.7-.4-7.6-.9-15.1-1.4-22.5-2.4-32.3-6.1-62.3-10.5-89.6.4-.3.8-.5 1.2-.7 2.8-1.1 5.4 1.1 7 3.2 7.6 10 12.1 22.2 12.9 34.7.3 5.6-.2 11.8-4 16-2.1 2.4-5.5 4.8-4.7 8 .6 2.7 3.9 3.7 6.5 4.5 16 4.9 26.8 19.5 40.8 28.6 2.5.7 5.6 1.7 9 3.1 11.8 5 22.6 13.8 30.6 24.1.4.2.8.4 1.3.5 2.1.6 4.4-.9 5.4-2.9s1-4.3 1-6.5c0-10.9 1.1-22.6 7.7-31.3 4.7-6.2 11.7-10.3 19.1-12.5 7.4-2.3 15.3-2.7 23-2.7 6.7.1 13.5.4 20.2 1.2 8 .9 16.1 2.3 23.5 5.7 7.4 3.4 14 8.8 17.6 16.1 3.5 7.4 3.6 16.6-1 23.3z" style="opacity:.12;stroke:#000;stroke-miterlimit:10"/><path d="M27.5 198c0 6.8-5.5 12.7-13.2 15.3-6.7-2.5-11-5.5-12.3-10.3-1.5-5.3 3.1-12.2 5.4-12.7 5.4-1.2 10.8-1.8 16.1-1.9 2.6 2.7 4 6 4 9.6z" style="opacity:.11;stroke:#000;stroke-miterlimit:10"/></svg>