<?xml version="1.0" encoding="utf-8"?>
<!-- Generator: Adobe Illustrator 27.6.1, SVG Export Plug-In . SVG Version: 6.00 Build 0)  -->
<svg version="1.1" id="Capa_1" xmlns="http://www.w3.org/2000/svg" xmlns:xlink="http://www.w3.org/1999/xlink" x="0px" y="0px"
	 viewBox="0 0 512 512" style="enable-background:new 0 0 512 512;" xml:space="preserve">
<style type="text/css">
	.st0{fill:#BCAA83;}
	.st1{fill:#FFC107;}
</style>
<g>
	<path class="st0" d="M218.2,184.4c0.7-2.2,4.2-12.7,15-18.2c11.5-5.9,22.8-1.8,26.4-0.2c10.9,4.7,15.8,14.2,20.7,22.8
		c10.7,18.7,25.1,35.2,36.8,53.3c7.6,11.7,18.7,28.3,33.3,48c7.4,7.6,14.3,14.8,21.7,22.4c3.2,3.3,7.7,7.9,6.5,12.3
		c-0.6,2.1-2.3,3.6-4.5,4.8c-9.1,5.1-16.1,3.5-36.7,0c-17.9-3-20.2-4-22.6-6.2c-7.8-7.2-5.1-15.1-10.2-19.7
		c-2.9-2.7-4.4-0.4-15.1-2.5c-7.2-1.4-14.5-2.9-20.1-8.2c-2-1.9-6.1-6.5-7.6-15.4c-0.7-5.1,0.1-10.3-3.6-14.4
		c-1.1-1.2-2.4-2.1-3.6-2.8c-4-2.4-7.8-2.2-19.7-9c-10.1-5.8-17.8-10.2-22.2-16.5C201.1,217.8,215.5,189.6,218.2,184.4z"/>
	<path class="st0" d="M342.6,175.9c-2.9,2.3-8.7,6.8-10.7,5.3c-2.1-1.6,1.1-9.1,2.7-12.9c2.3-5.4,4.9-9.5,6.9-12.2
		c4.3,2.4,8.7,4.7,13,7.1C352.2,166.6,348.4,171.4,342.6,175.9z"/>
	<path class="st0" d="M365,192.9c-3.2,1.9-9.5,5.6-11.3,3.9c-1.9-1.8,2.3-8.9,4.4-12.5c3-5.1,6.1-8.8,8.4-11.2c4,2.9,8,5.8,12,8.7
		C375.7,184.8,371.3,189.1,365,192.9z"/>
	<path class="st0" d="M385.9,210.4c-3.2,1.9-9.5,5.6-11.3,3.9c-1.9-1.8,2.3-8.9,4.4-12.5c3-5.1,6.1-8.8,8.4-11.2c4,2.9,8,5.8,12,8.7
		C396.7,202.4,392.3,206.7,385.9,210.4z"/>
	<path class="st0" d="M411.2,223.6c-3.2,1.9-9.4,5.8-11.2,4.1c-1.9-1.8,2.1-8.9,4.2-12.5c2.9-5.1,6-8.9,8.2-11.3
		c4,2.8,8.1,5.7,12.1,8.5C421.9,215.3,417.6,219.7,411.2,223.6z"/>
	<path class="st0" d="M431.6,240.8c-3.5,1.3-10.3,3.9-11.8,1.9c-1.5-2.1,3.8-8.4,6.5-11.6c3.8-4.5,7.5-7.6,10.2-9.6
		c3.4,3.5,6.9,7.1,10.3,10.6C443.6,234.8,438.5,238.2,431.6,240.8z"/>
	<path class="st0" d="M364,282.9c3.5-1.3,10.3-4,11.8-2c1.5,2.1-3.7,8.4-6.4,11.6c-3.7,4.5-7.5,7.7-10.1,9.7
		c-3.5-3.5-6.9-7-10.4-10.5C352,289.1,357.1,285.6,364,282.9z"/>
	<path class="st0" d="M380.2,304.1c3.3-0.7,9.8-2.1,10.9-0.1c1.1,2.1-4.5,7-7.4,9.5c-4,3.5-7.8,5.8-10.4,7.2
		c-2.6-3.7-5.2-7.3-7.8-11C368.6,307.9,373.6,305.5,380.2,304.1z"/>
	<path class="st0" d="M347.5,262.8c3.6-0.9,10.7-2.7,11.9-0.5c1.2,2.3-4.7,7.8-7.8,10.7c-4.3,4-8.4,6.6-11.2,8.3
		c-3-3.9-6-7.9-9-11.8C334.8,267.4,340.3,264.5,347.5,262.8z"/>
	<path class="st0" d="M332.4,239.5c3.6-0.9,10.7-2.7,11.9-0.5c1.2,2.3-4.7,7.8-7.8,10.7c-4.3,4-8.4,6.6-11.2,8.3
		c-3-3.9-6-7.9-9-11.8C319.8,244.1,325.3,241.3,332.4,239.5z"/>
	<path class="st0" d="M316.6,216.2c3.6-0.9,10.7-2.8,11.9-0.7c1.3,2.3-4.6,7.9-7.6,10.8c-4.2,4-8.3,6.8-11.1,8.5
		c-3-3.9-6.1-7.8-9.1-11.6C304.1,221,309.5,218.1,316.6,216.2z"/>
	<path class="st0" d="M302.7,195.8c3.7-0.5,11-1.5,11.9,0.8c1,2.4-5.5,7.3-8.9,9.8c-4.7,3.5-9,5.7-12.1,7c-2.6-4.2-5.1-8.4-7.7-12.7
		C289.7,199.1,295.4,196.8,302.7,195.8z"/>
	<path class="st0" d="M470.3,182.7c-1.9-6-5.5-14.7-12.4-23.4c-11.9-14.8-24.9-18.2-42-29.3c-9.4-6.1-22.3-15.9-35.7-31.9
		c-3.9-8.3-11-20.1-23.3-30.7c-8.7-7.5-21.7-18.8-39.6-19.9c-10.4-0.6-13.9,2.7-26.6,0.7c-10.8-1.7-13.9-5-21.9-7.3
		c-10.7-3.1-23.4,0.6-48.5,8C182.6,60,177,66.9,174.9,70c-4.3,6.1-3.1,8.6-9.5,17.1c-8.9,12-16,13.6-17,21.7
		c-0.6,4.4,1.4,8.4,5.3,16.4c4.7,9.5,7.5,15.2,13.1,19.4c13.1,10,32.3,5.2,39.7,3.4c14-3.5,14.2-8.1,24.8-8.5
		c11.6-0.3,13.4,5.2,27.6,5.9c13.8,0.7,15-4.4,24.5-2.3c12.7,2.8,14.1,12.7,26.5,16.4c5.7,1.7,13.8,2.1,25.1-2.8
		c38.3,27.7,76.7,55.4,115,83c3.5-0.1,15.1-0.9,22.8-9.4C483,219.1,482.9,198.9,470.3,182.7z M203.5,134.5
		c-17.2,5.8-34.7-0.3-39.1-13.5c-4.4-13.2,5.9-28.6,23-34.3c17.2-5.8,34.7,0.3,39.1,13.5S220.6,128.8,203.5,134.5z M316.4,131.4
		c-18.6,0-33.6-15-33.6-33.6s15-33.6,33.6-33.6c18.6,0,33.6,15,33.6,33.6S334.9,131.4,316.4,131.4z M459.4,222.1
		c-7.7,3.6-17.4-1-21.7-10.2c-4.3-9.2-1.5-19.6,6.1-23.1c7.7-3.6,17.4,1,21.7,10.2C469.8,208.1,467.1,218.5,459.4,222.1z"/>
</g>
<path class="st0" d="M31.5,55l1.5-3.5c4.6-7.4,11.2-10.9,19.8-10.7c0.1,0,0.2,0,0.3-0.1c6.3-5.9,13.7-7.7,22.1-5.2l3.4,1.5
	c12.2,7.5,14.8,24,3.9,33.9c-0.7,0.6-1.3,1.2-2,1.8c-0.1,0.1-0.2,0.3-0.1,0.5c6.1,16,12.3,32.1,18.4,48.1c0.1,0.3,0.3,0.4,0.6,0.3
	l-0.2,0.5c0,0.1,0,0.2,0,0.3c3.1,8,6.2,16.1,9.3,24.2c0.1,0.3,0.4,0.6,0.7,1l-0.1,0.1c-0.1,0.1-0.1,0.3,0,0.4l18.5,48.3
	c0.1,0.2,0.3,0.3,0.5,0.3c15.8-1.2,27.1,12.8,22.3,27.9l-1.4,3.1c-4.6,7.5-11.2,11.2-19.9,10.9c-0.1,0-0.2,0-0.3,0.1
	c-6.3,5.9-13.6,7.7-22,5.2l-3.6-1.6c-13.1-8.4-14.6-26.1-1.8-35.5c0.2-0.1,0.2-0.4,0.2-0.6l-18.7-48.6l-9.9-26.1L54.3,83.1
	c-0.1-0.2-0.3-0.3-0.5-0.3C38,84.2,27,70,31.5,55z"/>
<g>
	<path class="st0" d="M415.5,367.3l2.9,0.5c6.5,2.2,10.5,6.5,11.9,13.2c0,0.1,0.1,0.2,0.2,0.2c5.7,3.7,8.4,9,8.1,15.9l-0.5,2.8
		c-3.4,10.7-15.6,15.8-25.2,9.3c-0.6-0.4-1.2-0.8-1.8-1.2c-0.1-0.1-0.3-0.1-0.4,0c-11.1,7.7-22.3,15.4-33.4,23.1
		c-0.2,0.1-0.2,0.3-0.1,0.5l-0.4-0.1c-0.1,0-0.2,0-0.3,0.1c-5.6,3.9-11.2,7.8-16.8,11.6c-0.2,0.1-0.4,0.4-0.6,0.7l-0.1,0
		c-0.1,0-0.2,0-0.3,0.1L325,467.3c-0.1,0.1-0.2,0.3-0.1,0.4c3.9,11.9-4.8,23.1-17.2,22.3l-2.7-0.5c-6.6-2.1-10.6-6.5-12.1-13.2
		c0-0.1-0.1-0.2-0.2-0.2c-5.7-3.7-8.4-9-8.1-15.8l0.6-3c4-11.6,17.2-16,26.9-8c0.1,0.1,0.3,0.1,0.5,0l33.8-23.4l18.2-12.4l33.8-23.3
		c0.1-0.1,0.2-0.3,0.1-0.4C394.3,377.7,403.2,366.7,415.5,367.3z"/>
	<path class="st0" d="M464.5,329.8c0.8,2.3-7.5,4.8-19.8,16.6c-11.5,11-14.3,18.5-16.7,17.5c-3.3-1.3-3.6-17.7,5.7-27.4
		C444.2,325.5,463.3,326.5,464.5,329.8z"/>
	<path class="st0" d="M485.5,356.3c-0.1,2.5-8.7,1.9-24.4,8.6c-14.6,6.3-19.8,12.3-21.7,10.6c-2.6-2.3,2.8-17.8,14.9-23.7
		C467.9,345.2,485.6,352.8,485.5,356.3z"/>
	<path class="st0" d="M497.7,385.5c-0.8,2.3-8.9-0.9-25.8,0.8c-15.8,1.5-22.6,5.6-23.9,3.4c-1.8-3,8.1-16.1,21.5-18
		C484.4,369.6,498.8,382.2,497.7,385.5z"/>
</g>
<path class="st0" d="M232.1,457.5c-3,7.8-9.1,11.7-11,12.8c-5,1.7-12.6,3.5-20.9,1.6c-34.2-7.9-23.5-65.1-62.9-93.7
	c-26.9-19.5-85.5-31.9-94.9-41.7c-4.7-5-5.1-10.1-5.1-10.1c-0.3-3.8,0.9-7.7,3.5-10.8l11-12.8c2.7-3.1,6.3-4.8,10.1-5.1
	c5.4-0.4,9.6,2.7,10.8,3.5c17.2,12.1,59.7,15.1,91.9,46.4c26.5,25.8,22.1,46.6,66,89c0,0,0,0,0,0C231.3,438,236,447.1,232.1,457.5z"
	/>
<path class="st0" d="M163.5,309.2c-14.1,7.3-32.6,18.6-51.3,35.8c-19.1,17.6-32.1,35.4-40.6,49c-0.6,0.6-4,3.6-9.2,3.4
	c-3.3-0.1-6.5-1.5-8.9-4.1l-4.8-5.2c-2.4-2.6-3.5-5.9-3.4-9.2c0.2-3.9,2.3-6.9,4.1-8.9c9.6-10.8,36.1-24,51-37.8
	c14.3-13.3,31.6-40,41-47.1c1.3-1,4.8-3.6,9.2-3.4c3.3,0.1,6.5,1.5,8.9,4.1l4.8,5.2C169,296.3,168.7,304.4,163.5,309.2z"/>
<path class="st0" d="M210.3,342.7c-14.6,6.4-33.7,16.5-53.5,32.5c-20.2,16.3-34.3,33.3-43.7,46.3c-0.7,0.5-4.2,3.3-9.4,2.8
	c-3.3-0.3-6.4-1.9-8.6-4.7l-4.4-5.4c-2.2-2.7-3.1-6.1-2.8-9.4c0.4-3.9,2.8-6.7,4.7-8.6c10.3-10.1,37.6-21.6,53.3-34.5
	c15.1-12.4,34.1-37.9,43.9-44.3c1.4-0.9,5-3.3,9.4-2.8c3.3,0.3,6.4,1.9,8.6,4.7l4.4,5.4C216.7,330.2,215.8,338.2,210.3,342.7z"/>
<path class="st0" d="M241.5,388.3c-15.1,4.8-35.2,12.9-56.6,26.8c-21.8,14.1-37.6,29.5-48.2,41.6c-0.7,0.5-4.6,2.9-9.6,1.8
	c-3.2-0.7-6.2-2.6-8.1-5.5l-3.8-5.9c-1.9-3-2.5-6.4-1.8-9.6c0.8-3.8,3.5-6.4,5.5-8.1c11.3-9,39.6-17.6,56.6-28.8
	c16.3-10.7,37.8-34.2,48.2-39.6c1.5-0.8,5.4-2.7,9.6-1.8c3.2,0.7,6.2,2.6,8.1,5.5l3.8,5.9C249.1,376.5,247.4,384.4,241.5,388.3z"/>
<path class="st1" d="M147.8,244.4c3.1,2.2,5.5,5.3,7.2,9.3c10.3,24,20.5,48,30.5,72c0.2,0.5,0.7,0.8,1.2,0.9c27.3,2.5,54.6,5,82,7.5
	c2.4,0.2,4.7,1.3,6.9,3.3c13,12,0.5,22.6-8.7,30.4l-51.7,45.3c-0.4,0.3-0.6,0.9-0.5,1.4c5.8,25.7,11.5,51.3,17.2,76.6
	c2.2,9.8-0.8,17.3-10.8,20.3l-5.5,0.3c-25.1-13.9-49.7-28.4-74.1-43.5c-0.4-0.3-1-0.3-1.5,0l-74.6,43.6l-5.2-0.4
	c-10-3.3-13.8-10.1-11.4-20.4c5.8-25.2,11.6-50.6,17.5-76.2c0.1-0.5-0.1-1-0.4-1.4C45.8,395.7,25.8,378.1,6,360.6
	c-2.3-2-4.2-4.8-5.7-8.4v-8.9c2.8-2.4,4.5-6.4,9.1-8.2c1.5-0.6,3.6-1,6.3-1.3c19.4-1.8,38.6-3.6,57.7-5.3l20.3-1.6
	c0.5,0,1-0.4,1.2-0.9l16.5-38.2c5.3-12.6,10.8-25.1,16.4-37.6c1.1-2.6,3.4-4.2,5.5-5.8C138,242.1,142.9,242.1,147.8,244.4z"/>
</svg>
