<?xml version="1.0" encoding="utf-8"?>
<!-- Generator: Adobe Illustrator 27.6.1, SVG Export Plug-In . SVG Version: 6.00 Build 0)  -->
<svg version="1.1" id="Capa_1" xmlns="http://www.w3.org/2000/svg" xmlns:xlink="http://www.w3.org/1999/xlink" x="0px" y="0px"
	 viewBox="0 0 512 512" style="enable-background:new 0 0 512 512;" xml:space="preserve">
<style type="text/css">
	.st0{fill:#E99823;}
	.st1{fill:#FAAA42;}
	.st2{opacity:0.12;stroke:#000000;stroke-miterlimit:10;}
	.st3{opacity:0.11;stroke:#000000;stroke-miterlimit:10;}
</style>
<path class="st0" d="M409.7,393.1h-239l25.9-55.9c2.8-5.9,7.9-10.2,14-12c2-0.6,4.1-0.9,6.2-0.9H363c1.4,0,2.8,0.1,4.2,0.4
	c6.9,1.3,12.9,5.9,16,12.4L409.7,393.1z"/>
<path class="st1" d="M402,281.5c-0.2,1.3-0.4,2.6-0.8,3.9c-1.1,3.9-2.7,6.8-3.5,8.1c-4.9,8-11.5,17.7-20.6,24.7
	c-3.1,2.4-6.4,4.5-9.9,6.5c-9.3,5.2-19.8,9.1-30.2,12.7c-7.8,2.7-21.1,6.2-35.5,7.9c-8.3,1-17,1.5-25.2,0.8
	c-12.1-1.1-39.6-9.9-65.7-20.9c-9.5-4-18.8-8.3-27.2-12.7C170.5,305.8,112,263,112,263c-31.4-20.9-55-37-69.1-41.3
	c-11.8-3.5-21.5-5.8-28.6-8.4c-6.7-2.5-11-5.5-12.3-10.3c-1.5-5.3,3.1-12.2,5.4-12.7c5.4-1.2,10.8-1.8,16.1-1.9
	c22.7-0.4,46.1,8.8,83.6,24.3c19.8,5.2,46.6,16.7,69.8,17c15.5,0.3,27.5-7.6,42.8-11.8c1.6-0.4,3.2-0.8,4.9-1.2
	c0,0,35.5-6.2,75.6-5.8c14.4,0.1,29.5,1.1,43.6,3.5c1,0.1,3,0.5,5.6,1.2c2.5,0.7,5.6,1.7,9,3.1c11.8,5,22.6,13.8,30.6,24.1
	C398.4,254.8,403.8,268.9,402,281.5z"/>
<path class="st1" d="M506.8,233.6c-2.2,3.2-5.3,5.7-8.5,7.9c-19.5,13.7-43.3,19.6-65.1,29.3c-7.8,3.5-16,8-19.3,15.9
	c-0.3,0.7-0.5,1.5-1,2.1c-0.2,0.1-0.3,0.3-0.4,0.6c-0.7,0.7-2,1-2.7,0.3c-0.8-0.7-0.6-1.9-0.3-2.9c1.3-4.9,2.6-9.9,5.1-14.3
	c4.1-7.1,10.9-12.1,17.8-16.6c9.4-6.1,19.2-11.7,29.1-16.9c3.3-1.8,6.7-3.5,9.4-6c4.1-3.8,6.6-9.3,6.7-14.9c0-3.5-0.9-7.2-3.5-9.5
	c-2.2-2-5.4-2.7-8.5-2.9c-11.6-0.6-22.6,5.3-31.2,13.1c-2.1,1.9-4.2,4-6,6.3c-2,2.6-3.7,5.4-5.3,8.2c-8.4,14.5-15.2,30-20.2,46.1
	c-0.2,0.7-0.5,1.5-0.9,2.1c-0.1,0.2-0.3,0.4-0.5,0.6c-0.8,0.7-2.1,0.9-2.8,0.2c-0.3-0.3-0.5-0.8-0.6-1.2c-2.1-6.2-4-12.5-6.1-18.8
	c-1-3.2-2.1-6.3-3.2-9.4c-0.8-2.2-2.7-5.4-2.7-7.8c0-1.2,0.8-2.5,2-2.5c0.3,0,0.6,0.1,0.9,0.2c0.4,0.2,0.8,0.4,1.3,0.5
	c2.1,0.6,4.4-0.9,5.4-2.9s1-4.3,1-6.5c0-10.9,1.1-22.6,7.7-31.3c4.7-6.2,11.7-10.3,19.1-12.5c7.4-2.3,15.3-2.7,23-2.7
	c6.7,0.1,13.5,0.4,20.2,1.2c8,0.9,16.1,2.3,23.5,5.7c7.4,3.4,14,8.8,17.6,16.1C511.3,217.7,511.4,226.9,506.8,233.6z"/>
<path class="st0" d="M353.8,223.2c0.8,1.5,0.2,3.5-1.1,4.6c-1.2,1.2-2.9,1.7-4.6,2.2c-13.1,3.6-26.9,3.6-40.5,3.4c-2,0-4,0-6-0.1
	c-11.4-0.1-22.9-0.4-34.3-1c-15.4-0.8-31.1-2.4-45.3-8.4c0-0.1,0-0.1,0-0.2c0.2-2.1-0.8-4.3-2.4-5.6c0-0.1,0.1-0.1,0.1-0.2
	c1-2.4,3.7-3.6,6-4.8c6.3-3.2,12.2-7.2,17.6-11.8c3.8-3.3,7.4-7,11.7-9.6c5.1-3,10.9-4.5,16.6-5.9c2.3-0.6,4.9-1.5,5.6-3.7
	c0.7-2.3-1-4.5-2.3-6.4c-5.8-8.6-5.9-20.1-2.3-29.8c2.5-6.7,6.5-12.7,11.2-18.1c1.5-1.8,3.7-4.9,5.9-6.5c0.4-0.3,0.8-0.5,1.2-0.7
	c2.8-1.1,5.4,1.1,7,3.2c7.6,10,12.1,22.2,12.9,34.7c0.3,5.6-0.2,11.8-4,16c-2.1,2.4-5.5,4.8-4.7,8c0.6,2.7,3.9,3.7,6.5,4.5
	c16,4.9,26.8,19.5,40.8,28.6c2.2,1.5,4.5,2.8,7,3.9C356.4,221.1,355.3,222.7,353.8,223.2z"/>
<path class="st2" d="M506.8,233.6c-2.2,3.2-5.3,5.7-8.5,7.9c-19.5,13.7-43.3,19.6-65.1,29.3c-7.8,3.5-16,8-19.3,15.9
	c-0.3,0.7-0.5,1.5-1,2.1c-0.2,0.1-0.3,0.3-0.4,0.6c-0.7,0.7-2,1-2.7,0.3c-0.8-0.7-0.6-1.9-0.3-2.9c1.3-4.9,2.6-9.9,5.1-14.3
	c4.1-7.1,10.9-12.1,17.8-16.6c9.4-6.1,19.2-11.7,29.1-16.9c3.3-1.8,6.7-3.5,9.4-6c4.1-3.8,6.6-9.3,6.7-14.9c0-3.5-0.9-7.2-3.5-9.5
	c-2.2-2-5.4-2.7-8.5-2.9c-11.6-0.6-22.6,5.3-31.2,13.1c-2.1,1.9-4.2,4-6,6.3c-2,2.6-3.7,5.4-5.3,8.2c-8.4,14.5-15.2,30-20.2,46.1
	c-0.2,0.7-0.5,1.5-0.9,2.1c-0.2,1.3-0.4,2.6-0.8,3.9c-1.1,3.9-2.7,6.8-3.5,8.1c-4.9,8-11.5,17.7-20.6,24.7c-3.1,2.4-6.4,4.5-9.9,6.5
	c6.9,1.3,12.9,5.9,16,12.4l26.5,56H297.9c1.5-15.3,2.8-31.2,3.6-47.8c0.4-6.9,0.7-13.9,0.9-21c0.5-14.1,0.7-28.5,0.6-43.3
	c-0.1-16.4-0.6-32.3-1.4-47.7c-0.4-7.6-0.9-15.1-1.4-22.5c-2.4-32.3-6.1-62.3-10.5-89.6c0.4-0.3,0.8-0.5,1.2-0.7
	c2.8-1.1,5.4,1.1,7,3.2c7.6,10,12.1,22.2,12.9,34.7c0.3,5.6-0.2,11.8-4,16c-2.1,2.4-5.5,4.8-4.7,8c0.6,2.7,3.9,3.7,6.5,4.5
	c16,4.9,26.8,19.5,40.8,28.6c2.5,0.7,5.6,1.7,9,3.1c11.8,5,22.6,13.8,30.6,24.1c0.4,0.2,0.8,0.4,1.3,0.5c2.1,0.6,4.4-0.9,5.4-2.9
	s1-4.3,1-6.5c0-10.9,1.1-22.6,7.7-31.3c4.7-6.2,11.7-10.3,19.1-12.5c7.4-2.3,15.3-2.7,23-2.7c6.7,0.1,13.5,0.4,20.2,1.2
	c8,0.9,16.1,2.3,23.5,5.7c7.4,3.4,14,8.8,17.6,16.1C511.3,217.7,511.4,226.9,506.8,233.6z"/>
<path class="st3" d="M27.5,198c0,6.8-5.5,12.7-13.2,15.3c-6.7-2.5-11-5.5-12.3-10.3c-1.5-5.3,3.1-12.2,5.4-12.7
	c5.4-1.2,10.8-1.8,16.1-1.9C26.1,191.1,27.5,194.4,27.5,198z"/>
</svg>
