<?xml version="1.0" encoding="utf-8"?>
<!-- Generator: Adobe Illustrator 27.6.1, SVG Export Plug-In . SVG Version: 6.00 Build 0)  -->
<svg version="1.1" id="Capa_1" xmlns="http://www.w3.org/2000/svg" xmlns:xlink="http://www.w3.org/1999/xlink" x="0px" y="0px"
	 viewBox="0 0 512 512" style="enable-background:new 0 0 512 512;" xml:space="preserve">
<style type="text/css">
	.st0{fill:#9C9C9C;}
	.st1{fill:#C2C2C2;}
	.st2{fill:#0070BF;}
	.st3{fill:#FFFFFF;}
</style>
<path class="st0" d="M435.7,124.3c0.6-1.4,0.9-2.9,0.9-4.7c-0.5-17.2-1-34.4-1.7-51.7c0-0.7-0.6-1.2-1.2-1.3
	c-17.7-1.5-35.2-3.9-52.5-7.1c-26.5-5.6-52-14.1-76.6-25.3c-15.7-10.8-31.7-20.8-47.8-30c-0.4-0.2-0.9-0.2-1.3,0
	c-16.3,9.2-32.1,19.1-47.3,29.6c-24.6,11.3-50.1,19.9-76.6,25.6c-17.1,3.2-34.3,5.5-51.7,7.1c-0.7,0.1-1.2,0.6-1.2,1.3L76.5,125
	c-2.2,58.3-3.1,120.8,9.9,179.4c16.4,73.8,60.3,130.7,121.5,173.4c15.4,11,31.2,20.9,47.6,29.9c0.4,0.2,0.9,0.2,1.3,0
	c16.4-9.1,32.2-19.1,47.5-29.8c59.6-41.9,102.8-96.5,120.3-168.3C439.2,249.2,437.5,187,435.7,124.3z M420.1,126.2
	c0.1,0.1,0.2,0.2,0.4,0.3C420.3,126.4,420.2,126.3,420.1,126.2z M419.8,125.7c0.1,0.1,0.1,0.3,0.2,0.4
	C419.9,126,419.9,125.9,419.8,125.7z M420.5,126.5c0.1,0.1,0.3,0.1,0.5,0.1C420.8,126.6,420.6,126.5,420.5,126.5z M421,126.6
	c0.2,0,0.3,0,0.5-0.1C421.3,126.6,421.1,126.6,421,126.6z M421.5,126.5C421.5,126.5,421.5,126.5,421.5,126.5c0.1,0,0.3-0.1,0.4-0.2
	C421.8,126.4,421.7,126.5,421.5,126.5z"/>
<path class="st1" d="M295,47.6c26.5,12.6,54.2,21.9,83,27.9c31.3,6.9,41.7,17.2,41.6,49.9c-0.2,12.4-0.2,24.8,0.2,37.2
	c3,92.9-5.3,184.4-71.6,255.9c-15.8,17-33.7,32.4-53.8,46.2c-6.9,4.8-13,8-18.3,9.8c-7.1,2.3-13.5,0.8-19.2-4.6
	c-0.5-0.5-1.3-0.5-1.8,0c-3,2.7-6.4,4.4-10.1,5.1c-9,1.7-20.6-5-27.8-10.3c-23.2-16-43.2-33.8-60.1-53.3
	c-58.8-68-67.3-154.2-65.2-241c0.3-14.1,0.6-28.2,0.8-42.2c2-13.2,1.3-34,14.7-42.2c7.4-4.6,16.9-8.1,28.3-10.5
	c26.7-5.9,52.6-14.4,77.6-25.6c1.2-0.6,2.3-1.6,3.9-2c7.1-4.9,18.6-11.9,27.2-10.7c4.1,0.5,7.7,2.4,10.7,5.5c0.5,0.5,1.4,0.5,1.9,0
	C269.3,30.7,282.9,39.8,295,47.6z"/>
<path class="st2" d="M257,277.9l98.3,98.3c-8,11.4-17.3,22.3-28,32.7c-20.8,20.2-44.4,37.8-70.9,52.9c-0.4,0.2-0.9,0.2-1.3,0
	c-39-23.1-72.7-50.4-97.4-84.6L257,277.9z"/>
<path class="st2" d="M391.6,293.7c-3.2,13.3-7.2,26.3-12.4,38.9L257,210.5L133.3,334.2c-5.2-12.1-9.4-25-12.6-38.7L257,159.2
	L391.6,293.7z"/>
<path class="st2" d="M400.9,209.5c-0.1,8.5-0.4,16.9-0.9,25.2L257,91.8L112.2,236.7c-0.7-9.2-1.1-18.4-1.1-27.7
	c-0.3-36.4,0.5-72.9,2.2-109.2c0-0.7,0.5-1.2,1.2-1.3c50.3-6.5,97.3-22.7,141-48.3c0.4-0.2,0.9-0.2,1.4,0
	c28.8,16.9,59.1,29.8,90.9,38.4c16.5,4.5,33.2,7.8,50.1,9.8c0.7,0.1,1.2,0.6,1.2,1.3C400.7,139.3,401.3,176,400.9,209.5z"/>
<path class="st3" d="M400,234.8c-1.3,20.3-3.9,40-8.4,59L257,159.2L120.8,295.5c-0.4-1.9-0.8-3.7-1.2-5.6
	c-3.6-17.6-6.1-35.3-7.4-53.2L257,91.8L400,234.8z"/>
<path class="st3" d="M379.2,332.6c-6.2,15.2-14.1,29.7-23.8,43.6L257,277.9l-99.3,99.3c-9.6-13.2-17.8-27.5-24.4-43L257,210.5
	L379.2,332.6z"/>
</svg>
