<?xml version="1.0" encoding="utf-8"?>
<!-- Generator: Adobe Illustrator 27.6.1, SVG Export Plug-In . SVG Version: 6.00 Build 0)  -->
<svg version="1.1" id="Capa_1" xmlns="http://www.w3.org/2000/svg" xmlns:xlink="http://www.w3.org/1999/xlink" x="0px" y="0px"
	 viewBox="0 0 512 512" style="enable-background:new 0 0 512 512;" xml:space="preserve">
<style type="text/css">
	.st0{fill:#303030;}
	.st1{fill:#242424;}
	.st2{fill:#363636;}
	.st3{fill:#171717;}
	.st4{fill:#2B2B2B;}
	.st5{fill:#212121;}
</style>
<path class="st0" d="M215.5,21.7l-0.6,1.2L179,49.8c-0.1,0.1-0.2,0.1-0.2,0.2c-12.8,15.9-25.3,31.5-37.2,46.6
	c-3.5,4.5-9.2,13-17.1,25.8c-1.1,1.8-0.7,2.3,1.3,1.5c36.7-14.5,73.1-29.7,109.2-45.6c0.2-0.1,0.5-0.1,0.7-0.1l47.2,7.9l8.3,1.4
	c0.4,0.1,0.8-0.1,1.1-0.4l17.7-17.7c0.4-0.4,0.5-1.1,0.2-1.6l-18-27c-0.2-0.3-0.4-0.5-0.8-0.5l-73.1-18.1c-0.1,0-0.2-0.1-0.2-0.2
	c0,0,0,0,0,0l0.1-0.2L441,21.5c-2,0.7-2.8,1.8-2.5,3.5c0.1,0.4,0,0.8-0.3,1.1c-36.1,42.4-72.3,84.6-108.7,126.8
	c-0.2,0.2-0.2,0.5-0.2,0.8l-0.3-0.1c-0.1,0-0.2,0-0.3,0L66.5,247.1l-0.7-1l-18.4-36.9l10.9-65.1c0-0.2,0.1-0.4,0.3-0.6L159.6,22.2
	c0.2-0.3,0.6-0.5,1-0.5L215.5,21.7z"/>
<path class="st1" d="M215.5,21.7h2.6l-0.1,0.2c0,0.1,0,0.2,0.1,0.2c0,0,0,0,0.1,0l73.1,18.1c0.3,0.1,0.6,0.3,0.8,0.5l18,27
	c0.3,0.5,0.3,1.2-0.2,1.6l-17.7,17.7c-0.3,0.3-0.7,0.4-1.1,0.4l-8.3-1.4c1.6,0.2,2.3-0.2,2.1-1.2c-0.1-0.4-0.3-0.8-0.7-0.9
	l-48.7-24.4c-0.3-0.1-0.5-0.3-0.6-0.6l-17.6-35.3c-0.2-0.4-0.6-0.7-1.1-0.7l-1.3-0.1L215.5,21.7z"/>
<path class="st2" d="M441,21.5c19.6,31,38.6,62.2,57.2,93.7v131.9l-93.8,56.2c-0.8-0.7-1.3-1.5-1.7-2.4c-0.6-1.7-1-2.6-1-2.7
	c-24.3-48.1-48.4-96.3-72.4-144.6c0-0.2,0.1-0.6,0.2-0.8c36.3-42.2,72.6-84.4,108.7-126.8c0.3-0.3,0.4-0.7,0.3-1.1
	C438.2,23.3,439,22.1,441,21.5z M424.1,96.4l16.2,52.3l0.8,2.5c0.2,0.7,1,1,1.6,0.8c0.2-0.1,0.4-0.2,0.5-0.3l16.9-16.8
	c0.2-0.2,0.4-0.6,0.4-0.9c0-12.5,0-25,0.1-37.5c0-5.6-4.5-12.1-7.3-16.8c-2.3-3.8-7-5.3-11-6.7c-0.5-0.2-1,0-1.4,0.3l-17.5,19.1
	c-0.2,0.3-0.3,0.6-0.3,0.9C423.2,94.5,423.5,95.5,424.1,96.4z"/>
<path class="st3" d="M214.9,22.9l1.3,0.1c0.5,0,0.9,0.3,1.1,0.7L234.9,59c0.1,0.3,0.3,0.5,0.6,0.6L284.2,84c0.4,0.2,0.6,0.5,0.7,0.9
	c0.2,1-0.5,1.4-2.1,1.2l-47.2-7.9c-0.3,0-0.5,0-0.7,0.1c-36.1,15.9-72.5,31.1-109.2,45.6c-1.9,0.8-2.3,0.3-1.3-1.5
	c7.9-12.7,13.6-21.3,17.1-25.8c12-15.2,24.4-30.7,37.2-46.6c0.1-0.1,0.1-0.2,0.2-0.2L214.9,22.9z"/>
<path class="st1" d="M440.3,148.8l1-0.7c0.3-0.2,0.6-0.6,0.5-1.1l-0.3-39.9c0-0.4-0.2-0.8-0.5-1c-4.2-3-8.8-6.2-13.6-9.6
	c-1.2-0.8-2.2-0.6-3.4-0.1c-0.6-0.9-0.9-1.9-0.9-3.1c0-0.3,0.1-0.7,0.3-0.9L441,73.3c0.3-0.4,0.9-0.5,1.4-0.3c4,1.4,8.7,2.8,11,6.7
	c2.8,4.7,7.3,11.2,7.3,16.8c0,12.5-0.1,25-0.1,37.5c0,0.3-0.1,0.7-0.4,0.9l-16.9,16.8c-0.5,0.5-1.3,0.5-1.8,0
	c-0.1-0.1-0.2-0.3-0.3-0.5L440.3,148.8z"/>
<path class="st3" d="M440.3,148.8l-16.2-52.3c1.2-0.5,2.2-0.7,3.4,0.1c4.8,3.4,9.3,6.5,13.6,9.6c0.3,0.2,0.5,0.6,0.5,1l0.3,39.9
	c0,0.4-0.2,0.8-0.5,1.1L440.3,148.8z"/>
<path class="st4" d="M329.3,153.6c24,48.3,48.1,96.5,72.4,144.6c0,0.1,0.4,1,1,2.7c0.4,0.9,0.9,1.8,1.7,2.4
	c-24.8,55.6-49.5,111.2-74.3,166.9c-0.4,1-0.8,1.6-1,1.8c-6.2-6.1-12.9-11.5-20.2-16.2l10.6-18.5c0.2-0.3,0.2-0.7,0.1-1l-4.8-17.4
	l-36.2,9.3c-79.5-70.3-123.8-107.9-209.7-179c-0.2-0.2-0.5-0.3-0.8-0.3h-1.1l-0.4-1.9l262.2-93.6c0.1,0,0.2,0,0.3,0L329.3,153.6z
	 M237.9,266.4c-3.8-1.9-7.8-4.5-11.9-7.8c-0.2-0.2-0.4-0.3-0.6-0.3c-0.7-0.2-0.9,0-0.6,0.7l29,62.5c0.2,0.5,0.7,0.8,1.2,0.8l7.7-0.2
	c0.5,0,1-0.3,1.2-0.8l1.3-3.3c7.6-17.9,15.1-35.9,22.3-54c0.8-2,1.4-4,1.7-6.1c0.3-1.7,0.6-3.3,0.8-5c0.1-0.7-0.4-1.4-1.1-1.5
	c-0.2,0-0.4,0-0.6,0L237.9,266.4z"/>
<path class="st1" d="M47.4,209.2l18.4,36.9c-11.1-4.7-22-9.8-32.6-15.5c-0.4-0.2-0.8-0.2-1.2,0c-1.3,0.6-2.5,0.3-3.8-1
	C34.3,222.4,40.7,215.7,47.4,209.2z"/>
<path class="st3" d="M28.2,229.6c1.3,1.2,2.5,1.6,3.8,1c0.4-0.2,0.8-0.2,1.2,0c10.6,5.7,21.5,10.8,32.6,15.5l0.7,1l0.4,1.9l1,16.4
	c-12.7,5.7-25,11.8-37,18.2c-0.6,0.3-1.4,0.1-1.7-0.5c-0.1-0.2-0.2-0.4-0.2-0.6c-0.1-7.7-0.1-15.5,0-23.2c0-1.4-0.4-2.1-1.3-2
	C29,248.1,29.2,238.9,28.2,229.6z"/>
<path class="st5" d="M66.9,249H68c0.3,0,0.6,0.1,0.8,0.3c85.9,71.1,130.2,108.7,209.7,179l-12.9,22.2c-0.4,0.6-0.1,1.4,0.5,1.8
	l21.2,12.3c0.3,0.2,0.6,0.2,0.9,0.2c6.5-1.1,12.7-2.9,18.6-5.5l2-3.3c7.3,4.8,14,10.2,20.2,16.2c-36.1,6.1-72.1,12.1-108.2,18.1
	c-2.9,0.5-5.8,0.5-8.7,0.1c-42-6-83.9-12-125.9-18c-1.4-0.2-2.3-1.3-2.7-3.4c0-0.8,0.2-1.3,0.7-1.5c0.3-0.2,0.5-0.5,0.5-0.8
	L67.9,265.4L66.9,249z"/>
<path class="st1" d="M265.1,317.9c-0.5-0.4-1.1-0.6-1.7-0.7c-0.6-0.1-1-0.5-1.1-1l-6.8-36.5c-0.1-0.4-0.3-0.7-0.6-0.9
	c-6.3-3.8-11.9-7.9-17-12.3l50.5-15.1c0.7-0.2,1.4,0.2,1.6,0.9c0.1,0.2,0.1,0.4,0,0.6c-0.3,1.6-0.6,3.3-0.8,5
	c-0.4,2.1-0.9,4.2-1.7,6.1C280.1,281.9,272.7,299.9,265.1,317.9z"/>
<path d="M27.6,257.3c0.9-0.1,1.4,0.6,1.3,2c-0.1,7.7-0.1,15.5,0,23.2c0,0.7,0.6,1.3,1.3,1.3c0.2,0,0.4-0.1,0.6-0.2
	c12-6.4,24.3-12.5,37-18.2l16.8,201.1c0,0.3-0.2,0.7-0.5,0.8c-0.5,0.2-0.7,0.8-0.7,1.5L14,317.6c-0.1-0.3-0.1-0.6-0.1-0.8
	L27.6,257.3z"/>
<path class="st3" d="M237.9,266.4c5,4.5,10.7,8.6,17,12.3c0.3,0.2,0.5,0.5,0.6,0.9l6.8,36.5c0.1,0.6,0.6,1,1.1,1
	c0.7,0.1,1.2,0.3,1.7,0.7l-1.3,3.3c-0.2,0.5-0.7,0.8-1.2,0.8l-7.7,0.2c-0.5,0-1-0.3-1.2-0.8l-29-62.5c-0.3-0.7-0.1-0.9,0.6-0.7
	c0.2,0.1,0.4,0.2,0.6,0.3C230,261.9,234,264.5,237.9,266.4z"/>
<path class="st3" d="M314.7,418.9l-13,22c-0.2,0.3-0.2,0.5-0.2,0.8c0.9,5.8,2.7,11.6,5.3,17.4c-5.9,2.6-12.2,4.4-18.6,5.5
	c-0.3,0-0.6,0-0.9-0.2l-21.2-12.3c-0.6-0.4-0.8-1.2-0.5-1.8l12.9-22.2L314.7,418.9z"/>
<path class="st1" d="M314.7,418.9l4.8,17.4c0.1,0.3,0,0.7-0.1,1l-10.6,18.5l-2,3.3c-2.7-5.8-4.4-11.5-5.3-17.4c0-0.3,0-0.6,0.2-0.8
	L314.7,418.9z"/>
</svg>
