<?xml version="1.0" encoding="utf-8"?>
<!-- Generator: Adobe Illustrator 27.6.1, SVG Export Plug-In . SVG Version: 6.00 Build 0)  -->
<svg version="1.1" id="Capa_1" xmlns="http://www.w3.org/2000/svg" xmlns:xlink="http://www.w3.org/1999/xlink" x="0px" y="0px"
	 viewBox="0 0 512 512" style="enable-background:new 0 0 512 512;" xml:space="preserve">
<style type="text/css">
	.st0{fill:#E7B467;}
	.st1{fill:#FBCB80;}
	.st2{fill:#D57E4B;}
	.st3{fill:#C56E37;}
	.st4{fill:#FAD59A;}
	.st5{fill:#FAE2C0;}
	.st6{fill:#EBB044;}
</style>
<g>
	<path class="st0" d="M486.4,76.8c7.5,0.5,18,1.5,20.3-6.5V22.5c-0.7-3.8-2.6-6-5.9-6.6c-7.9-1.4-25.7-3.6-24.9,10.2l-32.3-0.5
		c0.9-8.1,1-17.1-7.4-20.2h-18h-39.8h-15.7h-10.4h-14.4H77.3c-10.8,2.3-8.7,12.2-8.8,20.4L35.9,26c1.5-13.2-13.4-10.4-21.1-10.6
		c-4.8-0.1-8,2.1-9.4,6.6v48.1c2.2,8.5,12.9,7.1,21.4,6.8c6.3-0.2,9.3-3.5,9.1-10c10.9-0.7,21.8-0.7,32.7-0.1
		c0.2,10.5-1.1,21.7,14.1,20.2l0.4,23.2c-0.1,0.7-0.1,1.5,0,2.4c-0.6,66.5-0.6,132.6-0.1,198.2c0,2.8,1.4,4.2,4.2,4.2
		c4.2,0.1,20.2-0.9,22.8,1.1c4.1,3.1,0.1,6.1-2.8,8c-7.6,5-15.1,10.1-22.7,15.1c-1.3,0.9-1.8,2.3-1.5,4.3c-0.5,9.5-0.5,18.9,0,28.4
		l0.1,19.8l-0.1,32v0.7c-1.9,0.4-3.8,0.7-5.7,1.1c-10.7,2-8.5,12.1-8.6,20L36,445.7c0.7-7.1-2.9-10.1-9.8-10.4
		c-8.1-0.4-18.9-2-20.8,6.8v47.5c1.8,8.7,10.7,7.2,18.4,7.1c7.7,0,12.5-1.9,12.4-10.4h32.3c0,7.9-1.9,18.1,8.7,20.4h49.8h15.7H153
		h15h250.2h17.5c9.1-2.8,8.3-10.9,8.2-20.4l32.3,0.3c-0.6,7.2,3.1,9.6,9.8,10c8,0.5,18.6,1.7,20.6-6.9v-47.5
		c-1.7-8.8-11.9-7-20.5-6.9c-3.4,0.1-5.8,0.7-7.3,2c-2.3,2-3.2,4.7-2.8,8.4c-11-0.5-21.9-0.5-32.7,0.1c3.4-13.3-1.2-20.2-13.7-20.9
		c-0.3,0-0.4-0.2-0.3-0.5l0-164.7c0-2.5-1.2-3.7-3.7-3.7l-16.8,0c-2.2-0.1-5.1,0.5-6.9-1c-5.3-4.6,6.3-10.1,9.2-12l17.7-11.8
		c0.4-0.3,0.6-0.7,0.6-1.1V87.4c5.5,0.5,9.5-1.2,12.2-4.9c3-4.2,2.3-10.8,2.3-16l32.4,0.4C475.6,74.3,479.7,76.4,486.4,76.8z"/>
	<path class="st1" d="M77.3,5.4h260.6c-0.7,8.8-1,17.7-0.8,26.5c0,2.7,0.5,4.8,1.4,6.1c2.7,4.2,8.8,4.4,11.8,0.5
		c3.4-4.4,1.9-20.2,2-33.2h10.4c-0.1,5.5-1.4,18.4,1.5,22.9c2.8,4.3,10.7,3.5,12.8-1.4c2-4.5,0.6-15.7,1.4-21.4h39.8L418.1,87
		l-335.5,0c-15.1,1.5-13.9-9.7-14.1-20.2c0.6-13.7,0.6-27.4,0-41.1C68.6,17.6,66.5,7.7,77.3,5.4z"/>
	<path class="st0" d="M337.9,5.4h14.4c-0.1,13,1.4,28.8-2,33.2c-3,3.9-9.1,3.7-11.8-0.5c-0.9-1.4-1.3-3.4-1.4-6.1
		C336.9,23.1,337.2,14.2,337.9,5.4z"/>
	<path class="st0" d="M362.7,5.4h15.7c-0.8,5.7,0.5,17-1.4,21.4c-2.2,5-10.1,5.7-12.8,1.4C361.3,23.8,362.6,10.9,362.7,5.4z"/>
	<path class="st0" d="M418.1,5.4h18c8.4,3.2,8.2,12.1,7.4,20.2l0.3,40.9c0.1,5.2,0.7,11.8-2.3,16c-2.7,3.7-6.7,5.3-12.2,4.9
		c-3.8-0.7-7.5-0.8-11.3-0.4L418.1,5.4z"/>
	<path class="st2" d="M35.9,26l0,41c0.2,6.5-2.8,9.8-9.1,10c-8.5,0.2-19.2,1.7-21.4-6.8V22c1.4-4.5,4.5-6.7,9.4-6.6
		C22.4,15.6,37.4,12.7,35.9,26z"/>
	<path class="st2" d="M506.6,22.5v47.8c-2.2,8.1-12.8,7.1-20.3,6.5c-6.7-0.5-10.8-2.6-10.1-9.9l-0.4-40.9
		c-0.8-13.7,17-11.6,24.9-10.2C504,16.5,505.9,18.7,506.6,22.5z"/>
	<path class="st3" d="M443.5,25.6l32.3,0.5l0.4,40.9l-32.4-0.4L443.5,25.6z"/>
	<path class="st3" d="M68.5,25.8c0.6,13.7,0.6,27.4,0,41.1c-10.9-0.6-21.8-0.6-32.7,0.1l0-41L68.5,25.8z"/>
	<path class="st4" d="M418.1,87c3.8-0.4,7.6-0.3,11.3,0.4v142.6c0,0.5-0.2,0.9-0.6,1.1L411.1,243c-1.6-1-2.4-2.4-2.4-4.4
		c0-16.6,0-33.3-0.1-50c0-0.7-0.6-1.3-1.3-1.3c-2-0.1-4-0.2-6-0.2c-3.4,0-5.7-0.4-7-1.2c-6.5-3.7-3.6-12.5,3.3-13.8
		c1.1-0.2,4.4-0.3,9.7-0.4c0.7,0,1.3-0.6,1.3-1.3l0.1-17.7c0-0.6-0.4-1.1-0.9-1.3l-2.9-0.9c-0.2-0.1-0.3-0.1-0.5-0.2
		c-6.6-5.4-3.5-11.5,3.4-14c0.5-0.2,0.9-0.7,0.9-1.3c0-11.4,4.4-27.7-13-27.7c-103,0-206.1,0-309.1,0c-2.9,0-4.1,1.8-3.6,5.3
		l-0.4-25.6L418.1,87z"/>
	<path class="st5" d="M411.1,243c-2.8,1.9-14.5,7.4-9.2,12c1.8,1.6,4.8,1,6.9,1l-0.1,166.7c0,0.7-0.5,1.2-1.2,1.3
		c-0.4,0-0.8,0.2-1.2,0.3l-323.5,0.1v-0.7l0.8-16.5c0-0.7,0.6-1.3,1.3-1.3c4.7,0,16.6,1.2,20.4-1.3c4.9-3.3,3.8-12.2-2.1-13.4
		c-5.2-1-12-0.9-20.3,0.5L82.9,372c-0.1-2,0-2.7,0.4-2c0.2,0.4,0.7,0.7,1.2,0.7l29.1-0.1c0.3,0,0.6-0.1,0.9-0.3
		c5.8-5.2,5.7-10-0.1-14.4c-0.2-0.2-0.5-0.3-0.8-0.3l-29.4-0.4c-0.7,0-1.3-0.6-1.3-1.3l-0.1-10.3c-0.3-2,0.2-3.4,1.5-4.3
		c7.6-5.1,15.1-10.1,22.7-15.1c2.9-1.9,6.9-4.9,2.8-8c-2.7-2-18.6-1-22.8-1.1c-2.8-0.1-4.2-1.5-4.2-4.2
		c-0.5-65.6-0.4-131.7,0.1-198.2c-0.5-3.6,0.7-5.3,3.6-5.3c103.1,0,206.1,0,309.1,0c17.4,0,13,16.4,13,27.7c0,0.6-0.4,1.1-0.9,1.3
		c-6.8,2.5-10,8.6-3.4,14c0.1,0.1,0.3,0.2,0.5,0.2l2.9,0.9c0.6,0.2,0.9,0.7,0.9,1.3l-0.1,17.7c0,0.7-0.6,1.3-1.3,1.3
		c-5.3,0.1-8.5,0.2-9.7,0.4c-6.9,1.3-9.8,10.1-3.3,13.8c1.3,0.8,3.7,1.1,7,1.2c2,0,4,0.1,6,0.2c0.7,0,1.3,0.6,1.3,1.3
		c0.1,16.7,0.1,33.4,0.1,50C408.7,240.5,409.5,242,411.1,243z"/>
	<path class="st5" d="M194,249c6.8,2.3,13.4,5.2,19.9,8.8c-30.1,0.9-55.5,3-70.3-27.2c-0.1-0.1,0-0.2,0.1-0.2c0.1,0,0.2,0,0.2,0.1
		C157,245.1,173.8,251.3,194,249z"/>
	<path class="st4" d="M408.8,256l16.8,0c2.5,0,3.7,1.2,3.7,3.7l0,164.7l-11.7,0.3l-11.4-0.4c0.4-0.2,0.8-0.3,1.2-0.3
		c0.7-0.1,1.2-0.6,1.2-1.3L408.8,256z"/>
	<path class="st4" d="M82.9,343.5l0.1,10.3c0,0.7,0.6,1.3,1.3,1.3l29.4,0.4c0.3,0,0.6,0.1,0.8,0.3c5.8,4.5,5.9,9.3,0.1,14.4
		c-0.2,0.2-0.6,0.3-0.9,0.3l-29.1,0.1c-0.5,0-1-0.3-1.2-0.7c-0.4-0.7-0.5-0.1-0.4,2C82.4,362.5,82.4,353,82.9,343.5z"/>
	<path class="st4" d="M82.9,423.7l0.1-32c8.3-1.3,15.1-1.5,20.3-0.5c5.9,1.1,7,10,2.1,13.4c-3.7,2.5-15.6,1.4-20.4,1.3
		c-0.7,0-1.3,0.6-1.3,1.3L82.9,423.7z"/>
	<path class="st0" d="M429.4,424.5c-0.1,0.3,0,0.5,0.3,0.5c12.5,0.6,17.1,7.6,13.7,20.9l0.4,40.4c0.1,9.4,0.9,17.6-8.2,20.4h-17.5
		l-0.5-81.8L429.4,424.5z"/>
	<path class="st2" d="M36,445.7c-0.4,13.6-0.3,27.1,0.2,40.5c0.1,8.5-4.7,10.4-12.4,10.4c-7.8,0-16.6,1.5-18.4-7.1V442
		c1.9-8.7,12.7-7.2,20.8-6.8C33.1,435.7,36.6,438.6,36,445.7z"/>
	<path class="st2" d="M506.6,442.2v47.5c-2,8.6-12.6,7.4-20.6,6.9c-6.8-0.4-10.4-2.8-9.8-10c0.2-3,0.6-6.1,0.5-9.2
		c-0.2-10.5-0.4-21-0.7-31.6c-0.4-3.6,0.5-6.4,2.8-8.4c1.5-1.3,3.9-1.9,7.3-2C494.8,435.2,504.9,433.4,506.6,442.2z"/>
	<path class="st3" d="M68.5,445.5c0.6,13.6,0.6,27.2,0,40.8H36.2c-0.6-13.4-0.6-26.9-0.2-40.5L68.5,445.5z"/>
	<path class="st3" d="M476.1,445.7c0.2,10.5,0.4,21.1,0.7,31.6c0.1,3.1-0.3,6.2-0.5,9.2l-32.3-0.3l-0.4-40.4
		C454.2,445.3,465.1,445.2,476.1,445.7z"/>
	<path class="st0" d="M168,506.6h-15c-0.5-16.8-0.6-26.7-0.2-29.7c1-8.9,15.1-8.6,15,3.2C167.7,488.9,167.8,497.7,168,506.6z"/>
	<path class="st0" d="M142.6,506.6h-15.7c0.4-5.4,0.6-10.8,0.4-16.3c-0.3-13.3,15.3-12,15-0.8C142.2,495.3,142.3,500.9,142.6,506.6z
		"/>
	<path class="st6" d="M164.7,139.7c-4.7-3.8-9.4-7.6-14-11.4c-2.8-2.3-4.9-4.3-7.6-2.2c-5.4,4.4-10.8,8.7-16.2,13.1
		c-4.5,3.6-3.3,7.1,0.7,10.4c4.4,3.7,8.9,7.3,13.4,10.8c0.2,0.2,0.3,0.4,0.3,0.7l-0.1,12.7c0,0.3-0.1,0.6-0.3,0.7
		c-4.2,3.4-8.5,6.8-12.7,10.2c-1.8,1.5-3,2.6-3.5,3.4c-2.8,4.3,2,9.8,6,6.6c4.8-3.8,9.6-7.7,14.3-11.6c0.3-0.2,0.6-0.2,0.9,0
		c4.4,3.6,8.7,7.2,13.2,10.8c3.6,2.9,7.6,2.7,8-3.7c0-0.2,0-0.3-0.1-0.5c-0.8-1.6-1.7-2.8-2.8-3.7c-4.7-3.8-9.4-7.7-14.2-11.6
		c-0.2-0.2-0.3-0.4-0.3-0.7l0.1-12.5c0-0.3,0.1-0.6,0.3-0.7c4.4-3.6,8.7-7.1,13.1-10.6C166.7,147.3,169.3,143.4,164.7,139.7z
		 M155.1,144.5C155.1,144.5,155.1,144.6,155.1,144.5l-9.4,7.6c-0.1,0.1-0.3,0.1-0.4,0l-9.3-7.6c-0.1-0.1-0.2-0.4-0.1-0.5
		c0,0,0-0.1,0.1-0.1l9.3-7.6c0.1-0.1,0.3-0.1,0.4,0l9.3,7.6C155.2,144.1,155.2,144.3,155.1,144.5z"/>
	<path class="st6" d="M179.1,181.4c4.7,3.8,9.4,7.6,14,11.4c2.8,2.3,4.9,4.3,7.6,2.2c5.4-4.4,10.8-8.7,16.2-13.1
		c4.5-3.6,3.3-7.1-0.7-10.4c-4.4-3.7-8.9-7.3-13.4-10.8c-0.2-0.2-0.3-0.4-0.3-0.7l0.1-12.7c0-0.3,0.1-0.6,0.3-0.7
		c4.2-3.4,8.5-6.8,12.7-10.2c1.8-1.5,3-2.6,3.5-3.4c2.8-4.3-2-9.8-6-6.6c-4.8,3.8-9.6,7.7-14.3,11.6c-0.3,0.2-0.6,0.2-0.9,0
		c-4.4-3.6-8.7-7.2-13.2-10.8c-3.6-2.9-7.6-2.7-8,3.7c0,0.2,0,0.3,0.1,0.5c0.8,1.6,1.7,2.8,2.8,3.7c4.7,3.8,9.4,7.7,14.2,11.6
		c0.2,0.2,0.3,0.4,0.3,0.7l-0.1,12.5c0,0.3-0.1,0.6-0.3,0.7c-4.4,3.6-8.7,7.1-13.1,10.6C177.2,173.8,174.5,177.7,179.1,181.4z
		 M188.7,176.6C188.7,176.6,188.8,176.6,188.7,176.6l9.4-7.6c0.1-0.1,0.3-0.1,0.4,0l9.3,7.6c0.1,0.1,0.2,0.4,0.1,0.5
		c0,0,0,0.1-0.1,0.1l-9.3,7.6c-0.1,0.1-0.3,0.1-0.4,0l-9.3-7.6C188.6,177,188.6,176.8,188.7,176.6z"/>
	<path class="st6" d="M272.1,139.7c-4.7-3.8-9.4-7.6-14-11.4c-2.8-2.3-4.9-4.3-7.6-2.2c-5.4,4.4-10.8,8.7-16.2,13.1
		c-4.5,3.6-3.3,7.1,0.7,10.4c4.4,3.7,8.9,7.3,13.4,10.8c0.2,0.2,0.3,0.4,0.3,0.7l-0.1,12.7c0,0.3-0.1,0.6-0.3,0.7
		c-4.2,3.4-8.5,6.8-12.7,10.2c-1.8,1.5-3,2.6-3.5,3.4c-2.8,4.3,2,9.8,6,6.6c4.8-3.8,9.6-7.7,14.3-11.6c0.3-0.2,0.6-0.2,0.9,0
		c4.4,3.6,8.7,7.2,13.2,10.8c3.6,2.9,7.6,2.7,8-3.7c0-0.2,0-0.3-0.1-0.5c-0.8-1.6-1.7-2.8-2.8-3.7c-4.7-3.8-9.4-7.7-14.2-11.6
		c-0.2-0.2-0.3-0.4-0.3-0.7l0.1-12.5c0-0.3,0.1-0.6,0.3-0.7c4.4-3.6,8.7-7.1,13.1-10.6C274,147.3,276.7,143.4,272.1,139.7z
		 M262.5,144.5C262.5,144.5,262.4,144.6,262.5,144.5l-9.4,7.6c-0.1,0.1-0.3,0.1-0.4,0l-9.3-7.6c-0.1-0.1-0.2-0.4-0.1-0.5
		c0,0,0-0.1,0.1-0.1l9.3-7.6c0.1-0.1,0.3-0.1,0.4,0l9.3,7.6C262.5,144.1,262.6,144.3,262.5,144.5z"/>
	<path class="st6" d="M379.5,139.7c-4.7-3.8-9.4-7.6-14-11.4c-2.8-2.3-4.9-4.3-7.6-2.2c-5.4,4.4-10.8,8.7-16.2,13.1
		c-4.5,3.6-3.3,7.1,0.7,10.4c4.4,3.7,8.9,7.3,13.4,10.8c0.2,0.2,0.3,0.4,0.3,0.7l-0.1,12.7c0,0.3-0.1,0.6-0.3,0.7
		c-4.2,3.4-8.5,6.8-12.7,10.2c-1.8,1.5-3,2.6-3.5,3.4c-2.8,4.3,2,9.8,6,6.6c4.8-3.8,9.6-7.7,14.3-11.6c0.3-0.2,0.6-0.2,0.9,0
		c4.4,3.6,8.7,7.2,13.2,10.8c3.6,2.9,7.6,2.7,8-3.7c0-0.2,0-0.3-0.1-0.5c-0.8-1.6-1.7-2.8-2.8-3.7c-4.7-3.8-9.4-7.7-14.2-11.6
		c-0.2-0.2-0.3-0.4-0.3-0.7l0.1-12.5c0-0.3,0.1-0.6,0.3-0.7c4.4-3.6,8.7-7.1,13.1-10.6C381.4,147.3,384.1,143.4,379.5,139.7z
		 M369.9,144.5C369.9,144.5,369.8,144.6,369.9,144.5l-9.4,7.6c-0.1,0.1-0.3,0.1-0.4,0l-9.3-7.6c-0.1-0.1-0.2-0.4-0.1-0.5
		c0,0,0-0.1,0.1-0.1l9.3-7.6c0.1-0.1,0.3-0.1,0.4,0l9.3,7.6C369.9,144.1,370,144.3,369.9,144.5z"/>
	<path class="st6" d="M286.5,181.4c4.7,3.8,9.4,7.6,14,11.4c2.8,2.3,4.9,4.3,7.6,2.2c5.4-4.4,10.8-8.7,16.2-13.1
		c4.5-3.6,3.3-7.1-0.7-10.4c-4.4-3.7-8.9-7.3-13.4-10.8c-0.2-0.2-0.3-0.4-0.3-0.7l0.1-12.7c0-0.3,0.1-0.6,0.3-0.7
		c4.2-3.4,8.5-6.8,12.7-10.2c1.8-1.5,3-2.6,3.5-3.4c2.8-4.3-2-9.8-6-6.6c-4.8,3.8-9.6,7.7-14.3,11.6c-0.3,0.2-0.6,0.2-0.9,0
		c-4.4-3.6-8.7-7.2-13.2-10.8c-3.6-2.9-7.6-2.7-8,3.7c0,0.2,0,0.3,0.1,0.5c0.8,1.6,1.7,2.8,2.8,3.7c4.7,3.8,9.4,7.7,14.2,11.6
		c0.2,0.2,0.3,0.4,0.3,0.7l-0.1,12.5c0,0.3-0.1,0.6-0.3,0.7c-4.4,3.6-8.7,7.1-13.1,10.6C284.5,173.8,281.9,177.7,286.5,181.4z
		 M296.1,176.6C296.1,176.6,296.1,176.6,296.1,176.6l9.4-7.6c0.1-0.1,0.3-0.1,0.4,0l9.3,7.6c0.1,0.1,0.2,0.4,0.1,0.5
		c0,0,0,0.1-0.1,0.1l-9.3,7.6c-0.1,0.1-0.3,0.1-0.4,0l-9.3-7.6C296,177,296,176.8,296.1,176.6z"/>
	<path class="st6" d="M164.8,263.8c-4.7,3.8-9.4,7.6-14,11.4c-2.8,2.3-4.9,4.3-7.6,2.2c-5.4-4.4-10.8-8.7-16.2-13.1
		c-4.5-3.6-3.3-7.1,0.7-10.4c4.4-3.7,8.9-7.3,13.4-10.8c0.2-0.2,0.3-0.4,0.3-0.7l-0.1-12.7c0-0.3-0.1-0.6-0.3-0.7
		c-4.2-3.4-8.5-6.8-12.7-10.2c-1.8-1.5-3-2.6-3.5-3.4c-2.8-4.3,2-9.8,6-6.6c4.8,3.8,9.6,7.7,14.3,11.6c0.3,0.2,0.6,0.2,0.9,0
		c4.4-3.6,8.7-7.2,13.2-10.8c3.6-2.9,7.6-2.7,8,3.7c0,0.2,0,0.3-0.1,0.5c-0.8,1.6-1.7,2.8-2.8,3.7c-4.7,3.8-9.4,7.7-14.2,11.6
		c-0.2,0.2-0.3,0.4-0.3,0.7l0.1,12.5c0,0.3,0.1,0.6,0.3,0.7c4.4,3.6,8.7,7.1,13.1,10.6C166.7,256.2,169.4,260.1,164.8,263.8z
		 M155.1,259C155.1,259,155.1,259,155.1,259l-9.4-7.6c-0.1-0.1-0.3-0.1-0.4,0l-9.3,7.6c-0.1,0.1-0.2,0.4-0.1,0.5c0,0,0,0.1,0.1,0.1
		l9.3,7.6c0.1,0.1,0.3,0.1,0.4,0l9.3-7.6C155.2,259.4,155.2,259.2,155.1,259z"/>
	<path class="st6" d="M179.1,222.1c4.7-3.8,9.4-7.6,14-11.4c2.8-2.3,4.9-4.3,7.6-2.2c5.4,4.4,10.8,8.7,16.2,13.1
		c4.5,3.6,3.3,7.1-0.7,10.4c-4.4,3.7-8.9,7.3-13.4,10.8c-0.2,0.2-0.3,0.4-0.3,0.7l0.1,12.7c0,0.3,0.1,0.6,0.3,0.7
		c4.2,3.4,8.5,6.8,12.7,10.2c1.8,1.5,3,2.6,3.5,3.4c2.8,4.3-2,9.8-6,6.6c-4.8-3.8-9.6-7.7-14.3-11.6c-0.3-0.2-0.6-0.2-0.9,0
		c-4.4,3.6-8.7,7.2-13.2,10.8c-3.6,2.9-7.6,2.7-8-3.7c0-0.2,0-0.3,0.1-0.5c0.8-1.6,1.7-2.8,2.8-3.7c4.7-3.8,9.4-7.7,14.2-11.6
		c0.2-0.2,0.3-0.4,0.3-0.7l-0.1-12.5c0-0.3-0.1-0.6-0.3-0.7c-4.4-3.6-8.7-7.1-13.1-10.6C177.2,229.7,174.5,225.8,179.1,222.1z
		 M188.7,226.9C188.8,226.9,188.8,227,188.7,226.9l9.4,7.6c0.1,0.1,0.3,0.1,0.4,0l9.3-7.6c0.1-0.1,0.2-0.4,0.1-0.5
		c0,0,0-0.1-0.1-0.1l-9.3-7.6c-0.1-0.1-0.3-0.1-0.4,0l-9.3,7.6C188.7,226.5,188.6,226.7,188.7,226.9z"/>
	<path class="st6" d="M272.1,263.8c-4.7,3.8-9.4,7.6-14,11.4c-2.8,2.3-4.9,4.3-7.6,2.2c-5.4-4.4-10.8-8.7-16.2-13.1
		c-4.5-3.6-3.3-7.1,0.7-10.4c4.4-3.7,8.9-7.3,13.4-10.8c0.2-0.2,0.3-0.4,0.3-0.7l-0.1-12.7c0-0.3-0.1-0.6-0.3-0.7
		c-4.2-3.4-8.5-6.8-12.7-10.2c-1.8-1.5-3-2.6-3.5-3.4c-2.8-4.3,2-9.8,6-6.6c4.8,3.8,9.6,7.7,14.3,11.6c0.3,0.2,0.6,0.2,0.9,0
		c4.4-3.6,8.7-7.2,13.2-10.8c3.6-2.9,7.6-2.7,8,3.7c0,0.2,0,0.3-0.1,0.5c-0.8,1.6-1.7,2.8-2.8,3.7c-4.7,3.8-9.4,7.7-14.2,11.6
		c-0.2,0.2-0.3,0.4-0.3,0.7l0.1,12.5c0,0.3,0.1,0.6,0.3,0.7c4.4,3.6,8.7,7.1,13.1,10.6C274.1,256.2,276.8,260.1,272.1,263.8z
		 M262.5,259C262.5,259,262.5,259,262.5,259l-9.4-7.6c-0.1-0.1-0.3-0.1-0.4,0l-9.3,7.6c-0.1,0.1-0.2,0.4-0.1,0.5c0,0,0,0.1,0.1,0.1
		l9.3,7.6c0.1,0.1,0.3,0.1,0.4,0l9.3-7.6C262.6,259.4,262.6,259.2,262.5,259z"/>
	<path class="st6" d="M379.5,263.8c-4.7,3.8-9.4,7.6-14,11.4c-2.8,2.3-4.9,4.3-7.6,2.2c-5.4-4.4-10.8-8.7-16.2-13.1
		c-4.5-3.6-3.3-7.1,0.7-10.4c4.4-3.7,8.9-7.3,13.4-10.8c0.2-0.2,0.3-0.4,0.3-0.7l-0.1-12.7c0-0.3-0.1-0.6-0.3-0.7
		c-4.2-3.4-8.5-6.8-12.7-10.2c-1.8-1.5-3-2.6-3.5-3.4c-2.8-4.3,2-9.8,6-6.6c4.8,3.8,9.6,7.7,14.3,11.6c0.3,0.2,0.6,0.2,0.9,0
		c4.4-3.6,8.7-7.2,13.2-10.8c3.6-2.9,7.6-2.7,8,3.7c0,0.2,0,0.3-0.1,0.5c-0.8,1.6-1.7,2.8-2.8,3.7c-4.7,3.8-9.4,7.7-14.2,11.6
		c-0.2,0.2-0.3,0.4-0.3,0.7l0.1,12.5c0,0.3,0.1,0.6,0.3,0.7c4.4,3.6,8.7,7.1,13.1,10.6C381.5,256.2,384.1,260.1,379.5,263.8z
		 M369.9,259C369.9,259,369.9,259,369.9,259l-9.4-7.6c-0.1-0.1-0.3-0.1-0.4,0l-9.3,7.6c-0.1,0.1-0.2,0.4-0.1,0.5c0,0,0,0.1,0.1,0.1
		l9.3,7.6c0.1,0.1,0.3,0.1,0.4,0l9.3-7.6C370,259.4,370,259.2,369.9,259z"/>
	<path class="st6" d="M286.5,222.1c4.7-3.8,9.4-7.6,14-11.4c2.8-2.3,4.9-4.3,7.6-2.2c5.4,4.4,10.8,8.7,16.2,13.1
		c4.5,3.6,3.3,7.1-0.7,10.4c-4.4,3.7-8.9,7.3-13.4,10.8c-0.2,0.2-0.3,0.4-0.3,0.7l0.1,12.7c0,0.3,0.1,0.6,0.3,0.7
		c4.2,3.4,8.5,6.8,12.7,10.2c1.8,1.5,3,2.6,3.5,3.4c2.8,4.3-2,9.8-6,6.6c-4.8-3.8-9.6-7.7-14.3-11.6c-0.3-0.2-0.6-0.2-0.9,0
		c-4.4,3.6-8.7,7.2-13.2,10.8c-3.6,2.9-7.6,2.7-8-3.7c0-0.2,0-0.3,0.1-0.5c0.8-1.6,1.7-2.8,2.8-3.7c4.7-3.8,9.4-7.7,14.2-11.6
		c0.2-0.2,0.3-0.4,0.3-0.7l-0.1-12.5c0-0.3-0.1-0.6-0.3-0.7c-4.4-3.6-8.7-7.1-13.1-10.6C284.6,229.7,281.9,225.8,286.5,222.1z
		 M296.1,226.9C296.1,226.9,296.2,227,296.1,226.9l9.4,7.6c0.1,0.1,0.3,0.1,0.4,0l9.3-7.6c0.1-0.1,0.2-0.4,0.1-0.5
		c0,0,0-0.1-0.1-0.1l-9.3-7.6c-0.1-0.1-0.3-0.1-0.4,0l-9.3,7.6C296.1,226.5,296,226.7,296.1,226.9z"/>
	<path class="st6" d="M164.8,346.2c-4.7,3.8-9.4,7.6-14,11.4c-2.8,2.3-4.9,4.3-7.6,2.2c-5.4-4.4-10.8-8.7-16.2-13.1
		c-4.5-3.6-3.3-7.1,0.7-10.4c4.4-3.7,8.9-7.3,13.4-10.8c0.2-0.2,0.3-0.4,0.3-0.7l-0.1-12.7c0-0.3-0.1-0.6-0.3-0.7
		c-4.2-3.4-8.5-6.8-12.7-10.2c-1.8-1.5-3-2.6-3.5-3.4c-2.8-4.3,2-9.8,6-6.6c4.8,3.8,9.6,7.7,14.3,11.6c0.3,0.2,0.6,0.2,0.9,0
		c4.4-3.6,8.7-7.2,13.2-10.8c3.6-2.9,7.6-2.7,8,3.7c0,0.2,0,0.3-0.1,0.5c-0.8,1.6-1.7,2.8-2.8,3.7c-4.7,3.8-9.4,7.7-14.2,11.6
		c-0.2,0.2-0.3,0.4-0.3,0.7l0.1,12.5c0,0.3,0.1,0.6,0.3,0.7c4.4,3.6,8.7,7.1,13.1,10.6C166.7,338.6,169.4,342.5,164.8,346.2z
		 M155.1,341.4C155.1,341.4,155.1,341.4,155.1,341.4l-9.4-7.6c-0.1-0.1-0.3-0.1-0.4,0l-9.3,7.6c-0.1,0.1-0.2,0.4-0.1,0.5
		c0,0,0,0.1,0.1,0.1l9.3,7.6c0.1,0.1,0.3,0.1,0.4,0l9.3-7.6C155.2,341.9,155.2,341.6,155.1,341.4z"/>
	<path class="st6" d="M179.1,304.5c4.7-3.8,9.4-7.6,14-11.4c2.8-2.3,4.9-4.3,7.6-2.2c5.4,4.4,10.8,8.7,16.2,13.1
		c4.5,3.6,3.3,7.1-0.7,10.4c-4.4,3.7-8.9,7.3-13.4,10.8c-0.2,0.2-0.3,0.4-0.3,0.7l0.1,12.7c0,0.3,0.1,0.6,0.3,0.7
		c4.2,3.4,8.5,6.8,12.7,10.2c1.8,1.5,3,2.6,3.5,3.4c2.8,4.3-2,9.8-6,6.6c-4.8-3.8-9.6-7.7-14.3-11.6c-0.3-0.2-0.6-0.2-0.9,0
		c-4.4,3.6-8.7,7.2-13.2,10.8c-3.6,2.9-7.6,2.7-8-3.7c0-0.2,0-0.3,0.1-0.5c0.8-1.6,1.7-2.8,2.8-3.7c4.7-3.8,9.4-7.7,14.2-11.6
		c0.2-0.2,0.3-0.4,0.3-0.7l-0.1-12.5c0-0.3-0.1-0.6-0.3-0.7c-4.4-3.6-8.7-7.1-13.1-10.6C177.2,312.1,174.5,308.3,179.1,304.5z
		 M188.7,309.3C188.8,309.4,188.8,309.4,188.7,309.3l9.4,7.6c0.1,0.1,0.3,0.1,0.4,0l9.3-7.6c0.1-0.1,0.2-0.4,0.1-0.5
		c0,0,0-0.1-0.1-0.1l-9.3-7.6c-0.1-0.1-0.3-0.1-0.4,0l-9.3,7.6C188.7,308.9,188.6,309.1,188.7,309.3z"/>
	<path class="st6" d="M272.1,346.2c-4.7,3.8-9.4,7.6-14,11.4c-2.8,2.3-4.9,4.3-7.6,2.2c-5.4-4.4-10.8-8.7-16.2-13.1
		c-4.5-3.6-3.3-7.1,0.7-10.4c4.4-3.7,8.9-7.3,13.4-10.8c0.2-0.2,0.3-0.4,0.3-0.7l-0.1-12.7c0-0.3-0.1-0.6-0.3-0.7
		c-4.2-3.4-8.5-6.8-12.7-10.2c-1.8-1.5-3-2.6-3.5-3.4c-2.8-4.3,2-9.8,6-6.6c4.8,3.8,9.6,7.7,14.3,11.6c0.3,0.2,0.6,0.2,0.9,0
		c4.4-3.6,8.7-7.2,13.2-10.8c3.6-2.9,7.6-2.7,8,3.7c0,0.2,0,0.3-0.1,0.5c-0.8,1.6-1.7,2.8-2.8,3.7c-4.7,3.8-9.4,7.7-14.2,11.6
		c-0.2,0.2-0.3,0.4-0.3,0.7l0.1,12.5c0,0.3,0.1,0.6,0.3,0.7c4.4,3.6,8.7,7.1,13.1,10.6C274.1,338.6,276.8,342.5,272.1,346.2z
		 M262.5,341.4C262.5,341.4,262.5,341.4,262.5,341.4l-9.4-7.6c-0.1-0.1-0.3-0.1-0.4,0l-9.3,7.6c-0.1,0.1-0.2,0.4-0.1,0.5
		c0,0,0,0.1,0.1,0.1l9.3,7.6c0.1,0.1,0.3,0.1,0.4,0l9.3-7.6C262.6,341.9,262.6,341.6,262.5,341.4z"/>
	<path class="st6" d="M379.5,346.2c-4.7,3.8-9.4,7.6-14,11.4c-2.8,2.3-4.9,4.3-7.6,2.2c-5.4-4.4-10.8-8.7-16.2-13.1
		c-4.5-3.6-3.3-7.1,0.7-10.4c4.4-3.7,8.9-7.3,13.4-10.8c0.2-0.2,0.3-0.4,0.3-0.7L356,312c0-0.3-0.1-0.6-0.3-0.7
		c-4.2-3.4-8.5-6.8-12.7-10.2c-1.8-1.5-3-2.6-3.5-3.4c-2.8-4.3,2-9.8,6-6.6c4.8,3.8,9.6,7.7,14.3,11.6c0.3,0.2,0.6,0.2,0.9,0
		c4.4-3.6,8.7-7.2,13.2-10.8c3.6-2.9,7.6-2.7,8,3.7c0,0.2,0,0.3-0.1,0.5c-0.8,1.6-1.7,2.8-2.8,3.7c-4.7,3.8-9.4,7.7-14.2,11.6
		c-0.2,0.2-0.3,0.4-0.3,0.7l0.1,12.5c0,0.3,0.1,0.6,0.3,0.7c4.4,3.6,8.7,7.1,13.1,10.6C381.5,338.6,384.1,342.5,379.5,346.2z
		 M369.9,341.4C369.9,341.4,369.9,341.4,369.9,341.4l-9.4-7.6c-0.1-0.1-0.3-0.1-0.4,0l-9.3,7.6c-0.1,0.1-0.2,0.4-0.1,0.5
		c0,0,0,0.1,0.1,0.1l9.3,7.6c0.1,0.1,0.3,0.1,0.4,0l9.3-7.6C370,341.9,370,341.6,369.9,341.4z"/>
	<path class="st6" d="M286.5,304.5c4.7-3.8,9.4-7.6,14-11.4c2.8-2.3,4.9-4.3,7.6-2.2c5.4,4.4,10.8,8.7,16.2,13.1
		c4.5,3.6,3.3,7.1-0.7,10.4c-4.4,3.7-8.9,7.3-13.4,10.8c-0.2,0.2-0.3,0.4-0.3,0.7l0.1,12.7c0,0.3,0.1,0.6,0.3,0.7
		c4.2,3.4,8.5,6.8,12.7,10.2c1.8,1.5,3,2.6,3.5,3.4c2.8,4.3-2,9.8-6,6.6c-4.8-3.8-9.6-7.7-14.3-11.6c-0.3-0.2-0.6-0.2-0.9,0
		c-4.4,3.6-8.7,7.2-13.2,10.8c-3.6,2.9-7.6,2.7-8-3.7c0-0.2,0-0.3,0.1-0.5c0.8-1.6,1.7-2.8,2.8-3.7c4.7-3.8,9.4-7.7,14.2-11.6
		c0.2-0.2,0.3-0.4,0.3-0.7l-0.1-12.5c0-0.3-0.1-0.6-0.3-0.7c-4.4-3.6-8.7-7.1-13.1-10.6C284.6,312.1,281.9,308.3,286.5,304.5z
		 M296.1,309.3C296.1,309.4,296.2,309.4,296.1,309.3l9.4,7.6c0.1,0.1,0.3,0.1,0.4,0l9.3-7.6c0.1-0.1,0.2-0.4,0.1-0.5
		c0,0,0-0.1-0.1-0.1l-9.3-7.6c-0.1-0.1-0.3-0.1-0.4,0l-9.3,7.6C296.1,308.9,296,309.1,296.1,309.3z"/>
	<path class="st6" d="M164.8,425.9c-4.7,3.8-9.4,7.6-14,11.4c-2.8,2.3-4.9,4.3-7.6,2.2c-5.4-4.4-10.8-8.7-16.2-13.1
		c-4.5-3.6-3.3-7.1,0.7-10.4c4.4-3.7,8.9-7.3,13.4-10.8c0.2-0.2,0.3-0.4,0.3-0.7l-0.1-12.7c0-0.3-0.1-0.6-0.3-0.7
		c-4.2-3.4-8.5-6.8-12.7-10.2c-1.8-1.5-3-2.6-3.5-3.4c-2.8-4.3,2-9.8,6-6.6c4.8,3.8,9.6,7.7,14.3,11.6c0.3,0.2,0.6,0.2,0.9,0
		c4.4-3.6,8.7-7.2,13.2-10.8c3.6-2.9,7.6-2.7,8,3.7c0,0.2,0,0.3-0.1,0.5c-0.8,1.6-1.7,2.8-2.8,3.7c-4.7,3.8-9.4,7.7-14.2,11.6
		c-0.2,0.2-0.3,0.4-0.3,0.7l0.1,12.5c0,0.3,0.1,0.6,0.3,0.7c4.4,3.6,8.7,7.1,13.1,10.6C166.7,418.2,169.4,422.1,164.8,425.9z
		 M155.1,421.1C155.1,421,155.1,421,155.1,421.1l-9.4-7.6c-0.1-0.1-0.3-0.1-0.4,0l-9.3,7.6c-0.1,0.1-0.2,0.4-0.1,0.5
		c0,0,0,0.1,0.1,0.1l9.3,7.6c0.1,0.1,0.3,0.1,0.4,0l9.3-7.6C155.2,421.5,155.2,421.3,155.1,421.1z"/>
	<path class="st6" d="M179.1,384.2c4.7-3.8,9.4-7.6,14-11.4c2.8-2.3,4.9-4.3,7.6-2.2c5.4,4.4,10.8,8.7,16.2,13.1
		c4.5,3.6,3.3,7.1-0.7,10.4c-4.4,3.7-8.9,7.3-13.4,10.8c-0.2,0.2-0.3,0.4-0.3,0.7l0.1,12.7c0,0.3,0.1,0.6,0.3,0.7
		c4.2,3.4,8.5,6.8,12.7,10.2c1.8,1.5,3,2.6,3.5,3.4c2.8,4.3-2,9.8-6,6.6c-4.8-3.8-9.6-7.7-14.3-11.6c-0.3-0.2-0.6-0.2-0.9,0
		c-4.4,3.6-8.7,7.2-13.2,10.8c-3.6,2.9-7.6,2.7-8-3.7c0-0.2,0-0.3,0.1-0.5c0.8-1.6,1.7-2.8,2.8-3.7c4.7-3.8,9.4-7.7,14.2-11.6
		c0.2-0.2,0.3-0.4,0.3-0.7l-0.1-12.5c0-0.3-0.1-0.6-0.3-0.7c-4.4-3.6-8.7-7.1-13.1-10.6C177.2,391.8,174.5,387.9,179.1,384.2z
		 M188.7,388.9C188.8,389,188.8,389,188.7,388.9l9.4,7.6c0.1,0.1,0.3,0.1,0.4,0l9.3-7.6c0.1-0.1,0.2-0.4,0.1-0.5c0,0,0-0.1-0.1-0.1
		l-9.3-7.6c-0.1-0.1-0.3-0.1-0.4,0l-9.3,7.6C188.7,388.5,188.6,388.8,188.7,388.9z"/>
	<path class="st6" d="M272.1,425.9c-4.7,3.8-9.4,7.6-14,11.4c-2.8,2.3-4.9,4.3-7.6,2.2c-5.4-4.4-10.8-8.7-16.2-13.1
		c-4.5-3.6-3.3-7.1,0.7-10.4c4.4-3.7,8.9-7.3,13.4-10.8c0.2-0.2,0.3-0.4,0.3-0.7l-0.1-12.7c0-0.3-0.1-0.6-0.3-0.7
		c-4.2-3.4-8.5-6.8-12.7-10.2c-1.8-1.5-3-2.6-3.5-3.4c-2.8-4.3,2-9.8,6-6.6c4.8,3.8,9.6,7.7,14.3,11.6c0.3,0.2,0.6,0.2,0.9,0
		c4.4-3.6,8.7-7.2,13.2-10.8c3.6-2.9,7.6-2.7,8,3.7c0,0.2,0,0.3-0.1,0.5c-0.8,1.6-1.7,2.8-2.8,3.7c-4.7,3.8-9.4,7.7-14.2,11.6
		c-0.2,0.2-0.3,0.4-0.3,0.7l0.1,12.5c0,0.3,0.1,0.6,0.3,0.7c4.4,3.6,8.7,7.1,13.1,10.6C274.1,418.2,276.8,422.1,272.1,425.9z
		 M262.5,421.1C262.5,421,262.5,421,262.5,421.1l-9.4-7.6c-0.1-0.1-0.3-0.1-0.4,0l-9.3,7.6c-0.1,0.1-0.2,0.4-0.1,0.5
		c0,0,0,0.1,0.1,0.1l9.3,7.6c0.1,0.1,0.3,0.1,0.4,0l9.3-7.6C262.6,421.5,262.6,421.3,262.5,421.1z"/>
	<path class="st6" d="M379.5,425.9c-4.7,3.8-9.4,7.6-14,11.4c-2.8,2.3-4.9,4.3-7.6,2.2c-5.4-4.4-10.8-8.7-16.2-13.1
		c-4.5-3.6-3.3-7.1,0.7-10.4c4.4-3.7,8.9-7.3,13.4-10.8c0.2-0.2,0.3-0.4,0.3-0.7l-0.1-12.7c0-0.3-0.1-0.6-0.3-0.7
		c-4.2-3.4-8.5-6.8-12.7-10.2c-1.8-1.5-3-2.6-3.5-3.4c-2.8-4.3,2-9.8,6-6.6c4.8,3.8,9.6,7.7,14.3,11.6c0.3,0.2,0.6,0.2,0.9,0
		c4.4-3.6,8.7-7.2,13.2-10.8c3.6-2.9,7.6-2.7,8,3.7c0,0.2,0,0.3-0.1,0.5c-0.8,1.6-1.7,2.8-2.8,3.7c-4.7,3.8-9.4,7.7-14.2,11.6
		c-0.2,0.2-0.3,0.4-0.3,0.7l0.1,12.5c0,0.3,0.1,0.6,0.3,0.7c4.4,3.6,8.7,7.1,13.1,10.6C381.5,418.2,384.1,422.1,379.5,425.9z
		 M369.9,421.1C369.9,421,369.9,421,369.9,421.1l-9.4-7.6c-0.1-0.1-0.3-0.1-0.4,0l-9.3,7.6c-0.1,0.1-0.2,0.4-0.1,0.5
		c0,0,0,0.1,0.1,0.1l9.3,7.6c0.1,0.1,0.3,0.1,0.4,0l9.3-7.6C370,421.5,370,421.3,369.9,421.1z"/>
	<path class="st6" d="M286.5,384.2c4.7-3.8,9.4-7.6,14-11.4c2.8-2.3,4.9-4.3,7.6-2.2c5.4,4.4,10.8,8.7,16.2,13.1
		c4.5,3.6,3.3,7.1-0.7,10.4c-4.4,3.7-8.9,7.3-13.4,10.8c-0.2,0.2-0.3,0.4-0.3,0.7l0.1,12.7c0,0.3,0.1,0.6,0.3,0.7
		c4.2,3.4,8.5,6.8,12.7,10.2c1.8,1.5,3,2.6,3.5,3.4c2.8,4.3-2,9.8-6,6.6c-4.8-3.8-9.6-7.7-14.3-11.6c-0.3-0.2-0.6-0.2-0.9,0
		c-4.4,3.6-8.7,7.2-13.2,10.8c-3.6,2.9-7.6,2.7-8-3.7c0-0.2,0-0.3,0.1-0.5c0.8-1.6,1.7-2.8,2.8-3.7c4.7-3.8,9.4-7.7,14.2-11.6
		c0.2-0.2,0.3-0.4,0.3-0.7l-0.1-12.5c0-0.3-0.1-0.6-0.3-0.7c-4.4-3.6-8.7-7.1-13.1-10.6C284.6,391.8,281.9,387.9,286.5,384.2z
		 M296.1,388.9C296.1,389,296.2,389,296.1,388.9l9.4,7.6c0.1,0.1,0.3,0.1,0.4,0l9.3-7.6c0.1-0.1,0.2-0.4,0.1-0.5c0,0,0-0.1-0.1-0.1
		l-9.3-7.6c-0.1-0.1-0.3-0.1-0.4,0l-9.3,7.6C296.1,388.5,296,388.8,296.1,388.9z"/>
	<path class="st1" d="M406.4,424.4l11.4,0.4l0.5,81.8H168c-0.3-8.9-0.4-17.7-0.3-26.6c0.1-11.7-14-12-15-3.2
		c-0.4,3.1-0.3,13,0.2,29.7h-10.4c-0.3-5.7-0.4-11.4-0.2-17.1c0.3-11.2-15.3-12.5-15,0.8c0.1,5.4,0,10.8-0.4,16.3H77.1
		c-10.5-2.3-8.6-12.5-8.7-20.4c0.6-13.6,0.6-27.2,0-40.8c0.1-7.9-2.1-18,8.6-20c1.9-0.3,3.8-0.7,5.7-1.1L406.4,424.4z"/>
</g>
</svg>
