<svg xmlns="http://www.w3.org/2000/svg" xml:space="preserve" id="Capa_1" x="0" y="0" style="enable-background:new 0 0 512 512" version="1.1" viewBox="0 0 512 512"><style>.st1{opacity:6.000000e-02;fill:#fff}.st2{opacity:.11}.st3{fill:#4f2100}.st4{fill:#8c8c8c}.st5{fill:#787878}</style><circle cx="256" cy="256.1" r="221.6" style="fill:#6e2e00"/><path d="M256 255.9V34.3c58.8 0 115.2 23.4 156.7 64.9s64.9 97.9 64.9 156.7H256z" class="st1"/><path d="m255.7 256.3 221.6-.7c.2 58.8-23 115.2-64.4 156.9s-98.4 66-157.2 66.1V256.3z" class="st2"/><path d="m256 255.9-.4 221.6c-58.8-.1-115.1-23.6-156.6-65.2s-64.7-98.1-64.6-156.8l221.6.4z" class="st1"/><path d="m256 255.9-221.6.3c0-58.8 23.3-115.2 64.8-156.8s97.9-65 156.6-65.1l.2 221.6z" class="st2"/><path d="M112.2 119v274c-2.8-2.9-5.4-5.8-8-8.8-1.7-2-3.4-4-5-6.1V134.2c1.6-2.1 3.3-4.1 5-6.2 2.5-2.9 5-5.8 7.7-8.6 0-.1.2-.3.3-.4zM181.1 71.8v368.8c-4.5-1.8-8.8-3.7-13-5.8V77.6c4.2-2.1 8.5-4 13-5.8zM345.3 77v358.5c-4.2 2.1-8.6 4.1-13 5.9v-370c4.4 1.7 8.8 3.6 13 5.6zM262.6 46v420.5c-.9 0-1.7 0-2.6.1-3.5.1-7 0-10.5-.1V45.9c3.5-.1 7-.1 10.5-.1.8.1 1.7.1 2.6.2zM410.2 128.1v256.3c-1.6 1.9-3.3 3.8-5 5.7-1.2 1.3-2.3 2.5-3.5 3.8-1.4 1.8-2.9 3.4-4.5 5V113.4c1.8 1.8 3.4 3.7 4.8 5.7 1.1 1.1 2.2 2.3 3.2 3.4 1.7 1.8 3.4 3.7 5 5.6z" class="st3"/><path d="M409 60.3c-1.7-1.3-3.3-2.6-5-3.8-2.6-1.9-5.3-3.8-8-5.7-1.6-1.1-3.3-2.2-5-3.3-14.7-9.5-30.4-17.4-47-23.7-4.3-1.6-8.6-3.1-13-4.5l-6-1.8c-4.3-1.2-8.6-2.4-13-3.4-14.6-3.4-29.6-5.6-45-6.4h-21.9c-17.4 1-34.2 3.6-50.3 7.7-4.4 1.1-8.7 2.4-13 3.7-.7.2-1.3.4-2 .6-4.4 1.4-8.7 2.9-13 4.6-18.1 6.9-35.2 15.8-50.9 26.5-1.7 1.1-3.4 2.3-5 3.5-2.7 1.9-5.4 3.9-8 6-1.7 1.3-3.3 2.7-5 4C45.8 107.2 12 171.1 7.7 245v21.9c3.9 65.5 28.5 120.7 73.8 165.8 5.3 5.3 10.8 10.3 16.5 15 1.7 1.4 3.3 2.7 5 4 2.6 2.1 5.3 4.1 8 6 1.7 1.2 3.3 2.4 5 3.5 15.9 10.9 32.9 19.8 50.9 26.6 4.3 1.7 8.6 3.2 13 4.6.7.2 1.3.4 2 .6 4.3 1.3 8.7 2.6 13 3.7 16.2 4.1 33 6.7 50.2 7.6h21.5c15.6-.9 30.8-3.1 45.5-6.5 4.4-1 8.7-2.2 13-3.4l6-1.8c4.4-1.4 8.7-2.9 13-4.5 16.6-6.3 32.3-14.2 46.9-23.6 1.7-1.1 3.4-2.2 5-3.3 2.7-1.8 5.4-3.7 8-5.7 1.7-1.2 3.3-2.5 5-3.8 55.3-43 91.4-108.9 95.4-184.7v-21.8c-3.9-75.9-40.2-141.8-95.4-184.9zm54.4 231.4c-.1.7-.8 1.2-1.5 1.1-3.2-.4-6.5-.2-9.8.7-6.7 34.5-21 64.7-43.1 90.8-1.6 1.9-3.3 3.8-5 5.7-1.2 1.3-2.4 2.5-3.5 3.8-1.4 1.8-2.9 3.4-4.5 5-1.6 1.5-3.2 3-5 4.4-.2.2-.5.4-.7.5-14 12.7-29.4 23.2-46.2 31.6-4.2 2.1-8.6 4.1-13 5.9-.2.1-.5.2-.7.3l-5.2 1.8-3.9 1.3c-3 1-6 2-9.2 3-5.6 1.7-11.4 3.1-17.6 4.4-2.8 1.6-1.4 6.5-1.8 10.2-.1.6-.5 1.1-1.1 1.2-10.5 1.7-21.1 2.7-31.6 2.9-4.3.1-8.7 0-13-.2-8.9-.4-17.8-1.3-26.8-2.8-.6-.1-1.1-.7-1.1-1.3l-.1-10c-8.9-1.6-16.9-3.6-24.1-6-1.3-.5-2.6-.9-3.9-1.4-3.7-1-6.8-2.1-9.1-3.4l-.6-.3c-.5-.2-.9-.4-1.4-.6-4.5-1.8-8.8-3.7-13-5.8-17.1-8.4-32.4-19-45.8-31.9-1.9-1.3-3.5-2.7-5-4.1-1.7-1.7-3.2-3.4-4.4-5.2l-.6-.6c-2.8-2.9-5.4-5.8-8-8.8-1.7-2-3.4-4-5-6.1-8.6-10.9-15.8-22.6-21.8-35.2-2.6-4.2-4.6-8.7-5.9-13.5l-.7-1.7-2.3-5.6-1.3-4-1.1-3.3c-.6-1.4-1-2.6-1-3.8-1.1-2-1.6-3.9-1.5-5.8L60 293.1l-10.2-.4c-.6 0-1.2-.5-1.3-1.1-3.8-23.7-3.8-47.3-.1-71 .1-.6.6-1.1 1.2-1.1l10.2-1c6.2-31.7 18.9-59.8 38.1-84.5 1.6-2.1 3.3-4.1 5-6.2 2.5-2.9 5-5.8 7.7-8.6.1-.2.2-.3.3-.5 1.4-1.9 3.1-3.7 5-5.4 1.5-1.3 3.1-2.6 4.9-3.8 13.1-13 28.4-23.7 46-32.2 4.2-2 8.5-4 13-5.7.3-.1.6-.2.9-.4.3-.2.7-.5 1.1-.7 2.3-1.3 5.4-2.5 9.2-3.4 1.2-.5 2.5-.9 3.8-1.3 7.6-2.5 15.8-4.6 24.4-6.2v-9.9c0-.6.4-1.2 1.1-1.3 8.9-1.4 17.8-2.3 26.7-2.7 4.3-.2 8.7-.2 13-.1 10.6.2 21.1 1.1 31.7 2.8.6.1 1.1.7 1.1 1.3l.2 9.2c0 .3.2.5.4.6.2.1.3.2.4.3 6.3 1.1 12.4 2.6 18.3 4.3 3 .9 6 1.9 8.9 2.9 1.5.3 2.8.7 4.1 1.2 2.3.8 4.3 1.7 5.9 2.8h.1c4.4 1.7 8.8 3.6 13 5.6 17.2 8.2 32.6 18.7 46.2 31.4.2.2.5.4.7.6 1.8 1.4 3.5 2.9 5 4.4 1.8 1.8 3.4 3.7 4.8 5.7 1.1 1.1 2.1 2.3 3.2 3.4 1.7 1.9 3.4 3.8 5 5.7 22.3 26.1 36.7 56.4 43.2 90.8l10 .5c.6 0 1.1.5 1.2 1.1 4 24 4 47.8 0 71.5z" class="st4"/><path d="M285.4 208.1c7.4 4.8 13.4 10.8 18.2 18.2 10.2 17 11.7 39.4 1.4 56.9-.4.7-.3 1.2-.6 2-.4.1-.7.4-.9.7-4.9 7.4-11 13.5-18.4 18.4-19.5 10.5-38.9 10.4-58.3-.1-7.8-5.1-14.3-11.5-19.4-19.3-1.8-3.6-3.1-6.4-3.8-8.4-5.9-16.6-4.8-32.6 3.4-48.1.3-.5.3-1 .2-1.6.6-.2 1-.5 1.3-.9 4.9-7.3 11-13.4 18.2-18.3 5.7-2.7 9.1-4.2 10.2-4.5 17.1-5.5 33.2-3.8 48.5 5z" class="st4"/><circle cx="256" cy="256" r="36.2" class="st5"/><circle cx="409.1" cy="423.6" r="8.7" class="st5"/><circle cx="362.7" cy="456.4" r="8.7" class="st5"/><circle cx="309.5" cy="476.7" r="8.7" class="st5"/><circle cx="253" cy="483" r="8.7" class="st5"/><circle cx="196.7" cy="475.1" r="8.7" class="st5"/><circle cx="144.1" cy="453.5" r="8.7" class="st5"/><circle cx="98.5" cy="419.4" r="8.7" class="st5"/><circle cx="62.8" cy="375.1" r="8.7" class="st5"/><circle cx="39.3" cy="323.3" r="8.7" class="st5"/><circle cx="29.4" cy="267.3" r="8.7" class="st5"/><circle cx="33.8" cy="210.6" r="8.7" class="st5"/><circle cx="52.1" cy="156.8" r="8.7" class="st5"/><circle cx="83.2" cy="109.2" r="8.7" class="st5"/><circle cx="125.2" cy="70.8" r="8.7" class="st5"/><circle cx="175.4" cy="44.1" r="8.7" class="st5"/><circle cx="230.6" cy="30.7" r="8.7" class="st5"/><circle cx="287.5" cy="31.4" r="8.7" class="st5"/><circle cx="342.4" cy="46.3" r="8.7" class="st5"/><circle cx="391.9" cy="74.4" r="8.7" class="st5"/><circle cx="432.8" cy="113.9" r="8.7" class="st5"/><circle cx="462.6" cy="162.3" r="8.7" class="st5"/><circle cx="479.5" cy="216.6" r="8.7" class="st5"/><circle cx="482.3" cy="273.4" r="8.7" class="st5"/><circle cx="470.9" cy="329.1" r="8.7" class="st5"/><circle cx="446" cy="380.3" r="8.7" class="st5"/><circle cx="294.6" cy="281.5" r="3.2" class="st5"/><circle cx="260.3" cy="302.1" r="3.2" class="st5"/><circle cx="222.8" cy="288.1" r="3.2" class="st5"/><circle cx="210.3" cy="250" r="3.2" class="st5"/><circle cx="232.3" cy="216.6" r="3.2" class="st5"/><circle cx="272.2" cy="212.9" r="3.2" class="st5"/><circle cx="299.9" cy="241.8" r="3.2" class="st5"/></svg>