<svg xmlns="http://www.w3.org/2000/svg" xml:space="preserve" id="Capa_1" x="0" y="0" style="enable-background:new 0 0 512 512" version="1.1" viewBox="0 0 512 512"><style>.st2{fill:#3b2817}.st3{fill:#4a321d}</style><path d="M371.1 18.6 17.6 495.1c-5-3.7-8-9.2-8.9-14.9-.9-5.8.5-11.8 4.2-16.9l326.4-440c7.5-10 21.7-12.1 31.8-4.7z" style="fill:#4d351e"/><path d="M17.6 495.1 371.1 18.6c5 3.7 8 9.2 8.9 14.9.9 5.8-.5 11.8-4.2 16.9l-326.4 440c-7.6 10-21.8 12.1-31.8 4.7z" style="fill:#654628"/><path d="m79.4 461.6-13.3 18c-1.1 1.4-3.1 1.7-4.5.7L20 449.5c-1.4-1.1-1.7-3.1-.7-4.5l13.3-18c1.1-1.4 3.1-1.7 4.5-.7L78.7 457c1.5 1.1 1.8 3.1.7 4.6zM113.5 415.6l-13.3 18c-1.1 1.4-3.1 1.7-4.5.7l-41.5-30.8c-1.4-1.1-1.7-3.1-.7-4.5l13.3-18c1.1-1.4 3.1-1.7 4.5-.7l41.5 30.8c1.4 1.1 1.7 3.1.7 4.5zM147.5 369.7l-13.3 18c-1.1 1.4-3.1 1.7-4.5.7l-41.5-30.8c-1.4-1.1-1.7-3.1-.7-4.5l13.3-18c1.1-1.4 3.1-1.7 4.5-.7l41.5 30.8c1.5 1 1.8 3.1.7 4.5z" class="st2"/><path d="m102.2 443-13.3 18c-1.1 1.4-3.1 1.7-4.5.7l-53.2-39.4c-1.4-1.1-1.7-3.1-.7-4.5l13.3-18c1.1-1.4 3.1-1.7 4.5-.7l53.2 39.4c1.5 1 1.8 3.1.7 4.5zM136.4 396.9l-13.3 18c-1.1 1.4-3.1 1.7-4.5.7l-53.2-39.4c-1.4-1.1-1.7-3.1-.7-4.5l13.3-18c1.1-1.4 3.1-1.7 4.5-.7l53.2 39.4c1.5 1 1.8 3.1.7 4.5z" class="st3"/><path d="M496.8 143.2c-17.2 20.5-35.5 41.3-55 62.4-21.9 23.6-43.6 45.7-64.9 66.3-8.7-12.2-17.5-24.3-26.2-36.5 5.4-5.2 12.8-12.6 21.1-22 8.7-9.8 13.6-15.4 19-23.9 7.4-11.7 12.7-20.1 13.1-32.2.1-3.2.4-14.2-6.2-24.4-9.6-15-27.7-18.7-42.5-21.5-29.2-5.5-51.2-2.6-51.2-2.6s-5.3-33.3-25.2-50.9l32.3-45.5c14 8.5 28.1 17.3 42.3 26.5 52.4 34.1 100.1 69.2 143.4 104.3z" style="fill:#555"/><path d="M505.6 150.4c-14.4 19.5-31 40.2-50 61.3-24.5 27.3-48.8 50.5-71.5 70.2-2.4-3.3-4.8-6.6-7.2-10 21.3-20.6 43-42.7 64.9-66.3 19.5-21.1 37.8-41.9 55-62.4 3 2.4 5.9 4.8 8.8 7.2z" style="opacity:.72;fill:#555"/></svg>