<?xml version="1.0" encoding="utf-8"?>
<!-- Generator: Adobe Illustrator 27.6.1, SVG Export Plug-In . SVG Version: 6.00 Build 0)  -->
<svg version="1.1" id="Capa_1" xmlns="http://www.w3.org/2000/svg" xmlns:xlink="http://www.w3.org/1999/xlink" x="0px" y="0px"
	 viewBox="0 0 512 512" style="enable-background:new 0 0 512 512;" xml:space="preserve">
<style type="text/css">
	.st0{fill:#4D351E;}
	.st1{fill:#654628;}
	.st2{fill:#3B2817;}
	.st3{fill:#4A321D;}
	.st4{fill:#555555;}
	.st5{opacity:0.72;fill:#555555;}
</style>
<path class="st0" d="M371.1,18.6L17.6,495.1c-5-3.7-8-9.2-8.9-14.9c-0.9-5.8,0.5-11.8,4.2-16.9l326.4-440
	C346.8,13.3,361,11.2,371.1,18.6z"/>
<path class="st1" d="M17.6,495.1L371.1,18.6c5,3.7,8,9.2,8.9,14.9c0.9,5.8-0.5,11.8-4.2,16.9l-326.4,440
	C41.8,500.4,27.6,502.5,17.6,495.1z"/>
<path class="st2" d="M79.4,461.6l-13.3,18c-1.1,1.4-3.1,1.7-4.5,0.7L20,449.5c-1.4-1.1-1.7-3.1-0.7-4.5l13.3-18
	c1.1-1.4,3.1-1.7,4.5-0.7L78.7,457C80.2,458.1,80.5,460.1,79.4,461.6z"/>
<path class="st2" d="M113.5,415.6l-13.3,18c-1.1,1.4-3.1,1.7-4.5,0.7l-41.5-30.8c-1.4-1.1-1.7-3.1-0.7-4.5l13.3-18
	c1.1-1.4,3.1-1.7,4.5-0.7l41.5,30.8C114.2,412.2,114.5,414.2,113.5,415.6z"/>
<path class="st2" d="M147.5,369.7l-13.3,18c-1.1,1.4-3.1,1.7-4.5,0.7l-41.5-30.8c-1.4-1.1-1.7-3.1-0.7-4.5l13.3-18
	c1.1-1.4,3.1-1.7,4.5-0.7l41.5,30.8C148.3,366.2,148.6,368.3,147.5,369.7z"/>
<path class="st3" d="M102.2,443l-13.3,18c-1.1,1.4-3.1,1.7-4.5,0.7l-53.2-39.4c-1.4-1.1-1.7-3.1-0.7-4.5l13.3-18
	c1.1-1.4,3.1-1.7,4.5-0.7l53.2,39.4C103,439.5,103.3,441.6,102.2,443z"/>
<path class="st3" d="M136.4,396.9l-13.3,18c-1.1,1.4-3.1,1.7-4.5,0.7l-53.2-39.4c-1.4-1.1-1.7-3.1-0.7-4.5l13.3-18
	c1.1-1.4,3.1-1.7,4.5-0.7l53.2,39.4C137.2,393.4,137.5,395.5,136.4,396.9z"/>
<path class="st4" d="M496.8,143.2c-17.2,20.5-35.5,41.3-55,62.4c-21.9,23.6-43.6,45.7-64.9,66.3c-8.7-12.2-17.5-24.3-26.2-36.5
	c5.4-5.2,12.8-12.6,21.1-22c8.7-9.8,13.6-15.4,19-23.9c7.4-11.7,12.7-20.1,13.1-32.2c0.1-3.2,0.4-14.2-6.2-24.4
	c-9.6-15-27.7-18.7-42.5-21.5c-29.2-5.5-51.2-2.6-51.2-2.6s-5.3-33.3-25.2-50.9l32.3-45.5c14,8.5,28.1,17.3,42.3,26.5
	C405.8,73,453.5,108.1,496.8,143.2z"/>
<path class="st5" d="M505.6,150.4c-14.4,19.5-31,40.2-50,61.3c-24.5,27.3-48.8,50.5-71.5,70.2c-2.4-3.3-4.8-6.6-7.2-10
	c21.3-20.6,43-42.7,64.9-66.3c19.5-21.1,37.8-41.9,55-62.4C499.8,145.6,502.7,148,505.6,150.4z"/>
</svg>
