<?xml version="1.0" encoding="utf-8"?>
<!-- Generator: Adobe Illustrator 27.6.1, SVG Export Plug-In . SVG Version: 6.00 Build 0)  -->
<svg version="1.1" id="Capa_1" xmlns="http://www.w3.org/2000/svg" xmlns:xlink="http://www.w3.org/1999/xlink" x="0px" y="0px"
	 viewBox="0 0 512 512" style="enable-background:new 0 0 512 512;" xml:space="preserve">
<style type="text/css">
	.st0{fill:#FF4D4D;}
	.st1{fill:#EA365D;}
	.st2{fill:#FFAD42;}
	.st3{fill:#FFE257;}
	.st4{fill:#5CC67A;}
</style>
<g>
	<path class="st0" d="M256,272.9v58.1h138.6c0,0-9.8-128.1,75.2-166.7c3.2-10.2-24.5-27.9-61-35.5C345.5,115.6,256,132.9,256,272.9z
		"/>
	<path class="st1" d="M341.8,330.9h52.8c0,0-9.8-128.1,75.2-166.7c3.2-10.2-24.5-27.9-61-35.5C345.3,142.8,322.3,252.5,341.8,330.9z
		"/>
	<path class="st2" d="M256,272.9v58.1H117.4c0,0,9.8-128.1-75.2-166.7c-3.2-10.2,24.5-27.9,61-35.5C166.5,115.6,256,132.9,256,272.9
		z"/>
	<path class="st3" d="M170.2,330.9h-52.8c0,0,9.8-128.1-75.2-166.7c-3.2-10.2,24.5-27.9,61-35.5
		C166.7,142.8,189.8,252.5,170.2,330.9z"/>
	<path class="st3" d="M469.8,206.1c-84.9,38.6-75.2,166.7-75.2,166.7H117.4c0,0,9.8-128.1-75.2-166.7C33.4,178.3,256,94,256,314.7
		c0-154.4,108.9-159.5,171.4-139.1C454.2,184.3,472.4,197.8,469.8,206.1z"/>
	<path class="st0" d="M256,314.7v58.1H117.4c0,0,9.8-128.1-75.2-166.7c-3.2-10.2,24.5-27.9,61-35.5C166.5,157.4,256,174.7,256,314.7
		z"/>
	<path class="st1" d="M170.2,372.8h-52.8c0,0,9.8-128.1-75.2-166.7c-3.2-10.2,24.5-27.9,61-35.5
		C166.7,184.7,189.8,294.4,170.2,372.8z"/>
	<path class="st2" d="M427.4,175.6C288.4,195.7,256,314.7,256,344.3v-29.6C256,160.3,364.9,155.2,427.4,175.6z"/>
	<circle class="st4" cx="485.9" cy="206.1" r="22"/>
	<circle class="st4" cx="26.1" cy="206.1" r="22"/>
	<circle class="st4" cx="35" cy="157.4" r="15.3"/>
	<circle class="st4" cx="474.4" cy="157.4" r="15.3"/>
	<path class="st0" d="M443.2,287.6v2.1c-14.7,30.6-29.3,61.2-43.9,91.9c-1.9,4-6.4,5.2-14.3,5.2c-43,0.1-86.1,0-129-0.1v-127
		c5.9,0,8.5,1.7,11.2,4.5c18.1,18.9,36.1,37.9,54,56.8c0.6,0.7,1.2,0.7,1.8,0c3.3-3.5,6.7-7,10-10.5c1.6-1.8,3.2-2.9,4.7-3.4
		c6.9-2.6,13.8-0.3,17.2,3.1c4.3,4.4,8.4,8.7,12.4,12.9c0.2,0.2,0.8,0.4,1.3,0.2c0.1,0,0.3-0.1,0.4-0.1c17.9-12.5,35.8-25,53.6-37.5
		C429,281.2,440.5,282.1,443.2,287.6z"/>
	<path class="st3" d="M256,259.8v127h-0.2c-43-0.1-86-0.1-129-0.1c-11.6,0-12.6-2.3-15.2-7.8C97.2,349,83,319.1,68.8,289.2v-1.3
		c1.4-3.8,9.1-6.2,15.6-4.5c1.8,0.5,3.9,1.6,6.5,3.4c17.6,12.2,34.9,24.3,52.2,36.4c0.3,0.2,1,0.2,1.4,0.1c0.1-0.1,0.2-0.1,0.3-0.2
		c4.3-4.5,8.6-9,13-13.5c3.4-3.5,10.5-5,16.8-2.5c1.6,0.7,3.2,1.8,4.5,3.2c3.4,3.6,6.8,7.2,10.1,10.7c0.6,0.7,1.2,0.7,1.8,0
		c18.1-19,36.2-38,54.4-57c2.6-2.6,5.1-4,10.6-4.2H256z"/>
</g>
</svg>
