<?xml version="1.0" encoding="utf-8"?>
<!-- Generator: Adobe Illustrator 27.6.1, SVG Export Plug-In . SVG Version: 6.00 Build 0)  -->
<svg version="1.1" id="Capa_1" xmlns="http://www.w3.org/2000/svg" xmlns:xlink="http://www.w3.org/1999/xlink" x="0px" y="0px"
	 viewBox="0 0 512 512" style="enable-background:new 0 0 512 512;" xml:space="preserve">
<style type="text/css">
	.st0{fill:#837445;}
	.st1{fill:#573F13;}
	.st2{opacity:0.13;}
</style>
<g>
	<path class="st0" d="M334.9,298.8c-0.4-57.8,1.3-112.5,4.5-164h-45.5l27.5-123.5H202.9L224,133.9h-40c1.7,48.2,2,99.2,0.2,152.8
		c-2.5,76.8-8.8,148.4-17.3,213.9h58.8L237,375.6l21.2,1.1l15.8,0.8l11.4,123.2h59.7C339.2,438.3,335.4,370.8,334.9,298.8z
		 M266.4,36.7c9,2.3,15.7,10.2,15.7,19.7c0,9.8-7.1,17.9-16.6,19.9c-1.4,0.3-2.9,0.5-4.5,0.5c-11.6,0-21.1-9.1-21.1-20.4
		c0-11.2,9.4-20.4,21.1-20.4C262.8,36,264.7,36.3,266.4,36.7z"/>
	<path class="st1" d="M328.7,295c-0.4-55.3,1.8-104.4,4.8-153.7l-47-1.3l28.1-123.2H209.5L230,138.8c-12.8,0-25.5,1.3-38.2,1.3
		c1.7,46.1-0.7,95.6-2.4,146.9c-2.4,73.6-8.5,146-16.6,208.8l47.1-1.3l13.1-125l17.8,0.9l7.5,0.4l2.9,0.1l16.9,0.8l10.9,124h50.2
		C333.7,436.1,329.2,364,328.7,295z M239.9,56.4c0-11.2,9.4-20.4,21.1-20.4c1.9,0,3.7,0.2,5.4,0.7c9,2.3,15.7,10.2,15.7,19.7
		c0,9.8-7.1,17.9-16.6,19.9c-1.4,0.3-2.9,0.5-4.5,0.5C249.3,76.8,239.9,67.7,239.9,56.4z"/>
	<path class="st0" d="M266.6,27.8c-1.8-0.3-3.7-0.5-5.6-0.5c-16.6,0-30.1,13-30.1,29.1c0,14.7,11.3,26.8,25.9,28.8
		c1.4,0.2,2.8,0.3,4.2,0.3c1.4,0,2.9-0.1,4.2-0.3c0.7-0.1,1.4-0.2,2-0.3c13.6-2.8,23.8-14.5,23.8-28.4
		C291.1,42.2,280.5,30.4,266.6,27.8z M265.4,76.3c-1.4,0.3-2.9,0.5-4.5,0.5c-11.6,0-21.1-9.1-21.1-20.4c0-11.2,9.4-20.4,21.1-20.4
		c1.9,0,3.7,0.2,5.4,0.7c9,2.3,15.7,10.2,15.7,19.7C282.1,66.2,274.9,74.3,265.4,76.3z"/>
	
		<rect x="253.9" y="81.7" transform="matrix(0.9998 2.071168e-02 -2.071168e-02 0.9998 4.7587 -5.317)" class="st0" width="10.4" height="290.7"/>
	<path class="st0" d="M315.9,203.4c-4.4-3.2-8.8-6.3-13.2-9.5c-0.2-0.1-0.3-0.4-0.3-0.6l0.2-10c0-0.2,0.1-0.4,0.3-0.6
		c4.1-2.8,8.3-5.6,12.4-8.3c3.3-2.2,5.9-5.3,1.6-8.3c-4.3-3.1-8.7-6.2-13-9.3c-2.6-1.9-4.6-3.6-7.1-1.8c-5.1,3.4-10.2,6.8-15.4,10.3
		c-4.2,2.8-3.2,5.7,0.5,8.4c4.1,3,8.2,6,12.4,8.9c0.2,0.1,0.3,0.4,0.3,0.6l-0.2,10.2c0,0.2-0.1,0.4-0.3,0.6c-4,2.7-8,5.4-12,8
		c-1.8,1.2-2.9,2-3.3,2.7c-2.6,3.4,1.8,7.9,5.5,5.4c4.5-3,9-6,13.6-9.1c0.2-0.2,0.6-0.2,0.8,0c4,3,8.1,5.9,12.2,8.8
		c3.4,2.4,7.1,2.3,7.6-2.8c0-0.1,0-0.3-0.1-0.4C317.8,205.1,316.9,204.1,315.9,203.4z M298.7,175.7l-8.6-6.2c0,0,0,0,0,0s0,0,0,0
		l0,0c0,0,0,0,0,0c0,0,0,0,0-0.1s0,0,0,0c0,0,0,0,0-0.1c0,0,0,0,0-0.1c0,0,0,0,0,0c0,0,0,0,0-0.1c0,0,0,0,0,0l8.8-5.9
		c0.1-0.1,0.2-0.1,0.3,0l8.6,6.3c0.1,0,0.1,0.1,0.1,0.2v0.1c0,0.1,0,0.1-0.1,0.1c0,0,0,0.1-0.1,0.1l-8.8,5.9
		C298.9,175.8,298.8,175.8,298.7,175.7z"/>
	<path class="st0" d="M239.6,203.4c-4.4-3.2-8.8-6.3-13.2-9.5c-0.2-0.1-0.3-0.4-0.3-0.6l0.2-10c0-0.2,0.1-0.4,0.3-0.6
		c4.1-2.8,8.3-5.6,12.4-8.3c3.3-2.2,5.9-5.3,1.6-8.3c-4.3-3.1-8.7-6.2-13-9.3c-2.6-1.9-4.6-3.6-7.1-1.8c-5.1,3.4-10.2,6.8-15.4,10.3
		c-4.2,2.8-3.2,5.7,0.5,8.4c4.1,3,8.2,6,12.4,8.9c0.2,0.1,0.3,0.4,0.3,0.6l-0.2,10.2c0,0.2-0.1,0.4-0.3,0.6c-4,2.7-8,5.4-12,8
		c-1.8,1.2-2.9,2-3.3,2.7c-2.6,3.4,1.8,7.9,5.5,5.4c4.5-3,9.1-6,13.6-9.1c0.2-0.2,0.6-0.2,0.8,0c4,3,8.1,5.9,12.2,8.8
		c3.4,2.4,7.1,2.3,7.5-2.8c0-0.1,0-0.3-0.1-0.4C241.5,205.1,240.6,204.1,239.6,203.4z M222.4,175.7l-8.6-6.2c0,0,0,0,0,0s0,0,0,0
		c0,0,0,0,0,0c0,0,0,0,0,0c0,0,0,0,0-0.1v-0.1c0,0,0,0,0-0.1c0,0,0,0,0,0c0,0,0,0,0-0.1s0,0,0,0l8.8-5.9c0.1-0.1,0.2-0.1,0.3,0
		l8.6,6.3c0.1,0,0.1,0.1,0.1,0.2c0,0,0,0,0,0.1v0c0,0.1,0,0.1,0,0.1c0,0,0,0.1-0.1,0.1l-8.8,5.9
		C222.6,175.8,222.5,175.8,222.4,175.7z"/>
	<path class="st0" d="M239.1,332.3c-4.2-3-8.4-5.8-12.6-8.7c-0.2-0.1-0.3-0.4-0.3-0.6l0.1-10.2c0-0.2,0.1-0.4,0.3-0.6
		c4-2.8,7.9-5.5,11.9-8.2c1.7-1.2,2.8-2.1,3.3-2.7c2.6-3.5-1.9-7.9-5.6-5.3c-4.5,3.1-9,6.2-13.4,9.3c-0.2,0.2-0.6,0.2-0.8,0
		c-4.1-2.9-8.2-5.8-12.4-8.6c-3.4-2.4-7.1-2.1-7.5,3c0,0.1,0,0.3,0.1,0.4c0.7,1.3,1.6,2.3,2.6,3c4.4,3.1,8.9,6.2,13.3,9.3
		c0.2,0.1,0.3,0.3,0.3,0.6l0,10c0,0.2-0.1,0.4-0.3,0.6c-4.1,2.9-8.2,5.7-12.3,8.5c-3.3,2.2-5.8,5.4-1.5,8.4c4.4,3,8.8,6.1,13.2,9.1
		c2.6,1.8,4.6,3.5,7.2,1.7c5.1-3.5,10.1-7,15.2-10.5C244,337.8,242.9,335,239.1,332.3z M231.3,336.8
		C231.3,336.8,231.3,336.8,231.3,336.8C231.3,336.9,231.3,336.9,231.3,336.8c0,0.1-0.1,0.1-0.1,0.2c0,0,0,0,0,0l-8.7,6.1
		c-0.1,0.1-0.2,0.1-0.3,0l-8.7-6.1c-0.1,0-0.1-0.1-0.1-0.2v-0.1c0,0,0-0.1,0-0.1c0,0,0,0,0.1-0.1l8.7-6c0.1-0.1,0.2-0.1,0.3,0
		l8.7,6.1c0,0,0,0,0,0c0,0,0,0,0,0s0,0,0,0c0,0,0,0,0,0c0,0,0,0,0,0C231.3,336.7,231.3,336.7,231.3,336.8
		C231.3,336.8,231.3,336.8,231.3,336.8z"/>
	<path class="st0" d="M299.8,312.4c4-2.7,8-5.3,12.1-8c1.8-1.1,2.9-2,3.3-2.6c2.7-3.4-1.7-7.9-5.5-5.4c-4.6,3-9.1,6-13.6,9
		c-0.2,0.2-0.6,0.2-0.8,0c-4-3-8.1-6-12.2-8.9c-3.3-2.4-7.1-2.3-7.6,2.8c0,0.1,0,0.3,0.1,0.4c0.7,1.3,1.5,2.3,2.5,3
		c4.4,3.2,8.7,6.4,13.1,9.6c0.2,0.1,0.3,0.4,0.3,0.6l-0.3,10c0,0.2-0.1,0.4-0.3,0.6c-4.2,2.8-8.3,5.5-12.5,8.2
		c-3.3,2.2-5.9,5.2-1.7,8.3c4.3,3.2,8.6,6.3,12.9,9.4c2.6,1.9,4.5,3.6,7.1,1.9c5.1-3.4,10.3-6.8,15.4-10.2c4.3-2.8,3.2-5.7-0.5-8.4
		c-4.1-3-8.2-6-12.4-9c-0.2-0.1-0.3-0.4-0.3-0.6l0.3-10.2C299.5,312.7,299.7,312.5,299.8,312.4z M303.8,336.7
		C303.8,336.7,303.9,336.7,303.8,336.7C303.9,336.8,303.9,336.8,303.8,336.7C303.9,336.8,303.9,336.8,303.8,336.7
		c0.1,0.1,0.1,0.1,0.1,0.1c0,0,0,0,0,0.1c0,0,0,0,0,0.1c0,0,0,0,0,0c0,0,0,0,0,0.1c0,0,0,0,0,0c0,0,0,0,0,0.1c0,0,0,0,0,0l-8.8,5.9
		c-0.1,0.1-0.2,0.1-0.3,0l-8.6-6.3c-0.1,0-0.1-0.1-0.1-0.2c0,0,0,0,0-0.1s0,0,0,0c0,0,0-0.1,0-0.1c0,0,0.1-0.1,0.1-0.1l8.9-5.8
		c0.1-0.1,0.2-0.1,0.3,0L303.8,336.7z"/>
</g>
<path class="st2" d="M345.1,500.7h-59.7L274,377.5l-15.8-0.8l0.1-4.2l0-1.7l6.9-285.5l0.1-3.4l0.1-5.5c9.5-2,16.6-10.1,16.6-19.9
	c0-9.5-6.7-17.4-15.7-19.7l0.2-8.9l0.3-11l0.1-5.5h54.4l-27.5,123.5h45.5c-3.2,51.4-4.9,106.2-4.5,164
	C335.4,370.8,339.2,438.3,345.1,500.7z"/>
</svg>
