<svg xmlns="http://www.w3.org/2000/svg" xmlns:xlink="http://www.w3.org/1999/xlink" xml:space="preserve" id="Capa_1" x="0" y="0" style="enable-background:new 0 0 512 512" version="1.1" viewBox="0 0 512 512"><style>.st0{fill:#f7e8d1}.st1{fill:#efd3ac}.st2{fill:#5d5d5d}.st3{fill:#909ca8}</style><path d="M119.7 237.8c-8.5 11.9-15.2 25-20 39.1-25.7-8.3-46.2-23.6-61.4-45.7-3.6-5.2-6.2-10.6-7.8-16.2-10.7-36.1-5.2-75.5 17.6-106.2.5-.7.5-1.2-.3-1.6 1-1.2 5.8-6.8 6.9-7 1.1-.2-2.5 5.5-2.6 5.9-8.6 19.4-13.7 39.5-12.9 60.2.8 19.4 8.7 40.7 25.7 51.8 17.2 11.1 35.1 15 54.8 19.7z" class="st0"/><path d="M47.7 107.1c.8.4.8 1 .3 1.6-22.8 30.7-28.2 70.1-17.6 106.2 1.6 5.6 4.2 11 7.8 16.2 15.2 22.2 35.7 37.4 61.4 45.7-3.9 12.4-6.3 25.3-7.2 38.9-15.8-4.9-30.5-12.1-43.9-21.6-32.6-23-46.4-56.6-43.4-96.1 2.5-33.9 20-66.1 42.6-90.9z" class="st1"/><path d="M394.1 248.3c8.5 11.9 15.2 25 20 39.1 25.7-8.3 46.2-23.6 61.4-45.7 3.6-5.2 6.2-10.6 7.8-16.2 10.7-36.1 5.2-75.5-17.6-106.2-.5-.7-.5-1.2.3-1.6-1-1.2-5.8-6.8-6.9-7-1.1-.2 2.5 5.5 2.6 5.9 8.6 19.4 13.7 39.5 12.9 60.2-.8 19.4-8.7 40.7-25.7 51.8-17.3 11.1-35.1 15-54.8 19.7z" class="st0"/><path d="M466 117.6c-.8.4-.8 1-.3 1.6 22.8 30.7 28.2 70.1 17.6 106.2-1.6 5.6-4.2 11-7.8 16.2-15.2 22.2-35.7 37.4-61.4 45.7 3.9 12.4 6.3 25.3 7.2 38.9 15.8-4.9 30.5-12.1 43.9-21.6 32.7-23.1 46.5-56.7 43.5-96.2-2.6-33.8-20-66-42.7-90.8z" class="st1"/><path d="M448.4 379.9c0 4.9-.1 9.8-.4 14.7-1.3.3-2.6.4-4 .5l-376.7 1.7c-1.4 0-2.7-.1-4-.4-.3-4.9-.5-9.8-.5-14.7-.1-13 .9-25.7 2.8-38 15.6-101.2 94.1-178.3 189-178.7 94.9-.4 174.1 76 190.5 177 2.2 12.3 3.2 24.9 3.3 37.9z" class="st2"/><path d="m462 361.6.1 17.1c0 8.6-6 15.8-14 17.7-1.3.3-2.6.4-4 .5l-376.7 1.7c-1.4 0-2.7-.1-4-.4-8.1-1.8-14.1-8.9-14.2-17.5l-.1-17.1c0-9.5 7.2-17.3 16.6-18 .5 0 1-.1 1.4-.1l376.7-1.7h1.4c9.4.6 16.7 8.3 16.8 17.8zM234.7 157.9l39.8-.2c3.2 0 5.7 2.5 5.8 5.7l.8 180.9-51.3.2-.8-180.9c0-3.1 2.6-5.7 5.7-5.7z" class="st3"/><defs><path id="SVGID_1_" d="M68 361.2h390.1v26.7H68z" transform="matrix(1 -.00438486 .00438486 1 -1.64 1.157)"/></defs><clipPath id="SVGID_00000015351473287203676620000001416893560619637420_"><use xlink:href="#SVGID_1_" style="overflow:visible"/></clipPath><g style="clip-path:url(#SVGID_00000015351473287203676620000001416893560619637420_)"><circle id="_x3C_Grid_Repeat_x3E__00000064344846098725438230000017598349399155520158_" cx="77.8" cy="371.8" r="9.8" class="st2" transform="matrix(1 -.00438486 .00438486 1 -1.63 .345)"/><circle id="_x3C_Grid_Repeat_x3E__00000006680925360941441420000015857540354618152871_" cx="121.8" cy="371.6" r="9.8" class="st2" transform="matrix(1 -.00438486 .00438486 1 -1.628 .538)"/><circle id="_x3C_Grid_Repeat_x3E__00000129171697932086075230000009635475683556193411_" cx="165.8" cy="371.4" r="9.8" class="st2" transform="matrix(1 -.00438486 .00438486 1 -1.627 .73)"/><circle id="_x3C_Grid_Repeat_x3E__00000060016920254961206770000002360273464029301639_" cx="209.8" cy="371.3" r="9.8" class="st2" transform="matrix(1 -.00438486 .00438486 1 -1.626 .924)"/><circle id="_x3C_Grid_Repeat_x3E__00000100347001478144940400000001950414055635493265_" cx="253.9" cy="371.1" r="9.8" class="st2" transform="matrix(1 -.00438486 .00438486 1 -1.625 1.117)"/><circle id="_x3C_Grid_Repeat_x3E__00000122000248033519858590000013232414570500113302_" cx="297.9" cy="370.9" r="9.8" class="st2" transform="matrix(1 -.00438486 .00438486 1 -1.623 1.31)"/><circle id="_x3C_Grid_Repeat_x3E__00000132070335104269937710000002235173594293681061_" cx="341.9" cy="370.7" r="9.8" class="st2" transform="matrix(1 -.00438486 .00438486 1 -1.622 1.503)"/><circle id="_x3C_Grid_Repeat_x3E__00000069366327801957652120000006008360849824170637_" cx="385.9" cy="370.5" r="9.8" class="st2" transform="matrix(1 -.00438486 .00438486 1 -1.62 1.696)"/><circle id="_x3C_Grid_Repeat_x3E__00000011007670200005280490000012302872125318283188_" cx="429.9" cy="370.3" r="9.8" class="st2" transform="matrix(1 -.00438486 .00438486 1 -1.62 1.889)"/></g><defs><path id="SVGID_00000085241339645140365260000014795986569681271448_" d="M245.7 170.7h24.6V351h-24.6z" transform="matrix(1 -.00438486 .00438486 1 -1.141 1.134)"/></defs><clipPath id="SVGID_00000153677628567739404960000008455977071914853253_"><use xlink:href="#SVGID_00000085241339645140365260000014795986569681271448_" style="overflow:visible"/></clipPath><g style="clip-path:url(#SVGID_00000153677628567739404960000008455977071914853253_)"><circle cx="255.1" cy="180.5" r="9.8" class="st2" transform="matrix(1 -.00438486 .00438486 1 -.79 1.12)"/><circle cx="255.3" cy="217.5" r="9.8" class="st2" transform="matrix(1 -.00438486 .00438486 1 -.951 1.122)"/><circle cx="255.5" cy="254.4" r="9.8" class="st2" transform="matrix(1 -.00438486 .00438486 1 -1.113 1.123)"/><circle cx="255.6" cy="291.4" r="9.8" class="st2" transform="matrix(1 -.00438486 .00438486 1 -1.275 1.124)"/><circle cx="255.8" cy="328.3" r="9.8" class="st2" transform="matrix(1 -.00438486 .00438486 1 -1.437 1.125)"/></g></svg>