<svg xmlns="http://www.w3.org/2000/svg" xml:space="preserve" id="Capa_1" x="0" y="0" style="enable-background:new 0 0 512 512" version="1.1" viewBox="0 0 512 512"><style>.st0{fill:#d19a25}.st1{fill:#00a34c}.st2{fill:#48b766}.st4{fill:#4b3f4e}.st5{fill:#5d5360}.st6{fill:#fff}.st9{fill:#95b232}.st10{fill:#ef684a}</style><path d="M313.9 120.3c0 6.2-25.6 11.2-57.3 11.2-31.6 0-57.3-5-57.3-11.2 0-2.3 3.6-4.5 9.8-6.3v3c8.3-2.7 26.4-4.5 47.5-4.5 22.6 0 41.8 2.1 49.1 5.1v-3.1c5.2 1.7 8.2 3.7 8.2 5.8z" class="st0"/><path d="M378.3 119.6c-.1 0-.1 0-.1-.1-1-2.2-3.2-3.6-5.3-4.6-4.2-2-8.7-3.2-13.2-4.3-4.7-1.1-9.4-2-14.1-2.7-13.2-2.1-30-3.6-43.4-4.5l.6 13.3c2.1.8 6 2.7 6 3.6 0 4.3-23.4 7.8-52.3 7.8s-52.3-3.5-52.3-7.8c0-1.2 4.5-3.1 7.6-4.1l3.1-13.1c-2.8.2-11.3.7-14.1.9-11.5.9-22.9 2.1-34.3 3.9-8.2 1.3-16.7 3-24.4 6.1-2.1.8-6 2.7-6.9 4.8-.2.5-.4.8-.5 1 .3 1 .2 1.6 1 2.6 1.4 1.8 4.2 3.2 6.4 4 3.1 1.2 6.4 2.3 10.1 3.2 9.2 2.3 18.7 3.7 28.1 4.8 18.3 2.2 36.7 3.3 55.2 3.8 29.3.8 58.7.1 87.9-2.7 12.2-1.2 24.4-2.8 36.4-5.6 2.4-.6 4.8-1.2 7.2-2 3.3-1 9.4-3.1 11-6.4.3-.6.3-1.3.5-2 0 .1-.1.1-.2.1z" class="st0"/><path d="M477.5 175.7c0 86.4-70 156.4-156.4 156.4h-65v-93.3h1.5l-1.4 11.5h85.1c16.8 0 32-6.8 43-17.8s17.8-26.2 17.8-43c0-12.4 3.8-24.5 10.9-34.7l17.9-25.7c12.9 0 24.5 5.2 33 13.7 8.4 8.4 13.6 20 13.6 32.9z" class="st1"/><path d="M430.9 129.1v47.6c0 59.4-48.2 107.6-107.6 107.6h-67.2v-45.5h65c34.9 0 63.1-28.3 63.1-63.1 0-12.9 5.2-24.5 13.7-33 8.5-8.4 20.1-13.6 33-13.6zM22.4 392c0-86.4 70-156.4 156.4-156.4h65v93.3h-1.5l1.4-11.5h-85.1c-16.8 0-32 6.8-43 17.8s-17.8 26.2-17.8 43c0 12.4-3.8 24.5-10.9 34.7L69 438.7c-12.9 0-24.5-5.2-33-13.7-8.4-8.4-13.6-20.1-13.6-33z" class="st2"/><path d="M69 438.7v-47.6c0-59.4 48.2-107.6 107.6-107.6h67.2V329h-65c-34.9 0-63.1 28.3-63.1 63.1 0 12.9-5.2 24.5-13.7 33-8.5 8.4-20.1 13.6-33 13.6z" class="st1"/><path d="M331.4 177.1c0 1.2 0 2.4-.1 3.7L315.9 497H256.1c-10.7-12.1-21-26.4-30.8-39.2l-23.5-297.4c-2.3-30.6 21.2-56.8 51.5-58.4 1 0 1.9-.1 2.9-.1 41.7 0 75.2 33.9 75.2 75.2z" class="st1"/><path d="M256.1 101.9V497h-29.9c-.7-.9-24.5-336.6-24.5-336.6-2.3-30.6 21.2-56.8 51.5-58.4 1-.1 1.9-.1 2.9-.1z" class="st2"/><path d="M218.5 177.1c0 1.2 0 2.5.1 3.7l7.7 316.2h-29c-.1-.1-5-85.9-5.1-86L181 180.8c-.1-1.3-.1-2.5-.1-3.7 0-41.3 33.5-75.2 75.2-75.2-20.9 0-37.6 33.9-37.6 75.2z" style="fill:#61d87d"/><path d="M312.4 194.2v12.7c0 10.5-8.5 19-19 19s-19-8.5-19-19v-12.7c0-9.6 7.2-17.6 16.5-18.9.8-.1 1.7-.2 2.6-.2 5.3 0 10 2.1 13.5 5.6 3.1 3.1 5.1 7.2 5.5 11.8-.2.6-.1 1.2-.1 1.7z" class="st4"/><path d="M312.3 192.6v13.8c0 5.9-4.8 10.8-10.8 10.8-5.9 0-10.8-4.8-10.8-10.8v-31c.8-.1 1.7-.2 2.6-.2 5.3 0 10 2.1 13.5 5.6 3.1 3.1 5.1 7.2 5.5 11.8z" class="st5"/><circle cx="293.3" cy="189.7" r="8.2" class="st6"/><path d="M237.5 194.2v12.7c0 10.5-8.5 19-19 19s-19-8.5-19-19v-12.7c0-9.6 7.2-17.6 16.5-18.9.8-.1 1.7-.2 2.6-.2 5.3 0 10 2.1 13.5 5.6 3.1 3.1 5.1 7.2 5.5 11.8-.1.6-.1 1.2-.1 1.7z" class="st4"/><path d="M237.5 192.6v13.8c0 5.9-4.8 10.8-10.8 10.8-5.9 0-10.8-4.8-10.8-10.8v-31c.8-.1 1.7-.2 2.6-.2 5.3 0 10 2.1 13.5 5.6 3 3.1 5.1 7.2 5.5 11.8z" class="st5"/><circle cx="218.5" cy="189.7" r="8.2" class="st6"/><path id="path849-9-5" d="M256.1 273.5c-9.3 0-18-3.9-24-10.7-2.7-3-2.3-7.6.7-10.3 3-2.7 7.6-2.3 10.3.7 3.2 3.6 7.9 5.7 13 5.7s9.8-2.1 13-5.7c2.7-3 7.3-3.3 10.3-.7 3 2.7 3.3 7.3.7 10.3-6 6.9-14.7 10.7-24 10.7z" class="st4"/><path d="M315.9 58.7c-36.6-1.2-73.2-1.3-109.9-.3h-.6c-.1-2.5.1-5 .4-7.4.1-1.1.3-2.2.6-3.2.2-1.2.5-2.5.9-3.7 0-.1.1-.2.1-.3.3-1.1.6-2.2 1.1-3.3.3-.8.6-1.5.9-2.3 1.1-2.4 2.4-4.9 4-7.3 1.4-2.1 3-4.1 4.8-6.1 2.3-2.6 5-5 8.1-7.3 6.7-5 16.3-9.7 29.1-10.9 17-1.5 31 4.6 39.3 10.8 3.3 2.5 6.2 5.1 8.6 7.8 1.8 2 3.4 4.1 4.7 6.2 1.6 2.4 2.9 4.9 3.9 7.3.3.7.6 1.4.8 2.1h.1c.5 1.1.8 2.2 1.1 3.3.1.2.1.3.2.5.4 1.1.6 2.3.8 3.4.3 1.1.5 2.2.6 3.3.3 2.4.4 4.9.4 7.4z" style="fill:#dbb640"/><path d="M339.6 59.2c-11.1-1.5-22.3-2.6-33.6-3.5-30.1-2-60.2-2.2-90.4-.6h-.5c-18.3 1-36.6 2.8-54.6 6-9.4 1.7-18.9 3.8-27.8 7.3-3.9 1.6-10.6 4.6-11.2 9.5v.1c-.4.5-.1 2.2.2 3.4.1.4.2.8.3 1.1h.8l264.4 1.6h2.1c.2-.7.4-1.4.6-2 .1-.2.1-.5.2-.7.2-.6.5-1.3.7-1.7 4.5-12.7-44.2-19.6-51.2-20.5zm46.1 21.3 1.5 3.6-264.4-1.6h-.8c.1.4.2.9.3 1.3.3 1 .5 2 .9 3 .8 2.8 1.7 5.6 2.6 8.4 2.8 8.3 5.8 16.6 8.9 24.8.1-.2.3-.5.5-1 .8-2.1 4.8-4 6.9-4.8 7.8-3.1 16.2-4.8 24.4-6.1 11.4-1.8 22.8-3.1 34.3-3.9 29.4-2.2 59-2.6 88.4-1.4 18.9.8 37.7 2.2 56.4 5.2 4.7.7 9.4 1.7 14.1 2.7 4.5 1 9 2.3 13.2 4.3 2.2 1 4.4 2.3 5.3 4.6l.1.1c.1 0 .1 0 .2.1l6.6-21.7 1.6-5.3 1.7-5.6.9-3c-1-1.6-2.2-2.7-3.6-3.7z" style="fill:#deb026"/><path d="M308 31.3c-31.2-4.4-63.3-4.5-94.5-.5 1.4-2.1 3-4.1 4.8-6.1 28.2-3.2 56.9-3.1 85.1.4 1.7 2 3.2 4.1 4.6 6.2zM311.9 38.6c-2.5-.4-4.5-.6-6-.8-31.9-4.2-64.5-4-96.4.4-.3.8-.6 1.5-.9 2.3-.5 1.1-.8 2.2-1.1 3.3 0 .1-.1.2-.1.3 2.6-.4 4.5-.6 5.8-.8 33.8-4.4 67.4-4 101 1.3l-2.3-6z" class="st9"/><path d="m108.6 53.6-.2.1v-.1zM123.5 80.6l-.3.9-.4 1-.5 1.3c-.1-.4-.2-.9-.3-1.3-.1-.2-.2-.6-.3-1.1l1.8-.8z" class="st10"/><path d="M391.2 79.6c-.2.5-.5 1.1-.7 1.7-.1.2-.1.5-.2.7-.2.7-.4 1.4-.6 2-1-1.4-2.2-2.6-3.6-3.6-1.3-1-2.8-1.8-4.4-2.5-3.1-1.5-6.6-2.7-10.4-3.9-4.9-1.4-9.8-2.6-14.8-3.6-17.8-3.5-35.9-5.4-54-6.6-32.5-2.1-65.9-2-97.8.3-13 .9-26.2 2.3-39 4.3-9.9 1.6-19.8 3.6-29.3 6.7-4.6 1.5-9 3.3-12.8 6.3-.4.3-.8.6-1.2 1-.1-.2-.2-.6-.3-1.1-.3-1.2-.6-2.8-.2-3.4v-.1c.5-4.9 7.2-7.9 11.2-9.5 8.9-3.5 18.4-5.7 27.8-7.3 18-3.2 36.3-5 54.6-6h.5c30.1-1.6 60.3-1.4 90.4.6 11.2.8 22.4 1.9 33.6 3.5 7 1 55.6 7.9 51.2 20.5z" class="st9"/><path d="m139.3 73.2-4.7 12.5L122 81z" class="st9"/><path d="M157 69.5 150 81l-11.4-7z" class="st9"/><path d="m175 66.5-7.6 11.1-11.1-7.6z" class="st9"/><path d="m193 64.5-8 10.7-10.8-8z" class="st9"/><path d="m211 63-8.6 10.2-10.3-8.6z" class="st9"/><path d="m229 62.2-8.9 10-10.1-8.9z" class="st9"/><path d="m247 62.3-9.3 9.7-9.7-9.3z" class="st9"/><path d="m265.8 61.7-9.3 9.7-9.7-9.2z" class="st9"/><path d="m283.8 62.8-9.7 9.3-9.3-9.7z" class="st9"/><path d="m302.2 63.1-9.9 9.1-9.1-9.9z" class="st9"/><path d="m320.1 64.8-10.3 8.6-8.6-10.4z" class="st9"/><path d="m337.7 67-10.3 8.5-8.6-10.3z" class="st9"/><path d="m355.7 70.1-11 7.7-7.7-11.1z" class="st9"/><path d="m373.6 74.6-11.7 6.6-6.7-11.6z" class="st9"/><path d="m388.8 80.7-12.4 5.1-5.1-12.4z" class="st9"/><path d="M389.9 82.1c-.2.7-.4 1.4-.6 2l-.9 3-1.2-3-1.5-3.6-.1-.2 4.3 1.8z" class="st9"/><path d="M256.5 109.1c-19.7 0-37.1 2-47.4 4.9v3c8.3-2.7 26.4-4.5 47.4-4.5 22.6 0 41.8 2.1 49.1 5.1v-3.1c-9.9-3.2-28.2-5.4-49.1-5.4z" style="fill:#8b5f44"/><path d="M289.2 102.7c-26.7-1.1-53.4-.9-80.1.8V117c8.3-2.7 26.4-4.5 47.4-4.5 22.6 0 41.8 2.1 49.1 5.1v-14c-5.4-.4-10.9-.7-16.4-.9z" class="st0"/><path d="M256.1 401.1v105.5h-62.2l-22-95.9-2.2-9.6z" style="fill:#8d562a"/><path d="M256.1 391.5v19.2H171.9c-3.8-.3-6.9-3.5-6.9-7.5V399c0-4.1 3.4-7.5 7.5-7.5h83.6z" style="fill:#734523"/><path d="M256.1 401.1v105.5h62.2l22-95.9 2.2-9.6z" style="fill:#804e26"/><path d="M256.1 391.5v19.2H340.3c3.8-.3 6.9-3.5 6.9-7.5V399c0-4.1-3.4-7.5-7.5-7.5h-83.6z" style="fill:#6e4221"/></svg>