<svg xmlns="http://www.w3.org/2000/svg" xml:space="preserve" id="Layer_1" x="0" y="0" style="enable-background:new 0 0 375 375" version="1.1" viewBox="0 0 375 375"><style>.st0{fill:#00d9e9}.st1{fill:#94f4ff}.st2{fill:#58956d;enable-background:new}.st3{fill:#7dd49b}.st4{opacity:.13}.st6{fill:#bee9cd}.st7{fill:#4b3f4e}.st8{fill:#5d5360}.st9{fill:#fff}</style><path d="M187.5 194.5c-97.6 0-176.8 14.4-176.8 32.2 0 17.8 79.2 32.2 176.8 32.2s176.8-14.4 176.8-32.2c0-17.8-79.2-32.2-176.8-32.2zm0 59.9c-92.3 0-167.2-12.4-167.2-27.7 0-15.3 74.9-27.7 167.2-27.7s167.2 12.4 167.2 27.7c0 15.3-74.9 27.7-167.2 27.7z" class="st0"/><path d="M345 226.7c0 12.8-70.5 23.2-157.5 23.2S30 239.5 30 226.7c0-12.8 70.5-23.2 157.5-23.2 55.2 0 103.8 4.2 131.9 10.5 1.1.2 2.2.5 3.3.8 1.9.5 3.7.9 5.3 1.4 1.6.5 3.1 1 4.5 1.4.4.2.8.3 1.2.4.3.1.6.2 1 .4 6.6 2.6 10.3 5.4 10.3 8.3z" class="st0"/><ellipse cx="111.4" cy="217.9" class="st0" rx="36.4" ry="6.4"/><path d="M110.5 214.1c-21.9 0-39.7 1.7-39.7 3.8 0 2.1 17.8 3.8 39.7 3.8s39.7-1.7 39.7-3.8c0-2.1-17.8-3.8-39.7-3.8zm0 7.1c-20.8 0-37.6-1.5-37.6-3.3 0-1.8 16.8-3.3 37.6-3.3s37.6 1.5 37.6 3.3c0 1.8-16.9 3.3-37.6 3.3z" class="st1"/><path d="m93.1 136.6-26.5-11.7 19.7-16.3c2.2-1.8 5.5-.4 5.6 2.5l1.2 25.5z" class="st2"/><path d="m109.1 151.7-22.7-18 23.1-10.8c2.6-1.2 5.4 1.1 4.8 3.8l-5.2 25z" class="st2"/><path d="M154.8 217.1c-.2-.2-.4-.4-.7-.5-4.5-2.7-22.3-4.8-43.6-4.8-24.7 0-44.7 2.7-44.7 6.1 0 3.4 20 6.1 44.7 6.1 20.1 0 37.1-1.8 42.7-4.3.4-.2.7-.3.9-.5.4-.3.8-.6.9-.8.1-.1.1-.2.1-.4v-.1c.1-.3-.1-.5-.3-.8zm-44.3 6.1c-23.3 0-42.2-2.3-42.2-5.3 0-2.9 18.9-5.2 42.2-5.2 21.5 0 39.3 2 41.9 4.6.2.2.3.4.3.7 0 .4-.3.7-.9 1.1-3.8 2.3-20.9 4.1-41.3 4.1z" class="st1"/><path d="M182.9 215.5c-14.4 0-26.3 1.1-27.8 2.5-.1.1-.1.2-.1.3v.1c.5 1.5 12.8 2.7 27.9 2.7 15.4 0 27.9-1.2 27.9-2.8 0-1.5-12.5-2.8-27.9-2.8zm0 5.2c-14.6 0-26.4-1.1-26.4-2.4s11.8-2.4 26.4-2.4c14.6 0 26.4 1.1 26.4 2.4s-11.8 2.4-26.4 2.4z" class="st1"/><path d="M182.9 213.8c-13 0-24.1 1.1-28.9 2.7-.7.2-1.2.5-1.6.7.2.2.3.4.3.7 0 .4-.3.7-.9 1.1.3.3.7.5 1.3.8 4.2 1.8 15.9 3 29.7 3 17.3 0 31.4-2 31.4-4.5.1-2.5-14-4.5-31.3-4.5zm0 8.3c-13.9 0-25.5-1.2-28.8-2.9-.6-.3-.9-.6-.9-.9 0-.4.5-.8 1.5-1.2 3.9-1.5 15.1-2.6 28.2-2.6 16.4 0 29.7 1.7 29.7 3.8s-13.3 3.8-29.7 3.8zM292.9 217.8c0-.1 0-.2.1-.3-.2-.1-.5-.2-.9-.4-3.7-1.1-15.2-2-28.7-2-16.6 0-30 1.2-30 2.8 0 1.5 13.4 2.8 30 2.8 13.8 0 25.4-.9 28.9-2 .4-.1.7-.3.9-.4-.3-.2-.3-.3-.3-.5zm-29.6 2.5c-15.7 0-28.4-1.1-28.4-2.4s12.7-2.4 28.4-2.4 28.4 1.1 28.4 2.4-12.7 2.4-28.4 2.4z" class="st1"/><path d="M296.4 217c-.1-.1-.3-.2-.5-.3-.3-.2-.6-.3-1-.4l-.9-.3c-5.4-1.5-17-2.6-30.6-2.6-18.6 0-33.8 2-33.8 4.5s15.1 4.5 33.8 4.5c13.9 0 25.8-1.1 31-2.7l.9-.3c.4-.2.7-.3 1-.5.2-.1.3-.2.4-.3.3-.2.4-.5.4-.7 0-.3-.3-.6-.7-.9zm-1.5 1.5c-.2.2-.5.3-.8.5-.2.1-.5.2-.9.3-4.5 1.5-16.2 2.5-29.9 2.5-17.6 0-31.9-1.7-31.9-3.8 0-2.1 14.3-3.8 31.9-3.8 13.4 0 24.9 1 29.6 2.4l.9.3c.3.1.6.3.8.4.2.1.4.3.5.5.1.1.1.2.1.2v.1c0 .1-.1.2-.3.4z" class="st1"/><path d="M332.5 217.6c-1.4-.5-2.9-1-4.5-1.4-3.5-.5-8.8-.9-14.7-.9-7.7 0-14.4.6-17.4 1.4-.5.1-.9.3-1.2.4.2.1.4.3.5.5.1-.2.5-.4 1.2-.6 2.7-.8 9.2-1.4 16.9-1.4 10 0 18.2 1 18.2 2.1s-8.2 2.1-18.2 2.1c-7.5 0-13.9-.5-16.7-1.3-.7-.2-1.2-.4-1.4-.6 0 .2-.1.3-.3.5.3.2.8.3 1.3.4 3.2.8 9.7 1.3 17.1 1.3 10.6 0 19.2-1.1 19.2-2.5 0 .1 0 .1 0 0z" class="st1"/><path d="M333.7 218.1c-.8 1.8-9.6 3.1-20.4 3.1-7.9 0-14.7-.7-18.1-1.8-.4-.1-.8-.3-1.2-.4-.5-.2-.8-.5-1-.7-.1-.2-.2-.3-.2-.5 0-.1 0-.2.1-.3.1-.2.4-.5.8-.7.3-.2.6-.3 1-.4 3.3-1.2 10.3-1.9 18.5-1.9 3.3 0 6.5.1 9.3.4-1-.3-2.1-.5-3.3-.8-1.9-.1-4-.2-6-.2-8.5 0-15.9.9-19.4 2.2-.4.2-.7.3-1 .5-.4.2-.7.4-.9.6-.2.2-.3.5-.3.7 0 .3.2.6.5.9.2.2.6.4 1 .6.3.1.7.3 1.1.4 3.7 1.2 10.8 2.1 19 2.1 10.8 0 19.7-1.4 21.3-3.3-.2-.3-.5-.4-.8-.5z" class="st1"/><path d="m122.1 171.9-16.2-24 25.3-3.3c2.8-.4 4.8 2.6 3.4 5.1l-12.5 22.2z" class="st2"/><path d="m129.5 193.5-12.4-26.2 25.5.6c2.8.1 4.4 3.3 2.6 5.6l-15.7 20z" class="st2"/><path d="m134.1 218.3-6.6-28.2 24.8 5.9c2.8.7 3.6 4.2 1.4 6l-19.6 16.3zM181.7 208.7l-6.3 9.6h-18.1l-4.3-7.4c-1.4-2.4.5-5.5 3.4-5.2l14.5 1.7 3.9.5 2.4.3 4.5.5z" class="st2"/><path d="m188.6 187.4-14.1 25.3-14.4-21.1c-1.6-2.3.2-5.5 3-5.4l25.5 1.2z" class="st2"/><path d="m207 177.1-24 16.2-3.4-25.3c-.4-2.8 2.6-4.8 5.1-3.4l22.3 12.5z" class="st2"/><path d="m227.7 178-29-.1 11.5-22.8c1.3-2.5 4.9-2.5 6.1 0l11.4 22.9z" class="st2"/><path d="m246.8 186.9-26.3-12.1 19.9-16c2.2-1.8 5.5-.3 5.6 2.6l.8 25.5z" class="st2"/><path d="m261.2 203.4-20.3-20.7 24.3-7.8c2.7-.9 5.2 1.7 4.3 4.4l-8.3 24.1z" class="st2"/><path d="m268.5 218.3-1.1-2.1-8-14.7-2.9-5.2-.3-.6 7.8-.3 17.7-.6c2.8-.1 4.6 3.1 2.9 5.4l-11 15.8-1.6 2.3h-3M310.4 208.5l-.4.6-6.2 9.2h-7.9l-4.8-8.6c-.9-1.7.4-3.7 2.3-3.4l10 1.3 4.2.5 2.8.4z" class="st2"/><path d="m320 201.5-15.5 11.8-3.2-16.9c-.4-1.9 1.6-3.3 3.3-2.5l15.4 7.6z" class="st2"/><path d="m332.5 196-18.1 7.3 1.4-17.1c.2-1.9 2.4-2.8 3.8-1.6l12.9 11.4z" class="st2"/><path d="m343.3 198.5-16-1.8 7.7-11.9c.9-1.3 2.9-1.1 3.4.4l4.9 13.3z" class="st2"/><path d="m354.7 201.8-13.7-4.5 9-9c1-1 2.7-.4 2.9 1l1.8 12.5z" class="st2"/><path d="m364.5 204.4-11.6-2 6.2-8.3c.7-.9 2.1-.7 2.5.4l2.9 9.9zM371.1 201.2l-6.8 1.9 1.1-6.1c.1-.7 1-.9 1.4-.4l4.3 4.6zM268.5 218.3H262l-1-1.9 6.4-.2h.9l5.4-.2 12.9-.4c1.8-.1 3.2 1.2 3.5 2.8h-21M145.7 218.3H131l-.9-3.7 3.3.8.8.2 2.4.6z" class="st2"/><path d="M134.5 217.9c-.1-.8-.2-1.6-.3-2.3-1.1-7.3-2.6-14.7-4.7-22.1-.3-1-.6-2.1-.9-3.1-2.2-7.2-4.9-14.2-8.2-20.9-.3-.7-.7-1.4-1.1-2.1-2.9-5.7-6.3-11-10.1-16-.9-1.2-1.9-2.4-2.9-3.5-3.9-4.6-8.4-8.7-13.2-12.3-1.4-1-2.9-2-4.4-2.9-4.5-2.8-7.5-4.8-12.8-6.6 0 0-2.2-.7-3.2-1.3-.8-.5-2.1-1.1-3.7-1.8-3.1-1.2-7.6-2.6-13.9-3.3-3.6-.4-6.7-.6-9.2-.6-7.1-.1-10 1-10 1-14.7 5.9-25.2 15.7-31.3 29.4-.9 2-1.6 3.9-2 5.7-5.8 23 24.4 26.7 41.3 25.6l11-1.4 4.5-.4 4.3-.4h.5c.8-.1 1.7.4 2.1 1.1 5.6 10.4 8.8 21.6 9.7 33.5l.5 5.2h58.1c0-.2-.1-.4-.1-.5zM269 218.3h-31.8c-3.1-3.8-7.1-6.4-12-7.8-6.3-1.8-11.8-.3-16.5 4.5-1.3.9-2.6 2-3.7 3.3h-33.9c.6-2.4 1.4-4.8 2.3-7.2.4-1.1.8-2.2 1.3-3.3 1.2-2.8 2.6-5.6 4.2-8.4 1.3-2.3 2.7-4.4 4.1-6.3 1.5-2.1 3.1-4 4.8-5.7 4.2-4.3 8.9-7.5 14-9.5h.1c1.4-.5 2.7-1 4.2-1.3 5.2-1.3 10.9-1.5 17-.6 1.4.2 2.8.5 4.2.8 1.4.3 2.7.7 4.1 1.1 2.5.8 6.3 2.8 10 5.2 1.9 1.2 3.7 2.5 5.4 3.8 1.6 1.2 2.9 2.3 4 3.3 2.1 2 4.1 4 5.9 6.2 1.8 2.1 3.4 4.3 4.9 6.6 2.7 4.1 5 8.6 6.8 13.3.1.6.3 1.3.6 2zM372.9 203c0 .2-.1.3-.2.4-.9 1.7-2.2 3.1-3.8 4.1-3.7 2.3-13.6 1.1-19.2.9h-1.6c-9.9-1-15.6 3.5-21.5 10h-28.2c1.7-2.4 3.6-4.7 5.6-6.8 1.1-1.2 2.3-2.3 3.5-3.4 2.2-2 4.5-3.7 6.9-5.3 1.2-.8 2.4-1.5 3.6-2.2 1.3-.8 2.7-1.5 4.1-2.1 1.7-.8 3.5-1.4 5.4-1.7 1.4-.2 2.8-.4 4.2-.4 3-.1 6.2.3 9.4.9.6.1 1.3.2 1.9.4 3.8.8 7.6 2 11.1 3.2.2.1.3.1.5.2 1.8.6 3.5 1.2 5.1 1.8 1.5.5 3 .6 4.4.3h.2c.2-.1.4-.1.6-.2 1.5-.5 3-1.4 4.5-2.9h.7c.5 0 .9.1 1.3.2 1.2.2 1.8 1.4 1.5 2.6z" class="st3"/><circle cx="93.1" cy="152.5" r="3.7" class="st4"/><circle cx="98.2" cy="170" r="3.7" class="st4"/><circle cx="198.3" cy="205.7" r="3.7" class="st4"/><circle cx="230" cy="191.2" r="3.7" class="st4"/><circle cx="210.6" cy="188.9" r="3.7" class="st4"/><circle cx="322.9" cy="209.4" r="3.7" class="st4"/><circle cx="334.5" cy="202" r="2.9" class="st4"/><path d="M110.5 212.8c0 1.9-.2 3.7-.5 5.5H76.5l-.5-5.2c-.9-11.9-4.1-23-9.7-33.5-.4-.8-1.2-1.2-2.1-1.1h-.5c2.5-.5 5.1-.7 7.8-.7 21.5.1 39 15.7 39 35z" style="fill:#bee9cd;enable-background:new"/><path d="M243.5 218.3h-6.3c-3.1-3.8-7.1-6.4-12-7.8-6.3-1.8-11.8-.3-16.5 4.5-1.3.9-2.6 2-3.7 3.3h-7.5c5.8-7.2 13.9-11.8 23-11.8 9 0 17.2 4.6 23 11.8zM349.8 208.4h-1.6c-9.9-1-15.6 3.5-21.5 10H325c1.8-7 8.4-12.1 16.3-12.1 3.1-.1 6 .7 8.5 2.1z" class="st6"/><path d="M41.8 130.9v3c0 2.5-2 4.5-4.5 4.5s-4.5-2-4.5-4.5v-3c0-2.3 1.7-4.2 3.9-4.5h.6c1.3 0 2.4.5 3.2 1.3.7.7 1.2 1.7 1.3 2.8v.4z" class="st7"/><path d="M41.7 130.5v3.3c0 1.4-1.2 2.6-2.6 2.6-1.4 0-2.6-1.2-2.6-2.6v-7.4h.6c1.3 0 2.4.5 3.2 1.3.9.7 1.3 1.7 1.4 2.8z" class="st8"/><circle cx="37.2" cy="129.8" r="2" class="st9"/><path d="M61.6 130.9v3c0 2.5-2 4.5-4.5 4.5s-4.5-2-4.5-4.5v-3c0-2.3 1.7-4.2 3.9-4.5h.6c1.3 0 2.4.5 3.2 1.3.7.7 1.2 1.7 1.3 2.8v.4z" class="st7"/><path d="M61.6 130.5v3.3c0 1.4-1.2 2.6-2.6 2.6-1.4 0-2.6-1.2-2.6-2.6v-7.4h.6c1.3 0 2.4.5 3.2 1.3.8.7 1.3 1.7 1.4 2.8z" class="st8"/><circle cx="57.1" cy="129.8" r="2" class="st9"/><path d="M59.4 177.6v1.3l-4.5.4-11 1.4c-16.9 1.1-47.1-2.5-41.3-25.6 5.5-2.2 12-3.4 18.8-3.4 21 0 38 11.6 38 25.9z" style="fill:#77c993"/><path d="M26.9 172.5c4.1 0 7.9-1.8 10.6-4.8 1.1-1.3 1-3.3-.3-4.4-1.3-1.1-3.3-1-4.4.3-1.5 1.7-3.6 2.7-5.8 2.7s-4.4-1-5.8-2.7c-1.1-1.3-3.1-1.4-4.4-.3-1.3 1.1-1.4 3.1-.3 4.4 2.4 3 6.3 4.8 10.4 4.8z" style="fill:#485358"/><path d="M54 100.4c1.3 0 2.2.5 2.6 1.4 1 2-1.9 3.3-4.1 2.2-.1-.1-.2 0-.3 0-1.6 1.4-3.1 2.9-4.5 4.4-.1.1-.1.2 0 .2 1.7 1.4 3.3 2.8 4.8 4.2.1.1.2.1.3 0 3.8-2.1 5.6 3.7 1.4 3.6-.1 0-.2.1-.2.2-.1 1.2-.7 1.8-1.9 2-2 .3-3.4-1.7-2.2-3.2.1-.1.1-.2 0-.2-1.5-1.3-3-2.6-4.6-3.9-.1-.1-.2-.1-.3 0-1.3 1.5-2.5 3-3.7 4.5-.1.1 0 .2 0 .2.1.1.2.2.3.2l.1.1c.8 1.4.2 3-1.6 3.2-1.3.1-2.1-.4-2.5-1.7 0-.1-.1-.2-.2-.1-1 .2-1.7-.1-2.3-.7-1.6-1.7.7-3.9 3-3.1.1 0 .2 0 .3-.1 1.2-1.6 2.5-3.2 3.8-4.8.1-.1.1-.2 0-.2-1.7-1.2-3.5-2.4-5.4-3.6-.1-.1-.2 0-.3 0-3.1 2.5-6.9-1.5-2.9-3.1h.1c.2 0 .4 0 .5-.1.1 0 .2-.1.2-.2-.6-2.7 4.6-3.6 5.2-1 .1.5 0 1-.4 1.4-.1.1 0 .2.1.2 1.8 1.1 3.6 2.3 5.3 3.6.1.1.2.1.3 0 1.4-1.5 2.8-2.9 4.3-4.3.1-.1.1-.2 0-.2-1.7-1.7.1-4 2.9-3.2 1.1.3 1.7 1 1.8 1.9-.1.1 0 .2.1.2z" style="fill:#efedee"/><path d="M83 113.2c-.7-.4-1.2-.7-1.7-.8-8.5-2.2-11.3-7.3-17.1-12.3-5-4.3-11.6-6.2-19.1-6-1.4.1-2.8.2-4.3.4-7.6 1.1-13.5 4-17.3 9.2-1.4 2-2.7 4-4 6-1.6 2.6-3.7 4.7-6.5 6.5-1 .6-2.1 1.1-3.1 1.7-4.2 2.3-1.2 4.7.9 5.9 2.2 1.3 4.8 2.7 7.6 4.6.3.2.7.4 1 .7 1.9-.8 3.8-1.6 5.7-2.3h.1c1.3-.5 2.7-.9 4.1-1.3 1.8-.5 3.5-1 5.3-1.4 7.6-1.7 15.4-2.2 23.3-1.6 1.7.1 3.5.3 5.2.6 1.5.2 2.9.5 4.4.7 2.1.4 4.3.9 6.3 1.5.1-.1.9-.9 1-.8v-.1s0-.1.1-.1l6-4.8c1.8-1.4 5.4-4.1 2.1-6.3zm-35.2-4.5c1.7 1.4 3.3 2.8 4.8 4.2.1.1.2.1.3 0 3.8-2.1 5.6 3.7 1.4 3.6-.1 0-.2.1-.2.2-.1 1.2-.7 1.8-1.9 2-2 .3-3.4-1.7-2.2-3.2.1-.1.1-.2 0-.2-1.5-1.3-3-2.6-4.6-3.9-.1-.1-.2 0-.3 0-1.3 1.5-2.5 3-3.7 4.5-.1.1 0 .2 0 .2.1.1.2.2.3.2l.1.1c.8 1.4.2 3-1.6 3.2-1.3.1-2.1-.4-2.5-1.7 0-.1-.1-.2-.2-.1-1 .2-1.7-.1-2.3-.7-1.6-1.7.7-3.9 3-3.1.1 0 .2 0 .3-.1 1.2-1.6 2.5-3.2 3.8-4.8.1-.1.1-.2 0-.2-1.7-1.2-3.5-2.4-5.4-3.6-.1-.1-.2 0-.3 0-3.1 2.5-6.9-1.5-2.9-3.1h.1c.2 0 .4 0 .5-.1.1 0 .2-.1.2-.2-.6-2.7 4.6-3.6 5.2-1 .1.5 0 1-.4 1.4-.1.1 0 .2.1.2 1.8 1.1 3.6 2.3 5.3 3.6.1.1.3 0 .3 0 1.4-1.5 2.8-2.9 4.3-4.3.1-.1.1-.2 0-.2-1.7-1.7.1-4 2.9-3.2 1.1.3 1.7 1 1.8 1.9 0 .1.1.2.3.2 1.3 0 2.2.5 2.6 1.4 1 2-1.9 3.3-4.1 2.2-.1-.1-.2 0-.3 0-1.6 1.4-3.1 2.9-4.5 4.4-.3 0-.3.1-.2.2z" style="fill:#4f007f"/><path d="M13.2 116c.3.4.6.9.9 1.4 1.1 1.7 3.3 3.2 5 4.4 2.2 1.5 4.3 3.1 6.3 4.7-1.9.7-3.8 1.4-5.7 2.3-.3-.2-.7-.4-1-.7-2.9-1.8-5.5-3.3-7.6-4.6-2.2-1.3-5.1-3.6-.9-5.9.9-.5 2-1.1 3-1.6z" style="fill:#39005c"/></svg>