<svg xmlns="http://www.w3.org/2000/svg" xml:space="preserve" id="Layer_1" x="0" y="0" style="enable-background:new 0 0 512 512" version="1.1" viewBox="0 0 512 512"><style>.st1{opacity:.1;enable-background:new}.st4{fill:#fff}.st6{fill:#414b58}.st7{fill:#898989}.st8{fill:#ff8b3f}.st10{fill:#f2d961}.st11{opacity:8.000000e-02}.st13{opacity:.1}</style><path d="M381.9 361.1c0-77.6-57.5-140.6-128.4-140.6s-128.4 62.9-128.4 140.6S182.6 472 253.5 472s128.4-33.2 128.4-110.9z" style="fill:#596675"/><path d="M381.9 361.1c0-77.6-57.5-140.6-128.4-140.6s-128.4 62.9-128.4 140.6S182.6 472 253.5 472s128.4-33.2 128.4-110.9z" class="st1"/><path d="M253.5 301.4c-46.4 0-84.1 40.9-84.1 91.3 0 29.6 13 55.9 33.1 72.6 15.6 4.5 32.9 6.7 51 6.7s35.4-2.2 51-6.7c20.1-16.7 33.1-43 33.1-72.6 0-50.5-37.6-91.3-84.1-91.3z" style="fill:#a08080"/><path d="M235.2 222c-62.2 9.8-110.1 68.3-110.1 139.1 0 77.6 57.5 110.9 128.4 110.9 5.4 0 10.8-.2 16-.6C135.2 459 189.4 265.5 235.2 222z" class="st1"/><path d="M385.8 216.1c-22.2 12.9-47.5 19.7-73.2 19.7H194.4c-25.7 0-51-6.8-73.2-19.7-7.9-4.6-17.5 2.5-15.4 11.4 4.1 17.7 13.9 34.3 32.3 42.3-6 10.2-9.4 22-9.4 34.7 0 38 30.8 68.7 68.7 68.7 23.2 0 43.6-11.5 56.1-29 12.5 17.6 32.9 29 56.1 29 38 0 68.7-30.8 68.7-68.7 0-12.7-3.4-24.5-9.4-34.7 18.4-8 28.1-24.6 32.3-42.3 2.1-8.9-7.5-16-15.4-11.4z" style="fill:#755959"/><circle cx="197.4" cy="304.5" r="43.5" class="st4"/><circle cx="309.6" cy="304.5" r="43.5" class="st4"/><path d="m263.3 319.8 14.7 15.1c2.6 2.7 3 7 .8 10.1L257 376.6c-1.6 2.4-5.2 2.4-6.8 0L228.3 345c-2.2-3.1-1.8-7.4.8-10.1l14.7-15.1h19.5z" class="st1"/><path d="m243.8 319.8-10 9c-3.2 2.9-3.8 7.6-1.5 11.2l16.8 26.2c2 3.2 6.7 3.2 8.7 0l16.8-26.2c2.3-3.6 1.7-8.3-1.5-11.2l-10-9c-5.4-5-13.8-5-19.3 0z" style="fill:#fbdd56"/><path d="M252.7 316.1c-3.2.2-6.4 1.4-8.9 3.7l-10 9c-3.2 2.9-3.8 7.6-1.5 11.2l16.8 26.2c1.3 2 3.5 2.7 5.5 2.2-5.5-9.9-4.5-42.2-1.9-52.3z" class="st1"/><path d="M198 312.4c-2.6 0-4.6-2.1-4.6-4.6v-9.4c0-2.6 2.1-4.6 4.6-4.6s4.6 2.1 4.6 4.6v9.4c0 2.5-2.1 4.6-4.6 4.6zM309.1 312.4c-2.6 0-4.6-2.1-4.6-4.6v-9.4c0-2.6 2.1-4.6 4.6-4.6 2.6 0 4.6 2.1 4.6 4.6v9.4c0 2.5-2.1 4.6-4.6 4.6z" class="st6"/><path d="M33.5 472.6h440v39.5h-440v-39.5z" class="st7"/><path d="M136.7 372.7v100H33.5c9.6-60.2 41.5-96.2 103.2-100zM370.4 372.7v100h103.1c-9.6-60.2-41.5-96.2-103.1-100z" class="st8"/><path d="M343.3 502c-59 14.4-120.6 14.4-179.6 0-15.8-3.8-27-17.9-27.1-34.2v-54.6c0-15.5 12.6-28.1 28.1-28.1h177.6c15.5 0 28.1 12.6 28.1 28.1v54.6c-.1 16.3-11.2 30.4-27.1 34.2z" style="fill:#afaeac"/><path d="M253.5 385.1h-61.2v22.4c1.7 38.4 29.1 57.3 61.2 55.8 32.1 1.5 59.5-17.4 61.2-55.8v-22.4h-61.2z" class="st7"/><path d="M164.3 469.6c0 15.3-12.4 27.7-27.7 27.7S109 484.9 109 469.6c0-15.3 12.4-27.7 27.7-27.7s27.6 12.4 27.6 27.7zM398 470.6c-.6 15.3-13.4 27.2-28.7 26.6-15.3-.6-27.2-13.4-26.6-28.7.6-15.3 13.4-27.2 28.7-26.6 15.3.6 27.2 13.5 26.6 28.7z" class="st10"/><path d="M109 469.6c0 15.3 12.4 27.7 27.7 27.7v-55.4c-15.3 0-27.7 12.4-27.7 27.7zM342.7 469.6c0 15.3 12.4 27.7 27.7 27.7v-55.4c-15.3 0-27.7 12.4-27.7 27.7z" class="st11"/><path d="M244.5 106.2s4.9-67.6 84.3-86.2c15.8-3.6 31.1-8.8 45.7-15.7 4.5-2.4 10.2-.8 12.6 3.8.9 1.7 1.3 3.7 1 5.6-2.1 15.2-11.1 37.2-40.7 58.4-14.4 10.3-34 14.8-51.5 18-11.4 2.1-27 6.2-37.2 19.1l-14.2-3z" class="st8"/><path d="M404.1 253.4v70.8c-4.5 57.1-30.2 83.6-56.5 99.9-6.4 4-14.9 2-18.9-4.4-1.4-2.3-2.1-4.9-2.1-7.6l1-38.3c.2-6.6 2.5-13 6.7-18.1l13.8-16.9c6.2-7.6 9.7-17.2 9.6-27.1v-65.9c0-10.5-5.8-20.2-15-25.2l-91-49.1-91.1 49.1c-9.3 5-15 14.7-15 25.2v65.8c0 9.9 3.4 19.4 9.6 27.1l13.8 16.9c4.2 5.1 6.6 11.5 6.7 18.1l1 38.3c.2 7.6-5.8 13.9-13.4 14-2.7.1-5.3-.7-7.6-2.1-26.3-16.3-52-42.7-56.5-99.9v-70.8c0-84.1 68.2-152.3 152.3-152.3s152.6 68.3 152.6 152.5z" class="st7"/><path d="m400.1 211.8-12.6-34.4c-1.4-3.9-4.9-6.6-9-7-49.9-4.1-92.7-33.8-126.5-67.1-33.8 33.3-76.5 63-126.5 67.1-4.1.4-7.6 3.1-9 7L104 211.8c-2 5.6.9 11.8 6.5 13.9 1.1.4 2.2.6 3.4.6 54.7.9 105.8 27.4 138.1 71.5 32.3-44.1 83.5-70.6 138.2-71.5 6-.2 10.7-5.1 10.5-11.1.1-1.2-.2-2.3-.6-3.4z" style="fill:#c4c4c4"/><path d="M251.8 249.5c-5 0-9-4-9-9v-79.9c0-5 4-9 9-9s9 4 9 9v79.9c0 4.9-4 9-9 9zM209.2 225.4c-5 0-9-4-9-9v-34.8c0-5 4-9 9-9s9 4 9 9v34.8c0 5-4 9-9 9zM294.5 225.4c-5 0-9-4-9-9v-34.8c0-5 4-9 9-9s9 4 9 9v34.8c-.1 5-4.1 9-9 9zM167.1 214.7c-5 0-9-4-9-9v-8.3c0-5 4-9 9-9s9 4 9 9v8.3c0 4.9-4.1 9-9 9zM337.1 214.7c-5 0-9-4-9-9v-8.3c0-5 4-9 9-9s9 4 9 9v8.3c0 4.9-4 9-9 9z" class="st7"/><g class="st13"><path d="M420.6 426.5c-.6-.6-1-1.5-1-2.4l.2-12.4c0-1.9 1.6-3.4 3.5-3.4s3.4 1.6 3.4 3.5l-.1 9 9 .1c1.9 0 3.4 1.6 3.4 3.5s-1.6 3.4-3.5 3.4l-12.4-.2c-1-.1-1.8-.5-2.5-1.1zM389.2 418.5c-.6-.7-1-1.5-1-2.4l.2-12.4c0-1.9 1.6-3.4 3.5-3.4s3.4 1.6 3.4 3.5l-.1 9 9 .1c1.9 0 3.4 1.6 3.4 3.5s-1.6 3.4-3.5 3.4l-12.4-.2c-1-.1-1.8-.5-2.5-1.1zM427.7 458.1c-.6-.7-1-1.5-1-2.4l.2-12.4c0-1.9 1.6-3.4 3.5-3.4s3.4 1.6 3.4 3.5l-.1 9 9 .1c1.9 0 3.4 1.6 3.4 3.5s-1.6 3.4-3.5 3.4l-12.4-.2c-1-.1-1.8-.4-2.5-1.1z"/></g><g class="st13"><path d="M81.6 428.4c.6-.6 1-1.5 1-2.4l-.2-12.4c0-1.9-1.6-3.4-3.5-3.4s-3.4 1.6-3.4 3.5l.1 9-9 .1c-1.9 0-3.4 1.6-3.4 3.5s1.6 3.4 3.5 3.4l12.4-.2c1-.1 1.9-.5 2.5-1.1zM113 420.4c.6-.7 1-1.5 1-2.4l-.2-12.4c0-1.9-1.6-3.4-3.5-3.4s-3.4 1.6-3.4 3.5l.1 9-9 .1c-1.9 0-3.4 1.6-3.4 3.5s1.6 3.4 3.5 3.4l12.4-.2c1-.1 1.9-.4 2.5-1.1zM74.5 460c.6-.7 1-1.5 1-2.4l-.2-12.4c0-1.9-1.6-3.4-3.5-3.4s-3.4 1.6-3.4 3.5l.1 9-9 .1c-1.9 0-3.4 1.6-3.4 3.5s1.6 3.4 3.5 3.4l12.4-.2c1 0 1.9-.4 2.5-1.1z"/></g></svg>