<svg xmlns="http://www.w3.org/2000/svg" xmlns:xlink="http://www.w3.org/1999/xlink" xml:space="preserve" id="Capa_1" x="0" y="0" style="enable-background:new 0 0 512 512" version="1.1" viewBox="0 0 512 512"><style>.st0{fill:#b58c82}.st1{fill:#995d72}.st3{fill:#4a363a}.st4{fill:#fff}.st5{fill:#733d5a}.st6{fill:#f7e8d1}.st7{fill:#efd3ac}.st8{fill:#5d5d5d}.st9{fill:#909ca8}</style><path d="M375 215.4c-8.3-56.1-53.6-95.1-109.5-100.2h-14.1c-64.1 5-110.8 55.5-111.1 119.8-.1 25.4-.1 40.8 0 46.4.9 34.6 26.9 61.7 61.4 62.6.6 0 1.1.5 1.1 1.1v51.8c0 3.3.3 5.7.9 7.3 4.3 11.6 20.4 12.1 25.6 1 1-2.1 1.4-5 1.4-8.7 0-5-1.2-17.7 1.1-21.7s9.3-4 11.5.2c.6 1.2.9 3.2.9 5.8-.1 10-.1 16.1.1 18.4 1.2 19 27.9 18.9 27.8-1.4v-18.6c.2-10 13.8-10.4 13.8 1.4 0 7.1-1.3 19.4 1.6 25.3 6 12.2 26.4 7.8 26.3-5.5-.1-18.4-.1-36.9.1-55.3 0-.6.5-1.1 1.1-1.1 13.7-.4 25.8-4.5 36.2-12.4 12.2-9.3 20-21.1 23.3-35.6 1.1-4.7 1.6-11.9 1.6-21.6.1-19.3 1.6-40.9-1.1-59zM272.6 509.3c0 .9-.1 1.8-.1 2.6h-28.2c0-.9.1-1.8.1-2.6l-.1-28.2.1-20.3-.3-28.2c9.5-.5 19-.5 28.5 0-.4 9.4-.4 18.7 0 28.1-.5 6.8-.5 13.6 0 20.3-.6 9.5-.6 18.9 0 28.3zM133.8 512H106v-63.2c0-21.6 27.8-20.6 27.8-1.5V512z" class="st0"/><path d="m244 432.7.3 28.2c-23.1-.3-46.1-.3-69.1-.1-5.5.1-9.4-.3-11.4-.9-12.2-4-12.6-21.4-.5-26.1 1.8-.7 4.6-1.1 8.5-1.1H244zM272.5 432.7c23.5 0 46.9-.1 70.4-.1 5.4 0 9.3.5 11.7 1.6 8.6 3.9 10.3 15.3 3.9 22-3.1 3.2-7.3 4.8-12.5 4.7-24.5-.4-49-.5-73.5-.2-.4-9.2-.4-18.6 0-28z" class="st1"/><path d="M411 512h-28c0-21.5 0-43.1.1-64.6 0-10.1 8.8-16.9 18.8-13.8 7 2.2 9.1 8.5 9.1 15.8-.1 20.8.2 41.7 0 62.6z" class="st0"/><path d="m244.3 481.2.1 28.2h-69.6c-5.4 0-9.1-.4-11.2-1.1-12-4.2-12.2-21.4-.3-26 1.8-.7 4.7-1.1 8.5-1.1 24.1 0 48.3-.1 72.5 0zM272.6 481.2c25.1 0 50.1 0 75.2.1 9.9 0 16.9 8.5 14 18.5-2.1 7.2-8.7 9.5-16.1 9.5-24.4.2-48.8.2-73.1.1-.6-9.5-.6-18.9 0-28.2z" class="st1"/><path d="M188.9 185.2c-4.6 3-10.6-.8-10.6-6.4 0-2.2 2.5-5.7 3.9-7.9 7.2-11 16.3-20.3 27.1-27.9 3.8-2.7 9-5.7 12.6-3.8 3.6 1.9 5.1 6.4 3 9.8-.7 1.1-2.4 2.5-5 4.1-11 7-20 16-27 27-1.6 2.8-3 4.5-4 5.1z" style="fill:#d1b4ad"/><path d="M199.5 205.2c-19.2 0-34.7 15.5-34.7 34.7s15.5 34.7 34.7 34.7 34.7-15.5 34.7-34.7-15.5-34.7-34.7-34.7zM317.3 205.2c-19.2 0-34.7 15.5-34.7 34.7s15.5 34.7 34.7 34.7S352 259 352 239.9s-15.5-34.7-34.7-34.7z" class="st3"/><path d="M211.7 239.9c0 6.7-5.4 12.2-12.2 12.2-3.4 0-6.4-1.4-8.6-3.6-2.2-2.2-3.6-5.2-3.6-8.6s1.4-6.4 3.6-8.6c2.2-2.2 5.3-3.6 8.6-3.6 6.8 0 12.2 5.5 12.2 12.2zM329.5 239.9c0 6.7-5.4 12.2-12.2 12.2-3.4 0-6.4-1.4-8.6-3.6-2.2-2.2-3.6-5.2-3.6-8.6s1.4-6.4 3.6-8.6c2.2-2.2 5.3-3.6 8.6-3.6 6.8 0 12.2 5.5 12.2 12.2z" class="st4"/><path d="M247.7 275.1h.7c3.7 0 6.6 3 6.6 6.7V296c0 3.7-3 6.6-6.7 6.6h-.7c-3.7 0-6.6-3-6.6-6.7v-14.2c.1-3.6 3.1-6.6 6.7-6.6zM268.6 275.1h.7c3.6 0 6.6 3 6.5 6.6l-.1 14.3c0 3.6-3 6.6-6.6 6.5h-.7c-3.6 0-6.6-3-6.5-6.6l.1-14.3c0-3.6 2.9-6.5 6.6-6.5z" class="st5"/><path d="M166.8 97.8c-5 7.9-8.7 16.5-11.2 25.7-16.7-4.3-30.3-13.2-40.9-26.8-2.5-3.2-4.4-6.5-5.6-10-8.2-22.6-6.3-47.9 7.1-68.4.3-.5.3-.8-.2-1 .6-.8 3.4-4.5 4.1-4.7.7-.2-1.4 3.6-1.5 3.9-4.7 12.7-7.2 25.7-5.9 38.8 1.2 12.3 7.1 25.6 18.4 32 11.4 6.5 22.9 8.3 35.7 10.5z" class="st6"/><path d="M115.8 17.3c.5.2.5.6.2 1-13.4 20.4-15.3 45.8-7.1 68.4 1.3 3.5 3.1 6.8 5.6 10 10.6 13.5 24.2 22.5 40.9 26.8-2 8-3 16.4-3.1 25.1-10.3-2.5-19.9-6.5-28.8-12.1-21.7-13.5-31.8-34.3-31.4-59.6.4-21.7 10.3-42.9 23.7-59.6z" class="st7"/><path d="M392.8 74.3c-.6 1.4-1.3 2.7-2.1 4-8.7 14.8-21.1 25.4-37.1 31.9-3.7-8.8-8.5-16.8-14.5-24 12.3-3.9 23.5-7.1 34-15 1.4-1.1 2.8-2.3 4-3.6l15.7 6.7z" class="st6"/><path d="M410 81.7c-2.9 14.3-10.4 27-23 37.3-8.1 6.7-17.1 11.9-27 15.7-1.2-8.6-3.2-16.8-6.3-24.5 16-6.4 28.4-17.1 37.1-31.9.8-1.3 1.5-2.7 2.1-4l17.1 7.4z" class="st7"/><path d="M381.7 175.6c.2 3.1.3 6.3.3 9.4-.8.2-1.6.4-2.5.4l-240 15.7c-.9.1-1.7 0-2.6-.1-.4-3.1-.7-6.2-.9-9.3-.5-8.3-.4-16.4.3-24.3 6-65.1 53.1-117.2 113.5-121.2 60.4-3.9 113.9 41.7 128.3 105.4 1.9 7.7 3.1 15.8 3.6 24z" class="st8"/><path d="m389.7 163.4.7 10.9c.4 5.5-3.2 10.3-8.3 11.8-.8.2-1.6.4-2.5.4l-240 15.7c-.9.1-1.7 0-2.6-.1-5.2-.8-9.4-5.1-9.7-10.6l-.7-10.9c-.4-6 4-11.3 9.9-12.1.3 0 .6-.1.9-.1l240-15.7h.9c6 .1 11 4.7 11.4 10.7zM239.1 42.3l21.2-1.4c3.2-.2 5.9 2.2 6.1 5.3l7.4 113.2-32.7 2.1-7.4-113.2c-.2-3.1 2.2-5.8 5.4-6z" class="st9"/><defs><path id="SVGID_1_" d="M138.9 170.9h249v17h-249z" transform="matrix(.9979 -.0651174 .0651174 .9979 -11.125 17.535)"/></defs><clipPath id="SVGID_00000118373329928459007410000015905673789746581658_"><use xlink:href="#SVGID_1_" style="overflow:visible"/></clipPath><g style="clip-path:url(#SVGID_00000118373329928459007410000015905673789746581658_)"><ellipse id="_x3C_Grid_Repeat_x3E__00000079453162225097760570000012359940053444620184_" cx="143.8" cy="161.3" class="st8" rx="6.3" ry="6.2" transform="matrix(.9979 -.0651174 .0651174 .9979 -10.2 9.703)"/><ellipse id="_x3C_Grid_Repeat_x3E__00000143579813513634648120000008405384982609955243_" cx="171.8" cy="159.5" class="st8" rx="6.3" ry="6.2" transform="matrix(.9979 -.0651174 .0651174 .9979 -10.021 11.525)"/><ellipse id="_x3C_Grid_Repeat_x3E__00000159435930551997832840000014643807114733365432_" cx="199.8" cy="157.7" class="st8" rx="6.3" ry="6.2" transform="matrix(.9979 -.0651174 .0651174 .9979 -9.842 13.347)"/><ellipse id="_x3C_Grid_Repeat_x3E__00000181802158089351501830000000226855865599498389_" cx="145.3" cy="184.9" class="st8" rx="6.3" ry="6.2" transform="matrix(.9979 -.0651174 .0651174 .9979 -11.73 9.853)"/><ellipse id="_x3C_Grid_Repeat_x3E__00000118392803087613688880000012310695019380947599_" cx="173.3" cy="183" class="st8" rx="6.3" ry="6.2" transform="matrix(.9979 -.0651174 .0651174 .9979 -11.55 11.675)"/><ellipse id="_x3C_Grid_Repeat_x3E__00000128466806912963759090000000949060910579216817_" cx="201.4" cy="181.2" class="st8" rx="6.3" ry="6.2" transform="matrix(.9979 -.0651174 .0651174 .9979 -11.372 13.497)"/><ellipse id="_x3C_Grid_Repeat_x3E__00000057848750497701489110000018027144841151839127_" cx="229.4" cy="179.4" class="st8" rx="6.3" ry="6.2" transform="matrix(.9979 -.0651174 .0651174 .9979 -11.194 15.319)"/><ellipse id="_x3C_Grid_Repeat_x3E__00000038390928551531090960000000054119734650592903_" cx="257.4" cy="177.5" class="st8" rx="6.3" ry="6.2" transform="matrix(.9979 -.0651174 .0651174 .9979 -11.015 17.14)"/><ellipse id="_x3C_Grid_Repeat_x3E__00000009589802974544789030000000321974410968914571_" cx="285.5" cy="175.7" class="st8" rx="6.3" ry="6.2" transform="matrix(.9979 -.0651174 .0651174 .9979 -10.836 18.963)"/><ellipse id="_x3C_Grid_Repeat_x3E__00000116209021923756925650000003636609068942849671_" cx="313.5" cy="173.9" class="st8" rx="6.3" ry="6.2" transform="matrix(.9979 -.0651174 .0651174 .9979 -10.658 20.785)"/><ellipse id="_x3C_Grid_Repeat_x3E__00000101064860235871714420000002243702456533740443_" cx="341.6" cy="172.1" class="st8" rx="6.3" ry="6.2" transform="matrix(.9979 -.0651174 .0651174 .9979 -10.479 22.607)"/><ellipse id="_x3C_Grid_Repeat_x3E__00000023263349161428997830000009684258496605631413_" cx="369.6" cy="170.2" class="st8" rx="6.3" ry="6.2" transform="matrix(.9979 -.0651174 .0651174 .9979 -10.3 24.428)"/><ellipse id="_x3C_Grid_Repeat_x3E__00000167371754335570156280000006692403143805317535_" cx="259" cy="201.1" class="st8" rx="6.3" ry="6.2" transform="matrix(.9979 -.0651174 .0651174 .9979 -12.545 17.29)"/><ellipse id="_x3C_Grid_Repeat_x3E__00000163752656734401902190000005306314783766226844_" cx="287" cy="199.3" class="st8" rx="6.3" ry="6.2" transform="matrix(.9979 -.0651174 .0651174 .9979 -12.366 19.113)"/><ellipse id="_x3C_Grid_Repeat_x3E__00000155127603631211239170000004135895018615754144_" cx="315.1" cy="197.4" class="st8" rx="6.3" ry="6.2" transform="matrix(.9979 -.0651174 .0651174 .9979 -12.187 20.935)"/><ellipse id="_x3C_Grid_Repeat_x3E__00000155835433781666093400000012069602251734872966_" cx="343.1" cy="195.6" class="st8" rx="6.3" ry="6.2" transform="matrix(.9979 -.0651174 .0651174 .9979 -12.009 22.756)"/><ellipse id="_x3C_Grid_Repeat_x3E__00000143583381759472256240000012382684713853541020_" cx="371.1" cy="193.8" class="st8" rx="6.3" ry="6.2" transform="matrix(.9979 -.0651174 .0651174 .9979 -11.83 24.578)"/></g><defs><path id="SVGID_00000170968382378795211670000006581385362348290183_" d="M248 49.6h15.7v115.1H248z" transform="matrix(.9979 -.0651174 .0651174 .9979 -6.436 16.886)"/></defs><clipPath id="SVGID_00000049942835198683839520000000762987003733026485_"><use xlink:href="#SVGID_00000170968382378795211670000006581385362348290183_" style="overflow:visible"/></clipPath><g style="clip-path:url(#SVGID_00000049942835198683839520000000762987003733026485_)"><ellipse cx="250.9" cy="56.1" class="st8" rx="6.3" ry="6.2" transform="matrix(.9979 -.0651174 .0651174 .9979 -3.12 16.456)"/><ellipse cx="252.4" cy="79.6" class="st8" rx="6.3" ry="6.2" transform="matrix(.9979 -.0651174 .0651174 .9979 -4.65 16.606)"/><ellipse cx="254" cy="103.2" class="st8" rx="6.3" ry="6.2" transform="matrix(.9979 -.0651174 .0651174 .9979 -6.179 16.756)"/><ellipse cx="255.5" cy="126.7" class="st8" rx="6.3" ry="6.2" transform="matrix(.9979 -.0651174 .0651174 .9979 -7.709 16.906)"/><ellipse cx="257" cy="150.3" class="st8" rx="6.3" ry="6.2" transform="matrix(.9979 -.0651174 .0651174 .9979 -9.238 17.056)"/></g></svg>