<svg xmlns="http://www.w3.org/2000/svg" xml:space="preserve" id="Capa_1" x="0" y="0" style="enable-background:new 0 0 512 512" version="1.1" viewBox="0 0 512 512"><style>.st4{opacity:.3;enable-background:new}.st5{fill:#eaeaea}.st6{fill:#58956d}</style><path d="M391.7 117.3c-.1.4-.1.7-.2 1.1-5.3 30.2-7.2 60.9-5.6 91.4.5 9.5 1.4 19 2.6 28.5H203.4l4.8-29.1 3-18.4c1.2-7.1-3.6-13.8-10.7-14.9l-58.7-9.6c-21.8-3.6-38.9-18.5-46.2-37.8L92.5 118c-1.2-6.6-1.3-13.5-.2-20.5.2-1.3.5-2.7.8-3.9 2.1-9.1 6.3-17.3 11.9-24.2 1-1.2 2-2.3 3-3.4 8-8.4 18.4-14.4 29.8-17.1 5.3-1.2 9.8-4.5 12.9-9 18.8-27.7 52.6-43.5 87.8-37.7l80 13.1c48.4 8 81.1 53.6 73.2 102z" style="fill:#7dd49b"/><path d="M417.9 425.6c-25.9 39.7-63.9 68.5-112.8 79.9l-16.8-2.8c37.4 6.1 52.9-44.1 45.7-62.9-26.7-69.3-20-170.2-9.7-246.4 4.3-32.1 9.3-59.8 12.7-78.9.9-5.3 1.7-9.9 2.4-13.8.4-2.5.7-4.9.8-7.3.7-10.3-.8-19.9-3.8-28.7-3.6-10.7-9.2-20.3-15.6-28.2-12.6-15.7-28-25.4-35.5-26.7l33.3 5.5c3.9.6 7.8 1.5 11.5 2.7 21.4 6.5 38.9 20.6 50 38.8 1.3 2.2 2.6 4.4 3.7 6.7 8 16.1 11.2 34.7 8.1 53.8-.1.4-.1.7-.2 1.1-.8 4.6-1.5 9.2-2.2 13.9-.8 5.4-1.4 10.8-2 16.2-2 20.4-2.5 40.9-1.4 61.4.2 4.6.6 9.3 1 13.9.8 9 1.9 18 3.3 26.9l27.5 174.9z" style="opacity:5.000000e-02;enable-background:new"/><path d="M239.5 55.8c0 15.2-13 27.6-29 27.6s-29-12.4-29-27.6c0-.8 0-1.7.1-2.5 1.3-14.1 13.7-25.2 28.9-25.2s27.6 11.1 28.9 25.2c0 .8.1 1.6.1 2.5z" style="fill:#b0b0b0"/><path d="M239.3 53.3c-1.3 14.1-13.7 25.2-28.9 25.2s-27.6-11.1-28.9-25.2c1.3-14.1 13.7-25.2 28.9-25.2s27.6 11.1 28.9 25.2z" style="fill:#fff"/><ellipse cx="210.4" cy="55.7" rx="6.5" ry="6.2"/><path d="m379.9 56.8-43.6 8-12.2 2.2c-8.4 1.5-15-7.2-11.1-14.8l7.8-15.7L330 18c21.3 6.5 38.9 20.6 49.9 38.8zM399 53.3l-.7.1.6-.4zM383.6 63.5c8 16.1 11.2 34.7 8.1 53.8-.1.4-.1.7-.2 1.1-.8 4.6-1.5 9.2-2.2 13.9L338 115c-.4-.1-.8-.3-1.1-.5-7.1-3.3-8.1-13.3-1.4-17.9l4.6-3.2 43.5-29.9z" class="st4"/><path d="m399 53.3-.7.1.6-.4zM386.9 223.8 333 177.6c-6.5-5.6-3.8-16.1 4.5-18l49.9-11.1c-2.6 25-2.7 50.2-.5 75.3z" class="st4"/><path d="M458.6 274.2c0 32-4.3 62.4-12.7 90.3-.4 1.2-.7 2.4-1.1 3.6-6.6 20.9-15.6 40.3-26.9 57.6-25.9 39.7-63.8 68.5-112.8 79.9-.8.2-1.5.4-2.3.5-8.2 1.8-16.8 3.1-25.6 4h-.1c-6.8.6-13.9.9-21 .9-42.9 0-79.5-11.4-109.3-31.4-15-10.1-28.2-22.3-39.7-36.3-35.2-43-53.6-102.8-53.6-169 .1-28.1 3.2-56.2 9.2-83.7L79 177.9l44.3 34.1 44.2-34.1 40.7 31.4 3.6 2.8 13.7-10.6 9-6.9L256 178l44.2 34.1 24-18.5 20.2-15.6 41.5 32 2.8 2.2 44.3-34.1 16.5 12.7c5.9 27.3 9 55.3 9.1 83.4z" class="st5"/><path d="m112.9 115.8-8.2 5.9-9.3 6.7-2.9-10.4 6.3-4.5 8.2-6z" class="st6"/><path d="m98.782 113.493 8.184-5.92 16.765 23.171-8.183 5.92z" class="st6"/><path d="m109.638 128.449 23.172-16.765 5.92 8.183-23.171 16.765z" class="st6"/><path d="m124.643 117.566 8.183-5.92 16.766 23.171-8.183 5.92z" class="st6"/><path d="m135.48 132.66 23.172-16.765 5.92 8.184-23.171 16.765z" class="st6"/><path d="m150.486 121.778 8.183-5.92 16.765 23.17-8.183 5.921z" class="st6"/><path d="m161.34 136.739 23.171-16.765 5.92 8.183-23.171 16.765z" class="st6"/><path d="m176.264 125.914 8.183-5.92 16.765 23.172-8.183 5.92z" class="st6"/><circle cx="322.3" cy="84.9" r="7.1" class="st4"/><circle cx="304" cy="180" r="7.1" class="st4"/><circle cx="316.3" cy="162.2" r="7.1" class="st4"/><circle cx="309.2" cy="73.8" r="4" class="st4"/><circle cx="322.3" cy="103.2" r="3.2" class="st4"/><path d="M155.2 142.9h-.1zM155.2 142.9h-.1z" class="st6"/><path d="M155.2 142.9h-.1zM160.9 136.2l-5.1 4.1-5-6.3 5.6-4zM134.4 131.1l-5.7 4.5-4.2-5.3 6.1-4.4z" class="st5"/><path d="M114.6 81.9c0 7.3-6.5 13.3-14.5 13.3-2.5 0-4.9-.6-6.9-1.6 2.1-9.1 6.3-17.3 11.9-24.2 5.5 1.9 9.5 6.8 9.5 12.5z" class="st4"/><path d="M445.9 364.5c-.4 1.2-.7 2.4-1.1 3.6-7.8-4.2-15.7-8.9-26-7.7-2.9.3-6.1 1.5-9.2 2.1-1.7.4-2.6-.5-2.6-2.5.1-7-1-17-5.2-22.1-4.9-6.1-13-5.6-20.1-5-11.7 1-23.1 2.7-35.2 2.4-6.4-.2-7.6 5.5-8.5 10.8-.4 2.6-3 4.6-3.8 6.6-2.9 7.2 7.9 11.4 2.5 16-1.7 1.4-6.1 4.9-13.2 10.2-6.4 4.8-12.3 13.6-16.4 18.7-11.8 14.5-25.2 29.4-33.5 46.3-6.6 13.5-.9 22 7.2 33.1 6.2 8.5 8.9 16.2 5.8 26.6-.6 2.1.4 3.1 3.1 2.9 4.3-.3 8.6-.5 12.9-.5l-25.6 4h-.1l1.1-2.9c.7-1.9.1-2.8-1.7-3-3.8-.3-6.8-.4-11 .2-7.7 1.2-15.5.3-23.2-2.6-18.7-7.1-34.6-10.1-54.1-2.4-.3.1-.5 0-.6-.2v-.1c-.5-2 1.3-2.3 2.7-3 10.9-4.9 22.1-6.9 33.8-6 15.8 1.2 27.7 7.6 44.2 3.2 3.8-1 15.9.6 8.5-8.3-5.9-7.1-9.4-11.6-10.5-13.4-9.9-17-1.1-33.6 8.9-48.2 2.9-4.3 9.4-13 19.6-26.2 4.3-5.6 4-9.7-3.3-11.7-12.5-3.4-29.3-5.7-42.4-12.2-5.4-2.7-9.7-4.5-10.1-9.9-.1-2.1-1.2-3.3-3.2-3.8-9.4-2.2-19.4 1.7-29.9 3.8-16.5 3.4-24.3-6-32.8-18.4-5.7-8.2-15.6-3.5-23.1-1.9-25.6 5.6-49.8-2.1-71.4-16-1.5-1-2.5-3.3.6-2.5 5.4 1.4 11.3 3.3 17.7 5.8 15.2 5.7 31 6.8 46.9 3.5 18.8-3.9 30.4-12.4 44 7.9 7 10.5 11.9 9.5 23.7 6.9 4.5-1 9.4-2.7 13.6-3.1 8-.9 15.8.3 23.4 3.6 2.7 1.2 3.6 2.7 4 5.8.6 4.4 3.2 7.4 7.7 9.1 14.6 5.5 29.8 8.5 44.6 13.5.3.1.7.1 1 0 6.1-2.4 10.7-5.9 14-10.3 3.6-4.8-3.1-14.7-6.1-18.4-.4-.5-.7-1.3-.8-2.4 0-.3-.2-.6-.6-.7-1-.4-1.8-1.1-2.5-2.2-10-15-9.1-31.6-1.5-46.7.1-.3 0-.6-.3-.8-.1 0-.2-.1-.3-.1-11.8.2-22.3 5.9-32.8 10.7-.6.3-.8.1-.6-.6.6-1.8 1.2-3.4 2.4-5 6.1-7.9 11.5-16.3 16-25.2.5-.9.2-2-.7-2.5-5.2-3.5-10.9-6.3-17.1-8.4-6.2-2.1-7.7 1.1-13 2.7-5.1 1.5-11.2 1.5-13.8 7.8-3.9 9.4-9.4 17.6-16.7 24.7-3.4 3.3-5.5 6.8-1 10.3 1.3 1.1 2.2 3.2.7 4.2-9.1 6.2-16.8 11-22.1 20-.2.3-.5.5-.8.4-.8-.1-1-.6-.6-1.6 3.4-7.9 9.5-13.3 16.1-18.6 1.2-1 1.3-2 .3-3.2-4.3-4.8-2.4-9.2 1.3-13.9 8.1-10.3 12.9-17.3 14.9-30.5.4-2.8 2.3-4.7 5.6-5.5 13.4-3.5 24.3-8.7 31.6-21 .3-.5.1-1-.3-1.3-.1-.1-.2-.1-.3-.1-5.3-1.1-10.6-2.3-15.9-3.5-4.5-1-8.8-1.1-13.3-1.3-2-.1-2.5-.9-1.4-2.4 4.6-6.6 8.3-13.6 11.2-21 .3-.7-.1-1.5-.8-1.8-10-3.6-20.2-9-30.9-8.4l9-6.9c.1 0 .2.1.3.1 14.1 3.3 25.8 9.4 40 9.2.3 0 .6.2.7.5.3 1.3-.1 2.2-1 2.7-7.2 3.8-11.7 10-13.7 18.4-.2 1 .4 2 1.4 2.2h.1c10.2 2 19.5 4.7 30 4.1.4 0 .7.1 1 .3.9.7.9 1.7.1 2.8-4.7 6.3-9.2 12.5-13.6 18.5-1.1 1.5-.8 2.5.9 3.3l25.5 11.6c2.2 1 2.6 2.5 1.1 4.4-2.9 3.8-5.3 7.9-7.4 12.1-.2.4 0 .8.4 1 .1.1.2.1.4.1 7.7-.4 15.6-1.1 23.6-1.9 5.5-.6 7.9 1.2 3.3 6-12.1 12.3-18 30.4-7.4 45.8.9 1.3.9 2.3 1.5 3.7.1.2.4.3.6.2h.1c4-2.6 7.9-5.4 11.6-8.3 5.3-4.1-2.9-10.7-5.7-13.8-1.3-1.4-1.2-2.7.3-4 7.7-6.4 18.2-12.5 20.4-23.3 3.3-16.1 7-32.2 11-48.2.3-1.2 2.5-3.4 1.9-.3-2.7 13.6-4.8 27.3-6.5 41.1-1.2 9.7-2.8 17.2-9.1 23.5-2.8 2.9-7.5 6.2-7.3 10.1.6 9.6 35.3 6.5 41.8 6.2 20.5-.7 31.6 5 33.4 27.6.3 3.7 1.3 4.6 5 4.5 7.8-.2 15 1.9 21.5 6.1 1.7 1.8 3.5 3 5.2 4.2z" style="opacity:.16"/><circle cx="103.9" cy="263.2" r="24.8" class="st4"/><circle cx="417.9" cy="267.2" r="17.4" class="st4"/><circle cx="353.8" cy="410" r="17.4" class="st4"/><circle cx="137.1" cy="291.9" r="13.9" class="st4"/><circle cx="385.1" cy="385.1" r="13.9" class="st4"/><circle cx="141.4" cy="263.2" r="6.9" class="st4"/><circle cx="137.1" cy="397.6" r="6.9" class="st4"/><circle cx="155.9" cy="385.1" r="6.9" class="st4"/><circle cx="160.9" cy="414.7" r="12.7" class="st4"/></svg>