<svg xmlns="http://www.w3.org/2000/svg" xml:space="preserve" id="Layer_1" x="0" y="0" style="enable-background:new 0 0 375 375" version="1.1" viewBox="0 0 375 375"><style>.st1{fill:#adb0b3}.st2{fill:#9b9ea1}</style><path d="M375.1 213.8c-2.9 13.9-7.1 33-12.8 57-.2 1-.5 1.9-.8 2.8-2.4 7.4-6.9 12.4-13.6 14.8-2.9 1.1-7.8 1.6-14.6 1.7-12.3 0-24.6-.1-36.7-.3h-.8c-40.2.5-76.1.3-113.4.3-47.3 0-94.7 0-142-.1-3.5 0-6.9-.8-10.2-2.4-3.6-1.7-6.2-3.8-7.8-6.3-3.2-4.9-9.2-15.5-18.3-31.7-2.1-3.8-3.5-9-4.3-15.6v-5.8c.6-6.8 2.7-13.6 6.4-20.5 6.7-12.6 16.1-29.9 28-51.7 3.7-6.8 8.2-12.6 13.6-17.4 1.6-1.4 3.2-2.8 5-4 5.6-4 9.9-6.5 13-7.6 7.3-2.4 14.3-4.8 21-7 52-17.3 86.5-28.7 103.5-34.2 5.3-1.7 11.4-2.3 18.1-1.7 8.8 1 16.7 4.4 23.5 10.4 7.2 6.2 14.2 12.5 21.1 18.9 12 10.7 24 21.3 35.9 31.9 3.5 3.1 9.1 5.7 14.3 7.8 15.8 6.4 31.6 12.9 47.4 19.3 5.7 2.3 10.9 6.8 15.5 13.3 5 6.2 7.9 13.9 8.8 22.9l.2 5.2z" style="fill:#c1c4c7"/><path d="m70.7 221.7 25.7-16.2c2.8-1.8 3.6-5.4 1.9-8.2l-.1-.2c-1.8-2.8-5.4-3.6-8.2-1.9l-25.7 16.2c-2.8 1.8-3.6 5.4-1.9 8.2l.1.2c1.8 2.9 5.4 3.7 8.2 1.9zM213.5 186.3l24.7 5c3.2.6 6.3-1.4 6.9-4.6l.1-.4c.6-3.2-1.4-6.3-4.6-6.9l-24.7-5c-3.2-.6-6.3 1.4-6.9 4.6l-.1.4c-.7 3.2 1.4 6.3 4.6 6.9zM255.1 147c-.1 2.3-.2 4.7-.3 7l-.6 6.1-20 6.5c-3.3 1.1-6.7-.6-7.7-3.7l-.1-.4c-.9-3.1 1-6.5 4.3-7.6l24.4-7.9zM208.7 84.2c-6.7-.6-12.7 0-18.1 1.7-19.2 6.2-60.7 19.9-124.5 41.2-3.1 1-7.5 3.6-13 7.6 12.3 13.5 22.1 23.7 29.4 30.5 4.4 4 10.3 5.7 16.8 6.5 10.4 1.3 20.7 2.6 31.1 3.9 8 1 13.7 1.2 17.3.7 13.7-2.2 20.5-10.2 26.7-22.6 11.6-23.2 23-46.3 34.3-69.5z" class="st1"/><path d="M374.8 208.5c-.9-9-3.8-16.6-8.8-22.9-2.3-3.3-4.8-6-7.4-8.2-2.6-2.2-5.3-3.9-8.2-5.1-15.8-6.4-31.6-12.9-47.4-19.3-5.2-2.1-10.8-4.7-14.3-7.8C277 134.7 265 124 253 113.4c1.7 11.1 2.4 22.3 2.1 33.6l1.4-.4c3.3-1.1 6.8.6 7.7 3.7l.1.4c.9 3.1-1 6.5-4.3 7.6l-5.7 1.9-.9 9.4c-.4 5.4-1.3 9.4-2.6 16.3-7.2 37.2-23.8 73.1-52.5 98.6-.3.3-.8.3-1.1.1-33-16.2-66.2-32.5-99.6-48.8-5.4-2.6-9.7-4.2-12.9-4.7-15.7-2.6-29.3 5.5-36.4 19.4-7.5 14.9-13.5 27.3-18.1 37.3 3.3 1.6 6.8 2.4 10.2 2.4 47.3.1 94.7.1 142 .1 37.3 0 73.2.2 113.4-.3 12.3.3 24.8.4 37.4.3 6.8 0 11.7-.6 14.6-1.7 7.5-2.8 12.2-8.6 14.3-17.6 5.6-24.1 9.9-43.1 12.8-57l-.1-5.5z" class="st1"/><path d="m259.9 158.2-5.7 1.9.6-6.1c.1-2.3.2-4.7.3-7l1.4-.4c3.3-1.1 6.8.6 7.7 3.7l.1.4c.9 3-1.1 6.4-4.4 7.5zM375 213.8l-.1-5.3c-.9-9-3.8-16.6-8.8-22.9-24 5.7-48.1 10.8-72.2 15.3-13.4 2.5-19 16-15 28.6 4.5 14 10.1 34.1 16.9 60.2 12.3.3 24.8.4 37.4.3 6.8 0 11.7-.6 14.6-1.7 7.5-2.8 12.2-8.6 14.4-17.6 5.7-23.9 9.9-43 12.8-56.9z" class="st2"/><path d="M70.7 125.6c1.2.6 1 1.1 1.4 1.6 1.6 1.7 2.8 2.7 4.9 4.5 2.8 2.3 1.7 5.2-1.8 2.8-4.6-3.2-8.1-2.4-10.4 2.6-.4.9-.2 1.8.3 2.4l12.5 13.9c.8.9 1.3 1.9 1.3 2.8-.2 7.7-14-9.4-18-13.8-.9-1-2.1-1.4-2.6-1l-6.4 5.8c-.6.5-.4 1.7.5 2.6l.1.1c2 1.9 2.4 3.9 1.6 6.1-.3.8-1.4 1-2.4.5-.1-.1-.3-.2-.3-.2-1.8-1.4-3.7-2-5.8-2.1-1.1 0-2 .3-2.6 1-2.6 2.6-5.8 3.4-9.6 2.3 5.5-12.1 21.9-29.4 37.3-31.9z" style="fill:#7f8806"/><path d="M323.3 265.2c8.4 6.9 14.3 14.8 17.7 23.9-1.8.8-3.2.5-4.3-1-.4-.6-1.1-.7-1.6-.2l-.1.1c-1.7 2-3.8 2.7-6.2 1.8 14.5-15.7-10.1-16.9-17.3-18.6-4.5-1.1-6.6-3.4-8.9-7.4L290.8 243c-.8-1.5-1.9-2.5-3.1-2.9-3.3-1.2-5.4-2.3-6.2-3.4-.8-1-.4-1.5 1.1-1.4 11.4.5 34.2 7.6 38.4 21.5.7 3.1 1.6 5.9 2.3 8.4zm-14.5-17.7c-3.5-2.7-6.4-4.2-8.7-4.5-1.7-.2-3 .3-3.8 1.5-.5.7-.5 2 .1 3.2 4.4 9.5 11.9 22.2 21.7 20.5.8-.1 1.4-1 1.4-1.9 0-7.2-3.6-13.5-10.7-18.8z" style="fill:#8e9194"/><path d="M328.1 70.5c0-5.3-3.2-7.9-8.2-8.2-15.8-1.1-30.5 6.5-39.3 19.7-6.1 9-12.1 18.1-18.1 27.1-1 1.4-2.3 2.6-4 3.5-.1-5.5-.1-11.7.1-18.7 0-1.5 0-3-.2-4.4h.1c.2-11 .3-21.8.4-32.2.1-13.5-9.4-25.6-23.2-26.9-2.5-.2-5.2-.1-8 .3-15.9 2.3-26.5 5.1-39.5.6-4.5-1.6-9-3.1-13.6-4.7-7-2.8-13.4-4.6-20.6-2.5-9.5 2.7-15.6 8.7-18.4 17.9-.4 1.2-1.1 4.6-2.1 10.1-1.6 8.3-3.1 16.6-4.7 24.9l-4.3 22.4c-1.5-1-2.6-2.3-3.2-3.8-4.1-10-8.3-20-12.5-29.9-4.8-11.3-12.6-19.4-23.3-24.2-4.5-1.9-12.3-4.5-16.7-2.8-2.4.9-3.9 2.8-4.7 5.8l-.1.9c1.8 10.9 3.8 21.7 5.8 32.5 1.1 5.7 1.7 9.1 2 10.2 4.2 15.5 17.1 27.1 33 29.7 2.1.3 7.5.9 16.4 1.6 74.5 7.4 124.8 12.3 151 14.8 17.8 1.7 34.1-9.1 41-25.3 2.4-5.6 7.3-18.2 14.8-37.8l.1-.6z" style="fill:#9b6a57"/><path d="M174.5 26.6c-9.6 3.8-15.4 10.7-17.4 20.8-1.4 7.1-3.4 17.6-5.9 31.7l-.1.1-22.4-2.2c1.6-8.3 3.1-16.6 4.7-24.9 1-5.5 1.7-8.9 2.1-10.1 2.8-9.2 9-15.2 18.4-17.9 7.2-2.1 13.6-.2 20.6 2.5z" style="fill:#845a4a"/><path d="M258.4 89.6c.1 1.4.2 2.8.2 4.4-.2 7-.2 13.2-.1 18.7-1.6.6-3.1.9-4.5.7-35.8-3.5-71.6-7-107.3-10.5l4.4-23.6.1-.1c.1 0 .2 0 .3.1.2.1.4.1.5.2l106.4 10.1z" style="fill:#5c626b"/><path d="m128.6 77.1 22.4 2.2-4.4 23.6c-6-.6-11.9-1.2-17.9-1.8-1.6-.2-3.1-.7-4.4-1.7l4.3-22.3z" style="fill:#4e535b"/><path d="M361.5 273.6c-2.4 7.4-6.9 12.4-13.6 14.8-2.9 1.1-7.8 1.6-14.6 1.7-12.3 0-24.6-.1-36.7-.3-92.8-41-176.3-92.4-248.7-151.2 1.6-1.4 3.2-2.8 5-4 5.6-4 9.9-6.5 13-7.6 7.3-2.4 14.3-4.8 21-7 79.4 61.6 171.6 114.2 274.6 153.6z" style="fill:#77726f"/><path d="m192.8 187.4-21.4-14.2c-3.1-2.1-7.3-1.2-9.3 1.9L142.8 204c-2.1 3.1-1.2 7.3 1.9 9.3l21.4 14.2c3.1 2.1 7.3 1.2 9.4-1.9l19.2-28.9c2.1-3 1.2-7.2-1.9-9.3zm-5.8 11-13 19.5c-2.1 3.1-6.2 3.9-9.3 1.9l-12.3-8.1c-3.1-2.1-3.9-6.2-1.9-9.4l12.9-19.5c2.1-3.1 6.2-3.9 9.4-1.9l12.3 8.1c3.1 2.1 3.9 6.3 1.9 9.4z" style="fill:#54514e"/></svg>