<?xml version="1.0" encoding="utf-8"?>
<!-- Generator: Adobe Illustrator 27.6.1, SVG Export Plug-In . SVG Version: 6.00 Build 0)  -->
<svg version="1.1" id="Layer_1" xmlns="http://www.w3.org/2000/svg" xmlns:xlink="http://www.w3.org/1999/xlink" x="0px" y="0px"
	 viewBox="0 0 512 513" style="enable-background:new 0 0 512 513;" xml:space="preserve">
<style type="text/css">
	.st0{fill:#935632;}
	.st1{fill:#6A3C1D;}
	.st2{fill:#FFCC5B;}
	.st3{fill:#FDBC4B;}
	.st4{fill:#FFDB70;}
	.st5{fill:#FFE28D;}
	.st6{fill:#FF0000;}
	.st7{fill:#BD0C0C;}
	.st8{fill:#FFCE54;}
	.st9{fill:#E95454;}
	.st10{fill:#ED6362;}
	.st11{fill:#B58058;}
	.st12{fill:#8E6047;}
	.st13{fill:#94A6AD;}
	.st14{fill:#858C94;}
</style>
<path class="st0" d="M143.6,0h1.2c2.1,0.4,4.5,1.7,7,4c26.2,23.4,52.4,46.8,78.6,70.2c-3,2.4-5.8,5.1-8.4,8.3L118.6,37.3
	c6.1-11.3,12.2-22.2,18.2-32.8C138.3,1.9,140.5,0.4,143.6,0z"/>
<path class="st0" d="M368.3,0h1.2c3.1,0.5,5.3,2.1,6.8,4.8c6,10.9,12,21.7,18.1,32.5L290,82.7l-8.2-8.2
	c27.2-24.1,54.4-48.3,81.5-72.4C364.5,1,366.2,0.3,368.3,0z"/>
<path class="st1" d="M118.6,37.3L222,82.5c-3.4,4.8-5.9,9.9-7.5,15.2C197.2,97,180,97,162.8,97.5l-40-0.2l-18.2,0
	c-0.2,0-0.4,0.2-0.5,0.5c-0.1,0.2-0.2,0.3-0.5,0.4c0.3-0.6,0.2-0.9-0.3-0.9c-4-0.1-14.1,1.1-18.5-1.2c-6.6-3.5-4.3-9.8-1.3-15.3
	c7-13,14-26.1,21-39.1C107.7,35.7,112.4,33.8,118.6,37.3z"/>
<path class="st1" d="M408.2,97.3h-16.8l-40,0l-54.2,0.2c-1.7-5.4-4.2-10.3-7.2-14.8l104.5-45.4c6.2-3.6,10.9-1.5,14,4.4
	c7.5,14.1,15,28.2,22.5,42.3c1.1,2,1.6,3.8,1.5,5.4C431.7,100.2,415.4,97.2,408.2,97.3z"/>
<path class="st2" d="M281.9,74.5l8.2,8.2c3.1,4.5,5.5,9.4,7.2,14.8c2.9,13.8,0.3,26.2-7.9,37.1L282,142c-7.9,5.8-16.8,8.8-26.7,8.8
	c-4.7-0.1-9.3-1.1-13.8-2.9c5.5-0.4,10.9-0.6,16.4-0.5c9,0.1,7.3-10.7-0.6-8.7l0.8-0.8c15.8,0.4,27.8-14.2,28.2-28.7
	c0.5-16.8-12.9-31.8-30.1-31.1c4.1-3,4.7-5.6,1.9-7.8c-3.3-2.5-8.8-1.8-12.9-1.5c-0.9,0.1-1.3-0.4-1.6-1.1
	C257.3,63.7,270.1,66,281.9,74.5z"/>
<path class="st3" d="M243.5,67.8c0.3,0.7,0.7,1.2,1.6,1.1c4.1-0.3,9.6-1,12.9,1.5c2.8,2.2,2.2,4.8-1.9,7.8l-2.6-0.1l-6.2,0.6
	c-4.5-0.8-9-0.9-13.6-0.4c-2,0.2-3.1,1.4-3.3,3.4c-0.2,2.7,1.3,4.3,4.6,4.7c-12.4,12.2-12.2,31.3-0.2,43.8c-7.8,10.6,10.1,8.6,14,8
	l8.5,0.7c7.9-2,9.6,8.8,0.6,8.7c-5.5-0.1-10.9,0.1-16.4,0.5c-3.9-0.9-7.4-2.7-10.7-5.4c-3-2.3-5.8-4.9-8.2-7.8
	c-8.1-10.8-10.8-23.1-8-37c1.6-5.3,4.1-10.4,7.5-15.2c2.6-3.2,5.4-6,8.4-8.3C234.5,71.1,238.8,69,243.5,67.8z"/>
<path class="st2" d="M247.3,78.6c-4.5,1.9-8.6,4.5-12.3,7.6c-3.3-0.4-4.8-1.9-4.6-4.7c0.2-2,1.3-3.2,3.3-3.4
	C238.3,77.7,242.8,77.8,247.3,78.6z"/>
<path class="st4" d="M253.5,78c-2.9,2.4-2.8,4.6,0.1,6.5c0.3,0.2,0.6,0.3,0.9,0.3c4.1,0,15.1-1,18.4,0.8c1.9,1.1,2.5,3,1.7,5.9
	l-9.3,0.1c-0.3,0-0.6,0.1-0.9,0.4l-8.4,8.3l-8.4-8.3c-0.3-0.3-0.6-0.4-0.8-0.4l-10.3-0.1c-0.2,0-0.4,0.3-0.4,0.6l0,0v32
	c0,0.3,0.2,0.5,0.5,0.5h10.8c0.3,0,0.5-0.2,0.5-0.5v-14.3c0-0.8,0.3-0.9,0.8-0.3c2.2,2.7,4.8,5.1,7.7,7.2l7.3-7
	c0.3-0.3,0.4-0.2,0.5,0.2l0.2,7.7c-2.8,0.2-12.7,0.3-7.5,6.4c0.2,0.2,0.5,0.4,0.8,0.5c2.2,0.6,4.5,0.6,6.8,0.1l11.5,0
	c2.6,4.4,0.2,6.5-4.2,6.5c-4.5,0-9,0-13.5,0.1c-2.1,0-3.2,1.1-3.3,3.2c-0.1,2,1,3.3,3.3,3.7l-0.8,0.8l-8.5-0.7
	c-5.3-1.7-9.9-4.4-14-8c-12-12.4-12.2-31.5,0.2-43.8c3.7-3.1,7.8-5.7,12.3-7.6L253.5,78z"/>
<path class="st5" d="M253.5,78l2.6,0.1c17.2-0.7,30.6,14.3,30.1,31.1c-0.4,14.5-12.4,29.2-28.2,28.7c-2.3-0.5-3.4-1.7-3.3-3.7
	c0.1-2.1,1.2-3.1,3.3-3.2c4.5-0.1,9-0.1,13.5-0.1c4.4,0.1,6.9-2,4.2-6.5c0.3-10.9,0.4-21.8,0.2-32.7c0-0.6-0.4-0.7-1.3-0.3
	c0.8-2.9,0.2-4.8-1.7-5.9c-3.2-1.8-14.3-0.8-18.4-0.8c-0.3,0-0.7-0.1-0.9-0.3C250.7,82.6,250.6,80.5,253.5,78z"/>
<path class="st6" d="M256,100.2l0.2,16.4c-2.9-2-5.5-4.4-7.7-7.2c-0.5-0.6-0.8-0.6-0.8,0.3V124c0,0.3-0.2,0.5-0.5,0.5h-10.8
	c-0.3,0-0.5-0.2-0.5-0.5V92c0-0.3,0.2-0.6,0.4-0.6l0,0l10.3,0.1c0.2,0,0.5,0.2,0.8,0.4L256,100.2z"/>
<path class="st7" d="M275.8,124.5l-11.5,0l-0.1-7l-0.2-7.7c0-0.4-0.2-0.4-0.5-0.2l-7.3,7l-0.2-16.4l8.4-8.3c0.2-0.2,0.5-0.4,0.9-0.4
	l9.3-0.1c0.8-0.3,1.3-0.2,1.3,0.3C276.1,102.7,276.1,113.6,275.8,124.5z"/>
<path class="st0" d="M122.8,97.3c-8.4,122.7-16.7,245.4-24.7,368.1c-0.3,4.3-0.1,8.6,0.5,12.9c0.6,4.4,4.6,14.2,10.4,11.4
	c6.3-3.1,6.3-13.2,7.1-19c15.5-124.4,31.1-248.8,46.7-373.2c17.2-0.5,34.4-0.5,51.7,0.3c-2.8,13.8-0.1,26.1,8,37l-15.1,28.2
	c-0.4,0.7-0.2,1,0.6,0.9l21.5-2c0.2,0,0.5,0.2,0.7,0.4l4,7.2l6.4,12.3c0.3,0.6,0.6,0.6,1,0l14.6-26.7l14.3,26.7
	c0.3,0.5,0.6,0.6,0.9,0l10.5-19.7l22.5,1.8c0.5,0,0.6-0.2,0.4-0.6l-15.3-28.4c8.2-11,10.8-23.3,7.9-37.1l54.2-0.2
	c15.1,123.5,30.2,247.1,45.5,370.6c0.6,5,3.1,21.8,10.9,20c7-1.6,8.5-14.6,7.9-20.1c-0.3-3.2-0.5-4.8-0.5-4.9
	c-8-121.9-15.9-243.8-23.7-365.7h16.8c17.6,123.8,35.3,247.6,53.1,371.4c0,0.1,0.4,2.3,1.2,6.6c2.9,15.5-7.2,30.4-22.5,30.9
	c-3.5,0.1-9.3-0.9-17.4-3.1c-40.7-10.9-81.3-21.9-122-32.9c2.2-2.1,1.3-3.9-1.4-4.5c-13.8-3.4-27.5-6.7-41.3-10.1
	c-1.4-0.3-2.8-0.3-4.2,0c-13.5,3.3-27,6.6-40.6,9.8c-3.2,0.8-4.6,2.6-1.6,5.3c-41,11-81.9,22-122.9,33c-4.6,1.2-8.3,1.8-11,1.6
	c-24.2-1.3-30-24-27.1-44.1c17.6-121,35.2-242,52.8-363c0.3-0.1,0.4-0.2,0.5-0.4c0.1-0.3,0.3-0.5,0.5-0.5L122.8,97.3z"/>
<circle class="st1" cx="256.1" cy="292.7" r="60.7"/>
<path class="st8" d="M122.8,97.3l40,0.2c-15.7,124.4-31.2,248.8-46.7,373.2c-0.7,5.8-0.8,15.8-7.1,19c-5.8,2.9-9.8-7-10.4-11.4
	c-0.6-4.3-0.8-8.6-0.5-12.9C106.1,342.7,114.3,220,122.8,97.3z"/>
<path class="st8" d="M351.5,97.3l40,0c7.8,121.9,15.7,243.8,23.7,365.7c0,0,0.2,1.7,0.5,4.9c0.6,5.5-0.8,18.5-7.9,20.1
	c-7.8,1.8-10.3-15-10.9-20C381.7,344.4,366.5,220.9,351.5,97.3z"/>
<path class="st5" d="M264.2,117.5l0.1,7c-2.3,0.5-4.5,0.4-6.8-0.1c-0.3-0.1-0.6-0.3-0.8-0.5C251.5,117.8,261.5,117.7,264.2,117.5z"
	/>
<path class="st2" d="M234.8,130c4.1,3.6,8.7,6.3,14,8C244.9,138.6,227,140.6,234.8,130z"/>
<path class="st9" d="M222.5,134.7c2.5,2.9,5.2,5.5,8.2,7.8c-4.3,1.6-3.2,4.9,0,6.7c3.8,2.1,7.5,4.2,11.2,6.2c1.3,0.7,1.6,1.7,0.9,3
	c-1.9,3.6-6.1,0.1-8.5-0.9c-0.4-0.2-0.8-0.2-1-0.2c-2.9,0.9-3.5,2.8-1.8,5.5c0.2,0.3,0.4,0.5,0.8,0.6c2.9,1.2,3.5,3.2,1.7,5.9
	l-4-7.2c-0.2-0.3-0.4-0.5-0.7-0.4l-21.5,2c-0.8,0.1-1-0.2-0.6-0.9L222.5,134.7z"/>
<path class="st10" d="M289.4,134.6l15.3,28.4c0.2,0.4,0.1,0.6-0.4,0.6l-22.5-1.8c-0.4-10.8-11.5,3.1-12.9-3.8
	c-0.3-1.4,0.2-2.4,1.4-3l12.1-6.6c2.1-1.1,2.7-2.3,1.8-3.4L282,142L289.4,134.6z"/>
<path class="st9" d="M282,142l2.3,3.1c0.8,1.1,0.2,2.3-1.8,3.4l-12.1,6.6c-1.2,0.7-1.7,1.7-1.4,3c1.4,6.9,12.5-7.1,12.9,3.8
	l-10.5,19.7c-0.3,0.5-0.6,0.5-0.9,0l-14.3-26.7l-0.9-4C265.2,150.8,274.1,147.8,282,142z"/>
<path class="st10" d="M230.8,142.5c3.3,2.6,6.9,4.4,10.7,5.4c4.5,1.8,9.1,2.8,13.8,2.9l0.9,4l-14.6,26.7c-0.3,0.6-0.7,0.6-1,0
	l-6.4-12.3c1.8-2.7,1.3-4.7-1.7-5.9c-0.4-0.1-0.7-0.4-0.8-0.6c-1.7-2.7-1.1-4.5,1.8-5.5c0.2-0.1,0.6,0,1,0.2
	c2.4,1.1,6.6,4.5,8.5,0.9c0.7-1.3,0.4-2.3-0.9-3c-3.7-2.1-7.4-4.1-11.2-6.2C227.5,147.4,226.4,144.2,230.8,142.5z"/>
<path class="st8" d="M300.8,470.2c-13.6-1.9-27.2-3.6-40.9-5.3c-2.9-0.4-5.8-0.4-8.7,0c-13.2,1.6-26.3,3.5-39.4,5.8
	c-3-2.6-1.6-4.5,1.6-5.3c13.6-3.2,27.1-6.5,40.6-9.8c1.4-0.3,2.8-0.4,4.2,0c13.8,3.4,27.5,6.7,41.3,10.1
	C302,466.3,303,468.1,300.8,470.2z"/>
<path class="st11" d="M242,266.7l58.3,58.3c1,1,1,2.6,0,3.6l-5.2,5.2c-1,1-2.6,1-3.6,0l-58.3-58.3c-1-1-1-2.6,0-3.6l5.2-5.2
	C239.5,265.8,241.1,265.8,242,266.7z"/>
<path class="st12" d="M236.1,269.1l61.8,61.8l-2.8,2.8c-1,1-2.6,1-3.6,0l-58.3-58.3c-1-1-1-2.6,0-3.6L236.1,269.1z"/>
<path class="st13" d="M199,251.8l1.7-13.4c0.3-2.4,2.2-4.4,4.7-4.7l13.4-1.7c4-0.5,8,0.9,10.9,3.8l22,22l-26.8,26.8l-22-22
	C199.9,259.8,198.6,255.8,199,251.8z"/>
<path class="st14" d="M238.2,271.2l-13.4,13.4l-22-22c-2.9-2.9-4.2-6.9-3.8-10.9l1.7-13.4c0.1-1.2,0.7-2.3,1.5-3.1"/>
<path class="st14" d="M285.1,340.8l11.2,11.2c1.8,1.8,4.7,1.8,6.6,0l16.3-16.3c1.8-1.8,1.8-4.7,0-6.6L308,318L285.1,340.8z
	 M315.6,333l-15.5,15.5l-8.1-8.1l15.5-15.5L315.6,333z"/>
<path class="st13" d="M296.6,329.4l3.2,3.2l7.8-7.8l8.1,8.1l-7.8,7.8l3.2,3.2l8.1-8.1c1.8-1.8,1.8-4.7,0-6.6L308,318L296.6,329.4z"
	/>
</svg>
