<?xml version="1.0" encoding="utf-8"?>
<!-- Generator: Adobe Illustrator 27.6.1, SVG Export Plug-In . SVG Version: 6.00 Build 0)  -->
<svg version="1.1" id="Layer_1" xmlns="http://www.w3.org/2000/svg" xmlns:xlink="http://www.w3.org/1999/xlink" x="0px" y="0px"
	 viewBox="0 0 375 375" style="enable-background:new 0 0 375 375;" xml:space="preserve">
<style type="text/css">
	.st0{fill:#AAA9B3;}
	.st1{fill:#C6C5CA;}
	.st2{fill:#73737A;}
</style>
<circle class="st0" cx="187.5" cy="187.5" r="184.8"/>
<circle class="st1" cx="187.5" cy="187.5" r="177.9"/>
<circle class="st0" cx="187.5" cy="187.5" r="147.4"/>
<g>
	<g>
		<g>
			<path class="st0" d="M158.7,352.3c2.4,0.4,4.9,0.8,7.4,1.1l-1.6,10.4l-7.4-1.1L158.7,352.3z"/>
		</g>
		<g>
			<path class="st0" d="M217.9,12.2l-1.6,10.3c-2.4-0.4-4.9-0.8-7.4-1.1l1.6-10.3L217.9,12.2z"/>
		</g>
		<g>
			<path class="st0" d="M86,320.4l-6.7,8.4l-5.8-4.7l6.7-8.4C82.1,317.3,84.1,318.9,86,320.4z"/>
		</g>
		<g>
			<path class="st0" d="M301.5,50.9L295,59c-1.9-1.6-3.9-3.1-5.8-4.7l6.5-8.1L301.5,50.9z"/>
		</g>
		<g>
			<path class="st0" d="M30.5,244.9c0.9,2.3,1.8,4.7,2.7,7l-10,3.9l-2.7-7L30.5,244.9z"/>
		</g>
		<g>
			<path class="st0" d="M354.5,126.2l-9.5,3.7c-0.9-2.3-1.8-4.7-2.7-6.9l9.5-3.7L354.5,126.2z"/>
		</g>
		<g>
			<path class="st0" d="M12.2,157.1l10.6,1.6c-0.4,2.4-0.8,4.9-1.1,7.4l-10.6-1.6L12.2,157.1z"/>
		</g>
		<g>
			<path class="st0" d="M363.9,210.5l-1.1,7.4l-10.1-1.5c0.4-2.4,0.8-4.9,1.1-7.4L363.9,210.5z"/>
		</g>
		<g>
			<path class="st0" d="M50.9,73.5l8.4,6.7c-1.6,1.9-3.1,3.9-4.7,5.8l-8.4-6.7L50.9,73.5z"/>
		</g>
		<g>
			<path class="st0" d="M328.8,295.6l-4.7,5.8L316,295c1.6-1.9,3.2-3.9,4.7-5.8L328.8,295.6z"/>
		</g>
		<g>
			<path class="st0" d="M126.1,20.5l3.8,9.8c-2.3,0.9-4.7,1.8-6.9,2.7l-3.8-9.8L126.1,20.5z"/>
		</g>
		<g>
			<path class="st0" d="M255.8,351.8l-7,2.7l-3.8-9.7c2.4-0.8,4.7-1.8,7-2.7L255.8,351.8z"/>
		</g>
	</g>
</g>
<g>
	<g>
		<g>
			<path class="st0" d="M120.8,341c2.3,1,4.6,1.9,6.9,2.8l-4,9.8l-6.9-2.8L120.8,341z"/>
		</g>
		<g>
			<path class="st0" d="M258.2,24.2l-3.9,9.6c-2.3-1-4.6-1.9-6.9-2.8l3.9-9.7L258.2,24.2z"/>
		</g>
		<g>
			<path class="st0" d="M57.7,292.9l-8.5,6.6l-4.6-5.9l8.5-6.6C54.6,289,56.1,290.9,57.7,292.9z"/>
		</g>
		<g>
			<path class="st0" d="M330.3,81.5l-8.2,6.3c-1.5-2-3-4-4.6-5.9l8.2-6.3L330.3,81.5z"/>
		</g>
		<g>
			<path class="st0" d="M21.4,206.5c0.3,2.5,0.6,4.9,1,7.4l-10.6,1.5l-1-7.4L21.4,206.5z"/>
		</g>
		<g>
			<path class="st0" d="M364.2,167.1l-10.1,1.4c-0.3-2.5-0.6-4.9-1-7.4l10.1-1.4L364.2,167.1z"/>
		</g>
		<g>
			<path class="st0" d="M24.2,116.8l9.9,4.1c-1,2.3-1.9,4.6-2.8,6.9l-9.9-4.1L24.2,116.8z"/>
		</g>
		<g>
			<path class="st0" d="M353.6,251.3l-2.8,6.9l-9.5-3.9c1-2.3,1.9-4.6,2.8-6.9L353.6,251.3z"/>
		</g>
		<g>
			<path class="st0" d="M81.4,44.7l6.6,8.5c-2,1.5-4,3-5.9,4.6l-6.6-8.5L81.4,44.7z"/>
		</g>
		<g>
			<path class="st0" d="M299.5,325.8l-5.9,4.6l-6.3-8.2c2-1.5,4-3,5.9-4.6L299.5,325.8z"/>
		</g>
		<g>
			<path class="st0" d="M167,10.8l1.4,10.5c-2.5,0.3-4.9,0.6-7.4,1l-1.4-10.5L167,10.8z"/>
		</g>
		<g>
			<path class="st0" d="M215.4,363.2l-7.4,1l-1.4-10.3c2.5-0.3,5-0.6,7.4-1L215.4,363.2z"/>
		</g>
	</g>
</g>
<g>
	<path class="st2" d="M151,26.8c-0.4,0.3-0.9,0.3-1.6,0.1c-0.6-0.2-1.4-0.6-2.4-1.3c-0.9-0.6-2.3-1.3-4.1-2.2
		c-0.2,1.1,0,2.2,0.5,3.1c0.5,0.9,0.9,1.7,1.3,2.3c0.4,0.2,0.8,0.4,1.4,0.8c0.6,0.3,1.3,0.7,2.1,1.2c1.6,0.9,3,1.5,4.3,1.6
		c-0.5,1-0.9,1.4-1.3,1.3c-0.4,0-0.9-0.1-1.4-0.3c-0.5-0.1-1.1-0.4-1.8-0.8c-0.6-0.4-1.2-0.7-1.7-0.8c-0.5-0.2-0.8-0.1-1,0.1
		c-0.2,0.3-0.1,1,0.3,2.2l0.2,1.1c0.3,1,0.6,1.9,0.9,2.9c0.4,1,0.7,1.9,0.9,2.9c0.2,0.7,0.1,1.2-0.3,1.6c-0.4,0.4-0.8,0.6-1.3,0.7
		c-0.5,0.1-1,0-1.5-0.2c-0.2-0.1-0.3-0.3-0.4-0.7c0-0.4,0-0.6,0.1-0.7c0.2-0.3,0.3-0.7,0.3-1.3c-0.1-1-0.2-2.1-0.6-3.3
		c-0.3-1.1-0.7-2.3-1.2-3.6c-0.4-1.2-0.7-2.1-0.9-2.7l0-0.1c-0.1-0.3-0.1-0.6-0.2-1c-0.1-0.4-0.2-0.9-0.2-1.5
		c-0.2-1.1-0.4-2.2-0.7-3.3c-0.2-1-0.5-1.9-0.9-2.7c-0.2-0.5-0.4-0.8-0.7-0.9c-0.1,0-0.1-0.2-0.1-0.3c0-0.2,0-0.3,0.1-0.4
		c0.2-0.2,0.4-0.4,0.7-0.7c0.5-0.4,1.4-0.3,2.6,0.1c0.7,0.3,1.5,0.8,2.4,1.4l1.3,0.9l1.4,0.9c1,0.6,1.9,1.1,2.7,1.5
		c0.4,0.2,0.7,0.6,0.9,1.1C151.3,26.4,151.3,26.7,151,26.8z"/>
	<path class="st2" d="M339.7,238.3c0.4,0,0.7-0.3,1.1-0.7c0.2-0.3,0.3-0.6,0.4-0.9c0.1-0.4,0.4-0.7,0.7-0.9c0.4-0.2,0.9-0.7,1.7-1.5
		c0.7-0.7,1.5-1.3,2.3-1.8c0.2-0.1,0.3-0.1,0.5-0.1c0.2,0,0.4,0.1,0.6,0.5c0.3,0.8,0.7,1.7,1.1,2.7l0.5,1.4l0.5,1.4
		c0.3-0.1,0.5-0.1,0.8-0.1c0.3,0,0.5-0.1,0.6-0.2c0.9-1.2,2-2.4,3.1-3.4c1.1-1,2.4-2,4-3c-0.1-1.4-0.7-2.4-2-3
		c-0.3-0.2-0.6-0.4-0.9-0.6c-0.3-0.3-0.6-0.4-0.9-0.3c-0.3,0-0.7,0.1-1.4,0.1c-0.5,0-0.9,0-1.3-0.1c-1.9-0.5-4.1-1-6.5-1.5
		c-2.3-0.5-4.6-1-6.8-1.6c-0.5-0.1-0.8-0.3-0.9-0.6c-0.1-0.2-0.2-0.4-0.5-0.7c-0.1-0.2-0.4-0.4-0.7-0.5c-0.4-0.1-0.7-0.1-1-0.1
		c-0.3,0-0.6,0.2-0.8,0.3c-0.3,0.1-0.4,0.4-0.4,0.7c0,0.6,0.3,1.3,0.8,1.9c0.6,0.6,0.9,1.3,1,2c0.1,1.2,0.6,2.9,1.3,5.1
		c0.8,2.2,1.5,3.9,2.3,5.1C339.1,238.3,339.3,238.4,339.7,238.3z M352.6,230.7c-0.3,0.5-0.5,1-0.7,1.3c-0.2,0.5-0.4,0.9-0.7,1.3
		c-0.3,0.3-0.6,0.6-0.9,0.9c-0.3,0.2-0.7,0.5-1,0.9c-0.3-0.5-0.6-1-0.9-1.6c-0.4-0.5-0.6-1-0.7-1.4c-0.1-0.4-0.1-0.8,0-1.3l0.3-1.3
		c0.7,0.2,1.5,0.4,2.3,0.6L352.6,230.7z M338.4,234c-0.4-1.2-0.8-2.5-1.1-3.7c-0.2-0.7-0.3-1.3-0.5-1.9c-0.2-0.6-0.3-1.2-0.5-1.7
		l1.9,0.4l2,0.4c1.3,0.3,2.7,0.6,3.9,0.9c0,0.1,0.1,0.3,0.3,0.6c0.2,0.3,0.2,0.5,0.1,0.6c-0.4,0.4-1.1,1-2,1.7
		c-1,0.8-1.7,1.5-2.3,2.2c-0.3,0.3-0.7,0.5-1.1,0.6C338.8,234.2,338.5,234.1,338.4,234z"/>
	<path class="st2" d="M83.3,71.9c-1.8-1.5-3.6-3.1-5.4-4.8c-1.8-1.7-3.6-3.4-5.2-5c0.1-0.2,0.1-0.6-0.2-1.4c0-0.5-0.2-1-0.4-1.3
		c-0.2-0.4-0.4-0.6-0.6-0.5c-0.5,0.2-0.9,0.4-1.2,0.4c-0.2,0-0.6,0.2-1,0.7c-0.2,0.2-0.5,0.6-0.8,1.1c-0.3,0.5-0.4,0.9-0.3,1.1
		c0.2,0.4,0.5,0.7,0.9,0.9c0.5,0.2,0.8,0.5,1.1,0.7c0.1,0.1,0.3,0.6,0.5,1.4c0.2,0.7,0.4,1.6,0.6,2.5l0.3,1.3l0.1,0.6l0.1,0.6
		c0.1,0.6,0.2,1.1,0.2,1.3c-1.2,0.1-2.4,0-3.8-0.1l-2.1-0.3l-2-0.3c-0.5,0-1.1-0.1-1.8-0.2c-0.6-0.1-1.1-0.2-1.6-0.3
		c-1-0.1-1.5-0.2-1.5-0.1l0,0c-0.5,0.6-0.4,1.3,0.1,2.1c0.7,0.5,1.3,0.7,1.9,0.8c0.5,0.1,1,0.1,1.4,0.1c2,2,4,4,6.1,5.9
		c2.1,1.9,3.7,3.6,4.7,4.8c0.2,0.4,0.3,0.8,0.3,1.2l0,0.7c0,0.1,0.1,0.4,0.3,0.7c0.2,0.3,0.3,0.5,0.4,0.5c0.1,0.1,0.4,0.2,0.8,0.2
		c0.4,0,0.6-0.1,0.8-0.3c0.1-0.1,0.2-0.5,0.3-1.1c0-0.6,0-1,0-1.2c-0.1-0.2-0.3-0.6-0.7-1.1c-0.4-0.5-0.6-1-0.6-1.4
		c0-1-0.1-2.2-0.3-3.5c-0.1-1.2-0.3-2.7-0.6-4.4c1.7,0.3,3.6,0.5,5.7,0.7c2.1,0.2,3.4,0.3,3.8,0.5c0.2,0.4,0.5,0.7,1,1
		c0.4,0.3,0.8,0.4,1.2,0.2c0.5-0.1,0.8-0.2,0.9-0.2c0.1,0,0.3-0.2,0.4-0.5c0.4-0.8,0.5-1.4,0-1.8c-0.4-0.4-0.8-0.9-1-1.6
		C85.1,72.6,84.2,72.4,83.3,71.9z M73.5,78.4c0.3,1.6,0.3,2.6-0.1,2.8c-1.8-1.9-3.2-3.4-4.2-4.3c-1-0.9-2.1-2-3.5-3.4
		c1.4-0.1,2.7-0.1,3.8,0.2c1.2,0.3,2.4,0.4,3.5,0.5C73.1,75.4,73.2,76.8,73.5,78.4z M77.1,72.1c-1.2-0.2-2.5-0.4-3.9-0.6
		c-0.3-1.3-0.5-2.5-0.7-3.6l-0.3-1.6L72,64.5c1.3,1.1,2.5,2.2,3.7,3.3c1.1,1.1,2.8,2.6,5.1,4.6C79.7,72.4,78.5,72.3,77.1,72.1z"/>
	<path class="st2" d="M223.5,341.9c-1.9-1.8-3.1-2.9-3.5-3.3c-0.4-1.3-0.1-2.3,0.7-3.1c0.8-0.7,1.2-0.9,1.2-0.5c0,0.9,0.7,2,2,3.4
		c1.3,1.4,3,2.7,5.1,4c0.4-0.5,0.7-0.7,0.8-0.6c0-0.2,0.1-0.6,0.1-1c0.4-3.4,0.9-5.8,1.4-7.2c0.5-1.4,1.5-1.8,3-1.4
		c-0.2,0.5-0.5,1-0.9,1.7c-0.4,0.6-0.6,1.1-0.7,1.5c-0.9,3.6-1.4,6-1.5,7.4c-0.2,1.4,0.1,2.3,0.9,2.7c0.2,0.1,1.1,0.8,2.8,2.2
		c1.7,1.4,3.2,2.7,4.6,4c0.5,1.9,0.4,3-0.2,3.3c-0.7,0.3-1.3,0.5-1.8,0.4c-0.2-0.8-0.8-1.7-1.8-2.7c-0.9-1-1.5-1.7-1.9-1.9
		c-0.4-0.4-0.8-0.8-1.3-1.4c-0.4-0.5-0.8-0.9-1.1-1.1c-0.4-0.3-0.6-0.3-0.9,0c-0.3,0.2-0.5,0.9-0.6,2c-0.2,1-0.5,2.5-1,4.5
		c0.3,1.5-0.1,2.5-1.2,3c-1,0.5-1.8,0.9-2.5,1.1l-0.3-2.2c1-0.1,1.8-1.3,2.6-3.4c0.8-2.2,1.3-4.3,1.4-6.2L223.5,341.9z"/>
	<path class="st2" d="M67.8,298.8l-3.5,3.5l0,0c-1.1,1.1-2.2,1.8-3.1,2.2c-1,0.3-1.5,0.6-1.6,0.7c0,0.5,0.1,0.9,0.5,1.3
		c0.4,0.4,0.8,0.7,1.3,0.8c0.5,0.2,1,0.3,1.5,0.2c0.4,0,0.7-0.2,0.8-0.5c0.6-0.8,1.4-1.8,2.3-3.1c0.8-1.1,1.7-2.3,2.8-3.5l0.9,2.7
		l0.7,3.4l0,0c0.2,1.1,0.2,2.1-0.2,2.8c-0.3,0.7-0.4,1.1-0.4,1.2c-0.3,0.3-0.7,0.5-1,0.6c-0.4,0.2-0.7,0.3-0.9,0.5l-0.1,0.1
		l-0.1,0.1l-0.1,0.1l-0.1,0.3l-0.1,0.3c0,0.2,0,0.4,0.2,0.5c0.4,0.3,0.7,0.5,0.9,0.7c0.5,0.2,1,0.2,1.4,0.2c0.4,0,0.7-0.2,0.7-0.4
		c0.6-0.8,1.4-1.9,2.3-3.1c0.9-1.2,1.8-2.3,2.8-3.5c0.6-0.7,1.6-1.7,3.1-3.2c1.6-1.5,2.7-2.5,3.2-2.9c1.1-0.9,2.3-1.3,3.6-1.4
		c0-0.5-0.1-1-0.4-1.4s-0.8-0.7-1.2-0.9c-0.5-0.2-1-0.2-1.6,0c-0.5,0.1-0.9,0.5-1.3,1.2l-4.3,4.8c-0.2-0.4-0.5-0.7-0.7-1.1
		c-0.4-0.8-0.9-1.7-1.2-2.6c-0.4-0.9-0.6-1.9-0.8-2.8c0-0.4,0-0.8,0-1.2c0.3-0.4,0.6-0.7,0.6-0.8l0.3-0.2c1.1-0.9,2.3-1.3,3.6-1.5
		c0-0.5-0.1-1-0.5-1.4c-0.3-0.4-0.8-0.7-1.2-0.9c-0.5-0.2-1-0.2-1.6,0c-0.5,0.1-1,0.5-1.3,1.2L67.8,298.8z M73.5,299.6l1,3l0,0
		c0.3,1,0.4,1.8,0.2,2.5c0,0.2,0,0.3-0.1,0.5l-1.7,1.7c-0.1-0.4-0.3-0.7-0.4-1.1c-0.4-1-0.8-2-1.1-3c-0.3-1.1-0.4-2.1-0.4-3.1
		c0-0.3,0.5-1.1,1.5-2.4L73.5,299.6z"/>
	<g>
		<path class="st2" d="M342.3,154.6c-0.4-0.2-0.6-0.3-0.6-0.4l-1.6-1.1c-0.5-0.3-1.1-0.7-1.8-1.2c-0.7-0.5-1.4-0.9-2.1-1.3
			c-0.7-0.4-1.4-0.8-2-1c-0.3-0.1-0.5-0.2-0.6-0.2l-0.2,0l0,0l-0.7-0.3c0-0.5,0.1-0.9,0.5-1.3c0.3-0.4,0.7-0.7,1.1-0.9
			c0.5-0.2,1.1-0.1,1.7,0.2c0.5,0.3,1.3,0.8,2.3,1.3c1,0.6,1.9,1.1,2.6,1.5c0.4,0.2,1,0.6,1.6,1.1c0.3-0.7,0.6-1.3,0.9-1.7
			c0.4-0.8,0.9-1.7,1.5-2.6c0.6-1,1.1-1.8,1.4-2.3c0.4-0.6,0.9-1,1.4-1.1c0.4,0,0.9,0,1.4,0.2c0.5,0.2,0.9,0.5,1,0.9l-0.4,0.6l0,0
			l-0.1,0.1c-0.1,0-0.1,0.1-0.2,0.2c-0.1,0.1-0.2,0.2-0.2,0.3c-0.4,0.5-0.8,1.1-1.2,1.9c-0.4,0.7-0.9,1.5-1.2,2.2
			c-0.3,0.7-0.6,1.4-0.9,1.9c-0.4,0.8-0.8,1.5-1.1,2.2l-0.1,0.2l0,0.1c0,0.1,0,0.1-0.1,0.2c-0.2,0.2-0.4,0.4-0.6,0.5
			C343.3,155,342.8,154.9,342.3,154.6z"/>
		<path class="st2" d="M343.9,146.2c-0.4,0.6-0.8,1-1.3,1c-0.4,0.1-0.9,0-1.4-0.2c-0.5-0.2-0.8-0.5-1-0.9l0.4-0.6l0,0l0.1-0.1
			c0.1-0.1,0.3-0.3,0.4-0.5c0.4-0.5,0.8-1.1,1.2-1.8c0.4-0.7,0.8-1.5,1.2-2.3c0.4-0.7,0.7-1.4,0.9-1.9l0.9-1.7
			c0-0.1,0.1-0.3,0.3-0.6c0.3-0.5,0.6-0.8,1-0.9c0.3,0,0.5,0,0.8,0.1l0.2,0.1l0.1,0l0,0l0.1,0l0.1,0.1c0.7,0.4,1.4,0.9,2.1,1.3
			c0.5,0.3,1.1,0.7,1.8,1.2c0.7,0.5,1.4,0.9,2.2,1.4c0.7,0.4,1.4,0.7,2,1c0.3,0.1,0.5,0.2,0.6,0.2l0.1,0l0,0l0.7,0.3
			c0,0.5-0.1,0.9-0.4,1.3c-0.3,0.4-0.7,0.7-1.1,0.9c-0.4,0.2-1,0.1-1.7-0.2c-0.5-0.3-1.3-0.7-2.3-1.3c-1-0.6-1.8-1.1-2.6-1.5
			c-0.5-0.3-1-0.6-1.6-1.1c-0.3,0.7-0.6,1.3-0.9,1.7c-0.4,0.7-0.9,1.6-1.5,2.6C344.6,145,344.2,145.7,343.9,146.2z"/>
	</g>
	<path class="st2" d="M135.7,349.2c-0.5,0.5-1.2,0.7-1.8,0.5c-0.8,0.6-1,1.1-0.6,1.5c0.3,0.4,0.9,0.6,1.6,0.8c0.7,0.2,1.4,0.2,2,0
		c0.6-0.1,0.8-0.4,0.5-1c0.4-0.3,1-0.6,1.7-1c0.6-0.4,1.3-0.9,2.2-1.4c0.8-0.5,1.4-0.8,2-1.1c0.6-0.3,1-0.3,1.1-0.1
		c0.2,0.3,0.7,1.1,1.3,2.2c0.6,1.1,1.3,2.2,2.1,3.2c0.8,1.1,1.6,2,2.4,2.7c0.9,0.8,1.6,1,2.2,0.8c0.4-0.7,0.6-1.1,0.7-1.3
		c0-0.2,0-0.3-0.1-0.4c-0.2-0.1-0.4-0.2-0.6-0.3c-0.2-0.1-0.4-0.4-0.4-0.9c0.7-5.3,1.4-9.4,2.3-12.5c0.9-3.2,2.1-4.9,3.7-5.1
		c0.3-0.1,0.3-0.5,0-1.3c-0.3-0.9-1.1-1-2.3-0.4c-1.1,0.6-1.8,0.9-1.9,0.8c-0.3,1-0.7,2-1.1,2.9c-0.4,0.9-0.8,2.1-1.1,3.4l0,0
		c-1.3,0.8-2.5,1.6-3.6,2.3c-1,0.7-1.9,1.2-2.8,1.5c-0.5-0.5-1.1-1.2-1.7-2.2c-0.7-1-1.3-2.2-2-3.6c0-1.3,0.3-2.9,1-4.9
		c0.8-1.9,1.3-3.2,1.6-3.8c-0.5-0.1-1.1-0.2-1.8-0.1c-0.7,0-1.4,0-2.1,0c-0.1,0.6-0.3,1.7-0.5,3.3c-0.1,0.7-0.2,1.4-0.3,2.2
		c-0.1,0.8-0.2,1.6-0.3,2.4c-0.3,1.7-0.6,3.3-1,4.8c-0.3,1.6-0.7,2.8-1.1,3.9C136.8,348,136.3,348.7,135.7,349.2z M146.4,345.9
		l0.4-0.3c0.3-0.3,0.6-0.5,0.9-0.8c0.7-0.6,1.4-1,2-1.3c0.6-0.3,1-0.4,1.3-0.2c0.3,0.2,0.2,0.9-0.4,2.2c-0.2,0.5-0.3,1.1-0.4,2
		c-0.1,0.8-0.2,1.5-0.3,2.1c-0.1,0.6-0.3,1-0.5,1.1c-0.2,0.1-0.4-0.3-0.9-1.2c-0.1-0.3-0.5-0.8-1.3-1.5c-0.7-0.6-1.1-1.3-1.3-1.9
		L146.4,345.9z M139.5,346.2c0.2-0.7,0.4-1.3,0.5-1.8c0.2-0.5,0.5-0.9,0.7-1c0.2-0.1,0.6,0.1,0.9,0.9c0.1,0.2,0.4,0.4,0.9,0.6
		c0.5,0.3,0.7,0.8,0.8,1.7c-0.4,0.1-1.1,0.5-2.1,1.2c-1,0.7-1.7,0.7-2.2,0C139.1,347.3,139.3,346.8,139.5,346.2z"/>
	<path class="st2" d="M233.1,32c0.6-0.5,1.2-1,1.7-1.5c0.6-0.4,1.1-0.8,1.5-1.1c0,0,0.1,0,0.2-0.1l0.2-0.1l0,0l0.1-0.1l0.2-0.1
		c0.2-0.1,0.3-0.3,0.3-0.4c0.1-0.1,0.1-0.3,0-0.5l-0.1-0.2l-0.1-0.1l0,0l-0.2-0.2l-0.1-0.1c-0.3-0.5-0.5-1.1-0.8-1.7
		c-0.3-0.7-0.5-1.4-0.8-2.1c-0.2-0.7-0.4-1.2-0.6-1.8c-0.2-0.7-0.5-1.3-0.7-2l-0.1-0.1l0,0l0-0.1l-0.1-0.2c-0.1-0.2-0.2-0.3-0.4-0.4
		c-0.2-0.1-0.5,0-0.8,0.3c-0.3,0.2-0.4,0.3-0.5,0.4l-1.3,1.2c-0.4,0.4-0.9,0.8-1.4,1.2c-0.6,0.5-1.2,1-1.7,1.5
		c-0.6,0.4-1.1,0.8-1.6,1.1c0,0-0.1,0-0.1,0.1l-0.5,0.3c-0.2,0.1-0.3,0.3-0.3,0.4c-0.1,0.1,0,0.3,0.1,0.5l0.1,0.2l0,0.1l0,0.1
		l0.2,0.2l0,0.1c0.3,0.5,0.5,1,0.8,1.7c0.2,0.7,0.5,1.4,0.8,2.1c0.2,0.7,0.4,1.2,0.6,1.8l0.4,1l-0.9,0.7c-0.4,0.4-0.9,0.8-1.4,1.2
		c-0.6,0.5-1.2,1-1.7,1.4c-0.6,0.5-1.1,0.8-1.6,1.1c-0.2,0.1-0.4,0.2-0.5,0.3c-0.1,0-0.2,0-0.2,0c-0.2,0.6-0.2,1-0.1,1.2
		c0.2,0.4,0.5,0.6,0.7,0.7l0.1,0c0.3,0.1,0.6,0,1.1-0.3c0.4-0.3,1-0.8,1.8-1.4c0.8-0.6,1.5-1.2,2.1-1.6c0.4-0.3,0.9-0.7,1.5-1.3
		c0.2,0.8,0.5,1.4,0.6,1.8c0.3,0.7,0.6,1.5,1,2.4c0.4,0.9,0.7,1.6,0.9,2.1c0.2,0.5,0.5,0.7,0.8,0.8l0.1,0c0.3,0,0.6,0,1-0.3
		c0.2-0.1,0.4-0.5,0.6-1.1l-0.1,0l-0.1-0.1c-0.1-0.1-0.2-0.3-0.3-0.5c-0.3-0.5-0.5-1-0.8-1.7c-0.3-0.7-0.5-1.4-0.8-2.1
		c-0.3-0.7-0.5-1.3-0.6-1.8l-0.4-1.1l0.9-0.7C232.1,32.9,232.5,32.5,233.1,32z M231.4,30.6c-0.4,0.3-0.9,0.7-1.5,1.3
		c-0.2-0.7-0.5-1.4-0.6-1.8c-0.3-0.7-0.6-1.5-1-2.4c-0.2-0.6-0.4-1.1-0.6-1.5c0.3-0.3,0.7-0.6,1.3-1c0.8-0.6,1.5-1.2,2.1-1.6
		c0.4-0.3,0.9-0.7,1.5-1.3c0.2,0.7,0.4,1.3,0.6,1.8c0.3,0.7,0.6,1.5,1,2.4c0.3,0.6,0.5,1.1,0.6,1.5c-0.3,0.3-0.8,0.6-1.3,1
		C232.6,29.6,232,30.2,231.4,30.6z"/>
	<path class="st2" d="M28.2,221.2c-0.2,0.1-0.4,0.2-0.6,0.5c0,0.1,0,0.2-0.1,0.2l0,0.1l0,0.1l0,0.2l-0.7,2.3c-0.1,0.4-0.3,1-0.5,2
		c-0.2,0.8-0.5,1.6-0.8,2.3c-0.3,0.8-0.6,1.4-0.8,1.9c0,0.1-0.1,0.2-0.2,0.3l-0.1,0.1l0,0.1c-0.2,0.5-0.3,0.8-0.3,0.8
		c-0.8,0.1-1.5,0.1-2.1,0c-1.2-0.2-1.9-0.2-2.1-0.1c-0.4,0.5-0.5,1-0.3,1.5c0.2,0.6,0.4,1.1,0.8,1.5c0.4,0.4,0.9,0.7,1.4,1
		c0.5,0.2,0.8,0.2,1.1-0.1c1.2-0.5,2.6-1.1,4.4-1.9c1.6-0.7,3.4-1.3,5.2-1.9c1.8-0.6,3.6-1,5.3-1.2c1.8-0.2,3.3-0.1,4.7,0.5
		c0.4-0.5,0.5-1,0.4-1.6c-0.1-0.6-0.3-1.1-0.7-1.5c-0.4-0.4-0.9-0.7-1.6-0.9c-0.6-0.1-1.3,0-2.1,0.5l-0.9,0.3l-0.7-0.2
		c0,0-0.1,0-0.2-0.1c-0.1,0-0.2-0.1-0.3-0.2c-0.5-0.3-1-0.8-1.6-1.3c-0.6-0.5-1.2-1-1.8-1.6c-0.6-0.6-1.1-1.1-1.5-1.4l-1.4-1.3
		c-0.1-0.1-0.2-0.2-0.6-0.5C28.9,221.2,28.5,221.1,28.2,221.2z M30.7,226.8c0.6,0.5,1.3,1.2,2.2,1.9c0.4,0.3,0.7,0.6,1,0.8l-1.5,0.5
		l-4.8,1.3c0.1-0.4,0.3-0.9,0.5-1.4c0.4-1,0.7-1.9,1-2.7c0.1-0.4,0.3-1,0.5-1.6C29.9,226.1,30.3,226.5,30.7,226.8z"/>
	<path class="st2" d="M290.4,303.3c0.4,0.1,0.9,0.1,1.4,0c0.5-0.1,0.9-0.3,1.2-0.5c0.5,0,1,0,1.5,0c0.5,0,0.9,0,1.2,0
		c0.7,0,1.6,0,2.8,0.2c1.4,0.1,2.2,0.1,2.4,0.1c0,0,0.1,0,0.2,0l0.1,0.1l0.2,0c0.2,0,0.4,0.1,0.7,0.1c0.2,0.9,0.3,1.7,0.4,2.6
		c0,0.2,0,0.6,0,1.2c-0.1,2.4,0.1,3.7,0.8,3.9c0.3,0.1,0.8,0.1,1.4,0l0.8-0.1l0.9-0.2c0.7-0.2,1.2-0.3,1.5-0.3c0.1,0,0.2,0,0.4-0.1
		c0.2,0,0.5-0.1,0.7-0.1c0.7-0.1,1.4-0.3,2-0.4c1.8-0.4,2.8-0.8,3.1-1.1c0.1-0.1,0.2-0.3,0.2-0.5c0-0.3-0.3-0.8-0.8-1.4
		c-0.2-0.2-0.4-0.4-0.7-0.6c-0.2-0.2-0.4-0.3-0.5-0.5c-0.7-0.6-1.4-1.2-2-1.9c-0.7-0.8-1.3-1.5-1.9-2.2c-0.6-0.8-1.1-1.3-1.4-1.6
		c-0.5-0.5-1.2-1.1-2.1-1.9c-1.1-0.9-2-1.7-2.8-2.5c-0.9-0.9-1.6-1.7-2-2.5c-0.9-1.4-1.6-2-2.2-1.8c-0.1,0-0.2,0.1-0.3,0.1l-0.2,0.1
		c-0.1,0-0.2,0.1-0.3,0.1c-0.1,0.1-0.2,0.2-0.2,0.4c-0.2,0.5-0.2,1.1-0.1,1.8c0.1,0.7,0.4,1.2,0.9,1.5c0.3,0.3,0.7,0.6,1.2,1
		c0.4,0.4,0.9,0.8,1.4,1.3c1.1,0.9,2.1,1.7,2.9,2.5c0,0-0.1,0-0.2,0c-0.5,0-1.2,0-2,0.1c-0.9,0-2.1-0.1-3.7-0.2
		c-0.9-0.1-1.6-0.1-2.4-0.2c-0.8-0.1-1.5-0.1-2.2-0.2l-0.1,0l-0.1,0c-0.1,0-0.3,0-0.4,0c-0.3,0-0.7,0-0.9,0c-0.9,0-1.5,0.1-1.8,0.4
		c-0.1,0.1-0.2,0.2-0.2,0.3c-0.2,0.9,0,1.8,0.4,2.5C289.7,303.1,290,303.2,290.4,303.3z M304.5,301.3c1,0.8,1.9,1.7,2.8,2.6
		c0.9,0.9,1.8,1.8,2.7,2.8c-0.8,0.1-1.5,0.3-2.2,0.5c-0.7,0.2-1.5,0.4-2.5,0.5c-0.3-1.2-0.4-2.3-0.5-3.4
		C304.7,303.3,304.6,302.3,304.5,301.3z"/>
	<path class="st2" d="M309.3,77.5l-7.7,1.3l-4.1,1.1c0,0-0.3,0.1-0.7,0.3c-0.2,0.1-0.5,0.2-0.7,0.3l-0.7,0.3c-1.3,0.5-2,0.6-2.1,0.2
		c-0.3-0.9-0.5-1.4-0.5-1.5c-0.2-0.7,0.4-1.2,1.7-1.7c0.4-0.1,0.9-0.3,1.5-0.4c0.5-0.1,0.8-0.1,1.1-0.1c0.6-0.2,1.3-0.4,2.1-0.6
		l1.4-0.3l1.4-0.3c0.9-0.2,1.8-0.4,2.6-0.6c0.8-0.2,1.3-0.5,1.6-0.7c0.4-0.4,0-0.9-1.1-1.7c-1.1-0.8-2.2-1.5-3.5-2.3
		c-1.3-0.8-2.3-1.5-3-2.2c-0.8-0.6-0.6-1,0.4-1.1c1.4-0.2,3.2-0.7,5.5-1.5c2.3-0.9,4.1-1.8,5.6-2.6c0.7-0.4,1.3-0.3,1.8,0.3
		c0.6,0.6,0.8,0.9,0.9,1c0,0.1,0.1,0.2,0.1,0.3l0.2,0.2c0.1,0.1,0,0.3-0.2,0.6c-0.2,0.3-0.8,0.5-1.8,0.7l-0.6,0.1l-0.6,0.1
		c-0.5,0.1-0.9,0.1-1.1,0.2c-0.8,0.3-1.9,0.7-3.5,1.3c-1,0.4-1.7,0.6-2,0.8c0.4,0.2,1.5,0.9,3.1,2.2c1.6,1.2,2.8,2.1,3.8,2.6
		c1,0.3,1.4,1,1,2.1C310.7,76.9,310.1,77.5,309.3,77.5z"/>
	<path class="st2" d="M33,136.9c0.5,0.5,0.4,0.9,0,1.3c-0.4,0.3-1,0.6-1.9,0.9c-0.3,0.1-0.7,0.3-1.1,0.5l-1,0.5
		c-0.8,0.4-1.4,0.7-1.8,0.7c-1.2,0.3-2,0.6-2.4,0.8c-0.5,0.2-0.4,0.5,0,0.7c0.5,0.2,1.6,0.5,3.4,0.9l0.9,0.1
		c1.6,0.4,3.1,0.8,4.4,1.1l3.6,1c0.4,0.1,1,0.3,1.8,0.4l1,0.2l1,0.2c1.4,0.4,2.2,0.7,2.2,1c0,0.9-0.1,1.6-0.4,2.3
		c-0.1,0.3-0.7,0.2-1.6-0.2l-1.1-0.6c-0.4-0.2-0.7-0.3-0.9-0.4l-2.7-0.7c-0.9-0.2-2-0.6-3.4-1c-1.3-0.4-2.8-0.8-4.4-1.3
		c-1.6-0.4-3-0.8-4.3-1c-0.8-0.2-1.3-0.2-1.5-0.2c0.5,0.5,0.8,0.9,1,1.2c0.1,0.1,0.2,0.3,0.3,0.5c0.2,0.2,0.4,0.5,0.6,0.8
		c0.6,0.8,1.4,1.9,2.4,3.3c0.1,0.2,0.2,0.4,0.3,0.7l0.3,0.5c0.2,0.4,0.3,0.6,0.3,0.8c0,0.1,0,0.2,0.1,0.4l0.1,0.3l0.1,0.3
		c0.2,0.5,0.3,0.9,0.3,1c-0.1,0.4-0.4,0.4-0.8,0c-0.4-0.3-0.9-0.8-1.6-1.4c-0.6-0.6-1.2-1.4-1.9-2.3c-0.6-0.9-1.2-1.6-1.6-2.4
		c-1.2-2-2.2-3.5-3-4.3c-0.8-0.8-1.2-1.4-1.3-1.8c-0.1-0.4,0.2-0.6,0.9-0.8c0.7-0.2,1.9-0.6,3.6-1.3c0-0.1,0.3-0.2,0.8-0.4
		c0.5-0.2,1.1-0.4,1.7-0.6l0.8-0.3l0.8-0.3c0.6-0.2,0.9-0.3,1-0.3c0.3-0.1,0.7-0.2,1.3-0.4l0.8-0.3l0.7-0.2
		C31.7,136.5,32.6,136.5,33,136.9z"/>
</g>
<g>
	<rect x="183.8" y="9.6" class="st0" width="7.5" height="355.7"/>
	
		<rect x="183.8" y="9.6" transform="matrix(0.8661 0.4999 -0.4999 0.8661 118.8522 -68.6249)" class="st0" width="7.5" height="355.7"/>
	
		<rect x="183.8" y="9.6" transform="matrix(0.5001 0.866 -0.866 0.5001 256.0936 -68.6394)" class="st0" width="7.5" height="355.7"/>
	
		<rect x="183.8" y="9.6" transform="matrix(2.116171e-04 1 -1 2.116171e-04 374.9603 -3.967397e-02)" class="st0" width="7.5" height="355.7"/>
	
		<rect x="183.8" y="9.6" transform="matrix(-0.4998 0.8662 -0.8662 -0.4998 443.6104 118.798)" class="st0" width="7.5" height="355.7"/>
	
		<rect x="183.8" y="9.6" transform="matrix(-0.8658 0.5003 -0.5003 -0.8658 443.654 256.0394)" class="st0" width="7.5" height="355.7"/>
</g>
</svg>
