<?xml version="1.0" encoding="utf-8"?>
<!-- Generator: Adobe Illustrator 27.6.1, SVG Export Plug-In . SVG Version: 6.00 Build 0)  -->
<svg version="1.1" id="Layer_1" xmlns="http://www.w3.org/2000/svg" xmlns:xlink="http://www.w3.org/1999/xlink" x="0px" y="0px"
	 viewBox="0 0 375 375" style="enable-background:new 0 0 375 375;" xml:space="preserve">
<style type="text/css">
	.st0{fill:#AAA9B3;}
	.st1{fill:#919099;}
	.st2{fill:#85848C;}
</style>
<circle class="st0" cx="187.8" cy="187.5" r="67.3"/>
<circle class="st1" cx="187.5" cy="187.5" r="60"/>
<g>
	<path class="st2" d="M188.8,150.1c-0.3-0.5-1.1-0.7-1.6-0.4c-0.1,0.1-0.3,0.2-0.3,0.3c-4.9,7.3-8.1,15.3-9.5,24
		c-0.1,0.4-0.3,0.7-0.7,0.9l-3,1.3c-0.6,0.3-1.3,0-1.5-0.6c-0.1-0.2-0.1-0.4-0.1-0.6c1.3-13.2,6.3-24.7,14.9-34.7
		c0.4-0.5,1.1-0.5,1.6-0.1c0,0,0.1,0.1,0.1,0.1c3.9,4.6,7.2,9.6,9.7,15.1c0.7,1.5,0.2,2-1.3,1.6l-4.2-1.1c-0.3-0.1-0.5-0.3-0.7-0.5
		L188.8,150.1z"/>
	<path class="st2" d="M202.6,166.1c-5.8-3.8-12.2-5.1-19-4.1c-1.5,0.2-1.9-0.3-1.2-1.7l1.2-2.5c0.2-0.4,0.5-0.6,0.9-0.6
		c8.2-1,15.4,1,21.7,5.8c7.5,5.8,11.6,13.5,12.1,23c0.1,1.9-0.5,2.2-1.9,0.9c-1.8-1.6-3.1-3.6-3.8-5.9
		C210.7,175.1,207.7,169.4,202.6,166.1z"/>
	<path class="st2" d="M166,173.9c-6,10.2-5.3,20.1,1.9,29.7c0.9,1.2,0.6,1.8-0.9,1.8l-3.1,0.2c-0.4,0-0.8-0.2-1-0.5
		c-11.2-15.9-4.9-34.7,9.9-44.5c0.2-0.1,0.4-0.1,0.5,0.1l0.2,0.2c0.1,0.1,0.1,0.2,0.1,0.4l-1.6,5.1c-0.1,0.2-0.1,0.3-0.3,0.4
		C169.8,169.1,167.5,171.3,166,173.9z"/>
	<path class="st2" d="M202.2,167.4c0.3,0.2,0.4,0.4,0.5,0.7c2.7,12.5-0.2,23.4-8.6,32.6c-0.4,0.4-0.9,0.5-1.4,0.2l-2.4-1.3
		c-0.6-0.3-0.8-1-0.5-1.6c0.1-0.1,0.1-0.2,0.2-0.3c5.9-5.8,8.8-12.9,8.6-21.4c0-2.1-0.7-5.6-2-10.6c-0.4-1.5,0.1-1.8,1.4-1
		L202.2,167.4z"/>
	<path class="st2" d="M197.4,179.4c-0.1,0.6-0.8,1-1.4,0.9c0,0,0,0-0.1,0c-2.9-0.9-5.9-1.3-8.9-1.3c-3.1,0-6.2,0.7-9.2,2.1
		c-4.9,2.2-9.2,5.3-12.7,9.4c-1.1,1.2-1.6,1-1.6-0.6l-0.1-4.8c0-0.3,0.1-0.6,0.4-0.9c9.2-8.5,20-11.5,32.5-9
		c0.4,0.1,0.7,0.3,0.8,0.6C197.6,177,197.7,178.2,197.4,179.4z"/>
	<path class="st2" d="M220.6,205.2c-3.8-7.8-9.1-14.5-15.8-20.1c-0.3-0.2-0.4-0.6-0.4-1l0.3-3.5c0.1-1.4,0.7-1.7,1.8-0.8
		c10.6,8,18.3,18.3,23,30.7c0.2,0.6-0.1,1.3-0.7,1.5c-0.1,0-0.2,0.1-0.3,0.1c-6.2,0.6-12.4,0.7-18.6,0.4c-1.8-0.1-2-0.8-0.7-2l3.1-3
		c0.2-0.2,0.5-0.3,0.7-0.3l6.6-0.3c0.6,0,1.1-0.6,1.1-1.2C220.7,205.5,220.7,205.3,220.6,205.2z"/>
	<path class="st2" d="M188.9,200.3c3.5,2.4,7.7,4.1,12.6,5.1c1.4,0.3,1.6,0.9,0.6,1.9c-1,1-2.1,1.7-3.3,2c-1.3,0.4-2.9,0.2-4.8-0.6
		c-10.4-4.1-17.4-11.7-20.8-22.6c-0.2-0.5,0-1,0.5-1.3l2.3-1.5c0.5-0.4,1.2-0.2,1.6,0.3c0.1,0.1,0.1,0.2,0.2,0.4
		C179.3,190.9,183.1,196.4,188.9,200.3z"/>
	<path class="st2" d="M155.8,206.9c8.7,0.7,17.2-0.6,25.4-3.7c0.3-0.1,0.7-0.1,1,0.1l3,1.8c0.5,0.3,0.7,1,0.4,1.6
		c-0.1,0.1-0.2,0.3-0.3,0.4c-1.2,0.9-2.6,1.5-4,2c-11.2,3.6-22.6,4.6-34.3,2.9c-0.6-0.1-1.1-0.7-1-1.3c0-0.1,0-0.2,0.1-0.3
		c2.4-5.8,5.4-11.2,8.9-16.3c1-1.4,1.7-1.3,2.1,0.4l1.1,4.6c0.1,0.3,0,0.6-0.1,0.9l-3.2,5.4c-0.3,0.6-0.1,1.3,0.4,1.6
		C155.5,206.8,155.6,206.9,155.8,206.9z"/>
	<path class="st2" d="M186.3,213c12.3,0,20.9-5.5,25.6-16.4c0.5-1.2,1.2-1.3,2-0.2l1.5,2.2c0.2,0.3,0.3,0.8,0.1,1.1
		c-7.6,16.6-25.6,22.1-41.7,14.8c-0.2-0.1-0.5-0.2-0.6-0.3c-1.6-1.1-1.5-1.8,0.5-2.1c0.9-0.1,1.8-0.3,2.6-0.5
		C179.7,211,183.4,213,186.3,213z"/>
</g>
</svg>
