<svg xmlns="http://www.w3.org/2000/svg" xml:space="preserve" id="Layer_1" x="0" y="0" style="enable-background:new 0 0 375 375" version="1.1" viewBox="0 0 375 375"><style>.st0{fill:#aaa9b3}.st2{fill:#73737a}</style><path d="M334.9 187.5v3.7c-.6 24.1-7 46.8-17.8 66.7-1.2 2.2-2.4 4.4-3.7 6.5-12.2 19.9-28.9 36.7-48.8 48.8-2.1 1.3-4.3 2.5-6.5 3.8-19.9 10.9-42.6 17.3-66.8 17.9h-7.4c-24.1-.6-46.8-7-66.7-17.8-2.2-1.2-4.3-2.4-6.5-3.7-19.9-12.2-36.7-29-48.9-48.8-1.3-2.1-2.5-4.3-3.7-6.5-10.9-19.9-17.3-42.6-17.9-66.7v-7.5c.6-24.1 7-46.8 17.8-66.7 1.2-2.2 2.4-4.4 3.7-6.5 12.2-20 29-36.7 48.8-48.9 2.1-1.3 4.3-2.5 6.5-3.8 19.9-10.9 42.6-17.3 66.8-17.9h7.4c24.1.6 46.8 7 66.7 17.8 2.2 1.2 4.3 2.4 6.5 3.7 19.9 12.2 36.7 29 48.9 48.8 1.3 2.1 2.5 4.3 3.7 6.5 10.9 19.9 17.3 42.6 17.9 66.7v3.9z" class="st0"/><circle cx="187.5" cy="187.5" r="138.9" style="fill:#c6c5ca"/><path d="M160.4 68.2c-.3.2-.7.2-1.2 0s-1.1-.5-1.8-.9-1.7-1-3.1-1.7c-.1.8 0 1.6.4 2.3.4.7.7 1.2 1 1.7.3.1.6.3 1.1.6.4.2.9.5 1.5.9 1.2.7 2.2 1.1 3.2 1.2-.3.7-.7 1-1 1-.3 0-.6-.1-1.1-.2-.4-.1-.8-.3-1.3-.6s-.9-.5-1.3-.6c-.3-.1-.6-.1-.7.1-.1.2-.1.8.2 1.6l.1.8c.2.7.4 1.4.7 2.2.3.7.5 1.5.7 2.2.1.5.1.9-.2 1.2-.3.3-.6.5-1 .5-.4.1-.7 0-1.1-.1-.1-.1-.2-.2-.3-.5v-.5c.2-.2.2-.5.2-1 0-.7-.2-1.5-.4-2.5-.2-.8-.5-1.7-.9-2.7-.3-.9-.5-1.6-.7-2-.1-.2-.1-.4-.2-.8-.1-.3-.1-.7-.2-1.1-.2-.9-.3-1.7-.5-2.4-.2-.8-.4-1.5-.7-2-.2-.3-.3-.6-.5-.7-.1 0-.1-.1-.1-.2 0-.2 0-.3.1-.3.1-.2.3-.3.5-.5.4-.3 1-.3 1.9.1.5.2 1.1.6 1.8 1l1 .7 1.1.7c.7.5 1.4.9 2 1.2.3.1.5.4.7.8.3.2.3.4.1.5zM301 225.7c.3 0 .5-.2.8-.5l.3-.6c.1-.3.3-.5.5-.7.3-.2.7-.6 1.3-1.1.6-.6 1.1-1 1.7-1.3.1 0 .2-.1.4-.1s.3.1.5.4c.2.6.5 1.3.8 2l.4 1 .4 1c.2 0 .4-.1.6-.1.2 0 .4 0 .5-.1.7-.9 1.5-1.8 2.3-2.5.8-.7 1.8-1.5 2.9-2.2-.1-1-.6-1.8-1.5-2.2-.2-.1-.4-.3-.7-.5-.2-.2-.5-.3-.7-.2-.2 0-.5.1-1 .1-.4 0-.7 0-1-.1-1.4-.4-3-.7-4.9-1.1l-5.1-1.2c-.4-.1-.6-.2-.7-.4-.1-.1-.2-.3-.4-.5-.1-.1-.3-.3-.6-.3-.3-.1-.5-.1-.7 0-.2 0-.4.1-.6.3-.2.1-.3.3-.3.5 0 .5.2.9.6 1.4.4.4.7 1 .7 1.5.1.9.4 2.2 1 3.8.6 1.7 1.1 2.9 1.7 3.8.3-.1.4-.1.8-.1zm9.5-5.7c-.2.4-.4.7-.5 1-.1.3-.3.7-.5 1-.2.2-.4.4-.7.6-.3.2-.5.4-.7.6-.2-.4-.4-.7-.6-1.2-.3-.4-.4-.8-.5-1-.1-.3-.1-.6 0-1l.3-1c.5.1 1.1.3 1.7.4l1.5.6zm-10.5 2.5c-.3-.9-.6-1.8-.8-2.8-.1-.5-.2-1-.3-1.4-.1-.5-.2-.9-.3-1.3l1.4.3 1.5.3c1 .2 2 .4 2.9.6 0 .1.1.2.2.5.1.2.2.4.1.5-.3.3-.8.7-1.5 1.3-.7.6-1.3 1.1-1.7 1.6-.2.2-.5.4-.8.4-.4.1-.7.1-.7 0zM110 101.8c-1.3-1.1-2.7-2.3-4-3.6-1.4-1.3-2.7-2.5-3.9-3.7.1-.1 0-.5-.1-1.1 0-.4-.1-.7-.3-1-.2-.3-.3-.4-.4-.4-.4.2-.7.3-.9.3-.2 0-.4.2-.8.5-.2.2-.4.4-.6.8-.2.4-.3.7-.2.8.1.3.4.5.7.7.4.2.6.4.8.5.1.1.2.4.4 1 .1.5.3 1.2.4 1.8l.2 1 .1.5.1.4c.1.5.1.8.2 1-.9 0-1.8 0-2.8-.1l-1.6-.2-1.5-.2c-.4 0-.8-.1-1.4-.2-.4-.1-.8-.1-1.2-.2-.7-.1-1.1-.1-1.1-.1-.3.5-.3 1 .1 1.6.5.3 1 .5 1.4.6.4.1.7.1 1 .1 1.5 1.5 3 3 4.6 4.4 1.6 1.5 2.8 2.6 3.5 3.6.1.3.2.6.2.9v.5c0 .1.1.3.2.5s.2.3.3.4c.1.1.3.1.6.1s.5-.1.6-.2c.1-.1.2-.4.2-.8v-.9c-.1-.2-.2-.5-.5-.8-.3-.4-.4-.7-.4-1 0-.7-.1-1.6-.2-2.6-.1-.9-.2-2-.4-3.3 1.3.2 2.7.4 4.2.5 1.6.1 2.5.2 2.8.4.1.3.4.5.7.7.3.2.6.3.9.2.4-.1.6-.1.7-.1.1 0 .2-.1.3-.4.3-.6.3-1 0-1.3-.3-.3-.6-.7-.8-1.2-.8.1-1.4 0-2.1-.4zm-7.3 4.8c.2 1.2.2 1.9-.1 2.1-1.3-1.5-2.4-2.5-3.2-3.2-.7-.7-1.6-1.5-2.6-2.5 1-.1 2 0 2.9.1.9.2 1.8.3 2.6.4.1.8.2 1.9.4 3.1zm2.7-4.7c-.9-.2-1.9-.3-2.9-.5-.2-1-.4-1.9-.5-2.7l-.2-1.2-.2-1.2 2.7 2.4c.8.8 2.1 2 3.8 3.4-.8.1-1.7 0-2.7-.2zM214.4 302.8c-1.4-1.3-2.3-2.1-2.6-2.5-.3-1-.1-1.7.5-2.3.6-.5.9-.7.9-.4 0 .7.5 1.5 1.5 2.5s2.2 2 3.8 3c.3-.4.5-.5.6-.5 0-.2.1-.4.1-.8.3-2.5.7-4.3 1.1-5.3.4-1 1.1-1.4 2.2-1-.2.4-.4.8-.7 1.2-.3.5-.5.8-.5 1.1-.6 2.6-1 4.5-1.1 5.5-.1 1 .1 1.7.7 2 .1.1.8.6 2.1 1.6 1.2 1 2.4 2 3.4 3 .4 1.4.3 2.2-.2 2.5-.5.2-.9.3-1.4.3-.2-.6-.6-1.2-1.3-2-.7-.8-1.2-1.2-1.4-1.4-.3-.3-.6-.6-.9-1-.3-.4-.6-.6-.8-.8-.3-.2-.5-.2-.6 0-.2.2-.3.7-.4 1.5-.1.7-.4 1.8-.7 3.3.2 1.1-.1 1.8-.9 2.2-.7.4-1.4.7-1.9.8l-.2-1.7c.7-.1 1.4-.9 2-2.5.6-1.7.9-3.2 1.1-4.6l-4.4-3.7zM98.4 270.7l-2.6 2.6c-.8.8-1.6 1.4-2.3 1.6-.7.2-1.1.4-1.2.5 0 .4.1.7.4.9.3.3.6.5 1 .6.4.1.7.2 1.1.2.3 0 .5-.2.6-.4.5-.6 1-1.4 1.7-2.3.6-.8 1.3-1.7 2.1-2.6l.6 2 .5 2.5c.2.8.1 1.5-.1 2.1-.2.5-.3.8-.3.9-.3.2-.5.4-.8.5-.3.1-.5.2-.6.4l-.1.1-.1.1-.1.3-.1.2c0 .1 0 .3.1.4.3.2.5.4.7.5.4.1.7.2 1.1.2.3 0 .5-.1.5-.3.5-.6 1.1-1.4 1.7-2.3.6-.9 1.3-1.7 2.1-2.6.4-.5 1.2-1.3 2.3-2.4 1.2-1.1 2-1.8 2.4-2.1.8-.6 1.7-1 2.7-1.1 0-.4-.1-.7-.3-1.1s-.6-.5-.9-.7c-.4-.1-.8-.1-1.2 0-.4.1-.7.4-1 .9l-3.2 3.6c-.2-.3-.3-.6-.5-.8-.3-.6-.6-1.3-.9-2-.3-.7-.5-1.4-.6-2.1v-.9c.3-.3.4-.5.5-.6l.2-.2c.8-.6 1.7-1 2.7-1.1 0-.4-.1-.7-.3-1.1-.3-.3-.6-.5-.9-.7-.4-.2-.7-.2-1.2 0-.4.1-.7.4-1 .9l-4.7 5.4zm4.3.6.7 2.2c.2.7.3 1.4.2 1.9v.4l-1.2 1.2c-.1-.3-.2-.5-.3-.8-.3-.7-.6-1.5-.8-2.3-.2-.8-.3-1.6-.3-2.3 0-.2.4-.8 1.1-1.8l.6 1.5zM302.9 163.4c-.3-.2-.4-.2-.4-.3l-1.2-.8c-.4-.2-.8-.5-1.3-.9s-1.1-.7-1.6-1c-.5-.3-1-.6-1.5-.8-.2-.1-.3-.1-.4-.1h-.1l-.5-.2c0-.3.1-.7.4-1 .2-.3.5-.5.8-.7.4-.1.8-.1 1.3.2.4.2 1 .6 1.7 1 .8.4 1.4.8 2 1.1.3.2.7.4 1.2.8.3-.5.5-1 .7-1.3.3-.6.7-1.2 1.1-2 .4-.7.8-1.3 1-1.7.3-.5.6-.7 1-.8.3 0 .6 0 1 .2.4.1.6.4.8.7l-.3.4-.1.1-.1.1-.2.2c-.3.4-.6.8-.9 1.4-.3.5-.6 1.1-.9 1.7-.3.5-.5 1-.7 1.4-.3.6-.6 1.1-.8 1.6l-.1.2c0 .1 0 .1-.1.2-.1.2-.3.3-.5.3-.6.2-1 .2-1.3 0z" class="st2"/><path d="M304 157.1c-.3.5-.6.7-1 .8-.3.1-.7 0-1-.2-.4-.1-.6-.4-.8-.7l.3-.4.1-.1.3-.3c.3-.4.6-.8.9-1.4.3-.5.6-1.1.9-1.7.3-.5.5-1 .7-1.4l.7-1.3c0-.1.1-.2.2-.5.2-.4.4-.6.8-.6.2 0 .4 0 .6.1l.2.1h.1l.1.1c.6.3 1.1.6 1.6 1 .4.2.8.5 1.3.9s1.1.7 1.6 1c.5.3 1 .5 1.5.7.2.1.4.1.5.1h.1l.5.2c0 .3-.1.7-.3 1-.2.3-.5.6-.8.7-.3.1-.7.1-1.2-.2-.4-.2-1-.5-1.7-1-.7-.4-1.4-.8-1.9-1.1-.3-.2-.8-.5-1.2-.8-.3.5-.5.9-.7 1.3-.3.6-.7 1.2-1.1 1.9-.7.9-1 1.4-1.3 1.8zM149 308.3c-.4.4-.9.5-1.4.4-.6.4-.7.8-.4 1.1.3.3.7.5 1.2.6.6.1 1.1.1 1.5 0 .5-.1.6-.3.4-.7.3-.2.8-.4 1.3-.7.4-.3 1-.7 1.6-1 .6-.4 1.1-.6 1.5-.8.5-.2.7-.2.8-.1.2.2.5.8 1 1.6s1 1.6 1.6 2.4c.6.8 1.2 1.5 1.8 2 .6.6 1.2.8 1.7.6.3-.5.5-.8.5-1 0-.1 0-.3-.1-.3-.1-.1-.3-.1-.4-.2-.2-.1-.3-.3-.3-.7.5-3.9 1.1-7 1.7-9.3.7-2.3 1.6-3.6 2.8-3.8.2 0 .2-.4 0-1-.3-.7-.8-.7-1.7-.3-.8.4-1.3.6-1.4.6-.3.7-.5 1.5-.8 2.2-.3.7-.6 1.6-.8 2.5-1 .6-1.9 1.2-2.7 1.7-.7.5-1.4.9-2.1 1.1-.4-.4-.8-.9-1.3-1.6-.5-.7-1-1.6-1.5-2.7 0-1 .2-2.2.8-3.6.6-1.4 1-2.4 1.2-2.9-.4-.1-.8-.1-1.3-.1h-1.6c-.1.4-.2 1.3-.4 2.5-.1.5-.1 1-.3 1.7-.1.6-.2 1.2-.2 1.8-.2 1.3-.5 2.5-.7 3.6-.2 1.2-.5 2.1-.8 2.9-.4.5-.7 1.1-1.2 1.5zm8-2.5.3-.2c.2-.2.5-.4.7-.6.5-.4 1-.7 1.5-1 .4-.2.8-.3 1-.1.2.2.1.7-.3 1.6-.1.3-.2.8-.3 1.5-.1.6-.1 1.1-.2 1.6s-.2.7-.3.8c-.1.1-.3-.2-.6-.9-.1-.2-.4-.6-.9-1.1-.5-.5-.8-1-1-1.5l.1-.1zm-5.2.2c.1-.5.3-1 .4-1.3.2-.4.3-.6.5-.7.2-.1.4.1.7.6.1.1.3.3.6.5.4.2.5.6.6 1.3-.3.1-.9.4-1.6.9-.7.5-1.3.5-1.7 0 .3-.4.4-.8.5-1.3zM221.6 72.1c.4-.4.9-.7 1.3-1.1.4-.3.8-.6 1.1-.8 0 0 .1 0 .1-.1l.2-.1h.1l.2-.1c.1-.1.2-.2.2-.3v-.4l-.1-.2h-.1l-.1-.2-.1-.1c-.2-.4-.4-.8-.6-1.3-.2-.5-.4-1-.6-1.6-.2-.5-.3-.9-.4-1.3l-.6-1.5v-.1l-.1-.1c-.1-.2-.2-.2-.3-.3-.2 0-.4 0-.6.2l-.3.3-1 .9c-.3.3-.7.6-1 .9-.5.4-.9.7-1.3 1.1-.4.3-.8.6-1.2.8h-.1l-.4.2c-.2.1-.2.2-.2.3 0 .1 0 .2.1.4l.1.2.1.2v.1c.2.3.4.8.6 1.3.2.5.4 1 .6 1.6.2.5.3.9.4 1.3l.3.8-.6.6c-.3.3-.7.6-1 .9-.5.4-.9.7-1.3 1.1-.4.3-.8.6-1.2.8-.2.1-.3.2-.4.2h-.2c-.1.5-.1.8 0 .9.2.3.3.5.6.5h.1c.2.1.5 0 .8-.2.3-.2.7-.6 1.3-1 .6-.5 1.1-.9 1.6-1.2.3-.2.6-.5 1.1-.9.2.6.3 1 .5 1.4.2.5.4 1.1.7 1.8.3.7.5 1.2.7 1.6.2.3.3.6.6.6h.1c.2 0 .5 0 .7-.2.2-.1.3-.4.4-.8h-.1l-.1-.1c-.1-.1-.1-.2-.2-.4-.2-.3-.4-.8-.6-1.3-.2-.5-.4-1-.6-1.6-.2-.5-.3-1-.4-1.3l-.3-.8.6-.5c.1-.5.4-.8.9-1.1zm-1.3-1.1c-.3.2-.6.5-1.1.9-.2-.6-.3-1-.5-1.4-.2-.5-.4-1.1-.7-1.8-.2-.4-.3-.8-.4-1.1.2-.2.5-.5.9-.7.6-.5 1.1-.9 1.6-1.2.3-.2.6-.5 1.1-.9.2.6.3 1 .5 1.4.2.5.4 1.1.7 1.8.2.4.3.8.5 1.1-.3.2-.6.4-1 .7-.7.5-1.2.9-1.6 1.2zM68.9 213c-.2 0-.3.2-.4.4 0 .1 0 .1-.1.2v.2l-.5 1.7c-.1.3-.2.8-.4 1.5-.2.6-.4 1.2-.6 1.7-.2.6-.4 1-.6 1.4 0 .1-.1.2-.1.2l-.1.1c-.2.4-.2.6-.2.6-.6.1-1.1 0-1.6 0-.9-.1-1.4-.2-1.6-.1-.3.3-.4.7-.2 1.1.1.4.3.8.6 1.1.3.3.6.6 1 .7.4.1.6.1.8 0 .9-.3 2-.8 3.3-1.4 1.2-.5 2.5-1 3.9-1.4 1.3-.4 2.7-.7 3.9-.9 1.3-.2 2.5 0 3.5.3.3-.3.4-.7.3-1.2-.1-.4-.2-.8-.5-1.1-.3-.3-.7-.5-1.2-.6-.5-.1-1 0-1.6.3l-.6.3-.5-.2h-.1c-.1 0-.1-.1-.2-.1-.4-.2-.8-.6-1.2-1-.4-.4-.9-.8-1.4-1.2-.5-.4-.8-.8-1.1-1.1l-1-1-.4-.4c-.5-.1-.8-.2-1.1-.1zm1.9 4.1c.4.4 1 .9 1.6 1.4.3.2.5.4.7.6l-1.1.4-3.6 1c.1-.3.2-.6.4-1 .3-.7.5-1.4.7-2 .1-.3.2-.7.4-1.2.4.3.7.6.9.8zM264.2 274.1c.3.1.7 0 1.1 0 .4-.1.7-.2.9-.4h2c.5 0 1.2 0 2.1.2 1 .1 1.6.1 1.8.1h.2l.1.1h.2c.1 0 .3.1.5.1.1.6.2 1.3.3 1.9v.9c-.1 1.8.1 2.8.6 2.9.2.1.6.1 1 0l.6-.1.7-.2c.5-.1.9-.2 1.1-.2.1 0 .2 0 .3-.1.2 0 .3-.1.5-.1l1.5-.3c1.3-.3 2.1-.6 2.3-.8.1-.1.1-.2.1-.4 0-.3-.2-.6-.6-1l-.5-.5c-.1-.1-.3-.2-.4-.4-.5-.4-1-.9-1.5-1.4-.5-.6-1-1.1-1.4-1.7-.5-.6-.8-1-1.1-1.2-.3-.3-.9-.8-1.6-1.4-.8-.7-1.5-1.3-2.1-1.8-.7-.7-1.2-1.3-1.5-1.8-.7-1.1-1.2-1.5-1.6-1.3-.1 0-.1.1-.2.1l-.2.1c-.1 0-.2 0-.2.1-.1.1-.1.2-.1.3-.1.4-.2.9-.1 1.4.1.5.3.9.7 1.1.3.2.5.5.9.8.3.3.7.6 1.1 1 .8.7 1.5 1.3 2.1 1.9h-.2c-.4 0-.9 0-1.5.1-.7 0-1.6-.1-2.8-.2-.6-.1-1.2-.1-1.8-.1-.6-.1-1.1-.1-1.6-.1h-1.2c-.7 0-1.1.1-1.3.3-.1.1-.1.2-.1.2-.1.7 0 1.3.3 1.8.1-.1.3 0 .6.1zm10.5-1.5c.7.6 1.4 1.3 2.1 1.9.7.7 1.4 1.3 2 2.1-.6.1-1.1.2-1.6.4s-1.2.3-1.9.4c-.2-.9-.3-1.7-.4-2.6 0-.7-.1-1.4-.2-2.2zM278.3 105.9l-5.7 1-3.1.8s-.2.1-.5.2c-.2.1-.3.1-.5.2l-.5.2c-1 .4-1.5.4-1.6.1-.2-.6-.4-1-.4-1.1-.1-.5.3-.9 1.3-1.2.3-.1.7-.2 1.1-.3.3 0 .6-.1.8-.1.4-.1 1-.3 1.6-.4l1-.2 1.1-.2c.7-.1 1.3-.3 2-.5.6-.2 1-.3 1.2-.5.3-.3 0-.7-.8-1.2-.8-.6-1.7-1.1-2.6-1.7-.9-.6-1.7-1.1-2.3-1.6-.6-.5-.5-.7.3-.8 1-.1 2.4-.5 4.1-1.1 1.7-.7 3.1-1.3 4.2-2 .5-.3 1-.2 1.3.2.4.4.6.7.6.7 0 .1 0 .2.1.2l.1.1c.1.1 0 .2-.1.4s-.6.4-1.3.5l-.4.1-.5.1c-.4 0-.7.1-.8.1-.6.2-1.4.5-2.6.9-.8.3-1.3.5-1.5.6.3.1 1.1.7 2.3 1.6 1.2.9 2.1 1.6 2.8 2 .8.2 1 .8.7 1.6-.4.9-.8 1.3-1.4 1.3zM72.5 150.2c.3.4.3.7 0 1-.3.2-.8.4-1.4.7-.2.1-.5.2-.8.4l-.7.4c-.6.3-1 .5-1.3.6-.9.2-1.5.4-1.8.6-.3.2-.3.3 0 .5s1.2.4 2.5.7l.7.1c1.2.3 2.3.6 3.2.8l2.7.7c.3.1.8.2 1.4.3l.7.2.7.2c1.1.3 1.6.5 1.6.8 0 .6-.1 1.2-.3 1.7-.1.2-.5.2-1.2-.1l-.8-.4c-.3-.2-.5-.3-.6-.3l-2-.5c-.7-.2-1.5-.4-2.6-.7-1-.3-2.1-.6-3.3-.9-1.2-.3-2.2-.6-3.2-.7-.6-.1-1-.2-1.2-.2.4.4.6.7.7.9.1.1.1.2.2.3.1.2.3.3.4.6.4.6 1 1.4 1.8 2.5.1.2.2.3.2.5l.2.4c.1.3.2.5.2.6 0 0 0 .1.1.3l.1.2.1.2c.2.4.2.6.2.8-.1.3-.3.3-.6 0-.3-.2-.7-.6-1.2-1.1-.5-.5-.9-1-1.4-1.7-.5-.6-.9-1.2-1.2-1.8-.9-1.5-1.6-2.6-2.2-3.2-.6-.6-.9-1.1-1-1.3-.1-.3.1-.5.7-.6.5-.1 1.4-.5 2.7-1 0-.1.2-.2.6-.3.4-.1.8-.3 1.2-.4l.6-.2.6-.2c.4-.1.7-.2.7-.2.2-.1.5-.2 1-.3l.6-.2.6-.2c.9-.9 1.5-.8 1.8-.5z" class="st2"/><path d="M191.2 40.1v294.7h-7.4V40.1h7.4z" class="st0"/><path d="m117.1 317 66.7-115.6 3.7-6.5 1.4-2.4.8-1.4.6-1 1-1.7.6-1 .8-1.4 1.4-2.4 3.7-6.5 66.7-115.6c-2.1-1.3-4.3-2.5-6.5-3.7l-66.7 115.6-3.7 6.5-1.4 2.4-.8 1.4-.6 1-1 1.7-.6 1-.8 1.4-1.4 2.4-3.7 6.5-66.7 115.6 6.5 3.7z" class="st0"/><path d="m317 117-115.6 66.7-6.5 3.7-2.4 1.4-1.4.8-1 .6-1.7 1-1 .6-1.4.8-2.4 1.4-6.5 3.7-115.4 66.8c-1.3-2.1-2.5-4.3-3.7-6.5l115.6-66.7 6.5-3.7 2.4-1.4 1.4-.8 1-.6 1.7-1 1-.6 1.4-.8 2.4-1.4 6.5-3.7 115.6-66.7c1 2.1 2.3 4.2 3.5 6.4z" class="st0"/><path d="M334.9 187.5v3.7H40.1v-7.5h294.8v3.8z" class="st0"/><path d="m317 257.9-3.7 6.5-115.6-66.7-6.5-3.7-2.4-1.4-1.4-.8-1-.6-1.7-1-1-.6-1.4-.8-2.4-1.4-6.5-3.7L58 117.1c1.2-2.2 2.4-4.4 3.7-6.5l115.6 66.7 6.5 3.7 2.4 1.4 1.4.8 1 .6 1.7 1 1 .6 1.4.8 2.4 1.4 6.5 3.7L317 257.9z" class="st0"/><path d="M264.5 313.2c-2.1 1.3-4.3 2.5-6.5 3.8l-66.8-115.6-3.7-6.5-1.4-2.4-.8-1.4-.6-1-1-1.7-.6-1-.8-1.4-1.4-2.4-3.7-6.5-66.7-115.3c2.1-1.3 4.3-2.5 6.5-3.8l66.8 115.6 3.7 6.5 1.4 2.4.8 1.4.6 1 1 1.7.6 1 .8 1.4 1.4 2.4 3.7 6.5 66.7 115.3z" class="st0"/></svg>