<svg xmlns="http://www.w3.org/2000/svg" xml:space="preserve" id="Layer_1" x="0" y="0" style="enable-background:new 0 0 375 375" version="1.1" viewBox="0 0 375 375"><style>.st0{fill:#aaa9b3}.st2{fill:#73737a}</style><circle cx="187.5" cy="187.5" r="184.8" class="st0"/><circle cx="187.5" cy="187.5" r="177.9" style="fill:#c6c5ca"/><circle cx="187.5" cy="187.5" r="147.4" class="st0"/><path d="M158.7 352.3c2.4.4 4.9.8 7.4 1.1l-1.6 10.4-7.4-1.1 1.6-10.4zM217.9 12.2l-1.6 10.3c-2.4-.4-4.9-.8-7.4-1.1l1.6-10.3 7.4 1.1zM86 320.4l-6.7 8.4-5.8-4.7 6.7-8.4c1.9 1.6 3.9 3.2 5.8 4.7zM301.5 50.9 295 59c-1.9-1.6-3.9-3.1-5.8-4.7l6.5-8.1 5.8 4.7zM30.5 244.9c.9 2.3 1.8 4.7 2.7 7l-10 3.9-2.7-7 10-3.9zM354.5 126.2l-9.5 3.7c-.9-2.3-1.8-4.7-2.7-6.9l9.5-3.7 2.7 6.9zM12.2 157.1l10.6 1.6c-.4 2.4-.8 4.9-1.1 7.4l-10.6-1.6 1.1-7.4zM363.9 210.5l-1.1 7.4-10.1-1.5c.4-2.4.8-4.9 1.1-7.4l10.1 1.5zM50.9 73.5l8.4 6.7c-1.6 1.9-3.1 3.9-4.7 5.8l-8.4-6.7 4.7-5.8zM328.8 295.6l-4.7 5.8-8.1-6.4c1.6-1.9 3.2-3.9 4.7-5.8l8.1 6.4zM126.1 20.5l3.8 9.8c-2.3.9-4.7 1.8-6.9 2.7l-3.8-9.8 6.9-2.7zM255.8 351.8l-7 2.7-3.8-9.7c2.4-.8 4.7-1.8 7-2.7l3.8 9.7zM120.8 341c2.3 1 4.6 1.9 6.9 2.8l-4 9.8-6.9-2.8 4-9.8zM258.2 24.2l-3.9 9.6c-2.3-1-4.6-1.9-6.9-2.8l3.9-9.7 6.9 2.9zM57.7 292.9l-8.5 6.6-4.6-5.9 8.5-6.6c1.5 2 3 3.9 4.6 5.9zM330.3 81.5l-8.2 6.3c-1.5-2-3-4-4.6-5.9l8.2-6.3 4.6 5.9zM21.4 206.5c.3 2.5.6 4.9 1 7.4l-10.6 1.5-1-7.4 10.6-1.5zM364.2 167.1l-10.1 1.4c-.3-2.5-.6-4.9-1-7.4l10.1-1.4 1 7.4zM24.2 116.8l9.9 4.1c-1 2.3-1.9 4.6-2.8 6.9l-9.9-4.1 2.8-6.9zM353.6 251.3l-2.8 6.9-9.5-3.9c1-2.3 1.9-4.6 2.8-6.9l9.5 3.9zM81.4 44.7l6.6 8.5c-2 1.5-4 3-5.9 4.6l-6.6-8.5 5.9-4.6zM299.5 325.8l-5.9 4.6-6.3-8.2c2-1.5 4-3 5.9-4.6l6.3 8.2zM167 10.8l1.4 10.5c-2.5.3-4.9.6-7.4 1l-1.4-10.5 7.4-1zM215.4 363.2l-7.4 1-1.4-10.3c2.5-.3 5-.6 7.4-1l1.4 10.3z" class="st0"/><path d="M151 26.8c-.4.3-.9.3-1.6.1-.6-.2-1.4-.6-2.4-1.3-.9-.6-2.3-1.3-4.1-2.2-.2 1.1 0 2.2.5 3.1.5.9.9 1.7 1.3 2.3.4.2.8.4 1.4.8.6.3 1.3.7 2.1 1.2 1.6.9 3 1.5 4.3 1.6-.5 1-.9 1.4-1.3 1.3-.4 0-.9-.1-1.4-.3-.5-.1-1.1-.4-1.8-.8-.6-.4-1.2-.7-1.7-.8-.5-.2-.8-.1-1 .1-.2.3-.1 1 .3 2.2l.2 1.1c.3 1 .6 1.9.9 2.9.4 1 .7 1.9.9 2.9.2.7.1 1.2-.3 1.6-.4.4-.8.6-1.3.7-.5.1-1 0-1.5-.2-.2-.1-.3-.3-.4-.7 0-.4 0-.6.1-.7.2-.3.3-.7.3-1.3-.1-1-.2-2.1-.6-3.3-.3-1.1-.7-2.3-1.2-3.6l-.9-2.7v-.1c-.1-.3-.1-.6-.2-1s-.2-.9-.2-1.5c-.2-1.1-.4-2.2-.7-3.3-.2-1-.5-1.9-.9-2.7-.2-.5-.4-.8-.7-.9-.1 0-.1-.2-.1-.3 0-.2 0-.3.1-.4l.7-.7c.5-.4 1.4-.3 2.6.1.7.3 1.5.8 2.4 1.4l1.3.9 1.4.9c1 .6 1.9 1.1 2.7 1.5.4.2.7.6.9 1.1.2.6.2.9-.1 1zM339.7 238.3c.4 0 .7-.3 1.1-.7.2-.3.3-.6.4-.9.1-.4.4-.7.7-.9.4-.2.9-.7 1.7-1.5.7-.7 1.5-1.3 2.3-1.8.2-.1.3-.1.5-.1s.4.1.6.5c.3.8.7 1.7 1.1 2.7l.5 1.4.5 1.4c.3-.1.5-.1.8-.1.3 0 .5-.1.6-.2.9-1.2 2-2.4 3.1-3.4s2.4-2 4-3c-.1-1.4-.7-2.4-2-3l-.9-.6c-.3-.3-.6-.4-.9-.3-.3 0-.7.1-1.4.1-.5 0-.9 0-1.3-.1-1.9-.5-4.1-1-6.5-1.5-2.3-.5-4.6-1-6.8-1.6-.5-.1-.8-.3-.9-.6-.1-.2-.2-.4-.5-.7-.1-.2-.4-.4-.7-.5-.4-.1-.7-.1-1-.1-.3 0-.6.2-.8.3-.3.1-.4.4-.4.7 0 .6.3 1.3.8 1.9.6.6.9 1.3 1 2 .1 1.2.6 2.9 1.3 5.1.8 2.2 1.5 3.9 2.3 5.1.2.4.4.5.8.4zm12.9-7.6c-.3.5-.5 1-.7 1.3-.2.5-.4.9-.7 1.3l-.9.9c-.3.2-.7.5-1 .9-.3-.5-.6-1-.9-1.6-.4-.5-.6-1-.7-1.4-.1-.4-.1-.8 0-1.3l.3-1.3c.7.2 1.5.4 2.3.6l2.3.6zm-14.2 3.3c-.4-1.2-.8-2.5-1.1-3.7-.2-.7-.3-1.3-.5-1.9-.2-.6-.3-1.2-.5-1.7l1.9.4 2 .4c1.3.3 2.7.6 3.9.9 0 .1.1.3.3.6.2.3.2.5.1.6-.4.4-1.1 1-2 1.7-1 .8-1.7 1.5-2.3 2.2-.3.3-.7.5-1.1.6-.3.1-.6 0-.7-.1zM83.3 71.9c-1.8-1.5-3.6-3.1-5.4-4.8-1.8-1.7-3.6-3.4-5.2-5 .1-.2.1-.6-.2-1.4 0-.5-.2-1-.4-1.3-.2-.4-.4-.6-.6-.5-.5.2-.9.4-1.2.4-.2 0-.6.2-1 .7-.2.2-.5.6-.8 1.1-.3.5-.4.9-.3 1.1.2.4.5.7.9.9.5.2.8.5 1.1.7.1.1.3.6.5 1.4.2.7.4 1.6.6 2.5l.3 1.3.1.6.1.6c.1.6.2 1.1.2 1.3-1.2.1-2.4 0-3.8-.1l-2.1-.3-2-.3c-.5 0-1.1-.1-1.8-.2-.6-.1-1.1-.2-1.6-.3-1-.1-1.5-.2-1.5-.1-.5.6-.4 1.3.1 2.1.7.5 1.3.7 1.9.8.5.1 1 .1 1.4.1 2 2 4 4 6.1 5.9 2.1 1.9 3.7 3.6 4.7 4.8.2.4.3.8.3 1.2v.7c0 .1.1.4.3.7.2.3.3.5.4.5.1.1.4.2.8.2s.6-.1.8-.3c.1-.1.2-.5.3-1.1v-1.2c-.1-.2-.3-.6-.7-1.1-.4-.5-.6-1-.6-1.4 0-1-.1-2.2-.3-3.5-.1-1.2-.3-2.7-.6-4.4 1.7.3 3.6.5 5.7.7 2.1.2 3.4.3 3.8.5.2.4.5.7 1 1 .4.3.8.4 1.2.2.5-.1.8-.2.9-.2.1 0 .3-.2.4-.5.4-.8.5-1.4 0-1.8-.4-.4-.8-.9-1-1.6-1 .1-1.9-.1-2.8-.6zm-9.8 6.5c.3 1.6.3 2.6-.1 2.8-1.8-1.9-3.2-3.4-4.2-4.3-1-.9-2.1-2-3.5-3.4 1.4-.1 2.7-.1 3.8.2 1.2.3 2.4.4 3.5.5.1 1.2.2 2.6.5 4.2zm3.6-6.3c-1.2-.2-2.5-.4-3.9-.6-.3-1.3-.5-2.5-.7-3.6l-.3-1.6-.2-1.8c1.3 1.1 2.5 2.2 3.7 3.3 1.1 1.1 2.8 2.6 5.1 4.6-1.1 0-2.3-.1-3.7-.3zM223.5 341.9c-1.9-1.8-3.1-2.9-3.5-3.3-.4-1.3-.1-2.3.7-3.1.8-.7 1.2-.9 1.2-.5 0 .9.7 2 2 3.4s3 2.7 5.1 4c.4-.5.7-.7.8-.6 0-.2.1-.6.1-1 .4-3.4.9-5.8 1.4-7.2.5-1.4 1.5-1.8 3-1.4-.2.5-.5 1-.9 1.7-.4.6-.6 1.1-.7 1.5-.9 3.6-1.4 6-1.5 7.4-.2 1.4.1 2.3.9 2.7.2.1 1.1.8 2.8 2.2 1.7 1.4 3.2 2.7 4.6 4 .5 1.9.4 3-.2 3.3-.7.3-1.3.5-1.8.4-.2-.8-.8-1.7-1.8-2.7-.9-1-1.5-1.7-1.9-1.9-.4-.4-.8-.8-1.3-1.4-.4-.5-.8-.9-1.1-1.1-.4-.3-.6-.3-.9 0-.3.2-.5.9-.6 2-.2 1-.5 2.5-1 4.5.3 1.5-.1 2.5-1.2 3-1 .5-1.8.9-2.5 1.1l-.3-2.2c1-.1 1.8-1.3 2.6-3.4.8-2.2 1.3-4.3 1.4-6.2l-5.4-5.2zM67.8 298.8l-3.5 3.5c-1.1 1.1-2.2 1.8-3.1 2.2-1 .3-1.5.6-1.6.7 0 .5.1.9.5 1.3s.8.7 1.3.8c.5.2 1 .3 1.5.2.4 0 .7-.2.8-.5.6-.8 1.4-1.8 2.3-3.1.8-1.1 1.7-2.3 2.8-3.5l.9 2.7.7 3.4c.2 1.1.2 2.1-.2 2.8-.3.7-.4 1.1-.4 1.2-.3.3-.7.5-1 .6-.4.2-.7.3-.9.5l-.1.1-.1.1-.1.1-.1.3-.1.3c0 .2 0 .4.2.5.4.3.7.5.9.7.5.2 1 .2 1.4.2.4 0 .7-.2.7-.4.6-.8 1.4-1.9 2.3-3.1.9-1.2 1.8-2.3 2.8-3.5.6-.7 1.6-1.7 3.1-3.2 1.6-1.5 2.7-2.5 3.2-2.9 1.1-.9 2.3-1.3 3.6-1.4 0-.5-.1-1-.4-1.4s-.8-.7-1.2-.9c-.5-.2-1-.2-1.6 0-.5.1-.9.5-1.3 1.2l-4.3 4.8c-.2-.4-.5-.7-.7-1.1-.4-.8-.9-1.7-1.2-2.6-.4-.9-.6-1.9-.8-2.8v-1.2c.3-.4.6-.7.6-.8l.3-.2c1.1-.9 2.3-1.3 3.6-1.5 0-.5-.1-1-.5-1.4-.3-.4-.8-.7-1.2-.9-.5-.2-1-.2-1.6 0-.5.1-1 .5-1.3 1.2l-6.2 7zm5.7.8 1 3c.3 1 .4 1.8.2 2.5 0 .2 0 .3-.1.5l-1.7 1.7c-.1-.4-.3-.7-.4-1.1-.4-1-.8-2-1.1-3-.3-1.1-.4-2.1-.4-3.1 0-.3.5-1.1 1.5-2.4l1 1.9zM342.3 154.6c-.4-.2-.6-.3-.6-.4l-1.6-1.1c-.5-.3-1.1-.7-1.8-1.2s-1.4-.9-2.1-1.3c-.7-.4-1.4-.8-2-1-.3-.1-.5-.2-.6-.2h-.2l-.7-.3c0-.5.1-.9.5-1.3.3-.4.7-.7 1.1-.9.5-.2 1.1-.1 1.7.2.5.3 1.3.8 2.3 1.3 1 .6 1.9 1.1 2.6 1.5.4.2 1 .6 1.6 1.1.3-.7.6-1.3.9-1.7.4-.8.9-1.7 1.5-2.6.6-1 1.1-1.8 1.4-2.3.4-.6.9-1 1.4-1.1.4 0 .9 0 1.4.2.5.2.9.5 1 .9l-.4.6-.1.1c-.1 0-.1.1-.2.2s-.2.2-.2.3c-.4.5-.8 1.1-1.2 1.9-.4.7-.9 1.5-1.2 2.2-.3.7-.6 1.4-.9 1.9-.4.8-.8 1.5-1.1 2.2l-.1.2v.1c0 .1 0 .1-.1.2-.2.2-.4.4-.6.5-.7.2-1.2.1-1.7-.2z" class="st2"/><path d="M343.9 146.2c-.4.6-.8 1-1.3 1-.4.1-.9 0-1.4-.2-.5-.2-.8-.5-1-.9l.4-.6.1-.1c.1-.1.3-.3.4-.5.4-.5.8-1.1 1.2-1.8.4-.7.8-1.5 1.2-2.3.4-.7.7-1.4.9-1.9l.9-1.7c0-.1.1-.3.3-.6.3-.5.6-.8 1-.9.3 0 .5 0 .8.1l.2.1h.2l.1.1c.7.4 1.4.9 2.1 1.3.5.3 1.1.7 1.8 1.2s1.4.9 2.2 1.4c.7.4 1.4.7 2 1 .3.1.5.2.6.2h.1l.7.3c0 .5-.1.9-.4 1.3-.3.4-.7.7-1.1.9-.4.2-1 .1-1.7-.2-.5-.3-1.3-.7-2.3-1.3-1-.6-1.8-1.1-2.6-1.5-.5-.3-1-.6-1.6-1.1-.3.7-.6 1.3-.9 1.7-.4.7-.9 1.6-1.5 2.6-.7 1.2-1.1 1.9-1.4 2.4zM135.7 349.2c-.5.5-1.2.7-1.8.5-.8.6-1 1.1-.6 1.5.3.4.9.6 1.6.8.7.2 1.4.2 2 0 .6-.1.8-.4.5-1 .4-.3 1-.6 1.7-1 .6-.4 1.3-.9 2.2-1.4.8-.5 1.4-.8 2-1.1.6-.3 1-.3 1.1-.1.2.3.7 1.1 1.3 2.2.6 1.1 1.3 2.2 2.1 3.2.8 1.1 1.6 2 2.4 2.7.9.8 1.6 1 2.2.8.4-.7.6-1.1.7-1.3 0-.2 0-.3-.1-.4l-.6-.3c-.2-.1-.4-.4-.4-.9.7-5.3 1.4-9.4 2.3-12.5.9-3.2 2.1-4.9 3.7-5.1.3-.1.3-.5 0-1.3-.3-.9-1.1-1-2.3-.4-1.1.6-1.8.9-1.9.8-.3 1-.7 2-1.1 2.9-.4.9-.8 2.1-1.1 3.4-1.3.8-2.5 1.6-3.6 2.3-1 .7-1.9 1.2-2.8 1.5-.5-.5-1.1-1.2-1.7-2.2-.7-1-1.3-2.2-2-3.6 0-1.3.3-2.9 1-4.9.8-1.9 1.3-3.2 1.6-3.8-.5-.1-1.1-.2-1.8-.1h-2.1c-.1.6-.3 1.7-.5 3.3-.1.7-.2 1.4-.3 2.2l-.3 2.4c-.3 1.7-.6 3.3-1 4.8-.3 1.6-.7 2.8-1.1 3.9-.2 1-.7 1.7-1.3 2.2zm10.7-3.3.4-.3c.3-.3.6-.5.9-.8.7-.6 1.4-1 2-1.3.6-.3 1-.4 1.3-.2.3.2.2.9-.4 2.2-.2.5-.3 1.1-.4 2-.1.8-.2 1.5-.3 2.1-.1.6-.3 1-.5 1.1-.2.1-.4-.3-.9-1.2-.1-.3-.5-.8-1.3-1.5-.7-.6-1.1-1.3-1.3-1.9l.5-.2zm-6.9.3c.2-.7.4-1.3.5-1.8.2-.5.5-.9.7-1 .2-.1.6.1.9.9.1.2.4.4.9.6.5.3.7.8.8 1.7-.4.1-1.1.5-2.1 1.2s-1.7.7-2.2 0c.1-.5.3-1 .5-1.6zM233.1 32c.6-.5 1.2-1 1.7-1.5.6-.4 1.1-.8 1.5-1.1 0 0 .1 0 .2-.1l.2-.1.1-.1.2-.1c.2-.1.3-.3.3-.4.1-.1.1-.3 0-.5l-.1-.2-.1-.1-.2-.2-.1-.1c-.3-.5-.5-1.1-.8-1.7-.3-.7-.5-1.4-.8-2.1-.2-.7-.4-1.2-.6-1.8-.2-.7-.5-1.3-.7-2l-.1-.1v-.1l-.1-.2c-.1-.2-.2-.3-.4-.4-.2-.1-.5 0-.8.3-.3.2-.4.3-.5.4l-1.3 1.2c-.4.4-.9.8-1.4 1.2-.6.5-1.2 1-1.7 1.5-.6.4-1.1.8-1.6 1.1 0 0-.1 0-.1.1l-.5.3c-.2.1-.3.3-.3.4-.1.1 0 .3.1.5l.1.2v.2l.2.2v.1c.3.5.5 1 .8 1.7.2.7.5 1.4.8 2.1.2.7.4 1.2.6 1.8l.4 1-.9.7c-.4.4-.9.8-1.4 1.2-.6.5-1.2 1-1.7 1.4-.6.5-1.1.8-1.6 1.1-.2.1-.4.2-.5.3h-.2c-.2.6-.2 1-.1 1.2.2.4.5.6.7.7h.1c.3.1.6 0 1.1-.3.4-.3 1-.8 1.8-1.4.8-.6 1.5-1.2 2.1-1.6.4-.3.9-.7 1.5-1.3.2.8.5 1.4.6 1.8.3.7.6 1.5 1 2.4.4.9.7 1.6.9 2.1.2.5.5.7.8.8h.1c.3 0 .6 0 1-.3.2-.1.4-.5.6-1.1h-.1l-.1-.1c-.1-.1-.2-.3-.3-.5-.3-.5-.5-1-.8-1.7-.3-.7-.5-1.4-.8-2.1-.3-.7-.5-1.3-.6-1.8l-.4-1.1.9-.7c.3-.2.7-.6 1.3-1.1zm-1.7-1.4c-.4.3-.9.7-1.5 1.3-.2-.7-.5-1.4-.6-1.8-.3-.7-.6-1.5-1-2.4-.2-.6-.4-1.1-.6-1.5.3-.3.7-.6 1.3-1 .8-.6 1.5-1.2 2.1-1.6.4-.3.9-.7 1.5-1.3.2.7.4 1.3.6 1.8.3.7.6 1.5 1 2.4.3.6.5 1.1.6 1.5-.3.3-.8.6-1.3 1-.9.6-1.5 1.2-2.1 1.6zM28.2 221.2c-.2.1-.4.2-.6.5 0 .1 0 .2-.1.2v.4l-.7 2.3c-.1.4-.3 1-.5 2-.2.8-.5 1.6-.8 2.3-.3.8-.6 1.4-.8 1.9 0 .1-.1.2-.2.3l-.1.1v.1c-.2.5-.3.8-.3.8-.8.1-1.5.1-2.1 0-1.2-.2-1.9-.2-2.1-.1-.4.5-.5 1-.3 1.5.2.6.4 1.1.8 1.5.4.4.9.7 1.4 1 .5.2.8.2 1.1-.1 1.2-.5 2.6-1.1 4.4-1.9 1.6-.7 3.4-1.3 5.2-1.9 1.8-.6 3.6-1 5.3-1.2 1.8-.2 3.3-.1 4.7.5.4-.5.5-1 .4-1.6-.1-.6-.3-1.1-.7-1.5-.4-.4-.9-.7-1.6-.9-.6-.1-1.3 0-2.1.5l-.9.3-.7-.2s-.1 0-.2-.1c-.1 0-.2-.1-.3-.2-.5-.3-1-.8-1.6-1.3-.6-.5-1.2-1-1.8-1.6-.6-.6-1.1-1.1-1.5-1.4l-1.4-1.3c-.1-.1-.2-.2-.6-.5-.6-.4-1-.5-1.3-.4zm2.5 5.6c.6.5 1.3 1.2 2.2 1.9.4.3.7.6 1 .8l-1.5.5-4.8 1.3c.1-.4.3-.9.5-1.4.4-1 .7-1.9 1-2.7.1-.4.3-1 .5-1.6.3.5.7.9 1.1 1.2zM290.4 303.3c.4.1.9.1 1.4 0 .5-.1.9-.3 1.2-.5h2.7c.7 0 1.6 0 2.8.2 1.4.1 2.2.1 2.4.1h.2l.1.1h.2c.2 0 .4.1.7.1.2.9.3 1.7.4 2.6v1.2c-.1 2.4.1 3.7.8 3.9.3.1.8.1 1.4 0l.8-.1.9-.2c.7-.2 1.2-.3 1.5-.3.1 0 .2 0 .4-.1.2 0 .5-.1.7-.1.7-.1 1.4-.3 2-.4 1.8-.4 2.8-.8 3.1-1.1.1-.1.2-.3.2-.5 0-.3-.3-.8-.8-1.4-.2-.2-.4-.4-.7-.6-.2-.2-.4-.3-.5-.5-.7-.6-1.4-1.2-2-1.9-.7-.8-1.3-1.5-1.9-2.2-.6-.8-1.1-1.3-1.4-1.6-.5-.5-1.2-1.1-2.1-1.9-1.1-.9-2-1.7-2.8-2.5-.9-.9-1.6-1.7-2-2.5-.9-1.4-1.6-2-2.2-1.8-.1 0-.2.1-.3.1l-.2.1c-.1 0-.2.1-.3.1-.1.1-.2.2-.2.4-.2.5-.2 1.1-.1 1.8s.4 1.2.9 1.5c.3.3.7.6 1.2 1 .4.4.9.8 1.4 1.3 1.1.9 2.1 1.7 2.9 2.5h-.2c-.5 0-1.2 0-2 .1-.9 0-2.1-.1-3.7-.2-.9-.1-1.6-.1-2.4-.2-.8-.1-1.5-.1-2.2-.2h-1.5c-.9 0-1.5.1-1.8.4-.1.1-.2.2-.2.3-.2.9 0 1.8.4 2.5.1.3.4.4.8.5zm14.1-2c1 .8 1.9 1.7 2.8 2.6.9.9 1.8 1.8 2.7 2.8-.8.1-1.5.3-2.2.5-.7.2-1.5.4-2.5.5-.3-1.2-.4-2.3-.5-3.4l-.3-3zM309.3 77.5l-7.7 1.3-4.1 1.1s-.3.1-.7.3c-.2.1-.5.2-.7.3l-.7.3c-1.3.5-2 .6-2.1.2-.3-.9-.5-1.4-.5-1.5-.2-.7.4-1.2 1.7-1.7.4-.1.9-.3 1.5-.4.5-.1.8-.1 1.1-.1.6-.2 1.3-.4 2.1-.6l1.4-.3 1.4-.3c.9-.2 1.8-.4 2.6-.6.8-.2 1.3-.5 1.6-.7.4-.4 0-.9-1.1-1.7-1.1-.8-2.2-1.5-3.5-2.3-1.3-.8-2.3-1.5-3-2.2-.8-.6-.6-1 .4-1.1 1.4-.2 3.2-.7 5.5-1.5 2.3-.9 4.1-1.8 5.6-2.6.7-.4 1.3-.3 1.8.3.6.6.8.9.9 1 0 .1.1.2.1.3l.2.2c.1.1 0 .3-.2.6s-.8.5-1.8.7l-.6.1-.6.1c-.5.1-.9.1-1.1.2-.8.3-1.9.7-3.5 1.3-1 .4-1.7.6-2 .8.4.2 1.5.9 3.1 2.2 1.6 1.2 2.8 2.1 3.8 2.6 1 .3 1.4 1 1 2.1-.5 1-1.1 1.6-1.9 1.6zM33 136.9c.5.5.4.9 0 1.3-.4.3-1 .6-1.9.9-.3.1-.7.3-1.1.5l-1 .5c-.8.4-1.4.7-1.8.7-1.2.3-2 .6-2.4.8-.5.2-.4.5 0 .7.5.2 1.6.5 3.4.9l.9.1c1.6.4 3.1.8 4.4 1.1l3.6 1c.4.1 1 .3 1.8.4l1 .2 1 .2c1.4.4 2.2.7 2.2 1 0 .9-.1 1.6-.4 2.3-.1.3-.7.2-1.6-.2l-1.1-.6c-.4-.2-.7-.3-.9-.4l-2.7-.7c-.9-.2-2-.6-3.4-1-1.3-.4-2.8-.8-4.4-1.3-1.6-.4-3-.8-4.3-1-.8-.2-1.3-.2-1.5-.2.5.5.8.9 1 1.2.1.1.2.3.3.5.2.2.4.5.6.8.6.8 1.4 1.9 2.4 3.3.1.2.2.4.3.7l.3.5c.2.4.3.6.3.8 0 .1 0 .2.1.4l.1.3.1.3c.2.5.3.9.3 1-.1.4-.4.4-.8 0-.4-.3-.9-.8-1.6-1.4-.6-.6-1.2-1.4-1.9-2.3-.6-.9-1.2-1.6-1.6-2.4-1.2-2-2.2-3.5-3-4.3-.8-.8-1.2-1.4-1.3-1.8-.1-.4.2-.6.9-.8.7-.2 1.9-.6 3.6-1.3 0-.1.3-.2.8-.4s1.1-.4 1.7-.6l.8-.3.8-.3c.6-.2.9-.3 1-.3.3-.1.7-.2 1.3-.4l.8-.3.7-.2c.9-.3 1.8-.3 2.2.1z" class="st2"/><path d="M183.8 9.6h7.5v355.7h-7.5z" class="st0"/><path d="m273.242 31.571 6.496 3.75-177.814 308.071-6.496-3.749z" class="st0"/><path d="m339.698 95.332 3.751 6.495L35.413 279.713l-3.75-6.495z" class="st0"/><path d="M365.4 183.762v7.5l-355.7.076v-7.5z" class="st0"/><path d="m343.432 273.207-3.749 6.497L31.576 101.925l3.748-6.496z" class="st0"/><path d="m279.717 339.683-6.493 3.752L95.267 35.47l6.493-3.752z" class="st0"/></svg>