<?xml version="1.0" encoding="utf-8"?>
<!-- Generator: Adobe Illustrator 27.6.1, SVG Export Plug-In . SVG Version: 6.00 Build 0)  -->
<svg version="1.1" id="Layer_1" xmlns="http://www.w3.org/2000/svg" xmlns:xlink="http://www.w3.org/1999/xlink" x="0px" y="0px"
	 viewBox="0 0 375 375" style="enable-background:new 0 0 375 375;" xml:space="preserve">
<style type="text/css">
	.st0{fill:#AAA9B3;}
	.st1{fill:#C6C5CA;}
	.st2{fill:#73737A;}
</style>
<path class="st0" d="M334.9,187.5c0,1.2,0,2.5,0,3.7c-0.6,24.1-7,46.8-17.8,66.7c-1.2,2.2-2.4,4.4-3.7,6.5
	c-12.2,19.9-28.9,36.7-48.8,48.8c-2.1,1.3-4.3,2.5-6.5,3.8c-19.9,10.9-42.6,17.3-66.8,17.9c-1.2,0-2.5,0-3.7,0s-2.5,0-3.7,0
	c-24.1-0.6-46.8-7-66.7-17.8c-2.2-1.2-4.3-2.4-6.5-3.7c-19.9-12.2-36.7-29-48.9-48.8c-1.3-2.1-2.5-4.3-3.7-6.5
	c-10.9-19.9-17.3-42.6-17.9-66.7c0-1.2,0-2.5,0-3.8c0-1.2,0-2.5,0-3.7c0.6-24.1,7-46.8,17.8-66.7c1.2-2.2,2.4-4.4,3.7-6.5
	C73.9,90.7,90.7,74,110.5,61.8c2.1-1.3,4.3-2.5,6.5-3.8c19.9-10.9,42.6-17.3,66.8-17.9c1.2,0,2.5,0,3.7,0s2.5,0,3.7,0
	c24.1,0.6,46.8,7,66.7,17.8c2.2,1.2,4.3,2.4,6.5,3.7c19.9,12.2,36.7,29,48.9,48.8c1.3,2.1,2.5,4.3,3.7,6.5
	c10.9,19.9,17.3,42.6,17.9,66.7C334.9,185,334.9,186.2,334.9,187.5z"/>
<circle class="st1" cx="187.5" cy="187.5" r="138.9"/>
<g>
	<path class="st2" d="M160.4,68.2c-0.3,0.2-0.7,0.2-1.2,0c-0.5-0.2-1.1-0.5-1.8-0.9c-0.7-0.4-1.7-1-3.1-1.7c-0.1,0.8,0,1.6,0.4,2.3
		c0.4,0.7,0.7,1.2,1,1.7c0.3,0.1,0.6,0.3,1.1,0.6c0.4,0.2,0.9,0.5,1.5,0.9c1.2,0.7,2.2,1.1,3.2,1.2c-0.3,0.7-0.7,1-1,1
		c-0.3,0-0.6-0.1-1.1-0.2c-0.4-0.1-0.8-0.3-1.3-0.6c-0.5-0.3-0.9-0.5-1.3-0.6c-0.3-0.1-0.6-0.1-0.7,0.1c-0.1,0.2-0.1,0.8,0.2,1.6
		l0.1,0.8c0.2,0.7,0.4,1.4,0.7,2.2c0.3,0.7,0.5,1.5,0.7,2.2c0.1,0.5,0.1,0.9-0.2,1.2c-0.3,0.3-0.6,0.5-1,0.5c-0.4,0.1-0.7,0-1.1-0.1
		c-0.1-0.1-0.2-0.2-0.3-0.5c0-0.3,0-0.5,0-0.5c0.2-0.2,0.2-0.5,0.2-1c0-0.7-0.2-1.5-0.4-2.5c-0.2-0.8-0.5-1.7-0.9-2.7
		c-0.3-0.9-0.5-1.6-0.7-2l0,0c-0.1-0.2-0.1-0.4-0.2-0.8c-0.1-0.3-0.1-0.7-0.2-1.1c-0.2-0.9-0.3-1.7-0.5-2.4c-0.2-0.8-0.4-1.5-0.7-2
		c-0.2-0.3-0.3-0.6-0.5-0.7c-0.1,0-0.1-0.1-0.1-0.2c0-0.2,0-0.3,0.1-0.3c0.1-0.2,0.3-0.3,0.5-0.5c0.4-0.3,1-0.3,1.9,0.1
		c0.5,0.2,1.1,0.6,1.8,1l1,0.7l1.1,0.7c0.7,0.5,1.4,0.9,2,1.2c0.3,0.1,0.5,0.4,0.7,0.8C160.6,67.9,160.6,68.1,160.4,68.2z"/>
	<path class="st2" d="M301,225.7c0.3,0,0.5-0.2,0.8-0.5c0.1-0.2,0.2-0.4,0.3-0.6c0.1-0.3,0.3-0.5,0.5-0.7c0.3-0.2,0.7-0.6,1.3-1.1
		c0.6-0.6,1.1-1,1.7-1.3c0.1,0,0.2-0.1,0.4-0.1c0.2,0,0.3,0.1,0.5,0.4c0.2,0.6,0.5,1.3,0.8,2l0.4,1l0.4,1c0.2,0,0.4-0.1,0.6-0.1
		c0.2,0,0.4,0,0.5-0.1c0.7-0.9,1.5-1.8,2.3-2.5c0.8-0.7,1.8-1.5,2.9-2.2c-0.1-1-0.6-1.8-1.5-2.2c-0.2-0.1-0.4-0.3-0.7-0.5
		c-0.2-0.2-0.5-0.3-0.7-0.2c-0.2,0-0.5,0.1-1,0.1c-0.4,0-0.7,0-1-0.1c-1.4-0.4-3-0.7-4.9-1.1c-1.7-0.4-3.4-0.8-5.1-1.2
		c-0.4-0.1-0.6-0.2-0.7-0.4c-0.1-0.1-0.2-0.3-0.4-0.5c-0.1-0.1-0.3-0.3-0.6-0.3c-0.3-0.1-0.5-0.1-0.7,0c-0.2,0-0.4,0.1-0.6,0.3
		c-0.2,0.1-0.3,0.3-0.3,0.5c0,0.5,0.2,0.9,0.6,1.4c0.4,0.4,0.7,1,0.7,1.5c0.1,0.9,0.4,2.2,1,3.8c0.6,1.7,1.1,2.9,1.7,3.8
		C300.5,225.7,300.6,225.7,301,225.7z M310.5,220c-0.2,0.4-0.4,0.7-0.5,1c-0.1,0.3-0.3,0.7-0.5,1c-0.2,0.2-0.4,0.4-0.7,0.6
		c-0.3,0.2-0.5,0.4-0.7,0.6c-0.2-0.4-0.4-0.7-0.6-1.2c-0.3-0.4-0.4-0.8-0.5-1c-0.1-0.3-0.1-0.6,0-1l0.3-1c0.5,0.1,1.1,0.3,1.7,0.4
		L310.5,220z M300,222.5c-0.3-0.9-0.6-1.8-0.8-2.8c-0.1-0.5-0.2-1-0.3-1.4c-0.1-0.5-0.2-0.9-0.3-1.3l1.4,0.3l1.5,0.3
		c1,0.2,2,0.4,2.9,0.6c0,0.1,0.1,0.2,0.2,0.5c0.1,0.2,0.2,0.4,0.1,0.5c-0.3,0.3-0.8,0.7-1.5,1.3c-0.7,0.6-1.3,1.1-1.7,1.6
		c-0.2,0.2-0.5,0.4-0.8,0.4C300.3,222.6,300,222.6,300,222.5z"/>
	<path class="st2" d="M110,101.8c-1.3-1.1-2.7-2.3-4-3.6c-1.4-1.3-2.7-2.5-3.9-3.7c0.1-0.1,0-0.5-0.1-1.1c0-0.4-0.1-0.7-0.3-1
		c-0.2-0.3-0.3-0.4-0.4-0.4c-0.4,0.2-0.7,0.3-0.9,0.3c-0.2,0-0.4,0.2-0.8,0.5c-0.2,0.2-0.4,0.4-0.6,0.8c-0.2,0.4-0.3,0.7-0.2,0.8
		c0.1,0.3,0.4,0.5,0.7,0.7c0.4,0.2,0.6,0.4,0.8,0.5c0.1,0.1,0.2,0.4,0.4,1c0.1,0.5,0.3,1.2,0.4,1.8l0.2,1l0.1,0.5l0.1,0.4
		c0.1,0.5,0.1,0.8,0.2,1c-0.9,0-1.8,0-2.8-0.1l-1.6-0.2l-1.5-0.2c-0.4,0-0.8-0.1-1.4-0.2c-0.4-0.1-0.8-0.1-1.2-0.2
		c-0.7-0.1-1.1-0.1-1.1-0.1l0,0c-0.3,0.5-0.3,1,0.1,1.6c0.5,0.3,1,0.5,1.4,0.6c0.4,0.1,0.7,0.1,1,0.1c1.5,1.5,3,3,4.6,4.4
		c1.6,1.5,2.8,2.6,3.5,3.6c0.1,0.3,0.2,0.6,0.2,0.9l0,0.5c0,0.1,0.1,0.3,0.2,0.5c0.1,0.2,0.2,0.3,0.3,0.4c0.1,0.1,0.3,0.1,0.6,0.1
		c0.3,0,0.5-0.1,0.6-0.2c0.1-0.1,0.2-0.4,0.2-0.8c0-0.4,0-0.7,0-0.9c-0.1-0.2-0.2-0.5-0.5-0.8c-0.3-0.4-0.4-0.7-0.4-1
		c0-0.7-0.1-1.6-0.2-2.6c-0.1-0.9-0.2-2-0.4-3.3c1.3,0.2,2.7,0.4,4.2,0.5c1.6,0.1,2.5,0.2,2.8,0.4c0.1,0.3,0.4,0.5,0.7,0.7
		c0.3,0.2,0.6,0.3,0.9,0.2c0.4-0.1,0.6-0.1,0.7-0.1c0.1,0,0.2-0.1,0.3-0.4c0.3-0.6,0.3-1,0-1.3c-0.3-0.3-0.6-0.7-0.8-1.2
		C111.3,102.3,110.7,102.2,110,101.8z M102.7,106.6c0.2,1.2,0.2,1.9-0.1,2.1c-1.3-1.5-2.4-2.5-3.2-3.2c-0.7-0.7-1.6-1.5-2.6-2.5
		c1-0.1,2,0,2.9,0.1c0.9,0.2,1.8,0.3,2.6,0.4C102.4,104.3,102.5,105.4,102.7,106.6z M105.4,101.9c-0.9-0.2-1.9-0.3-2.9-0.5
		c-0.2-1-0.4-1.9-0.5-2.7l-0.2-1.2l-0.2-1.2c0.9,0.8,1.8,1.6,2.7,2.4c0.8,0.8,2.1,2,3.8,3.4C107.3,102.2,106.4,102.1,105.4,101.9z"
		/>
	<path class="st2" d="M214.4,302.8c-1.4-1.3-2.3-2.1-2.6-2.5c-0.3-1-0.1-1.7,0.5-2.3c0.6-0.5,0.9-0.7,0.9-0.4c0,0.7,0.5,1.5,1.5,2.5
		c1,1,2.2,2,3.8,3c0.3-0.4,0.5-0.5,0.6-0.5c0-0.2,0.1-0.4,0.1-0.8c0.3-2.5,0.7-4.3,1.1-5.3c0.4-1,1.1-1.4,2.2-1
		c-0.2,0.4-0.4,0.8-0.7,1.2c-0.3,0.5-0.5,0.8-0.5,1.1c-0.6,2.6-1,4.5-1.1,5.5c-0.1,1,0.1,1.7,0.7,2c0.1,0.1,0.8,0.6,2.1,1.6
		c1.2,1,2.4,2,3.4,3c0.4,1.4,0.3,2.2-0.2,2.5c-0.5,0.2-0.9,0.3-1.4,0.3c-0.2-0.6-0.6-1.2-1.3-2c-0.7-0.8-1.2-1.2-1.4-1.4
		c-0.3-0.3-0.6-0.6-0.9-1c-0.3-0.4-0.6-0.6-0.8-0.8c-0.3-0.2-0.5-0.2-0.6,0c-0.2,0.2-0.3,0.7-0.4,1.5c-0.1,0.7-0.4,1.8-0.7,3.3
		c0.2,1.1-0.1,1.8-0.9,2.2c-0.7,0.4-1.4,0.7-1.9,0.8l-0.2-1.7c0.7-0.1,1.4-0.9,2-2.5c0.6-1.7,0.9-3.2,1.1-4.6L214.4,302.8z"/>
	<path class="st2" d="M98.4,270.7l-2.6,2.6l0,0c-0.8,0.8-1.6,1.4-2.3,1.6c-0.7,0.2-1.1,0.4-1.2,0.5c0,0.4,0.1,0.7,0.4,0.9
		c0.3,0.3,0.6,0.5,1,0.6c0.4,0.1,0.7,0.2,1.1,0.2c0.3,0,0.5-0.2,0.6-0.4c0.5-0.6,1-1.4,1.7-2.3c0.6-0.8,1.3-1.7,2.1-2.6l0.6,2
		l0.5,2.5l0,0c0.2,0.8,0.1,1.5-0.1,2.1c-0.2,0.5-0.3,0.8-0.3,0.9c-0.3,0.2-0.5,0.4-0.8,0.5c-0.3,0.1-0.5,0.2-0.6,0.4l-0.1,0.1l0,0
		l-0.1,0.1l-0.1,0.3l-0.1,0.2c0,0.1,0,0.3,0.1,0.4c0.3,0.2,0.5,0.4,0.7,0.5c0.4,0.1,0.7,0.2,1.1,0.2c0.3,0,0.5-0.1,0.5-0.3
		c0.5-0.6,1.1-1.4,1.7-2.3c0.6-0.9,1.3-1.7,2.1-2.6c0.4-0.5,1.2-1.3,2.3-2.4c1.2-1.1,2-1.8,2.4-2.1c0.8-0.6,1.7-1,2.7-1.1
		c0-0.4-0.1-0.7-0.3-1.1s-0.6-0.5-0.9-0.7c-0.4-0.1-0.8-0.1-1.2,0c-0.4,0.1-0.7,0.4-1,0.9l-3.2,3.6c-0.2-0.3-0.3-0.6-0.5-0.8
		c-0.3-0.6-0.6-1.3-0.9-2c-0.3-0.7-0.5-1.4-0.6-2.1c0-0.3,0-0.6,0-0.9c0.3-0.3,0.4-0.5,0.5-0.6l0.2-0.2c0.8-0.6,1.7-1,2.7-1.1
		c0-0.4-0.1-0.7-0.3-1.1c-0.3-0.3-0.6-0.5-0.9-0.7c-0.4-0.2-0.7-0.2-1.2,0c-0.4,0.1-0.7,0.4-1,0.9L98.4,270.7z M102.7,271.3l0.7,2.2
		l0,0c0.2,0.7,0.3,1.4,0.2,1.9c0,0.1,0,0.2,0,0.4l-1.2,1.2c-0.1-0.3-0.2-0.5-0.3-0.8c-0.3-0.7-0.6-1.5-0.8-2.3
		c-0.2-0.8-0.3-1.6-0.3-2.3c0-0.2,0.4-0.8,1.1-1.8L102.7,271.3z"/>
	<g>
		<path class="st2" d="M302.9,163.4c-0.3-0.2-0.4-0.2-0.4-0.3l-1.2-0.8c-0.4-0.2-0.8-0.5-1.3-0.9s-1.1-0.7-1.6-1
			c-0.5-0.3-1-0.6-1.5-0.8c-0.2-0.1-0.3-0.1-0.4-0.1l-0.1,0l0,0l-0.5-0.2c0-0.3,0.1-0.7,0.4-1c0.2-0.3,0.5-0.5,0.8-0.7
			c0.4-0.1,0.8-0.1,1.3,0.2c0.4,0.2,1,0.6,1.7,1c0.8,0.4,1.4,0.8,2,1.1c0.3,0.2,0.7,0.4,1.2,0.8c0.3-0.5,0.5-1,0.7-1.3
			c0.3-0.6,0.7-1.2,1.1-2c0.4-0.7,0.8-1.3,1-1.7c0.3-0.5,0.6-0.7,1-0.8c0.3,0,0.6,0,1,0.2c0.4,0.1,0.6,0.4,0.8,0.7l-0.3,0.4l0,0
			l-0.1,0.1c0,0-0.1,0.1-0.1,0.1c-0.1,0.1-0.1,0.1-0.2,0.2c-0.3,0.4-0.6,0.8-0.9,1.4c-0.3,0.5-0.6,1.1-0.9,1.7
			c-0.3,0.5-0.5,1-0.7,1.4c-0.3,0.6-0.6,1.1-0.8,1.6l-0.1,0.2l0,0c0,0.1,0,0.1-0.1,0.2c-0.1,0.2-0.3,0.3-0.5,0.3
			C303.6,163.6,303.2,163.6,302.9,163.4z"/>
		<path class="st2" d="M304,157.1c-0.3,0.5-0.6,0.7-1,0.8c-0.3,0.1-0.7,0-1-0.2c-0.4-0.1-0.6-0.4-0.8-0.7l0.3-0.4l0,0l0.1-0.1
			c0.1-0.1,0.2-0.2,0.3-0.3c0.3-0.4,0.6-0.8,0.9-1.4c0.3-0.5,0.6-1.1,0.9-1.7c0.3-0.5,0.5-1,0.7-1.4l0.7-1.3c0-0.1,0.1-0.2,0.2-0.5
			c0.2-0.4,0.4-0.6,0.8-0.6c0.2,0,0.4,0,0.6,0.1l0.2,0.1l0.1,0l0,0l0,0l0.1,0.1c0.6,0.3,1.1,0.6,1.6,1c0.4,0.2,0.8,0.5,1.3,0.9
			c0.5,0.4,1.1,0.7,1.6,1c0.5,0.3,1,0.5,1.5,0.7c0.2,0.1,0.4,0.1,0.5,0.1l0.1,0l0,0l0.5,0.2c0,0.3-0.1,0.7-0.3,1
			c-0.2,0.3-0.5,0.6-0.8,0.7c-0.3,0.1-0.7,0.1-1.2-0.2c-0.4-0.2-1-0.5-1.7-1c-0.7-0.4-1.4-0.8-1.9-1.1c-0.3-0.2-0.8-0.5-1.2-0.8
			c-0.3,0.5-0.5,0.9-0.7,1.3c-0.3,0.6-0.7,1.2-1.1,1.9C304.6,156.2,304.3,156.7,304,157.1z"/>
	</g>
	<path class="st2" d="M149,308.3c-0.4,0.4-0.9,0.5-1.4,0.4c-0.6,0.4-0.7,0.8-0.4,1.1c0.3,0.3,0.7,0.5,1.2,0.6c0.6,0.1,1.1,0.1,1.5,0
		c0.5-0.1,0.6-0.3,0.4-0.7c0.3-0.2,0.8-0.4,1.3-0.7c0.4-0.3,1-0.7,1.6-1c0.6-0.4,1.1-0.6,1.5-0.8c0.5-0.2,0.7-0.2,0.8-0.1
		c0.2,0.2,0.5,0.8,1,1.6c0.5,0.8,1,1.6,1.6,2.4c0.6,0.8,1.2,1.5,1.8,2c0.6,0.6,1.2,0.8,1.7,0.6c0.3-0.5,0.5-0.8,0.5-1
		c0-0.1,0-0.3-0.1-0.3c-0.1-0.1-0.3-0.1-0.4-0.2c-0.2-0.1-0.3-0.3-0.3-0.7c0.5-3.9,1.1-7,1.7-9.3c0.7-2.3,1.6-3.6,2.8-3.8
		c0.2,0,0.2-0.4,0-1c-0.3-0.7-0.8-0.7-1.7-0.3c-0.8,0.4-1.3,0.6-1.4,0.6c-0.3,0.7-0.5,1.5-0.8,2.2c-0.3,0.7-0.6,1.6-0.8,2.5l0,0
		c-1,0.6-1.9,1.2-2.7,1.7c-0.7,0.5-1.4,0.9-2.1,1.1c-0.4-0.4-0.8-0.9-1.3-1.6c-0.5-0.7-1-1.6-1.5-2.7c0-1,0.2-2.2,0.8-3.6
		c0.6-1.4,1-2.4,1.2-2.9c-0.4-0.1-0.8-0.1-1.3-0.1c-0.5,0-1,0-1.6,0c-0.1,0.4-0.2,1.3-0.4,2.5c-0.1,0.5-0.1,1-0.3,1.7
		c-0.1,0.6-0.2,1.2-0.2,1.8c-0.2,1.3-0.5,2.5-0.7,3.6c-0.2,1.2-0.5,2.1-0.8,2.9C149.8,307.3,149.5,307.9,149,308.3z M157,305.8
		l0.3-0.2c0.2-0.2,0.5-0.4,0.7-0.6c0.5-0.4,1-0.7,1.5-1c0.4-0.2,0.8-0.3,1-0.1c0.2,0.2,0.1,0.7-0.3,1.6c-0.1,0.3-0.2,0.8-0.3,1.5
		c-0.1,0.6-0.1,1.1-0.2,1.6c-0.1,0.5-0.2,0.7-0.3,0.8c-0.1,0.1-0.3-0.2-0.6-0.9c-0.1-0.2-0.4-0.6-0.9-1.1c-0.5-0.5-0.8-1-1-1.5
		L157,305.8z M151.8,306c0.1-0.5,0.3-1,0.4-1.3c0.2-0.4,0.3-0.6,0.5-0.7c0.2-0.1,0.4,0.1,0.7,0.6c0.1,0.1,0.3,0.3,0.6,0.5
		c0.4,0.2,0.5,0.6,0.6,1.3c-0.3,0.1-0.9,0.4-1.6,0.9c-0.7,0.5-1.3,0.5-1.7,0C151.6,306.9,151.7,306.5,151.8,306z"/>
	<path class="st2" d="M221.6,72.1c0.4-0.4,0.9-0.7,1.3-1.1c0.4-0.3,0.8-0.6,1.1-0.8c0,0,0.1,0,0.1-0.1l0.2-0.1l0,0l0.1,0l0.2-0.1
		c0.1-0.1,0.2-0.2,0.2-0.3c0-0.1,0-0.2,0-0.4l-0.1-0.2l-0.1,0l0,0l-0.1-0.2l-0.1-0.1c-0.2-0.4-0.4-0.8-0.6-1.3
		c-0.2-0.5-0.4-1-0.6-1.6c-0.2-0.5-0.3-0.9-0.4-1.3c-0.2-0.5-0.4-1-0.6-1.5l0-0.1l0,0l0,0l-0.1-0.1c-0.1-0.2-0.2-0.2-0.3-0.3
		c-0.2,0-0.4,0-0.6,0.2c-0.2,0.2-0.3,0.3-0.3,0.3l-1,0.9c-0.3,0.3-0.7,0.6-1,0.9c-0.5,0.4-0.9,0.7-1.3,1.1c-0.4,0.3-0.8,0.6-1.2,0.8
		c0,0-0.1,0-0.1,0l-0.4,0.2c-0.2,0.1-0.2,0.2-0.2,0.3c0,0.1,0,0.2,0.1,0.4l0.1,0.2l0,0l0,0l0.1,0.2l0,0.1c0.2,0.3,0.4,0.8,0.6,1.3
		c0.2,0.5,0.4,1,0.6,1.6c0.2,0.5,0.3,0.9,0.4,1.3l0.3,0.8l-0.6,0.6c-0.3,0.3-0.7,0.6-1,0.9c-0.5,0.4-0.9,0.7-1.3,1.1
		c-0.4,0.3-0.8,0.6-1.2,0.8c-0.2,0.1-0.3,0.2-0.4,0.2c-0.1,0-0.1,0-0.2,0c-0.1,0.5-0.1,0.8,0,0.9c0.2,0.3,0.3,0.5,0.6,0.5l0.1,0
		c0.2,0.1,0.5,0,0.8-0.2c0.3-0.2,0.7-0.6,1.3-1c0.6-0.5,1.1-0.9,1.6-1.2c0.3-0.2,0.6-0.5,1.1-0.9c0.2,0.6,0.3,1,0.5,1.4
		c0.2,0.5,0.4,1.1,0.7,1.8c0.3,0.7,0.5,1.2,0.7,1.6c0.2,0.3,0.3,0.6,0.6,0.6l0.1,0c0.2,0,0.5,0,0.7-0.2c0.2-0.1,0.3-0.4,0.4-0.8
		l-0.1,0l-0.1-0.1c-0.1-0.1-0.1-0.2-0.2-0.4c-0.2-0.3-0.4-0.8-0.6-1.3c-0.2-0.5-0.4-1-0.6-1.6c-0.2-0.5-0.3-1-0.4-1.3l-0.3-0.8
		l0.6-0.5C220.8,72.7,221.1,72.4,221.6,72.1z M220.3,71c-0.3,0.2-0.6,0.5-1.1,0.9c-0.2-0.6-0.3-1-0.5-1.4c-0.2-0.5-0.4-1.1-0.7-1.8
		c-0.2-0.4-0.3-0.8-0.4-1.1c0.2-0.2,0.5-0.5,0.9-0.7c0.6-0.5,1.1-0.9,1.6-1.2c0.3-0.2,0.6-0.5,1.1-0.9c0.2,0.6,0.3,1,0.5,1.4
		c0.2,0.5,0.4,1.1,0.7,1.8c0.2,0.4,0.3,0.8,0.5,1.1c-0.3,0.2-0.6,0.4-1,0.7C221.2,70.3,220.7,70.7,220.3,71z"/>
	<path class="st2" d="M68.9,213c-0.2,0-0.3,0.2-0.4,0.4c0,0.1,0,0.1-0.1,0.2l0,0l0,0l0,0.2l-0.5,1.7c-0.1,0.3-0.2,0.8-0.4,1.5
		c-0.2,0.6-0.4,1.2-0.6,1.7c-0.2,0.6-0.4,1-0.6,1.4c0,0.1-0.1,0.2-0.1,0.2l-0.1,0.1l0,0c-0.2,0.4-0.2,0.6-0.2,0.6
		c-0.6,0.1-1.1,0-1.6,0c-0.9-0.1-1.4-0.2-1.6-0.1c-0.3,0.3-0.4,0.7-0.2,1.1c0.1,0.4,0.3,0.8,0.6,1.1c0.3,0.3,0.6,0.6,1,0.7
		c0.4,0.1,0.6,0.1,0.8,0c0.9-0.3,2-0.8,3.3-1.4c1.2-0.5,2.5-1,3.9-1.4c1.3-0.4,2.7-0.7,3.9-0.9c1.3-0.2,2.5,0,3.5,0.3
		c0.3-0.3,0.4-0.7,0.3-1.2c-0.1-0.4-0.2-0.8-0.5-1.1c-0.3-0.3-0.7-0.5-1.2-0.6c-0.5-0.1-1,0-1.6,0.3l-0.6,0.3l-0.5-0.2
		c0,0-0.1,0-0.1,0c-0.1,0-0.1-0.1-0.2-0.1c-0.4-0.2-0.8-0.6-1.2-1c-0.4-0.4-0.9-0.8-1.4-1.2c-0.5-0.4-0.8-0.8-1.1-1.1l-1-1
		c0,0-0.2-0.2-0.4-0.4C69.5,213,69.2,212.9,68.9,213z M70.8,217.1c0.4,0.4,1,0.9,1.6,1.4c0.3,0.2,0.5,0.4,0.7,0.6l-1.1,0.4l-3.6,1
		c0.1-0.3,0.2-0.6,0.4-1c0.3-0.7,0.5-1.4,0.7-2c0.1-0.3,0.2-0.7,0.4-1.2C70.3,216.6,70.6,216.9,70.8,217.1z"/>
	<path class="st2" d="M264.2,274.1c0.3,0.1,0.7,0,1.1,0c0.4-0.1,0.7-0.2,0.9-0.4c0.4,0,0.8,0,1.1,0c0.4,0,0.7,0,0.9,0
		c0.5,0,1.2,0,2.1,0.2c1,0.1,1.6,0.1,1.8,0.1c0,0,0.1,0,0.2,0l0.1,0.1h0.2c0.1,0,0.3,0.1,0.5,0.1c0.1,0.6,0.2,1.3,0.3,1.9
		c0,0.1,0,0.4,0,0.9c-0.1,1.8,0.1,2.8,0.6,2.9c0.2,0.1,0.6,0.1,1,0l0.6-0.1l0.7-0.2c0.5-0.1,0.9-0.2,1.1-0.2c0.1,0,0.2,0,0.3-0.1
		c0.2,0,0.3-0.1,0.5-0.1c0.5-0.1,1-0.2,1.5-0.3c1.3-0.3,2.1-0.6,2.3-0.8c0.1-0.1,0.1-0.2,0.1-0.4c0-0.3-0.2-0.6-0.6-1
		c-0.1-0.1-0.3-0.3-0.5-0.5c-0.1-0.1-0.3-0.2-0.4-0.4c-0.5-0.4-1-0.9-1.5-1.4c-0.5-0.6-1-1.1-1.4-1.7c-0.5-0.6-0.8-1-1.1-1.2
		c-0.3-0.3-0.9-0.8-1.6-1.4c-0.8-0.7-1.5-1.3-2.1-1.8c-0.7-0.7-1.2-1.3-1.5-1.8c-0.7-1.1-1.2-1.5-1.6-1.3c-0.1,0-0.1,0.1-0.2,0.1
		l-0.2,0.1c-0.1,0-0.2,0-0.2,0.1c-0.1,0.1-0.1,0.2-0.1,0.3c-0.1,0.4-0.2,0.9-0.1,1.4c0.1,0.5,0.3,0.9,0.7,1.1
		c0.3,0.2,0.5,0.5,0.9,0.8c0.3,0.3,0.7,0.6,1.1,1c0.8,0.7,1.5,1.3,2.1,1.9c0,0-0.1,0-0.2,0c-0.4,0-0.9,0-1.5,0.1
		c-0.7,0-1.6-0.1-2.8-0.2c-0.6-0.1-1.2-0.1-1.8-0.1c-0.6-0.1-1.1-0.1-1.6-0.1l-0.1,0l-0.1,0c-0.1,0-0.2,0-0.3,0c-0.3,0-0.5,0-0.7,0
		c-0.7,0-1.1,0.1-1.3,0.3c-0.1,0.1-0.1,0.2-0.1,0.2c-0.1,0.7,0,1.3,0.3,1.8C263.7,273.9,263.9,274,264.2,274.1z M274.7,272.6
		c0.7,0.6,1.4,1.3,2.1,1.9c0.7,0.7,1.4,1.3,2,2.1c-0.6,0.1-1.1,0.2-1.6,0.4c-0.5,0.2-1.2,0.3-1.9,0.4c-0.2-0.9-0.3-1.7-0.4-2.6
		C274.9,274.1,274.8,273.4,274.7,272.6z"/>
	<path class="st2" d="M278.3,105.9l-5.7,1l-3.1,0.8c0,0-0.2,0.1-0.5,0.2c-0.2,0.1-0.3,0.1-0.5,0.2l-0.5,0.2c-1,0.4-1.5,0.4-1.6,0.1
		c-0.2-0.6-0.4-1-0.4-1.1c-0.1-0.5,0.3-0.9,1.3-1.2c0.3-0.1,0.7-0.2,1.1-0.3c0.3,0,0.6-0.1,0.8-0.1c0.4-0.1,1-0.3,1.6-0.4l1-0.2
		l1.1-0.2c0.7-0.1,1.3-0.3,2-0.5c0.6-0.2,1-0.3,1.2-0.5c0.3-0.3,0-0.7-0.8-1.2c-0.8-0.6-1.7-1.1-2.6-1.7c-0.9-0.6-1.7-1.1-2.3-1.6
		c-0.6-0.5-0.5-0.7,0.3-0.8c1-0.1,2.4-0.5,4.1-1.1c1.7-0.7,3.1-1.3,4.2-2c0.5-0.3,1-0.2,1.3,0.2c0.4,0.4,0.6,0.7,0.6,0.7
		c0,0.1,0,0.2,0.1,0.2l0.1,0.1c0.1,0.1,0,0.2-0.1,0.4c-0.1,0.2-0.6,0.4-1.3,0.5l-0.4,0.1l-0.5,0.1c-0.4,0-0.7,0.1-0.8,0.1
		c-0.6,0.2-1.4,0.5-2.6,0.9c-0.8,0.3-1.3,0.5-1.5,0.6c0.3,0.1,1.1,0.7,2.3,1.6c1.2,0.9,2.1,1.6,2.8,2c0.8,0.2,1,0.8,0.7,1.6
		C279.3,105.5,278.9,105.9,278.3,105.9z"/>
	<path class="st2" d="M72.5,150.2c0.3,0.4,0.3,0.7,0,1c-0.3,0.2-0.8,0.4-1.4,0.7c-0.2,0.1-0.5,0.2-0.8,0.4l-0.7,0.4
		c-0.6,0.3-1,0.5-1.3,0.6c-0.9,0.2-1.5,0.4-1.8,0.6c-0.3,0.2-0.3,0.3,0,0.5c0.3,0.2,1.2,0.4,2.5,0.7l0.7,0.1
		c1.2,0.3,2.3,0.6,3.2,0.8l2.7,0.7c0.3,0.1,0.8,0.2,1.4,0.3l0.7,0.2l0.7,0.2c1.1,0.3,1.6,0.5,1.6,0.8c0,0.6-0.1,1.2-0.3,1.7
		c-0.1,0.2-0.5,0.2-1.2-0.1l-0.8-0.4c-0.3-0.2-0.5-0.3-0.6-0.3l-2-0.5c-0.7-0.2-1.5-0.4-2.6-0.7c-1-0.3-2.1-0.6-3.3-0.9
		c-1.2-0.3-2.2-0.6-3.2-0.7c-0.6-0.1-1-0.2-1.2-0.2c0.4,0.4,0.6,0.7,0.7,0.9c0.1,0.1,0.1,0.2,0.2,0.3c0.1,0.2,0.3,0.3,0.4,0.6
		c0.4,0.6,1,1.4,1.8,2.5c0.1,0.2,0.2,0.3,0.2,0.5l0.2,0.4c0.1,0.3,0.2,0.5,0.2,0.6c0,0,0,0.1,0.1,0.3l0.1,0.2l0.1,0.2
		c0.2,0.4,0.2,0.6,0.2,0.8c-0.1,0.3-0.3,0.3-0.6,0c-0.3-0.2-0.7-0.6-1.2-1.1c-0.5-0.5-0.9-1-1.4-1.7c-0.5-0.6-0.9-1.2-1.2-1.8
		c-0.9-1.5-1.6-2.6-2.2-3.2c-0.6-0.6-0.9-1.1-1-1.3c-0.1-0.3,0.1-0.5,0.7-0.6c0.5-0.1,1.4-0.5,2.7-1c0-0.1,0.2-0.2,0.6-0.3
		c0.4-0.1,0.8-0.3,1.2-0.4l0.6-0.2l0.6-0.2c0.4-0.1,0.7-0.2,0.7-0.2c0.2-0.1,0.5-0.2,1-0.3l0.6-0.2l0.6-0.2
		C71.6,149.8,72.2,149.9,72.5,150.2z"/>
</g>
<g>
	<path class="st0" d="M191.2,40.1v294.7c-1.2,0-2.5,0-3.7,0s-2.5,0-3.7,0V40.1H191.2z"/>
	<path class="st0" d="M117.1,317l66.7-115.6l3.7-6.5l1.4-2.4l0.8-1.4l0.6-1l1-1.7l0.6-1l0.8-1.4l1.4-2.4l3.7-6.5h0v0l66.7-115.6
		c-2.1-1.3-4.3-2.5-6.5-3.7l-66.7,115.6l-3.7,6.5l-1.4,2.4l-0.8,1.4l-0.6,1l-1,1.7l-0.6,1l-0.8,1.4l-1.4,2.4l-3.7,6.5h0v0
		l-66.7,115.6L117.1,317z"/>
	<path class="st0" d="M317,117l-115.6,66.7l-6.5,3.7l-2.4,1.4l-1.4,0.8l-1,0.6l-1.7,1h0l-1,0.6l-1.4,0.8l-2.4,1.4l-6.5,3.7l0,0v0
		L61.7,264.5c-1.3-2.1-2.5-4.3-3.7-6.5l115.6-66.7l6.5-3.7l2.4-1.4l1.4-0.8l1-0.6l1.7-1h0l1-0.6l1.4-0.8l2.4-1.4l6.5-3.7l0,0v0
		l115.6-66.7C314.5,112.7,315.8,114.8,317,117z"/>
	<path class="st0" d="M334.9,187.5c0,1.2,0,2.5,0,3.7l-133.4,0h-13l-2,0h-13l-133.4,0c0-1.2,0-2.5,0-3.8c0-1.2,0-2.5,0-3.7l133.4,0
		h13l2,0h13l133.4,0C334.9,185,334.9,186.2,334.9,187.5z"/>
	<path class="st0" d="M317,257.9l-3.7,6.5l-115.6-66.7l-6.5-3.7l-2.4-1.4l-1.4-0.8l-1-0.6h0l-1.7-1l-1-0.6l-1.4-0.8l-2.4-1.4
		l-6.5-3.7L58,117.1c1.2-2.2,2.4-4.4,3.7-6.5l115.6,66.7l6.5,3.7l2.4,1.4l1.4,0.8l1,0.6h0l1.7,1l1,0.6l1.4,0.8l2.4,1.4l6.5,3.7
		L317,257.9z"/>
	<path class="st0" d="M264.5,313.2c-2.1,1.3-4.3,2.5-6.5,3.8l-66.8-115.6l-3.7-6.5l-1.4-2.4l-0.8-1.4l-0.6-1l-1-1.7l-0.6-1l-0.8-1.4
		l-1.4-2.4l-3.7-6.5L110.5,61.8c2.1-1.3,4.3-2.5,6.5-3.8l66.8,115.6l3.7,6.5l1.4,2.4l0.8,1.4l0.6,1l1,1.7l0.6,1l0.8,1.4l1.4,2.4
		l3.7,6.5L264.5,313.2z"/>
</g>
</svg>
