<svg xmlns="http://www.w3.org/2000/svg" xml:space="preserve" id="Layer_1" x="0" y="0" style="enable-background:new 0 0 375 375" version="1.1" viewBox="0 0 375 375"><style>.st2{fill:#85848c}</style><circle cx="187.8" cy="187.5" r="67.3" style="fill:#aaa9b3"/><circle cx="187.5" cy="187.5" r="60" style="fill:#919099"/><path d="M188.8 150.1c-.3-.5-1.1-.7-1.6-.4-.1.1-.3.2-.3.3-4.9 7.3-8.1 15.3-9.5 24-.1.4-.3.7-.7.9l-3 1.3c-.6.3-1.3 0-1.5-.6-.1-.2-.1-.4-.1-.6 1.3-13.2 6.3-24.7 14.9-34.7.4-.5 1.1-.5 1.6-.1l.1.1c3.9 4.6 7.2 9.6 9.7 15.1.7 1.5.2 2-1.3 1.6l-4.2-1.1c-.3-.1-.5-.3-.7-.5l-3.4-5.3z" class="st2"/><path d="M202.6 166.1c-5.8-3.8-12.2-5.1-19-4.1-1.5.2-1.9-.3-1.2-1.7l1.2-2.5c.2-.4.5-.6.9-.6 8.2-1 15.4 1 21.7 5.8 7.5 5.8 11.6 13.5 12.1 23 .1 1.9-.5 2.2-1.9.9-1.8-1.6-3.1-3.6-3.8-5.9-1.9-5.9-4.9-11.6-10-14.9zM166 173.9c-6 10.2-5.3 20.1 1.9 29.7.9 1.2.6 1.8-.9 1.8l-3.1.2c-.4 0-.8-.2-1-.5-11.2-15.9-4.9-34.7 9.9-44.5.2-.1.4-.1.5.1l.2.2c.1.1.1.2.1.4l-1.6 5.1c-.1.2-.1.3-.3.4-1.9 2.3-4.2 4.5-5.7 7.1z" class="st2"/><path d="M202.2 167.4c.3.2.4.4.5.7 2.7 12.5-.2 23.4-8.6 32.6-.4.4-.9.5-1.4.2l-2.4-1.3c-.6-.3-.8-1-.5-1.6.1-.1.1-.2.2-.3 5.9-5.8 8.8-12.9 8.6-21.4 0-2.1-.7-5.6-2-10.6-.4-1.5.1-1.8 1.4-1l4.2 2.7z" class="st2"/><path d="M197.4 179.4c-.1.6-.8 1-1.4.9h-.1c-2.9-.9-5.9-1.3-8.9-1.3-3.1 0-6.2.7-9.2 2.1-4.9 2.2-9.2 5.3-12.7 9.4-1.1 1.2-1.6 1-1.6-.6l-.1-4.8c0-.3.1-.6.4-.9 9.2-8.5 20-11.5 32.5-9 .4.1.7.3.8.6.5 1.2.6 2.4.3 3.6zM220.6 205.2c-3.8-7.8-9.1-14.5-15.8-20.1-.3-.2-.4-.6-.4-1l.3-3.5c.1-1.4.7-1.7 1.8-.8 10.6 8 18.3 18.3 23 30.7.2.6-.1 1.3-.7 1.5-.1 0-.2.1-.3.1-6.2.6-12.4.7-18.6.4-1.8-.1-2-.8-.7-2l3.1-3c.2-.2.5-.3.7-.3l6.6-.3c.6 0 1.1-.6 1.1-1.2 0-.2 0-.4-.1-.5z" class="st2"/><path d="M188.9 200.3c3.5 2.4 7.7 4.1 12.6 5.1 1.4.3 1.6.9.6 1.9-1 1-2.1 1.7-3.3 2-1.3.4-2.9.2-4.8-.6-10.4-4.1-17.4-11.7-20.8-22.6-.2-.5 0-1 .5-1.3l2.3-1.5c.5-.4 1.2-.2 1.6.3.1.1.1.2.2.4 1.5 6.9 5.3 12.4 11.1 16.3zM155.8 206.9c8.7.7 17.2-.6 25.4-3.7.3-.1.7-.1 1 .1l3 1.8c.5.3.7 1 .4 1.6-.1.1-.2.3-.3.4-1.2.9-2.6 1.5-4 2-11.2 3.6-22.6 4.6-34.3 2.9-.6-.1-1.1-.7-1-1.3 0-.1 0-.2.1-.3 2.4-5.8 5.4-11.2 8.9-16.3 1-1.4 1.7-1.3 2.1.4l1.1 4.6c.1.3 0 .6-.1.9l-3.2 5.4c-.3.6-.1 1.3.4 1.6.2-.2.3-.1.5-.1z" class="st2"/><path d="M186.3 213c12.3 0 20.9-5.5 25.6-16.4.5-1.2 1.2-1.3 2-.2l1.5 2.2c.2.3.3.8.1 1.1-7.6 16.6-25.6 22.1-41.7 14.8-.2-.1-.5-.2-.6-.3-1.6-1.1-1.5-1.8.5-2.1.9-.1 1.8-.3 2.6-.5 3.4-.6 7.1 1.4 10 1.4z" class="st2"/></svg>