<?xml version="1.0" encoding="utf-8"?>
<!-- Generator: Adobe Illustrator 27.6.1, SVG Export Plug-In . SVG Version: 6.00 Build 0)  -->
<svg version="1.1" id="Layer_1" xmlns="http://www.w3.org/2000/svg" xmlns:xlink="http://www.w3.org/1999/xlink" x="0px" y="0px"
	 viewBox="0 0 375 375" style="enable-background:new 0 0 375 375;" xml:space="preserve">
<style type="text/css">
	.st0{fill:#AAA9B3;}
	.st1{fill:#C6C5CA;}
	.st2{fill:#73737A;}
</style>
<path class="st0" d="M291.8,187.5c0,1.2,0,2.5-0.1,3.7c-0.6,16.3-4.9,31.6-12.1,45.2c-1.2,2.2-2.4,4.4-3.7,6.5
	c-8.4,13.4-19.7,24.7-33,33.1c-2.1,1.3-4.3,2.6-6.5,3.7c-13.6,7.2-28.9,11.5-45.2,12.1c-1.2,0-2.5,0.1-3.7,0.1s-2.5,0-3.7-0.1
	c-16.3-0.6-31.6-4.9-45.2-12.1c-2.2-1.2-4.4-2.4-6.5-3.7c-13.4-8.4-24.7-19.7-33.1-33c-1.3-2.1-2.6-4.3-3.7-6.5
	c-7.2-13.5-11.5-28.9-12.1-45.1c0-1.2-0.1-2.5-0.1-3.8c0-1.2,0-2.5,0.1-3.7c0.6-16.3,4.9-31.6,12.1-45.2c1.2-2.2,2.4-4.4,3.7-6.5
	c8.4-13.4,19.7-24.7,33-33.1c2.1-1.3,4.3-2.6,6.5-3.7c13.6-7.2,28.9-11.5,45.2-12.1c1.2,0,2.5-0.1,3.7-0.1s2.5,0,3.7,0.1
	c16.3,0.6,31.6,4.9,45.2,12.1c2.2,1.2,4.4,2.4,6.5,3.7c13.4,8.4,24.7,19.7,33.1,33c1.3,2.1,2.6,4.3,3.7,6.5
	c7.2,13.5,11.5,28.9,12.1,45.1C291.8,185,291.8,186.2,291.8,187.5z"/>
<circle class="st1" cx="187.5" cy="187.5" r="95.3"/>
<g>
	<path class="st0" d="M191.2,83.3v208.5c-1.2,0-2.5,0.1-3.7,0.1s-2.5,0-3.7-0.1V83.3H191.2z"/>
	<path class="st0" d="M242.8,99.1l-45.1,78.2v0h0l-3.7,6.5l-1.4,2.4l-0.8,1.4l-0.6,1l-1,1.7l-0.6,1l-0.8,1.4l-1.4,2.4l-3.7,6.5
		l-45.2,78.2c-2.2-1.2-4.4-2.4-6.5-3.7l45.1-78.2v0h0l3.7-6.5l1.4-2.4l0.8-1.4l0.6-1l1-1.7l0.6-1l0.8-1.4l1.4-2.4l3.7-6.5l45.2-78.2
		C238.6,96.5,240.8,97.8,242.8,99.1z"/>
	<path class="st0" d="M279.7,138.6l-78.2,45.2l-6.5,3.7l-2.4,1.4l-1.4,0.8l-1,0.6l-1.7,1h0l-1,0.6l-1.4,0.8l-2.4,1.4l-6.5,3.7l0,0v0
		l-78.2,45.2c-1.3-2.1-2.6-4.3-3.7-6.5l78.2-45.2l6.5-3.7l2.4-1.4l1.4-0.8l1-0.6l1.7-1h0l1-0.6l1.4-0.8l2.4-1.4l6.5-3.7l0,0v0
		l78.2-45.2C277.2,134.2,278.5,136.4,279.7,138.6z"/>
	<path class="st0" d="M291.8,187.5c0,1.2,0,2.5-0.1,3.7l-90.3,0h-13l-2,0h-13l-90.3,0c0-1.2-0.1-2.5-0.1-3.8c0-1.2,0-2.5,0.1-3.7
		l90.3,0h13l2,0h13l90.3,0C291.8,185,291.8,186.2,291.8,187.5z"/>
	<path class="st0" d="M279.7,236.4c-1.2,2.2-2.4,4.4-3.7,6.5l-78.2-45.1l-6.5-3.7l-2.4-1.4l-1.4-0.8l-1-0.6h0l-1.7-1l-1-0.6
		l-1.4-0.8l-2.4-1.4l-6.5-3.7l-78.2-45.1c1.2-2.2,2.4-4.4,3.7-6.5l78.2,45.1l6.5,3.7l2.4,1.4l1.4,0.8l1,0.6h0l1.7,1l1,0.6l1.4,0.8
		l2.4,1.4l6.5,3.7L279.7,236.4z"/>
	<path class="st0" d="M242.9,275.9c-2.1,1.3-4.3,2.6-6.5,3.7l-45.2-78.2l-3.7-6.5l-1.4-2.4l-0.8-1.4l-0.6-1l-1-1.7l-0.6-1l-0.8-1.4
		l-1.4-2.4l-3.7-6.5l-45.2-78.2c2.1-1.3,4.3-2.6,6.5-3.7l45.2,78.2l3.7,6.5l1.4,2.4l0.8,1.4l0.6,1l1,1.7l0.6,1l0.8,1.4l1.4,2.4
		l3.7,6.5L242.9,275.9z"/>
</g>
<g>
	<path class="st2" d="M169,106c-0.2,0.1-0.5,0.2-0.8,0c-0.3-0.1-0.7-0.3-1.3-0.6c-0.5-0.3-1.2-0.7-2.1-1.2c-0.1,0.6,0,1.1,0.3,1.6
		c0.2,0.5,0.5,0.9,0.7,1.2c0.2,0.1,0.4,0.2,0.7,0.4c0.3,0.2,0.6,0.4,1.1,0.6c0.8,0.5,1.5,0.8,2.2,0.8c-0.2,0.5-0.5,0.7-0.7,0.7
		c-0.2,0-0.4-0.1-0.7-0.1c-0.3-0.1-0.6-0.2-0.9-0.4c-0.3-0.2-0.6-0.3-0.9-0.4c-0.2-0.1-0.4-0.1-0.5,0.1c-0.1,0.1,0,0.5,0.2,1.1
		l0.1,0.6c0.1,0.5,0.3,1,0.5,1.5c0.2,0.5,0.3,1,0.5,1.5c0.1,0.3,0,0.6-0.1,0.8c-0.2,0.2-0.4,0.3-0.7,0.4c-0.3,0.1-0.5,0-0.8-0.1
		c-0.1,0-0.2-0.2-0.2-0.4c0-0.2,0-0.3,0-0.4c0.1-0.2,0.2-0.4,0.1-0.7c0-0.5-0.1-1.1-0.3-1.7c-0.2-0.6-0.4-1.2-0.6-1.9
		c-0.2-0.6-0.4-1.1-0.4-1.4l0,0c0-0.1-0.1-0.3-0.1-0.5c0-0.2-0.1-0.5-0.1-0.8c-0.1-0.6-0.2-1.1-0.4-1.7c-0.1-0.5-0.3-1-0.5-1.4
		c-0.1-0.2-0.2-0.4-0.3-0.5c0,0-0.1-0.1-0.1-0.2c0-0.1,0-0.2,0-0.2c0.1-0.1,0.2-0.2,0.4-0.3c0.3-0.2,0.7-0.2,1.3,0
		c0.4,0.2,0.8,0.4,1.2,0.7l0.7,0.5l0.7,0.5c0.5,0.3,0.9,0.6,1.4,0.8c0.2,0.1,0.4,0.3,0.5,0.6C169.1,105.8,169.1,105.9,169,106z"/>
	<path class="st2" d="M265.5,214.2c0.2,0,0.4-0.1,0.5-0.4c0.1-0.1,0.2-0.3,0.2-0.4c0.1-0.2,0.2-0.3,0.4-0.5c0.2-0.1,0.5-0.4,0.9-0.8
		c0.4-0.4,0.8-0.7,1.2-0.9c0.1,0,0.2-0.1,0.3-0.1c0.1,0,0.2,0.1,0.3,0.2c0.2,0.4,0.4,0.9,0.6,1.4l0.3,0.7l0.3,0.7
		c0.1,0,0.3-0.1,0.4,0c0.2,0,0.3,0,0.3-0.1c0.5-0.6,1-1.2,1.6-1.7c0.6-0.5,1.2-1,2-1.5c0-0.7-0.4-1.2-1-1.5
		c-0.1-0.1-0.3-0.2-0.5-0.3c-0.2-0.1-0.3-0.2-0.5-0.2c-0.1,0-0.4,0-0.7,0.1c-0.2,0-0.5,0-0.7,0c-1-0.2-2.1-0.5-3.3-0.8
		c-1.2-0.3-2.4-0.5-3.5-0.8c-0.3-0.1-0.4-0.2-0.5-0.3c0-0.1-0.1-0.2-0.2-0.4c-0.1-0.1-0.2-0.2-0.4-0.2c-0.2-0.1-0.4-0.1-0.5,0
		c-0.2,0-0.3,0.1-0.4,0.2c-0.1,0.1-0.2,0.2-0.2,0.4c0,0.3,0.1,0.6,0.4,0.9c0.3,0.3,0.5,0.7,0.5,1c0.1,0.6,0.3,1.5,0.7,2.6
		c0.4,1.1,0.8,2,1.2,2.6C265.2,214.2,265.3,214.2,265.5,214.2z M272.1,210.3c-0.1,0.3-0.3,0.5-0.3,0.7c-0.1,0.2-0.2,0.5-0.4,0.7
		c-0.1,0.2-0.3,0.3-0.5,0.4c-0.2,0.1-0.3,0.3-0.5,0.4c-0.1-0.2-0.3-0.5-0.4-0.8c-0.2-0.3-0.3-0.5-0.4-0.7c-0.1-0.2-0.1-0.4,0-0.7
		l0.2-0.7c0.4,0.1,0.7,0.2,1.2,0.3L272.1,210.3z M264.9,212c-0.2-0.6-0.4-1.3-0.6-1.9c-0.1-0.3-0.2-0.7-0.2-1
		c-0.1-0.3-0.2-0.6-0.2-0.9l1,0.2l1,0.2c0.7,0.1,1.4,0.3,2,0.4c0,0,0.1,0.1,0.2,0.3c0.1,0.2,0.1,0.3,0.1,0.3c-0.2,0.2-0.6,0.5-1,0.9
		c-0.5,0.4-0.9,0.8-1.2,1.1c-0.1,0.2-0.3,0.2-0.6,0.3C265.1,212.1,264.9,212,264.9,212z"/>
	<path class="st2" d="M134.4,129c-0.9-0.8-1.8-1.6-2.7-2.4c-0.9-0.9-1.8-1.7-2.7-2.5c0.1-0.1,0-0.3-0.1-0.7c0-0.3-0.1-0.5-0.2-0.7
		c-0.1-0.2-0.2-0.3-0.3-0.3c-0.3,0.1-0.5,0.2-0.6,0.2c-0.1,0-0.3,0.1-0.5,0.3c-0.1,0.1-0.2,0.3-0.4,0.6c-0.2,0.3-0.2,0.5-0.1,0.6
		c0.1,0.2,0.2,0.4,0.5,0.5c0.2,0.1,0.4,0.2,0.5,0.4c0,0.1,0.1,0.3,0.2,0.7c0.1,0.4,0.2,0.8,0.3,1.3l0.1,0.7l0.1,0.3l0.1,0.3
		c0,0.3,0.1,0.5,0.1,0.7c-0.6,0-1.2,0-1.9-0.1l-1.1-0.1l-1-0.2c-0.2,0-0.6-0.1-0.9-0.1c-0.3,0-0.6-0.1-0.8-0.1
		c-0.5-0.1-0.7-0.1-0.8-0.1l0,0c-0.2,0.3-0.2,0.7,0.1,1.1c0.4,0.2,0.7,0.4,1,0.4c0.3,0.1,0.5,0.1,0.7,0.1c1,1,2.1,2,3.1,3
		c1.1,1,1.9,1.8,2.4,2.5c0.1,0.2,0.1,0.4,0.1,0.6l0,0.4c0,0.1,0,0.2,0.1,0.4c0.1,0.1,0.2,0.2,0.2,0.3c0.1,0.1,0.2,0.1,0.4,0.1
		c0.2,0,0.3-0.1,0.4-0.1c0.1-0.1,0.1-0.3,0.1-0.6c0-0.3,0-0.5,0-0.6c0-0.1-0.2-0.3-0.4-0.6c-0.2-0.3-0.3-0.5-0.3-0.7
		c0-0.5-0.1-1.1-0.1-1.8c-0.1-0.6-0.1-1.4-0.3-2.3c0.9,0.1,1.8,0.3,2.9,0.4c1.1,0.1,1.7,0.2,1.9,0.2c0.1,0.2,0.3,0.4,0.5,0.5
		c0.2,0.1,0.4,0.2,0.6,0.1c0.3-0.1,0.4-0.1,0.5-0.1c0.1,0,0.1-0.1,0.2-0.3c0.2-0.4,0.2-0.7,0-0.9c-0.2-0.2-0.4-0.5-0.5-0.8
		C135.3,129.4,134.8,129.3,134.4,129z M129.4,132.4c0.2,0.8,0.1,1.3-0.1,1.4c-0.9-1-1.6-1.7-2.2-2.2c-0.5-0.4-1.1-1-1.8-1.7
		c0.7-0.1,1.4,0,2,0.1c0.6,0.1,1.2,0.2,1.8,0.3C129.1,130.8,129.2,131.5,129.4,132.4z M131.2,129.1c-0.6-0.1-1.3-0.2-2-0.3
		c-0.2-0.7-0.3-1.3-0.4-1.9l-0.1-0.8l-0.1-0.8c0.6,0.5,1.3,1.1,1.9,1.7c0.6,0.6,1.4,1.3,2.6,2.4
		C132.5,129.3,131.9,129.3,131.2,129.1z"/>
	<path class="st2" d="M206.1,267.1c-1-0.9-1.6-1.5-1.8-1.7c-0.2-0.7-0.1-1.2,0.4-1.6c0.4-0.4,0.6-0.5,0.6-0.3c0,0.5,0.4,1,1,1.7
		c0.7,0.7,1.5,1.4,2.6,2c0.2-0.2,0.4-0.4,0.4-0.3c0-0.1,0-0.3,0.1-0.5c0.2-1.7,0.5-2.9,0.7-3.7c0.3-0.7,0.8-0.9,1.5-0.7
		c-0.1,0.2-0.3,0.5-0.4,0.9c-0.2,0.3-0.3,0.6-0.4,0.8c-0.4,1.8-0.7,3.1-0.8,3.8c-0.1,0.7,0.1,1.2,0.5,1.4c0.1,0,0.6,0.4,1.4,1.1
		c0.9,0.7,1.6,1.4,2.3,2c0.3,1,0.2,1.5-0.1,1.7c-0.3,0.2-0.7,0.2-0.9,0.2c-0.1-0.4-0.4-0.8-0.9-1.4c-0.5-0.5-0.8-0.9-1-1
		c-0.2-0.2-0.4-0.4-0.6-0.7c-0.2-0.3-0.4-0.4-0.6-0.6c-0.2-0.1-0.3-0.1-0.4,0c-0.1,0.1-0.2,0.5-0.3,1c-0.1,0.5-0.2,1.3-0.5,2.3
		c0.1,0.8,0,1.3-0.6,1.5c-0.5,0.3-0.9,0.5-1.3,0.6l-0.2-1.1c0.5-0.1,0.9-0.6,1.3-1.7c0.4-1.1,0.6-2.2,0.7-3.2L206.1,267.1z"/>
	<path class="st2" d="M126.4,245.1l-1.8,1.8l0,0c-0.6,0.6-1.1,0.9-1.6,1.1c-0.5,0.2-0.8,0.3-0.8,0.4c0,0.3,0.1,0.5,0.3,0.7
		c0.2,0.2,0.4,0.3,0.7,0.4c0.3,0.1,0.5,0.1,0.8,0.1c0.2,0,0.3-0.1,0.4-0.2c0.3-0.4,0.7-0.9,1.2-1.6c0.4-0.6,0.9-1.2,1.4-1.8l0.4,1.4
		l0.3,1.7l0,0c0.1,0.6,0.1,1.1-0.1,1.4c-0.2,0.4-0.2,0.6-0.2,0.6c-0.2,0.2-0.4,0.3-0.5,0.3c-0.2,0.1-0.3,0.2-0.4,0.3l0,0.1l0,0
		l0,0.1l0,0.2l-0.1,0.2c0,0.1,0,0.2,0.1,0.3c0.2,0.2,0.3,0.3,0.5,0.3c0.2,0.1,0.5,0.1,0.7,0.1c0.2,0,0.3-0.1,0.4-0.2
		c0.3-0.4,0.7-1,1.2-1.6c0.4-0.6,0.9-1.2,1.4-1.8c0.3-0.3,0.8-0.9,1.6-1.6c0.8-0.8,1.4-1.3,1.6-1.5c0.6-0.4,1.2-0.7,1.8-0.7
		c0-0.3-0.1-0.5-0.2-0.7c-0.2-0.2-0.4-0.4-0.6-0.5c-0.3-0.1-0.5-0.1-0.8,0c-0.3,0.1-0.5,0.3-0.7,0.6l-2.2,2.5
		c-0.1-0.2-0.2-0.4-0.3-0.6c-0.2-0.4-0.4-0.9-0.6-1.3c-0.2-0.5-0.3-1-0.4-1.4c0-0.2,0-0.4,0-0.6c0.2-0.2,0.3-0.4,0.3-0.4l0.2-0.1
		c0.6-0.4,1.2-0.7,1.8-0.7c0-0.3-0.1-0.5-0.2-0.7c-0.2-0.2-0.4-0.4-0.6-0.5c-0.2-0.1-0.5-0.1-0.8,0c-0.3,0.1-0.5,0.3-0.7,0.6
		L126.4,245.1z M129.4,245.5l0.5,1.5l0,0c0.2,0.5,0.2,0.9,0.1,1.3c0,0.1,0,0.2,0,0.2l-0.8,0.8c-0.1-0.2-0.1-0.4-0.2-0.5
		c-0.2-0.5-0.4-1-0.6-1.6c-0.1-0.5-0.2-1.1-0.2-1.6c0-0.2,0.3-0.6,0.8-1.2L129.4,245.5z"/>
	<g>
		<path class="st2" d="M266.9,171.4c-0.2-0.1-0.3-0.2-0.3-0.2l-0.8-0.5c-0.2-0.2-0.6-0.4-0.9-0.6s-0.7-0.5-1.1-0.7
			c-0.4-0.2-0.7-0.4-1-0.5c-0.1,0-0.2-0.1-0.3-0.1l-0.1,0l0,0l-0.3-0.1c0-0.2,0.1-0.5,0.3-0.7c0.2-0.2,0.3-0.4,0.5-0.5
			c0.2-0.1,0.5,0,0.9,0.1c0.3,0.2,0.7,0.4,1.2,0.7c0.5,0.3,1,0.5,1.4,0.8c0.2,0.1,0.5,0.3,0.8,0.5c0.2-0.4,0.3-0.7,0.5-0.9
			c0.2-0.4,0.5-0.8,0.8-1.3c0.3-0.5,0.5-0.9,0.7-1.2c0.2-0.3,0.4-0.5,0.7-0.5c0.2,0,0.4,0,0.7,0.1c0.3,0.1,0.4,0.3,0.5,0.5l-0.2,0.3
			l0,0l0,0c0,0-0.1,0.1-0.1,0.1c0,0-0.1,0.1-0.1,0.1c-0.2,0.3-0.4,0.6-0.6,1c-0.2,0.4-0.4,0.7-0.6,1.1c-0.2,0.4-0.3,0.7-0.5,1
			c-0.2,0.4-0.4,0.8-0.6,1.1l-0.1,0.1l0,0c0,0,0,0.1,0,0.1c-0.1,0.1-0.2,0.2-0.3,0.2C267.3,171.5,267.1,171.5,266.9,171.4z"/>
		<path class="st2" d="M267.6,167.1c-0.2,0.3-0.4,0.5-0.7,0.5c-0.2,0-0.5,0-0.7-0.1c-0.2-0.1-0.4-0.3-0.5-0.5l0.2-0.3l0,0l0.1,0
			c0.1-0.1,0.1-0.1,0.2-0.2c0.2-0.3,0.4-0.6,0.6-0.9c0.2-0.4,0.4-0.8,0.6-1.2c0.2-0.4,0.3-0.7,0.5-1l0.5-0.9c0,0,0.1-0.1,0.2-0.3
			c0.1-0.3,0.3-0.4,0.5-0.4c0.1,0,0.3,0,0.4,0.1l0.1,0.1l0.1,0l0,0l0,0l0,0c0.4,0.2,0.7,0.4,1.1,0.7c0.2,0.2,0.5,0.4,0.9,0.6
			c0.4,0.2,0.7,0.5,1.1,0.7c0.4,0.2,0.7,0.4,1,0.5c0.1,0,0.2,0.1,0.3,0.1l0.1,0l0,0l0.3,0.1c0,0.2-0.1,0.5-0.2,0.7
			c-0.2,0.2-0.3,0.4-0.6,0.5c-0.2,0.1-0.5,0.1-0.8-0.1c-0.3-0.1-0.7-0.4-1.2-0.7c-0.5-0.3-0.9-0.5-1.3-0.8c-0.2-0.1-0.5-0.3-0.8-0.5
			c-0.2,0.4-0.3,0.6-0.5,0.9c-0.2,0.4-0.5,0.8-0.8,1.3C268,166.4,267.8,166.8,267.6,167.1z"/>
	</g>
	<path class="st2" d="M161.2,270.9c-0.3,0.3-0.6,0.3-0.9,0.2c-0.4,0.3-0.5,0.5-0.3,0.8c0.2,0.2,0.5,0.3,0.8,0.4c0.4,0.1,0.7,0.1,1,0
		c0.3-0.1,0.4-0.2,0.3-0.5c0.2-0.1,0.5-0.3,0.9-0.5c0.3-0.2,0.7-0.4,1.1-0.7c0.4-0.2,0.7-0.4,1-0.5c0.3-0.1,0.5-0.2,0.6-0.1
		c0.1,0.2,0.3,0.5,0.7,1.1c0.3,0.6,0.7,1.1,1.1,1.7c0.4,0.6,0.8,1,1.2,1.4c0.4,0.4,0.8,0.5,1.2,0.4c0.2-0.3,0.3-0.6,0.3-0.7
		c0-0.1,0-0.2-0.1-0.2c-0.1,0-0.2-0.1-0.3-0.2c-0.1,0-0.2-0.2-0.2-0.5c0.3-2.7,0.7-4.8,1.2-6.4c0.4-1.6,1.1-2.5,1.9-2.6
		c0.1,0,0.1-0.3,0-0.7c-0.2-0.5-0.6-0.5-1.2-0.2c-0.6,0.3-0.9,0.4-1,0.4c-0.2,0.5-0.4,1-0.6,1.5c-0.2,0.5-0.4,1.1-0.5,1.7l0,0
		c-0.7,0.4-1.3,0.8-1.8,1.2c-0.5,0.4-1,0.6-1.4,0.8c-0.3-0.2-0.5-0.6-0.9-1.1c-0.3-0.5-0.7-1.1-1-1.9c0-0.7,0.2-1.5,0.5-2.5
		c0.4-1,0.7-1.6,0.8-2c-0.2-0.1-0.5-0.1-0.9-0.1c-0.3,0-0.7,0-1.1,0c0,0.3-0.1,0.9-0.2,1.7c0,0.3-0.1,0.7-0.2,1.1
		c-0.1,0.4-0.1,0.8-0.2,1.2c-0.2,0.9-0.3,1.7-0.5,2.4c-0.2,0.8-0.3,1.5-0.6,2C161.7,270.2,161.5,270.6,161.2,270.9z M166.6,269.2
		l0.2-0.1c0.2-0.1,0.3-0.3,0.5-0.4c0.4-0.3,0.7-0.5,1-0.7c0.3-0.2,0.5-0.2,0.7-0.1c0.1,0.1,0.1,0.5-0.2,1.1c-0.1,0.2-0.2,0.6-0.2,1
		c0,0.4-0.1,0.8-0.1,1.1c-0.1,0.3-0.1,0.5-0.2,0.6c-0.1,0-0.2-0.2-0.4-0.6c-0.1-0.2-0.3-0.4-0.6-0.7c-0.3-0.3-0.6-0.7-0.7-1
		L166.6,269.2z M163.1,269.3c0.1-0.4,0.2-0.7,0.3-0.9c0.1-0.3,0.2-0.4,0.4-0.5c0.1-0.1,0.3,0.1,0.5,0.4c0.1,0.1,0.2,0.2,0.4,0.3
		c0.2,0.1,0.4,0.4,0.4,0.9c-0.2,0-0.6,0.3-1.1,0.6c-0.5,0.4-0.9,0.3-1.1,0C162.9,269.9,163,269.6,163.1,269.3z"/>
	<path class="st2" d="M211,108.7c0.3-0.3,0.6-0.5,0.9-0.7c0.3-0.2,0.5-0.4,0.8-0.5c0,0,0,0,0.1,0l0.1-0.1l0,0l0.1,0l0.1-0.1
		c0.1-0.1,0.1-0.1,0.1-0.2c0-0.1,0-0.2,0-0.3l-0.1-0.1l0,0l0,0l-0.1-0.1l-0.1-0.1c-0.1-0.2-0.3-0.5-0.4-0.9
		c-0.1-0.3-0.3-0.7-0.4-1.1c-0.1-0.3-0.2-0.6-0.3-0.9c-0.1-0.3-0.2-0.7-0.4-1l0-0.1l0,0l0,0l0-0.1c0-0.1-0.1-0.2-0.2-0.2
		c-0.1,0-0.2,0-0.4,0.1c-0.1,0.1-0.2,0.2-0.2,0.2l-0.7,0.6c-0.2,0.2-0.5,0.4-0.7,0.6c-0.3,0.3-0.6,0.5-0.9,0.7
		c-0.3,0.2-0.6,0.4-0.8,0.6c0,0,0,0-0.1,0l-0.3,0.2c-0.1,0.1-0.2,0.1-0.2,0.2c0,0.1,0,0.1,0,0.2l0.1,0.1l0,0l0,0l0.1,0.1l0,0.1
		c0.1,0.2,0.3,0.5,0.4,0.9c0.1,0.3,0.3,0.7,0.4,1.1c0.1,0.3,0.2,0.6,0.3,0.9l0.2,0.5l-0.4,0.4c-0.2,0.2-0.5,0.4-0.7,0.6
		c-0.3,0.3-0.6,0.5-0.9,0.7c-0.3,0.2-0.6,0.4-0.8,0.6c-0.1,0.1-0.2,0.1-0.3,0.1c0,0-0.1,0-0.1,0c-0.1,0.3-0.1,0.5,0,0.6
		c0.1,0.2,0.2,0.3,0.4,0.4l0,0c0.1,0,0.3,0,0.5-0.2c0.2-0.1,0.5-0.4,0.9-0.7c0.4-0.3,0.8-0.6,1.1-0.8c0.2-0.2,0.4-0.4,0.7-0.6
		c0.1,0.4,0.2,0.7,0.3,0.9c0.1,0.4,0.3,0.8,0.5,1.2c0.2,0.5,0.4,0.8,0.5,1.1c0.1,0.2,0.2,0.4,0.4,0.4l0,0c0.1,0,0.3,0,0.5-0.1
		c0.1-0.1,0.2-0.2,0.3-0.6l0,0l-0.1,0c0-0.1-0.1-0.1-0.2-0.2c-0.1-0.2-0.3-0.5-0.4-0.9c-0.1-0.3-0.3-0.7-0.4-1.1
		c-0.1-0.4-0.2-0.7-0.3-0.9l-0.2-0.6l0.4-0.4C210.5,109.1,210.7,108.9,211,108.7z M210.1,107.9c-0.2,0.2-0.4,0.4-0.7,0.6
		c-0.1-0.4-0.2-0.7-0.3-0.9c-0.1-0.4-0.3-0.8-0.5-1.3c-0.1-0.3-0.2-0.5-0.3-0.7c0.2-0.1,0.4-0.3,0.6-0.5c0.4-0.3,0.8-0.6,1.1-0.8
		c0.2-0.2,0.4-0.4,0.7-0.6c0.1,0.4,0.2,0.7,0.3,0.9c0.1,0.4,0.3,0.8,0.5,1.2c0.1,0.3,0.2,0.6,0.3,0.8c-0.2,0.1-0.4,0.3-0.7,0.5
		C210.8,107.4,210.4,107.7,210.1,107.9z"/>
	<path class="st2" d="M106.2,205.4c-0.1,0-0.2,0.1-0.3,0.3c0,0,0,0.1,0,0.1l0,0l0,0l0,0.1l-0.4,1.2c-0.1,0.2-0.2,0.5-0.3,1
		c-0.1,0.4-0.3,0.8-0.4,1.2c-0.2,0.4-0.3,0.7-0.4,1c0,0.1-0.1,0.1-0.1,0.2l0,0l0,0c-0.1,0.3-0.2,0.4-0.2,0.4c-0.4,0-0.8,0-1.1,0
		c-0.6-0.1-1-0.1-1.1-0.1c-0.2,0.2-0.2,0.5-0.1,0.8c0.1,0.3,0.2,0.5,0.4,0.8c0.2,0.2,0.4,0.4,0.7,0.5c0.2,0.1,0.4,0.1,0.5,0
		c0.6-0.2,1.4-0.6,2.2-1c0.8-0.4,1.7-0.7,2.7-1c0.9-0.3,1.8-0.5,2.7-0.6c0.9-0.1,1.7,0,2.4,0.2c0.2-0.2,0.3-0.5,0.2-0.8
		c0-0.3-0.2-0.6-0.4-0.8c-0.2-0.2-0.5-0.4-0.8-0.4c-0.3-0.1-0.7,0-1.1,0.2l-0.4,0.2l-0.4-0.1c0,0-0.1,0-0.1,0c0,0-0.1-0.1-0.2-0.1
		c-0.2-0.2-0.5-0.4-0.8-0.7c-0.3-0.3-0.6-0.5-0.9-0.8c-0.3-0.3-0.6-0.5-0.8-0.7l-0.7-0.7c0,0-0.1-0.1-0.3-0.3
		C106.6,205.4,106.4,205.4,106.2,205.4z M107.5,208.3c0.3,0.3,0.7,0.6,1.1,1c0.2,0.2,0.4,0.3,0.5,0.4l-0.8,0.3l-2.4,0.7
		c0.1-0.2,0.2-0.4,0.3-0.7c0.2-0.5,0.4-1,0.5-1.4c0.1-0.2,0.2-0.5,0.2-0.8C107.1,207.9,107.3,208.1,107.5,208.3z"/>
	<path class="st2" d="M240.3,247.4c0.2,0,0.5,0,0.7,0c0.3-0.1,0.5-0.1,0.6-0.2c0.3,0,0.5,0,0.7,0c0.2,0,0.5,0,0.6,0
		c0.4,0,0.8,0,1.4,0.1c0.7,0,1.1,0.1,1.2,0.1c0,0,0.1,0,0.1,0l0.1,0h0.1c0.1,0,0.2,0.1,0.3,0.1c0.1,0.4,0.1,0.9,0.2,1.3
		c0,0.1,0,0.3,0,0.6c-0.1,1.2,0.1,1.9,0.4,2c0.2,0,0.4,0,0.7,0l0.4-0.1l0.4-0.1c0.4-0.1,0.6-0.1,0.8-0.2c0.1,0,0.1,0,0.2,0
		c0.1,0,0.2,0,0.4-0.1c0.4-0.1,0.7-0.1,1-0.2c0.9-0.2,1.5-0.4,1.6-0.5c0.1-0.1,0.1-0.1,0.1-0.2c0-0.2-0.1-0.4-0.4-0.7
		c-0.1-0.1-0.2-0.2-0.4-0.3c-0.1-0.1-0.2-0.2-0.3-0.2c-0.4-0.3-0.7-0.6-1-1c-0.3-0.4-0.7-0.8-1-1.1c-0.3-0.4-0.6-0.7-0.7-0.8
		c-0.2-0.2-0.6-0.6-1.1-1c-0.5-0.4-1-0.9-1.4-1.3c-0.4-0.4-0.8-0.9-1-1.3c-0.5-0.7-0.8-1-1.1-0.9c0,0-0.1,0-0.1,0l-0.1,0
		c-0.1,0-0.1,0-0.1,0.1c0,0-0.1,0.1-0.1,0.2c-0.1,0.3-0.1,0.6-0.1,0.9c0.1,0.3,0.2,0.6,0.4,0.8c0.2,0.1,0.4,0.3,0.6,0.5
		c0.2,0.2,0.5,0.4,0.7,0.7c0.6,0.5,1.1,0.9,1.5,1.3c0,0-0.1,0-0.1,0c-0.3,0-0.6,0-1,0.1c-0.4,0-1.1,0-1.9-0.1
		c-0.4,0-0.8-0.1-1.2-0.1c-0.4,0-0.8-0.1-1.1-0.1l-0.1,0l-0.1,0c-0.1,0-0.1,0-0.2,0c-0.2,0-0.3,0-0.5,0c-0.4,0-0.7,0.1-0.9,0.2
		c-0.1,0.1-0.1,0.1-0.1,0.2c-0.1,0.5,0,0.9,0.2,1.3C239.9,247.3,240.1,247.4,240.3,247.4z M247.5,246.4c0.5,0.4,1,0.9,1.4,1.3
		c0.5,0.4,0.9,0.9,1.4,1.4c-0.4,0.1-0.8,0.2-1.1,0.3c-0.4,0.1-0.8,0.2-1.3,0.2c-0.1-0.6-0.2-1.2-0.3-1.8
		C247.6,247.4,247.6,246.9,247.5,246.4z"/>
	<path class="st2" d="M250,131.9l-3.9,0.7l-2.1,0.5c0,0-0.1,0.1-0.4,0.2c-0.1,0.1-0.2,0.1-0.3,0.1l-0.4,0.2c-0.7,0.2-1,0.3-1.1,0.1
		c-0.2-0.4-0.3-0.7-0.3-0.7c-0.1-0.4,0.2-0.6,0.9-0.9c0.2-0.1,0.5-0.1,0.8-0.2c0.2,0,0.4-0.1,0.5-0.1c0.3-0.1,0.7-0.2,1.1-0.3
		l0.7-0.2l0.7-0.2c0.5-0.1,0.9-0.2,1.3-0.3c0.4-0.1,0.7-0.2,0.8-0.3c0.2-0.2,0-0.5-0.5-0.9c-0.5-0.4-1.1-0.8-1.8-1.2
		c-0.6-0.4-1.2-0.8-1.6-1.1c-0.4-0.3-0.3-0.5,0.2-0.5c0.7-0.1,1.6-0.3,2.8-0.8c1.2-0.5,2.1-0.9,2.9-1.3c0.4-0.2,0.7-0.2,0.9,0.1
		c0.3,0.3,0.4,0.5,0.4,0.5c0,0.1,0,0.1,0.1,0.2l0.1,0.1c0,0.1,0,0.2-0.1,0.3c-0.1,0.1-0.4,0.3-0.9,0.4l-0.3,0.1l-0.3,0.1
		c-0.3,0-0.4,0.1-0.6,0.1c-0.4,0.2-1,0.4-1.8,0.6c-0.5,0.2-0.9,0.3-1,0.4c0.2,0.1,0.7,0.5,1.6,1.1c0.8,0.6,1.4,1.1,1.9,1.3
		c0.5,0.2,0.7,0.5,0.5,1.1C250.7,131.6,250.4,131.9,250,131.9z"/>
	<path class="st2" d="M108.6,162.3c0.2,0.2,0.2,0.5,0,0.7c-0.2,0.1-0.5,0.3-1,0.5c-0.2,0.1-0.3,0.2-0.5,0.3l-0.5,0.2
		c-0.4,0.2-0.7,0.3-0.9,0.4c-0.6,0.2-1,0.3-1.2,0.4c-0.2,0.1-0.2,0.2,0,0.3c0.2,0.1,0.8,0.3,1.7,0.5l0.5,0.1
		c0.8,0.2,1.6,0.4,2.2,0.6l1.8,0.5c0.2,0.1,0.5,0.1,0.9,0.2l0.5,0.1l0.5,0.1c0.7,0.2,1.1,0.4,1.1,0.5c0,0.4-0.1,0.8-0.2,1.2
		c-0.1,0.2-0.3,0.1-0.8-0.1l-0.6-0.3c-0.2-0.1-0.4-0.2-0.4-0.2l-1.4-0.4c-0.4-0.1-1-0.3-1.8-0.5c-0.7-0.2-1.4-0.4-2.2-0.6
		c-0.8-0.2-1.5-0.4-2.2-0.5c-0.4-0.1-0.7-0.1-0.8-0.1c0.3,0.3,0.4,0.5,0.5,0.6c0,0.1,0.1,0.1,0.1,0.2c0.1,0.1,0.2,0.2,0.3,0.4
		c0.3,0.4,0.7,1,1.2,1.7c0.1,0.1,0.1,0.2,0.2,0.3l0.2,0.3c0.1,0.2,0.1,0.3,0.1,0.4c0,0,0,0.1,0,0.2l0,0.1l0.1,0.1
		c0.1,0.3,0.2,0.4,0.1,0.5c0,0.2-0.2,0.2-0.4,0c-0.2-0.1-0.5-0.4-0.8-0.7c-0.3-0.3-0.6-0.7-1-1.2c-0.3-0.4-0.6-0.8-0.8-1.2
		c-0.6-1-1.1-1.8-1.5-2.2c-0.4-0.4-0.6-0.7-0.7-0.9c-0.1-0.2,0.1-0.3,0.5-0.4c0.4-0.1,1-0.3,1.8-0.7c0,0,0.1-0.1,0.4-0.2
		c0.3-0.1,0.5-0.2,0.9-0.3l0.4-0.1l0.4-0.1c0.3-0.1,0.5-0.1,0.5-0.1c0.1,0,0.4-0.1,0.7-0.2l0.4-0.1l0.4-0.1
		C108,162.1,108.4,162.1,108.6,162.3z"/>
</g>
</svg>
