<svg xmlns="http://www.w3.org/2000/svg" xml:space="preserve" id="Layer_1" x="0" y="0" style="enable-background:new 0 0 375 375" version="1.1" viewBox="0 0 375 375"><style>.st0{fill:#aaa9b3}.st2{fill:#73737a}</style><path d="M291.8 187.5c0 1.2 0 2.5-.1 3.7-.6 16.3-4.9 31.6-12.1 45.2-1.2 2.2-2.4 4.4-3.7 6.5-8.4 13.4-19.7 24.7-33 33.1-2.1 1.3-4.3 2.6-6.5 3.7-13.6 7.2-28.9 11.5-45.2 12.1-1.2 0-2.5.1-3.7.1s-2.5 0-3.7-.1c-16.3-.6-31.6-4.9-45.2-12.1-2.2-1.2-4.4-2.4-6.5-3.7-13.4-8.4-24.7-19.7-33.1-33-1.3-2.1-2.6-4.3-3.7-6.5-7.2-13.5-11.5-28.9-12.1-45.1 0-1.2-.1-2.5-.1-3.8 0-1.2 0-2.5.1-3.7.6-16.3 4.9-31.6 12.1-45.2 1.2-2.2 2.4-4.4 3.7-6.5 8.4-13.4 19.7-24.7 33-33.1 2.1-1.3 4.3-2.6 6.5-3.7 13.6-7.2 28.9-11.5 45.2-12.1 1.2 0 2.5-.1 3.7-.1s2.5 0 3.7.1c16.3.6 31.6 4.9 45.2 12.1 2.2 1.2 4.4 2.4 6.5 3.7 13.4 8.4 24.7 19.7 33.1 33 1.3 2.1 2.6 4.3 3.7 6.5 7.2 13.5 11.5 28.9 12.1 45.1.1 1.3.1 2.5.1 3.8z" class="st0"/><circle cx="187.5" cy="187.5" r="95.3" style="fill:#c6c5ca"/><path d="M191.2 83.3v208.5c-1.2 0-2.5.1-3.7.1s-2.5 0-3.7-.1V83.3h7.4z" class="st0"/><path d="m242.8 99.1-45.1 78.2-3.7 6.5-1.4 2.4-.8 1.4-.6 1-1 1.7-.6 1-.8 1.4-1.4 2.4-3.7 6.5-45.2 78.2c-2.2-1.2-4.4-2.4-6.5-3.7l45.1-78.2 3.7-6.5 1.4-2.4.8-1.4.6-1 1-1.7.6-1 .8-1.4 1.4-2.4 3.7-6.5 45.2-78.2c2.3 1.1 4.5 2.4 6.5 3.7z" class="st0"/><path d="m279.7 138.6-78.2 45.2-6.5 3.7-2.4 1.4-1.4.8-1 .6-1.7 1-1 .6-1.4.8-2.4 1.4-6.5 3.7L99 243c-1.3-2.1-2.6-4.3-3.7-6.5l78.2-45.2 6.5-3.7 2.4-1.4 1.4-.8 1-.6 1.7-1 1-.6 1.4-.8 2.4-1.4 6.5-3.7 78.2-45.2c1.2 2.1 2.5 4.3 3.7 6.5z" class="st0"/><path d="M291.8 187.5c0 1.2 0 2.5-.1 3.7H83.1c0-1.2-.1-2.5-.1-3.8 0-1.2 0-2.5.1-3.7h208.6c.1 1.3.1 2.5.1 3.8z" class="st0"/><path d="M279.7 236.4c-1.2 2.2-2.4 4.4-3.7 6.5l-78.2-45.1-6.5-3.7-2.4-1.4-1.4-.8-1-.6-1.7-1-1-.6-1.4-.8-2.4-1.4-6.5-3.7-78.2-45.1c1.2-2.2 2.4-4.4 3.7-6.5l78.2 45.1 6.5 3.7 2.4 1.4 1.4.8 1 .6 1.7 1 1 .6 1.4.8 2.4 1.4 6.5 3.7 78.2 45.1z" class="st0"/><path d="M242.9 275.9c-2.1 1.3-4.3 2.6-6.5 3.7l-45.2-78.2-3.7-6.5-1.4-2.4-.8-1.4-.6-1-1-1.7-.6-1-.8-1.4-1.4-2.4-3.7-6.5L132 98.9c2.1-1.3 4.3-2.6 6.5-3.7l45.2 78.2 3.7 6.5 1.4 2.4.8 1.4.6 1 1 1.7.6 1 .8 1.4 1.4 2.4 3.7 6.5 45.2 78.2z" class="st0"/><path d="M169 106c-.2.1-.5.2-.8 0-.3-.1-.7-.3-1.3-.6-.5-.3-1.2-.7-2.1-1.2-.1.6 0 1.1.3 1.6.2.5.5.9.7 1.2.2.1.4.2.7.4.3.2.6.4 1.1.6.8.5 1.5.8 2.2.8-.2.5-.5.7-.7.7-.2 0-.4-.1-.7-.1-.3-.1-.6-.2-.9-.4-.3-.2-.6-.3-.9-.4-.2-.1-.4-.1-.5.1-.1.1 0 .5.2 1.1l.1.6c.1.5.3 1 .5 1.5s.3 1 .5 1.5c.1.3 0 .6-.1.8-.2.2-.4.3-.7.4-.3.1-.5 0-.8-.1-.1 0-.2-.2-.2-.4v-.4c.1-.2.2-.4.1-.7 0-.5-.1-1.1-.3-1.7-.2-.6-.4-1.2-.6-1.9-.2-.6-.4-1.1-.4-1.4 0-.1-.1-.3-.1-.5s-.1-.5-.1-.8c-.1-.6-.2-1.1-.4-1.7-.1-.5-.3-1-.5-1.4-.1-.2-.2-.4-.3-.5 0 0-.1-.1-.1-.2v-.2c.1-.1.2-.2.4-.3.3-.2.7-.2 1.3 0 .4.2.8.4 1.2.7l.7.5.7.5c.5.3.9.6 1.4.8.2.1.4.3.5.6 0 .3 0 .4-.1.5zM265.5 214.2c.2 0 .4-.1.5-.4.1-.1.2-.3.2-.4.1-.2.2-.3.4-.5.2-.1.5-.4.9-.8s.8-.7 1.2-.9c.1 0 .2-.1.3-.1.1 0 .2.1.3.2.2.4.4.9.6 1.4l.3.7.3.7c.1 0 .3-.1.4 0 .2 0 .3 0 .3-.1.5-.6 1-1.2 1.6-1.7.6-.5 1.2-1 2-1.5 0-.7-.4-1.2-1-1.5-.1-.1-.3-.2-.5-.3-.2-.1-.3-.2-.5-.2-.1 0-.4 0-.7.1h-.7c-1-.2-2.1-.5-3.3-.8-1.2-.3-2.4-.5-3.5-.8-.3-.1-.4-.2-.5-.3 0-.1-.1-.2-.2-.4-.1-.1-.2-.2-.4-.2-.2-.1-.4-.1-.5 0-.2 0-.3.1-.4.2-.1.1-.2.2-.2.4 0 .3.1.6.4.9.3.3.5.7.5 1 .1.6.3 1.5.7 2.6.4 1.1.8 2 1.2 2.6 0 .1.1.1.3.1zm6.6-3.9c-.1.3-.3.5-.3.7-.1.2-.2.5-.4.7-.1.2-.3.3-.5.4-.2.1-.3.3-.5.4-.1-.2-.3-.5-.4-.8-.2-.3-.3-.5-.4-.7-.1-.2-.1-.4 0-.7l.2-.7c.4.1.7.2 1.2.3l1.1.4zm-7.2 1.7c-.2-.6-.4-1.3-.6-1.9-.1-.3-.2-.7-.2-1-.1-.3-.2-.6-.2-.9l1 .2 1 .2c.7.1 1.4.3 2 .4 0 0 .1.1.2.3.1.2.1.3.1.3-.2.2-.6.5-1 .9-.5.4-.9.8-1.2 1.1-.1.2-.3.2-.6.3-.3.2-.5.1-.5.1zM134.4 129l-2.7-2.4c-.9-.9-1.8-1.7-2.7-2.5.1-.1 0-.3-.1-.7 0-.3-.1-.5-.2-.7-.1-.2-.2-.3-.3-.3-.3.1-.5.2-.6.2-.1 0-.3.1-.5.3-.1.1-.2.3-.4.6s-.2.5-.1.6c.1.2.2.4.5.5.2.1.4.2.5.4 0 .1.1.3.2.7.1.4.2.8.3 1.3l.1.7.1.3.1.3c0 .3.1.5.1.7-.6 0-1.2 0-1.9-.1l-1.1-.1-1-.2c-.2 0-.6-.1-.9-.1-.3 0-.6-.1-.8-.1-.5-.1-.7-.1-.8-.1-.2.3-.2.7.1 1.1.4.2.7.4 1 .4.3.1.5.1.7.1 1 1 2.1 2 3.1 3 1.1 1 1.9 1.8 2.4 2.5.1.2.1.4.1.6v.4c0 .1 0 .2.1.4.1.1.2.2.2.3.1.1.2.1.4.1s.3-.1.4-.1c.1-.1.1-.3.1-.6v-.6c0-.1-.2-.3-.4-.6s-.3-.5-.3-.7c0-.5-.1-1.1-.1-1.8-.1-.6-.1-1.4-.3-2.3.9.1 1.8.3 2.9.4 1.1.1 1.7.2 1.9.2.1.2.3.4.5.5.2.1.4.2.6.1.3-.1.4-.1.5-.1.1 0 .1-.1.2-.3.2-.4.2-.7 0-.9-.2-.2-.4-.5-.5-.8-.5-.2-1-.3-1.4-.6zm-5 3.4c.2.8.1 1.3-.1 1.4-.9-1-1.6-1.7-2.2-2.2-.5-.4-1.1-1-1.8-1.7.7-.1 1.4 0 2 .1l1.8.3c0 .5.1 1.2.3 2.1zm1.8-3.3c-.6-.1-1.3-.2-2-.3-.2-.7-.3-1.3-.4-1.9l-.1-.8-.1-.8c.6.5 1.3 1.1 1.9 1.7.6.6 1.4 1.3 2.6 2.4-.6-.1-1.2-.1-1.9-.3zM206.1 267.1c-1-.9-1.6-1.5-1.8-1.7-.2-.7-.1-1.2.4-1.6.4-.4.6-.5.6-.3 0 .5.4 1 1 1.7.7.7 1.5 1.4 2.6 2 .2-.2.4-.4.4-.3 0-.1 0-.3.1-.5.2-1.7.5-2.9.7-3.7.3-.7.8-.9 1.5-.7-.1.2-.3.5-.4.9-.2.3-.3.6-.4.8-.4 1.8-.7 3.1-.8 3.8-.1.7.1 1.2.5 1.4.1 0 .6.4 1.4 1.1.9.7 1.6 1.4 2.3 2 .3 1 .2 1.5-.1 1.7-.3.2-.7.2-.9.2-.1-.4-.4-.8-.9-1.4-.5-.5-.8-.9-1-1-.2-.2-.4-.4-.6-.7-.2-.3-.4-.4-.6-.6-.2-.1-.3-.1-.4 0-.1.1-.2.5-.3 1-.1.5-.2 1.3-.5 2.3.1.8 0 1.3-.6 1.5-.5.3-.9.5-1.3.6l-.2-1.1c.5-.1.9-.6 1.3-1.7s.6-2.2.7-3.2l-2.7-2.5zM126.4 245.1l-1.8 1.8c-.6.6-1.1.9-1.6 1.1-.5.2-.8.3-.8.4 0 .3.1.5.3.7.2.2.4.3.7.4.3.1.5.1.8.1.2 0 .3-.1.4-.2.3-.4.7-.9 1.2-1.6.4-.6.9-1.2 1.4-1.8l.4 1.4.3 1.7c.1.6.1 1.1-.1 1.4-.2.4-.2.6-.2.6-.2.2-.4.3-.5.3-.2.1-.3.2-.4.3v.4l-.1.2c0 .1 0 .2.1.3.2.2.3.3.5.3.2.1.5.1.7.1.2 0 .3-.1.4-.2.3-.4.7-1 1.2-1.6.4-.6.9-1.2 1.4-1.8.3-.3.8-.9 1.6-1.6.8-.8 1.4-1.3 1.6-1.5.6-.4 1.2-.7 1.8-.7 0-.3-.1-.5-.2-.7-.2-.2-.4-.4-.6-.5-.3-.1-.5-.1-.8 0-.3.1-.5.3-.7.6l-2.2 2.5-.3-.6c-.2-.4-.4-.9-.6-1.3-.2-.5-.3-1-.4-1.4v-.6c.2-.2.3-.4.3-.4l.2-.1c.6-.4 1.2-.7 1.8-.7 0-.3-.1-.5-.2-.7-.2-.2-.4-.4-.6-.5-.2-.1-.5-.1-.8 0-.3.1-.5.3-.7.6l-3.5 3.3zm3 .4.5 1.5c.2.5.2.9.1 1.3v.2l-.8.8c-.1-.2-.1-.4-.2-.5-.2-.5-.4-1-.6-1.6-.1-.5-.2-1.1-.2-1.6 0-.2.3-.6.8-1.2l.4 1.1zM266.9 171.4c-.2-.1-.3-.2-.3-.2l-.8-.5c-.2-.2-.6-.4-.9-.6s-.7-.5-1.1-.7c-.4-.2-.7-.4-1-.5-.1 0-.2-.1-.3-.1h-.1l-.3-.1c0-.2.1-.5.3-.7.2-.2.3-.4.5-.5.2-.1.5 0 .9.1.3.2.7.4 1.2.7.5.3 1 .5 1.4.8.2.1.5.3.8.5.2-.4.3-.7.5-.9.2-.4.5-.8.8-1.3.3-.5.5-.9.7-1.2.2-.3.4-.5.7-.5.2 0 .4 0 .7.1.3.1.4.3.5.5l-.2.3-.1.1-.1.1c-.2.3-.4.6-.6 1-.2.4-.4.7-.6 1.1-.2.4-.3.7-.5 1-.2.4-.4.8-.6 1.1l-.1.1v.1c-.1.1-.2.2-.3.2-.7.1-.9.1-1.1 0z" class="st2"/><path d="M267.6 167.1c-.2.3-.4.5-.7.5-.2 0-.5 0-.7-.1-.2-.1-.4-.3-.5-.5l.2-.3h.1l.2-.2.6-.9.6-1.2c.2-.4.3-.7.5-1l.5-.9s.1-.1.2-.3c.1-.3.3-.4.5-.4.1 0 .3 0 .4.1l.1.1h.1c.4.2.7.4 1.1.7.2.2.5.4.9.6.4.2.7.5 1.1.7.4.2.7.4 1 .5.1 0 .2.1.3.1h.1l.3.1c0 .2-.1.5-.2.7-.2.2-.3.4-.6.5-.2.1-.5.1-.8-.1-.3-.1-.7-.4-1.2-.7-.5-.3-.9-.5-1.3-.8-.2-.1-.5-.3-.8-.5-.2.4-.3.6-.5.9-.2.4-.5.8-.8 1.3-.3.4-.5.8-.7 1.1zM161.2 270.9c-.3.3-.6.3-.9.2-.4.3-.5.5-.3.8.2.2.5.3.8.4.4.1.7.1 1 0 .3-.1.4-.2.3-.5.2-.1.5-.3.9-.5.3-.2.7-.4 1.1-.7.4-.2.7-.4 1-.5.3-.1.5-.2.6-.1.1.2.3.5.7 1.1.3.6.7 1.1 1.1 1.7.4.6.8 1 1.2 1.4.4.4.8.5 1.2.4.2-.3.3-.6.3-.7 0-.1 0-.2-.1-.2s-.2-.1-.3-.2c-.1 0-.2-.2-.2-.5.3-2.7.7-4.8 1.2-6.4.4-1.6 1.1-2.5 1.9-2.6.1 0 .1-.3 0-.7-.2-.5-.6-.5-1.2-.2s-.9.4-1 .4l-.6 1.5c-.2.5-.4 1.1-.5 1.7-.7.4-1.3.8-1.8 1.2-.5.4-1 .6-1.4.8-.3-.2-.5-.6-.9-1.1-.3-.5-.7-1.1-1-1.9 0-.7.2-1.5.5-2.5.4-1 .7-1.6.8-2-.2-.1-.5-.1-.9-.1h-1.1c0 .3-.1.9-.2 1.7 0 .3-.1.7-.2 1.1-.1.4-.1.8-.2 1.2-.2.9-.3 1.7-.5 2.4-.2.8-.3 1.5-.6 2-.2.7-.4 1.1-.7 1.4zm5.4-1.7.2-.1c.2-.1.3-.3.5-.4.4-.3.7-.5 1-.7.3-.2.5-.2.7-.1.1.1.1.5-.2 1.1-.1.2-.2.6-.2 1s-.1.8-.1 1.1c-.1.3-.1.5-.2.6-.1 0-.2-.2-.4-.6-.1-.2-.3-.4-.6-.7-.3-.3-.6-.7-.7-1v-.2zm-3.5.1c.1-.4.2-.7.3-.9.1-.3.2-.4.4-.5.1-.1.3.1.5.4.1.1.2.2.4.3.2.1.4.4.4.9-.2 0-.6.3-1.1.6-.5.4-.9.3-1.1 0 0-.2.1-.5.2-.8zM211 108.7c.3-.3.6-.5.9-.7.3-.2.5-.4.8-.5h.1l.1-.1h.1l.1-.1c.1-.1.1-.1.1-.2v-.3l-.1-.1-.1-.1-.1-.1c-.1-.2-.3-.5-.4-.9-.1-.3-.3-.7-.4-1.1l-.3-.9c-.1-.3-.2-.7-.4-1v-.2c0-.1-.1-.2-.2-.2s-.2 0-.4.1l-.2.2-.7.6c-.2.2-.5.4-.7.6-.3.3-.6.5-.9.7-.3.2-.6.4-.8.6h-.1l-.3.2c-.1.1-.2.1-.2.2v.2l.1.1.1.1v.1c.1.2.3.5.4.9.1.3.3.7.4 1.1l.3.9.2.5-.4.4c-.2.2-.5.4-.7.6-.3.3-.6.5-.9.7-.3.2-.6.4-.8.6-.1.1-.2.1-.3.1h-.1c-.1.3-.1.5 0 .6.1.2.2.3.4.4.1 0 .3 0 .5-.2.2-.1.5-.4.9-.7.4-.3.8-.6 1.1-.8.2-.2.4-.4.7-.6.1.4.2.7.3.9.1.4.3.8.5 1.2.2.5.4.8.5 1.1.1.2.2.4.4.4.1 0 .3 0 .5-.1.1-.1.2-.2.3-.6h-.1c0-.1-.1-.1-.2-.2-.1-.2-.3-.5-.4-.9-.1-.3-.3-.7-.4-1.1-.1-.4-.2-.7-.3-.9l-.2-.6.4-.4c.4-.1.6-.3.9-.5zm-.9-.8c-.2.2-.4.4-.7.6-.1-.4-.2-.7-.3-.9-.1-.4-.3-.8-.5-1.3-.1-.3-.2-.5-.3-.7.2-.1.4-.3.6-.5.4-.3.8-.6 1.1-.8.2-.2.4-.4.7-.6.1.4.2.7.3.9.1.4.3.8.5 1.2.1.3.2.6.3.8-.2.1-.4.3-.7.5-.3.3-.7.6-1 .8zM106.2 205.4c-.1 0-.2.1-.3.3v.2l-.4 1.2c-.1.2-.2.5-.3 1-.1.4-.3.8-.4 1.2-.2.4-.3.7-.4 1 0 .1-.1.1-.1.2-.1.3-.2.4-.2.4H103c-.6-.1-1-.1-1.1-.1-.2.2-.2.5-.1.8.1.3.2.5.4.8.2.2.4.4.7.5.2.1.4.1.5 0 .6-.2 1.4-.6 2.2-1 .8-.4 1.7-.7 2.7-1 .9-.3 1.8-.5 2.7-.6.9-.1 1.7 0 2.4.2.2-.2.3-.5.2-.8 0-.3-.2-.6-.4-.8-.2-.2-.5-.4-.8-.4-.3-.1-.7 0-1.1.2l-.4.2-.4-.1h-.1s-.1-.1-.2-.1c-.2-.2-.5-.4-.8-.7-.3-.3-.6-.5-.9-.8-.3-.3-.6-.5-.8-.7l-.7-.7-.3-.3c-.1-.1-.3-.1-.5-.1zm1.3 2.9c.3.3.7.6 1.1 1 .2.2.4.3.5.4l-.8.3-2.4.7c.1-.2.2-.4.3-.7.2-.5.4-1 .5-1.4.1-.2.2-.5.2-.8.2.1.4.3.6.5zM240.3 247.4h.7c.3-.1.5-.1.6-.2H242.9c.4 0 .8 0 1.4.1.7 0 1.1.1 1.2.1H245.8c.1 0 .2.1.3.1.1.4.1.9.2 1.3v.6c-.1 1.2.1 1.9.4 2h.7l.4-.1.4-.1c.4-.1.6-.1.8-.2h.2c.1 0 .2 0 .4-.1.4-.1.7-.1 1-.2.9-.2 1.5-.4 1.6-.5.1-.1.1-.1.1-.2 0-.2-.1-.4-.4-.7-.1-.1-.2-.2-.4-.3-.1-.1-.2-.2-.3-.2-.4-.3-.7-.6-1-1-.3-.4-.7-.8-1-1.1-.3-.4-.6-.7-.7-.8-.2-.2-.6-.6-1.1-1-.5-.4-1-.9-1.4-1.3-.4-.4-.8-.9-1-1.3-.5-.7-.8-1-1.1-.9h-.2c-.1 0-.1 0-.1.1 0 0-.1.1-.1.2-.1.3-.1.6-.1.9.1.3.2.6.4.8.2.1.4.3.6.5.2.2.5.4.7.7.6.5 1.1.9 1.5 1.3h-.1c-.3 0-.6 0-1 .1-.4 0-1.1 0-1.9-.1-.4 0-.8-.1-1.2-.1-.4 0-.8-.1-1.1-.1h-.9c-.4 0-.7.1-.9.2-.1.1-.1.1-.1.2-.1.5 0 .9.2 1.3.3-.1.5 0 .7 0zm7.2-1c.5.4 1 .9 1.4 1.3.5.4.9.9 1.4 1.4-.4.1-.8.2-1.1.3-.4.1-.8.2-1.3.2l-.3-1.8c0-.4 0-.9-.1-1.4zM250 131.9l-3.9.7-2.1.5s-.1.1-.4.2c-.1.1-.2.1-.3.1l-.4.2c-.7.2-1 .3-1.1.1-.2-.4-.3-.7-.3-.7-.1-.4.2-.6.9-.9.2-.1.5-.1.8-.2.2 0 .4-.1.5-.1.3-.1.7-.2 1.1-.3l.7-.2.7-.2c.5-.1.9-.2 1.3-.3.4-.1.7-.2.8-.3.2-.2 0-.5-.5-.9s-1.1-.8-1.8-1.2c-.6-.4-1.2-.8-1.6-1.1-.4-.3-.3-.5.2-.5.7-.1 1.6-.3 2.8-.8 1.2-.5 2.1-.9 2.9-1.3.4-.2.7-.2.9.1.3.3.4.5.4.5 0 .1 0 .1.1.2l.1.1c0 .1 0 .2-.1.3-.1.1-.4.3-.9.4l-.3.1-.3.1c-.3 0-.4.1-.6.1-.4.2-1 .4-1.8.6-.5.2-.9.3-1 .4.2.1.7.5 1.6 1.1.8.6 1.4 1.1 1.9 1.3.5.2.7.5.5 1.1-.1.5-.4.8-.8.8zM108.6 162.3c.2.2.2.5 0 .7-.2.1-.5.3-1 .5-.2.1-.3.2-.5.3l-.5.2c-.4.2-.7.3-.9.4-.6.2-1 .3-1.2.4-.2.1-.2.2 0 .3.2.1.8.3 1.7.5l.5.1c.8.2 1.6.4 2.2.6l1.8.5c.2.1.5.1.9.2l.5.1.5.1c.7.2 1.1.4 1.1.5 0 .4-.1.8-.2 1.2-.1.2-.3.1-.8-.1l-.6-.3-.4-.2-1.4-.4c-.4-.1-1-.3-1.8-.5-.7-.2-1.4-.4-2.2-.6-.8-.2-1.5-.4-2.2-.5-.4-.1-.7-.1-.8-.1.3.3.4.5.5.6 0 .1.1.1.1.2.1.1.2.2.3.4.3.4.7 1 1.2 1.7.1.1.1.2.2.3l.2.3c.1.2.1.3.1.4V170.4l.1.1c.1.3.2.4.1.5 0 .2-.2.2-.4 0-.2-.1-.5-.4-.8-.7-.3-.3-.6-.7-1-1.2-.3-.4-.6-.8-.8-1.2-.6-1-1.1-1.8-1.5-2.2-.4-.4-.6-.7-.7-.9-.1-.2.1-.3.5-.4.4-.1 1-.3 1.8-.7 0 0 .1-.1.4-.2.3-.1.5-.2.9-.3l.4-.1.4-.1c.3-.1.5-.1.5-.1.1 0 .4-.1.7-.2l.4-.1.4-.1c.7-.4 1.1-.4 1.3-.2z" class="st2"/></svg>