<svg xmlns="http://www.w3.org/2000/svg" xml:space="preserve" style="enable-background:new 0 0 375 375" viewBox="0 0 375 375"><path d="M364.8 47.2v280.7c0 10.6-4.5 20.2-11.7 27-6.6 6.2-15.5 10-25.3 10H47.2c-20.5 0-37-16.6-37-37V47.2c0-9.8 3.8-18.7 10-25.3 6.7-7.2 16.3-11.7 27-11.7h280.7c20.4 0 36.9 16.5 36.9 37z" style="fill:#fdb62f"/><path d="M220.5 97.8c16.8 19.3 14.5 39.7-6.7 61.1-1.3 1.3-2.1 3.1-2.1 5v122.2c0 3.9-3.3 7.1-7.3 7.2l-31.8.5c-4.2 0-7.6-3.2-7.6-7.1V164.4c0-2.2-1-4.2-2.7-5.6-52.2-41.2 16-109.3 58.2-61z" style="fill:#30160a"/><path d="M10.2 327.8V47.2c0-10.6 4.5-20.2 11.7-27l333 333c-6.7 7.2-16.3 11.7-27 11.7H47.2c-20.5-.1-37-16.6-37-37.1z" style="opacity:.12"/></svg>